<?xml version="1.0" standalone="no"?>
<!DOCTYPE svg PUBLIC "-//W3C//DTD SVG 1.1//EN" "http://www.w3.org/Graphics/SVG/1.1/DTD/svg11.dtd" >
<svg xmlns="http://www.w3.org/2000/svg">
<metadata>
This is a custom SVG webfont generated by Fontspring.
Designer    : Ray Larabie
Foundry     : Ray Larabie
Foundry URL : http://www.typodermic.com
</metadata>
<defs>
<font id="webfontSVbpUjdn" horiz-adv-x="728" >
<font-face units-per-em="1000" ascent="700" descent="-300" />
<missing-glyph horiz-adv-x="307" />
<glyph unicode=" "  horiz-adv-x="307" />
<glyph unicode="&#x09;" horiz-adv-x="307" />
<glyph unicode="&#xa0;" horiz-adv-x="307" />
<glyph unicode="!" horiz-adv-x="195" d="M96 129q-34 0 -34 -43q0 -20 9 -32t25 -12t25.5 12t9.5 32t-9.5 31.5t-25.5 11.5zM96 173q35 0 57 -24t22 -63q0 -38 -22 -63t-57 -25q-36 0 -57 24.5t-21 63.5t21 63t57 24zM98 645q-22 0 -30 -17t-8 -52q0 -101 20 -358h33q19 238 19 360q0 67 -34 67zM98 689 q78 0 78 -111q0 -115 -21 -404h-115q-24 284 -24 402q0 57 17.5 85t64.5 28z" />
<glyph unicode="&#x22;" horiz-adv-x="252" d="M187 646h-35q0 -89 6 -146h22q7 55 7 146zM105 646h-35q0 -89 6 -146h22q7 55 7 146zM25 689h205q0 -136 -20 -236h-167q-17 95 -18 236z" />
<glyph unicode="#" horiz-adv-x="545" d="M188 275l14 113h167l-13 -113h-168zM67 275l-3 -46h87l-21 -185h30l22 185h168l-21 -185h29l22 185h75l3 46h-72l14 113h73l4 45h-72l23 195h-30l-24 -195h-167l24 195h-31l-24 -195h-91l-3 -45h89l-14 -113h-90zM16 185l10 133h93l2 27h-88l11 132h93l24 195h119 l-23 -195h79l22 195h119l-22 -195h71l-12 -132h-74l-4 -27h71l-11 -133h-77l-22 -185h-118l21 185h-80l-22 -185h-118l21 185h-85zM241 345l-3 -27h78l3 27h-78z" />
<glyph unicode="$" horiz-adv-x="550" d="M252 593v-205q-55 9 -91 36t-36 65q0 48 35.5 74t91.5 30zM281 92v229q164 -22 164 -118q0 -52 -50.5 -81.5t-113.5 -29.5zM252 -4h29v48q83 0 144 42t61 112q0 151 -205 183v214q103 0 142 -66l35 26q-21 40 -67.5 65t-109.5 25v38h-29v-37q-76 -4 -123 -48.5 t-47 -108.5q0 -128 170 -164v-231q-102 0 -156 70l-36 -28q25 -41 76 -66.5t116 -25.5v-48zM325 -47h-117v50q-64 11 -119 50t-87 95l103 79q55 -74 103 -85v149q-170 48 -170 198q0 73 45 126.5t125 68.5v43h117v-43q62 -11 111.5 -49t77.5 -93l-105 -75q-45 72 -84 81 v-131q100 -22 152.5 -74.5t52.5 -144.5q0 -80 -59 -132.5t-146 -62.5v-50zM325 268v-128q77 17 77 63q0 43 -77 65zM208 445v94q-39 -17 -39 -50q0 -26 39 -44z" />
<glyph unicode="%" horiz-adv-x="865" d="M206 714q82 0 127 -60.5t45 -150.5q0 -88 -45 -149.5t-127 -61.5t-127 61.5t-45 149.5q0 90 45 150.5t127 60.5zM206 618q-20 0 -33 -10.5t-18.5 -29.5t-7 -35.5t-1.5 -39.5t1.5 -39.5t7 -35.5t18.5 -29t33 -10q60 0 60 114q0 115 -60 115zM206 684q-68 0 -105 -52 t-37 -129q0 -76 37 -128.5t105 -52.5t105 52.5t37 128.5q0 77 -37 129t-105 52zM206 648q29 0 48.5 -13t27.5 -37t11 -45.5t3 -49.5t-3 -49.5t-11 -45t-27.5 -36.5t-48.5 -13q-30 0 -49.5 13t-27.5 37t-10.5 44.5t-2.5 49.5t2.5 50t10.5 45t27.5 37t49.5 13zM263 34l368 604 h-47l-370 -604h49zM693 672l-409 -672h-131l410 672h130zM661 408q82 0 127 -60.5t45 -150.5q0 -88 -45 -149.5t-127 -61.5t-127 61.5t-45 149.5q0 90 45 150.5t127 60.5zM661 312q-20 0 -33 -10.5t-18.5 -29.5t-7 -35.5t-1.5 -39.5t1.5 -39.5t7 -35.5t18.5 -29t33 -10 q60 0 60 114q0 115 -60 115zM661 378q-68 0 -105 -52t-37 -129q0 -76 37 -128.5t105 -52.5t105 52.5t37 128.5q0 77 -37 129t-105 52zM661 342q29 0 48.5 -13t27.5 -37t11 -45.5t3 -49.5t-3 -49.5t-11 -45t-27.5 -36.5t-48.5 -13q-30 0 -49.5 13t-27.5 37t-10.5 44.5 t-2.5 49.5t2.5 50t10.5 45t27.5 37t49.5 13z" />
<glyph unicode="&#x26;" horiz-adv-x="661" d="M537 66l47 -27q23 49 23 93q0 54 -36 97t-111 90q-27 17 -76 39.5t-79.5 38t-55.5 44.5t-25 67q0 39 23 63t67 24q41 0 66.5 -19t25.5 -51q0 -23 -14 -46q20 -13 36 -19q20 29 20 58q0 61 -37 94t-97 33q-58 0 -95.5 -38t-37.5 -101q0 -72 80 -124q-20 -2 -49.5 -13 t-66 -31t-61.5 -55.5t-25 -79.5q0 -84 56.5 -125.5t144.5 -41.5q45 0 89.5 14.5t66.5 46.5l-40 25q-45 -36 -117 -36q-57 0 -106.5 32t-49.5 85q0 60 56.5 97t121.5 37q76 0 177 -73.5t101 -135.5q0 -40 -22 -62zM603 -17l-122 68q34 34 34 77q0 41 -85 103t-149 62 q-49 0 -91.5 -25t-42.5 -65q0 -32 35.5 -53t76.5 -21q21 0 54 13t58 33l100 -74q-60 -109 -211 -109q-107 0 -176 52t-69 159q0 73 48 124.5t129 70.5q-55 41 -55 108q0 85 49.5 134t127.5 49t127.5 -44t49.5 -127q0 -28 -16.5 -59t-33.5 -44q-76 33 -105 54q27 22 27 51 q0 34 -49 34q-23 0 -34.5 -13t-11.5 -33q0 -45 85 -87l96.5 -49.5t78.5 -48t68 -55.5t38.5 -60.5t16.5 -75.5q0 -75 -48 -149z" />
<glyph unicode="'" horiz-adv-x="146" d="M9 689h124q0 -112 -21 -231h-84q-19 117 -19 231zM89 646h-35q0 -89 6 -146h22q7 55 7 146z" />
<glyph unicode="(" horiz-adv-x="276" d="M224 693l-19 47q-76 -25 -112 -117t-36 -301q0 -234 34 -339.5t112 -130.5l11.5 25t10.5 21q-38 12 -63 49.5t-37 99t-16 124.5t-4 151q0 76 4 131t16 109t37 87t62 44zM231 794l51 -129q-79 -24 -106 -111t-27 -232q0 -82 4.5 -138.5t18 -115t42.5 -94t74 -48.5 q-19 -44 -60 -127q-55 11 -92.5 36t-61.5 63.5t-37 102t-18 137.5t-5 184q0 243 43.5 345t173.5 127z" />
<glyph unicode=")" horiz-adv-x="299" d="M78 -101l19 -47q51 16 82 57.5t48.5 130t17.5 230.5q0 234 -34 338.5t-112 131.5l-11.5 -25t-10.5 -21q38 -12 63 -49t37 -99t16 -125t4 -151q0 -162 -23.5 -255.5t-95.5 -115.5zM71 -202l-51 129q43 13 70.5 44.5t40.5 80.5t17.5 98.5t4.5 119.5q0 64 -2.5 111t-11 99 t-23 87t-40.5 62t-62 37q19 44 60 127q55 -11 92.5 -36.5t61.5 -64t37 -102.5t18 -137t5 -183q0 -243 -44 -345.5t-173 -126.5z" />
<glyph unicode="*" horiz-adv-x="490" d="M246 677q24 0 43.5 -20.5t19.5 -54.5q0 -12 -6 -36l-6 -24q49 68 84 68q27 0 44 -19.5t17 -49.5q0 -42 -54 -75q42 -3 65 -19t23 -55q0 -28 -16 -47.5t-44 -19.5q-26 0 -62 16q27 -36 27 -65q0 -30 -18.5 -50t-42.5 -20q-54 0 -77 109q-5 -26 -9 -40.5t-12.5 -33t-21 -27 t-30.5 -8.5q-27 0 -44.5 19t-17.5 51t25 64q-37 -15 -54 -15q-30 0 -47.5 21.5t-17.5 48.5q0 73 87 74q-54 32 -54 72q0 30 17 50.5t44 20.5q35 0 82 -57q-6 23 -6 47q0 38 17 56.5t45 18.5zM244 644q-35 0 -35 -41q0 -17 10.5 -58t10.5 -63q0 -13 -7 -13t-26 27.5t-43.5 55 t-44.5 27.5q-15 0 -24.5 -11t-9.5 -27q0 -14 20 -29t44 -25.5t44 -22.5t20 -21q0 -11 -21 -11q-20 0 -44.5 1t-30.5 1q-65 0 -65 -39q0 -15 10 -25.5t28 -10.5q20 0 67.5 25.5t56.5 25.5q10 0 10 -7q0 -13 -39.5 -58t-39.5 -70q0 -16 10 -26t24 -10q24 0 36.5 38.5 t19.5 76.5t18 38q8 0 14 -24t10 -52.5t17 -52.5t34 -24q13 0 23.5 10.5t10.5 25.5q0 22 -40 68.5t-40 57.5q0 9 10 9q3 0 16 -5l35 -19q5 -2 18.5 -8.5t20.5 -9.5t18 -6t20 -3q16 0 25.5 9.5t9.5 23.5t-7.5 23t-25 12.5t-30.5 4t-39 0.5h-20q-40 0 -40 11t32 25.5t64 33.5 t32 39q0 15 -9.5 25t-24.5 10q-17 0 -40.5 -27t-43.5 -53.5t-31 -26.5q-5 0 -5 9q0 26 12 67.5t12 57.5q0 18 -11 29.5t-26 11.5z" />
<glyph unicode="+" horiz-adv-x="384" d="M45 288h127v-116h45v116h121v50h-121v119h-45v-119h-127v-50zM128 244h-127v137h127v119h133v-119h121v-137h-121v-115h-133v115z" />
<glyph unicode="," horiz-adv-x="208" d="M104 134q-42 0 -42 -52q0 -21 13.5 -36t27.5 -18q-6 -32 -36 -55q5 -13 14 -23q64 64 64 135q0 49 -41 49zM104 176q39 0 61 -25t22 -66q0 -63 -34.5 -110t-82.5 -73q-30 30 -44 76q27 16 31 32q-37 25 -37 72q0 94 84 94z" />
<glyph unicode="-" horiz-adv-x="316" d="M70 230h158l17 58h-156zM263 186h-252l45 146h243z" />
<glyph unicode="." horiz-adv-x="185" d="M91 129q-34 0 -34 -43q0 -20 9 -32t25 -12t25.5 12t9.5 32t-9.5 31.5t-25.5 11.5zM91 173q35 0 57 -24t22 -63q0 -38 -22 -63t-57 -25q-36 0 -57 24.5t-21 63.5t21 63t57 24z" />
<glyph unicode="/" horiz-adv-x="348" d="M105 44l182 584h-45l-182 -584h45zM347 672l-209 -672h-138l210 672h137z" />
<glyph unicode="0" horiz-adv-x="595" d="M296 592q44 0 76 -17t49.5 -41t27.5 -60.5t12.5 -66.5t2.5 -67q0 -38 -2.5 -68t-12.5 -66.5t-27.5 -60.5t-49.5 -40.5t-76 -16.5t-76.5 17t-49.5 40.5t-26.5 60.5t-12 66t-2.5 68t2.5 68.5t12 66t27 60.5t49.5 40.5t76 16.5zM296 645q-109 0 -168.5 -86.5t-59.5 -218.5 q0 -128 59.5 -216t168.5 -88t169 88t60 216q0 132 -59.5 218.5t-169.5 86.5zM296 689q132 0 202.5 -100t70.5 -249q0 -94 -29 -171t-92.5 -127t-151.5 -50t-151.5 50t-92 127t-28.5 171q0 149 70.5 249t201.5 100zM296 549q-40 0 -66.5 -19t-38 -53.5t-15 -65t-3.5 -71.5 q0 -32 2 -56.5t9 -54.5t19.5 -50t36.5 -33.5t56 -13.5q40 0 66.5 19t38 53t15.5 65t4 71t-4 71t-15.5 65.5t-38 53.5t-66.5 19z" />
<glyph unicode="1" horiz-adv-x="231" d="M109 44h57v588l-124 -61l4 -18l63 -5v-504zM-2 598l212 96v-694h-144v507l-55 6z" />
<glyph unicode="2" horiz-adv-x="556" d="M73 115l13 -71h401l7 57h-310l-7 24q300 133 300 337q0 84 -52 132t-142 48t-143.5 -38.5t-53.5 -114.5q0 -47 25 -79l38 27q-20 27 -20 56q0 48 48 75t104 27q59 0 105.5 -38.5t46.5 -91.5q0 -183 -360 -350zM50 0l-26 140q54 26 94 47.5t95 56.5t90.5 67t61 73t25.5 81 q0 36 -33.5 61t-75.5 25q-38 0 -73 -15t-35 -43q0 -32 37 -63l-108 -78q-60 73 -60 137q0 97 66 147t175 50q111 0 174.5 -61t63.5 -163q0 -178 -212 -317h234l-18 -145h-475z" />
<glyph unicode="3" horiz-adv-x="576" d="M112 569l273 4l-180 -199l35 -33q34 17 72 17q58 0 100.5 -28.5t42.5 -80.5q0 -74 -55.5 -118t-132.5 -44q-42 0 -91.5 20.5t-69.5 52.5l-46 -29q18 -40 76 -67.5t136 -27.5q95 0 164 56t69 154q0 72 -46 115.5t-111 43.5q-30 0 -56 -5l170 199l-11 29h-339v-59zM286 525 h-217v147h411l26 -89l-119 -138q71 -12 116.5 -65.5t45.5 -133.5q0 -121 -82 -187.5t-195 -66.5q-97 0 -171.5 41t-94.5 112l113 79q21 -42 64.5 -67.5t83.5 -25.5q58 0 101.5 32t43.5 86q0 31 -29.5 48t-70.5 17q-28 0 -77 -24l-90 84z" />
<glyph unicode="4" horiz-adv-x="530" d="M398 285v232l-50 -35v-197h-245q14 37 38.5 67.5t49 53.5t48.5 50t41 70.5t21 101.5h-51q0 -55 -20.5 -96.5t-50 -69.5l-58.5 -57t-49.5 -74t-20.5 -104h297v-183h50v183h76l7 58h-83zM442 599v-270h88l-18 -145h-70v-184h-137v184h-303v12q0 62 11.5 109t29.5 75.5 t39.5 52t43.5 44.5t40 45t29.5 62t11.5 88h139q-4 -104 -24 -158zM180 329h125v150q-9 -30 -62.5 -79.5t-62.5 -70.5z" />
<glyph unicode="5" horiz-adv-x="574" d="M309 437q-71 0 -170 -47l15 198q79 -29 156 -29q74 0 148 20l7 46q-45 -8 -125 -8q-102 0 -178 18q-17 -8 -38 -12l-24 -265q9 -4 21.5 -10.5l20.5 -10.5q42 30 72 37.5t91 7.5q59 0 105.5 -38t46.5 -95q0 -73 -59 -117.5t-135 -44.5q-40 0 -91.5 25.5t-68.5 56.5 l-46 -24q18 -48 76 -78.5t127 -30.5q101 0 174 55.5t73 154.5q0 91 -55.5 141t-142.5 50zM309 481q109 0 175.5 -61.5t66.5 -173.5q0 -121 -86 -187.5t-205 -66.5q-88 0 -165 50t-93 120l116 54q19 -36 65.5 -60.5t79.5 -24.5q58 0 104 32.5t46 85.5q0 38 -32.5 64t-75.5 26 q-51 0 -80.5 -8.5t-76.5 -44.5l-94 44l29 327q45 10 78 24q88 -20 179 -20q72 0 176 15l-20 -132q-107 -29 -186 -29q-51 0 -115 14l-7 -71q69 23 121 23z" />
<glyph unicode="6" horiz-adv-x="570" d="M138 234q0 57 45 102.5t112 45.5q66 0 108 -42.5t42 -106.5q0 -59 -44 -103t-110 -44q-71 0 -112 43t-41 105zM349 645q-131 0 -205 -91.5t-74 -230.5q0 -132 54 -209.5t167 -77.5q85 0 146.5 56t61.5 142q0 85 -55.5 145t-139.5 60q-55 0 -93.5 -19t-56.5 -42.5 t-41 -66.5q0 132 62.5 203.5t160.5 71.5q72 0 105 -13l25 51q-44 21 -117 21zM349 689q83 0 175 -45l-58 -128q-67 26 -130 26q-94 0 -163 -100q36 27 62 34t69 7q104 0 171.5 -72.5t67.5 -176.5t-74.5 -173t-177.5 -69q-135 0 -200 89.5t-65 241.5q0 158 86 262t237 104z M182 234q0 -46 29 -75.5t80 -29.5q49 0 79.5 31t30.5 73q0 47 -29.5 76.5t-76.5 29.5q-49 0 -81 -32t-32 -73z" />
<glyph unicode="7" horiz-adv-x="494" d="M59 566h303q-198 -192 -198 -413q0 -107 59 -146l42 54q-36 36 -36 108q0 228 224 427l-13 32h-389zM268 522h-249l-18 150h473l31 -91q-233 -205 -233 -412q0 -52 51 -103l-91 -118q-112 77 -112 205q0 199 148 369z" />
<glyph unicode="8" horiz-adv-x="563" d="M286 600q49 0 86.5 -27.5t37.5 -72.5q0 -46 -36 -73.5t-88 -27.5t-88.5 27.5t-36.5 73.5q0 44 38 72t87 28zM286 86q-68 0 -120 34.5t-52 96.5q0 56 52.5 94.5t119.5 38.5q66 0 118 -38.5t52 -94.5q0 -60 -51.5 -95.5t-118.5 -35.5zM286 645q-72 0 -122.5 -35t-50.5 -105 q0 -42 18.5 -72t76.5 -54q-77 -23 -109 -64t-32 -105q0 -82 64.5 -128t154.5 -46q89 0 153.5 46t64.5 128q0 63 -32.5 104t-113.5 65q100 31 100 126q0 71 -51 105.5t-121 34.5zM286 689q41 0 78 -10t68.5 -31t50.5 -57.5t19 -85.5q0 -76 -55 -118q55 -29 77.5 -72 t22.5 -105q0 -102 -77.5 -160t-183.5 -58q-68 0 -126.5 24t-97.5 75t-39 119q0 125 99 177q-53 41 -53 118q0 49 19.5 86.5t52 58t69 30t76.5 9.5zM286 129q48 0 87.5 23t39.5 65q0 38 -38.5 63.5t-88.5 25.5t-89 -25.5t-39 -63.5q0 -41 39 -64.5t89 -23.5zM286 556 q-33 0 -57.5 -15.5t-24.5 -40.5t24 -41t58 -16q33 0 56.5 16t23.5 41q0 24 -23 40t-57 16z" />
<glyph unicode="9" horiz-adv-x="570" d="M431 446q0 -56 -45 -93t-113 -37t-108.5 35t-40.5 97q0 59 42.5 102.5t111.5 43.5q71 0 112 -42.5t41 -105.5zM220 36q87 0 151.5 47.5t96 122.5t31.5 166q0 129 -53.5 201t-167.5 72q-86 0 -147 -56.5t-61 -141.5q0 -86 54 -137.5t141 -51.5q129 0 192 121 q0 -135 -67 -210t-158 -75q-67 0 -106 13l-23 -51q38 -20 117 -20zM220 -8q-89 0 -173 43l56 126q65 -23 129 -23q93 0 168 119q-34 -26 -63.5 -34.5t-71.5 -8.5q-106 0 -172.5 64t-66.5 169q0 104 74 173t178 69q137 0 201 -84t64 -233q0 -103 -36.5 -188.5t-111 -138.5 t-175.5 -53zM387 446q0 44 -29.5 74t-79.5 30q-49 0 -79.5 -30.5t-30.5 -71.5t28.5 -64.5t76.5 -23.5q52 0 83 25.5t31 60.5z" />
<glyph unicode=":" horiz-adv-x="193" d="M95 129q-34 0 -34 -43q0 -20 9 -32t25 -12t25.5 12t9.5 32t-9.5 31.5t-25.5 11.5zM95 173q35 0 57 -24t22 -63q0 -38 -22 -63t-57 -25q-36 0 -57 24.5t-21 63.5t21 63t57 24zM95 462q-16 0 -25 -12t-9 -32t9 -32t25 -12t25.5 12t9.5 32t-9.5 32t-25.5 12zM95 506 q35 0 57 -24t22 -64q0 -39 -22 -63t-57 -24q-36 0 -57 24t-21 63q0 40 21 64t57 24z" />
<glyph unicode=";" horiz-adv-x="172" d="M47 418q0 -20 9 -32t25 -12t25.5 12t9.5 32t-9.5 32t-25.5 12t-25 -12t-9 -32zM4 418q0 40 20.5 64t56.5 24t57.5 -24t21.5 -64q0 -39 -21.5 -63t-57.5 -24t-56.5 24t-20.5 63zM81 134q-42 0 -42 -52q0 -21 13.5 -36t27.5 -18q-6 -32 -36 -55q4 -13 14 -23q64 57 64 135 q0 49 -41 49zM81 176q41 0 62 -25.5t21 -65.5q0 -115 -117 -183q-30 30 -44 76q27 16 31 32q-37 24 -37 72q0 43 21 68.5t63 25.5z" />
<glyph unicode="&#x3c;" horiz-adv-x="483" d="M464 65l-445 267v66l445 269v-144l-261 -157l261 -157v-144zM63 356l357 -213v42l-303 181l303 181v42l-357 -215v-18z" />
<glyph unicode="=" horiz-adv-x="483" d="M464 409h-445v136h445v-136zM63 453h357v48h-357v-48zM464 180h-445v136h445v-136zM63 224h357v48h-357v-48z" />
<glyph unicode="&#x3e;" horiz-adv-x="483" d="M63 143l357 213v18l-357 215v-42l303 -181l-303 -181v-42zM464 332l-445 -267v144l261 157l-261 157v144l445 -269v-66z" />
<glyph unicode="?" horiz-adv-x="431" d="M135 86q0 -20 9.5 -32t25.5 -12t25.5 12t9.5 32t-9.5 31.5t-25.5 11.5t-25.5 -11.5t-9.5 -31.5zM379 465q0 77 -49 128.5t-120 51.5q-58 0 -98.5 -23.5t-51.5 -52.5l33 -31q42 44 111 44q60 0 90 -33t30 -84q0 -52 -31 -83.5t-81 -31.5h-57l6 -157h23l11 111 q99 0 141.5 42t42.5 119zM92 86q0 46 31 68l-13 240h102q31 0 50 19.5t19 51.5q0 34 -21 53.5t-58 19.5q-34 0 -57.5 -13t-49.5 -40l-85 79q20 54 69.5 89.5t130.5 35.5q91 0 151.5 -64.5t60.5 -159.5q0 -89 -47 -141t-140 -62l-15 -110q29 -26 29 -66q0 -38 -22 -63 t-57 -25t-56.5 24.5t-21.5 63.5z" />
<glyph unicode="@" horiz-adv-x="758" d="M378 230q-59 0 -84 27t-25 89q0 46 28.5 76.5t77.5 30.5q65 0 96 -59v-119q-25 -45 -93 -45zM236 344q0 -72 39.5 -111t99.5 -39q50 0 108 38q37 -24 68 -24q61 0 94 44.5t33 134.5q0 120 -75 189.5t-212 69.5q-133 0 -220 -80t-87 -227q0 -145 85.5 -224t242.5 -79 q62 0 118 17l-29 43q-36 -10 -96 -10q-137 0 -209.5 71t-72.5 182q0 121 76 190t179 69q128 0 194 -64t66 -150q0 -72 -23 -106t-59 -34q-48 0 -53 32v188l-20 14l-15 -19q-34 29 -100 29q-53 0 -92.5 -40.5t-39.5 -103.5zM200 344q0 81 49 132.5t119 51.5q59 0 86 -23 l13 17q45 -18 72 -43v-199q61 4 61 104q0 68 -57 120.5t-165 52.5q-85 0 -149.5 -58.5t-64.5 -159.5q0 -92 63 -153t178 -61q39 0 112 22l76 -120q-93 -35 -181 -35q-176 0 -273.5 91t-97.5 256q0 167 99.5 258.5t250.5 91.5q157 0 244 -82t87 -220q0 -63 -15.5 -108 t-42 -67t-53.5 -31.5t-57 -9.5q-43 0 -72 22q-15 -15 -45.5 -25t-61.5 -10q-78 0 -126.5 48t-48.5 138zM378 263q14 0 33.5 6t25.5 12v113q-25 21 -62 21q-30 0 -50.5 -20.5t-20.5 -48.5q0 -83 74 -83z" />
<glyph unicode="A" horiz-adv-x="651" d="M522 286h-386q33 137 119.5 207t220.5 70h46v-277zM577 628h-84q-197 0 -311.5 -129t-114.5 -321q0 -127 47 -217t112 -120l45 55q-61 23 -105.5 97.5t-44.5 179.5q0 17 8 54h393v-183h55v584zM493 672h128v-672h-142v184h-315v-11q0 -99 48 -168t118 -97l-90 -122 q-103 38 -159.5 141.5t-56.5 250.5q0 137 53 247.5t161.5 178.5t254.5 68zM195 330h284v189h-3q-209 0 -281 -189z" />
<glyph unicode="B" horiz-adv-x="660" d="M149 570h193q156 0 156 -92q0 -31 -15.5 -53t-35.5 -32.5t-54 -16t-54 -6.5t-52 -1h-138v201zM401 101h-252v213h234q22 0 46 -4.5t49.5 -15.5t41.5 -33.5t16 -53.5q0 -49 -38.5 -77.5t-96.5 -28.5zM92 44h318q82 0 130 48t48 122q0 54 -32.5 88.5t-114.5 47.5 q61 25 84.5 56t23.5 78q0 144 -231 144h-226v-584zM410 0h-361v672h269q275 0 275 -188q0 -40 -14 -74.5t-41 -47.5q94 -48 94 -148q0 -94 -60 -154t-162 -60zM193 145h208q39 0 65 16t26 46q0 33 -36 48t-73 15h-190v-125zM342 527h-149v-114h114q33 0 53 1.5t45 7t37.5 20 t12.5 36.5q0 49 -113 49z" />
<glyph unicode="C" horiz-adv-x="697" d="M366 645q-135 0 -211.5 -82t-76.5 -227q0 -131 77 -215.5t206 -84.5q92 0 160 51.5t94 136.5l-62 11q-55 -132 -193 -132q-100 0 -161 69.5t-61 178.5q0 92 57.5 159t153.5 67q85 0 132.5 -35t68.5 -105l69 22q-60 186 -253 186zM366 689q109 0 191.5 -62t114.5 -195 l-151 -50q-47 152 -172 152q-78 0 -123 -54t-45 -129q0 -88 49.5 -146t129.5 -58q59 0 102 39t62 93l144 -25q-19 -117 -102.5 -189.5t-204.5 -72.5q-147 0 -237 97.5t-90 246.5q0 164 88.5 258.5t243.5 94.5z" />
<glyph unicode="D" horiz-adv-x="661" d="M150 102v466h103q122 0 205 -67t83 -187q0 -110 -63.5 -161t-172.5 -51h-155zM93 44h222q123 0 202.5 65.5t79.5 190.5q0 155 -89.5 241.5t-240.5 86.5h-174v-584zM315 0h-266v672h218q175 0 274.5 -95.5t99.5 -276.5q0 -148 -92 -224t-234 -76zM194 524v-378h111 q192 0 192 168q0 100 -71 155t-173 55h-59z" />
<glyph unicode="E" horiz-adv-x="567" d="M492 44l8 63h-355v238h259l7 59h-266v159h342l8 65h-407v-584h404zM550 150l-19 -150h-487v672h502l-15 -153h-343v-71h272l-17 -147h-255v-151h362z" />
<glyph unicode="F" horiz-adv-x="539" d="M486 563l8 65h-407v-584h56v259h260l7 58h-267v202h343zM544 672l-18 -153h-339v-114h272l-17 -146h-255v-259h-143v672h500z" />
<glyph unicode="G" horiz-adv-x="673" d="M384 36q80 0 130.5 15.5t105.5 58.5v18l-33 15v135h-57v-152q-53 -26 -133 -26q-107 0 -186.5 69.5t-79.5 182.5q0 102 49 163.5t155 61.5q84 0 122.5 -33.5t63.5 -106.5l69 22q-30 98 -89 142t-150 44q-137 0 -208 -76t-71 -220q0 -137 89.5 -225t222.5 -88zM384 -8 q-152 0 -254 99.5t-102 257.5q0 165 82.5 252.5t240.5 87.5q231 0 293 -256l-152 -46q-25 76 -59 111.5t-98 35.5q-82 0 -121.5 -50t-39.5 -132q0 -92 67.5 -150.5t155.5 -58.5q46 0 89 14v165h145v-151l33 -14v-66q-73 -65 -125 -82t-155 -17z" />
<glyph unicode="H" horiz-adv-x="654" d="M562 628h-58v-228h-356v228h-57v-584h57v302h356v-302h58v584zM461 672h145v-672h-145v303h-269v-303h-145v672h145v-228h269v228z" />
<glyph unicode="I" horiz-adv-x="197" d="M126 628h-58v-584h58v584zM24 672h146v-672h-146v672z" />
<glyph unicode="J" horiz-adv-x="466" d="M394 628h-58v-372q0 -78 -27 -120.5t-95 -42.5q-37 0 -66.5 18.5t-43.5 48.5l-55 -25q10 -51 58 -82t109 -31q86 0 132 57.5t46 162.5v386zM293 672h145v-430q0 -125 -58.5 -194.5t-170.5 -69.5q-82 0 -140 50t-67 121l126 53q25 -66 86 -66q44 0 61.5 30t17.5 90v416z " />
<glyph unicode="K" horiz-adv-x="682" d="M149 628h-52v-584h52v208l152 134l233 -342h70l-265 378l242 206h-85l-347 -308v308zM53 672h140v-252l286 252h222l-304 -258l291 -414h-177l-218 320l-100 -88v-232h-140v672z" />
<glyph unicode="L" horiz-adv-x="521" d="M461 44l7 63h-339v521h-56v-584h388zM517 150l-16 -150h-471v672h143v-522h344z" />
<glyph unicode="M" horiz-adv-x="832" d="M420 288l-242 340h-84v-584h54v524l263 -370h11l262 369v-523h54v584h-73zM201 672l219 -309l223 309h139v-672h-142v429l-195 -275h-57l-196 276v-430h-142v672h151z" />
<glyph unicode="N" horiz-adv-x="675" d="M582 628h-54v-483l-394 483h-42v-584h54v478l399 -478h37v584zM484 672h142v-672h-101l-335 402v-402h-142v672h107l329 -403v403z" />
<glyph unicode="O" d="M365 579q105 0 165.5 -69.5t60.5 -173.5q0 -96 -63.5 -169t-162.5 -73q-100 0 -164 73t-64 169q0 103 62 173t166 70zM365 645q-119 0 -203 -90t-84 -219q0 -125 81 -212.5t206 -87.5q124 0 205.5 88t81.5 212q0 129 -84 219t-203 90zM365 689q136 0 233.5 -102.5 t97.5 -250.5q0 -142 -94.5 -243t-236.5 -101q-145 0 -238 100.5t-93 243.5q0 148 97.5 250.5t233.5 102.5zM365 535q-84 0 -134 -57t-50 -142q0 -80 52 -139.5t132 -59.5q79 0 130.5 60t51.5 139q0 85 -48 142t-134 57z" />
<glyph unicode="P" horiz-adv-x="618" d="M147 569h181q183 0 183 -126q0 -38 -19.5 -64.5t-53.5 -39t-65 -17t-67 -4.5h-159v251zM147 260h190q93 0 159.5 45.5t66.5 137.5q0 55 -21 92.5t-62 57t-88 27.5t-111 8h-190v-584h56v216zM337 216h-147v-216h-143v672h234q73 0 127.5 -9.5t102 -34t72 -71t24.5 -114.5 q0 -79 -41 -132t-99.5 -74t-129.5 -21zM328 525h-138v-163h116q161 0 161 81q0 82 -139 82z" />
<glyph unicode="Q" d="M365 579q105 0 165.5 -67.5t60.5 -169.5q0 -96 -64 -168.5t-162 -72.5t-163 72t-65 169q0 102 61 169.5t167 67.5zM365 645q-121 0 -204.5 -88t-83.5 -215q0 -105 62 -187t165 -107q-4 -15 -4 -35q0 -66 57.5 -103.5t140.5 -37.5q100 0 180 45l-41 54q-54 -31 -177 -31 q-117 0 -117 69q0 15 6 35q136 0 219.5 82.5t83.5 215.5q0 128 -84.5 215.5t-202.5 87.5zM365 689q137 0 234 -99.5t97 -247.5q0 -132 -80 -227t-231 -109q0 -31 75 -31q112 0 187 46l92 -119q-120 -74 -251 -74q-94 0 -162 49t-68 127q0 11 1 13q-104 35 -164.5 124 t-60.5 201q0 148 96.5 247.5t234.5 99.5zM365 535q-85 0 -134.5 -54.5t-49.5 -138.5q0 -80 52 -139t132 -59q78 0 130 59t52 139q0 85 -48.5 139t-133.5 54z" />
<glyph unicode="R" horiz-adv-x="647" d="M148 569h202q94 0 138.5 -24t44.5 -82q0 -25 -7 -43.5t-22 -29.5t-30.5 -18t-41 -9.5t-43.5 -3.5t-47 -1h-194v211zM92 628v-584h56v254h155q64 -67 103.5 -125.5t69.5 -128.5h76q-34 63 -53.5 96t-56 80t-81.5 88q117 12 169 42t52 113t-61.5 124t-161.5 41h-267zM48 0 v672h311q77 0 135.5 -19t97.5 -67t39 -121q0 -85 -53 -133.5t-136 -50.5q101 -95 182 -281h-178q-55 142 -162 255h-92v-255h-144zM350 525h-158v-123h150q35 0 54 1t44.5 6.5t37 18.5t11.5 35q0 33 -31.5 47.5t-107.5 14.5z" />
<glyph unicode="S" horiz-adv-x="646" d="M120 188l-58 -34q68 -118 258 -118q43 0 85.5 10t81.5 30t63 57t24 84q0 35 -12.5 62t-32 43.5t-48 28t-56.5 18l-61 13.5q-8 1 -12 2q-50 10 -77.5 17t-58 19t-43.5 28t-13 38q0 29 17 50t45.5 31t56 14t57.5 4q54 0 100 -22t69 -59l61 34q-52 107 -239 107 q-38 0 -74.5 -7.5t-72.5 -23.5t-58.5 -48t-22.5 -76q0 -41 18 -72t44.5 -48t65 -29.5t71.5 -17.5l73 -11.5t61 -12.5q82 -22 82 -77q0 -62 -59 -92.5t-151 -30.5q-132 0 -184 89zM6 168l131 73q30 -56 62.5 -77t104.5 -21q73 0 119.5 20t46.5 59q0 19 -30.5 30.5t-76.5 16.5 t-100 18t-100 32.5t-76.5 63.5t-30.5 107q0 55 26.5 96t69.5 62.5t86.5 31t88.5 9.5q106 0 184.5 -39t110.5 -125l-131 -75q-28 41 -70.5 66.5t-84.5 25.5q-132 0 -132 -56q0 -17 62 -38q24 -8 67.5 -17t78 -15.5t74.5 -21.5t67.5 -35t45.5 -56.5t18 -85.5 q0 -59 -28.5 -104.5t-74 -70.5t-95 -37.5t-99.5 -12.5q-123 0 -203.5 47t-110.5 129z" />
<glyph unicode="T" horiz-adv-x="563" d="M54 628v-65h206v-519h57v519h192l7 65h-462zM11 519v153h557l-16 -153h-191v-519h-145v519h-205z" />
<glyph unicode="U" horiz-adv-x="650" d="M143 628h-57v-319q0 -56 12.5 -104.5t39 -90t74.5 -65.5t113 -24t113 24.5t74.5 66t39 90t12.5 103.5v319h-58v-336q0 -99 -50.5 -148.5t-130.5 -49.5q-81 0 -131.5 49t-50.5 149v336zM42 672h145v-380q0 -77 38.5 -116t99.5 -39t99 38.5t38 116.5v380h146v-363 q0 -65 -14.5 -120.5t-45.5 -103.5t-88 -75.5t-135 -27.5t-135 27.5t-88 75.5t-45.5 103.5t-14.5 120.5v363z" />
<glyph unicode="V" horiz-adv-x="651" d="M299 101l-183 527h-60l211 -584h117l210 584h-53l-185 -527h-57zM146 672l181 -521l183 521h146l-241 -672h-178l-243 672h152z" />
<glyph unicode="W" horiz-adv-x="1034" d="M925 628l-154 -527h-53l-151 527h-95l-155 -527h-53l-155 527h-58l177 -584h122l144 497h47l149 -497h107l184 584h-56zM439 672h161l144 -505l149 505h147l-211 -672h-171l-140 466l-135 -466h-187l-203 672h148l149 -505z" />
<glyph unicode="X" horiz-adv-x="654" d="M329 386l-153 242h-67l188 -274l-221 -310h68l186 279l179 -279h67l-211 314l190 270h-69zM200 672l129 -205l133 205h177l-220 -315l239 -357h-173l-156 243l-162 -243h-175l251 354l-216 318h173z" />
<glyph unicode="Y" horiz-adv-x="628" d="M315 309l-190 319h-58l220 -362v-222h56v222l220 362h-58zM150 672l165 -277l165 277h160l-253 -418v-254h-144v254l-254 418h161z" />
<glyph unicode="Z" horiz-adv-x="613" d="M87 628v-58h341l-358 -513l6 -13h466l7 57h-377l363 521l-1 6h-447zM43 527v145h525l16 -58l-328 -469h342l-18 -145h-531l-30 60l325 467h-301z" />
<glyph unicode="[" horiz-adv-x="270" d="M202 729h-136v-874h129l7 49h-89v776h82zM22 773h230l-20 -137h-75v-689h95l-12 -84v1l-8 -53h-210v962z" />
<glyph unicode="\" horiz-adv-x="348" d="M59 628l182 -584h45l-183 584h-44zM208 0l-209 672h137l210 -672h-138z" />
<glyph unicode="]" horiz-adv-x="262" d="M186 729h-137l-7 -49h97v-776h-90l-7 -49h144v874zM11 773h219v-962h-238l19 136h84v689h-104z" />
<glyph unicode="^" horiz-adv-x="560" d="M297 737l-128 -256h-145l204 401h137l195 -401h-134zM137 525l158 288l159 -288h41l-162 313h-77l-168 -313h49z" />
<glyph unicode="_" horiz-adv-x="576" d="M0 -148v44h576v-44h-576zM0 -77v44h576v-44h-576z" />
<glyph unicode="`" horiz-adv-x="227" d="M15 831l-25 -32l165 -103l12 19zM-62 790l70 92l207 -161l-52 -72z" />
<glyph unicode="a" horiz-adv-x="633" d="M171 242l99 332h96l98 -332h-293zM479 190l43 -146h56l-179 584h-167l-179 -584h59l44 146h323zM490 0l-45 146h-257l-44 -146h-150l206 672h231l207 -672h-148zM303 530l-73 -244h175l-72 244h-30z" />
<glyph unicode="b" horiz-adv-x="660" d="M149 570h193q156 0 156 -92q0 -31 -15.5 -53t-35.5 -32.5t-54 -16t-54 -6.5t-52 -1h-138v201zM401 101h-252v213h234q22 0 46 -4.5t49.5 -15.5t41.5 -33.5t16 -53.5q0 -49 -38.5 -77.5t-96.5 -28.5zM92 44h318q82 0 130 48t48 122q0 54 -32.5 88.5t-114.5 47.5 q61 25 84.5 56t23.5 78q0 144 -231 144h-226v-584zM410 0h-361v672h269q275 0 275 -188q0 -40 -14 -74.5t-41 -47.5q94 -48 94 -148q0 -94 -60 -154t-162 -60zM193 145h208q39 0 65 16t26 46q0 33 -36 48t-73 15h-190v-125zM342 527h-149v-114h114q33 0 53 1.5t45 7t37.5 20 t12.5 36.5q0 49 -113 49z" />
<glyph unicode="c" horiz-adv-x="697" d="M366 645q-135 0 -211.5 -82t-76.5 -227q0 -131 77 -215.5t206 -84.5q92 0 160 51.5t94 136.5l-62 11q-55 -132 -193 -132q-100 0 -161 69.5t-61 178.5q0 92 57.5 159t153.5 67q85 0 132.5 -35t68.5 -105l69 22q-60 186 -253 186zM366 689q109 0 191.5 -62t114.5 -195 l-151 -50q-47 152 -172 152q-78 0 -123 -54t-45 -129q0 -88 49.5 -146t129.5 -58q59 0 102 39t62 93l144 -25q-19 -117 -102.5 -189.5t-204.5 -72.5q-147 0 -237 97.5t-90 246.5q0 164 88.5 258.5t243.5 94.5z" />
<glyph unicode="d" horiz-adv-x="661" d="M150 102v466h103q122 0 205 -67t83 -187q0 -110 -63.5 -161t-172.5 -51h-155zM93 44h222q123 0 202.5 65.5t79.5 190.5q0 155 -89.5 241.5t-240.5 86.5h-174v-584zM315 0h-266v672h218q175 0 274.5 -95.5t99.5 -276.5q0 -148 -92 -224t-234 -76zM194 524v-378h111 q192 0 192 168q0 100 -71 155t-173 55h-59z" />
<glyph unicode="e" horiz-adv-x="567" d="M492 44l8 63h-355v238h259l7 59h-266v159h342l8 65h-407v-584h404zM550 150l-19 -150h-487v672h502l-15 -153h-343v-71h272l-17 -147h-255v-151h362z" />
<glyph unicode="f" horiz-adv-x="539" d="M486 563l8 65h-407v-584h56v259h260l7 58h-267v202h343zM544 672l-18 -153h-339v-114h272l-17 -146h-255v-259h-143v672h500z" />
<glyph unicode="g" horiz-adv-x="673" d="M384 36q80 0 130.5 15.5t105.5 58.5v18l-33 15v135h-57v-152q-53 -26 -133 -26q-107 0 -186.5 69.5t-79.5 182.5q0 102 49 163.5t155 61.5q84 0 122.5 -33.5t63.5 -106.5l69 22q-30 98 -89 142t-150 44q-137 0 -208 -76t-71 -220q0 -137 89.5 -225t222.5 -88zM384 -8 q-152 0 -254 99.5t-102 257.5q0 165 82.5 252.5t240.5 87.5q231 0 293 -256l-152 -46q-25 76 -59 111.5t-98 35.5q-82 0 -121.5 -50t-39.5 -132q0 -92 67.5 -150.5t155.5 -58.5q46 0 89 14v165h145v-151l33 -14v-66q-73 -65 -125 -82t-155 -17z" />
<glyph unicode="h" horiz-adv-x="654" d="M562 628h-58v-228h-356v228h-57v-584h57v302h356v-302h58v584zM461 672h145v-672h-145v303h-269v-303h-145v672h145v-228h269v228z" />
<glyph unicode="i" horiz-adv-x="197" d="M126 628h-58v-584h58v584zM24 672h146v-672h-146v672z" />
<glyph unicode="j" horiz-adv-x="466" d="M394 628h-58v-372q0 -78 -27 -120.5t-95 -42.5q-37 0 -66.5 18.5t-43.5 48.5l-55 -25q10 -51 58 -82t109 -31q86 0 132 57.5t46 162.5v386zM293 672h145v-430q0 -125 -58.5 -194.5t-170.5 -69.5q-82 0 -140 50t-67 121l126 53q25 -66 86 -66q44 0 61.5 30t17.5 90v416z " />
<glyph unicode="k" horiz-adv-x="682" d="M149 628h-52v-584h52v208l152 134l233 -342h70l-265 378l242 206h-85l-347 -308v308zM53 672h140v-252l286 252h222l-304 -258l291 -414h-177l-218 320l-100 -88v-232h-140v672z" />
<glyph unicode="l" horiz-adv-x="521" d="M461 44l7 63h-339v521h-56v-584h388zM517 150l-16 -150h-471v672h143v-522h344z" />
<glyph unicode="m" horiz-adv-x="832" d="M420 288l-242 340h-84v-584h54v524l263 -370h11l262 369v-523h54v584h-73zM201 672l219 -309l223 309h139v-672h-142v429l-195 -275h-57l-196 276v-430h-142v672h151z" />
<glyph unicode="n" horiz-adv-x="675" d="M582 628h-54v-483l-394 483h-42v-584h54v478l399 -478h37v584zM484 672h142v-672h-101l-335 402v-402h-142v672h107l329 -403v403z" />
<glyph unicode="o" d="M365 579q105 0 165.5 -69.5t60.5 -173.5q0 -96 -63.5 -169t-162.5 -73q-100 0 -164 73t-64 169q0 103 62 173t166 70zM365 645q-119 0 -203 -90t-84 -219q0 -125 81 -212.5t206 -87.5q124 0 205.5 88t81.5 212q0 129 -84 219t-203 90zM365 689q136 0 233.5 -102.5 t97.5 -250.5q0 -142 -94.5 -243t-236.5 -101q-145 0 -238 100.5t-93 243.5q0 148 97.5 250.5t233.5 102.5zM365 535q-84 0 -134 -57t-50 -142q0 -80 52 -139.5t132 -59.5q79 0 130.5 60t51.5 139q0 85 -48 142t-134 57z" />
<glyph unicode="p" horiz-adv-x="618" d="M147 569h181q183 0 183 -126q0 -38 -19.5 -64.5t-53.5 -39t-65 -17t-67 -4.5h-159v251zM147 260h190q93 0 159.5 45.5t66.5 137.5q0 55 -21 92.5t-62 57t-88 27.5t-111 8h-190v-584h56v216zM337 216h-147v-216h-143v672h234q73 0 127.5 -9.5t102 -34t72 -71t24.5 -114.5 q0 -79 -41 -132t-99.5 -74t-129.5 -21zM328 525h-138v-163h116q161 0 161 81q0 82 -139 82z" />
<glyph unicode="q" d="M365 579q105 0 165.5 -67.5t60.5 -169.5q0 -96 -64 -168.5t-162 -72.5t-163 72t-65 169q0 102 61 169.5t167 67.5zM365 645q-121 0 -204.5 -88t-83.5 -215q0 -105 62 -187t165 -107q-4 -15 -4 -35q0 -66 57.5 -103.5t140.5 -37.5q100 0 180 45l-41 54q-54 -31 -177 -31 q-117 0 -117 69q0 15 6 35q136 0 219.5 82.5t83.5 215.5q0 128 -84.5 215.5t-202.5 87.5zM365 689q137 0 234 -99.5t97 -247.5q0 -132 -80 -227t-231 -109q0 -31 75 -31q112 0 187 46l92 -119q-120 -74 -251 -74q-94 0 -162 49t-68 127q0 11 1 13q-104 35 -164.5 124 t-60.5 201q0 148 96.5 247.5t234.5 99.5zM365 535q-85 0 -134.5 -54.5t-49.5 -138.5q0 -80 52 -139t132 -59q78 0 130 59t52 139q0 85 -48.5 139t-133.5 54z" />
<glyph unicode="r" horiz-adv-x="647" d="M148 569h202q94 0 138.5 -24t44.5 -82q0 -25 -7 -43.5t-22 -29.5t-30.5 -18t-41 -9.5t-43.5 -3.5t-47 -1h-194v211zM92 628v-584h56v254h155q64 -67 103.5 -125.5t69.5 -128.5h76q-34 63 -53.5 96t-56 80t-81.5 88q117 12 169 42t52 113t-61.5 124t-161.5 41h-267zM48 0 v672h311q77 0 135.5 -19t97.5 -67t39 -121q0 -85 -53 -133.5t-136 -50.5q101 -95 182 -281h-178q-55 142 -162 255h-92v-255h-144zM350 525h-158v-123h150q35 0 54 1t44.5 6.5t37 18.5t11.5 35q0 33 -31.5 47.5t-107.5 14.5z" />
<glyph unicode="s" horiz-adv-x="646" d="M120 188l-58 -34q68 -118 258 -118q43 0 85.5 10t81.5 30t63 57t24 84q0 35 -12.5 62t-32 43.5t-48 28t-56.5 18l-61 13.5q-8 1 -12 2q-50 10 -77.5 17t-58 19t-43.5 28t-13 38q0 29 17 50t45.5 31t56 14t57.5 4q54 0 100 -22t69 -59l61 34q-52 107 -239 107 q-38 0 -74.5 -7.5t-72.5 -23.5t-58.5 -48t-22.5 -76q0 -41 18 -72t44.5 -48t65 -29.5t71.5 -17.5l73 -11.5t61 -12.5q82 -22 82 -77q0 -62 -59 -92.5t-151 -30.5q-132 0 -184 89zM6 168l131 73q30 -56 62.5 -77t104.5 -21q73 0 119.5 20t46.5 59q0 19 -30.5 30.5t-76.5 16.5 t-100 18t-100 32.5t-76.5 63.5t-30.5 107q0 55 26.5 96t69.5 62.5t86.5 31t88.5 9.5q106 0 184.5 -39t110.5 -125l-131 -75q-28 41 -70.5 66.5t-84.5 25.5q-132 0 -132 -56q0 -17 62 -38q24 -8 67.5 -17t78 -15.5t74.5 -21.5t67.5 -35t45.5 -56.5t18 -85.5 q0 -59 -28.5 -104.5t-74 -70.5t-95 -37.5t-99.5 -12.5q-123 0 -203.5 47t-110.5 129z" />
<glyph unicode="t" horiz-adv-x="563" d="M54 628v-65h206v-519h57v519h192l7 65h-462zM11 519v153h557l-16 -153h-191v-519h-145v519h-205z" />
<glyph unicode="u" horiz-adv-x="650" d="M143 628h-57v-319q0 -56 12.5 -104.5t39 -90t74.5 -65.5t113 -24t113 24.5t74.5 66t39 90t12.5 103.5v319h-58v-336q0 -99 -50.5 -148.5t-130.5 -49.5q-81 0 -131.5 49t-50.5 149v336zM42 672h145v-380q0 -77 38.5 -116t99.5 -39t99 38.5t38 116.5v380h146v-363 q0 -65 -14.5 -120.5t-45.5 -103.5t-88 -75.5t-135 -27.5t-135 27.5t-88 75.5t-45.5 103.5t-14.5 120.5v363z" />
<glyph unicode="v" horiz-adv-x="651" d="M299 101l-183 527h-60l211 -584h117l210 584h-53l-185 -527h-57zM146 672l181 -521l183 521h146l-241 -672h-178l-243 672h152z" />
<glyph unicode="w" horiz-adv-x="1034" d="M925 628l-154 -527h-53l-151 527h-95l-155 -527h-53l-155 527h-58l177 -584h122l144 497h47l149 -497h107l184 584h-56zM439 672h161l144 -505l149 505h147l-211 -672h-171l-140 466l-135 -466h-187l-203 672h148l149 -505z" />
<glyph unicode="x" horiz-adv-x="654" d="M329 386l-153 242h-67l188 -274l-221 -310h68l186 279l179 -279h67l-211 314l190 270h-69zM200 672l129 -205l133 205h177l-220 -315l239 -357h-173l-156 243l-162 -243h-175l251 354l-216 318h173z" />
<glyph unicode="y" horiz-adv-x="628" d="M315 309l-190 319h-58l220 -362v-222h56v222l220 362h-58zM150 672l165 -277l165 277h160l-253 -418v-254h-144v254l-254 418h161z" />
<glyph unicode="z" horiz-adv-x="613" d="M87 628v-58h341l-358 -513l6 -13h466l7 57h-377l363 521l-1 6h-447zM43 527v145h525l16 -58l-328 -469h342l-18 -145h-531l-30 60l325 467h-301z" />
<glyph unicode="{" horiz-adv-x="282" d="M269 -124h-73q-55 0 -92.5 34t-37.5 111v240q0 50 -12 50h-48v96h48q12 0 12 50v248q0 74 37.5 106.5t92.5 32.5h73v-92h-69q-38 0 -38 -47v-270q0 -49 -25 -77q25 -26 25 -81v-256q0 -54 38 -54h69v-91zM196 -94h43v31h-39q-32 0 -50 18.5t-18 65.5v256q0 41 -36 80 q36 41 36 78v270q0 39 18.5 58t49.5 19h39v32h-43q-42 0 -71 -25.5t-29 -83.5v-248q0 -43 -8.5 -61.5t-33.5 -18.5h-18v-36h18q23 0 32.5 -18t9.5 -62v-240q0 -61 29 -88t71 -27z" />
<glyph unicode="|" horiz-adv-x="247" d="M192 849v-1012h-136v1012h136zM148 -120v925h-48v-925h48z" />
<glyph unicode="}" horiz-adv-x="282" d="M41 -94h43q42 0 71 27t29 88v240q0 44 9.5 62t32.5 18h18v36h-18q-25 0 -33.5 18.5t-8.5 61.5v248q0 58 -29 83.5t-71 25.5h-43v-32h39q31 0 49.5 -19t18.5 -58v-270q0 -37 36 -78q-36 -39 -36 -80v-256q0 -47 -18 -65.5t-50 -18.5h-39v-31zM84 -124h-73v91h69 q38 0 38 54v256q0 55 25 81q-25 28 -25 77v270q0 47 -38 47h-69v92h73q55 0 92.5 -32.5t37.5 -106.5v-248q0 -50 12 -50h48v-96h-48q-12 0 -12 -50v-240q0 -77 -37.5 -111t-92.5 -34z" />
<glyph unicode="~" horiz-adv-x="483" d="M464 457v-143q-53 -60 -124 -60q-43 0 -107 34.5t-92 34.5t-54 -20.5t-68 -70.5v142q54 59 124 59q40 0 105.5 -33.5t94.5 -33.5t54.5 20t66.5 71zM434 325v53q-43 -42 -91 -42q-36 0 -101 33.5t-99 33.5q-50 0 -94 -41v-52q44 43 92 43q36 0 99 -34.5t100 -34.5 q52 0 94 41z" />
<glyph unicode="&#xa1;" horiz-adv-x="195" d="M130 600q0 20 -9 32t-25 12t-25.5 -12t-9.5 -32t9.5 -31.5t25.5 -11.5q34 0 34 43zM94 41q22 0 30 17t8 52q0 101 -20 358h-33q-19 -240 -19 -360q0 -67 34 -67zM94 -3q-78 0 -78 111q0 115 21 404h115q24 -284 24 -402q0 -57 -18 -85t-64 -28zM174 600q0 -39 -21 -63 t-57 -24q-35 0 -57 24t-22 63q0 38 22 63t57 25q36 0 57 -24.5t21 -63.5z" />
<glyph unicode="&#xa2;" horiz-adv-x="462" d="M284 621h-39v-66q-83 -11 -134.5 -70t-51.5 -141q0 -81 51 -138.5t135 -70.5v-67h39v68q79 10 128 68l-31 29q-40 -47 -113 -47t-122.5 45t-49.5 113q0 66 46 113t126 47q65 0 104 -41l31 40q-43 46 -119 51v67zM324 665v-75q79 -23 139 -88l-90 -93q-58 51 -105 51 q-58 0 -93 -33t-35 -83q0 -51 36.5 -82.5t91.5 -31.5q52 0 114 57l82 -69q-53 -93 -140 -117v-77h-119v75q-87 18 -138.5 87.5t-51.5 157.5q0 91 51.5 159t138.5 88v74h119z" />
<glyph unicode="&#xa3;" horiz-adv-x="577" d="M148 166q42 0 78 -30q-8 -29 -31 -47.5t-51 -18.5q-21 0 -34.5 13.5t-13.5 31.5q0 22 14.5 36.5t37.5 14.5zM284 642q-81 0 -137.5 -50t-56.5 -136q0 -96 64 -170h-72l-6 -31h93q39 -39 53 -94q-49 33 -89 33q-30 0 -50.5 -20.5t-20.5 -57.5q0 -80 73 -80q34 0 64.5 27 t44.5 58q36 -36 79.5 -60.5t79.5 -24.5q42 0 75.5 20.5t41.5 56.5l-39 14q-13 -44 -85 -44q-43 0 -88.5 19t-62.5 50q-11 53 -42 103h118l6 31h-138q-58 68 -58 173q0 57 49 96.5t106 39.5q56 0 106 -27t50 -76q0 -39 -28 -64l34 -33q33 38 33 94q0 73 -61.5 113t-135.5 40z M284 686q57 0 110 -20t92 -66.5t39 -110.5q0 -48 -20 -91t-52 -61l-93 96q38 26 38 59q0 27 -36 43t-76 16q-42 0 -76.5 -26.5t-34.5 -65.5q0 -80 35 -129h165l-20 -119h-81q8 -17 10 -48q50 -43 103 -43q51 0 72 51l110 -34q-9 -70 -57.5 -106t-108.5 -36q-79 0 -149 64 q-45 -67 -119 -67q-60 0 -88.5 34t-28.5 90q0 32 18 58.5t46 41.5h-55l20 114h25q-26 57 -26 126q0 107 70.5 168.5t167.5 61.5z" />
<glyph unicode="&#xa5;" horiz-adv-x="639" d="M544 421v-247h-152v-174h-143v174h-153v247h49l-153 251h163l165 -284l162 284h160l-147 -251h49zM139 218h153v-174h56v174h152v57h-140l26 44h114v58h-80l146 251h-58l-188 -323l-190 323h-59l151 -251h-83v-58h118l25 -44h-143v-57z" />
<glyph unicode="&#xa8;" horiz-adv-x="415" d="M111 814q-12 0 -20 -11t-8 -27q0 -17 7.5 -28t20.5 -11q14 0 22.5 11t8.5 28q0 16 -8.5 27t-22.5 11zM111 849q29 0 48 -21.5t19 -51.5q0 -33 -18.5 -53.5t-48.5 -20.5q-29 0 -46 20.5t-17 53.5q0 30 17.5 51.5t45.5 21.5zM298 814q-12 0 -20 -11t-8 -27q0 -17 7.5 -28 t20.5 -11q14 0 22.5 11t8.5 28q0 16 -8.5 27t-22.5 11zM298 849q29 0 48 -21.5t19 -51.5q0 -33 -18.5 -53.5t-48.5 -20.5q-29 0 -46 20.5t-17 53.5q0 30 17.5 51.5t45.5 21.5z" />
<glyph unicode="&#xa9;" horiz-adv-x="740" d="M373 489q-62 0 -107 -46t-45 -111q0 -66 45 -112t109 -46q25 0 54.5 12t48.5 32l-22 28q-29 -37 -78 -37q-57 0 -90 33.5t-33 89.5q0 54 30.5 88.5t92.5 34.5q49 0 74 -25l21 21q-30 38 -100 38zM370 609q120 0 189 -81t69 -192q0 -107 -72.5 -189.5t-185.5 -82.5 t-186.5 83t-73.5 189q0 111 69.5 192t190.5 81zM370 648q-118 0 -205 -91.5t-87 -220.5q0 -127 83 -215t209 -88q124 0 207 89t83 214q0 128 -86 220t-204 92zM370 689q135 0 233 -102.5t98 -250.5q0 -143 -94 -243.5t-237 -100.5q-147 0 -239 100t-92 244q0 147 96.5 250 t234.5 103zM370 566q-99 0 -160 -68t-61 -162q0 -89 63 -159t158 -70t157 69.5t62 159.5q0 93 -59.5 161.5t-159.5 68.5zM373 533q91 0 152 -79l-75 -78q-34 40 -72 40q-42 0 -65.5 -25.5t-23.5 -58.5q0 -37 26 -62t63 -25q26 0 88 50l58 -79q-66 -86 -142 -86 q-88 0 -145 56.5t-57 145.5q0 84 55.5 142.5t137.5 58.5z" />
<glyph unicode="&#xab;" horiz-adv-x="458" d="M234 339l-94 -74l98 -71l-79 -89l-149 126v72l152 131zM77 265l96 81l-19 24l-100 -86v-36l101 -83l19 23zM447 339l-94 -74l98 -71l-79 -89l-149 126v72l152 131zM290 265l96 81l-19 24l-100 -86v-36l101 -83l19 23z" />
<glyph unicode="&#xad;" horiz-adv-x="316" d="M70 230h158l17 58h-156zM263 186h-252l45 146h243z" />
<glyph unicode="&#xae;" horiz-adv-x="740" d="M370 609q119 0 188.5 -81t69.5 -192q0 -107 -73 -189.5t-185 -82.5q-114 0 -187 82.5t-73 189.5q0 113 70 193t190 80zM370 648q-117 0 -204.5 -91.5t-87.5 -220.5q0 -126 82.5 -214.5t209.5 -88.5q124 0 207 89t83 214q0 128 -86 220t-204 92zM370 689 q136 0 233.5 -102.5t97.5 -250.5q0 -143 -93.5 -243.5t-237.5 -100.5q-146 0 -238.5 99.5t-92.5 244.5q0 148 97 250.5t234 102.5zM370 566q-100 0 -160.5 -68t-60.5 -162q0 -89 63 -159t158 -70q94 0 156.5 70t62.5 159q0 93 -59.5 161.5t-159.5 68.5zM229 178v334h155 q60 0 98.5 -26.5t38.5 -79.5q0 -40 -21 -64t-56 -31q40 -42 79 -133h-105q-27 68 -73 120h-29v-120h-87zM380 423h-64v-38h60q60 0 60 20q0 18 -56 18zM284 456h97q46 0 67 -11t21 -39q0 -23 -15.5 -35t-32 -14t-44.5 -2h-93v101zM257 485v-281h27v122h75q56 -58 83 -122h36 l-26 47t-26 37t-40 43q54 4 80.5 19.5t26.5 55.5t-30 59.5t-78 19.5h-128z" />
<glyph unicode="&#xb4;" horiz-adv-x="237" d="M224 882l70 -92l-225 -141l-52 72zM242 799l-25 32l-152 -116l12 -19z" />
<glyph unicode="&#xb8;" horiz-adv-x="154" d="M77 -2q38 0 58.5 -20.5t20.5 -52.5q0 -59 -35 -100t-90 -53l-31 54q29 17 39 29q-22 8 -30.5 23.5t-8.5 44.5q0 34 19.5 54.5t57.5 20.5zM77 -46q-34 0 -34 -37q0 -32 39 -38q-1 -14 -15 -31.5t-28 -23.5l8 -15q39 23 53.5 48t14.5 61q0 15 -10.5 25.5t-27.5 10.5z" />
<glyph unicode="&#xbb;" horiz-adv-x="458" d="M75 346l96 -81l-97 -77l19 -23l101 83v36l-100 86zM108 265l-94 74l72 95l152 -131v-72l-149 -126l-79 89zM288 346l96 -81l-97 -77l19 -23l101 83v36l-100 86zM321 265l-94 74l72 95l152 -131v-72l-149 -126l-79 89z" />
<glyph unicode="&#xbf;" horiz-adv-x="431" d="M297 600q0 20 -9.5 32t-25.5 12t-25.5 -12t-9.5 -32t9.5 -31.5t25.5 -11.5t25.5 11.5t9.5 31.5zM53 221q0 -76 48.5 -128t120.5 -52q58 0 98.5 23.5t51.5 52.5l-33 31q-42 -44 -111 -44q-59 0 -89.5 32.5t-30.5 84.5q0 53 31.5 84t80.5 31h57l-6 157h-23l-11 -111 q-184 0 -184 -161zM340 600q0 -46 -31 -68l13 -240h-102q-30 0 -49.5 -19.5t-19.5 -51.5q0 -34 20 -53.5t59 -19.5q34 0 57.5 13t49.5 40l85 -79q-20 -54 -69.5 -89.5t-130.5 -35.5q-91 0 -151.5 64.5t-60.5 159.5q0 89 47.5 141t139.5 62l15 110q-29 26 -29 66q0 38 22 63 t57 25t56.5 -24.5t21.5 -63.5z" />
<glyph unicode="&#xc1;" horiz-adv-x="651" d="M560 882l70 -92l-193 -121q27 3 56 3h128v-672h-142v184h-315v-11q0 -99 48 -168t118 -97l-90 -122q-103 38 -159.5 141.5t-56.5 250.5q0 185 98 319.5t272 165.5l-41 58zM577 628h-84q-197 0 -311.5 -129t-114.5 -321q0 -127 47 -217t112 -120l45 55q-61 23 -105.5 97.5 t-44.5 179.5q0 17 8 54h393v-183h55v584zM522 286h-386q33 137 119.5 207t220.5 70h46v-277zM195 330h284v189h-3q-209 0 -281 -189zM578 799l-25 32l-152 -116l12 -19z" />
<glyph unicode="&#xc9;" horiz-adv-x="567" d="M382 882l70 -92l-189 -118h283l-15 -153h-343v-71h272l-17 -147h-255v-151h362l-19 -150h-487v672h166l-35 49zM492 44l8 63h-355v238h259l7 59h-266v159h342l8 65h-407v-584h404zM400 799l-25 32l-152 -116l12 -19z" />
<glyph unicode="&#xcd;" horiz-adv-x="197" d="M197 882l70 -92l-189 -118h92v-672h-146v672l-34 49zM126 628h-58v-584h58v584zM215 799l-25 32l-152 -116l12 -19z" />
<glyph unicode="&#xd1;" horiz-adv-x="675" d="M582 628h-54v-483l-394 483h-42v-584h54v478l399 -478h37v584zM484 672h142v-672h-101l-335 402v-402h-142v672h107l329 -403v403zM280 818q-39 0 -63 -48l26 -18q16 34 39 34q19 0 52.5 -22.5t57.5 -22.5q14 0 35 13t30 31l-21 17q-6 -11 -18.5 -19t-23.5 -8 q-16 0 -52 21.5t-62 21.5zM277 856q27 0 66 -21.5t51 -21.5q21 0 34 34l74 -56q-12 -36 -43.5 -61.5t-67.5 -25.5q-27 0 -61 21.5t-45 21.5q-15 0 -34 -39l-78 50q27 98 104 98z" />
<glyph unicode="&#xd3;" d="M462 882l70 -92l-162 -101q135 -2 230.5 -104t95.5 -249q0 -142 -94.5 -243t-236.5 -101q-145 0 -238 100.5t-93 243.5q0 125 71 219.5t180 122.5l-30 43zM365 645q-119 0 -203 -90t-84 -219q0 -125 81 -212.5t206 -87.5q124 0 205.5 88t81.5 212q0 129 -84 219t-203 90z M365 579q105 0 165.5 -69.5t60.5 -173.5q0 -96 -63.5 -169t-162.5 -73q-100 0 -164 73t-64 169q0 103 62 173t166 70zM365 535q-84 0 -134 -57t-50 -142q0 -80 52 -139.5t132 -59.5q79 0 130.5 60t51.5 139q0 85 -48 142t-134 57zM480 799l-25 32l-152 -116l12 -19z" />
<glyph unicode="&#xda;" horiz-adv-x="650" d="M423 882l70 -92l-225 -141l-52 72zM441 799l-25 32l-152 -116l12 -19zM143 628h-57v-319q0 -56 12.5 -104.5t39 -90t74.5 -65.5t113 -24t113 24.5t74.5 66t39 90t12.5 103.5v319h-58v-336q0 -99 -50.5 -148.5t-130.5 -49.5q-81 0 -131.5 49t-50.5 149v336zM42 672h145 v-380q0 -77 38.5 -116t99.5 -39t99 38.5t38 116.5v380h146v-363q0 -65 -14.5 -120.5t-45.5 -103.5t-88 -75.5t-135 -27.5t-135 27.5t-88 75.5t-45.5 103.5t-14.5 120.5v363z" />
<glyph unicode="&#xdc;" horiz-adv-x="650" d="M229 814q-12 0 -20 -11t-8 -27q0 -17 7.5 -28t20.5 -11q14 0 22.5 11t8.5 28q0 16 -8.5 27t-22.5 11zM229 849q29 0 48 -21.5t19 -51.5q0 -33 -18.5 -53.5t-48.5 -20.5q-29 0 -46 20.5t-17 53.5q0 30 17.5 51.5t45.5 21.5zM416 814q-12 0 -20 -11t-8 -27q0 -17 7.5 -28 t20.5 -11q14 0 22.5 11t8.5 28q0 16 -8.5 27t-22.5 11zM416 849q29 0 48 -21.5t19 -51.5q0 -33 -18.5 -53.5t-48.5 -20.5q-29 0 -46 20.5t-17 53.5q0 30 17.5 51.5t45.5 21.5zM143 628h-57v-319q0 -56 12.5 -104.5t39 -90t74.5 -65.5t113 -24t113 24.5t74.5 66t39 90 t12.5 103.5v319h-58v-336q0 -99 -50.5 -148.5t-130.5 -49.5q-81 0 -131.5 49t-50.5 149v336zM42 672h145v-380q0 -77 38.5 -116t99.5 -39t99 38.5t38 116.5v380h146v-363q0 -65 -14.5 -120.5t-45.5 -103.5t-88 -75.5t-135 -27.5t-135 27.5t-88 75.5t-45.5 103.5t-14.5 120.5 v363z" />
<glyph unicode="&#xe1;" horiz-adv-x="633" d="M415 882l70 -92l-189 -118h135l207 -672h-148l-45 146h-257l-44 -146h-150l206 672h43l-35 49zM479 190l43 -146h56l-179 584h-167l-179 -584h59l44 146h323zM171 242l99 332h96l98 -332h-293zM303 530l-73 -244h175l-72 244h-30zM433 799l-25 32l-152 -116l12 -19z" />
<glyph unicode="&#xe9;" horiz-adv-x="567" d="M382 882l70 -92l-189 -118h283l-15 -153h-343v-71h272l-17 -147h-255v-151h362l-19 -150h-487v672h166l-35 49zM492 44l8 63h-355v238h259l7 59h-266v159h342l8 65h-407v-584h404zM400 799l-25 32l-152 -116l12 -19z" />
<glyph unicode="&#xed;" horiz-adv-x="197" d="M197 882l70 -92l-189 -118h92v-672h-146v672l-34 49zM126 628h-58v-584h58v584zM215 799l-25 32l-152 -116l12 -19z" />
<glyph unicode="&#xf1;" horiz-adv-x="675" d="M582 628h-54v-483l-394 483h-42v-584h54v478l399 -478h37v584zM484 672h142v-672h-101l-335 402v-402h-142v672h107l329 -403v403zM280 818q-39 0 -63 -48l26 -18q16 34 39 34q19 0 52.5 -22.5t57.5 -22.5q14 0 35 13t30 31l-21 17q-6 -11 -18.5 -19t-23.5 -8 q-16 0 -52 21.5t-62 21.5zM277 856q27 0 66 -21.5t51 -21.5q21 0 34 34l74 -56q-12 -36 -43.5 -61.5t-67.5 -25.5q-27 0 -61 21.5t-45 21.5q-15 0 -34 -39l-78 50q27 98 104 98z" />
<glyph unicode="&#xf3;" d="M462 882l70 -92l-162 -101q135 -2 230.5 -104t95.5 -249q0 -142 -94.5 -243t-236.5 -101q-145 0 -238 100.5t-93 243.5q0 125 71 219.5t180 122.5l-30 43zM365 645q-119 0 -203 -90t-84 -219q0 -125 81 -212.5t206 -87.5q124 0 205.5 88t81.5 212q0 129 -84 219t-203 90z M365 579q105 0 165.5 -69.5t60.5 -173.5q0 -96 -63.5 -169t-162.5 -73q-100 0 -164 73t-64 169q0 103 62 173t166 70zM365 535q-84 0 -134 -57t-50 -142q0 -80 52 -139.5t132 -59.5q79 0 130.5 60t51.5 139q0 85 -48 142t-134 57zM480 799l-25 32l-152 -116l12 -19z" />
<glyph unicode="&#xfa;" horiz-adv-x="650" d="M423 882l70 -92l-225 -141l-52 72zM441 799l-25 32l-152 -116l12 -19zM143 628h-57v-319q0 -56 12.5 -104.5t39 -90t74.5 -65.5t113 -24t113 24.5t74.5 66t39 90t12.5 103.5v319h-58v-336q0 -99 -50.5 -148.5t-130.5 -49.5q-81 0 -131.5 49t-50.5 149v336zM42 672h145 v-380q0 -77 38.5 -116t99.5 -39t99 38.5t38 116.5v380h146v-363q0 -65 -14.5 -120.5t-45.5 -103.5t-88 -75.5t-135 -27.5t-135 27.5t-88 75.5t-45.5 103.5t-14.5 120.5v363z" />
<glyph unicode="&#xfc;" horiz-adv-x="650" d="M229 814q-12 0 -20 -11t-8 -27q0 -17 7.5 -28t20.5 -11q14 0 22.5 11t8.5 28q0 16 -8.5 27t-22.5 11zM229 849q29 0 48 -21.5t19 -51.5q0 -33 -18.5 -53.5t-48.5 -20.5q-29 0 -46 20.5t-17 53.5q0 30 17.5 51.5t45.5 21.5zM416 814q-12 0 -20 -11t-8 -27q0 -17 7.5 -28 t20.5 -11q14 0 22.5 11t8.5 28q0 16 -8.5 27t-22.5 11zM416 849q29 0 48 -21.5t19 -51.5q0 -33 -18.5 -53.5t-48.5 -20.5q-29 0 -46 20.5t-17 53.5q0 30 17.5 51.5t45.5 21.5zM143 628h-57v-319q0 -56 12.5 -104.5t39 -90t74.5 -65.5t113 -24t113 24.5t74.5 66t39 90 t12.5 103.5v319h-58v-336q0 -99 -50.5 -148.5t-130.5 -49.5q-81 0 -131.5 49t-50.5 149v336zM42 672h145v-380q0 -77 38.5 -116t99.5 -39t99 38.5t38 116.5v380h146v-363q0 -65 -14.5 -120.5t-45.5 -103.5t-88 -75.5t-135 -27.5t-135 27.5t-88 75.5t-45.5 103.5t-14.5 120.5 v363z" />
<glyph unicode="&#x2c6;" horiz-adv-x="334" d="M166 802l102 -102l18 18l-107 125h-25l-107 -125l18 -17zM274 650l-108 100l-101 -100l-68 60l135 172h68l135 -172z" />
<glyph unicode="&#x2da;" horiz-adv-x="237" d="M118 828q23 0 37.5 -15t14.5 -37q0 -23 -14.5 -37.5t-37.5 -14.5q-22 0 -37 14.5t-15 37.5q0 21 15.5 36.5t36.5 15.5zM118 854q-32 0 -55 -23t-23 -55q0 -33 23 -56.5t55 -23.5q33 0 56.5 23.5t23.5 56.5q0 32 -23.5 55t-56.5 23zM118 882q44 0 75.5 -31t31.5 -75 t-31.5 -75.5t-75.5 -31.5t-75 31.5t-31 75.5q0 45 30.5 75.5t75.5 30.5z" />
<glyph unicode="&#x2dc;" horiz-adv-x="344" d="M115 818q-39 0 -63 -48l26 -18q16 34 39 34q19 0 52.5 -22.5t57.5 -22.5q14 0 35 13t30 31l-21 17q-6 -11 -18.5 -19t-23.5 -8q-16 0 -52 21.5t-62 21.5zM112 856q27 0 66 -21.5t51 -21.5q21 0 34 34l74 -56q-12 -36 -43.5 -61.5t-67.5 -25.5q-26 0 -60 21.5t-46 21.5 q-14 0 -34 -39l-78 50q27 98 104 98z" />
<glyph unicode="&#x2000;" horiz-adv-x="441" />
<glyph unicode="&#x2001;" horiz-adv-x="882" />
<glyph unicode="&#x2002;" horiz-adv-x="441" />
<glyph unicode="&#x2003;" horiz-adv-x="882" />
<glyph unicode="&#x2004;" horiz-adv-x="294" />
<glyph unicode="&#x2005;" horiz-adv-x="220" />
<glyph unicode="&#x2006;" horiz-adv-x="147" />
<glyph unicode="&#x2007;" horiz-adv-x="147" />
<glyph unicode="&#x2008;" horiz-adv-x="110" />
<glyph unicode="&#x2009;" horiz-adv-x="176" />
<glyph unicode="&#x200a;" horiz-adv-x="49" />
<glyph unicode="&#x2010;" horiz-adv-x="316" d="M70 230h158l17 58h-156zM263 186h-252l45 146h243z" />
<glyph unicode="&#x2011;" horiz-adv-x="316" d="M70 230h158l17 58h-156zM263 186h-252l45 146h243z" />
<glyph unicode="&#x2013;" horiz-adv-x="592" d="M88 284h409l7 58h-409zM536 241h-497l16 145h498z" />
<glyph unicode="&#x2014;" horiz-adv-x="968" d="M107 284h746l7 58h-746zM892 241h-834l16 145h835z" />
<glyph unicode="&#x2018;" horiz-adv-x="184" d="M89 471q42 0 42 52q0 21 -13.5 36t-27.5 18q6 32 36 55q-1 2 -6.5 11.5t-7.5 11.5q-64 -56 -64 -135q0 -49 41 -49zM89 429q-41 0 -62 25.5t-21 65.5q0 63 34.5 109.5t82.5 73.5q30 -30 44 -76q-27 -16 -31 -32q37 -24 37 -72q0 -43 -21 -68.5t-63 -25.5z" />
<glyph unicode="&#x2019;" horiz-adv-x="209" d="M103 646q-42 0 -42 -52q0 -21 13.5 -36t27.5 -18q-6 -32 -36 -55q4 -13 14 -23q64 60 64 135q0 49 -41 49zM103 688q41 0 62 -25.5t21 -65.5q0 -63 -34.5 -109.5t-82.5 -73.5q-30 30 -44 76q27 16 31 32q-37 24 -37 72q0 43 21 68.5t63 25.5z" />
<glyph unicode="&#x201a;" horiz-adv-x="208" d="M104 147q-42 0 -42 -52q0 -21 13.5 -36t27.5 -18q-6 -32 -36 -55q5 -14 14 -23q64 60 64 135q0 49 -41 49zM104 189q41 0 62 -25.5t21 -65.5q0 -63 -34.5 -109.5t-82.5 -73.5q-30 30 -44 76q27 16 31 32q-37 24 -37 72q0 43 21 68.5t63 25.5z" />
<glyph unicode="&#x201c;" horiz-adv-x="373" d="M109 430q-41 0 -62 25.5t-21 65.5q0 63 34.5 109.5t82.5 73.5q30 -30 44 -76q-27 -16 -31 -32q17 -11 29 -33q11 47 42.5 83.5t69.5 57.5q30 -30 44 -76q-27 -16 -31 -32q37 -24 37 -72q0 -43 -21 -68.5t-63 -25.5q-58 0 -76 51q-18 -51 -78 -51zM109 472q42 0 42 52 q0 21 -13.5 36t-27.5 18q6 32 36 55q-4 13 -14 23q-64 -56 -64 -135q0 -49 41 -49zM263 472q42 0 42 52q0 21 -13.5 36t-27.5 18q6 32 36 55q-4 13 -14 23q-64 -56 -64 -135q0 -49 41 -49z" />
<glyph unicode="&#x201d;" horiz-adv-x="373" d="M266 688q41 0 62 -25.5t21 -65.5q0 -63 -34.5 -109.5t-82.5 -73.5q-30 30 -44 76q27 16 31 32q-17 11 -29 33q-11 -48 -42.5 -84.5t-69.5 -56.5q-30 30 -44 76q27 16 31 32q-37 24 -37 72q0 43 21 68.5t63 25.5q58 0 76 -51q18 51 78 51zM266 646q-42 0 -42 -52 q0 -21 13.5 -36t27.5 -18q-6 -32 -36 -55q5 -13 14 -23q64 60 64 135q0 49 -41 49zM112 646q-42 0 -42 -52q0 -21 13.5 -36t27.5 -18q-6 -32 -36 -55q5 -13 14 -23q64 60 64 135q0 49 -41 49z" />
<glyph unicode="&#x201e;" horiz-adv-x="373" d="M268 189q41 0 62 -25.5t21 -65.5q0 -63 -34.5 -109.5t-82.5 -73.5q-30 30 -44 76q27 16 31 32q-17 11 -29 33q-11 -48 -42.5 -84.5t-69.5 -56.5q-30 30 -44 76q27 16 31 32q-37 24 -37 72q0 43 21 68.5t63 25.5q58 0 76 -51q18 51 78 51zM268 147q-42 0 -42 -52 q0 -21 13.5 -36t27.5 -18q-6 -32 -36 -55q5 -14 14 -23q64 60 64 135q0 49 -41 49zM114 147q-42 0 -42 -52q0 -21 13.5 -36t27.5 -18q-6 -32 -36 -55q5 -14 14 -23q64 60 64 135q0 49 -41 49z" />
<glyph unicode="&#x2026;" horiz-adv-x="1153" d="M149 129q-34 0 -34 -43q0 -20 9 -32t25 -12t25.5 12t9.5 32t-9.5 31.5t-25.5 11.5zM149 173q35 0 57 -24t22 -63q0 -38 -22 -63t-57 -25q-36 0 -57 24.5t-21 63.5t21 63t57 24zM1003 129q-34 0 -34 -43q0 -20 9 -32t25 -12t25.5 12t9.5 32t-9.5 31.5t-25.5 11.5z M1003 173q35 0 57 -24t22 -63q0 -38 -22 -63t-57 -25q-36 0 -57 24.5t-21 63.5t21 63t57 24zM576 129q-34 0 -34 -43q0 -20 9 -32t25 -12t25.5 12t9.5 32t-9.5 31.5t-25.5 11.5zM576 173q35 0 57 -24t22 -63q0 -38 -22 -63t-57 -25q-36 0 -57 24.5t-21 63.5t21 63t57 24z " />
<glyph unicode="&#x202f;" horiz-adv-x="176" />
<glyph unicode="&#x2039;" horiz-adv-x="242" d="M234 339l-94 -74l98 -71l-79 -89l-149 126v72l152 131zM77 265l96 81l-19 24l-100 -86v-36l101 -83l19 23z" />
<glyph unicode="&#x203a;" horiz-adv-x="242" d="M75 346l96 -81l-97 -77l19 -23l101 83v36l-100 86zM108 265l-94 74l72 95l152 -131v-72l-149 -126l-79 89z" />
<glyph unicode="&#x205f;" horiz-adv-x="220" />
<glyph unicode="&#x20ac;" horiz-adv-x="707" d="M449 303h-261q-2 18 -2 29v17h283l29 57h-302q22 79 86 128t147 49q103 0 142 -35l28 47q-23 21 -63 35.5t-77 14.5q-119 0 -211 -65t-114 -174h-46l-7 -57h47v-4q0 -22 3 -42h-51l-7 -57h70q29 -95 108 -152.5t178 -57.5q133 0 192 65l-29 40q-50 -47 -154 -47 q-75 0 -141.5 41t-94.5 111h218zM459 689q48 0 108.5 -23.5t83.5 -57.5l-71 -119q-50 50 -151 50q-48 0 -93.5 -27t-67.5 -65h298l-129 -245h-162q28 -28 76.5 -46.5t86.5 -18.5q34 0 78.5 15.5t79.5 45.5l82 -99q-96 -107 -249 -107q-101 0 -191 60t-117 150h-92l24 246h43 q96 241 363 241z" />
<glyph unicode="&#x2122;" horiz-adv-x="647" d="M16 546l11 126h380l16 -66l14 66h112l71 -367h-122l-8 101l-18 -101h-98l-20 107l-10 -107h-237v241h-91zM354 555l56 -206h26l55 206l41 -206h36l-55 279h-41l-48 -162l-52 162h-40l-56 -279h38zM68 628l-3 -38h85v-241h40v241h81l4 38h-207zM233 546v-195l37 195h-37z " />
</font>
</defs>
</svg>
