<?xml version="1.0" standalone="no"?>
<!DOCTYPE svg PUBLIC "-//W3C//DTD SVG 1.1//EN" "http://www.w3.org/Graphics/SVG/1.1/DTD/svg11.dtd" >
<svg xmlns="http://www.w3.org/2000/svg">
<metadata>
This is a custom SVG webfont generated by Font Squirrel.
Copyright   : gummagumma  junkohanhero 2006
Designer    : junkohanhero
</metadata>
<defs>
<font id="webfontMaZ7jjQN" horiz-adv-x="1325" >
<font-face units-per-em="2048" ascent="1638" descent="-410" />
<missing-glyph horiz-adv-x="567" />
<glyph unicode=" "  horiz-adv-x="567" />
<glyph unicode="&#x09;" horiz-adv-x="567" />
<glyph unicode="&#xa0;" horiz-adv-x="567" />
<glyph unicode="!" horiz-adv-x="665" d="M94 340q59 162 162 160l178 -6l41 -45l-6 -179q-16 -115 -55 -170t-101 -53l-12 -8h-10l-10 10h-11l-10 -8h-10q-82 10 -120 23.5t-36 33.5l12 31l-10 10v11l13 12zM98 705h11l-11 12l8 416l5 137q35 238 254 293l196 2l31 -54l-82 -739q-4 -35 -156 -223l-104 14l-41 2 l-10 10l-33 -10q-74 29 -68 140zM154 995l12 -168h-10l10 -10l-4 -125q-2 -74 69 -76l64 -4q29 0 47 166l-8 33l82 487l-8 33h-23q-209 8 -211 -53v-10zM154 264q-6 -156 77 -160l31 -2q33 -2 48.5 18.5t17.5 61.5l4 84l-8 53l-43 3q-123 5 -127 -58zM190 387l62 -22 q104 25 106 47v12l-18 20l-43 2q-107 -4 -107 -59zM231 1391l11 -2q240 -10 243 106l-8 10h-10l-74 -8v12q-158 -35 -160 -88zM383 715h8q55 -4 90 393h11l-11 10v10l13 11l-11 12l29 217l-8 10h-12q-14 2 -40 -160.5t-69 -502.5zM385 264l6 -63l23 20l2 51l-8 43l12 31 l-10 12h-13l-12 -43l10 -10v-8z" />
<glyph unicode="$" horiz-adv-x="1077" d="M86 981v10q0 286 301 449q59 0 107 137q39 29 67 29h98q39 0 50 -197q186 -18 186 -68l8 -38q-27 -195 -106 -293l-29 -29q223 -117 223 -332l10 -49l-10 -39v-29l21 -28q-70 -72 -148 -215q-74 -76 -241 -107q-23 0 -80 -137l-49 -18q-145 12 -146 67l10 107 q-27 29 -215 88l-18 30v97q0 164 127 243l117 -20l10 10v10q-285 115 -285 254zM133 981q0 -195 225 -262q78 -12 78 -80l-10 -39l10 -39l-10 -8l10 -10v-31q0 -41 -39 -68l-215 21l-10 -59q0 -106 166 -107q80 -12 80 -78l-12 -127l59 -18h10q20 0 39 67l-10 50 q0 57 155 57q195 66 195 194l10 60q-8 129 -96 233q-90 66 -215 99l-10 77q18 166 59 166l135 -28l31 106q-12 57 -166 57l-29 31l9 96v11q-20 39 -58 39q-39 -14 -39 -29v-88l-20 -29l-68 8q-227 0 -264 -243v-29zM211 522l31 -18h67l49 -10l21 28v39q-8 39 -109 39 q-36 0 -59 -78zM242 1264h18q39 31 166 39l10 30l-10 47h-29q-63 0 -155 -106v-10zM270 963v28q0 88 136 107h12l37 -39v-78q-8 -135 -37 -135h-12q-114 56 -136 117zM330 991q23 -61 49 -67q18 0 27 86l-9 30h-28q-21 -2 -39 -49zM494 1450l10 -10h20q0 49 19 49h10l20 -21 l-12 -10v-8h12l50 86l-41 20q-61 0 -88 -106zM543 416v28q12 205 49 205q156 -20 156 -155q0 -53 -89 -117q-116 12 -116 39zM610 444l31 -18q49 6 49 57h8l-8 29h-31q-26 -9 -49 -68zM623 864q209 -84 280 -243q0 -59 21 -60l10 10v29q0 240 -119 295l-117 57 q-44 0 -75 -88zM631 1370h10v70h-10v-70zM649 1253h10l78 -18q70 0 78 106l-106 21q-54 0 -60 -109zM815 1178h10l21 67h-10l-21 -18v-49z" />
<glyph unicode="(" horiz-adv-x="706" d="M88 694l12 45l-12 43q45 418 223 666q123 111 176 111q115 0 146 -78q0 -31 -123 -221q-100 -176 -100 -445v-65l-11 -11q0 -154 121 -432v-12q0 -186 -166 -254h-20q-246 293 -246 653zM145 838l11 -78v-164l10 -80h-10q102 -340 188 -397h43l12 43q-156 326 -155 620 q0 254 133 533l-33 33v12q-102 0 -188 -522h-11zM299 739q0 -195 123 -510h22l11 56q-111 289 -111 420l10 122l-10 11v12q12 227 133 475h-12q-166 -199 -166 -586zM377 1413l22 -20h23q57 27 88 88v12h-33q-96 -62 -100 -80z" />
<glyph unicode=")" horiz-adv-x="645" d="M72 109l98 233q63 225 82 516l-14 66l-2 43l10 12q-31 170 -92 321l-2 21q49 231 184 238q55 4 109.5 -91.5t105.5 -287.5v-23l-4 -131l14 -76q14 -270 -139 -659q-117 -238 -225 -262q-100 27 -123 69zM137 123l33 -31v-10q84 2 192 500l17 358l-2 23q-37 309 -117 342 h-33l2 -13q66 -238 76 -420q-6 -279 -90 -571zM313 1364q119 -217 129 -410q0 -389 -49 -546q49 4 94 321l19 262l-12 10v13l2 182q-98 233 -134 254q-29 0 -49 -86z" />
<glyph unicode="," horiz-adv-x="620" d="M78 313v213q0 53 137 191l160 -10h74q55 0 83 -54v-32q0 -471 -210 -572h-23q-57 0 -84 41l10 127h-10q-137 0 -137 96zM141 344q0 -61 105 -61q33 0 53 -43l-10 -127h10q96 35 96 370l-10 33h-213l-31 -33v-139zM162 569h106l97 11l30 -11q43 46 43 74l-12 10h-158 q-77 0 -106 -84zM459 440h10l10 54v32h-20v-86z" />
<glyph unicode="-" d="M72 803l6 31l24 16q98 174 381 129q502 25 645 2q80 -12 93 -223q-6 -34 -148 -166q-16 -96 -962 -6q-16 2 -39 217zM131 772l14 -119l95 -14q156 -25 432 -27l10 -2l10 -12q119 27 299 27l8 51q14 80 -34 110q-508 25 -832 -4zM190 856l361 6l10 -2l10 -10 q467 -14 490 59l4 21l-23 2q-125 20 -559 -17q-279 31 -290 -49zM1036 766l27 -111q10 -2 33.5 24t58.5 79q12 76 -20 129q-27 4 -93 -90l9 -13l-2 -10z" />
<glyph unicode="." horiz-adv-x="612" d="M74 504q80 242 188 250l98 8l123 20q52 -46 56 -92l2 -12l-9 -49l15 -13q14 -172 -121 -368q-74 -31 -229 -43q-49 -4 -77 43t-36 145zM160 512l8 -100l16 -72l-8 -49l39 -25l86 8q74 6 88 132l-12 12v10l6 76l-41 35l-61 -7zM188 598v-10l88 -6l62 6q70 49 63 114 l-84 -8q-102 -10 -129 -96zM449 596l10 -111l10 2l4 86v25z" />
<glyph unicode="/" horiz-adv-x="825" d="M82 186q-18 270 289 934q160 502 219 504q133 10 139 -78l6 -100l13 -10l-205 -682q-33 -23 -90 -295q-98 -166 -162 -404l-43 -12q-156 8 -162 98zM131 256h12l205 551l70 272q-45 -27 -76 -184q-209 -471 -211 -639zM174 127l2 -23l35 -10q47 2 221 473l111 330 l112 432l-12 10l-22 -2q-84 -6 -148 -266q-33 -57 -127 -409q-127 -324 -172 -535zM465 1204q25 3 37 92l-23 -2zM594 1436l10 -11l25 -20v-10l41 37l-6 98l-25 20h-10q-29 -3 -35 -114z" />
<glyph unicode="0" horiz-adv-x="1249" d="M86 639v135q0 621 403 746l115 10q430 0 498 -166q35 -70 72 -322l-11 -268l-10 -33l10 -10v-10q0 -293 -280 -590q-160 -82 -320 -92q-281 74 -280 133q-197 209 -197 467zM147 616q0 -301 250 -464l166 -52h41q209 0 311 146l-32 41q104 74 104 217h10l-10 31l10 219 v30l11 11l-11 10v41l11 41q-59 373 -197 373l-217 53h-82q-236 0 -322 -199q-43 -176 -43 -309v-189zM283 1313h20q154 51 260 51q340 0 434 -186l64 -248l-23 -436h13q59 57 59 270v184l12 13l-12 10v41q-25 426 -207 426l-184 41h-115q-180 0 -321 -156v-10zM418 555v33 q0 485 102 485q0 20 53 33q186 0 187 -406q0 -289 -84 -331q-41 -41 -113 -41q-145 57 -145 227zM469 578q25 -197 115 -197h30l21 18v11q-92 61 -92 290v105l10 166l-10 30h-13q-43 1 -61 -423zM604 606q12 -102 41 -102h41l21 145q0 373 -93 373v-10l-10 -146v-260z" />
<glyph unicode="1" horiz-adv-x="761" d="M63 1153v61q61 236 185 236q227 61 385 61l37 -49v-98l12 -150l-25 -309l13 -37q0 -670 -211 -805l-248 -51q-25 66 -25 260v13l-12 51l25 260l-13 172h13l-13 12l25 187l-12 88l12 12v12q0 34 -135 62zM162 1214q0 -25 98 -36l25 -50l-25 -495v-25l12 -76l-24 -172 l12 -124l-12 -50l24 -86h50q137 0 137 136v235l24 496v297l-12 14v10q-152 -12 -309 -61v-13zM186 1327l37 -12q309 43 309 98v12l-36 13l-62 -25l-12 12h-12q-224 -43 -224 -98zM520 322h27q41 0 61 966l-12 39h-25l-14 -63v-99z" />
<glyph unicode="2" horiz-adv-x="1040" d="M106 1194v23q35 268 158 268l254 47q317 -37 318 -315q0 -262 -121 -545l10 -13h12l160 35q35 -25 47 -217q-78 -389 -121 -389l-49 12l-498 -84h-61q-29 0 -59 291q102 295 241 547v121l-37 37l-155 -74h-15q-47 0 -84 256zM180 1133q0 -90 35 -99l145 37h15 q92 0 143 -170q0 -211 -278 -582l-13 -36q6 -207 62 -207l12 12h12l13 -12h12q29 25 350 61q98 37 98 62v22q0 89 -61 135l-86 -14h-107l-24 25q180 430 180 534q0 365 -192 365l-74 12q-242 -55 -242 -109v-36zM205 1290h22l170 47h62q279 -61 278 -278l25 24v170 q0 123 -182 195q-375 0 -375 -145v-13zM604 428l25 -25q158 0 157 109v37l-36 37h-13q-74 0 -133 -146v-12zM836 367q25 0 34 110l-12 12h-10l-12 -61v-61z" />
<glyph unicode="3" horiz-adv-x="980" d="M115 543v219q0 154 143 209l55 -13q88 6 88 33q0 43 -221 68l-33 88q0 227 101 297q0 37 53 65q452 0 485 -153q25 0 43 -101q0 -123 -75 -352q152 -106 151 -264q-33 -236 -284 -537q-193 -143 -275 -143q-43 37 -110 274q55 242 153 242l12 10v13l-22 20l-78 -8v8 q-55 -20 -154 -20zM180 586l23 -23l166 10q111 0 153 -75v-101q-57 -164 -209 -164v-20q43 -188 76 -188q186 66 309 274q31 86 31 154v12q0 166 -121 209q-31 0 -53 43v12q154 193 154 318q0 219 -287 241h-109q-88 0 -88 -65v-88q0 -33 197 -66q66 -66 65 -154 q0 -144 -294 -153l-13 -55v-121zM225 827h33l66 -12q78 29 77 78l-12 10h-10q-154 -12 -154 -43v-33zM268 1343l13 -10l10 10h65q385 -61 385 -176h23v88q0 139 -199 189l-10 -12h-12l-99 22l-10 -10l-55 10q-111 -28 -111 -111zM336 299h43q76 37 76 98l-21 23 q-98 -34 -98 -98v-23zM641 707q156 -72 156 -189h10q33 72 33 156v10q-22 154 -111 154q-43 0 -88 -131z" />
<glyph unicode="4" horiz-adv-x="1107" d="M98 666v59q0 293 414 836h23q330 -61 329 -189v-24l-12 -154l12 -35l-12 -35l12 -153q164 -12 164 -47v-11l12 -165q0 -270 -151 -271q-59 -10 -60 -35v-141l-12 -106l12 -48q0 -129 -165 -129l-117 -12q-53 20 -60 47l13 412l-60 24l-12 -12h-10l-107 12l-131 -12 q-82 21 -82 189zM170 688q0 -139 47 -139l164 -12l154 12l34 -37l-12 -176v-236l12 -12v-10l60 10h10l12 -10q94 12 94 35v94l13 164l-13 12v12q0 141 119 142q59 0 60 34v95q0 35 -119 47l-35 104l12 72v12l-12 166l12 117q0 74 -225 116h-10q-166 -160 -320 -493 q-28 0 -57 -119zM217 948q236 360 236 387v13h-25q-211 -322 -211 -400zM358 713q199 389 211 389h13l34 -35v-59l13 -283q-20 -53 -47 -59h-129q-95 0 -95 47zM465 735h22v-10q70 25 70 70q-12 82 -35 82zM535 1395q0 -25 223 -82l12 12v70q0 45 -213 94l-22 -35v-59z M842 866q31 -102 57 -106l25 106v23l-35 12z" />
<glyph unicode="5" horiz-adv-x="905" d="M72 752l12 57v238l25 94v129q70 248 210 248h13l307 -48l47 13q94 -31 94 -94q0 -131 -94 -320v-10q154 -88 154 -357q0 -188 -226 -540q-181 -190 -307 -191h-47q-35 0 -94 273v35q0 158 188 272l13 70q0 70 -271 94zM156 774q307 -31 307 -260q-37 -248 -225 -248 l-13 -35q49 -201 82 -200q367 121 367 520q-33 270 -94 270q-162 106 -273 107v94q0 84 72 84l94 -25h72q27 0 47 107q0 70 -320 69l-47 13q-47 0 -47 -129l-12 -13l-10 -34l10 -13l-10 -143v-164zM225 1329l60 12q35 -35 153 -49l13 15l81 -15h60q70 57 70 119l-343 47 q-94 -39 -94 -117v-12zM250 338h10q131 23 131 117l-12 14h-12q-90 -49 -117 -109v-22zM379 975q344 -104 344 -320l10 -94h23l24 154l-12 37l12 34q-49 223 -166 224l-223 24l-12 -12v-47zM649 1188l13 -12h12l35 116h-11q-24 0 -49 -104z" />
<glyph unicode="6" horiz-adv-x="1150" d="M90 516q0 401 154 653q86 205 366 316q37 18 236 41q111 0 153 -72q0 -223 -153 -377v-20q233 -94 233 -287l13 -80q0 -264 -338 -622q-49 -40 -185 -62q-219 0 -417 285q-62 123 -62 225zM141 485q94 -315 185 -315q83 -92 233 -92h41q213 0 307 377l11 92 q0 205 -144 264l-182 43l-184 -43l-21 23q125 254 367 253q31 49 30 154v21q0 41 -112 41v10q-237 -49 -387 -215q-144 -205 -144 -613zM356 1221q219 143 449 143l82 90l-10 10h-11q-356 -4 -510 -223v-20zM377 444v23q0 184 174 223h18q121 0 174 -205q-61 -225 -192 -225 h-10q-164 49 -164 184zM438 414q0 -94 121 -103h23l49 41v21q-119 0 -131 143v62l-21 20l-41 -51v-133zM500 913l10 -10v-8l41 8q418 0 418 -325v-82q51 20 51 153v121q0 199 -277 236h-79q-82 -1 -164 -93zM559 506q0 -72 72 -72h20q31 12 31 62v20q0 68 -82 92 q-41 -10 -41 -61v-41zM846 1190h10q61 47 62 133v72h-11q-61 -49 -61 -105v-100z" />
<glyph unicode="7" horiz-adv-x="1130" d="M63 1233q104 242 310 242q367 78 465 77q143 -141 143 -198v-33l-98 -254h12l10 -12l10 12h121l35 -35v-10l-12 -35l12 -53v-35q-63 -332 -201 -332l-133 -10v10q-66 0 -65 -88q-207 -418 -254 -442q-272 90 -279 143l146 400l-11 10h-102q-57 0 -66 33q0 233 66 288v33 h-53l-33 33v65zM129 1176q0 -151 55 -166l344 57h11l22 -25v-10q-57 -231 -143 -231l-201 -13h-10q-35 -12 -35 -65v-12l12 -56h101l77 13q33 -39 33 -78q-78 -84 -188 -400q119 -88 199 -88q119 244 210 498q29 33 279 45l10 10v156h-67l-133 -10l-23 20l113 246l32 109 q0 80 -155 110q-543 -49 -543 -98v-12zM143 1272l29 14l168 23v-11q408 29 420 134q23 0 22 43l-12 12h-10q-599 -82 -617 -215zM229 866l11 -12h110q111 0 111 90v10h-66q-166 0 -166 -88zM766 1335q74 -92 94 -92q18 3 68 111q-27 88 -90 125q-43 -82 -43 -125zM770 879 l12 -13l152 27l39 113l-103 -29q-100 -14 -100 -98zM971 801h22l23 88l2 69l-25 -59z" />
<glyph unicode="8" horiz-adv-x="1054" d="M88 348v10q12 137 117 404l2 8q-125 76 -109 252l-10 10q74 365 125 361q115 139 346 120q319 -78 299 -350l-47 -217q-4 -29 115 -125q31 -63 47 -205q-37 -494 -350 -593l-140 -23q-283 23 -379 272zM129 336q31 -152 141 -223q31 -25 164 -56q295 -22 418 222l16 61 l-10 10v12l19 93q6 102 -211 270l2 31q100 182 108 299q-16 94 -92 176q-39 53 -238 69q-180 14 -288 -198l-6 -84q-14 -178 116 -242q20 -4 31.5 -13t9.5 -22l-2 -30q-164 -176 -178 -367v-8zM201 1245h10q139 109 240 109q254 -23 354 -207l14 51q-53 236 -213 248l-41 14 q-346 27 -364 -215zM315 963l4 53q6 86 138 127q111 -57 118 -94l-6 -74q-47 -133 -137 -127q-63 4 -92 33t-25 82zM358 442q70 145 181 136q106 -104 100 -179q-18 -84 -54 -121.5t-93 -33.5l-23 2q-126 9 -111 196zM371 1001q0 -84 67 -90q74 16 80 78l-102 49l-10 2 l-33 -28zM410 408q-6 -82 63 -121q106 20 113 96l-11 2l-10 10l-10 -10l-20 2q-96 6 -91 70l-10 2l-22 -21zM502 506l6 -53l20 -2l35 28v10l-28 35zM731 752q53 -43 174 -203l15 51q-14 242 -140 252l-47 -70z" />
<glyph unicode="9" horiz-adv-x="1122" d="M94 934l12 10v10l-12 13q31 479 187 479q111 86 260 86q350 0 467 -391l12 -326v-176q-63 -432 -121 -432q0 -59 -326 -230h-32l-86 273l10 53v78q109 74 108 96l-12 12h-8l-68 -12q-180 43 -260 152q-131 188 -131 305zM160 901q0 -98 131 -272q41 -41 207 -109l174 43 q96 -20 96 -53v-21q-29 -29 -96 -176l-154 -106q35 -164 78 -164q293 121 293 260q37 33 86 348l-66 371q-66 162 -313 270l-43 11q-360 -25 -360 -195q-33 -53 -33 -109v-98zM182 1217h11q139 139 184 151l305 -43q260 -190 260 -293h12v33q0 311 -295 401l-141 11 q-244 0 -336 -228v-32zM367 868v33q23 164 141 164h10q184 -45 184 -164v-65q0 -94 -141 -119q-104 -1 -194 151zM422 891q0 -70 119 -131q109 0 108 88v20h-20v13l-56 -23q-80 0 -141 66h-10v-33zM475 977q23 -66 86 -66l35 13v10q0 76 -78 76h-20q-23 0 -23 -33zM508 326 l33 -43h20q98 70 98 161v23h-10z" />
<glyph unicode=":" horiz-adv-x="595" d="M74 1208l76 127l124 31l172 25q61 -18 74 -107l4 -24q25 -182 -100 -365l-125 -31l-49 6l-45 -18q-115 -16 -123 51v84q-24 228 -13 228q2 0 5 -7zM102 496q61 230 166 245l92 13l113 28q53 -41 59 -86l3 -10l-7 -47l15 -10q25 -168 -90 -355q-76 -35 -217 -55 q-90 -12 -117 172zM127 1075l12 -10l-2 -59l13 -80l24 -21q100 18 147.5 30.5t45.5 20.5q16 59 2 154l-7 33q-16 35 -71 26l-72 -12q-90 -12 -92 -82zM152 1231l4 -23l184 27q53 31 45 88l-12 10l-80 -22l-92 -15zM184 506l13 -92l20 -68l-4 -47l39 -18l80 12q66 8 76 129 l-13 8l-2 12v70l-37 31l-57 -8zM188 721zM207 592l2 -12h82l57 10q63 51 55 112l-81 -12q-92 -12 -115 -98zM420 1163l16 -137q43 27 31 213l-10 49l-27 -41zM451 602l16 -102l12 2v82l-4 22z" />
<glyph unicode=";" horiz-adv-x="657" d="M84 1139q126 135 203 135l35 -12l10 12h12l10 -12h13l55 12q113 0 113 -103q0 -106 -5 -227q-6 -181 -6 -20h-12q-90 -150 -168 -150h-35v-20h180q66 0 93 -58v-125l-13 -135l23 -22v-13q-49 -25 -68 -180q-127 -170 -192 -170q-63 0 -90 45l12 135h-12q-147 0 -148 103 v203q0 102 148 217v20q-135 6 -136 47v203zM162 367q0 -68 114 -68q35 0 56 -43l-10 -137h10q100 43 100 385v12l-33 35h-202l-35 -35v-149zM174 899q0 -78 113 -78h22q35 0 58 135l-13 45l13 11q0 70 -138 69h-32l-23 -22v-160zM184 1139h80l68 -13q45 0 90 68l-33 23h-135 l-70 -68v-10zM197 604h102l100 12l33 -12q47 53 47 80l-12 12h-168q-102 0 -102 -92zM412 899h20q31 0 47 90v125l-22 25l-45 -70l10 -35l-10 -10v-12l10 -11v-12zM502 469h10l12 57v33h-22v-90z" />
<glyph unicode="&#x37e;" horiz-adv-x="657" d="M84 1139q126 135 203 135l35 -12l10 12h12l10 -12h13l55 12q113 0 113 -103q0 -106 -5 -227q-6 -181 -6 -20h-12q-90 -150 -168 -150h-35v-20h180q66 0 93 -58v-125l-13 -135l23 -22v-13q-49 -25 -68 -180q-127 -170 -192 -170q-63 0 -90 45l12 135h-12q-147 0 -148 103 v203q0 102 148 217v20q-135 6 -136 47v203zM162 367q0 -68 114 -68q35 0 56 -43l-10 -137h10q100 43 100 385v12l-33 35h-202l-35 -35v-149zM174 899q0 -78 113 -78h22q35 0 58 135l-13 45l13 11q0 70 -138 69h-32l-23 -22v-160zM184 1139h80l68 -13q45 0 90 68l-33 23h-135 l-70 -68v-10zM197 604h102l100 12l33 -12q47 53 47 80l-12 12h-168q-102 0 -102 -92zM412 899h20q31 0 47 90v125l-22 25l-45 -70l10 -35l-10 -10v-12l10 -11v-12zM502 469h10l12 57v33h-22v-90z" />
<glyph unicode="?" horiz-adv-x="897" d="M84 1184q33 156 71 231.5t83 73.5q102 90 280 88q297 -88 293 -305v-19l-8 -26l8 -10h8q-6 -274 -268 -517q-4 -176 -51 -176l-74 -8q-139 2 -139 78l2 18q6 360 137 471l39 58l-8 26h-37q-66 -33 -172 -145h-8zM168 1174q0 -20 63 -76q152 127 189 127h8 q115 -25 137 -144v-10q0 -84 -151 -201q-68 -96 -70 -239q0 -59 53 -60h11q86 0 86 93q4 78 180 231q59 115 59 184v37q-43 225 -162 227q0 15 -110 37l-10 -8h-11l-8 10q-160 4 -264 -208zM170 1303h29q80 129 186 127l66 -3q145 -35 216.5 -81t69.5 -109l8 -10h11l8 10 l2 8q2 113 -73 184.5t-222 100.5q-215 4 -301 -207v-20zM270 174v47l11 37l-9 10v8q37 213 144 213l28 9q94 -2 201 -144l-47 -45v-39q-27 -260 -172 -256h-18q-107 2 -138 160zM326 172q0 -53 63 -111l55 -2q83 37 86 129q0 61 -61 105h-47q-92 -23 -96 -100v-21zM348 342 l74 -2l131 -41l8 10v29q-8 111 -108 113q-102 -18 -105 -101v-8zM385 926h10q114 86 117 147l-20 19q-107 -117 -107 -166z" />
<glyph unicode="@" horiz-adv-x="1638" d="M94 645v162q0 248 242 616q150 229 524 230h25q502 -160 501 -262q172 -135 173 -367q0 -201 -150 -401v-33q57 -57 57 -105q-104 -266 -297 -342q-68 -59 -344 -102v10l-10 -10q-366 0 -651 344q-70 180 -70 260zM152 565q70 -250 286 -364q209 -92 307 -92h105 q151 0 399 159l13 35l-35 23q-291 -115 -389 -115h-70q-289 0 -479 299q-29 61 -45 274q125 549 536 549q256 0 469 -344l13 -137v-10q-49 -264 -195 -264h-23q-184 0 -184 319v37l12 135l-34 25l-93 -35l-147 22q-114 0 -172 -264q0 -297 207 -297l170 45q133 -90 241 -90 q215 0 308 342l12 92v13q0 406 -561 491h-58q-334 0 -559 -434q-34 -123 -34 -414zM299 705q0 -358 446 -437l35 13l70 -13q424 96 424 217l-37 13q-170 -137 -434 -138q-186 0 -377 172q-115 137 -115 173h-12zM324 1298h12q238 184 409 185q688 -117 689 -609l-25 -114h25 l57 229q0 262 -117 344q-92 145 -399 240l-150 22q-335 0 -501 -297zM369 897l80 172l114 127h-12q-182 -123 -182 -287v-12zM528 760q0 133 127 229h45q68 -23 68 -125q-31 -229 -147 -229q-81 0 -93 125zM598 725l23 -20h34q37 0 58 124q-12 92 -35 93h-12l-45 -58l12 -35 l-35 -32v-72zM621 1151q12 -35 67 -35h25q90 12 90 90l-45 25q-137 -43 -137 -80zM678 440l125 -22l57 10v-10l45 10v25l-125 57l-102 -47v-23zM872 1161l13 -10q55 18 55 68h-22q-26 -7 -46 -58zM918 852q18 -182 57 -182h22l-34 127v204l12 115l-12 10h-11l-34 -79l12 -13 v-33l-12 -104l12 -10v-13l-12 -10v-12zM1022 784q18 -102 78 -102q70 0 114 205q-80 264 -147 264h-23l-22 -264l10 -80l-10 -10v-13zM1284 371l35 -33q68 117 67 160v22h-22q-80 -68 -80 -125v-24z" />
<glyph unicode="A" horiz-adv-x="1241" d="M43 160l283 1143q194 197 258 196q346 -18 405 -110q0 -86 123 -467l-12 -50q18 -4 86 -356l12 -49q-95 -344 -270 -344q-117 -49 -172 -49q-22 0 -74 184h-98q-209 -258 -246 -258q-184 77 -295 160zM117 233q0 -114 196 -159q28 0 86 233q46 25 136 25h49 q184 0 184 -160l37 -25q172 28 172 62q-25 280 -172 749q-68 270 -111 271h-37l-245 37q-86 0 -197 -627q-98 -320 -98 -406zM424 172h12q61 37 62 86h-37q-28 0 -37 -86zM436 492q71 442 123 442h12q46 -15 111 -406v-36l-25 -25h-196zM449 1327l135 -37l37 13l98 -25 q92 0 135 123q0 22 -283 37q-116 -68 -122 -111zM510 614l12 -12h13q40 31 61 98l-25 86h-24zM559 541l12 -13v-12l37 12v37h-24zM805 1155q34 -200 147 -479l25 -123h-12l86 -258q43 0 86 147q-86 541 -209 885h-25q-98 -52 -98 -147v-25z" />
<glyph unicode="B" horiz-adv-x="1142" d="M100 86q-2 10 -1 30q0 152 112 1111q-1 9 -1 17q0 109 208 278l31 4q12 2 29 1q112 0 413 -71q82 -63 100 -184l17 -103l-66 -262q119 -158 125 -202q6 -36 6 -74q0 -241 -239 -529q-96 -78 -207 -96h-11q-481 25 -514 57zM162 94l10 2l426 -41q223 35 281 295l12 66 l-17 39l5 43q-68 168 -105 194l-2 21q90 139 102 288l-6 52q-31 197 -276 221q-71 8 -142 8q-87 0 -174 -12q-51 -211 -104 -973q4 -25 4 -57q0 -60 -14 -146zM317 1348q2 -17 94 -17q37 0 89 2l194 -33q186 -76 203 -170q6 -51 29 -47q16 29 16 106q0 38 -4 87 q-69 149 -177 149q-12 0 -24 -2q-151 39 -249 40q-34 0 -62 -5q-35 -10 -109 -110zM358 324q27 309 68 315l20 2q15 1 29 1q173 0 193 -144q-18 -181 -117 -197h-43q-147 0 -150 23zM436 430l13 -8l10 2q70 90 63 135l-6 31l-31 6q-49 -6 -49 -166zM436 842q0 238 47 248 l31 4q152 -16 164 -103q0 -176 -98 -192q-38 -3 -66 -4q-70 0 -74 24zM477 362l25 -16l20 2q57 10 76 66l-6 30l-25 17l-18 -2q-60 -54 -72 -97zM504 956l4 -30l10 2q48 40 49 85q0 7 -2 15l-10 8l-20 -2q-32 -19 -33 -60q0 -9 2 -18zM530 854v-10l21 4l2 -10q61 10 59 92 q-57 -8 -82 -76zM848 702q74 -162 90 -258l-8 -12l2 -10l14 -31q70 107 70 212q0 25 -4 50l-6 41q-10 55 -72 137l-33 -4q-54 -65 -54 -111q0 -7 1 -14z" />
<glyph unicode="C" horiz-adv-x="1169" d="M117 739v31q0 516 340 715q63 31 182 31q154 -18 297 -127q94 -152 94 -193v-31q-43 -225 -127 -225l-190 -41q-86 137 -109 137h-8q-66 0 -66 -53q0 -344 66 -434l74 -86h10q57 231 137 307q279 -23 279 -74q0 -487 -437 -669h-20q-356 0 -449 317q-73 209 -73 395z M170 823q23 -659 307 -723l162 -10h31q168 0 286 383v43q-20 20 -180 33q-96 -254 -137 -256h-78q-168 166 -168 403v31q0 375 211 375q37 0 152 -139q137 18 137 53v10q-63 266 -277 266l-63 11q-346 0 -383 -437v-43zM350 1303h10q143 53 213 53q154 -23 299 -127l52 -127 h32l23 104q-94 246 -299 246l-96 10q-160 1 -234 -159zM444 707q40 -319 160 -363l43 33v22q-104 92 -160 277q-6 117 -30 117zM786 600l74 -10h86q53 29 53 86l-63 20h-96q-53 -29 -54 -86v-10z" />
<glyph unicode="D" horiz-adv-x="1271" d="M98 66l49 1290q156 121 252 160q121 -6 240 -46l35 15q127 0 297 -111q211 -166 227 -497q-39 -393 -164 -549q-139 -176 -282 -217q-68 -84 -254 -93q-255 13 -400 48zM162 408l10 -11l-8 -250q3 -56 198 -55h41q0 -18 66 -17q17 0 37 1q219 12 387 401l49 354 q-79 385 -173 386h-3q-105 108 -331 107q-24 0 -48 -1l-125 16q-70 -3 -70 -397q0 -17 1 -35zM315 1386l93 -28l55 12q9 0 18 1q122 0 269 -77q186 -131 192 -250h-10q39 -51 65 -221q-55 -487 -120 -491l-64 -107h12q298 203 298 560q0 21 -1 42q19 0 20 72q0 15 -1 33 q-76 352 -163 352h-1q-87 125 -210 125h-11q0 18 -287 41q-78 -10 -117 -25.5t-37 -38.5zM381 328q53 416 53 661q0 48 -2 88v10q10 35 66 37q207 -80 217 -270q2 -43 2 -82q0 -379 -191 -459q0 -25 -75 -26l-35 -2q-27 0 -35 43zM463 479l12 -33q99 6 99 465q0 39 -1 82 l-2 33l-24 23q-53 -4 -62 -365q-16 0 -22 -205zM512 381h12q45 18 64 59v13q-39 -2 -58.5 -19.5t-17.5 -52.5zM631 748l6 -148h12l2 170l-2 35h-10z" />
<glyph unicode="E" horiz-adv-x="958" d="M96 829l13 101l-13 325q55 248 103 248l45 13h90q135 0 135 20l55 -10h213q90 0 90 -158v-68l-57 -225q90 0 90 -178v-90l-43 -180q88 0 88 -113v-145q-74 -350 -180 -351h-123l-100 13l-113 -13h-203q-55 22 -55 338q-16 0 -22 123h10l-10 13v213l10 12zM166 940 l10 -293v-223q40 -338 68 -338h461q16 0 32 45l-12 125v55l-10 13v10l-191 -10h-45q-45 0 -45 190v35q0 27 45 33q236 0 236 32v113q0 59 -33 68h-12l-226 -13l-20 70v133q0 46 258 68l-12 80v10l12 45q0 55 -80 55q-436 0 -436 -65v-35l10 -158zM176 1278h43l463 35 q43 86 43 135l-10 10h-10l-486 -10q-43 -89 -43 -148v-22zM524 852h11l12 -12h10l35 22l45 -10q123 8 123 113v10l-10 10v12q-180 -31 -181 -57zM547 389l10 -10h12q225 0 226 145l-13 13q-213 0 -213 -103q-22 0 -22 -45zM737 1223h13l10 55h-23v-55zM770 750q29 0 35 79 l-10 33h-13l-12 -55v-57zM782 279l13 -68q25 0 55 168l-10 45h-23z" />
<glyph unicode="F" horiz-adv-x="919" d="M61 1274q141 231 275 231l199 11h264l32 -33v-76l13 -45q0 -164 -68 -242v-33q51 0 68 -90v-108q0 -176 -133 -352q-156 -43 -156 -68v-20l12 -144q-70 -274 -143 -274h-10v10l-13 -10h-10l-10 10q-45 -23 -123 -23h-88q-59 0 -76 320q6 98 23 98l-45 398l12 65v66 l-12 45l12 45l-12 10v10l12 12zM127 1055l10 -33l23 -518l-10 -12v-11l20 -88l-10 -98l33 -209l165 10h33l33 23l-33 395q119 68 275 68l22 43q-12 209 -65 209l-199 -33q-66 0 -66 176v45q0 47 275 65q10 176 22 177q-6 43 -75 43l-78 -11l-45 11l-320 -56l-10 -43l10 -153 h-10zM193 1339l57 -10l297 33v-10l8 10h12l66 -10q35 0 90 88l-35 20h-231q-181 0 -252 -98l-12 -10v-13zM446 866h76q209 0 209 144l-8 12h-143q-93 0 -134 -156zM457 469l22 -209l23 23v176l-23 22l-10 -12h-12zM711 1196h12q53 53 53 166l-10 10h-10q-31 0 -45 -108v-68z M731 768l25 -23h10l10 78v99q-31 0 -45 -111v-43z" />
<glyph unicode="G" horiz-adv-x="1144" d="M104 786q0 139 152 453q188 281 422 281h20q100 -2 101 -21l10 10h8q131 0 131 -118l-10 -41l10 -80q-137 -211 -200 -211h-91q-172 -18 -172 -203l-8 -8v-10h19q0 45 161 180q412 -74 412 -121l10 -10q0 -129 -51 -301l10 -31q-84 -342 -270 -481q0 -20 -90 -31 q-223 35 -363 162q-201 236 -200 440zM156 727l18 -90l-8 -10q0 -262 291 -473l200 -60h31q106 0 170 381h10l-10 31l31 252l-283 69h-8q-82 0 -82 -182q172 -49 172 -90q-55 -180 -90 -180q-172 66 -221 200l-31 121q0 147 80 283v8h-20v21l20 20l41 -10q55 90 80 100 q51 -4 51 -20l8 10h121l21 20v142l-41 49l-50 -10h-90q-266 0 -401 -422l8 -10v-11l-18 -90l10 -28l-10 -11v-10zM395 707q55 -262 152 -263l10 -10h21q16 4 38 51q0 43 -159 142q-31 170 -51 170h-11v-90zM406 1319l141 41l90 -10h70q63 0 120 80v10q0 31 -110 30h-80 q-94 0 -231 -131v-20zM598 877l180 -60l80 10l31 -30h29q51 23 71 69v21q0 20 -61 20l-250 62q-65 0 -80 -92zM788 1288q6 -119 29 -119q72 96 72 129v121q-101 -76 -101 -131zM858 246h10q76 106 121 291l-10 10v8l49 231l-8 31h-10q-47 -12 -92 -201l10 -30h-10l10 -11 l-70 -270l10 -10v-10z" />
<glyph unicode="H" horiz-adv-x="1361" d="M104 799l13 55l-13 92q0 446 148 496q12 53 145 53l41 -14l15 14h12q174 0 174 -201l12 -159l-12 -95l12 -14h41q10 82 27 82l-27 172q186 242 254 242h201q94 0 94 -174l39 -494l-12 -121v-174q0 -203 -160 -440l-203 -29q-115 0 -145 68v106q0 254 -53 254l-68 -26 l12 -13v-121q-66 -246 -159 -295h-175q-186 0 -186 80l-14 136l14 38zM170 1055l27 -711l14 -65l-14 -68q0 -80 82 -80h133l41 39v362q0 53 254 54h53q80 0 80 -402l65 -14h109q41 10 41 94l-15 443l15 79l-15 93l15 268q0 94 -94 94h-107q-82 0 -82 -80v-135l14 -186 l-26 -54l-41 13l-213 -13l-53 54v174l-27 133h12q0 94 -186 94q-82 -22 -82 -186zM238 1309h14l174 -29l80 94v15q0 39 -135 38q-133 -32 -133 -118zM506 1001l41 -40l24 120v213l-24 27l-41 -147v-173zM518 303l29 -24l24 79v95l-24 26q-29 0 -29 -41l14 -12l-14 -68v-55z M586 866h94l27 27v27l-27 26h-41l-53 -53v-27zM825 1321l54 -27q242 0 241 107v12l-26 29h-174q-95 -51 -95 -121zM1108 866l12 -12v-188l27 -228l-12 -94h12q43 0 53 322h14l-14 14v65l14 15l-14 12v27l14 14l-14 12l14 41l-14 148v12l14 14q-27 55 -26 213v68l-27 27 l-41 -107l15 -174q-7 -201 -27 -201z" />
<glyph unicode="I" horiz-adv-x="890" d="M92 104q80 1219 209 1219q203 154 250 154q276 -61 276 -166q0 -176 -139 -819q0 -371 -248 -457l-28 -29h-41q-279 71 -279 98zM190 131l152 -41h14q115 434 181 1053q-31 70 -140 69h-67q-43 -236 -99 -372l15 -15v-14q-55 -369 -56 -555v-125zM385 1296l137 -55l15 12 h14l12 -12q139 66 139 96q-68 55 -165 56q-152 -68 -152 -97zM467 145h14q104 0 123 361q139 541 139 706v29h-26q-104 -12 -180 -610l14 -15v-14z" />
<glyph unicode="J" horiz-adv-x="1310" d="M39 412q117 324 367 323q41 -12 116 -162l17 -16h45q47 0 57 193l-14 14v14q55 633 161 633q0 45 103 117q338 0 338 -60v-159l-15 -17l15 -12q-43 -649 -176 -956q-133 -238 -426 -324h-131q-310 0 -457 412zM141 367q92 -293 338 -293l60 -15q190 0 338 250 q133 231 133 807l14 60q-18 74 -207 73l-72 -45l15 -43q-61 -764 -162 -764q-96 -59 -147 -59q-68 0 -177 102h-28q-96 -39 -105 -73zM186 528l15 -14h14l43 43v16h-29zM348 500q47 -102 103 -103q90 27 102 72l-147 119h-15q-29 0 -43 -88zM817 1337q0 -29 74 -28v-17 q193 0 192 90l15 43l-45 29h-88q-87 0 -148 -117zM1038 545h15q55 152 88 616l14 15l-14 59v45h-29q-35 -520 -74 -723v-12z" />
<glyph unicode="K" horiz-adv-x="1316" d="M104 713l13 241v64l12 10l-12 14l12 191v49q199 229 242 229q330 0 329 -102v-176h25q152 203 242 203q207 -106 227 -154v-12q0 -45 -176 -367q240 -260 239 -293v-24q-78 -180 -354 -469h-39l-149 166q-160 -254 -203 -254l-332 -52zM176 682l78 -596l10 -12h15 q92 0 215 39v12l-13 405l37 25h12l342 -328q90 0 191 201l-303 293l190 379v14l-139 76q-72 -12 -178 -242l-139 -164h-13l-39 25l13 63l-13 115l13 164v51q0 37 -228 37l-39 -276l15 -66l-15 -12v-13l15 -12zM256 1309h14l115 -15h12q143 0 164 129h-12l-139 13 q-154 -57 -154 -127zM512 967l10 -13h27q76 125 76 189v151l-27 27q-66 0 -86 -354zM549 219l12 -14h37l27 114v37l-52 52h-12v-125zM840 1245l141 -76q45 0 113 88v25q0 25 -127 76q-127 -47 -127 -113zM864 725q23 -66 230 -227h12l63 75v37q-147 190 -215 191 q-90 0 -90 -76z" />
<glyph unicode="L" horiz-adv-x="1003" d="M80 141l2 27q14 113 31 113l-13 14l9 180l14 14l-12 13l2 12q64 899 132 899h3q21 0 24 51l-22 29l12 10h12l39 -14q2 49 209 53q84 -4 124 -38t38 -97l6 -170l-14 -12v-13l10 -16l-51 -293l-8 -155l-15 -13q-2 -27 39 -41t127 -18l105 20q58 -28 61 -55l-2 -76 q-18 -381 -231 -520l-170 -4q-465 22 -461 100zM160 174q31 -39 307 -51l156 -8h3q74 0 81 125l20 168l-12 14l-258 10q-29 2 -35 68q35 557 65 553l-14 14v12l14 13l-12 14l6 102l13 13l2 14l-37 27l-183 8h-1q-37 0 -44 -140l-14 -272l-39 -268l10 -78l-18 -129l8 -104z M295 1360q0 -25 139 -45h4q70 0 131 108v15l-24 24l-156 8q-20 1 -94 -110zM506 664l26 -2l78 552l4 78l-24 27l-15 -39zM539 508l12 -14l102 -7h14q96 0 134 84v27l-142 33q-114 -21 -120 -123zM786 287l11 -13h14l61 191l-12 39l-24 2l-33 -117l-2 -76l-15 -14v-12z" />
<glyph unicode="M" horiz-adv-x="1605" d="M90 117v229l12 854q0 129 220 311q418 -37 417 -135l43 -80h39q104 270 217 271q475 0 475 -109l15 -244l-15 -122l15 -488q0 -229 -176 -516q-35 -23 -328 -53l-27 123h-26q0 -45 -109 -138h-26q-229 0 -230 150l-149 -162h-56l-67 12l-80 -12h-125q-39 9 -39 109z M158 223l14 -121h12l191 -14l41 14v177l-15 434l15 14h26q90 -76 244 -584q63 -55 109 -55q66 0 163 584l13 41l14 14q0 41 27 41h12l43 -41l12 -557q12 -53 56 -53q115 0 161 53l-14 53l14 557v353q0 82 -135 81l-258 15q-53 0 -176 -475l-14 -15h-13l-163 435l-297 67 q-68 0 -68 -420zM254 1296l51 -26h205q31 0 68 121q-49 41 -121 41h-123q-25 0 -80 -97v-39zM469 455l29 -54l-15 -96l15 -106h12q53 20 53 94l-53 188h-12zM606 1159l80 -244h14q27 0 68 205q-68 182 -109 215q-53 -23 -53 -94v-82zM932 1296q53 -2 53 -26l39 12l258 -12 q96 96 96 203h-325q-94 0 -121 -150v-27zM958 252h27l12 67v41h-26zM1337 346l15 -12h26q40 68 68 854l-14 41l14 53l-14 53q-53 0 -80 -229l26 -53l-14 -164l14 -326l-26 -82l12 -12v-14z" />
<glyph unicode="N" horiz-adv-x="1302" d="M80 123v164q111 1053 164 1052q170 178 286 179q233 0 234 -138l12 -14h15l163 137q274 -18 275 -94q0 -1096 -96 -1096q-104 -287 -152 -286h-272q-102 0 -138 190h-14l-135 -190q-342 30 -342 96zM162 150h12l166 -41h12q61 0 97 546l14 56l12 14h29q70 0 205 -602 q82 -20 82 -41q178 0 178 108v82l-15 70q55 449 56 711v55q0 123 -179 123l-26 -29l12 -12v-330l-12 -12l12 -41q-18 -137 -53 -137q-41 37 -219 547l-205 40q-94 0 -125 -602l-27 -137l15 -12v-14q-41 -209 -41 -342zM352 1339q0 -23 82 -41l55 15l41 -15l97 123l-82 29 h-29q-84 0 -164 -111zM475 272l14 -14h15q53 80 53 125l-27 135h-26zM627 1257l82 -315h26v178l15 123q-34 123 -68 123q-55 -60 -55 -109zM858 1313l123 -41q82 0 125 123l-137 26q-111 -30 -111 -108zM1036 328l15 -15h14q51 0 82 985l-14 15h-15q-25 -25 -41 -316l15 -82 l-27 -122v-109q0 -158 -29 -219l15 -14v-15z" />
<glyph unicode="O" horiz-adv-x="1257" d="M80 559v23h12l-12 137v57l35 254v10l-23 35v12q55 37 162 265q120 172 344 172q393 0 563 -391l23 -230l-13 -47v-80l-10 -10l10 -12v-11q-106 -473 -194 -473q-150 -229 -299 -229l-12 12l-11 -12h-149q-313 0 -414 518h-12zM137 743q0 -362 197 -598q66 -59 264 -59 q367 59 367 369l34 288q-43 346 -114 424q-133 162 -414 162q-127 0 -264 -254l10 -69q-80 -1 -80 -263zM344 1352l184 34q293 -55 392 -184q127 -139 127 -414v-126l-13 -195q80 102 80 414v57l12 10q0 246 -161 381q-88 137 -367 137q-168 1 -254 -114zM389 524v332 q41 231 152 231h32q127 0 175 -231l-13 -10l13 -58v-276q-37 -207 -150 -207h-12q-142 0 -197 219zM436 834l13 -58v-217q22 -197 159 -197l35 35q-115 119 -115 242l-12 184v160h-22q-33 1 -58 -149zM573 639q31 -162 93 -162q18 23 34 162q-29 379 -92 379q-35 0 -35 -207 v-23l13 -45l-13 -47l13 -57h-13z" />
<glyph unicode="P" horiz-adv-x="1052" d="M94 295l10 53l13 619q39 422 119 422q49 119 172 118q489 -78 489 -172q66 -55 66 -196l30 -66q0 -207 -248 -573q-164 -96 -163 -119q0 -152 -197 -348l-86 -10q-182 18 -182 86zM160 195q0 -109 139 -109h12q74 0 74 338q238 53 317 119q129 141 129 391 q-68 260 -141 260q0 47 -411 76q-86 0 -109 -336l10 -43l-10 -35l10 -43l-20 -477l10 -33l-10 -63v-45zM266 1335q510 -58 510 -153q98 -113 98 -260v-11h11q33 0 45 152q0 291 -262 346l-162 35l-10 -12l-56 12h-43q-57 0 -131 -98v-11zM397 639q27 389 56 434h32 q172 0 172 -217v-20q-20 -217 -194 -218h-43zM430 217h33l43 131l-10 33h-43zM473 803h23q18 76 30 76l-10 12v106l-20 23l-23 -152v-65zM506 694h20l45 43v33h-10q-55 -33 -55 -76z" />
<glyph unicode="Q" horiz-adv-x="1355" d="M80 641l10 12v11l-10 32h10l-10 11v32l31 271l-21 65q53 0 139 217q113 205 369 205h55q264 0 465 -280q45 -45 66 -195h-10l10 -12v-54l-10 -12l10 -33q0 -215 -33 -356q152 -104 152 -152q-131 -360 -228 -389q-162 96 -194 97q-123 -96 -195 -97l-12 11l-96 -23 q-289 0 -369 207q-90 123 -129 432zM143 684q0 -362 207 -573q51 -53 248 -54q121 0 240 109q0 25 53 33q94 -96 141 -109q33 0 109 172q-4 37 -197 121v10q55 74 55 359l-10 41h10l-20 45l10 10q-35 356 -325 444l-205 11q-115 0 -250 -250l10 -66q-76 0 -76 -235v-68z M350 1335l162 33q299 -53 401 -174q141 -158 142 -432v-227q61 0 75 389q0 260 -186 411q-53 96 -346 109q-158 0 -248 -109zM393 502v336q43 227 152 227h33q129 0 172 -227v-13l-11 -10l23 -98l-12 -10v-11l12 -32h-12l12 -11q0 -381 -164 -381q-150 1 -205 230zM446 707 q0 -367 142 -367q53 0 53 43q-96 102 -96 139q-23 96 -23 240v182l-20 23q-49 0 -56 -215v-45zM578 684q12 -225 96 -225l35 162l-23 108l10 33l-10 31h10q-47 195 -75 194h-11q-33 0 -32 -205l10 -75l-10 -11v-12zM1042 393q61 -53 142 -53l33 43v43q0 33 -99 53h-33z" />
<glyph unicode="R" horiz-adv-x="1183" d="M72 270l73 987q53 180 174 248h332q240 0 408 -248l51 -135v-73q0 -115 -135 -347l-14 -61v-39l73 -233q-111 -250 -295 -310l-110 -24l-64 98h-10q-133 -160 -164 -160q-307 0 -307 62v174zM133 307l12 -125v-96q0 -51 187 -51q37 0 37 135h12l-12 12q0 199 135 199h24 q46 -46 123 -258h15q104 0 159 74l-86 295v24q160 213 160 410q-49 307 -211 307q0 22 -184 24h-199l-59 15q-35 0 -76 -373l12 -10v-15l-12 -12l12 -74l-49 -444l12 -12v-13zM256 1331l86 -10h27l49 10l86 -22l37 12q291 0 370 -199q49 -143 50 -223v-47h24l64 233 q0 162 -224 322l-196 37h-238q-74 0 -135 -86v-27zM406 592v135l12 111l-12 14v10l12 137v62q15 49 110 49q150 -68 150 -221q-82 -334 -236 -334zM442 109q86 61 86 137q0 46 -36 73q-49 -12 -50 -73v-137zM467 641l12 -12q61 0 99 147v172q0 76 -74 76q-21 0 -37 -383z M801 469q61 -211 86 -211q74 55 74 135q-57 186 -87 187q-73 -53 -73 -111z" />
<glyph unicode="S" horiz-adv-x="833" d="M59 37v24q0 226 111 340l127 99l-6 18q-158 236 -176 295q-23 72 -23 145q0 230 225 465l89 39l43 15q106 21 174 20q101 0 114 -43q1 -21 1 -42q0 -228 -128 -370l-53 -51l188 -336q9 -26 9 -58q0 -169 -224 -511l-153 -82q-70 -23 -137 -23q-96 0 -179 48zM121 57 q84 -16 148 -16q32 0 59 4q258 84 280 361l-18 96l-27 84l8 12l-182 281l-12 43q-9 28 -9 52q0 47 33 81l31 10l107 20l8 152l-10 31l-138 2l-57 -31l-66 -10q-112 -35 -112 -261q0 -51 6 -112l14 -43l174 -295l13 -41q1 -16 1 -30q0 -139 -106 -173l-112 -2 q-35 -140 -36 -193q0 -15 3 -22zM209 346l6 -20l55 6l11 4l28 53l-6 21l-37 2q-63 -48 -57 -66zM289 1300q2 -8 25 -8q42 0 139 27q22 -9 49 -9q30 0 63 11q41 35 60 98l-4 11l-156 -5q-177 -77 -177 -118q0 -4 1 -7zM430 928l8 -23q76 -82 193 -321l22 -107l31 10l-4 123 l-41 123q-162 263 -203 263q-2 0 -4 -1zM618 1190l11 4q39 12 39 142v18l-11 -2q-39 -12 -39 -162z" />
<glyph unicode="T" horiz-adv-x="1159" d="M63 1190q113 301 212 301h6l593 22l119 -12q63 -6 82 -262q-102 -244 -178 -305l43 -526q-86 -408 -206 -408h-7l-174 2l-92 8q-45 4 -113 641q4 43 4 79q0 163 -84 198l-137 -15q-65 7 -68 277zM143 1167q-1 -22 0 -40q0 -132 37 -138l187 -4q45 -4 69 -528 q61 -395 109 -402q205 4 207 49l-88 893l190 35l14 12l2 15q-6 172 -63 178q-99 9 -205 9q-214 0 -455 -38zM209 1296l12 -2q469 8 649 45l35 91l-39 4q-80 2 -150 2q-492 0 -503 -113zM735 924l70 -678h12l55 141q-27 551 -79 557l-27 2zM920 1294l14 -135l12 -2h2 q29 0 47 88l-14 123l-14 2h-2q-24 0 -45 -76z" />
<glyph unicode="U" horiz-adv-x="1286" d="M78 602l26 66l-14 65v39q0 139 53 381l-12 14v13q0 182 211 356l51 12q276 0 277 -92q-23 -408 -80 -788l14 -13v-80h27l92 723l156 197h79l78 -12l15 12h14q111 -6 156 -51q-10 -119 -27 -119l27 -51l-66 -488l-12 -14q0 -61 -39 -131l12 -12q0 -242 -315 -527 q-141 -78 -250 -77q-313 0 -408 262zM158 614q0 -375 196 -485q113 -27 262 -27q172 0 289 422q80 178 80 656l-197 26l-26 -92l12 -12v-12l-104 -631q0 -37 -107 -107h-51q-96 0 -119 199l66 655q-12 53 -78 54h-133q-47 0 -78 -367l-12 -41l12 -66l-12 -145v-27zM262 1352 l27 -27h143q119 18 119 119v12l-66 12h-92q-76 0 -131 -104v-12zM471 524q25 -104 53 -104h15l24 24v15l-39 170l66 696h-39q-80 -551 -80 -801zM813 1298h14l197 -24l92 131l-184 39q-119 -76 -119 -146zM932 352h26q68 68 170 723l15 170v53h-27l-39 -104v-41 q0 -295 -145 -786v-15z" />
<glyph unicode="V" horiz-adv-x="1204" d="M106 1348q100 168 150 176l27 4q84 17 144 17q131 0 146 -79l-12 -2l14 -10l48 -242l26 -61q170 207 318 274q242 -100 264 -133q14 -70 -367 -694q16 -70 -262 -412q-86 -94 -205 -172q-166 70 -237 125q-72 800 -72 1067q-1 138 18 142zM150 1065l16 -10l2 -13 q6 -322 72 -835q6 -33 137 -92q230 292 559 934l-6 24l-152 90q-78 -16 -270 -438l-33 -33l-12 -2q-25 -6 -35 33l-27 471q-12 54 -98 54q-20 0 -45 -3l-88 -16q-22 -5 -22 -54q0 -39 14 -108zM176 1323q10 -25 56 -25q23 0 55 7l39 8q70 16 131 143q-4 18 -37 18 q-14 0 -33 -4l-2 13q-181 -34 -209 -160zM465 1141l16 -11l13 -262l12 2q66 80 66 176q0 30 -7 62l-28 74l-2 145l-21 37l-25 -6q-26 -5 -25 -152q0 -30 1 -65zM702 485l3 -14l12 2q49 43 59 107l-12 -2zM838 1202q93 -61 151 -61q10 0 19 2l14 2l111 115q-76 76 -141 76 q-11 0 -21 -3q-127 -84 -133 -131zM961 922l2 -15l30 47l-12 -2z" />
<glyph unicode="W" horiz-adv-x="1736" d="M119 899q2 492 94 500q61 166 168 174l131 26q4 1 9 1q44 0 87 -58l35 -340l12 2q141 227 297 346q297 -82 303 -141l-20 -305l27 2q207 166 260 172l12 2q221 -102 242 -162q-567 -874 -660 -952l-207 -178l-53 -6l-233 108l-2 14l12 146l-27 -2q-100 -129 -157 -135 q-297 47 -304 116l-24 643l12 2l-14 13v12zM203 578l22 -91l-6 -213q10 -80 168 -88l27 2q25 4 278 504l29 4l27 -24l2 -13q-20 -430 -56 -507q6 -59 168 -91q25 2 256 342q29 4 221 314q29 2 88 168q-59 98 -131 133l-14 -2l-283 -346h-12q-12 -2 -20.5 7t-10.5 30l25 423 l-2 27q-6 47 -195 86q-47 -41 -243 -473l-37 -31l-43 35l-8 80l-17 422l-12 10l-184 -18q-45 -4 -46 -341q1 -144 9 -349zM256 1364l2 -14l68 -7q145 16 166 175l-91 -9q-82 -10 -145 -145zM518 1403l4 -451l15 -12l14 2l37 164l-41 260l-2 39zM606 381l12 2l35 41l-2 27z M829 1327v-12q2 -35 138 -39l65 4q66 6 133 121q-76 61 -165 60q-12 0 -25 -1q-97 -51 -146 -133zM1047 872l24 5q86 10 92 403h-24q-84 -11 -92 -408zM1069 242v-15l14 2q102 78 244 328v12h-12zM1366 1104q92 -139 121 -148l26 5l156 147l-127 92l-65 -6zM1462 797l2 -27 l60 84h-15z" />
<glyph unicode="X" horiz-adv-x="1116" d="M68 260q0 156 182 496l-182 276q31 229 170 422l59 59h37q59 -39 229 -276q74 33 217 242q76 72 97 71q33 0 170 -192l-193 -459q0 -45 168 -276v-25l-72 -291l-170 -227h-24q-164 182 -205 301h-25q-96 -113 -217 -350h-59q-182 200 -182 229zM154 272q0 -66 120 -157 q51 45 230 362h22q31 0 170 -241l72 -72q133 158 133 217l-192 301l-25 59l193 365q-63 131 -109 131q-41 0 -96 -180q-115 -170 -133 -170h-13q-96 96 -217 303l-59 10l-96 -156l192 -315v-84l-192 -348v-25zM297 1284l195 -276q25 0 34 84h13q-37 96 -181 303h-36z M756 729l145 -252h37l12 62v96q-82 135 -133 168h-37zM817 1296q0 -45 84 -106l74 156q0 59 -98 108z" />
<glyph unicode="Y" horiz-adv-x="1181" d="M70 1225q188 209 426 305h12l129 -246l12 2q115 158 281 195l12 2q233 -102 238 -140q-340 -502 -330 -628q-43 -539 -158 -545l-117 -145q-322 41 -323 94q-1 20 -1 45q0 190 62 594zM160 1217v-25l217 -430l-66 -590q3 -64 189 -64q9 0 18 1q93 414 93 554q0 13 -1 23 q264 366 326 504q-63 103 -174 103q-6 0 -12 -1l-234 -319h-12l-172 332l-41 22q-113 -57 -131 -110zM389 1370l2 -24q82 -229 131 -261q57 34 58 100q0 107 -117 240h-12q-58 -28 -62 -55zM627 205l12 2q115 6 133 514h-24q-82 -6 -121 -516zM823 1360l2 -25l156 -67 q92 35 109 84l-168 65q-51 -10 -76 -24.5t-23 -32.5z" />
<glyph unicode="Z" horiz-adv-x="1064" d="M41 186q-2 24 -2 49q0 305 323 631l13 15l-2 12q-2 39 -213 59l-2 27q37 406 135 416q104 125 143 131l252 -33l103 20l14 3q115 -84 215 -86l16 -37q2 -24 2 -47q0 -225 -184 -441l-174 -248q0 -18 160 -51l78 19l14 -13l2 -12q-25 -324 -215 -565l-37 -17q-11 -1 -25 0 q-150 0 -610 91zM106 178q328 -87 492 -87q21 0 39 1q47 59 47 186v15q-2 45 -295 80v12q342 436 420 596l-2 184l-12 -2l-490 76q-63 -23 -63 -166q0 -34 4 -74q156 -12 224.5 -27.5t68.5 -43.5q0 -70 -127 -189q-297 -338 -291 -415zM324 1331l2 -24q188 -47 487 -64 q113 59 107 139q-172 49 -476 66q-46 -6 -120 -117zM504 434l184 -37q125 63 119 154l-160 12q-65 -6 -143 -129zM754 231l2 -12l12 2q63 73 63 174q0 13 -2 27l-12 -2q-64 -81 -64 -167q0 -11 1 -22zM891 1118v-12l24 2l41 147l-14 13l-27 -2z" />
<glyph unicode="a" horiz-adv-x="1257" d="M39 162l287 1155q195 199 260 199q346 -14 409 -113q0 -88 123 -471l-10 -49q14 -2 86 -363l12 -49q-94 -346 -272 -346q-121 -51 -174 -51q-20 0 -76 186h-98q-211 -260 -248 -260q-180 76 -299 162zM113 236q0 -113 198 -162q29 0 88 237q49 25 138 25h49 q186 0 186 -162l37 -24q174 27 174 61q-25 285 -174 758q-68 272 -113 272h-37l-247 39q-88 0 -199 -635q-100 -319 -100 -409zM424 174h12q61 37 62 86h-35q-29 0 -39 -86zM436 498q70 446 123 446h14q43 -14 111 -409v-37l-25 -27h-196zM449 1341l137 -36l37 12l100 -27 q88 0 135 125q0 23 -285 37q-118 -70 -124 -111zM512 621l12 -13h13q39 27 61 101l-25 86h-24zM559 547l14 -12v-15l37 15v36h-24zM809 1167q33 -197 149 -485l25 -123h-12l86 -260q45 0 88 147q-84 539 -211 895h-25q-100 -55 -100 -149v-25z" />
<glyph unicode="b" horiz-adv-x="1120" d="M78 84q-2 10 -2 31q0 165 110 1102q-1 9 -1 17q0 110 208 275l31 4q13 2 30 2q118 0 408 -69q82 -63 101 -184l16 -103l-66 -260q115 -150 125 -199q5 -35 6 -71q0 -244 -237 -529q-92 -74 -207 -94h-10q-475 25 -508 57zM139 94h11l423 -39q219 35 279 293l10 64l-16 39 l4 43q-66 164 -102 192l-3 21q90 141 103 286l-8 51q-29 195 -275 220q-70 8 -140 8q-86 0 -171 -12q-53 -213 -104 -967q4 -25 4 -57q-1 -58 -15 -142zM295 1337q2 -17 91 -17q36 0 87 3l195 -33q184 -76 200 -168q4 -27 11.5 -38t17.5 -9q18 31 18 112q0 35 -4 79 q-68 147 -175 147q-12 0 -25 -2q-152 40 -253 40q-30 0 -55 -3q-34 -11 -108 -111zM334 322q25 307 67 313l21 2q15 1 28 1q171 0 191 -144q-18 -178 -117 -195h-42q-145 0 -148 23zM412 426l12 -8l8 2q72 94 66 135l-6 31l-31 6q-49 -9 -49 -166zM414 834q0 242 45 247 l28 4q150 -14 162 -100q0 -178 -94 -192q-38 -3 -65 -4q-70 0 -74 24zM453 360l22 -18l23 4q55 10 73 64l-6 30l-22 19l-21 -4q-57 -52 -69 -95zM479 948l4 -30l11 2q48 40 48 85q0 7 -1 15l-13 8l-20 -2q-30 -18 -31 -58q0 -10 2 -20zM504 848l2 -10l20 4v-11q61 9 62 93 q-55 -10 -84 -76zM819 696q76 -166 92 -256l-10 -12l2 -10l15 -29q69 110 68 214q0 23 -3 46l-6 41q-9 49 -74 135l-31 -6q-54 -65 -54 -110q0 -7 1 -13z" />
<glyph unicode="c" horiz-adv-x="1138" d="M94 733v33q0 512 336 707q66 31 180 30q154 -18 297 -127q94 -152 94 -188v-33q-43 -221 -127 -221l-190 -41q-82 135 -104 135h-11q-63 0 -63 -51q0 -346 63 -434l74 -84h10q53 229 138 307q274 -23 274 -76q0 -483 -432 -663h-23q-354 0 -442 315q-74 207 -74 391z M147 817q20 -653 306 -717l157 -10h33q168 0 285 379v43q-23 23 -180 31q-96 -250 -138 -252h-73q-168 162 -168 399v33q0 369 211 369q35 0 147 -138q137 18 137 54v12q-63 262 -274 262l-64 10q-342 0 -379 -432v-43zM326 1292h12q141 53 211 54q154 -23 295 -127l53 -127 h31l20 106q-92 244 -295 244l-96 8q-157 0 -231 -158zM422 702q37 -317 158 -360l41 33v20q-102 94 -158 275q-6 117 -33 116zM760 596l74 -10h84q53 25 53 84l-64 20h-96q-51 -27 -51 -84v-10z" />
<glyph unicode="d" horiz-adv-x="1234" d="M98 66l49 1290q156 121 252 160q121 -6 240 -46l35 15q127 0 297 -111q211 -166 227 -497q-39 -393 -164 -549q-139 -176 -282 -217q-68 -84 -254 -93q-255 13 -400 48zM162 408l10 -11l-8 -250q3 -56 198 -55h41q0 -18 66 -17q17 0 37 1q219 12 387 401l49 354 q-79 385 -173 386h-3q-105 108 -331 107q-24 0 -48 -1l-125 16q-70 -3 -70 -397q0 -17 1 -35zM315 1386l93 -28l55 12q9 0 18 1q122 0 269 -77q186 -131 192 -250h-10q39 -51 65 -221q-55 -487 -120 -491l-64 -107h12q298 203 298 560q0 21 -1 42q19 0 20 72q0 15 -1 33 q-76 352 -163 352h-1q-87 125 -210 125h-11q0 18 -287 41q-78 -10 -117 -25.5t-37 -38.5zM381 328q53 416 53 661q0 48 -2 88v10q10 35 66 37q207 -80 217 -270q2 -43 2 -82q0 -379 -191 -459q0 -25 -75 -26l-35 -2q-27 0 -35 43zM463 479l12 -33q99 6 99 465q0 39 -1 82 l-2 33l-24 23q-53 -4 -62 -365q-16 0 -22 -205zM512 381h12q45 18 64 59v13q-39 -2 -58.5 -19.5t-17.5 -52.5zM631 748l6 -148h12l2 170l-2 35h-10z" />
<glyph unicode="e" horiz-adv-x="987" d="M109 825l12 101l-12 325q55 246 100 246l45 12h88q135 0 135 23l55 -12h213q90 0 91 -156v-68l-56 -225q88 0 88 -178v-88l-43 -180q88 0 88 -113v-145q-74 -348 -178 -349h-123l-100 13l-113 -13h-200q-57 23 -58 336q-14 0 -20 123h8l-8 12v213l8 13zM176 938l10 -293 v-221q41 -338 68 -338h459q14 0 32 45l-10 125v55l-10 11v12l-193 -12h-43q-45 0 -45 190v35q0 27 45 33q236 0 236 32v113q0 57 -35 68h-10l-225 -13l-23 68v133q0 46 258 68l-10 79v11l10 45q0 55 -78 55q-436 0 -436 -65v-35l10 -158zM186 1274h45l459 33q45 90 45 135 l-10 10h-12l-482 -10q-45 -88 -45 -146v-22zM532 848h13l10 -10h12l33 20l45 -10q123 6 123 113v10l-10 10v12q-178 -31 -178 -55zM555 389l12 -12h13q223 0 223 145l-12 13q-211 0 -211 -101q-25 0 -25 -45zM745 1217h13l10 57h-23v-57zM780 748q27 0 33 77l-10 33h-12 l-11 -53v-57zM791 276l12 -67q25 0 55 168l-10 47h-23z" />
<glyph unicode="f" horiz-adv-x="927" d="M55 1266q129 240 267 245l198 23l266 12l35 -33l4 -77l15 -43q1 -22 1 -42q0 -139 -57 -206l2 -33h4q50 0 68 -86l4 -111q1 -12 1 -24q0 -165 -115 -338q-152 -51 -152 -74v-22l18 -144q-59 -283 -131 -284h-10v10l-10 -12h-12l-11 10q-45 -27 -123 -29l-88 -4h-1 q-63 0 -93 320q2 100 19 100l-66 397l8 68l-4 65l-12 45l8 45l-10 11v10l8 12zM125 1200l20 -153h-12l12 -33l50 -522l-13 -13l2 -10l27 -86l-6 -102l43 -209l166 18l32 2l33 25l-53 397q109 72 274 82l23 45q-21 207 -78 207h-2l-199 -43h-2q-62 0 -71 176l-2 43 q-4 49 272 82q0 178 14 178q-8 39 -70 39h-10l-75 -14l-47 10l-318 -72zM184 1337l58 -8l299 49v-12l10 12h10l68 -8q35 4 86 94l-35 21l-234 -10q-182 -8 -249 -113l-13 -12v-13zM465 872l78 5q104 4 155.5 42.5t46.5 112.5l-10 10l-145 -6q-94 -6 -125 -164zM496 473 l32 -209l21 23l-8 178l-25 20l-8 -12h-12zM713 1286l2 -65h10q48 53 48 148q0 11 -1 22l-10 10l-10 -2q-29 0 -39 -113zM756 831l2 -45l24 -18h11l8 78l-6 100q-29 -2 -39 -115z" />
<glyph unicode="g" horiz-adv-x="1204" d="M78 727q0 154 164 492q203 305 456 305h23q109 -4 108 -23l13 12h10q141 0 141 -131l-12 -43l12 -88q-150 -229 -217 -229h-98q-186 -18 -186 -217l-11 -10v-13h23q0 53 174 197q446 -80 446 -131l11 -10q0 -156 -54 -328l11 -33q-88 -369 -293 -522q0 -23 -101 -33 q-242 37 -391 174q-219 254 -219 479zM133 662l21 -99l-11 -8q0 -285 316 -514l219 -64h33q117 0 184 414h10l-10 33l35 270l-307 78h-11q-88 0 -88 -197q186 -55 187 -98q-58 -197 -99 -196q-184 68 -239 217l-33 133q0 162 86 305v10h-20v23l20 20l45 -10q59 100 86 108 q55 -2 55 -22l11 12h131l22 23v151l-45 54l-53 -11h-98q-293 0 -437 -456l11 -13v-10l-21 -98l10 -33l-10 -10v-12zM393 641q59 -285 164 -285l10 -10h23q25 6 45 55q0 45 -176 154q-31 182 -53 182h-13v-96zM406 1305l151 45l98 -11h76q70 0 131 86v11q0 33 -121 32h-86 q-98 0 -249 -141v-22zM612 825l197 -65l86 12l35 -35h31q51 25 75 78v23q0 20 -63 20l-275 66q-68 -1 -86 -99zM819 1274q8 -131 33 -131q78 106 78 141v131q-111 -83 -111 -141zM895 139h10q82 117 131 318l-10 10v10l55 250l-12 33h-10q-49 -12 -98 -217l12 -33h-12 l12 -12l-78 -293l10 -10v-13z" />
<glyph unicode="h" horiz-adv-x="1454" d="M78 217l6 137l20 39l52 494l22 51v98q70 449 232 477q15 37 88 37q30 0 69 -6l37 -20l17 12l14 -2q149 -23 149 -172q0 -28 -6 -59l-12 -166l-29 -93l11 -16l40 -6q21 78 40 78h1l2 180q212 203 287 203h8l205 -33q74 -12 74 -120q0 -31 -6 -70l-39 -510l-35 -119 l-29 -176q-35 -211 -233 -422l-209 4q-119 20 -137 92l16 109q18 116 18 179q0 82 -30 87l-72 -17l10 -16l-20 -121q-102 -236 -209 -272l-176 26q-94 14 -138 43t-38 70zM156 274q-2 -11 -2 -20q0 -64 71 -74l135 -22l48 35l57 364q5 31 91 32q64 0 175 -18l55 -8 q45 -9 45 -138q0 -103 -28 -282l65 -24l109 -19q39 2 55 90l58 449l26 80l2 96l58 270q2 13 2 25q0 72 -82 86l-109 18q-10 2 -20 2q-64 0 -74 -71l-23 -135l-16 -193l-35 -49l-39 18l-221 23l-45 61l29 179l-6 139l14 -2q1 7 1 14q0 83 -175 111q-84 -8 -113 -176l-88 -723 l4 -72zM375 1380l12 -2l172 -55l96 82l2 14q6 41 -129 64q-141 -15 -153 -103zM496 317l22 -30l41 75l14 97l-20 30q-14 2 -23.5 -7t-11.5 -29l10 -15l-22 -65zM596 1024l35 -45l45 117l35 217l-23 30l-65 -143zM655 877l95 -17l32 25l4 26l-22 31l-41 6l-64 -45zM973 1298 l51 -34q66 -11 115 -11q132 0 145 80l2 13l-22 32l-177 27q-102 -35 -114 -107zM1128 258l13 -2h2q46 0 104 317l15 -2l-13 17l11 65l16 13l-12 16l6 27l14 12l-10 14l18 39l11 152l4 12l14 14q-8 26 -8 71q0 59 14 151l12 65l-22 33l-57 -103l-17 -178q-37 -203 -59 -198 l12 -17l-31 -190l-10 -234z" />
<glyph unicode="i" horiz-adv-x="919" d="M88 109q84 1278 219 1277q213 160 260 160q291 -66 291 -174q0 -193 -143 -858q0 -387 -262 -477l-29 -31h-45q-291 78 -291 103zM190 137l160 -43h15q117 442 190 1104q-35 72 -147 72h-72q-45 -254 -100 -391l14 -15v-14q-59 -393 -60 -582v-131zM393 1358l146 -58 l16 15h12l17 -15q143 70 143 101q-70 57 -172 57q-162 -71 -162 -100zM481 152h15q109 0 131 378q145 555 145 740v30h-29q-109 -12 -188 -638l12 -17v-14z" />
<glyph unicode="j" horiz-adv-x="1294" d="M61 401q113 315 359 316q39 -12 112 -160l17 -12h43q47 0 55 184l-12 16v15q55 614 156 614q0 43 102 115q328 0 328 -57v-156l-15 -16l15 -15q-43 -635 -172 -930q-131 -233 -414 -315h-129q-304 0 -445 401zM162 358q90 -287 330 -286l57 -15q182 0 328 244 q131 227 131 786l12 58q-18 72 -199 72l-71 -43l14 -44q-61 -743 -160 -743q-90 -57 -141 -57q-66 0 -172 100h-29q-90 -37 -100 -72zM205 514l12 -12h14l43 43v12h-26zM362 487q45 -100 101 -100q86 27 98 72l-141 114h-14q-29 0 -44 -86zM821 1303q0 -27 72 -27v-16 q184 0 184 88l15 41l-43 28h-86q-83 1 -142 -114zM1034 530h15q53 141 86 600l16 15l-16 57v43h-27q-29 -473 -74 -700v-15z" />
<glyph unicode="k" d="M80 729l12 248v63l12 13l-12 14l12 193v53q200 233 246 233q338 0 338 -104v-182h27q154 209 246 208q219 -115 233 -155v-15q0 -39 -182 -374q246 -268 245 -299v-27q-78 -180 -362 -477h-39l-156 168q-162 -260 -206 -260l-336 -52zM143 690l78 -608l12 -14h15 q104 0 221 38v15l-14 414l39 26h12l350 -338q90 0 195 207l-312 299l197 389v12l-143 78q-72 -12 -183 -245l-141 -168h-14l-39 24l12 66l-12 116l12 168v54q0 37 -231 37l-39 -283l12 -66l-12 -14v-12l12 -15zM233 1337h15l117 -12h12q147 0 170 129h-15l-143 14 q-156 -57 -156 -131zM494 987l12 -10h26q78 125 78 192v156l-24 27q-69 0 -92 -365zM532 223l15 -12h39l24 117v39l-53 51h-10v-129zM831 1274l142 -78q49 0 117 90v27q0 23 -129 78q-130 -47 -130 -117zM856 741q20 -66 234 -231h14l63 78v37q-152 195 -221 194 q-90 0 -90 -78z" />
<glyph unicode="l" horiz-adv-x="1011" d="M72 141v27q16 115 30 115l-10 14l8 178l13 14l-11 13v12q64 901 133 901h3q23 0 26 51l-24 27l14 12h12l37 -14q2 49 211 53q170 -10 164 -137l4 -170l-14 -10v-15l12 -14l-53 -295l-9 -153l-14 -15q-2 -27 39 -40t127 -17l104 20q61 -29 64 -55l-4 -78 q-18 -383 -234 -520l-168 -4q-464 22 -460 100zM152 176q31 -41 307 -53l155 -8h4q72 0 78 125l23 168l-12 14l-261 12q-29 0 -34 66q35 559 65 555l-12 12l2 14l12 13l-12 12l4 104l14 13v12l-36 27l-181 10q-41 0 -47 -142l-12 -270l-39 -270l8 -78l-18 -129l10 -104z M285 1362q0 -27 141 -47h4q69 0 131 110v15l-24 24l-156 9q-22 0 -96 -111zM498 664h26l78 553l4 77l-24 27l-15 -39zM528 508l15 -14l102 -7h13q96 0 135 84v27l-142 33q-117 -23 -123 -123zM778 287l10 -13h15l61 191l-10 39l-27 2l-32 -115l-2 -78l-15 -12v-14z" />
<glyph unicode="m" horiz-adv-x="1673" d="M86 129l10 233l60 869q6 133 235 305q426 -59 420 -160l39 -84l41 -2q117 264 228 265q3 0 5 -1q242 -12 362 -45.5t116 -89.5l2 -250l-21 -122l-12 -496q-12 -236 -205 -516q-43 -20 -336 -37l-18 125l-29 2q-2 -43 -119 -131l-24 2q-228 12 -228 151v11l-161 -158 l-56 2l-65 18l-84 -10l-125 6q-36 8 -36 89q0 11 1 24zM160 236l8 -123l12 -2l195 -25l41 12l8 181l8 440l14 12h29q84 -78 217 -606q68 -61 109 -62q65 0 194 586l17 39l14 14q4 41 31 41l12 -2l41 -43l-16 -565q12 -53 53 -57q13 -1 25 -1q97 0 143 46l-12 55l43 565 l20 359q2 41 -32 64.5t-103 25.5l-260 27q-27 2 -78 -116t-127 -358l-14 -14l-15 2l-141 449l-301 86q-68 4 -90 -424zM311 1321l54 -33l206 -8h2q30 0 74 119q-53 45 -123 47l-123 6q-29 0 -88 -90zM489 453l25 -56l-18 -96l8 -111l12 -2q57 23 59 95l-45 196h-12z M664 1163l69 -254h15q14 -2 32.5 48.5t44.5 154.5q-61 194 -98 227q-57 -23 -59 -94zM975 221h26l19 68l2 41l-29 2zM1001 1284q53 -6 54 -31l41 13l262 -29q100 92 106 203l-329 16h-8q-90 0 -126 -145v-27zM1364 299l14 -14l29 -2q43 63 111 864l-11 43l17 53l-13 57 q-1 0 -1 1q-51 0 -91 -232l25 -55l-23 -166l-4 -332l-31 -82l13 -12v-14z" />
<glyph unicode="n" horiz-adv-x="1316" d="M90 123v164q111 1051 164 1050q164 176 287 176q231 0 231 -137l14 -12h13l164 135q274 -18 274 -94q0 -1092 -96 -1092q-104 -287 -152 -286h-270q-104 0 -137 190h-15l-137 -190q-340 30 -340 96zM172 150h14l164 -41h12q63 0 97 544l12 56l14 14h27q72 0 207 -600 q80 -20 80 -41q178 0 178 108v82l-14 68q55 446 55 711v53q0 123 -176 123l-29 -27l14 -14v-328l-14 -12l14 -41q-18 -137 -55 -137q-35 29 -217 546l-205 39q-92 0 -123 -600l-26 -135l12 -14v-12q-41 -209 -41 -342zM362 1337q0 -23 82 -41l56 15l41 -15l96 121l-82 29 h-29q-86 0 -164 -109zM485 272l15 -14h12q55 83 55 123l-26 137h-29zM637 1253l82 -313h26v178l15 123q-35 123 -70 123q-53 -56 -53 -111zM868 1311l121 -43q80 0 123 123l-135 26q-109 -30 -109 -106zM1047 328l12 -15h14q49 0 80 983l-12 15h-15q-23 -25 -41 -316l15 -82 l-27 -122v-109q0 -164 -26 -219l12 -14v-15z" />
<glyph unicode="o" horiz-adv-x="1280" d="M102 561v25h13l-13 139v57l35 254v13l-22 34v13q55 37 161 266q119 174 347 174q397 0 569 -395l22 -232l-12 -47v-80l-10 -12l10 -10v-12q-106 -475 -196 -476q-154 -231 -301 -231l-13 12l-10 -12h-152q-315 0 -415 520h-13zM160 748q0 -362 196 -603q66 -59 267 -59 q371 59 370 373l35 289q-43 348 -117 428q-131 162 -415 161q-129 0 -267 -254l13 -69q-82 0 -82 -266zM369 1362l186 35q291 -55 391 -187q129 -137 129 -415v-127l-10 -199q80 100 80 418v57l10 12q0 246 -162 381q-90 139 -370 140q-170 0 -254 -115zM414 526v336 q41 233 151 234h35q129 0 174 -234l-12 -10l12 -57v-279q-37 -209 -151 -209h-11q-143 0 -198 219zM461 840l12 -58v-221q23 -197 162 -196l35 34q-115 121 -115 244l-12 186v162h-25q-28 1 -57 -151zM600 643q31 -162 92 -162q18 23 35 162q-28 381 -92 381q-35 0 -35 -207 v-22l12 -47l-12 -48l12 -57h-12z" />
<glyph unicode="p" horiz-adv-x="1052" d="M80 299l10 53l10 629q43 430 121 430q49 123 176 123q498 -76 498 -178q66 -55 66 -199l32 -65q0 -209 -252 -584q-166 -94 -166 -123q0 -154 -198 -352l-88 -10q-188 23 -189 88zM145 199q0 -111 144 -111h10q78 0 78 342q236 51 319 121q133 145 133 397 q-72 264 -145 264q0 49 -418 78q-88 0 -110 -342l12 -45l-12 -33l12 -43l-23 -485l11 -33l-11 -67v-43zM256 1356q518 -57 518 -154q98 -117 98 -264v-12h11q33 0 45 153q0 297 -264 355l-166 32l-11 -10l-55 10h-45q-55 0 -131 -100v-10zM387 649q27 397 55 443h33 q176 0 176 -222v-20q-22 -221 -196 -221h-45zM422 219h33l43 133l-11 33h-45zM465 815h22q18 78 33 78l-10 10v111l-23 22l-22 -153v-68zM498 707h22l43 43v32h-10q-55 -32 -55 -75z" />
<glyph unicode="q" horiz-adv-x="1384" d="M68 655l12 11v12l-12 33h12l-12 12v33l32 276l-20 66q51 0 141 221q117 211 377 211h57q270 0 475 -289q43 -43 66 -199h-10l10 -10v-55l-10 -12l10 -33q0 -231 -33 -365q156 -109 156 -155q-135 -369 -234 -398q-168 98 -198 99q-129 -98 -199 -99l-12 11l-98 -23 q-293 0 -377 211q-90 123 -133 442zM133 698q0 -373 211 -585q55 -55 254 -56q127 0 244 111q0 25 55 35q92 -98 143 -113q31 0 111 178q-2 35 -199 121v12q55 74 56 365l-11 45h11l-23 43l12 12q-33 360 -331 453l-211 10q-117 0 -254 -254l12 -65q-80 0 -80 -244v-68z M344 1364l168 33q301 -51 408 -176q145 -162 145 -445v-231q61 0 76 397q0 264 -189 422q-57 98 -354 111q-164 0 -254 -111zM389 512v342q43 233 156 233h33q131 0 176 -233v-10l-11 -13l23 -98l-12 -10v-12l12 -33h-12l12 -12q0 -387 -168 -387q-154 0 -209 233zM444 723 q0 -377 144 -377q55 0 55 43q-98 106 -98 143q-23 100 -23 244v189l-22 22q-49 0 -56 -221v-43zM578 698q12 -231 98 -231l35 166l-23 110l10 33l-10 35h10q-45 199 -75 199h-13q-33 0 -32 -211l10 -76l-10 -12v-13zM1053 401q66 -55 143 -55l35 43v45q0 35 -101 55h-32z " />
<glyph unicode="r" horiz-adv-x="1212" d="M86 272l76 996q51 180 174 248h336q242 0 409 -248l49 -138v-73q0 -119 -135 -348l-14 -64v-37l76 -235q-113 -256 -299 -314l-113 -22l-61 98h-13q-131 -162 -161 -162q-311 0 -312 64v174zM147 309l15 -125v-98q0 -49 186 -49q37 0 37 135h12l-12 12q0 201 137 201h25 q49 -49 125 -262h10q109 0 164 74l-88 299v24q162 215 162 412q-49 309 -211 309q0 25 -187 27h-200l-62 12q-34 0 -74 -375l13 -10v-12l-13 -15l13 -73l-52 -449l15 -12v-12zM272 1341l86 -12h27l49 12l88 -22l37 10q293 0 373 -199q49 -143 49 -225v-49h27l61 238 q0 162 -223 321l-201 39h-235q-74 0 -138 -88v-25zM422 596v135l12 115l-12 10v12l12 138v63q18 49 113 49q150 -68 149 -223q-84 -336 -237 -336zM459 111q88 63 88 137q0 43 -37 74q-51 -12 -51 -74v-137zM485 645l11 -12q63 0 100 149v174q0 74 -74 74q-21 0 -37 -385z M821 471q61 -211 86 -211q74 55 74 135q-59 188 -86 189q-74 -52 -74 -113z" />
<glyph unicode="s" horiz-adv-x="909" d="M55 14q6 256 135 373l138 96l-6 21q-141 231 -166 317q-17 65 -17 129q0 249 258 496l97 37l43 10q93 12 157 12q129 0 144 -49q0 -264 -156 -424l-55 -51l178 -360q5 -21 5 -47q0 -172 -259 -533l-166 -78q-66 -18 -126 -18q-108 0 -200 57zM121 31q103 -25 177 -25 q21 0 40 2q274 70 311 363l-14 98l-25 88l8 14l-174 303l-12 46q-6 22 -6 42q0 54 41 93l33 10l110 16l17 156l-9 33l-143 10l-61 -29l-68 -6q-133 -36 -132 -322q0 -30 1 -63l12 -43l166 -317l13 -43q4 -176 -121 -207l-117 4q-48 -164 -48 -210q0 -8 1 -13zM229 328l7 -23 l57 4l8 4l35 54l-6 22l-37 2q-70 -47 -64 -63zM393 1309q42 0 142 20q26 -12 59 -12q27 0 57 8q43 31 66 98l-2 13l-164 4q-191 -71 -191 -116q0 -15 33 -15zM489 922l7 -23q80 -96 186 -346l16 -113l33 11l2 129l-35 129q-154 285 -201 285q-2 0 -3 -1zM698 1188l13 2 q43 12 49 164l-12 -2q-44 -12 -50 -164z" />
<glyph unicode="t" horiz-adv-x="1163" d="M115 995q-29 10 -30 77q0 70 34 206q169 239 262 239q12 0 22 -4l578 -124l115 -41q33 -12 32 -97q0 -67 -20 -178q-158 -209 -248 -250l-90 -522q-170 -342 -282 -342q-13 0 -25 4l-168 45l-88 33q-12 5 -12 67q0 142 63 578q38 104 38 175q0 78 -46 114zM180 1055 l180 -49q11 -4 12 -48q0 -117 -77 -483q-19 -193 -20 -294q0 -110 24 -120q105 -26 159 -26q47 0 54 20l137 887l193 -12l16 8l6 10q15 71 16 115q0 63 -32 76q-270 100 -645 137l-13 -39q-28 -90 -28 -137q0 -37 18 -45zM287 1343l12 -4q475 -111 637 -118l55 77l-37 15 q-362 105 -528 104q-114 0 -131 -49zM598 180l12 -4l88 123q77 374 77 498q0 55 -15 61l-25 10l-33 -16zM950 1030l13 -4q4 -2 7 -1q27 0 62 75l17 121l-13 6q-3 1 -5 1q-24 0 -60 -65z" />
<glyph unicode="u" horiz-adv-x="1316" d="M88 606l27 66l-13 65v41q0 139 54 383l-15 15v12q0 184 213 356l54 15q276 0 276 -93q-23 -416 -80 -794l14 -13v-79h25l94 727l158 198h80l80 -12l12 12h14q111 -6 158 -53q-6 -119 -27 -119l27 -53l-65 -489l-15 -13q0 -63 -39 -133l15 -12q0 -242 -318 -531 q-141 -78 -252 -77q-315 0 -409 264zM168 618q0 -379 199 -489q100 -27 266 -27q172 0 289 424q80 182 79 662l-198 26l-27 -92l15 -14v-12l-107 -635q0 -39 -106 -107h-54q-96 0 -116 199l65 661q-16 53 -80 54h-133q-47 0 -78 -371l-14 -41l14 -65l-14 -146v-27zM274 1360 l25 -27h147q119 18 119 119v14l-65 13h-92q-78 0 -134 -107v-12zM485 526q25 -104 54 -104h14l25 24v15l-39 172l65 700h-39q-80 -553 -80 -807zM829 1307h15l196 -27l95 133l-187 39q-119 -73 -119 -145zM948 354h27q72 72 172 727l12 172v54h-24l-41 -107v-39 q0 -297 -146 -792v-15z" />
<glyph unicode="v" horiz-adv-x="1212" d="M98 1266q70 180 121 198l25 11q119 45 193 45q85 0 108 -60l-15 -4l19 -8l86 -234l37 -57q137 236 268 326q260 -61 287 -88q2 -6 2 -18q0 -113 -252 -736q2 -6 2 -16q0 -89 -199 -435q-74 -111 -174 -204q-172 41 -256 86q-260 1002 -259 1163q-1 28 7 31zM172 1251 q11 -17 40 -17t75 17l37 15q65 25 104 166q-5 11 -22 10.5t-50 -10.5l-4 12q-174 -64 -180 -193zM180 1155q-14 -6 -14 -30q0 -37 35 -130l-15 -6l19 -6l4 -12q57 -301 209 -819q10 -31 151 -68q184 330 404 1020l-10 22l-164 66q-74 -29 -201 -481l-27 -37l-12 -4 q-25 -10 -37 26l-104 465q-16 42 -73 42q-32 0 -77 -13zM477 1337q-11 -4 -11 -41q0 -54 23 -178l19 -8l53 -258l12 2q40 70 41 144q0 52 -20 104l-39 69l-27 144l-26 31zM831 504l7 -12l10 6q43 49 43 112l-12 -6zM850 1239q85 -37 140 -37q23 0 40 6l12 4l91 134 q-76 54 -135 53q-20 0 -37 -6q-114 -108 -111 -154zM1018 979l4 -12l22 51l-12 -4z" />
<glyph unicode="w" horiz-adv-x="1812" d="M131 784q-42 243 -41 376q0 142 47 155q31 180 142 211l129 51q11 3 22 3q40 0 86 -44l98 -342l15 2q104 264 239 412q324 -31 338 -88l35 -322l27 8q182 211 235 226l13 4q246 -66 278 -121q-416 -995 -502 -1100l-180 -221l-53 -14l-260 67l-6 12l-15 154l-26 -8 q-80 -150 -138 -166q-36 -1 -68 -1q-244 0 -263 62l-144 658l13 6l-17 6zM188 1186q-19 -5 -18 -69q0 -153 109 -648l38 -88l33 -219q18 -63 133 -63q26 0 58 3l24 9q25 6 197 569l24 6l35 -18l4 -15q43 -330 43 -460q0 -48 -6 -70q14 -57 189 -62q27 8 200 400 q27 6 168 360q33 10 62 189q-76 88 -160 112l-14 -4l-228 -405l-12 -4q-27 -6 -39 32l-53 441l-8 26q-12 47 -215 54q-39 -47 -162 -533l-33 -37l-49 29l-25 80l-94 430l-14 8zM188 1286l5 -12l69 6q140 39 140 198q0 7 -1 13l-90 -27q-82 -22 -123 -178zM449 1374l88 -459 l18 -10l12 4l8 172l-88 262l-12 39zM729 342l12 2l29 51l-8 29zM782 1356l4 -15q8 -23 62 -22q33 0 86 8l65 19q68 20 115 147q-68 36 -137 36q-35 0 -70 -9q-86 -68 -125 -164zM1090 930l26 6q49 14 50 153q0 106 -29 281l-27 -6q-48 -14 -48 -155q1 -105 28 -279z M1231 285l2 -15l14 4q89 101 191 381l-4 15l-13 -4zM1376 1225q121 -127 152 -129l26 8l134 180l-150 72l-65 -19zM1534 926l6 -27l43 98l-12 -4z" />
<glyph unicode="x" horiz-adv-x="1130" d="M90 258q0 152 180 490l-180 276q27 217 168 418l59 57h37q61 -41 228 -274q71 31 215 239q72 72 96 72q29 0 166 -190l-193 -455q0 -45 168 -275v-24l-69 -287l-168 -227h-25q-162 184 -203 299h-24q-96 -115 -215 -346h-60q-180 198 -180 227zM174 270q0 -63 121 -155 q45 43 225 358h25q33 0 168 -240l71 -71q131 152 131 215l-190 299l-25 59l193 361q-66 129 -109 129q-41 0 -96 -178q-113 -168 -131 -168h-12q-94 94 -215 299l-60 12l-96 -156l193 -311v-84l-193 -346v-23zM317 1274l193 -277q25 0 35 84h12q-39 98 -180 299h-35z M772 723l143 -250h35l15 59v97q-80 131 -134 166h-34zM831 1284q0 -45 84 -106l72 155q0 59 -94 109z" />
<glyph unicode="y" horiz-adv-x="1204" d="M61 1300q207 203 459 287h12l119 -260h15q127 156 299 182h14q236 -117 235 -155q-381 -498 -380 -629q-78 -551 -195 -551l-131 -143q-328 61 -328 116q0 168 105 656zM154 1262l196 -459l-104 -602q0 -70 209 -78q131 457 131 588q297 362 366 497q-66 119 -184 119 l-260 -315h-14l-156 354l-39 27q-121 -53 -145 -107v-24zM401 1405q70 -242 119 -275q66 35 66 105q0 115 -105 250h-12q-61 -25 -68 -53v-27zM573 213h13q119 0 170 524h-27q-82 0 -156 -524zM848 1366l158 -80q98 33 116 80l-170 78q-104 -12 -104 -51v-27z" />
<glyph unicode="z" horiz-adv-x="1167" d="M51 188q-2 27 -2 54q0 313 330 655l10 16v13q-2 39 -223 59l-2 29q35 426 135 434q100 125 150 135l262 -29l104 25h14q121 -86 226 -86l18 -41q3 -27 3 -54q0 -231 -185 -452l-180 -262q0 -16 168 -51l79 20l15 -12l2 -12q-23 -344 -215 -592l-41 -17q-14 -1 -33 -1 q-151 0 -627 87zM121 180q336 -86 502 -86q26 0 49 2q48 59 47 181v28q-3 46 -307 80v12q353 461 430 627l-4 188h-15l-510 72q-62 -24 -62 -164q0 -39 5 -86q162 -10 233.5 -25.5t71.5 -46.5q0 -74 -131 -196q-307 -354 -297 -436zM332 1382l4 -26q203 -49 508 -62 q107 56 107 135q0 6 -1 13q-188 49 -493 61q-53 -6 -125 -121zM528 451l195 -37q121 66 121 150v11l-164 13q-74 -6 -152 -137zM793 244l2 -13h14q63 74 63 175q0 17 -2 34h-14q-64 -84 -64 -174q0 -11 1 -22zM924 1165l2 -12l26 2l39 154l-14 12l-27 -2z" />
<glyph unicode="{" horiz-adv-x="770" d="M70 774l102 250l-12 215v23q0 326 317 442h35q35 0 68 -125q-68 -244 -148 -330v-20l45 -195v-100q160 -129 160 -150l10 -45v-22l-35 -160q0 -88 115 -225v-13q-53 -340 -115 -339q-260 104 -260 272l-22 22l12 68q0 240 -182 240q-90 -1 -90 192zM80 547v10l12 12h10 l13 -12v-10l-13 -12h-10zM137 705q0 -78 125 -78q135 -106 135 -183l-10 -57q31 -317 215 -317l23 34v58q-123 72 -123 190l20 172q0 152 -203 205v23l58 135v22l-47 195l12 10l-12 55q0 86 102 205v25l-35 33h-45q-125 -98 -125 -183l35 -250h-12l12 -10v-45 q0 -193 -125 -192v-47zM250 1444h12q170 74 170 158v12h-22q-107 -49 -160 -170zM377 59v23h20l25 -23l-25 -24zM410 762q49 0 157 -135l25 67q0 111 -115 160h-45l-22 -47v-45zM455 1499l12 -33l45 68l-10 35zM557 432q0 -175 80 -215q35 12 35 70q0 27 -70 100l-22 45h-23 z" />
<glyph unicode="}" horiz-adv-x="681" d="M80 1415l2 33q35 100 64.5 148.5t56.5 45.5h10q317 -90 299 -331l-20 -150q-4 -47 108 -114l-18 -267q-80 -59 -93 -110q20 -25 15 -258q-18 -283 -242 -392l-22 -20q-18 0 -86 168l6 86l12 41l-8 10q6 80 110 199q-20 20 -14 117l-10 2l39 254q-37 4 -45 120l30 138 q8 135 -157 192q-43 2 -37 88zM145 1421q-6 -61 129 -137q49 -53 41 -164l-10 -149q-2 -45 78 -133l-4 -43l-72 -123l23 -131l-13 -11v-10l17 -76l-10 -10l-2 -10l8 -33q-6 -74 -113 -227v-10q23 -68 39 -68l20 -2q131 63 148 248l-25 278q6 96 109 176l12 41l2 33 q2 37 -21.5 59.5t-76.5 32.5l-49 78l33 170q14 197 -250 252l-11 -8zM172 1528q227 -121 266 -203h11v10q12 150 -187 240l-53 4zM238 291q18 0 36 61l-10 13h-10l-12 -11zM440 1069q-6 -84 80 -90l10 -2l5 33q0 18 -43 22l-19 45l-31 2z" />
<glyph unicode="&#xaa;" horiz-adv-x="1257" d="M39 162l287 1155q195 199 260 199q346 -14 409 -113q0 -88 123 -471l-10 -49q14 -2 86 -363l12 -49q-94 -346 -272 -346q-121 -51 -174 -51q-20 0 -76 186h-98q-211 -260 -248 -260q-180 76 -299 162zM113 236q0 -113 198 -162q29 0 88 237q49 25 138 25h49 q186 0 186 -162l37 -24q174 27 174 61q-25 285 -174 758q-68 272 -113 272h-37l-247 39q-88 0 -199 -635q-100 -319 -100 -409zM424 174h12q61 37 62 86h-35q-29 0 -39 -86zM436 498q70 446 123 446h14q43 -14 111 -409v-37l-25 -27h-196zM449 1341l137 -36l37 12l100 -27 q88 0 135 125q0 23 -285 37q-118 -70 -124 -111zM512 621l12 -13h13q39 27 61 101l-25 86h-24zM559 547l14 -12v-15l37 15v36h-24zM809 1167q33 -197 149 -485l25 -123h-12l86 -260q45 0 88 147q-84 539 -211 895h-25q-100 -55 -100 -149v-25z" />
<glyph unicode="&#xad;" d="M72 803l6 31l24 16q98 174 381 129q502 25 645 2q80 -12 93 -223q-6 -34 -148 -166q-16 -96 -962 -6q-16 2 -39 217zM131 772l14 -119l95 -14q156 -25 432 -27l10 -2l10 -12q119 27 299 27l8 51q14 80 -34 110q-508 25 -832 -4zM190 856l361 6l10 -2l10 -10 q467 -14 490 59l4 21l-23 2q-125 20 -559 -17q-279 31 -290 -49zM1036 766l27 -111q10 -2 33.5 24t58.5 79q12 76 -20 129q-27 4 -93 -90l9 -13l-2 -10z" />
<glyph unicode="&#xb2;" horiz-adv-x="1040" d="M106 1194v23q35 268 158 268l254 47q317 -37 318 -315q0 -262 -121 -545l10 -13h12l160 35q35 -25 47 -217q-78 -389 -121 -389l-49 12l-498 -84h-61q-29 0 -59 291q102 295 241 547v121l-37 37l-155 -74h-15q-47 0 -84 256zM180 1133q0 -90 35 -99l145 37h15 q92 0 143 -170q0 -211 -278 -582l-13 -36q6 -207 62 -207l12 12h12l13 -12h12q29 25 350 61q98 37 98 62v22q0 89 -61 135l-86 -14h-107l-24 25q180 430 180 534q0 365 -192 365l-74 12q-242 -55 -242 -109v-36zM205 1290h22l170 47h62q279 -61 278 -278l25 24v170 q0 123 -182 195q-375 0 -375 -145v-13zM604 428l25 -25q158 0 157 109v37l-36 37h-13q-74 0 -133 -146v-12zM836 367q25 0 34 110l-12 12h-10l-12 -61v-61z" />
<glyph unicode="&#xb3;" horiz-adv-x="980" d="M115 543v219q0 154 143 209l55 -13q88 6 88 33q0 43 -221 68l-33 88q0 227 101 297q0 37 53 65q452 0 485 -153q25 0 43 -101q0 -123 -75 -352q152 -106 151 -264q-33 -236 -284 -537q-193 -143 -275 -143q-43 37 -110 274q55 242 153 242l12 10v13l-22 20l-78 -8v8 q-55 -20 -154 -20zM180 586l23 -23l166 10q111 0 153 -75v-101q-57 -164 -209 -164v-20q43 -188 76 -188q186 66 309 274q31 86 31 154v12q0 166 -121 209q-31 0 -53 43v12q154 193 154 318q0 219 -287 241h-109q-88 0 -88 -65v-88q0 -33 197 -66q66 -66 65 -154 q0 -144 -294 -153l-13 -55v-121zM225 827h33l66 -12q78 29 77 78l-12 10h-10q-154 -12 -154 -43v-33zM268 1343l13 -10l10 10h65q385 -61 385 -176h23v88q0 139 -199 189l-10 -12h-12l-99 22l-10 -10l-55 10q-111 -28 -111 -111zM336 299h43q76 37 76 98l-21 23 q-98 -34 -98 -98v-23zM641 707q156 -72 156 -189h10q33 72 33 156v10q-22 154 -111 154q-43 0 -88 -131z" />
<glyph unicode="&#xb9;" horiz-adv-x="761" d="M63 1153v61q61 236 185 236q227 61 385 61l37 -49v-98l12 -150l-25 -309l13 -37q0 -670 -211 -805l-248 -51q-25 66 -25 260v13l-12 51l25 260l-13 172h13l-13 12l25 187l-12 88l12 12v12q0 34 -135 62zM162 1214q0 -25 98 -36l25 -50l-25 -495v-25l12 -76l-24 -172 l12 -124l-12 -50l24 -86h50q137 0 137 136v235l24 496v297l-12 14v10q-152 -12 -309 -61v-13zM186 1327l37 -12q309 43 309 98v12l-36 13l-62 -25l-12 12h-12q-224 -43 -224 -98zM520 322h27q41 0 61 966l-12 39h-25l-14 -63v-99z" />
<glyph unicode="&#xba;" horiz-adv-x="1280" d="M102 561v25h13l-13 139v57l35 254v13l-22 34v13q55 37 161 266q119 174 347 174q397 0 569 -395l22 -232l-12 -47v-80l-10 -12l10 -10v-12q-106 -475 -196 -476q-154 -231 -301 -231l-13 12l-10 -12h-152q-315 0 -415 520h-13zM160 748q0 -362 196 -603q66 -59 267 -59 q371 59 370 373l35 289q-43 348 -117 428q-131 162 -415 161q-129 0 -267 -254l13 -69q-82 0 -82 -266zM369 1362l186 35q291 -55 391 -187q129 -137 129 -415v-127l-10 -199q80 100 80 418v57l10 12q0 246 -162 381q-90 139 -370 140q-170 0 -254 -115zM414 526v336 q41 233 151 234h35q129 0 174 -234l-12 -10l12 -57v-279q-37 -209 -151 -209h-11q-143 0 -198 219zM461 840l12 -58v-221q23 -197 162 -196l35 34q-115 121 -115 244l-12 186v162h-25q-28 1 -57 -151zM600 643q31 -162 92 -162q18 23 35 162q-28 381 -92 381q-35 0 -35 -207 v-22l12 -47l-12 -48l12 -57h-12z" />
<glyph unicode="&#xc4;" horiz-adv-x="1144" d="M43 1524q-16 51 117 266l67 20l49 5l7 14q209 66 254 -82l8 -25l63 113l8 12l13 4l86 4l88 41q139 31 164 -47l16 -45l-8 -14l16 -10l2 -13q29 -367 -219 -446l-10 -4l188 -428l-12 -2l14 -10l78 -238l4 -49l15 -6q84 -260 -58 -486l-94 -55l-14 8l-76 -37l-57 -18 q-12 -4 -32 24.5t-44 88.5l2 38q-25 41 -84 23l-23 -6l-157 -213l-33 -12q-248 68 -260 104q-16 53 84 905q-57 174 112 352l-4 11q-188 -33 -200 -2l-7 22l-8 99zM158 1673q12 -39 164 2l45 17l45 90l-205 -29q-43 -31 -49 -80zM160 1362l219 20q31 137 2 228 q-78 25 -186 -11q-68 -23 -35 -124q-18 -7 0 -113zM180 86l13 -33l143 -53l22 6q27 6 31 174l62 43q229 16 254 -6l32 -100q16 -43 56 -58q176 80 163 115l-6 25l-264 694l10 12l-6 13l-106 217l-285 -17q-45 -14 -49 -268q-76 -518 -70 -764zM319 1174l246 18q59 49 53 65 l-10 35l-227 -35q-66 -52 -62 -83zM418 365q-12 295 20 483l23 8q23 6 55 -57l100 -344l7 -101q-193 -28 -205 11zM453 1507l10 2q51 74 8 203l-10 -2q-24 -8 -8 -203zM479 485l17 -8l12 4q33 18 4 103l-18 55q-29 -11 -15 -154zM481 1376l6 -20l58 16q25 10 12 119l-14 6 l-35 -10zM528 1542l7 -20l12 2l14 30zM616 1735l5 -13q6 -22 73 0l15 -8q72 16 75 0q68 57 70 96l-6 25h-39l-6 -14l-12 -4l-121 -15q-60 -47 -54 -67zM635 1640q-47 -18 2 -237q168 33 180 20q45 14 21 207l-9 25q-14 45 -184 -10zM659 1133l9 -23l110 -266l56 -207 q74 -111 133 -295l6 -61l22 8q59 20 -71 452l-203 512l-14 9l-11 -5q-57 -63 -37 -124zM911 1753q-31 -10 2 -199l23 9q16 86 2 188l-16 6z" />
<glyph unicode="&#xc5;" horiz-adv-x="1124" d="M47 55l172 752q57 283 133 450l-2 23q-106 70 -125 221l-4 37q33 313 185 332l12 2q221 25 313 -137v-13q29 -254 -121 -436l37 -8l74 22q102 12 170 -305q98 -188 166 -463l12 3q43 -381 -154 -490l3 -12l16 -45l-10 -15l-13 -2l-114 35l-47 -14q-37 -6 -93 147l-92 27 q-31 -4 -194 -232l-13 -2q-219 37 -311 111v12zM133 66q41 -31 203 -52q53 205 125 213l37 4q248 -20 266 -168l24 5q154 57 150 92q-213 727 -299 880q-37 23 -250 9l-2 14q-84 -37 -68 -158q-86 -126 -186 -839zM289 1485l4 -27q18 -156 227 -143q141 76 123 221 q-80 143 -176 131q-172 -22 -178 -182zM326 1712h12l96 25q66 8 223 -111l13 2l4 64v12q-14 133 -262 104q-51 -26 -86 -96zM375 1505q23 59 76 84q90 -25 100 -112q-23 -2 -21 -39l-12 -15l-84 -10l-53 43zM381 1122l12 2l189 -14l47 16l2 -12q43 6 51 94l-39 9l-233 -17z M424 434q37 350 84 357l10 2q61 6 135 -418l-35 -19q-186 12 -194 78zM502 528l10 2q35 18 29 78l-2 13h-13q-28 -5 -24 -93zM723 1063l235 -752l37 4l6 160q-127 473 -227 670v12l-49 -6z" />
<glyph unicode="&#xd6;" horiz-adv-x="1212" d="M74 958q66 6 104 199q104 172 164 180v13q-121 -8 -127 47l-16 73l4 68l-45 154q113 152 176 157l55 -4l10 10h13l12 -8h10l43 15q121 10 129 -78l17 -66l12 2q72 125 98 129l111 21l178 14q33 -8 39 -63l10 -131q12 -158 -121 -301l-186 -17l2 -10q344 -96 377 -514 l-8 -45l2 -45q18 -221 -93 -475q-182 -293 -319 -306l-14 11l-86 -31q-272 -20 -383 180l-136 289l-2 23l11 2l-23 131l-2 45l10 278l-24 21zM147 598q27 -348 248 -559q90 -39 236 -27q360 80 336 387l10 279q-68 330 -143 399q-152 145 -414 123q-127 -12 -234 -264 l17 -66q-79 -6 -56 -272zM254 1622l10 -133q10 -111 129 -103q66 6 68 150q-10 125 -90 119l-33 8q-88 -18 -84 -41zM266 1722l25 -20l143 12q43 25 62 72l-35 18l-101 -8q-49 -16 -72.5 -31.5t-21.5 -31.5v-11zM297 1212l197 50q254 -31 393 -168q113 -137 131 -346 l10 -146l4 -186q70 102 45 403l-6 55l10 13q-18 236 -184 352q-98 125 -365 104q-161 -16 -235 -131zM381 739q23 225 127 234l33 4q123 9 184 -209l-10 -12l14 -54l23 -266q-18 -203 -127 -211q-154 -12 -217 193zM426 721l18 -55l17 -209q37 -188 170 -176l31 36 q-121 104 -130 224l-26 176l-12 155l-23 -2q-31 -2 -45 -149zM508 1497l12 -10l10 2l41 57l-16 178l-20 -2q-37 -4 -27 -225zM539 1399l100 10l-10 109q-67 -60 -90 -119zM561 711l2 -23l17 -43l-9 -47l17 -53h-13q8 -100 103 -150l20 160q-57 362 -118 356q-33 -1 -19 -200 zM690 1456l15 -33l131 13q100 8 92 118l-8 88l-35 31l-123 -10q-78 -6 -72 -74l12 -8zM713 1726l12 -10l20 2l-2 13l113 -5l45 5l51 59l-4 35l-164 -27l-22 -2q-37 -21 -49 -70zM983 1548l23 2l26 90l-18 66l10 35l-12 10h-13q-20 -25 -16 -203z" />
<glyph unicode="&#xe4;" horiz-adv-x="1202" d="M43 104q-8 51 203 887q-33 180 157 332l-2 12q-193 -10 -198 27l-6 22l6 99l-41 100q-10 61 147 248l72 12l49 -2l8 12q213 37 242 -114l4 -23l78 99l10 14l12 2l86 -8l93 28q143 14 157 -67l8 -45l-10 -17l17 -8v-12q-18 -367 -275 -416l-12 -2l131 -450h-12l14 -11 l45 -245l-2 -50l12 -10q49 -266 -121 -473l-102 -41l-12 10l-80 -26l-59 -13q-25 -4 -60 123l6 37q-23 43 -80 35l-22 -4l-182 -193l-37 -6q-236 98 -244 137zM109 141l8 -37l135 -71l20 6q33 6 58 166l63 37q231 -16 252 -39l21 -105q6 -43 47 -65q92 29 136 52.5t40 41.5 l-4 23l-168 722l8 13v12l-80 229l-283 21q-49 -9 -86 -258q-142 -502 -167 -748zM254 1407l221 -8q49 133 31 223q-80 37 -184 16q-70 -12 -52 -120q-18 -5 -16 -111zM295 1718q6 -37 160 -18l49 6l55 86l-205 -2q-43 -23 -59 -72zM381 385q25 283 84 475l22 6q25 6 48 -63 l53 -354l-6 -101q-193 -2 -201 37zM389 1200l246 -14q68 41 61 59l-6 35l-229 -4q-70 -47 -72 -76zM457 498l14 -13l12 2q35 16 19 103l-13 57q-30 -6 -32 -149zM563 1511l10 2q61 68 37 201l-12 -2q-25 -2 -35 -201zM575 1380l5 -22l59 8q27 6 27 117l-15 8l-35 -6z M643 1538l4 -22l12 2l19 26zM721 1114l4 -22l76 -279l26 -213q53 -100 93 -311v-60l22 4q66 12 -10 459l-135 535l-13 10l-12 -2q-63 -55 -51 -121zM731 1384q176 12 184 -2q43 8 48 203l-5 25q-8 43 -184 12h-12q-54 -11 -31 -238zM756 1716l2 -10q4 -23 76 -10l14 -10 q71 3 74 -13q72 47 82 88l-5 25l-38 4l-9 -12l-12 -2l-123 2q-64 -40 -61 -62zM1026 1499l25 4q25 72 24 189l-12 10l-12 -4q-31 -6 -25 -199z" />
<glyph unicode="&#xe5;" horiz-adv-x="1220" d="M72 49l221 762q74 287 162 455l-2 26q-102 76 -115 234l-2 39q51 317 209 327l10 2q231 14 315 -157v-15q18 -260 -149 -440l39 -10l74 16q53 4 93 -75.5t66 -243.5q90 -203 146 -486h10q25 -391 -184 -491v-12l16 -50l-12 -16h-15l-114 43l-49 -14q-20 -2 -42 37.5 t-44 119.5l-93 33q-34 -3 -215 -227h-12q-219 51 -311 133zM168 55q37 -33 205 -63q66 209 141 211l39 2q255 -34 264 -185h25q163 52 159 86q-180 764 -258 922q-35 25 -256 25v12q-88 -35 -79 -158q-95 -119 -240 -852zM401 1503l2 -24q8 -162 228 -162q147 70 137 221 q-74 147 -174 141q-175 -8 -193 -176zM453 1737h12l100 18q70 6 223 -127l13 2l8 64v12q-10 139 -260 125q-53 -22 -96 -94zM475 1128h14l193 -26l47 16l2 -12q43 2 57 90l-36 12l-242 -4zM481 418q57 358 105 360l12 2q66 4 117 -438l-37 -14q-191 20 -197 90zM489 1522 q27 57 84 82q90 -31 97 -121q-27 -4 -23 -41l-12 -12l-88 -5l-53 48zM563 512h12q37 16 35 78l-2 12h-10q-33 -4 -35 -90zM823 1047l201 -787l37 2l16 166q-106 498 -194 700l-2 13l-50 -4z" />
<glyph unicode="&#xf6;" horiz-adv-x="1212" d="M72 457v20h10l-10 131v45l30 275l-20 20v33q66 0 121 186q113 162 176 166v10q-121 0 -121 56l-10 78l10 63l-35 156q125 141 189 141l55 -10l10 10h10l13 -10h10l45 10q119 0 119 -88l10 -63h12q86 119 109 118l110 11h177q33 -8 32 -66v-131q0 -152 -143 -285h-186v-10 q330 -121 329 -539l-12 -43v-45q0 -221 -131 -458q-203 -274 -340 -275l-10 12l-88 -22q-270 0 -363 207zM127 621q0 -347 197 -572q80 -43 231 -43q360 49 360 350l33 277q-41 330 -110 403q-135 154 -394 154q-127 0 -254 -242l13 -65q-76 0 -76 -262zM311 1487 q0 -111 121 -111q61 0 78 144q0 121 -78 120l-33 11q-88 -8 -88 -33v-131zM324 1212l196 33q246 -53 375 -196q96 -143 96 -353v-141l-10 -186q78 100 78 393v55l10 12q0 231 -154 361q-84 133 -352 133q-157 0 -239 -111zM334 1716l22 -20h144q43 20 63 63l-33 25h-98 q-98 -23 -98 -58v-10zM367 424v317q37 219 143 220h33q121 0 164 -220l-11 -12l11 -53v-264q-35 -197 -144 -197q-147 0 -196 209zM412 719l10 -55v-207q23 -188 153 -189l33 33q-109 113 -108 231l-13 175v155h-20q-30 0 -55 -143zM543 532q0 -96 88 -153l33 153 q-25 362 -89 363q-33 0 -32 -199v-20l12 -43l-12 -45l12 -56h-12zM555 1477l8 -13h12l43 56v176h-20q-33 0 -43 -219zM575 1376h99v111q-72 -54 -99 -111zM727 1421l12 -32h133q98 0 99 108v88l-33 33h-121q-78 0 -78 -66l13 -12zM772 1686l12 -13h21v13l110 -13h43l56 53 v33l-164 -10h-23q-41 -22 -55 -63zM1024 1487h23l32 88l-10 65l10 33l-10 13h-10q-23 -29 -35 -199z" />
<glyph unicode="&#x152;" horiz-adv-x="2215" d="M1353 829l13 101l-13 325q55 248 103 248l45 13h90q135 0 135 20l55 -10h213q90 0 90 -158v-68l-57 -225q90 0 90 -178v-90l-43 -180q88 0 88 -113v-145q-74 -350 -180 -351h-123l-100 13l-113 -13h-203q-55 22 -55 338q-16 0 -22 123h10l-10 13v213l10 12zM1423 940 l10 -293v-223q40 -338 68 -338h461q16 0 32 45l-12 125v55l-10 13v10l-191 -10h-45q-45 0 -45 190v35q0 27 45 33q236 0 236 32v113q0 59 -33 68h-12l-226 -13l-20 70v133q0 46 258 68l-12 80v10l12 45q0 55 -80 55q-436 0 -436 -65v-35l10 -158zM1433 1278h43l463 35 q43 86 43 135l-10 10h-10l-486 -10q-43 -89 -43 -148v-22zM1781 852h11l12 -12h10l35 22l45 -10q123 8 123 113v10l-10 10v12q-180 -31 -181 -57zM1804 389l10 -10h12q225 0 226 145l-13 13q-213 0 -213 -103q-22 0 -22 -45zM1994 1223h13l10 55h-23v-55zM2027 750 q29 0 35 79l-10 33h-13l-12 -55v-57zM2039 279l13 -68q25 0 55 168l-10 45h-23zM80 559v23h12l-12 137v57l35 254v10l-23 35v12q55 37 162 265q120 172 344 172q393 0 563 -391l23 -230l-13 -47v-80l-10 -10l10 -12v-11q-106 -473 -194 -473q-150 -229 -299 -229l-12 12 l-11 -12h-149q-313 0 -414 518h-12zM137 743q0 -362 197 -598q66 -59 264 -59q367 59 367 369l34 288q-43 346 -114 424q-133 162 -414 162q-127 0 -264 -254l10 -69q-80 -1 -80 -263zM344 1352l184 34q293 -55 392 -184q127 -139 127 -414v-126l-13 -195q80 102 80 414v57 l12 10q0 246 -161 381q-88 137 -367 137q-168 1 -254 -114zM389 524v332q41 231 152 231h32q127 0 175 -231l-13 -10l13 -58v-276q-37 -207 -150 -207h-12q-142 0 -197 219zM436 834l13 -58v-217q22 -197 159 -197l35 35q-115 119 -115 242l-12 184v160h-22q-33 1 -58 -149z M573 639q31 -162 93 -162q18 23 34 162q-29 379 -92 379q-35 0 -35 -207v-23l13 -45l-13 -47l13 -57h-13z" />
<glyph unicode="&#x153;" horiz-adv-x="2269" d="M1389 825l12 101l-12 325q55 246 100 246l45 12h88q135 0 135 23l55 -12h213q90 0 91 -156v-68l-56 -225q88 0 88 -178v-88l-43 -180q88 0 88 -113v-145q-74 -348 -178 -349h-123l-100 13l-113 -13h-200q-57 23 -58 336q-14 0 -20 123h8l-8 12v213l8 13zM1456 938 l10 -293v-221q41 -338 68 -338h459q14 0 32 45l-10 125v55l-10 11v12l-193 -12h-43q-45 0 -45 190v35q0 27 45 33q236 0 236 32v113q0 57 -35 68h-10l-225 -13l-23 68v133q0 46 258 68l-10 79v11l10 45q0 55 -78 55q-436 0 -436 -65v-35l10 -158zM1466 1274h45l459 33 q45 90 45 135l-10 10h-12l-482 -10q-45 -88 -45 -146v-22zM1812 848h13l10 -10h12l33 20l45 -10q123 6 123 113v10l-10 10v12q-178 -31 -178 -55zM1835 389l12 -12h13q223 0 223 145l-12 13q-211 0 -211 -101q-25 0 -25 -45zM2025 1217h13l10 57h-23v-57zM2060 748 q27 0 33 77l-10 33h-12l-11 -53v-57zM2071 276l12 -67q25 0 55 168l-10 47h-23zM102 561v25h13l-13 139v57l35 254v13l-22 34v13q55 37 161 266q119 174 347 174q397 0 569 -395l22 -232l-12 -47v-80l-10 -12l10 -10v-12q-106 -475 -196 -476q-154 -231 -301 -231l-13 12 l-10 -12h-152q-315 0 -415 520h-13zM160 748q0 -362 196 -603q66 -59 267 -59q371 59 370 373l35 289q-43 348 -117 428q-131 162 -415 161q-129 0 -267 -254l13 -69q-82 0 -82 -266zM369 1362l186 35q291 -55 391 -187q129 -137 129 -415v-127l-10 -199q80 100 80 418v57 l10 12q0 246 -162 381q-90 139 -370 140q-170 0 -254 -115zM414 526v336q41 233 151 234h35q129 0 174 -234l-12 -10l12 -57v-279q-37 -209 -151 -209h-11q-143 0 -198 219zM461 840l12 -58v-221q23 -197 162 -196l35 34q-115 121 -115 244l-12 186v162h-25q-28 1 -57 -151z M600 643q31 -162 92 -162q18 23 35 162q-28 381 -92 381q-35 0 -35 -207v-22l12 -47l-12 -48l12 -57h-12z" />
<glyph unicode="&#x2000;" horiz-adv-x="950" />
<glyph unicode="&#x2001;" horiz-adv-x="1904" />
<glyph unicode="&#x2002;" horiz-adv-x="950" />
<glyph unicode="&#x2003;" horiz-adv-x="1904" />
<glyph unicode="&#x2004;" horiz-adv-x="634" />
<glyph unicode="&#x2005;" horiz-adv-x="475" />
<glyph unicode="&#x2006;" horiz-adv-x="315" />
<glyph unicode="&#x2007;" horiz-adv-x="315" />
<glyph unicode="&#x2008;" horiz-adv-x="237" />
<glyph unicode="&#x2009;" horiz-adv-x="380" />
<glyph unicode="&#x200a;" horiz-adv-x="104" />
<glyph unicode="&#x2010;" d="M72 803l6 31l24 16q98 174 381 129q502 25 645 2q80 -12 93 -223q-6 -34 -148 -166q-16 -96 -962 -6q-16 2 -39 217zM131 772l14 -119l95 -14q156 -25 432 -27l10 -2l10 -12q119 27 299 27l8 51q14 80 -34 110q-508 25 -832 -4zM190 856l361 6l10 -2l10 -10 q467 -14 490 59l4 21l-23 2q-125 20 -559 -17q-279 31 -290 -49zM1036 766l27 -111q10 -2 33.5 24t58.5 79q12 76 -20 129q-27 4 -93 -90l9 -13l-2 -10z" />
<glyph unicode="&#x2011;" d="M72 803l6 31l24 16q98 174 381 129q502 25 645 2q80 -12 93 -223q-6 -34 -148 -166q-16 -96 -962 -6q-16 2 -39 217zM131 772l14 -119l95 -14q156 -25 432 -27l10 -2l10 -12q119 27 299 27l8 51q14 80 -34 110q-508 25 -832 -4zM190 856l361 6l10 -2l10 -10 q467 -14 490 59l4 21l-23 2q-125 20 -559 -17q-279 31 -290 -49zM1036 766l27 -111q10 -2 33.5 24t58.5 79q12 76 -20 129q-27 4 -93 -90l9 -13l-2 -10z" />
<glyph unicode="&#x2012;" d="M72 803l6 31l24 16q98 174 381 129q502 25 645 2q80 -12 93 -223q-6 -34 -148 -166q-16 -96 -962 -6q-16 2 -39 217zM131 772l14 -119l95 -14q156 -25 432 -27l10 -2l10 -12q119 27 299 27l8 51q14 80 -34 110q-508 25 -832 -4zM190 856l361 6l10 -2l10 -10 q467 -14 490 59l4 21l-23 2q-125 20 -559 -17q-279 31 -290 -49zM1036 766l27 -111q10 -2 33.5 24t58.5 79q12 76 -20 129q-27 4 -93 -90l9 -13l-2 -10z" />
<glyph unicode="&#x2013;" horiz-adv-x="1024" d="M205 512v205h614v-205h-614z" />
<glyph unicode="&#x2014;" horiz-adv-x="2048" d="M205 512v205h1638v-205h-1638z" />
<glyph unicode="&#x2026;" horiz-adv-x="1841" d="M1303 504q80 242 188 250l98 8l123 20q52 -46 56 -92l2 -12l-9 -49l15 -13q14 -172 -121 -368q-74 -31 -229 -43q-49 -4 -77 43t-36 145zM1389 512l8 -100l16 -72l-8 -49l39 -25l86 8q74 6 88 132l-12 12v10l6 76l-41 35l-61 -7zM1417 598v-10l88 -6l62 6q70 49 63 114 l-84 -8q-102 -10 -129 -96zM1678 596l10 -111l10 2l4 86v25zM688 504q80 242 188 250l98 8l123 20q52 -46 56 -92l2 -12l-9 -49l15 -13q14 -172 -121 -368q-74 -31 -229 -43q-49 -4 -77 43t-36 145zM774 512l8 -100l16 -72l-8 -49l39 -25l86 8q74 6 88 132l-12 12v10l6 76 l-41 35l-61 -7zM802 598v-10l88 -6l62 6q70 49 63 114l-84 -8q-102 -10 -129 -96zM1063 596l10 -111l10 2l4 86v25zM74 504q80 242 188 250l98 8l123 20q52 -46 56 -92l2 -12l-9 -49l15 -13q14 -172 -121 -368q-74 -31 -229 -43q-49 -4 -77 43t-36 145zM160 512l8 -100 l16 -72l-8 -49l39 -25l86 8q74 6 88 132l-12 12v10l6 76l-41 35l-61 -7zM188 598v-10l88 -6l62 6q70 49 63 114l-84 -8q-102 -10 -129 -96zM449 596l10 -111l10 2l4 86v25z" />
<glyph unicode="&#x202f;" horiz-adv-x="380" />
<glyph unicode="&#x205f;" horiz-adv-x="475" />
<glyph unicode="&#x20ac;" horiz-adv-x="1550" d="M92 856q0 70 103 238q23 193 147 192q92 0 170 158q106 137 248 170q94 35 170 35h55q168 0 375 -183q66 -129 100 -272q-45 -88 -123 -88h-22q-170 168 -240 168h-100l-90 -23v-32l190 -35l47 10q84 0 123 -145h12l23 22l-10 -35l10 -90q-68 -104 -68 -158l23 -67 l-23 -68h11q125 0 182 -315q-45 -72 -295 -250l-78 -22q-360 55 -497 180q-123 84 -238 385q-39 23 -147 22zM162 846l10 -35l23 23v45l-23 22zM217 721q227 -31 227 -68q0 -168 158 -362q66 -90 395 -158q182 0 328 205l12 33l-45 32h-22q-129 -135 -238 -135h-67 q-217 0 -375 305l-10 45q23 68 45 68h67l395 -55q46 15 68 55v12q0 35 -518 90l-12 35q0 84 57 113l473 -57q45 12 45 67v12q-518 55 -518 91q0 125 248 272l102 22q135 0 283 -169l10 -13h12q27 0 56 58q-143 213 -373 213q-315 -39 -315 -111q-63 0 -193 -272l-12 -13h-23 l-100 13q-52 -18 -80 -68q0 -23 125 -45l10 -10v-35q0 -63 -55 -90l-115 10zM262 1061q16 0 35 45l-12 33h-23v-78zM297 866h55v25h-55v-25zM330 1151l47 -45l55 10v23q0 61 -45 80h-57v-68zM477 1264l10 -80h13q188 307 485 307q317 -47 318 -125h34v10q0 160 -385 215h-12 q-281 0 -463 -317v-10zM657 573q76 -125 205 -124h10q117 0 238 112q-66 25 -395 57h-33l-25 -22v-23zM705 846q272 -57 417 -58v13q0 22 -282 55l-35 10v13q-100 -13 -100 -33zM770 1083l430 -57q0 113 -203 113l-12 12h-10l-10 -12l-125 22q-43 -10 -70 -67v-11zM815 371 l137 -45q213 0 293 157q-12 57 -45 58q-225 -160 -385 -160v-10z" />
<glyph unicode="&#x2122;" horiz-adv-x="2766" d="M1249 117v229l12 854q0 129 220 311q418 -37 417 -135l43 -80h39q104 270 217 271q475 0 475 -109l15 -244l-15 -122l15 -488q0 -229 -176 -516q-35 -23 -328 -53l-27 123h-26q0 -45 -109 -138h-26q-229 0 -230 150l-149 -162h-56l-67 12l-80 -12h-125q-39 9 -39 109z M1317 223l14 -121h12l191 -14l41 14v177l-15 434l15 14h26q90 -76 244 -584q63 -55 109 -55q66 0 163 584l13 41l14 14q0 41 27 41h12l43 -41l12 -557q12 -53 56 -53q115 0 161 53l-14 53l14 557v353q0 82 -135 81l-258 15q-53 0 -176 -475l-14 -15h-13l-163 435l-297 67 q-68 0 -68 -420zM1413 1296l51 -26h205q31 0 68 121q-49 41 -121 41h-123q-25 0 -80 -97v-39zM1628 455l29 -54l-15 -96l15 -106h12q53 20 53 94l-53 188h-12zM1765 1159l80 -244h14q27 0 68 205q-68 182 -109 215q-53 -23 -53 -94v-82zM2091 1296q53 -2 53 -26l39 12 l258 -12q96 96 96 203h-325q-94 0 -121 -150v-27zM2117 252h27l12 67v41h-26zM2496 346l15 -12h26q40 68 68 854l-14 41l14 53l-14 53q-53 0 -80 -229l26 -53l-14 -164l14 -326l-26 -82l12 -12v-14zM63 1190q113 301 212 301h6l593 22l119 -12q63 -6 82 -262 q-102 -244 -178 -305l43 -526q-86 -408 -206 -408h-7l-174 2l-92 8q-45 4 -113 641q4 43 4 79q0 163 -84 198l-137 -15q-65 7 -68 277zM143 1167q-1 -22 0 -40q0 -132 37 -138l187 -4q45 -4 69 -528q61 -395 109 -402q205 4 207 49l-88 893l190 35l14 12l2 15 q-6 172 -63 178q-99 9 -205 9q-214 0 -455 -38zM209 1296l12 -2q469 8 649 45l35 91l-39 4q-80 2 -150 2q-492 0 -503 -113zM735 924l70 -678h12l55 141q-27 551 -79 557l-27 2zM920 1294l14 -135l12 -2h2q29 0 47 88l-14 123l-14 2h-2q-24 0 -45 -76z" />
<glyph unicode="&#xe000;" horiz-adv-x="1535" d="M0 1535h1535v-1535h-1535v1535z" />
<glyph unicode="&#xfb01;" horiz-adv-x="1847" d="M1016 109q84 1278 219 1277q213 160 260 160q291 -66 291 -174q0 -193 -143 -858q0 -387 -262 -477l-29 -31h-45q-291 78 -291 103zM1118 137l160 -43h15q117 442 190 1104q-35 72 -147 72h-72q-45 -254 -100 -391l14 -15v-14q-59 -393 -60 -582v-131zM1321 1358l146 -58 l16 15h12l17 -15q143 70 143 101q-70 57 -172 57q-162 -71 -162 -100zM1409 152h15q109 0 131 378q145 555 145 740v30h-29q-109 -12 -188 -638l12 -17v-14zM55 1266q129 240 267 245l198 23l266 12l35 -33l4 -77l15 -43q1 -22 1 -42q0 -139 -57 -206l2 -33h4q50 0 68 -86 l4 -111q1 -12 1 -24q0 -165 -115 -338q-152 -51 -152 -74v-22l18 -144q-59 -283 -131 -284h-10v10l-10 -12h-12l-11 10q-45 -27 -123 -29l-88 -4h-1q-63 0 -93 320q2 100 19 100l-66 397l8 68l-4 65l-12 45l8 45l-10 11v10l8 12zM125 1200l20 -153h-12l12 -33l50 -522 l-13 -13l2 -10l27 -86l-6 -102l43 -209l166 18l32 2l33 25l-53 397q109 72 274 82l23 45q-21 207 -78 207h-2l-199 -43h-2q-62 0 -71 176l-2 43q-4 49 272 82q0 178 14 178q-8 39 -70 39h-10l-75 -14l-47 10l-318 -72zM184 1337l58 -8l299 49v-12l10 12h10l68 -8q35 4 86 94 l-35 21l-234 -10q-182 -8 -249 -113l-13 -12v-13zM465 872l78 5q104 4 155.5 42.5t46.5 112.5l-10 10l-145 -6q-94 -6 -125 -164zM496 473l32 -209l21 23l-8 178l-25 20l-8 -12h-12zM713 1286l2 -65h10q48 53 48 148q0 11 -1 22l-10 10l-10 -2q-29 0 -39 -113zM756 831 l2 -45l24 -18h11l8 78l-6 100q-29 -2 -39 -115z" />
<glyph unicode="&#xfb02;" horiz-adv-x="1939" d="M1000 141v27q16 115 30 115l-10 14l8 178l13 14l-11 13v12q64 901 133 901h3q23 0 26 51l-24 27l14 12h12l37 -14q2 49 211 53q170 -10 164 -137l4 -170l-14 -10v-15l12 -14l-53 -295l-9 -153l-14 -15q-2 -27 39 -40t127 -17l104 20q61 -29 64 -55l-4 -78 q-18 -383 -234 -520l-168 -4q-464 22 -460 100zM1080 176q31 -41 307 -53l155 -8h4q72 0 78 125l23 168l-12 14l-261 12q-29 0 -34 66q35 559 65 555l-12 12l2 14l12 13l-12 12l4 104l14 13v12l-36 27l-181 10q-41 0 -47 -142l-12 -270l-39 -270l8 -78l-18 -129l10 -104z M1213 1362q0 -27 141 -47h4q69 0 131 110v15l-24 24l-156 9q-22 0 -96 -111zM1426 664h26l78 553l4 77l-24 27l-15 -39zM1456 508l15 -14l102 -7h13q96 0 135 84v27l-142 33q-117 -23 -123 -123zM1706 287l10 -13h15l61 191l-10 39l-27 2l-32 -115l-2 -78l-15 -12v-14z M55 1266q129 240 267 245l198 23l266 12l35 -33l4 -77l15 -43q1 -22 1 -42q0 -139 -57 -206l2 -33h4q50 0 68 -86l4 -111q1 -12 1 -24q0 -165 -115 -338q-152 -51 -152 -74v-22l18 -144q-59 -283 -131 -284h-10v10l-10 -12h-12l-11 10q-45 -27 -123 -29l-88 -4h-1 q-63 0 -93 320q2 100 19 100l-66 397l8 68l-4 65l-12 45l8 45l-10 11v10l8 12zM125 1200l20 -153h-12l12 -33l50 -522l-13 -13l2 -10l27 -86l-6 -102l43 -209l166 18l32 2l33 25l-53 397q109 72 274 82l23 45q-21 207 -78 207h-2l-199 -43h-2q-62 0 -71 176l-2 43 q-4 49 272 82q0 178 14 178q-8 39 -70 39h-10l-75 -14l-47 10l-318 -72zM184 1337l58 -8l299 49v-12l10 12h10l68 -8q35 4 86 94l-35 21l-234 -10q-182 -8 -249 -113l-13 -12v-13zM465 872l78 5q104 4 155.5 42.5t46.5 112.5l-10 10l-145 -6q-94 -6 -125 -164zM496 473 l32 -209l21 23l-8 178l-25 20l-8 -12h-12zM713 1286l2 -65h10q48 53 48 148q0 11 -1 22l-10 10l-10 -2q-29 0 -39 -113zM756 831l2 -45l24 -18h11l8 78l-6 100q-29 -2 -39 -115z" />
<glyph unicode="&#xfb03;" horiz-adv-x="2775" d="M1943 109q84 1278 219 1277q213 160 260 160q291 -66 291 -174q0 -193 -143 -858q0 -387 -262 -477l-29 -31h-45q-291 78 -291 103zM2045 137l160 -43h15q117 442 190 1104q-35 72 -147 72h-72q-45 -254 -100 -391l14 -15v-14q-59 -393 -60 -582v-131zM2248 1358l146 -58 l16 15h12l17 -15q143 70 143 101q-70 57 -172 57q-162 -71 -162 -100zM2336 152h15q109 0 131 378q145 555 145 740v30h-29q-109 -12 -188 -638l12 -17v-14zM983 1266q129 240 267 245l198 23l266 12l35 -33l4 -77l15 -43q1 -22 1 -42q0 -139 -57 -206l2 -33h4q50 0 68 -86 l4 -111q1 -12 1 -24q0 -165 -115 -338q-152 -51 -152 -74v-22l18 -144q-59 -283 -131 -284h-10v10l-10 -12h-12l-11 10q-45 -27 -123 -29l-88 -4h-1q-63 0 -93 320q2 100 19 100l-66 397l8 68l-4 65l-12 45l8 45l-10 11v10l8 12zM1053 1200l20 -153h-12l12 -33l50 -522 l-13 -13l2 -10l27 -86l-6 -102l43 -209l166 18l32 2l33 25l-53 397q109 72 274 82l23 45q-21 207 -78 207h-2l-199 -43h-2q-62 0 -71 176l-2 43q-4 49 272 82q0 178 14 178q-8 39 -70 39h-10l-75 -14l-47 10l-318 -72zM1112 1337l58 -8l299 49v-12l10 12h10l68 -8 q35 4 86 94l-35 21l-234 -10q-182 -8 -249 -113l-13 -12v-13zM1393 872l78 5q104 4 155.5 42.5t46.5 112.5l-10 10l-145 -6q-94 -6 -125 -164zM1424 473l32 -209l21 23l-8 178l-25 20l-8 -12h-12zM1641 1286l2 -65h10q48 53 48 148q0 11 -1 22l-10 10l-10 -2q-29 0 -39 -113 zM1684 831l2 -45l24 -18h11l8 78l-6 100q-29 -2 -39 -115zM55 1266q129 240 267 245l198 23l266 12l35 -33l4 -77l15 -43q1 -22 1 -42q0 -139 -57 -206l2 -33h4q50 0 68 -86l4 -111q1 -12 1 -24q0 -165 -115 -338q-152 -51 -152 -74v-22l18 -144q-59 -283 -131 -284h-10v10 l-10 -12h-12l-11 10q-45 -27 -123 -29l-88 -4h-1q-63 0 -93 320q2 100 19 100l-66 397l8 68l-4 65l-12 45l8 45l-10 11v10l8 12zM125 1200l20 -153h-12l12 -33l50 -522l-13 -13l2 -10l27 -86l-6 -102l43 -209l166 18l32 2l33 25l-53 397q109 72 274 82l23 45 q-21 207 -78 207h-2l-199 -43h-2q-62 0 -71 176l-2 43q-4 49 272 82q0 178 14 178q-8 39 -70 39h-10l-75 -14l-47 10l-318 -72zM184 1337l58 -8l299 49v-12l10 12h10l68 -8q35 4 86 94l-35 21l-234 -10q-182 -8 -249 -113l-13 -12v-13zM465 872l78 5q104 4 155.5 42.5 t46.5 112.5l-10 10l-145 -6q-94 -6 -125 -164zM496 473l32 -209l21 23l-8 178l-25 20l-8 -12h-12zM713 1286l2 -65h10q48 53 48 148q0 11 -1 22l-10 10l-10 -2q-29 0 -39 -113zM756 831l2 -45l24 -18h11l8 78l-6 100q-29 -2 -39 -115z" />
<glyph unicode="&#xfb04;" horiz-adv-x="2867" d="M1927 141v27q16 115 30 115l-10 14l8 178l13 14l-11 13v12q64 901 133 901h3q23 0 26 51l-24 27l14 12h12l37 -14q2 49 211 53q170 -10 164 -137l4 -170l-14 -10v-15l12 -14l-53 -295l-9 -153l-14 -15q-2 -27 39 -40t127 -17l104 20q61 -29 64 -55l-4 -78 q-18 -383 -234 -520l-168 -4q-464 22 -460 100zM2007 176q31 -41 307 -53l155 -8h4q72 0 78 125l23 168l-12 14l-261 12q-29 0 -34 66q35 559 65 555l-12 12l2 14l12 13l-12 12l4 104l14 13v12l-36 27l-181 10q-41 0 -47 -142l-12 -270l-39 -270l8 -78l-18 -129l10 -104z M2140 1362q0 -27 141 -47h4q69 0 131 110v15l-24 24l-156 9q-22 0 -96 -111zM2353 664h26l78 553l4 77l-24 27l-15 -39zM2383 508l15 -14l102 -7h13q96 0 135 84v27l-142 33q-117 -23 -123 -123zM2633 287l10 -13h15l61 191l-10 39l-27 2l-32 -115l-2 -78l-15 -12v-14z M983 1266q129 240 267 245l198 23l266 12l35 -33l4 -77l15 -43q1 -22 1 -42q0 -139 -57 -206l2 -33h4q50 0 68 -86l4 -111q1 -12 1 -24q0 -165 -115 -338q-152 -51 -152 -74v-22l18 -144q-59 -283 -131 -284h-10v10l-10 -12h-12l-11 10q-45 -27 -123 -29l-88 -4h-1 q-63 0 -93 320q2 100 19 100l-66 397l8 68l-4 65l-12 45l8 45l-10 11v10l8 12zM1053 1200l20 -153h-12l12 -33l50 -522l-13 -13l2 -10l27 -86l-6 -102l43 -209l166 18l32 2l33 25l-53 397q109 72 274 82l23 45q-21 207 -78 207h-2l-199 -43h-2q-62 0 -71 176l-2 43 q-4 49 272 82q0 178 14 178q-8 39 -70 39h-10l-75 -14l-47 10l-318 -72zM1112 1337l58 -8l299 49v-12l10 12h10l68 -8q35 4 86 94l-35 21l-234 -10q-182 -8 -249 -113l-13 -12v-13zM1393 872l78 5q104 4 155.5 42.5t46.5 112.5l-10 10l-145 -6q-94 -6 -125 -164zM1424 473 l32 -209l21 23l-8 178l-25 20l-8 -12h-12zM1641 1286l2 -65h10q48 53 48 148q0 11 -1 22l-10 10l-10 -2q-29 0 -39 -113zM1684 831l2 -45l24 -18h11l8 78l-6 100q-29 -2 -39 -115zM55 1266q129 240 267 245l198 23l266 12l35 -33l4 -77l15 -43q1 -22 1 -42q0 -139 -57 -206 l2 -33h4q50 0 68 -86l4 -111q1 -12 1 -24q0 -165 -115 -338q-152 -51 -152 -74v-22l18 -144q-59 -283 -131 -284h-10v10l-10 -12h-12l-11 10q-45 -27 -123 -29l-88 -4h-1q-63 0 -93 320q2 100 19 100l-66 397l8 68l-4 65l-12 45l8 45l-10 11v10l8 12zM125 1200l20 -153h-12 l12 -33l50 -522l-13 -13l2 -10l27 -86l-6 -102l43 -209l166 18l32 2l33 25l-53 397q109 72 274 82l23 45q-21 207 -78 207h-2l-199 -43h-2q-62 0 -71 176l-2 43q-4 49 272 82q0 178 14 178q-8 39 -70 39h-10l-75 -14l-47 10l-318 -72zM184 1337l58 -8l299 49v-12l10 12h10 l68 -8q35 4 86 94l-35 21l-234 -10q-182 -8 -249 -113l-13 -12v-13zM465 872l78 5q104 4 155.5 42.5t46.5 112.5l-10 10l-145 -6q-94 -6 -125 -164zM496 473l32 -209l21 23l-8 178l-25 20l-8 -12h-12zM713 1286l2 -65h10q48 53 48 148q0 11 -1 22l-10 10l-10 -2 q-29 0 -39 -113zM756 831l2 -45l24 -18h11l8 78l-6 100q-29 -2 -39 -115z" />
</font>
</defs>
</svg>
