<?xml version="1.0" standalone="no"?>
<!DOCTYPE svg PUBLIC "-//W3C//DTD SVG 1.1//EN" "http://www.w3.org/Graphics/SVG/1.1/DTD/svg11.dtd" >
<svg xmlns="http://www.w3.org/2000/svg">
<metadata>
This is a custom SVG webfont generated by Font Squirrel.
Copyright   : Copyright c ShyFonts Type Foundry 2000 All rights reserved
Designer    : ShyFonts Type Foundry
Foundry URL : httpwwwshyfontscom
</metadata>
<defs>
<font id="webfontfmj9z7uc" horiz-adv-x="989" >
<font-face units-per-em="2048" ascent="1638" descent="-410" />
<missing-glyph horiz-adv-x="690" />
<glyph unicode=" "  horiz-adv-x="690" />
<glyph unicode="&#x09;" horiz-adv-x="690" />
<glyph unicode="&#xa0;" horiz-adv-x="690" />
<glyph unicode="!" horiz-adv-x="579" d="M143 25l13 268l250 -23l-13 -274zM190 416l9 936l268 6l-109 -928z" />
<glyph unicode="&#x22;" horiz-adv-x="616" d="M180 1360l217 6l-67 -381l-111 29zM444 1360l215 6l-90 -350l-102 -35z" />
<glyph unicode="#" horiz-adv-x="1370" d="M186 954l13 222l225 8l4 145l211 21l-8 -162l188 8l10 162l211 8l-10 -164l146 4l18 -223l-180 -4l-15 -209h197l-8 -201l-203 -6l-10 -147l-207 -17l10 158l-180 -4l-6 -150l-189 -22l3 166l-156 -4l-33 225h197l6 195zM608 770h183l16 201l-186 -4z" />
<glyph unicode="$" horiz-adv-x="1331" d="M63 940q0 252 422 369l-8 153l168 27l6 -141q78 14 170 24q113 12 191 17l-19 -306q-66 0 -176 -4q-84 -4 -158 -12l13 -315q227 -12 321 -60q164 -80 164 -280q0 -264 -459 -373l9 -199l-150 21l-6 147q-102 -16 -193 -24q-59 -6 -184 -11l-24 267q6 0 22 -1t23 -1h41 q102 0 151 2q23 0 47.5 2t55 5l49.5 5l-17 326q-156 6 -248 38q-135 49 -184 172q-27 68 -27 152zM338 918q0 -125 174 -152l-14 272q-160 -38 -160 -120zM682 565l8 -289q174 43 174 152q0 117 -182 137z" />
<glyph unicode="%" horiz-adv-x="1497" d="M154 152l897 1179l186 -139l-909 -1186zM180 1069q0 117 76 209q74 88 180 88q113 0 180 -86q72 -86 72 -209q0 -120 -74 -209q-74 -88 -180 -88t-180 88t-74 207zM319 1071q0 -51 35 -88q39 -39 80 -39q45 0 80 39q37 37 37 84q0 49 -35 90q-33 39 -80 39q-43 0 -82 -39 q-35 -35 -35 -86zM725 309q0 135 92 239.5t213 104.5t207 -106q86 -109 86 -242q0 -137 -90 -235q-92 -102 -211 -103q-120 0 -209 105q-88 102 -88 237zM879 309q0 -63 43 -119q41 -53 100 -53q57 0 102 51q47 53 47 117q0 66 -43 121q-43 57 -98 57q-51 0 -102 -57 q-49 -56 -49 -117z" />
<glyph unicode="&#x26;" horiz-adv-x="1392" d="M135 979q0 231 608 354q61 12 177 33q33 6 75.5 14.5t87.5 14.5l29 -285l-104 6q-70 4 -107 4q-428 0 -428 -151q0 -147 213 -148q172 0 430 76l107 -858q-211 -31 -299 -39q-154 -14 -230 -14q-487 0 -487 247q0 156 209 293q147 102 334 156q-207 0 -369 53 q-246 76 -246 244zM555 338q0 -133 172 -133q92 0 217 37l-37 319q-352 -57 -352 -223z" />
<glyph unicode="'" horiz-adv-x="374" d="M184 1360l217 6l-67 -381l-113 29z" />
<glyph unicode="(" horiz-adv-x="1118" d="M131 678q0 268 199 528q184 240 428 338l37 -305q-158 -51 -287 -217q-133 -174 -133 -354q0 -209 190 -373q174 -152 373 -170l37 -270q-305 33 -559 254q-285 245 -285 569z" />
<glyph unicode=")" horiz-adv-x="880" d="M139 -150l6 308q180 29 336 184q166 170 166 360q0 194 -160 369q-152 164 -325 211v272q272 -80 487 -315q238 -262 238 -551q0 -297 -248 -551q-217 -224 -500 -287z" />
<glyph unicode="*" horiz-adv-x="874" d="M147 758l244 176l-227 151l119 199l145 -129v197l203 14v-211l155 148l127 -220l-241 -145l266 -195l-127 -184l-190 184l10 -225l-203 -14l6 229l-153 -160z" />
<glyph unicode="+" horiz-adv-x="778" d="M180 518l15 223l200 -4l13 242l229 -4l-12 -250l211 -2l-15 -223l-213 2l-10 -242l-233 10l12 252z" />
<glyph unicode="," horiz-adv-x="587" d="M184 240l217 6l-67 -379l-113 29z" />
<glyph unicode="-" horiz-adv-x="768" d="M186 465v235l629 41l6 -245z" />
<glyph unicode="." horiz-adv-x="600" d="M188 240l218 6l8 -230l-213 -18z" />
<glyph unicode="/" horiz-adv-x="731" d="M31 55l551 1311l204 -72l-528 -1294z" />
<glyph unicode="0" horiz-adv-x="1054" d="M31 723q0 285 121 453q129 184 387 184q262 0 389 -238q102 -186 102 -504q0 -291 -117 -450q-129 -172 -387 -172q-262 0 -389 227q-106 193 -106 500zM258 752q0 -4 1 -16.5t1 -20.5q0 -29 2 -43q12 -182 60 -275q63 -131 206 -131q272 0 273 348q0 213 -41 330 q-61 176 -228 176q-274 1 -274 -368z" />
<glyph unicode="1" horiz-adv-x="681" d="M6 1149l164 184l371 23l98 -1350l-281 -6l-63 1110l-168 -203z" />
<glyph unicode="2" horiz-adv-x="1140" d="M39 45v18q0 47 2 113l4 111l4 110q12 145 47 207q63 109 246 144l79 8t77 6l155 12q168 18 205 103q12 25 12 57q0 102 -286 143q-57 8 -176 17q-102 6 -193 4l-18 305q346 -23 567 -90q381 -121 381 -367q0 -94 -37 -170q-63 -127 -246 -180q-22 -6 -98 -18 q-23 -4 -93.5 -13.5t-119.5 -17.5q-168 -25 -193 -88q-23 -55 -22 -135l731 -50l-20 -274z" />
<glyph unicode="3" horiz-adv-x="1064" d="M23 29l18 274q14 -4 51 -13t55 -16q74 -20 107 -30q126 -31 215 -31q176 0 176 133q0 168 -395 223q-31 2 -123 17l20 291q45 -8 89 -15q57 -8 86 -14q100 -18 174 -19q219 0 219 150q0 143 -396 143q-121 0 -243 -14l22 287q104 -14 344 -56q612 -111 613 -346 q0 -160 -244 -245q-184 -61 -367 -60q176 -45 340 -149q213 -139 213 -291q0 -254 -522 -254q-194 0 -452 35z" />
<glyph unicode="4" horiz-adv-x="1093" d="M55 481l551 842l334 47l119 -1347l-289 -37l-25 299l-669 -58zM326 504l444 41l-45 542z" />
<glyph unicode="5" horiz-adv-x="1126" d="M2 1274l913 92l33 -272l-635 -82q2 -78 29 -133q31 -63 197 -76l215 -19q70 -6 96 -14q184 -41 254 -164q49 -86 49 -209q0 -309 -471 -405q-135 -27 -459 -64l6 303q4 0 24.5 2.5t39.5 4.5q45 2 133 12q92 10 178 18q65 6 86 13q186 43 187 151q0 37 -31 80 q-31 45 -117 57q-55 10 -176 11h-23q-180 0 -266 22q-137 37 -196 150q-29 61 -41 188l-7 102q0 16 -3 49t-5 52q0 8 -2 21.5t-4 31.5q-2 10 -3 38t-1 40z" />
<glyph unicode="6" horiz-adv-x="991" d="M20 473q0 442 140 649q160 244 545 244q10 0 31.5 -1t29.5 -1q20 0 57 -4l-12 -240q-20 4 -29 4h-32q-137 0 -269 -53q-168 -70 -182 -194q101 61 209 61q190 0 328 -131q147 -138 147 -344q0 -209 -143 -340q-135 -123 -326 -123q-193 0 -338 127q-156 137 -156 346z M252 473q0 -96 90 -162q76 -55 172 -55q92 0 160 49q80 59 80 156q0 108 -92 166q-76 49 -179 49q-98 0 -159 -47q-72 -54 -72 -156z" />
<glyph unicode="7" horiz-adv-x="903" d="M8 37l572 1024l-521 59l19 283l880 -129l-663 -1254z" />
<glyph unicode="8" horiz-adv-x="1050" d="M2 375q0 104 78 198q70 84 166 117q-92 20 -160 88q-74 74 -74 174q0 172 152 295q139 115 301 115q117 0 223 -55q121 -61 170 -172q35 -76 35 -131q0 -147 -160 -242q123 -16 211 -100q96 -94 96 -226q0 -195 -192 -323q-164 -113 -354 -113q-137 0 -261 53 q-141 65 -196 185q-35 74 -35 137zM258 385q0 -133 215 -133q109 0 201 31q133 47 133 141q0 135 -217 135q-111 0 -201 -33q-131 -49 -131 -141zM272 961q0 -57 64 -87q43 -20 106.5 -20t126.5 33q78 41 78 100q0 63 -63 90q-49 25 -111 25q-59 0 -125 -37 q-76 -45 -76 -104z" />
<glyph unicode="9" horiz-adv-x="1036" d="M39 59l45 267q227 -94 385 -95q113 0 180 68q66 66 66 195q-92 -49 -191 -50q-188 0 -329 123q-154 133 -154 334q0 207 143 344q137 131 328 131q184 0 336 -133q158 -141 158 -346q0 -350 -93 -584q-131 -313 -405 -313q-16 0 -74 4q-41 2 -106 12q-41 6 -78 12.5 t-70 10.5zM270 903q0 -106 107 -162q83 -43 190 -43q205 0 205 183q0 101 -86 172q-80 68 -172 67.5t-164 -55.5q-80 -66 -80 -162z" />
<glyph unicode=":" horiz-adv-x="385" d="M188 240l218 6l8 -230l-213 -18zM188 948l213 23l13 -244l-217 -6z" />
<glyph unicode=";" horiz-adv-x="540" d="M137 240l217 6l-67 -379l-111 29zM137 948l213 23l12 -244l-217 -6z" />
<glyph unicode="&#x3c;" horiz-adv-x="747" d="M115 651l395 422l145 -174l-290 -260l299 -233l-138 -205z" />
<glyph unicode="=" horiz-adv-x="952" d="M160 608v232l614 47l6 -230zM160 483l637 25l20 -221l-653 -17z" />
<glyph unicode="&#x3e;" horiz-adv-x="954" d="M156 827l155 168l463 -407l-428 -451l-143 230l289 200z" />
<glyph unicode="?" horiz-adv-x="1355" d="M115 33l18 252l283 -2l-25 -263zM137 393q6 229 189 301q51 20 133 29q90 10 223 12q217 6 262 76q31 41 31 82q0 96 -287 149q-170 31 -364 37l-11 305q163 -15 301 -43q147 -29 256 -69q379 -133 379 -369q0 -106 -49 -192q-70 -125 -272 -166q-43 -4 -85 -9.5 t-81 -9.5l-164 -18q-166 -29 -172 -133z" />
<glyph unicode="@" horiz-adv-x="1542" d="M160 678q0 276 172 481q172 207 420 207q249 0 424 -209q178 -209 178 -485q0 -281 -174 -475q-176 -197 -420 -197q-250 0 -424 199q-176 200 -176 479zM299 678q0 -217 133 -369l217 871l180 -9l281 -831q104 137 104 332q0 217 -135 377q-135 162 -327.5 161.5 t-321.5 -159.5q-131 -158 -131 -373zM465 274q127 -121 295 -120q154 0 278 110l-108 -6l-49 184l-226 -28l-28 -158zM682 571l168 21l-98 346z" />
<glyph unicode="A" d="M-4 2l244 1354l270 10l530 -1300l-297 -39l-92 268l-329 -72l-27 -231zM348 463l244 47l-176 500z" />
<glyph unicode="B" horiz-adv-x="1099" d="M6 1362q147 12 289 12q690 0 690 -246q0 -125 -170 -251q-121 -90 -272 -144q182 -4 348 -63q233 -83 233 -234q0 -203 -436 -330q-141 -41 -287 -67q-143 -27 -311 -39zM236 1159l16 -307q348 25 348 178q0 141 -221 141q-51 0 -143 -12zM303 578l21 -338q426 2 426 192 q0 160 -263 160q-25 0 -86 -4q-26 -2 -98 -10z" />
<glyph unicode="C" horiz-adv-x="974" d="M14 565q0 223 269 477q201 190 450 324l66 -301q-164 -70 -295 -176q-176 -145 -176 -287q0 -180 262 -254q145 -42 322 -42q34 0 69 1l63 -264q-350 0 -589 76q-365 117 -435 381q-6 20 -6 65z" />
<glyph unicode="D" horiz-adv-x="1138" d="M27 0l118 1360q156 -35 330 -100q143 -53 295 -140q397 -227 397 -510q0 -309 -452 -479q-311 -117 -688 -131zM299 270q211 6 358 64q223 86 224 264q0 160 -193 279q-133 84 -321 135z" />
<glyph unicode="E" horiz-adv-x="958" d="M2 1317l875 100l22 -284l-598 -70l33 -287l375 41l20 -246l-444 -43l22 -268l641 76l19 -264l-858 -99z" />
<glyph unicode="F" horiz-adv-x="964" d="M16 4l80 1364l940 -53l-20 -250l-594 39l-21 -268l355 -29l-19 -270l-418 26l-32 -563z" />
<glyph unicode="G" horiz-adv-x="1193" d="M23 795q0 329 460 473q295 94 707 94l-37 -315q-166 35 -358 34q-500 0 -500 -288q0 -170 227 -301q145 -88 365 -148l22 199l-180 32v218l442 -64l-79 -729q-162 41 -342 113q-154 61 -310 151q-417 244 -417 531z" />
<glyph unicode="H" horiz-adv-x="1044" d="M51 1325l291 14l41 -514l299 25l-49 522l278 37l105 -1350l-299 -39l-58 588l-305 -26l39 -580l-237 -35z" />
<glyph unicode="I" horiz-adv-x="466" d="M78 25l59 1347l279 -24l-70 -1352z" />
<glyph unicode="J" horiz-adv-x="1069" d="M49 387l172 193q35 -55 82 -117q37 -45 90 -101q127 -127 221 -126q156 0 156 344q0 328 -106 753l294 68q61 -495 62 -701q0 -528 -213 -675q-90 -57 -172 -58q-139 0 -324 148q-137 114 -262 272z" />
<glyph unicode="K" horiz-adv-x="1038" d="M16 1319l240 41l53 -565l355 612l280 -31l-403 -684l546 -459l-247 -180l-508 502l47 -555l-234 -27z" />
<glyph unicode="L" horiz-adv-x="798" d="M-25 1360l252 14l95 -1091l499 59l21 -256l-733 -86z" />
<glyph unicode="M" horiz-adv-x="1372" d="M41 109l180 1335l307 -37l158 -913l158 901l422 -33l53 -1362l-303 14l-62 1121l-192 -1069l-180 2l-119 948l-137 -948z" />
<glyph unicode="N" horiz-adv-x="1089" d="M27 1335l325 11l367 -897l-74 923l303 -2l109 -1331l-309 -29l-418 977l47 -995l-283 4z" />
<glyph unicode="O" horiz-adv-x="1245" d="M27 671.5q0 286.5 172 489.5q174 205 428 205q252 0 430 -197q174 -193 174 -479q0 -289 -170 -485q-172 -205 -430 -205q-256 0 -430 192.5t-174 479zM289 676q0 -168 92 -280.5t240 -112.5q150 0 245 133q90 125 90 293q0 162 -90 276q-92 117 -237 117 q-150 0 -248 -133q-92 -123 -92 -293z" />
<glyph unicode="P" horiz-adv-x="1003" d="M6 1343q61 4 92 5q14 0 45 1t47 1q299 0 508 -62q338 -98 338 -332q0 -195 -282 -346q-184 -98 -441 -161l31 -449l-264 4zM221 1133l27 -410q492 37 491 229q0 190 -364 191q-51 0 -76 -2q-58 -4 -78 -8z" />
<glyph unicode="Q" horiz-adv-x="1218" d="M-27 709q0 280 172 467q172 190 424 190q258 0 435 -211q174 -207 174 -496q0 -205 -88 -360l253 -219l-182 -207l-233 246q-160 -117 -348 -117q-256 0 -435 211q-172 205 -172 496zM203 700q0 -178 108 -311q111 -131 269 -131q92 0 172 41l-107 113l105 186l153 -137 q43 92 43 201q0 184 -104 313q-111 135 -273 135q-152 0 -260 -119q-106 -115 -106 -291z" />
<glyph unicode="R" horiz-adv-x="1112" d="M18 4l64 1364q354 -23 596 -106q389 -137 389 -408q0 -262 -381 -416q37 -154 121 -209q74 -49 223 -49q6 0 19.5 1t19.5 1q10 0 39 4l-39 -241q-410 20 -534 155q-63 68 -119 250q-53 -14 -121 -24l-14 -326zM264 592q168 12 281 61q178 74 178 211t-168 205 q-117 45 -270 53z" />
<glyph unicode="S" horiz-adv-x="1112" d="M27 930q0 238 379 364q229 80 563 105l-13 -307q-205 -4 -366 -27q-289 -47 -289 -150q0 -39 29 -79q43 -66 219 -78q285 -18 315 -25q180 -37 236 -166q29 -70 28 -143q0 -240 -399 -367q-264 -82 -575 -90l-27 264q33 -2 80 -2q66 0 237 15q152 12 236 39 q156 45 156 153q0 39 -25 74q-35 51 -211 61q-252 12 -311 27q-174 43 -234 182q-28 74 -28 150z" />
<glyph unicode="T" horiz-adv-x="972" d="M16 1118l7 268l981 -67l-17 -268l-366 16l-56 -1067l-274 2l61 1081z" />
<glyph unicode="U" horiz-adv-x="1210" d="M47 1296l307 27q-2 -45 -2 -145q0 -301 49 -525q80 -358 258 -358q254 0 254 512q0 150 -14 280q-14 139 -43 285l274 51q16 -104 27 -239q10 -137 10 -250q0 -702 -303 -879q-98 -55 -205 -55q-303 0 -471 504q-123 366 -141 792z" />
<glyph unicode="V" horiz-adv-x="1050" d="M-29 1264l322 57l315 -1042l137 1095l332 29l-254 -1383l-352 -51z" />
<glyph unicode="W" horiz-adv-x="1341" d="M2 1366l297 -4l100 -1053l125 1002l226 2l118 -1061l205 1067l287 -37l-258 -1319l-389 10l-74 822l-125 -795l-354 2z" />
<glyph unicode="X" horiz-adv-x="1079" d="M-66 1321l248 39l310 -549l223 588l305 -19l-373 -702l510 -541l-313 -96l-336 451l-207 -492l-285 14l340 613z" />
<glyph unicode="Y" horiz-adv-x="927" d="M39 1276l262 78l254 -523l150 549l268 25l-262 -776l10 -598l-242 -31l-6 561z" />
<glyph unicode="Z" horiz-adv-x="1107" d="M-8 80l739 1032l-563 49l12 273l1010 -111l-703 -1016l519 -65l-37 -242z" />
<glyph unicode="[" horiz-adv-x="655" d="M100 55l86 1346l519 -25l-11 -176l-336 8l-65 -979l325 -26l-14 -203z" />
<glyph unicode="\" horiz-adv-x="1048" d="M119 1294l205 72l553 -1311l-228 -55z" />
<glyph unicode="]" horiz-adv-x="851" d="M168 1366l424 14l72 -1362l-457 -18l-10 176l270 21l-49 995l-242 -2z" />
<glyph unicode="^" horiz-adv-x="1142" d="M156 549l260 817l205 -6l350 -785l-215 -36l-213 505l-168 -522z" />
<glyph unicode="_" horiz-adv-x="690" d="M0 0v137h690v-137h-690z" />
<glyph unicode="`" horiz-adv-x="434" d="M174 1790l156 49l137 -301l-105 -53z" />
<glyph unicode="a" d="M-4 2l244 1354l270 10l530 -1300l-297 -39l-92 268l-329 -72l-27 -231zM348 463l244 47l-176 500z" />
<glyph unicode="b" horiz-adv-x="1099" d="M6 1362q147 12 289 12q690 0 690 -246q0 -125 -170 -251q-121 -90 -272 -144q182 -4 348 -63q233 -83 233 -234q0 -203 -436 -330q-141 -41 -287 -67q-143 -27 -311 -39zM236 1159l16 -307q348 25 348 178q0 141 -221 141q-51 0 -143 -12zM303 578l21 -338q426 2 426 192 q0 160 -263 160q-25 0 -86 -4q-26 -2 -98 -10z" />
<glyph unicode="c" horiz-adv-x="974" d="M14 565q0 223 269 477q201 190 450 324l66 -301q-164 -70 -295 -176q-176 -145 -176 -287q0 -180 262 -254q145 -42 322 -42q34 0 69 1l63 -264q-350 0 -589 76q-365 117 -435 381q-6 20 -6 65z" />
<glyph unicode="d" horiz-adv-x="1138" d="M27 0l118 1360q156 -35 330 -100q143 -53 295 -140q397 -227 397 -510q0 -309 -452 -479q-311 -117 -688 -131zM299 270q211 6 358 64q223 86 224 264q0 160 -193 279q-133 84 -321 135z" />
<glyph unicode="e" horiz-adv-x="958" d="M2 1317l875 100l22 -284l-598 -70l33 -287l375 41l20 -246l-444 -43l22 -268l641 76l19 -264l-858 -99z" />
<glyph unicode="f" horiz-adv-x="964" d="M16 4l80 1364l940 -53l-20 -250l-594 39l-21 -268l355 -29l-19 -270l-418 26l-32 -563z" />
<glyph unicode="g" horiz-adv-x="1193" d="M23 795q0 329 460 473q295 94 707 94l-37 -315q-166 35 -358 34q-500 0 -500 -288q0 -170 227 -301q145 -88 365 -148l22 199l-180 32v218l442 -64l-79 -729q-162 41 -342 113q-154 61 -310 151q-417 244 -417 531z" />
<glyph unicode="h" horiz-adv-x="1044" d="M51 1325l291 14l41 -514l299 25l-49 522l278 37l105 -1350l-299 -39l-58 588l-305 -26l39 -580l-237 -35z" />
<glyph unicode="i" horiz-adv-x="466" d="M78 25l59 1347l279 -24l-70 -1352z" />
<glyph unicode="j" horiz-adv-x="1069" d="M49 387l172 193q35 -55 82 -117q37 -45 90 -101q127 -127 221 -126q156 0 156 344q0 328 -106 753l294 68q61 -495 62 -701q0 -528 -213 -675q-90 -57 -172 -58q-139 0 -324 148q-137 114 -262 272z" />
<glyph unicode="k" horiz-adv-x="1038" d="M16 1319l240 41l53 -565l355 612l280 -31l-403 -684l546 -459l-247 -180l-508 502l47 -555l-234 -27z" />
<glyph unicode="l" horiz-adv-x="798" d="M-25 1360l252 14l95 -1091l499 59l21 -256l-733 -86z" />
<glyph unicode="m" horiz-adv-x="1372" d="M41 109l180 1335l307 -37l158 -913l158 901l422 -33l53 -1362l-303 14l-62 1121l-192 -1069l-180 2l-119 948l-137 -948z" />
<glyph unicode="n" horiz-adv-x="1089" d="M27 1335l325 11l367 -897l-74 923l303 -2l109 -1331l-309 -29l-418 977l47 -995l-283 4z" />
<glyph unicode="o" horiz-adv-x="1245" d="M27 671.5q0 286.5 172 489.5q174 205 428 205q252 0 430 -197q174 -193 174 -479q0 -289 -170 -485q-172 -205 -430 -205q-256 0 -430 192.5t-174 479zM289 676q0 -168 92 -280.5t240 -112.5q150 0 245 133q90 125 90 293q0 162 -90 276q-92 117 -237 117 q-150 0 -248 -133q-92 -123 -92 -293z" />
<glyph unicode="p" horiz-adv-x="1003" d="M6 1343q61 4 92 5q14 0 45 1t47 1q299 0 508 -62q338 -98 338 -332q0 -195 -282 -346q-184 -98 -441 -161l31 -449l-264 4zM221 1133l27 -410q492 37 491 229q0 190 -364 191q-51 0 -76 -2q-58 -4 -78 -8z" />
<glyph unicode="q" horiz-adv-x="1218" d="M-27 709q0 280 172 467q172 190 424 190q258 0 435 -211q174 -207 174 -496q0 -205 -88 -360l253 -219l-182 -207l-233 246q-160 -117 -348 -117q-256 0 -435 211q-172 205 -172 496zM203 700q0 -178 108 -311q111 -131 269 -131q92 0 172 41l-107 113l105 186l153 -137 q43 92 43 201q0 184 -104 313q-111 135 -273 135q-152 0 -260 -119q-106 -115 -106 -291z" />
<glyph unicode="r" horiz-adv-x="1112" d="M18 4l64 1364q354 -23 596 -106q389 -137 389 -408q0 -262 -381 -416q37 -154 121 -209q74 -49 223 -49q6 0 19.5 1t19.5 1q10 0 39 4l-39 -241q-410 20 -534 155q-63 68 -119 250q-53 -14 -121 -24l-14 -326zM264 592q168 12 281 61q178 74 178 211t-168 205 q-117 45 -270 53z" />
<glyph unicode="s" horiz-adv-x="1112" d="M27 930q0 238 379 364q229 80 563 105l-13 -307q-205 -4 -366 -27q-289 -47 -289 -150q0 -39 29 -79q43 -66 219 -78q285 -18 315 -25q180 -37 236 -166q29 -70 28 -143q0 -240 -399 -367q-264 -82 -575 -90l-27 264q33 -2 80 -2q66 0 237 15q152 12 236 39 q156 45 156 153q0 39 -25 74q-35 51 -211 61q-252 12 -311 27q-174 43 -234 182q-28 74 -28 150z" />
<glyph unicode="t" horiz-adv-x="972" d="M16 1118l7 268l981 -67l-17 -268l-366 16l-56 -1067l-274 2l61 1081z" />
<glyph unicode="u" horiz-adv-x="1210" d="M47 1296l307 27q-2 -45 -2 -145q0 -301 49 -525q80 -358 258 -358q254 0 254 512q0 150 -14 280q-14 139 -43 285l274 51q16 -104 27 -239q10 -137 10 -250q0 -702 -303 -879q-98 -55 -205 -55q-303 0 -471 504q-123 366 -141 792z" />
<glyph unicode="v" horiz-adv-x="1050" d="M-29 1264l322 57l315 -1042l137 1095l332 29l-254 -1383l-352 -51z" />
<glyph unicode="w" horiz-adv-x="1341" d="M2 1366l297 -4l100 -1053l125 1002l226 2l118 -1061l205 1067l287 -37l-258 -1319l-389 10l-74 822l-125 -795l-354 2z" />
<glyph unicode="x" horiz-adv-x="1079" d="M-66 1321l248 39l310 -549l223 588l305 -19l-373 -702l510 -541l-313 -96l-336 451l-207 -492l-285 14l340 613z" />
<glyph unicode="y" horiz-adv-x="927" d="M39 1276l262 78l254 -523l150 549l268 25l-262 -776l10 -598l-242 -31l-6 561z" />
<glyph unicode="z" horiz-adv-x="1107" d="M-8 80l739 1032l-563 49l12 273l1010 -111l-703 -1016l519 -65l-37 -242z" />
<glyph unicode="{" horiz-adv-x="768" d="M129 600l18 266h29q90 0 131 47q29 35 37 113l4 78l6 76q6 41 27 84q23 45 43 65q25 25 61 41q31 14 78 14q2 0 10.5 -1t25.5 -2t36 -1l91.5 -7t96.5 -7l-16 -233q-33 2 -56.5 5t-37.5 3q-23 2 -41 2q-117 0 -135 -135q0 -43 -11 -162q-16 -76 -100 -105 q-68 -23 -147 -16q68 -6 129 -37q86 -41 86 -98q0 -31 -2 -49q-6 -55 -8.5 -67.5t-8.5 -67.5q-2 -18 -2 -50q0 -59 43 -96q41 -33 94 -41q31 0 176 -10l-14 -209q-12 2 -57 6t-76 8q-86 10 -188 25q-78 16 -121 55q-59 49 -60 123q0 49 9 121q10 88 10 119q0 59 -53 102 q-44 31 -107 41z" />
<glyph unicode="|" horiz-adv-x="559" d="M168 1501l203 -8l-6 -1628l-193 16z" />
<glyph unicode="}" horiz-adv-x="813" d="M147 0l21 233q115 -12 133 -12q119 0 135 137q0 14 4 68q0 6 2 39t4 55q12 74 103 105q61 20 147 14q-23 2 -67 14q-31 8 -64 25q-84 41 -84 98q0 49 8 117q4 20 9 68q2 20 2 49q0 57 -43 94q-33 31 -95 41l-174 12l13 209l135 -14q86 -10 188 -25q72 -12 121 -55 q57 -49 57 -125q0 -29 -2 -49q-6 -53 -8 -72q-8 -72 -8 -119q0 -57 55 -100q47 -35 105 -41l-19 -268h-26q-94 0 -131 -45q-31 -33 -37 -113q0 -20 -2 -38.5t-4 -39.5q0 -12 -1 -37.5t-3 -38.5q-14 -96 -70 -149q-53 -53 -141 -53q-2 0 -10.5 1t-26 2t-35.5 1q-65 3 -191 12 z" />
<glyph unicode="~" horiz-adv-x="1157" d="M166 768q37 47 67 76q25 23 78 63q100 76 172 76q57 0 95 -49q14 -23 26 -45q6 -12 13.5 -22.5t13.5 -22.5q29 -49 65 -49q78 0 142 151l196 -151q-16 -31 -57 -84q-27 -35 -64 -72q-92 -88 -159 -88q-63 0 -121 96q-58 98 -117 98q-111 0 -233 -180z" />
<glyph horiz-adv-x="587" d="M184 240l217 6l-67 -379l-113 29z" />
<glyph unicode="&#x201a;" horiz-adv-x="587" d="M184 240l217 6l-67 -379l-113 29z" />
<glyph horiz-adv-x="845" d="M182 221l217 8l-67 -379l-111 29zM444 221l218 8l-91 -348l-102 -37z" />
<glyph unicode="&#x201e;" horiz-adv-x="845" d="M182 221l217 8l-67 -379l-111 29zM444 221l218 8l-91 -348l-102 -37z" />
<glyph unicode="&#x85;" horiz-adv-x="1189" d="M190 240l216 6l10 -230l-213 -18zM485 20l11 238l204 -29l11 -229zM776 236l217 6l4 -256l-202 14z" />
<glyph unicode="&#x2026;" horiz-adv-x="1189" d="M190 240l216 6l10 -230l-213 -18zM485 20l11 238l204 -29l11 -229zM776 236l217 6l4 -256l-202 14z" />
<glyph horiz-adv-x="804" d="M160 877v215l256 -7l-8 281h196l2 -281l256 7l-4 -215l-252 -7v-1138l-198 -4l10 1142z" />
<glyph unicode="&#x2020;" horiz-adv-x="804" d="M160 877v215l256 -7l-8 281h196l2 -281l256 7l-4 -215l-252 -7v-1138l-198 -4l10 1142z" />
<glyph horiz-adv-x="1032" d="M168 877l2 215l254 -7l-6 281h194l2 -281l256 7l-4 -215l-250 -7l2 -303l250 2v-200l-247 6l-5 -643l-198 -4l4 641h-234v200l238 -6v307z" />
<glyph unicode="&#x2021;" horiz-adv-x="1032" d="M168 877l2 215l254 -7l-6 281h194l2 -281l256 7l-4 -215l-250 -7l2 -303l250 2v-200l-247 6l-5 -643l-198 -4l4 641h-234v200l238 -6v307z" />
<glyph horiz-adv-x="544" d="M172 1503l158 258l100 -4l156 -248l-117 -20l-92 160l-92 -166z" />
<glyph unicode="&#x2c6;" horiz-adv-x="544" d="M172 1503l158 258l100 -4l156 -248l-117 -20l-92 160l-92 -166z" />
<glyph horiz-adv-x="1841" d="M106 152l895 1179l189 -139l-909 -1186zM133 1069q0 117 76 209q74 88 180 88q113 0 180 -86q72 -86 72 -209q0 -120 -74 -209q-74 -88 -180 -88t-180 88t-74 207zM270 1071q0 -47 37 -88q39 -39 80 -39q46 0 80 37q37 37 37 86t-35 90q-33 39 -80 39q-43 0 -82 -39 q-37 -37 -37 -86zM678 309q0 135 92 239.5t213 104.5q160 0 250 -172q74 92 184 92q109 0 178 -88q74 -86 74 -206q0 -119 -73.5 -207t-180.5 -88q-131 0 -205 116q-96 -133 -235 -133q-120 0 -209 105q-88 106 -88 237zM831 309q0 -66 41 -119t103 -53q57 0 102 51.5 t45 117t-43 120.5q-43 57 -96 57t-104 -57q-48 -54 -48 -117zM1298 279q0 -47 35 -89q39 -39 82 -38.5t80 37t37 85.5q0 45 -37 88q-35 41 -78 41t-82 -38q-37 -37 -37 -86z" />
<glyph unicode="&#x2030;" horiz-adv-x="1841" d="M106 152l895 1179l189 -139l-909 -1186zM133 1069q0 117 76 209q74 88 180 88q113 0 180 -86q72 -86 72 -209q0 -120 -74 -209q-74 -88 -180 -88t-180 88t-74 207zM270 1071q0 -47 37 -88q39 -39 80 -39q46 0 80 37q37 37 37 86t-35 90q-33 39 -80 39q-43 0 -82 -39 q-37 -37 -37 -86zM678 309q0 135 92 239.5t213 104.5q160 0 250 -172q74 92 184 92q109 0 178 -88q74 -86 74 -206q0 -119 -73.5 -207t-180.5 -88q-131 0 -205 116q-96 -133 -235 -133q-120 0 -209 105q-88 106 -88 237zM831 309q0 -66 41 -119t103 -53q57 0 102 51.5 t45 117t-43 120.5q-43 57 -96 57t-104 -57q-48 -54 -48 -117zM1298 279q0 -47 35 -89q39 -39 82 -38.5t80 37t37 85.5q0 45 -37 88q-35 41 -78 41t-82 -38q-37 -37 -37 -86z" />
<glyph horiz-adv-x="1112" d="M27 930q0 238 379 364q229 80 563 105l-13 -307q-205 -4 -366 -27q-289 -47 -289 -150q0 -39 29 -79q43 -66 219 -78q285 -18 315 -25q180 -37 236 -166q29 -70 28 -143q0 -240 -399 -367q-264 -82 -575 -90l-27 264q33 -2 80 -2q66 0 237 15q152 12 236 39 q156 45 156 153q0 39 -25 74q-35 51 -211 61q-252 12 -311 27q-174 43 -234 182q-28 74 -28 150zM264 1741l113 20l92 -166l92 160l117 -18l-156 -250l-100 -4z" />
<glyph unicode="&#x160;" horiz-adv-x="1112" d="M27 930q0 238 379 364q229 80 563 105l-13 -307q-205 -4 -366 -27q-289 -47 -289 -150q0 -39 29 -79q43 -66 219 -78q285 -18 315 -25q180 -37 236 -166q29 -70 28 -143q0 -240 -399 -367q-264 -82 -575 -90l-27 264q33 -2 80 -2q66 0 237 15q152 12 236 39 q156 45 156 153q0 39 -25 74q-35 51 -211 61q-252 12 -311 27q-174 43 -234 182q-28 74 -28 150zM264 1741l113 20l92 -166l92 160l117 -18l-156 -250l-100 -4z" />
<glyph horiz-adv-x="747" d="M147 618l308 330l92 -194l-211 -136l237 -114l-96 -158z" />
<glyph unicode="&#x2039;" horiz-adv-x="747" d="M147 618l308 330l92 -194l-211 -136l237 -114l-96 -158z" />
<glyph horiz-adv-x="1726" d="M27 671.5q0 286.5 172 489.5q174 205 428 205q166 0 309 -90l-6 49l715 78l22 -283l-436 -47l10 -248l215 19l37 -285l-281 -18l25 -271l479 54l19 -267l-699 -71l-14 178q-168 -164 -391 -164q-256 0 -430 192.5t-174 479zM289 676q0 -168 92 -280.5t240 -112.5 q150 0 245 133q90 125 90 293q0 162 -90 276q-92 117 -237.5 117t-247.5 -133q-92 -125 -92 -293z" />
<glyph unicode="&#x152;" horiz-adv-x="1726" d="M27 671.5q0 286.5 172 489.5q174 205 428 205q166 0 309 -90l-6 49l715 78l22 -283l-436 -47l10 -248l215 19l37 -285l-281 -18l25 -271l479 54l19 -267l-699 -71l-14 178q-168 -164 -391 -164q-256 0 -430 192.5t-174 479zM289 676q0 -168 92 -280.5t240 -112.5 q150 0 245 133q90 125 90 293q0 162 -90 276q-92 117 -237.5 117t-247.5 -133q-92 -125 -92 -293z" />
<glyph horiz-adv-x="378" d="M180 1360l182 6l44 -381l-109 29z" />
<glyph unicode="&#x2018;" horiz-adv-x="378" d="M180 1360l182 6l44 -381l-109 29z" />
<glyph horiz-adv-x="380" d="M180 1022l49 334l181 10l-117 -373z" />
<glyph unicode="&#x2019;" horiz-adv-x="380" d="M180 1022l49 334l181 10l-117 -373z" />
<glyph horiz-adv-x="645" d="M176 1360l193 6l86 -387l-111 29zM436 1360l195 6l61 -356l-102 -37z" />
<glyph unicode="&#x201c;" horiz-adv-x="645" d="M176 1360l193 6l86 -387l-111 29zM436 1360l195 6l61 -356l-102 -37z" />
<glyph horiz-adv-x="651" d="M176 1010l70 342l188 14l-149 -385zM422 975l88 377l188 14l-172 -356z" />
<glyph unicode="&#x201d;" horiz-adv-x="651" d="M176 1010l70 342l188 14l-149 -385zM422 975l88 377l188 14l-172 -356z" />
<glyph horiz-adv-x="1021" d="M193 594q0 354 321 354q131 0 225.5 -102.5t94.5 -251.5q0 -84 -23 -152q-20 -63 -66 -110q-41 -45 -104 -70q-55 -23 -137 -22q-144 0 -228 98q-83 100 -83 256z" />
<glyph unicode="&#x2022;" horiz-adv-x="1021" d="M193 594q0 354 321 354q131 0 225.5 -102.5t94.5 -251.5q0 -84 -23 -152q-20 -63 -66 -110q-41 -45 -104 -70q-55 -23 -137 -22q-144 0 -228 98q-83 100 -83 256z" />
<glyph horiz-adv-x="788" d="M188 465v235l404 27l6 -248z" />
<glyph unicode="&#x2013;" horiz-adv-x="788" d="M188 465v235l404 27l6 -248z" />
<glyph horiz-adv-x="925" d="M188 465v235l799 35l6 -248z" />
<glyph unicode="&#x2014;" horiz-adv-x="925" d="M188 465v235l799 35l6 -248z" />
<glyph horiz-adv-x="677" d="M172 1616q111 166 209 166q45 0 75.5 -57.5t63.5 -57.5q49 0 101 92l106 -73q-100 -193 -197 -193q-53 0 -73 82q-23 84 -64 84q-72 0 -123 -150z" />
<glyph unicode="&#x2dc;" horiz-adv-x="677" d="M172 1616q111 166 209 166q45 0 75.5 -57.5t63.5 -57.5q49 0 101 92l106 -73q-100 -193 -197 -193q-53 0 -73 82q-23 84 -64 84q-72 0 -123 -150z" />
<glyph horiz-adv-x="880" d="M176 1262v100l352 -27l7 31l114 -14l60 -342l59 338l160 -13l16 -512l-110 6l-25 420l-72 -401l-67 2l-45 354l-52 -356l-104 16l47 373l-115 4l-20 -399l-102 2l20 403z" />
<glyph unicode="&#x2122;" horiz-adv-x="880" d="M176 1262v100l352 -27l7 31l114 -14l60 -342l59 338l160 -13l16 -512l-110 6l-25 420l-72 -401l-67 2l-45 354l-52 -356l-104 16l47 373l-115 4l-20 -399l-102 2l20 403z" />
<glyph horiz-adv-x="1112" d="M27 930q0 238 379 364q229 80 563 105l-13 -307q-205 -4 -366 -27q-289 -47 -289 -150q0 -39 29 -79q43 -66 219 -78q285 -18 315 -25q180 -37 236 -166q29 -70 28 -143q0 -240 -399 -367q-264 -82 -575 -90l-27 264q33 -2 80 -2q66 0 237 15q152 12 236 39 q156 45 156 153q0 39 -25 74q-35 51 -211 61q-252 12 -311 27q-174 43 -234 182q-28 74 -28 150zM264 1741l113 20l92 -166l92 160l117 -18l-156 -250l-100 -4z" />
<glyph unicode="&#x161;" horiz-adv-x="1112" d="M27 930q0 238 379 364q229 80 563 105l-13 -307q-205 -4 -366 -27q-289 -47 -289 -150q0 -39 29 -79q43 -66 219 -78q285 -18 315 -25q180 -37 236 -166q29 -70 28 -143q0 -240 -399 -367q-264 -82 -575 -90l-27 264q33 -2 80 -2q66 0 237 15q152 12 236 39 q156 45 156 153q0 39 -25 74q-35 51 -211 61q-252 12 -311 27q-174 43 -234 182q-28 74 -28 150zM264 1741l113 20l92 -166l92 160l117 -18l-156 -250l-100 -4z" />
<glyph horiz-adv-x="520" d="M168 748l100 157l291 -287l-276 -305l-113 162l205 141z" />
<glyph unicode="&#x203a;" horiz-adv-x="520" d="M168 748l100 157l291 -287l-276 -305l-113 162l205 141z" />
<glyph horiz-adv-x="1726" d="M27 671.5q0 286.5 172 489.5q174 205 428 205q166 0 309 -90l-6 49l715 78l22 -283l-436 -47l10 -248l215 19l37 -285l-281 -18l25 -271l479 54l19 -267l-699 -71l-14 178q-168 -164 -391 -164q-256 0 -430 192.5t-174 479zM289 676q0 -168 92 -280.5t240 -112.5 q150 0 245 133q90 125 90 293q0 162 -90 276q-92 117 -237.5 117t-247.5 -133q-92 -125 -92 -293z" />
<glyph unicode="&#x153;" horiz-adv-x="1726" d="M27 671.5q0 286.5 172 489.5q174 205 428 205q166 0 309 -90l-6 49l715 78l22 -283l-436 -47l10 -248l215 19l37 -285l-281 -18l25 -271l479 54l19 -267l-699 -71l-14 178q-168 -164 -391 -164q-256 0 -430 192.5t-174 479zM289 676q0 -168 92 -280.5t240 -112.5 q150 0 245 133q90 125 90 293q0 162 -90 276q-92 117 -237.5 117t-247.5 -133q-92 -125 -92 -293z" />
<glyph horiz-adv-x="927" d="M39 1276l262 78l254 -523l150 549l268 25l-262 -776l10 -598l-242 -31l-6 561zM188 1597q0 119 111 119q109 0 109 -119q0 -31 -9 -49q-10 -25 -22 -37q-20 -20 -35 -26q-18 -8 -43 -8q-111 -1 -111 120zM582 1604q0 127 129 127q49 0 86 -37q39 -37 39 -90 q0 -127 -125 -127q-53 0 -90 34q-39 40 -39 93z" />
<glyph unicode="&#x178;" horiz-adv-x="927" d="M39 1276l262 78l254 -523l150 549l268 25l-262 -776l10 -598l-242 -31l-6 561zM188 1597q0 119 111 119q109 0 109 -119q0 -31 -9 -49q-10 -25 -22 -37q-20 -20 -35 -26q-18 -8 -43 -8q-111 -1 -111 120zM582 1604q0 127 129 127q49 0 86 -37q39 -37 39 -90 q0 -127 -125 -127q-53 0 -90 34q-39 40 -39 93z" />
<glyph unicode="&#xa1;" horiz-adv-x="612" d="M129 -156l154 920l168 4l-54 -934zM242 924l26 276l246 -45l-25 -266z" />
<glyph unicode="&#xa2;" horiz-adv-x="980" d="M139 938q0 248 422 340l31 178l147 -14l-22 -137q90 10 164 12l-39 -275q-82 14 -162 17l-57 -352q82 -23 176 -33l-49 -246q-4 2 -31 11.5l-43 15.5q-53 20 -84 34l-25 -149l-141 12l31 203q-318 176 -318 383zM354 891q0 -86 109 -146l43 285q-152 -30 -152 -139z" />
<glyph unicode="&#xa3;" horiz-adv-x="1034" d="M145 471q0 729 287 887q70 39 148 39q141 0 290 -127q119 -100 217 -260l-190 -168q-141 283 -309 282q-154 0 -178 -395l301 -35l-15 -176l-290 37q0 -47 4 -149q2 -51 14 -162l432 -60l-33 -225l-663 76q0 2 -1 26.5t-1 45t-3 71.5t-3 76q-4 90 -5 121q0 18 -1 51 t-1 45z" />
<glyph unicode="&#xa4;" horiz-adv-x="1191" d="M125 985l133 170l145 -162q94 76 207 76q100 0 193 -68l135 170l139 -194l-141 -143q37 -86 37 -183q0 -78 -29 -153l195 -131l-133 -179l-179 144q-98 -86 -215 -86q-94 0 -176 57l-112 -151l-162 172l137 141q-47 92 -47 197q0 102 33 180zM434 653.5 q0 -75.5 55.5 -139t120.5 -63.5q74 0 125 61q53 63 53 141q0 74 -53 144q-51 68 -123 67q-68 0 -123 -67.5t-55 -143z" />
<glyph unicode="&#xa5;" horiz-adv-x="1161" d="M160 1337l274 37l184 -557l218 522l268 -18l-350 -713h235l-22 -159l-238 2l-14 -140l231 -6l-12 -153l-236 4l-16 -156l-244 6l19 154l-174 2l8 157l182 -4l16 136l-190 2l-18 159l202 -2z" />
<glyph unicode="&#xa6;" horiz-adv-x="571" d="M176 567l203 -10l-4 -692l-193 16zM176 809l6 688l193 16l4 -694z" />
<glyph unicode="&#xa8;" horiz-adv-x="778" d="M188 1597q0 119 111 119q109 0 109 -119q0 -31 -9 -49q-10 -25 -22 -37q-20 -20 -35 -26q-18 -8 -43 -8q-111 -1 -111 120zM582 1604q0 127 129 127q49 0 86 -37q39 -37 39 -90q0 -127 -125 -127q-53 0 -90 34q-39 40 -39 93z" />
<glyph unicode="&#xa9;" horiz-adv-x="681" d="M147 197q0 82 105 178q76 76 168 123l24 -113q-176 -74 -176 -174q0 -68 97 -96q72 -18 149 -17l23 -98q-129 0 -234 35q-156 51 -156 162z" />
<glyph unicode="&#xab;" horiz-adv-x="1044" d="M109 578l307 462l131 -125l-238 -331l248 -310l-88 -131zM473 578l281 444l137 -109l-213 -333l219 -310l-104 -102z" />
<glyph unicode="&#xad;" horiz-adv-x="768" d="M186 465v235l629 41l6 -245z" />
<glyph unicode="&#xae;" horiz-adv-x="739" d="M160 25l22 510q121 -6 224 -39q147 -52 147 -154q0 -96 -145 -156q25 -98 131 -98h14q2 0 7 1t7 1l-14 -90q-156 10 -201 59q-23 27 -45 93q-12 -4 -47 -9l-4 -123zM252 244q170 12 170 100t-164 98z" />
<glyph unicode="&#xaf;" horiz-adv-x="690" d="M0 1229v137h690v-137h-690z" />
<glyph unicode="&#xb0;" horiz-adv-x="552" d="M182 1128q0 104 55.5 164t151.5 60q86 0 143 -68q59 -70 60 -162q0 -217 -203 -217q-96 0 -151 58q-56 57 -56 165zM291 1128q0 -104 98 -104q53 0 76 18q20 18 20 80q0 49 -26 78q-29 33 -70 33q-98 -1 -98 -105z" />
<glyph unicode="&#xb1;" horiz-adv-x="995" d="M160 713l14 223l201 -4l12 239l227 -2l-10 -251l209 -3l-12 -221l-213 2l-13 -239l-231 10l12 250zM170 0v238l631 41l6 -248z" />
<glyph unicode="&#xb4;" horiz-adv-x="407" d="M115 1569l123 266l198 -35l-223 -291z" />
<glyph unicode="&#xb6;" horiz-adv-x="1738" d="M117 1010q0 236 338 333q213 61 508 62q4 0 26.5 -1t38.5 -1q23 0 117 -4l686 -33l-14 -227l-213 8l-82 -1292l-238 -21l53 1327l-200 4l-64 -1325l-264 -6l29 670q-262 68 -439 162q-282 150 -282 344z" />
<glyph unicode="&#xb7;" horiz-adv-x="385" d="M190 817l216 6l10 -227l-213 -23z" />
<glyph unicode="&#xbb;" horiz-adv-x="884" d="M145 913l107 105l315 -410l-278 -444l-137 106l213 334zM485 909l88 131l363 -432l-307 -465l-131 127l235 330z" />
<glyph unicode="&#xbf;" horiz-adv-x="1185" d="M106 205q0 178 164 299q4 2 14.5 8t33 17.5t42.5 23.5l222 117q166 86 166 180q0 10 -5 31l281 86q8 -33 12 -68q4 -41 4 -57q0 -170 -174 -277l-319 -147q-172 -80 -172 -185q0 -100 141 -100q195 0 535 121l96 -287q-340 -96 -600 -96q-441 0 -441 334zM674 1227 l268 90l55 -248l-268 -98z" />
<glyph unicode="&#xc0;" d="M-4 2l244 1354l270 10l530 -1300l-297 -39l-92 268l-329 -72l-27 -231zM348 463l244 47l-176 500zM174 1790l156 49l137 -301l-105 -53z" />
<glyph unicode="&#xc1;" d="M-4 2l244 1354l270 10l530 -1300l-297 -39l-92 268l-329 -72l-27 -231zM348 463l244 47l-176 500zM344 1569l123 266l198 -35l-223 -291z" />
<glyph unicode="&#xc2;" d="M-4 2l244 1354l270 10l530 -1300l-297 -39l-92 268l-329 -72l-27 -231zM348 463l244 47l-176 500zM172 1503l158 258l100 -4l156 -248l-117 -20l-92 160l-92 -166z" />
<glyph unicode="&#xc3;" d="M-4 2l244 1354l270 10l530 -1300l-297 -39l-92 268l-329 -72l-27 -231zM348 463l244 47l-176 500zM172 1567q111 166 209 166q45 0 75.5 -57.5t63.5 -57.5q49 0 101 92l106 -73q-100 -193 -197 -193q-53 0 -73 82q-23 84 -64 84q-72 0 -123 -150z" />
<glyph unicode="&#xc4;" d="M-4 2l244 1354l270 10l530 -1300l-297 -39l-92 268l-329 -72l-27 -231zM348 463l244 47l-176 500zM34 1597q0 119 111 119q109 0 109 -119q0 -31 -9 -49q-10 -25 -22 -37q-20 -20 -35 -26q-18 -8 -43 -8q-111 -1 -111 120zM428 1604q0 127 129 127q49 0 86 -37 q39 -37 39 -90q0 -127 -125 -127q-53 0 -90 34q-39 40 -39 93z" />
<glyph unicode="&#xc5;" d="M-4 2l244 1354l270 10l530 -1300l-297 -39l-92 268l-329 -72l-27 -231zM348 463l244 47l-176 500zM182 1698q0 108 56 166q55 57 151 57q86 0 143 -66q59 -70 60 -161q0 -219 -203 -219q-96 0 -151.5 59.5t-55.5 163.5zM291 1698q0 -104 98 -105q53 0 76 19q20 18 20 82 q0 49 -26 78q-29 31 -70 30q-98 0 -98 -104z" />
<glyph unicode="&#xc6;" horiz-adv-x="1667" d="M18 150l494 1267l264 -51l152 -762l18 762l727 -2l-4 -285h-448l4 -288l225 -3l-4 -247l-291 10l-4 -268h494l-11 -269l-878 -14l-41 283l-336 10l-70 -225zM453 518l245 -8l-80 528z" />
<glyph unicode="&#xc8;" horiz-adv-x="958" d="M2 1317l875 100l22 -284l-598 -70l33 -287l375 41l20 -246l-444 -43l22 -268l641 76l19 -264l-858 -99zM174 1790l156 49l137 -301l-105 -53z" />
<glyph unicode="&#xc9;" horiz-adv-x="958" d="M2 1317l875 100l22 -284l-598 -70l33 -287l375 41l20 -246l-444 -43l22 -268l641 76l19 -264l-858 -99zM391 1569l123 266l198 -35l-223 -291z" />
<glyph unicode="&#xca;" horiz-adv-x="958" d="M2 1317l875 100l22 -284l-598 -70l33 -287l375 41l20 -246l-444 -43l22 -268l641 76l19 -264l-858 -99zM203 1519l158 258l100 -4l156 -248l-117 -20l-92 160l-92 -166z" />
<glyph unicode="&#xcb;" horiz-adv-x="958" d="M2 1317l875 100l22 -284l-598 -70l33 -287l375 41l20 -246l-444 -43l22 -268l641 76l19 -264l-858 -99zM143 1597q0 119 111 119q109 0 109 -119q0 -31 -9 -49q-10 -25 -22 -37q-20 -20 -35 -26q-18 -8 -43 -8q-111 -1 -111 120zM537 1604q0 127 129 127q49 0 86 -37 q39 -37 39 -90q0 -127 -125 -127q-53 0 -90 34q-39 40 -39 93z" />
<glyph unicode="&#xcc;" horiz-adv-x="466" d="M78 25l59 1347l279 -24l-70 -1352zM174 1790l156 49l137 -301l-105 -53z" />
<glyph unicode="&#xcd;" horiz-adv-x="466" d="M78 25l59 1347l279 -24l-70 -1352zM146 1569l123 266l198 -35l-223 -291z" />
<glyph unicode="&#xce;" horiz-adv-x="466" d="M78 25l59 1347l279 -24l-70 -1352zM82 1503l158 258l100 -4l156 -248l-117 -20l-92 160l-92 -166z" />
<glyph unicode="&#xcf;" horiz-adv-x="466" d="M78 25l59 1347l279 -24l-70 -1352zM-72 1564q0 119 111 119q109 0 109 -119q0 -31 -9 -49q-10 -25 -22 -37q-20 -20 -35 -26q-18 -8 -43 -8q-111 -1 -111 120zM322 1571q0 127 129 127q49 0 86 -37q39 -37 39 -90q0 -127 -125 -127q-53 0 -90 34q-39 40 -39 93z" />
<glyph unicode="&#xd1;" horiz-adv-x="1089" d="M27 1335l325 11l367 -897l-74 923l303 -2l109 -1331l-309 -29l-418 977l47 -995l-283 4zM172 1567q111 166 209 166q45 0 75.5 -57.5t63.5 -57.5q49 0 101 92l106 -73q-100 -193 -197 -193q-53 0 -73 82q-23 84 -64 84q-72 0 -123 -150z" />
<glyph unicode="&#xd2;" horiz-adv-x="1245" d="M27 671.5q0 286.5 172 489.5q174 205 428 205q252 0 430 -197q174 -193 174 -479q0 -289 -170 -485q-172 -205 -430 -205q-256 0 -430 192.5t-174 479zM289 676q0 -168 92 -280.5t240 -112.5q150 0 245 133q90 125 90 293q0 162 -90 276q-92 117 -237 117 q-150 0 -248 -133q-92 -123 -92 -293zM434 1790l156 49l137 -301l-105 -53z" />
<glyph unicode="&#xd3;" horiz-adv-x="1245" d="M27 671.5q0 286.5 172 489.5q174 205 428 205q252 0 430 -197q174 -193 174 -479q0 -289 -170 -485q-172 -205 -430 -205q-256 0 -430 192.5t-174 479zM289 676q0 -168 92 -280.5t240 -112.5q150 0 245 133q90 125 90 293q0 162 -90 276q-92 117 -237 117 q-150 0 -248 -133q-92 -123 -92 -293zM467 1569l123 266l198 -35l-223 -291z" />
<glyph unicode="&#xd4;" horiz-adv-x="1245" d="M27 671.5q0 286.5 172 489.5q174 205 428 205q252 0 430 -197q174 -193 174 -479q0 -289 -170 -485q-172 -205 -430 -205q-256 0 -430 192.5t-174 479zM289 676q0 -168 92 -280.5t240 -112.5q150 0 245 133q90 125 90 293q0 162 -90 276q-92 117 -237 117 q-150 0 -248 -133q-92 -123 -92 -293zM401 1503l158 258l100 -4l156 -248l-117 -20l-92 160l-92 -166z" />
<glyph unicode="&#xd5;" horiz-adv-x="1245" d="M27 671.5q0 286.5 172 489.5q174 205 428 205q252 0 430 -197q174 -193 174 -479q0 -289 -170 -485q-172 -205 -430 -205q-256 0 -430 192.5t-174 479zM289 676q0 -168 92 -280.5t240 -112.5q150 0 245 133q90 125 90 293q0 162 -90 276q-92 117 -237 117 q-150 0 -248 -133q-92 -123 -92 -293zM309 1583q111 166 209 166q45 0 75.5 -57.5t63.5 -57.5q49 0 101 92l106 -73q-100 -193 -197 -193q-53 0 -73 82q-23 84 -64 84q-72 0 -123 -150z" />
<glyph unicode="&#xd6;" horiz-adv-x="1245" d="M27 671.5q0 286.5 172 489.5q174 205 428 205q252 0 430 -197q174 -193 174 -479q0 -289 -170 -485q-172 -205 -430 -205q-256 0 -430 192.5t-174 479zM289 676q0 -168 92 -280.5t240 -112.5q150 0 245 133q90 125 90 293q0 162 -90 276q-92 117 -237 117 q-150 0 -248 -133q-92 -123 -92 -293zM325 1564q0 119 111 119q109 0 109 -119q0 -31 -9 -49q-10 -25 -22 -37q-20 -20 -35 -26q-18 -8 -43 -8q-111 -1 -111 120zM719 1571q0 127 129 127q49 0 86 -37q39 -37 39 -90q0 -127 -125 -127q-53 0 -90 34q-39 40 -39 93z" />
<glyph unicode="&#xd7;" horiz-adv-x="866" d="M76 426l178 192l-178 216l162 176l184 -224l184 201l129 -168l-184 -201l168 -202l-170 -176l-174 211l-168 -193z" />
<glyph unicode="&#xd8;" horiz-adv-x="1241" d="M27 672q0 287 172 489q174 205 428 205q129 0 250 -57l118 182l189 -125l-131 -192q178 -195 178 -484t-170 -485q-172 -205 -430 -205q-168 0 -312 92l-126 -184l-154 135l127 193q-139 182 -139 436zM289 676q0 -102 41 -195l399 604q-49 16 -100 17q-150 0 -248 -133 q-92 -123 -92 -293zM473 319q68 -37 148 -36q150 0 245 133q90 125 90 293q0 133 -59 233z" />
<glyph unicode="&#xd9;" horiz-adv-x="1210" d="M47 1296l307 27q-2 -45 -2 -145q0 -301 49 -525q80 -358 258 -358q254 0 254 512q0 150 -14 280q-14 139 -43 285l274 51q16 -104 27 -239q10 -137 10 -250q0 -702 -303 -879q-98 -55 -205 -55q-303 0 -471 504q-123 366 -141 792zM358 1790l156 49l137 -301l-105 -53z " />
<glyph unicode="&#xda;" horiz-adv-x="1210" d="M47 1296l307 27q-2 -45 -2 -145q0 -301 49 -525q80 -358 258 -358q254 0 254 512q0 150 -14 280q-14 139 -43 285l274 51q16 -104 27 -239q10 -137 10 -250q0 -702 -303 -879q-98 -55 -205 -55q-303 0 -471 504q-123 366 -141 792zM453 1569l123 266l198 -35l-223 -291z " />
<glyph unicode="&#xdb;" horiz-adv-x="1210" d="M47 1296l307 27q-2 -45 -2 -145q0 -301 49 -525q80 -358 258 -358q254 0 254 512q0 150 -14 280q-14 139 -43 285l274 51q16 -104 27 -239q10 -137 10 -250q0 -702 -303 -879q-98 -55 -205 -55q-303 0 -471 504q-123 366 -141 792zM401 1503l158 258l100 -4l156 -248 l-117 -20l-92 160l-92 -166z" />
<glyph unicode="&#xdc;" horiz-adv-x="1210" d="M47 1296l307 27q-2 -45 -2 -145q0 -301 49 -525q80 -358 258 -358q254 0 254 512q0 150 -14 280q-14 139 -43 285l274 51q16 -104 27 -239q10 -137 10 -250q0 -702 -303 -879q-98 -55 -205 -55q-303 0 -471 504q-123 366 -141 792zM297 1597q0 119 111 119 q109 0 109 -119q0 -31 -9 -49q-10 -25 -22 -37q-20 -20 -35 -26q-18 -8 -43 -8q-111 -1 -111 120zM691 1604q0 127 129 127q49 0 86 -37q39 -37 39 -90q0 -127 -125 -127q-53 0 -90 34q-39 40 -39 93z" />
<glyph unicode="&#xdd;" horiz-adv-x="927" d="M39 1276l262 78l254 -523l150 549l268 25l-262 -776l10 -598l-242 -31l-6 561zM330 1569l123 266l198 -35l-223 -291z" />
<glyph unicode="&#xde;" horiz-adv-x="1386" d="M147 0l41 1321l220 37l-5 -133q276 -31 490 -133q309 -143 309 -371q0 -225 -325 -393q-223 -119 -502 -176l-2 -177zM385 440q86 8 172 25q59 10 156 43q229 80 229 215q0 217 -438 217q-8 0 -26.5 -1t-28.5 -1q-37 0 -54 -2z" />
<glyph unicode="&#xdf;" horiz-adv-x="1353" d="M160 -272l35 1638q315 -6 555 -55q403 -82 403 -260q0 -135 -182 -244q-57 -35 -140 -70q-53 -23 -149 -49q170 -20 334 -94q221 -102 221 -244q0 -154 -240 -256q-154 -66 -352 -94l-18 213q238 18 237 172q0 102 -119 145q-80 31 -190 25l-29 -2l-8 289q84 0 154 28 q90 41 90 119q0 154 -289 154q-2 0 -10 -1t-14 -1h-43l-5 -1409z" />
<glyph unicode="&#xe0;" d="M-4 2l244 1354l270 10l530 -1300l-297 -39l-92 268l-329 -72l-27 -231zM348 463l244 47l-176 500zM174 1790l156 49l137 -301l-105 -53z" />
<glyph unicode="&#xe1;" d="M-4 2l244 1354l270 10l530 -1300l-297 -39l-92 268l-329 -72l-27 -231zM348 463l244 47l-176 500zM344 1569l123 266l198 -35l-223 -291z" />
<glyph unicode="&#xe2;" d="M-4 2l244 1354l270 10l530 -1300l-297 -39l-92 268l-329 -72l-27 -231zM348 463l244 47l-176 500zM172 1503l158 258l100 -4l156 -248l-117 -20l-92 160l-92 -166z" />
<glyph unicode="&#xe3;" d="M-4 2l244 1354l270 10l530 -1300l-297 -39l-92 268l-329 -72l-27 -231zM348 463l244 47l-176 500zM172 1567q111 166 209 166q45 0 75.5 -57.5t63.5 -57.5q49 0 101 92l106 -73q-100 -193 -197 -193q-53 0 -73 82q-23 84 -64 84q-72 0 -123 -150z" />
<glyph unicode="&#xe4;" d="M-4 2l244 1354l270 10l530 -1300l-297 -39l-92 268l-329 -72l-27 -231zM348 463l244 47l-176 500zM34 1597q0 119 111 119q109 0 109 -119q0 -31 -9 -49q-10 -25 -22 -37q-20 -20 -35 -26q-18 -8 -43 -8q-111 -1 -111 120zM428 1604q0 127 129 127q49 0 86 -37 q39 -37 39 -90q0 -127 -125 -127q-53 0 -90 34q-39 40 -39 93z" />
<glyph unicode="&#xe5;" d="M-4 2l244 1354l270 10l530 -1300l-297 -39l-92 268l-329 -72l-27 -231zM348 463l244 47l-176 500zM182 1698q0 108 56 166q55 57 151 57q86 0 143 -66q59 -70 60 -161q0 -219 -203 -219q-96 0 -151.5 59.5t-55.5 163.5zM291 1698q0 -104 98 -105q53 0 76 19q20 18 20 82 q0 49 -26 78q-29 31 -70 30q-98 0 -98 -104z" />
<glyph unicode="&#xe6;" horiz-adv-x="1667" d="M18 150l494 1267l264 -51l152 -762l18 762l727 -2l-4 -285h-448l4 -288l225 -3l-4 -247l-291 10l-4 -268h494l-11 -269l-878 -14l-41 283l-336 10l-70 -225zM453 518l245 -8l-80 528z" />
<glyph unicode="&#xe8;" horiz-adv-x="958" d="M2 1317l875 100l22 -284l-598 -70l33 -287l375 41l20 -246l-444 -43l22 -268l641 76l19 -264l-858 -99zM174 1790l156 49l137 -301l-105 -53z" />
<glyph unicode="&#xe9;" horiz-adv-x="958" d="M2 1317l875 100l22 -284l-598 -70l33 -287l375 41l20 -246l-444 -43l22 -268l641 76l19 -264l-858 -99zM391 1569l123 266l198 -35l-223 -291z" />
<glyph unicode="&#xea;" horiz-adv-x="958" d="M2 1317l875 100l22 -284l-598 -70l33 -287l375 41l20 -246l-444 -43l22 -268l641 76l19 -264l-858 -99zM203 1519l158 258l100 -4l156 -248l-117 -20l-92 160l-92 -166z" />
<glyph unicode="&#xeb;" horiz-adv-x="958" d="M2 1317l875 100l22 -284l-598 -70l33 -287l375 41l20 -246l-444 -43l22 -268l641 76l19 -264l-858 -99zM143 1597q0 119 111 119q109 0 109 -119q0 -31 -9 -49q-10 -25 -22 -37q-20 -20 -35 -26q-18 -8 -43 -8q-111 -1 -111 120zM537 1604q0 127 129 127q49 0 86 -37 q39 -37 39 -90q0 -127 -125 -127q-53 0 -90 34q-39 40 -39 93z" />
<glyph unicode="&#xec;" horiz-adv-x="466" d="M78 25l59 1347l279 -24l-70 -1352zM174 1790l156 49l137 -301l-105 -53z" />
<glyph unicode="&#xed;" horiz-adv-x="466" d="M78 25l59 1347l279 -24l-70 -1352zM146 1569l123 266l198 -35l-223 -291z" />
<glyph unicode="&#xee;" horiz-adv-x="466" d="M78 25l59 1347l279 -24l-70 -1352zM82 1503l158 258l100 -4l156 -248l-117 -20l-92 160l-92 -166z" />
<glyph unicode="&#xef;" horiz-adv-x="466" d="M78 25l59 1347l279 -24l-70 -1352zM-72 1564q0 119 111 119q109 0 109 -119q0 -31 -9 -49q-10 -25 -22 -37q-20 -20 -35 -26q-18 -8 -43 -8q-111 -1 -111 120zM322 1571q0 127 129 127q49 0 86 -37q39 -37 39 -90q0 -127 -125 -127q-53 0 -90 34q-39 40 -39 93z" />
<glyph unicode="&#xf1;" horiz-adv-x="1089" d="M27 1335l325 11l367 -897l-74 923l303 -2l109 -1331l-309 -29l-418 977l47 -995l-283 4zM172 1567q111 166 209 166q45 0 75.5 -57.5t63.5 -57.5q49 0 101 92l106 -73q-100 -193 -197 -193q-53 0 -73 82q-23 84 -64 84q-72 0 -123 -150z" />
<glyph unicode="&#xf2;" horiz-adv-x="1245" d="M27 671.5q0 286.5 172 489.5q174 205 428 205q252 0 430 -197q174 -193 174 -479q0 -289 -170 -485q-172 -205 -430 -205q-256 0 -430 192.5t-174 479zM289 676q0 -168 92 -280.5t240 -112.5q150 0 245 133q90 125 90 293q0 162 -90 276q-92 117 -237 117 q-150 0 -248 -133q-92 -123 -92 -293zM434 1790l156 49l137 -301l-105 -53z" />
<glyph unicode="&#xf3;" horiz-adv-x="1245" d="M27 671.5q0 286.5 172 489.5q174 205 428 205q252 0 430 -197q174 -193 174 -479q0 -289 -170 -485q-172 -205 -430 -205q-256 0 -430 192.5t-174 479zM289 676q0 -168 92 -280.5t240 -112.5q150 0 245 133q90 125 90 293q0 162 -90 276q-92 117 -237 117 q-150 0 -248 -133q-92 -123 -92 -293zM467 1569l123 266l198 -35l-223 -291z" />
<glyph unicode="&#xf4;" horiz-adv-x="1245" d="M27 671.5q0 286.5 172 489.5q174 205 428 205q252 0 430 -197q174 -193 174 -479q0 -289 -170 -485q-172 -205 -430 -205q-256 0 -430 192.5t-174 479zM289 676q0 -168 92 -280.5t240 -112.5q150 0 245 133q90 125 90 293q0 162 -90 276q-92 117 -237 117 q-150 0 -248 -133q-92 -123 -92 -293zM401 1503l158 258l100 -4l156 -248l-117 -20l-92 160l-92 -166z" />
<glyph unicode="&#xf5;" horiz-adv-x="1245" d="M27 671.5q0 286.5 172 489.5q174 205 428 205q252 0 430 -197q174 -193 174 -479q0 -289 -170 -485q-172 -205 -430 -205q-256 0 -430 192.5t-174 479zM289 676q0 -168 92 -280.5t240 -112.5q150 0 245 133q90 125 90 293q0 162 -90 276q-92 117 -237 117 q-150 0 -248 -133q-92 -123 -92 -293zM309 1583q111 166 209 166q45 0 75.5 -57.5t63.5 -57.5q49 0 101 92l106 -73q-100 -193 -197 -193q-53 0 -73 82q-23 84 -64 84q-72 0 -123 -150z" />
<glyph unicode="&#xf6;" horiz-adv-x="1245" d="M27 671.5q0 286.5 172 489.5q174 205 428 205q252 0 430 -197q174 -193 174 -479q0 -289 -170 -485q-172 -205 -430 -205q-256 0 -430 192.5t-174 479zM289 676q0 -168 92 -280.5t240 -112.5q150 0 245 133q90 125 90 293q0 162 -90 276q-92 117 -237 117 q-150 0 -248 -133q-92 -123 -92 -293zM325 1564q0 119 111 119q109 0 109 -119q0 -31 -9 -49q-10 -25 -22 -37q-20 -20 -35 -26q-18 -8 -43 -8q-111 -1 -111 120zM719 1571q0 127 129 127q49 0 86 -37q39 -37 39 -90q0 -127 -125 -127q-53 0 -90 34q-39 40 -39 93z" />
<glyph unicode="&#xf7;" horiz-adv-x="1077" d="M154 690l743 19v-238l-737 12zM408 1051l231 14l-2 -246l-211 2zM444 117l7 231l206 -12v-217z" />
<glyph unicode="&#xf8;" horiz-adv-x="1241" d="M27 672q0 287 172 489q174 205 428 205q129 0 250 -57l118 182l189 -125l-131 -192q178 -195 178 -484t-170 -485q-172 -205 -430 -205q-168 0 -312 92l-126 -184l-154 135l127 193q-139 182 -139 436zM289 676q0 -102 41 -195l399 604q-49 16 -100 17q-150 0 -248 -133 q-92 -123 -92 -293zM473 319q68 -37 148 -36q150 0 245 133q90 125 90 293q0 133 -59 233z" />
<glyph unicode="&#xf9;" horiz-adv-x="1210" d="M47 1296l307 27q-2 -45 -2 -145q0 -301 49 -525q80 -358 258 -358q254 0 254 512q0 150 -14 280q-14 139 -43 285l274 51q16 -104 27 -239q10 -137 10 -250q0 -702 -303 -879q-98 -55 -205 -55q-303 0 -471 504q-123 366 -141 792zM358 1790l156 49l137 -301l-105 -53z " />
<glyph unicode="&#xfa;" horiz-adv-x="1210" d="M47 1296l307 27q-2 -45 -2 -145q0 -301 49 -525q80 -358 258 -358q254 0 254 512q0 150 -14 280q-14 139 -43 285l274 51q16 -104 27 -239q10 -137 10 -250q0 -702 -303 -879q-98 -55 -205 -55q-303 0 -471 504q-123 366 -141 792zM453 1569l123 266l198 -35l-223 -291z " />
<glyph unicode="&#xfb;" horiz-adv-x="1210" d="M47 1296l307 27q-2 -45 -2 -145q0 -301 49 -525q80 -358 258 -358q254 0 254 512q0 150 -14 280q-14 139 -43 285l274 51q16 -104 27 -239q10 -137 10 -250q0 -702 -303 -879q-98 -55 -205 -55q-303 0 -471 504q-123 366 -141 792zM401 1503l158 258l100 -4l156 -248 l-117 -20l-92 160l-92 -166z" />
<glyph unicode="&#xfc;" horiz-adv-x="1210" d="M47 1296l307 27q-2 -45 -2 -145q0 -301 49 -525q80 -358 258 -358q254 0 254 512q0 150 -14 280q-14 139 -43 285l274 51q16 -104 27 -239q10 -137 10 -250q0 -702 -303 -879q-98 -55 -205 -55q-303 0 -471 504q-123 366 -141 792zM297 1597q0 119 111 119 q109 0 109 -119q0 -31 -9 -49q-10 -25 -22 -37q-20 -20 -35 -26q-18 -8 -43 -8q-111 -1 -111 120zM691 1604q0 127 129 127q49 0 86 -37q39 -37 39 -90q0 -127 -125 -127q-53 0 -90 34q-39 40 -39 93z" />
<glyph unicode="&#xfd;" horiz-adv-x="927" d="M39 1276l262 78l254 -523l150 549l268 25l-262 -776l10 -598l-242 -31l-6 561zM330 1569l123 266l198 -35l-223 -291z" />
<glyph unicode="&#xfe;" horiz-adv-x="1386" d="M147 0l41 1321l220 37l-5 -133q276 -31 490 -133q309 -143 309 -371q0 -225 -325 -393q-223 -119 -502 -176l-2 -177zM385 440q86 8 172 25q59 10 156 43q229 80 229 215q0 217 -438 217q-8 0 -26.5 -1t-28.5 -1q-37 0 -54 -2z" />
<glyph unicode="&#xff;" horiz-adv-x="927" d="M39 1276l262 78l254 -523l150 549l268 25l-262 -776l10 -598l-242 -31l-6 561zM188 1597q0 119 111 119q109 0 109 -119q0 -31 -9 -49q-10 -25 -22 -37q-20 -20 -35 -26q-18 -8 -43 -8q-111 -1 -111 120zM582 1604q0 127 129 127q49 0 86 -37q39 -37 39 -90 q0 -127 -125 -127q-53 0 -90 34q-39 40 -39 93z" />
<glyph unicode="&#x131;" horiz-adv-x="466" d="M78 25l59 1347l279 -24l-70 -1352z" />
<glyph unicode="&#x2c7;" horiz-adv-x="544" d="M172 1741l113 20l92 -166l92 160l117 -18l-156 -250l-100 -4z" />
<glyph unicode="&#x2c9;" horiz-adv-x="712" d="M190 1692h568l8 -170l-571 12z" />
<glyph unicode="&#x2da;" horiz-adv-x="552" d="M182 1698q0 108 56 166q55 57 151 57q86 0 143 -66q59 -70 60 -161q0 -219 -203 -219q-96 0 -151.5 59.5t-55.5 163.5zM291 1698q0 -104 98 -105q53 0 76 19q20 18 20 82q0 49 -26 78q-29 31 -70 30q-98 0 -98 -104z" />
<glyph unicode="&#x2000;" horiz-adv-x="960" />
<glyph unicode="&#x2001;" horiz-adv-x="1921" />
<glyph unicode="&#x2002;" horiz-adv-x="960" />
<glyph unicode="&#x2003;" horiz-adv-x="1921" />
<glyph unicode="&#x2004;" horiz-adv-x="638" />
<glyph unicode="&#x2005;" horiz-adv-x="479" />
<glyph unicode="&#x2006;" horiz-adv-x="319" />
<glyph unicode="&#x2007;" horiz-adv-x="319" />
<glyph unicode="&#x2008;" horiz-adv-x="239" />
<glyph unicode="&#x2009;" horiz-adv-x="382" />
<glyph unicode="&#x200a;" horiz-adv-x="104" />
<glyph unicode="&#x2010;" horiz-adv-x="768" d="M186 465v235l629 41l6 -245z" />
<glyph unicode="&#x2011;" horiz-adv-x="768" d="M186 465v235l629 41l6 -245z" />
<glyph unicode="&#x2012;" horiz-adv-x="768" d="M186 465v235l629 41l6 -245z" />
<glyph unicode="&#x202f;" horiz-adv-x="382" />
<glyph unicode="&#x205f;" horiz-adv-x="479" />
<glyph unicode="&#x20ac;" horiz-adv-x="1097" d="M127 725l8 160h154q92 176 395 321q248 117 494 160l-54 -262q-143 -18 -288 -72q-176 -63 -258 -145h417l-49 -164l-450 2q0 -4 -1 -9t-1 -7v-11q0 -63 26 -118h367l-47 -166l-191 2q70 -63 162 -123q86 -55 184 -98l-51 -195q-53 23 -156 80q-98 55 -155 96 q-86 61 -154 123q-59 55 -114 123l-207 4l-13 156h125q-27 72 -22 143h-121z" />
<glyph unicode="&#xe000;" horiz-adv-x="1400" d="M0 1400h1400v-1400h-1400v1400z" />
</font>
</defs>
</svg>
