<?xml version="1.0" standalone="no"?>
<!DOCTYPE svg PUBLIC "-//W3C//DTD SVG 1.1//EN" "http://www.w3.org/Graphics/SVG/1.1/DTD/svg11.dtd" >
<svg xmlns="http://www.w3.org/2000/svg">
<metadata>
This is a custom SVG webfont generated by Font Squirrel.
Copyright   : Typeface  your company 2008 All Rights Reserved
Designer    : Joanne Taylor
</metadata>
<defs>
<font id="webfontWFsRMnJR" horiz-adv-x="1138" >
<font-face units-per-em="2048" ascent="1638" descent="-410" />
<missing-glyph horiz-adv-x="892" />
<glyph unicode=" "  horiz-adv-x="892" />
<glyph unicode="&#x09;" horiz-adv-x="892" />
<glyph unicode="&#xa0;" horiz-adv-x="892" />
<glyph unicode="!" horiz-adv-x="688" d="M207 121q0 133 119 143q131 0 141 -127q0 -135 -125 -139q-126 0 -135 123zM209 1606q0 123 113 123q111 -4 116 -125q0 -23 -1 -129.5t-4 -358.5t-5 -491q0 -92 -111 -111q-100 25 -100 119l-4 495.5l-3 347.5t-1 130z" />
<glyph unicode="&#x22;" horiz-adv-x="724" d="M100 1776q23 82 103 82q86 -2 96 -86l-12 -373q0 -109 -88 -109q-86 0 -86 113zM399 1776q23 82 103 82q88 -2 98 -86l-12 -373q0 -109 -88 -109t-88 113z" />
<glyph unicode="#" horiz-adv-x="1288" d="M66 541q16 82 73 84q88 0 183 2l1 4l1 4l94 395q2 12 5 22.5t5 20.5l-68 -4l-106 -8q-71 12 -74 92q16 82 76 84q68 0 137 2q10 0 34 1t36 1q39 193 59 330q33 57 88 57q66 -2 76 -100q-4 -63 -47 -283q29 2 87 3t89 1q41 205 57 318q33 55 86 55q70 -4 78 -98 q-3 -49 -49 -277q33 0 69 -1t54 -2t27 -1q57 -2 73 -84q-4 -51 -28 -74q-12 -18 -41 -24l-31 6q-121 16 -156 16l-51 -239l-43 -209q33 0 70 -1t56.5 -2t29.5 -1q59 -2 76 -84q-4 -41 -21 -62q-10 -31 -47 -36q-14 4 -39 8q-94 12 -164 12q-117 -477 -211 -477q-82 2 -82 80 q0 72 97 395l-156 -2q-117 -467 -209 -467q-82 4 -82 78t92 381l-131 -8q-71 12 -73 92zM510 631q43 0 166 4l92 391l4 28.5t6 26.5l-176 -2l-47 -229z" />
<glyph unicode="$" horiz-adv-x="1271" d="M70 520l16 23q20 14 41 14q70 0 149 -149q61 -109 134 -158v532q-281 63 -304 342l3 43q25 286 301 363v280q0 68 82 68q63 0 63 -68v-260q10 0 19.5 1t16.5 2t21 1q74 0 117 -8v264q0 68 74 68q72 0 71 -68v-294q100 -33 162 -99q98 -104 99 -176q0 -23 -9 -39 q-18 -31 -47 -31q-45 0 -118 84q-34 40 -87 68v-408q143 -39 205 -112q111 -135 111 -346q-12 -309 -316 -402v-307q0 -63 -71 -63q-74 0 -74 67v277q-2 0 -20.5 -3t-30.5 -6h-74q-16 0 -49 5v-277q0 -63 -63 -63q-82 0 -82 67v303q-78 37 -177 131q-163 160 -163 334z M270 1124q0 -106 140 -147v369q-131 -61 -134 -183q-6 -21 -6 -39zM555 205q47 -8 80 -10q53 2 94 12v536q-72 18 -149 21q-6 0 -12.5 1t-12.5 1v-561zM555 958q25 -4 37 -4q61 -2 137 -14v434q-43 14 -108 15h-5q-18 -2 -61 -11v-420zM874 246q143 63 158 200v19 q0 164 -158 237v-456z" />
<glyph unicode="%" horiz-adv-x="1724" d="M33 1217q10 152 94 247q86 100 258 109l47 -2q127 -10 238 -103q115 -96 139 -282q0 -180 -96 -283q-94 -100 -281 -112l-35 4q-158 18 -260 123q-98 100 -104 299zM135 68q6 59 70 112l1212 1336q37 37 94 38q39 0 58 -61q0 -66 -49 -109l-1198 -1327q-70 -70 -125 -77 q-50 10 -62 88zM174 1204q12 -209 209 -268l43 -6q178 18 221 188l4 29q0 119 -73 194q-74 77 -172 86h-27q-185 -24 -205 -223zM879 446q10 152 94 248q86 98 260 109h45q127 -10 238 -103q115 -96 139 -284q0 -178 -99 -283q-94 -100 -278 -113l-35 5q-158 18 -260 122 q-98 100 -104 299zM1020 434q12 -209 209 -268l43 -6q178 18 221 188l4 29q0 123 -71.5 196.5t-174.5 83.5h-26q-180 -20 -205 -223z" />
<glyph unicode="&#x26;" horiz-adv-x="1794" d="M145 504v82q18 358 410 649q-207 127 -207 371q31 244 369 260h76q305 -12 315 -314q-10 -197 -199 -352q254 -174 490 -608q70 113 102 389q0 121 98 123q96 -4 97 -137q-20 -350 -178 -607q84 -170 108 -258q-4 -111 -115 -110q-80 22 -122 117l-43 96 q-195 -188 -500 -213h-90q-591 18 -611 512zM362 539q23 -326 426 -332q238 0 461 192q-178 409 -516 670q-357 -221 -371 -530zM563 1534q47 -131 180 -180q104 41 164 176q0 137 -168 137q-170 -4 -176 -133z" />
<glyph unicode="'" horiz-adv-x="391" d="M100 1776q23 82 103 82q86 -2 96 -86l-12 -373q0 -109 -88 -109q-86 0 -86 113z" />
<glyph unicode="(" horiz-adv-x="681" d="M125 879q12 520 215 938q82 231 207 235q84 -23 92 -121q-18 -96 -111 -241q-193 -299 -204 -785q0 -487 194 -889q90 -162 131 -288q0 -114 -80 -123q-90 0 -139 61q-63 90 -111 215q-194 525 -194 998z" />
<glyph unicode=")" horiz-adv-x="681" d="M82 -289q8 84 111 223q219 449 221 951q-8 461 -193 798q-94 127 -119 250q0 115 99 125q92 -8 168 -180q242 -422 241 -1020q0 -481 -182 -942q-72 -178 -137 -252q-43 -49 -115 -59q-88 0 -94 106z" />
<glyph unicode="*" horiz-adv-x="796" d="M76 1593q0 61 59 78q84 0 221 -174q-27 127 -26 211q29 72 76 72t75 -74q0 -80 -22 -213q115 170 231 174q43 -12 43 -76q-35 -109 -203 -186q201 -84 207 -176q-6 -49 -51 -66q-80 10 -217 127q18 -127 18 -217q-10 -74 -71 -76q-74 14 -82 101q0 65 18 196 q-125 -119 -190 -125q-72 6 -74 68q6 68 205 172q-192 73 -217 184z" />
<glyph unicode="+" horiz-adv-x="1193" d="M193 621q8 92 145 92h172v149q0 131 92 144q96 -6 109 -136v-157h155q133 0 146 -95q-6 -94 -138 -106h-161v-172q-6 -138 -111 -141q-92 10 -92 143v168h-174q-141 7 -143 111z" />
<glyph unicode="," horiz-adv-x="567" d="M158 143q23 82 102 82q88 -2 98 -86l-14 -303q0 -106 -88 -106q-86 0 -86 110z" />
<glyph unicode="-" horiz-adv-x="786" d="M20 721q6 92 127 92h465q115 0 127 -92q-6 -96 -118 -109l-476 -2q-121 7 -125 111z" />
<glyph unicode="." horiz-adv-x="509" d="M158 121q0 133 118 143q131 0 142 -127q0 -137 -123 -139q-127 0 -137 123z" />
<glyph unicode="/" horiz-adv-x="827" d="M-8 41q0 43 37 129l639 1604q18 88 90 98q66 -6 65 -103q-6 -61 -32 -114l-641 -1602q-31 -86 -89 -86q-63 2 -69 74z" />
<glyph unicode="0" d="M12 651q14 793 555 832l70 -4q401 -55 481 -582l6 -135q-35 -756 -583 -776l-68 2q-391 100 -446 530zM197 739l4 -82q18 -410 291 -483q412 0 448 563l-4 107q-53 436 -348 454q-334 -22 -391 -559z" />
<glyph unicode="1" d="M170 1038q0 72 45 109l229 186q137 139 228 140q92 -8 114 -74q-8 -723 -24 -1331q-9 -68 -105 -68q-84 2 -102 66q35 854 35 1165q-225 -248 -330 -260q-72 6 -90 67z" />
<glyph unicode="2" d="M41 999l2 31q68 385 477 432h84q412 -43 463 -456q0 -231 -125 -396q-127 -168 -512 -399l270 16q154 0 267 -22q123 -25 129 -123q0 -86 -111 -86q-68 25 -280 37q-408 -18 -519 -43q-102 8 -102 106q0 127 387 379q401 229 401 518q-25 264 -299 289 q-279 -10 -335 -272q-8 -117 -102.5 -117t-94.5 106z" />
<glyph unicode="3" d="M33 403q14 70 96 70q68 0 117 -129q47 -127 299 -147q332 16 364 264q-18 274 -278 291l-93.5 -7.5t-109.5 -7.5q-96 20 -96 105q12 92 219 116q203 25 203 218q-18 115 -152 120q-324 -6 -373 -204q0 -72 -94 -80q-76 20 -84 104v49q74 287 473 310l92 2 q285 -25 347 -263l10 -59q-10 -158 -144 -274q274 -86 281 -426q-51 -418 -541 -463q-511 1 -536 411z" />
<glyph unicode="4" d="M0 397v43q37 301 350 670q315 371 389 371q127 0 150 -109q-2 -352 -39 -868l164 10q96 -10 116 -102q-12 -109 -83 -109l-197 8l4 -256q-16 -66 -100 -65q-84 6 -95 100l9 211q-295 -4 -570 -53q-98 14 -98 149zM211 453q203 43 461 47q34 498 37 743 q-490 -514 -498 -790z" />
<glyph unicode="5" d="M53 362q6 68 80 76q74 0 127 -90q109 -166 340 -166q256 10 301 310l4 106q-16 268 -248 283q-98 -10 -229 -45q-121 -33 -207 -35q-137 0 -158 174q35 315 181 483l32 6q106 -14 318 -18q176 10 264 27q88 0 96 -82q0 -82 -69 -103q-74 -23 -283 -28l-262 6 q-84 -139 -88 -252l12 -17q78 12 182 41q98 28 234 37q225 -6 319.5 -151.5t94.5 -331.5v-78q-41 -477 -402 -522l-135 -6q-209 0 -356.5 128.5t-147.5 247.5z" />
<glyph unicode="6" d="M10 602v76q0 313 150 532q205 254 415 254l62 -2q244 -31 262 -147q-12 -82 -96 -88q-86 8 -123 28q-33 18 -96 33q-150 -16 -258 -158q-109 -143 -125 -299q137 168 381 187h32q469 -31 512 -430l-2 -109q-31 -393 -512 -479q-584 6 -602 602zM207 492q33 -291 373 -302 h36q311 78 322 349q0 262 -317 299q-324 -37 -414 -291v-55z" />
<glyph unicode="7" d="M27 1354q0 92 100 104q203 -33 317 -37q78 4 250 29q164 23 271 23q127 -10 137 -95q0 -61 -60 -102q-449 -317 -462 -918v-239q-18 -123 -109 -123q-104 0 -104 131l2 242q76 657 391 909q-127 -45 -350 -57l-146 14q-229 21 -237 119z" />
<glyph unicode="8" d="M16 373v59q15 280 222 418q-102 100 -113 254l4 41q45 305 428 348h41q293 0 350 -256l2 -45q-8 -209 -133 -295q279 -61 303 -338v-55q-37 -496 -528 -520l-96 2q-437 21 -480 387zM203 408q0 -199 327 -242h52q338 49 344 358q-27 211 -383 230l-80 -15 q-254 -85 -260 -331zM319 1122q6 -176 195 -178q229 39 248 236q-25 137 -166 147q-252 -12 -277 -205z" />
<glyph unicode="9" d="M33 868q0 313 178 492q125 113 309 113q551 -41 588 -775q-31 -684 -741 -700l-78 2q-66 18 -66 72q0 119 209 118q211 0 359 129q150 129 151 406l-14 94q-86 -352 -492 -360q-360 20 -403 409zM205 870q14 -209 209 -231q348 0 399 373l-4 90q-18 70 -96 135 q-76 63 -217 63l-45 -10q-246 -70 -246 -420z" />
<glyph unicode=":" horiz-adv-x="509" d="M158 121q0 133 118 143q131 0 142 -127q0 -137 -123 -139q-127 0 -137 123zM158 1016q0 133 118 143q131 0 142 -127q0 -135 -123 -139q-127 0 -137 123z" />
<glyph unicode=";" horiz-adv-x="509" d="M158 1016q0 133 118 143q131 0 142 -127q0 -135 -123 -139q-127 0 -137 123zM186 168q23 80 103 80q88 -2 98 -84l-12 -305q0 -106 -88 -106.5t-88 112.5z" />
<glyph unicode="&#x37e;" horiz-adv-x="509" d="M158 1016q0 133 118 143q131 0 142 -127q0 -135 -123 -139q-127 0 -137 123zM186 168q23 80 103 80q88 -2 98 -84l-12 -305q0 -106 -88 -106.5t-88 112.5z" />
<glyph unicode="&#x3c;" horiz-adv-x="1193" d="M201 649q4 102 94 133l553 342q55 31 113 31q70 -27 69 -94q-2 -72 -80 -113l-448 -297l448 -299q78 -41 80 -112q0 -68 -69 -95q-57 0 -113 31l-553 342q-90 31 -94 131z" />
<glyph unicode="=" horiz-adv-x="1193" d="M193 475q9 92 122 92l605 2q106 0 122 -96q-6 -94 -114 -111l-615 -2q-114 6 -120 115zM193 811q8 94 122 94l605 2q106 0 122 -96q-6 -98 -114 -111h-615q-114 7 -120 111z" />
<glyph unicode="&#x3e;" horiz-adv-x="1193" d="M201 240q2 72 80 112l448 299l-448 297q-78 41 -80 113q0 68 69 94q59 0 115 -31l553 -342q88 -29 92 -133q-4 -102 -92 -131l-553 -342q-55 -31 -115 -31q-69 27 -69 95z" />
<glyph unicode="?" d="M188 1657l5 41q33 106 270 162l121 12q373 -23 387 -379q0 -267 -332 -492q-92 -66 -100 -192v-186q-23 -88 -119 -88q-98 18 -98 233q0 246 186 393q250 158 250 316q0 168 -230 178q-82 -12 -127 -53q-41 -39 -110 -46q-74 7 -103 101zM295 162q18 109 139 108 q100 -18 127 -112q-4 -145 -121 -158q-145 25 -145 162z" />
<glyph unicode="@" horiz-adv-x="1603" d="M63 612q12 340 250 580q238 242 645 250l80 2q403 -29 502 -531l12 -163q-31 -463 -290 -471q-174 16 -195 184l-23 129q-172 -299 -436 -303q-279 0 -291 286v72q59 543 711 586q145 0 146 -76q0 -31 -17 -53l17 -129l-3 -207q8 -328 95 -340q127 55 131 391 q-86 471 -350 484h-125q-309 -14 -500 -228q-188 -211 -195 -426l-2 -94q59 -330 373 -354q250 10 358 14l103 -2q121 -4 301 -31q45 -12 53 -63q-16 -82 -96 -88q-135 29 -277 39l-444 -9q-463 12 -526 455zM461 612q0 -150 125 -170q231 6 420 344l-5 195l5 96 q-229 -12 -377 -139q-152 -131 -168 -326z" />
<glyph unicode="A" horiz-adv-x="1699" d="M70 106v1465q4 109 100 108q104 0 104 -145q221 332 623 332q377 -6 555 -252q178 -248 182 -653v-865q0 -100 -94 -100q-109 0 -108 98v766h-1156v-754q0 -109 -104 -108q-102 2 -102 108zM307 1055h1112q0 207 -129 407.5t-397 200.5q-260 0 -424 -207 q-162 -204 -162 -401z" />
<glyph unicode="B" horiz-adv-x="1677" d="M86 86v1724q0 78 96 82q72 0 90 -75q76 41 336 45q383 0 672 -199q285 -197 303 -502v-49q-12 -285 -328 -465q205 -63 205 -282q0 -193 -209 -287q-207 -94 -612 -94q-86 4 -221 16q-86 31 -86 100q2 88 102 88q90 -10 211 -14q293 0 459 51q158 49 158 148 q0 102 -142 139q-137 35 -370 39h-453v-471q-33 -78 -115 -94q-96 0 -96 100zM297 752h373q424 6 563 126.5t139 278.5q0 195 -235 350q-238 156 -602 156q-221 0 -238 -45v-866z" />
<glyph unicode="C" horiz-adv-x="1552" d="M59 846q2 440 271 733q266 291 614 297q215 0 387 -94q170 -92 170 -191q-10 -98 -96 -98q-70 0 -162 80q-90 78 -301 78q-249 0 -455 -246q-205 -244 -204 -569q0 -352 186 -491.5t422 -139.5q254 0 352 24q106 27 180 27q86 -14 86 -106q0 -113 -186 -138 q-174 -23 -440 -32q-818 12 -824 866z" />
<glyph unicode="D" horiz-adv-x="1609" d="M51 86v1724q0 78 103 82q82 0 100 -75q76 41 324 45q403 0 682 -199q274 -195 292 -612q0 -383 -260 -719q-258 -334 -674 -338l-251 6q-84 31 -84 111q4 86 102 94l231 -6q322 20 525 270q203 248 202 580q0 293 -210.5 448.5t-577.5 155.5q-213 0 -299 -45v-1528 q-12 -78 -104 -94q-101 0 -101 100z" />
<glyph unicode="E" horiz-adv-x="1468" d="M55 1767q0 86 107 95h1102q92 -9 92 -99q-4 -102 -107 -104h-952v-905h860q104 0 105 -109q0 -96 -107 -102h-856v-344h1026q100 -8 100 -101q-18 -88 -96 -100h-1149q-84 18 -84 143v1524q-41 16 -41 102z" />
<glyph unicode="F" horiz-adv-x="1200" d="M53 1776q0 84 107 92h940q92 -8 92 -96q-4 -106 -107 -109h-784v-610h674q92 -16 92 -109q0 -98 -96 -104h-668l2 -736q-6 -106 -110 -106q-100 0 -101 115v1560q-41 17 -41 103z" />
<glyph unicode="G" horiz-adv-x="1804" d="M31 846q2 444 268 733q266 291 616 297q213 0 385 -94q170 -92 170 -191q-8 -98 -96 -98q-70 0 -162 80q-90 78 -299 78q-252 0 -460 -246q-211 -248 -211 -569q0 -352 182 -491.5t426 -139.5q250 0 559 180v268h-356q-100 0 -105 95q3 101 99 104h686q82 -14 84 -111 q0 -84 -80 -90l-125 2v-585q-16 -76 -105 -76q-72 4 -88 71l-2 78q-326 -152 -575 -161q-805 12 -811 866z" />
<glyph unicode="H" horiz-adv-x="1757" d="M29 647q4 88 92 107v966q0 143 108.5 143.5t108.5 -141.5v-964h1081v121v845q0 139 111 140q109 0 108 -140v-970q80 -15 80 -105q0 -88 -80 -94v-432q0 -133 -108 -133q-111 0 -111 133v428h-1081v-424q0 -127 -108.5 -127t-108.5 129v426q-92 10 -92 92z" />
<glyph unicode="I" horiz-adv-x="708" d="M51 88q0 119 109 119h82v1442h-82q-109 0 -109 118q0 92 113 93h379q113 0 112 -93q0 -119 -108 -118h-92v-1442h92q109 0 108 -119q0 -92 -112 -92h-379q-113 0 -113 92z" />
<glyph unicode="J" horiz-adv-x="1681" d="M82 272q8 98 96 99q70 0 166 -84q98 -86 305 -86q279 0 441 198q160 197 159 629q0 305 -39 524l-970 -2q-127 0 -127 107q6 109 125 108h936q0 111 102 117q111 0 110 -117h179q131 0 131 -100q-10 -113 -121 -113h-152q39 -221 39 -532q-4 -537 -225 -780 q-223 -244 -600 -250q-215 0 -387 94q-168 92 -168 188z" />
<glyph unicode="K" horiz-adv-x="1632" d="M-6 623q0 78 76 114l-2 1032q0 106 112 107q102 0 103 -115v-899q768 342 1122 920q29 84 115 84q86 -6 86 -78q0 -63 -56 -162q-389 -645 -1257 -981q752 -111 1223 -422q78 -66 77 -145q-4 -78 -100 -82q-51 6 -104 37q-438 297 -1106 403v-350q0 -94 -103 -94 q-113 0 -112 94h2v428q-72 21 -76 109z" />
<glyph unicode="L" horiz-adv-x="1439" d="M68 1755q4 117 106 117q111 0 111 -113v-1550q635 0 909 84q77 31 160 43q90 -4 94 -105q0 -100 -125 -137q-281 -74 -645 -96l-410 -4q-195 8 -200 196v1565z" />
<glyph unicode="M" horiz-adv-x="2340" d="M61 139v1606q6 104 99 115q696 -45 1016 -1090q319 1044 1013 1090q90 -8 99 -115v-1606q-12 -135 -111 -135q-111 0 -111 131v1475q-438 -61 -798 -1237q-8 -72 -94 -78q-84 6 -93 78q-360 1176 -800 1237v-1475q0 -131 -111 -131q-97 0 -109 135z" />
<glyph unicode="N" horiz-adv-x="1796" d="M61 139v1606q6 104 99 115q930 -86 1358 -1041v914q2 94 92 118q127 0 127 -120v-1635q-8 -104 -109 -104q-96 8 -106 96v205q-457 1217 -1243 1327v-1485q0 -131 -109 -131q-97 0 -109 135z" />
<glyph unicode="O" horiz-adv-x="1957" d="M27 887q2 317 184 567q180 248 313 248q-39 12 -39 78q0 39 60 73q145 18 407 29q387 -9 676 -240q291 -231 291 -765q-33 -465 -295 -687q-260 -219 -672 -219q-395 0 -663 246q-262 242 -262 670zM250 885q8 -383 221 -543t481 -166q268 0 494 152q223 150 244 553 q0 436 -230 620q-229 182 -510 193l-121 -13q195 -35 195 -157q-8 -63 -92 -64q-51 0 -105 39q-57 41 -161 41q-119 0 -267 -194q-145 -193 -149 -461z" />
<glyph unicode="P" horiz-adv-x="1615" d="M61 86v1724q0 80 101 82q82 0 100 -75q76 41 336 45q403 0 682 -199q274 -195 293 -502v-49q-12 -254 -219 -409.5t-615 -155.5h-473v-467q-12 -78 -104 -94q-101 0 -101 100zM266 752h443q414 6 532 122q123 119 123 275q0 193 -213 348q-211 156 -578 156 q-221 0 -307 -45v-856z" />
<glyph unicode="Q" horiz-adv-x="1937" d="M37 979q33 465 289 684t667 219q395 0 658 -246q258 -243 258 -669q-4 -330 -174 -572q-172 -244 -303 -264l446 -375q76 -57 80 -125q-18 -80 -92 -92q-94 4 -178 105l-388 346q-143 -23 -307 -29q-406 8 -682 252q-274 240 -274 766zM256 973q0 -434 229 -619 q229 -182 510 -192l86 8q-57 25 -116 66q-53 35 -56 100q2 88 109 88q82 -4 133 -57q94 -53 129 -54q119 0 266 195q145 193 150 461q-8 383 -221 542q-211 160 -484 166q-268 0 -491 -149q-221 -149 -244 -555z" />
<glyph unicode="R" horiz-adv-x="1626" d="M39 86v1724q0 78 111 82q76 0 94 -75q76 41 334 45q403 0 682 -199q274 -195 292 -502q0 -403 -356 -549l369 -448q31 -37 30 -82q0 -92 -112 -92q-88 0 -154 112l-373 449h-710v-471q-12 -78 -96 -94q-111 0 -111 100zM246 752h514q573 0 573 397q0 193 -206.5 344.5 t-571.5 151.5q-227 0 -309 -37v-856z" />
<glyph unicode="S" horiz-adv-x="1574" d="M43 1262q25 598 823 622q367 -2 598 -147q82 -51 82 -135q-16 -88 -86 -89q-63 0 -163.5 80t-434.5 93q-600 -31 -606 -429q0 -246 621 -376q623 -133 622 -502q-20 -385 -653 -408q-406 18 -619 150q-82 61 -82 131q6 102 86 102q45 0 121 -63q201 -106 498 -113 q418 27 430 205q0 227 -618.5 350t-618.5 529z" />
<glyph unicode="T" horiz-adv-x="1429" d="M0 1767q0 92 115 93h1198q113 0 112 -93q0 -119 -108 -118h-490l-2 -1561q0 -92 -102 -92q-115 0 -115 92v1561h-499q-109 -1 -109 118z" />
<glyph unicode="U" horiz-adv-x="1597" d="M23 809q0 336 75 950q12 117 113 117q104 -4 104 -125q-74 -642 -73 -940q0 -295 207 -449q209 -156 573 -155q201 0 297 84v1483q12 109 113 108q106 0 106 -110v-1694q0 -80 -100 -82q-96 0 -115 78q-88 -72 -326 -76q-403 0 -682 199q-274 194 -292 612z" />
<glyph unicode="V" horiz-adv-x="1611" d="M2 1743q0 104 86 121q100 0 143 -131l572 -1377l571 1377q43 131 131 131q98 -16 99 -121q-10 -59 -33 -109l-635 -1515q-37 -117 -133 -121q-96 4 -133 121l-635 1515q-23 50 -33 109z" />
<glyph unicode="W" horiz-adv-x="2400" d="M2 1743q0 104 86 121q102 0 145 -131l570 -1377l280 617q4 14 25 55q14 63 82 76h12h15q68 -12 81 -76q14 -29 23 -55l283 -617l567 1377q43 131 141 131q90 -14 90 -121q-10 -68 -30 -109l-635 -1515q-37 -117 -133 -121h-2q-96 4 -134 121l-266 602l-266 -602 q-37 -117 -133 -121q-96 4 -133 121l-635 1515q-23 50 -33 109z" />
<glyph unicode="X" horiz-adv-x="1382" d="M18 109q8 51 39 108l449 713l-449 712q-31 57 -39 107q0 109 82 123q100 0 156 -133l430 -672l440 662q55 133 154 133q84 -16 84 -121q-8 -45 -41 -109l-457 -702l457 -703q33 -63 41 -108q0 -104 -84 -121q-98 0 -154 131l-440 664l-430 -672q-55 -133 -156 -133 q-82 15 -82 121z" />
<glyph unicode="Y" horiz-adv-x="1511" d="M33 1749q0 109 100 123q94 0 150 -133l465 -905l475 895q55 133 149 133q100 -14 101 -121q-8 -55 -41 -109l-576 -1085v-434q0 -106 -108 -113q-111 6 -111 113v434l-563 1095q-33 56 -41 107z" />
<glyph unicode="Z" horiz-adv-x="1484" d="M49 141q0 262 137 408q137 147 586 493q451 348 451 598h-1033q-126 0 -141 105q6 102 141 108l1147 2q127 -12 127 -147q-8 -389 -477 -762q-463 -369 -575 -487q-111 -117 -111 -238l991 -2q129 0 144 -113q-6 -102 -144 -108h-1116q-127 8 -127 143z" />
<glyph unicode="[" horiz-adv-x="798" d="M170 -90v2044q0 131 109 131l335 2q106 -12 107 -90q-2 -102 -94 -105h-277v-1921h277q92 -2 94 -104q0 -78 -107 -90l-335 2q-109 0 -109 131z" />
<glyph unicode="\" horiz-adv-x="778" d="M14 1948q0 90 109 94q78 -18 90 -113l539 -1843q23 -45 22 -111q-12 -90 -80 -90q-74 6 -98 72l-543 1841q-39 68 -39 150z" />
<glyph unicode="]" horiz-adv-x="792" d="M80 -133q2 102 94 104h277v1921h-277q-92 2 -94 105q0 78 106 90l336 -2q109 0 109 -131v-2044q0 -131 -109 -131l-336 -2q-106 12 -106 90z" />
<glyph unicode="^" horiz-adv-x="1064" />
<glyph unicode="_" d="M-90 -197q2 84 94 84h1139q96 0 96 -92q-2 -86 -96 -86h-1137q-92 0 -96 94z" />
<glyph unicode="`" horiz-adv-x="681" d="M74 1493q6 61 69 61q57 0 127 -41q184 -63 217 -67q47 -6 82 -19q49 -18 49 -59q0 -43 -53 -53q-133 6 -434 115q-55 20 -57 63z" />
<glyph unicode="a" horiz-adv-x="1280" d="M61 324q0 180 199 317q199 135 455 158q213 0 289 -45q0 90 -68 151q-66 59 -248 72q-205 0 -276 -53q-70 -51 -148 -52q-74 9 -74 105q6 78 146 133q138 55 356 61q293 -6 403.5 -141t110.5 -321l21 -586q-6 -113 -103 -123q-88 10 -96 74l-4 98q-240 -178 -612 -178 q-349 19 -351 330zM258 326q6 -141 174 -142q197 12 375 88q182 78 188 205q0 126 -270 135q-170 -6 -317 -92q-150 -88 -150 -194z" />
<glyph unicode="b" horiz-adv-x="1300" d="M76 96v1665q4 117 104 117q98 -2 99 -129v-971q229 350 591 350q348 -18 361 -401q0 -258 -201 -494q-195 -227 -514 -249q-147 0 -237 36q-31 -37 -115 -36q-88 -1 -88 112zM297 385q0 -207 215 -207q174 0 334 154q162 156 182 393q-6 201 -168 201q-195 -4 -375 -193 q-182 -192 -188 -348z" />
<glyph unicode="c" horiz-adv-x="1095" d="M57 494q0 291 144 467q143 178 420 198q354 -12 360 -164q-2 -82 -90 -88q-51 0 -114.5 29t-151.5 29q-129 0 -250 -129q-117 -127 -121 -320q20 -330 264 -336q139 0 234 84q92 82 112 131q23 51 92 51q78 -4 84 -104q-8 -115 -147 -235.5t-361 -126.5q-463 6 -475 514z " />
<glyph unicode="d" horiz-adv-x="1331" d="M51 393q0 260 201 496q195 227 514 250q141 0 229 -35l-6 639q4 117 115 121q88 -14 94 -121q6 -879 31 -1204q27 -352 26 -416q-6 -113 -102 -123q-104 9 -104 123l-25 250q-250 -379 -623 -379q-348 18 -350 399zM250 395q6 -211 172 -211q195 12 375 203t190 344 l-2 86q0 125 -217 125q-172 0 -332 -154q-157 -151 -186 -393z" />
<glyph unicode="e" horiz-adv-x="1214" d="M57 516q0 295 192.5 469t481.5 186q414 -16 418 -323q0 -305 -571 -318q-211 10 -299 11q10 -342 364 -361q164 4 297 121q65 61 129 61q84 0 84 -96q-2 -76 -147 -180q-143 -102 -437 -106q-471 55 -512 536zM319 739q84 -6 248 -10q375 0 379 115q0 137 -215 137 q-326 -27 -412 -242z" />
<glyph unicode="f" horiz-adv-x="622" d="M-57 1372q0 78 90 84l49 4q6 176 78 289q74 117 235 117q137 0 205 -37q70 -39 70 -109q-8 -74 -78 -75q-23 0 -80 14q-55 14 -121 16q-100 -12 -104 -219h235q78 -12 80 -76q-10 -90 -84 -98h-233l10 -1159q0 -111 -100 -123q-92 0 -109 125l-14 1155h-45q-84 0 -84 92z " />
<glyph unicode="g" horiz-adv-x="1280" d="M39 385q0 260 199 494q195 227 514 249q143 0 237 -38q33 39 117 38q96 0 96 -112l12 -535l-8 -424q0 -262 -149 -428q-147 -164 -379 -170q-188 0 -277 41q-84 39 -84 117q4 70 89 90q78 0 133 -24.5t143 -24.5q102 0 215 100q111 98 113 330l4 274q-252 -379 -627 -378 q-346 18 -348 401zM236 385q6 -211 174 -211q190 12 372 205q184 193 193 342l-2 86q0 125 -217 125q-172 0 -332 -154q-161 -155 -188 -393z" />
<glyph unicode="h" horiz-adv-x="1214" d="M66 1757q12 96 102 96q96 -10 102 -131l9 -934q156 365 493 371q348 -8 354 -452q0 -260 -20 -603q-10 -102 -115 -102q-84 8 -84 109q16 383 17 579q-8 252 -158 271q-145 0 -280.5 -190.5t-184.5 -659.5q-6 -96 -104 -105q-102 12 -103 117q-28 1616 -28 1634z" />
<glyph unicode="i" horiz-adv-x="626" d="M82 426l10 616q6 109 104.5 109t98.5 -111l-10 -624q20 -217 112 -217q31 0 53.5 8t61.5 8q53 0 61 -78q-2 -143 -188 -143q-297 20 -303 432zM129 1587q23 102 131 103q106 -25 107 -136q-18 -102 -121 -114q-115 6 -117 147z" />
<glyph unicode="j" horiz-adv-x="528" d="M-332 -270q4 84 66 96q41 0 88 -21q43 -18 125 -18q131 0 194 100q68 106 68 422l-21 762q6 88 103 103q80 -2 98 -109l23 -786q0 -391 -115 -543q-113 -150 -354 -156q-257 17 -275 150zM154 1659q0 127 108 151q127 0 137 -108l-10 -62q-41 -94 -127 -94 q-90 0 -108 113z" />
<glyph unicode="k" horiz-adv-x="1105" d="M61 121l13 1585q4 121 112 129q102 0 103 -111l-10 -960l475 303q82 70 139 70q104 0 111 -115q-10 -70 -134 -131l-305 -197l473 -518q31 -37 31 -98q-2 -72 -84 -84q-90 12 -108 51l-498 547l-90 -62l2 -401q0 -129 -109 -129q-117 0 -121 121z" />
<glyph unicode="l" horiz-adv-x="571" d="M55 426l17 1333q6 106 102 107q98 0 98 -109l-14 -1341q20 -217 115 -217q31 0 53.5 8t58.5 8q55 0 64 -78q-2 -143 -191 -143q-297 20 -303 432z" />
<glyph unicode="m" horiz-adv-x="1941" d="M70 1065q12 94 100 94q109 -10 115 -131l14 -262q170 385 504 391q229 -6 309 -199q154 193 391 199q348 -8 355 -455q0 -260 -21 -602q-8 -100 -115 -100q-84 8 -84 106q16 383 17 582q-8 252 -158 270q-145 0 -280 -190q-29 -39 -60 -111q-4 -256 -20 -557 q-8 -100 -113 -100q-86 8 -86 106q16 383 16 582q-8 252 -157 270q-145 0 -281 -190q-133 -186 -182 -672q-6 -92 -109 -102q-102 12 -102 117q-6 426 -31 669q-22 219 -22 285z" />
<glyph unicode="n" horiz-adv-x="1234" d="M70 1059q12 94 100 94q109 -10 115 -129l6 -246q170 367 502 373q348 -8 354 -455q0 -260 -21 -602q-8 -100 -112 -100q-86 10 -86 106q16 383 16 582q-8 252 -158 270q-143 0 -278 -190.5t-184 -661.5q-6 -92 -109 -102q-102 12 -102 117q-6 451 -24.5 659.5 t-18.5 284.5z" />
<glyph unicode="o" horiz-adv-x="1359" d="M45 627q16 231 154 379q141 150 419 165l74 -2q205 -12 385 -155q182 -145 226 -432q0 -279 -158 -432.5t-453 -172.5l-53 7q-258 25 -424 186q-160 158 -170 457zM248 610q20 -332 370 -430l80 -10q315 31 396 297l10 47q0 199 -129 317q-129 121 -316 136h-51 q-313 -40 -360 -357z" />
<glyph unicode="p" horiz-adv-x="1288" d="M70 1020q6 113 100 121q106 -10 106 -123l7 -240q242 371 612 371q346 -18 348 -401q0 -260 -199 -494q-197 -229 -514 -252q-123 0 -215 31l9 -455q-10 -111 -95 -115q-104 0 -112 119zM307 420l2 -86q0 -125 217 -135q172 0 332 153q162 156 189 393q-6 211 -175 211 q-193 -12 -372 -198q-185 -191 -193 -338z" />
<glyph unicode="q" horiz-adv-x="1345" d="M39 385q0 260 199 494q195 227 514 249q143 0 237 -38q33 39 96 38q70 0 89 -84l28 -1136q16 -248 164 -248q34 0 55 6q20 6 49 6q70 -10 76 -98q0 -117 -209 -121q-315 39 -331 434l-11 435q-233 -338 -608 -338q-346 18 -348 401zM236 385q6 -211 174 -211 q190 12 372 205q184 193 193 342l-2 86q0 125 -217 125q-172 0 -332 -154q-161 -155 -188 -393z" />
<glyph unicode="r" horiz-adv-x="806" d="M51 1067q14 88 94 94q98 -6 111 -98q61 80 213 92q276 -18 297 -217q-4 -92 -74 -100q-82 0 -116.5 59t-100.5 68q-170 -20 -188 -183l26 -661q-16 -121 -112 -121q-92 0 -99 115q-12 682 -30 762q-21 90 -21 190z" />
<glyph unicode="s" horiz-adv-x="1095" d="M70 252q0 74 59 88q57 0 141 -72q86 -74 267 -75q266 6 276 165q0 172 -352 174.5t-381 255.5l2 60q63 297 479 330l70 -2q303 -20 319 -195q-4 -70 -73 -82q-61 2 -119 41q-55 37 -154 37q-141 0 -223 -35q-76 -33 -86 -119q0 -115 344 -118q344 -2 389 -324l-4 -88 q-55 -279 -477 -316h-60q-399 31 -417 275z" />
<glyph unicode="t" horiz-adv-x="915" d="M18 1184q6 90 95 96h94l4 229q12 88 108 88q88 -6 97 -104l-2 -213h315q88 -6 94 -96q-8 -92 -98 -92h-147l-187 2l-4 -623q2 -260 182 -268q104 6 123 119q29 90 111 90q86 0 86 -113q-43 -283 -320 -299q-385 12 -387 475v617h-63q-91 0 -101 92z" />
<glyph unicode="u" horiz-adv-x="1189" d="M53 461q0 256 21 602q8 100 112 100q86 -8 86 -106q-16 -383 -16 -582q8 -252 158 -270q143 0 278 190.5t185 661.5q6 94 106 102q104 -12 104 -117q6 -438 29 -659q25 -240 25 -285q-12 -96 -103 -96q-106 8 -112 133l-17 262q-166 -391 -501 -397q-349 8 -355 461z" />
<glyph unicode="v" horiz-adv-x="1056" d="M16 1073q12 80 97 90q68 0 100 -55q35 -55 145 -340l166 -428q27 74 164 428q109 279 146 340q34 55 110 55q74 -8 86 -90q0 -59 -80 -237q-96 -213 -266 -666q-66 -166 -158 -166q-96 0 -161 166q-190 498 -267 666q-82 182 -82 237z" />
<glyph unicode="w" horiz-adv-x="1644" d="M8 1073q12 82 84 90q68 0 103 -55q31 -51 118 -336q92 -303 144 -432q61 172 139 428q84 281 121 340q31 49 94 55q53 -6 84 -55q31 -51 119 -336q92 -303 143 -432q61 172 139 428q84 281 121 340q33 55 101 55q74 -8 86 -90q0 -53 -70 -237q-74 -195 -213 -666 q-70 -166 -162 -166q-98 0 -164 166q-121 442 -188 614q-84 -217 -191 -614q-66 -166 -157 -166q-98 0 -168 166q-145 483 -215 666q-68 178 -68 237z" />
<glyph unicode="x" horiz-adv-x="1056" d="M29 111q0 68 75 127l293 344l-293 331q-76 59 -75 127q6 102 94 111q76 -4 123 -86l272 -297l275 297q47 82 122 86q86 -9 93 -111q0 -70 -76 -127l-285 -323l301 -350q76 -57 76 -127q-6 -104 -94 -113q-72 2 -121 90l-289 328l-274 -330q-49 -84 -123 -88 q-88 9 -94 111z" />
<glyph unicode="y" horiz-adv-x="1181" d="M49 461q0 240 31 602q8 100 115 100q84 -8 84 -106q-25 -360 -25 -582q10 -252 156 -270q145 0 280 190q131 184 191 662q6 94 106 102q104 -12 105 -117q18 -390 18 -700q0 -455 -139.5 -668t-421.5 -215q-150 0 -236 41q-59 27 -59 103q6 66 65 92q63 0 107 -17 q47 -18 121 -18q168 0 264 151.5t96 585.5q-170 -385 -504 -391q-348 9 -354 455z" />
<glyph unicode="z" horiz-adv-x="968" d="M49 106q0 57 31 119l579 727h-524q-84 18 -86 99q8 92 107 98h657q104 -14 105 -100q0 -55 -29 -119l-580 -725h522q83 -18 87 -105q-10 -88 -105 -96h-657q-107 18 -107 102z" />
<glyph unicode="~" horiz-adv-x="1013" d="M135 768q43 168 238 174q90 -6 164 -31q71 -25 122 -24h5q41 0 73 69q35 72 92 78q53 -10 54 -65q-45 -201 -211 -219q-119 6 -187 30q-76 27 -125 27q-45 0 -102 -74q-23 -45 -78 -45q-45 19 -45 80z" />
<glyph unicode="&#xa1;" horiz-adv-x="569" d="M416 1030q0 -133 -119 -143q-131 0 -141 127q0 135 125 139q126 0 135 -123zM414 -455q0 -123 -113 -123q-111 4 -116 125q0 23 1 129.5t4 358.5t5 491q0 92 111 111q100 -25 100 -119l4 -495.5l3 -347.5t1 -130z" />
<glyph unicode="&#xa2;" horiz-adv-x="1067" d="M51 715q0 291 144 467q145 180 419 200q6 0 17.5 -1t17.5 -1l156 400q18 88 80 88q66 -6 65 -103q-6 -68 -22 -104l-121 -301q164 -37 168 -141q-2 -82 -90 -89q-51 0 -115 29q-25 8 -39 12l-303 -755q43 -14 84 -15q139 0 233 84q90 80 113 133q22 49 92 50 q78 -4 84 -105q-8 -115 -147 -235q-137 -119 -361 -125q-92 0 -172 22l-67 -166q-31 -86 -88 -86q-47 4 -54 72q0 45 37 131l43 113q-168 123 -174 426zM248 739q10 -150 63 -231l262 674q-111 -23 -204 -123q-117 -127 -121 -320z" />
<glyph unicode="&#xa3;" horiz-adv-x="1476" d="M6 803q6 68 94 84l9 100q-100 18 -103 100q8 76 119 87q37 326 205 503q178 188 493 195q358 0 518 -135q35 -41 35 -99q-6 -88 -94 -88q-61 6 -168 58q-98 47 -280 51q-200 0 -332 -123q-121 -98 -160 -360h338q131 0 143 -91q-6 -92 -137 -102h-362l-7 -94l363 2 q131 -2 143 -90q-6 -90 -137 -103h-387l-39 -493l690 -12q205 0 272.5 116.5t141.5 116.5q86 -6 86 -111q0 -109 -139 -219q-137 -109 -373 -108l-801 12q-84 6 -96 137l45 570q-76 20 -80 96z" />
<glyph unicode="&#xa8;" horiz-adv-x="1024" d="M256 1417q12 61 92 82q119 -4 119 -108q-20 -92 -102 -93q-109 0 -109 119zM522 1417q12 61 94 82q117 -4 117 -108q-18 -92 -102 -93q-109 0 -109 119z" />
<glyph unicode="&#xaa;" horiz-adv-x="813" d="M22.2588 1353.39q0 107.995 131.334 190.191q131.335 80.9971 300.288 94.7969q140.574 0 190.732 -26.999q0 53.9971 -44.8789 90.5957q-43.5576 35.3994 -163.673 43.1982q-135.295 0 -182.152 -31.7988q-46.1982 -30.5986 -97.6768 -31.1982 q-48.8379 5.39941 -48.8379 62.9971q3.95996 46.7988 96.3564 79.7969q91.0762 32.999 234.95 36.5986q193.372 -3.59961 266.3 -84.5967q72.9268 -80.9961 72.9268 -192.592l13.8594 -351.586q-3.95996 -67.7969 -67.9775 -73.7969q-58.0771 6 -63.3574 44.3984 l-2.63965 58.7969q-158.394 -106.795 -403.903 -106.795q-230.331 11.3994 -231.65 197.992zM152.273 1354.59q3.95898 -84.5967 114.835 -85.1963q130.015 7.2002 247.49 52.7979q120.115 46.7979 124.074 122.995q0 75.5967 -178.192 80.9971 q-112.195 -3.60059 -209.211 -55.1982q-98.9961 -52.7979 -98.9961 -116.396zM47 893q1 84 47 84h569.5q48 0 48 -92q-1 -86 -48 -86h-568.5q-46 0 -48 94z" />
<glyph unicode="&#xac;" horiz-adv-x="1013" d="M86 668v100h842v-492l-2 -2h-99v394h-741z" />
<glyph unicode="&#xad;" horiz-adv-x="786" d="M20 721q6 92 127 92h465q115 0 127 -92q-6 -96 -118 -109l-476 -2q-121 7 -125 111z" />
<glyph unicode="&#xaf;" horiz-adv-x="786" d="M51 1462q6 78 101 78q104 -6 204 -6q121 4 224 16q82 0 90 -75q-6 -78 -74 -91q-96 -10 -219 -14l-217 -2q-105 6 -109 94z" />
<glyph unicode="&#xb0;" horiz-adv-x="673" d="M59 1163q0 119 82 199q84 80 199 80t195 -82q82 -86 81 -197q0 -113 -81.5 -194.5t-196.5 -81.5q-119 0 -199 79.5t-80 196.5zM129 1163q0 -86 61 -147q59 -59 150 -60q86 0 145 60q61 61 62 147q0 86 -61.5 147.5t-145.5 61.5q-86 0 -147 -61q-64 -64 -64 -148z" />
<glyph unicode="&#xb2;" d="M41 999l2 31q68 385 477 432h84q412 -43 463 -456q0 -231 -125 -396q-127 -168 -512 -399l270 16q154 0 267 -22q123 -25 129 -123q0 -86 -111 -86q-68 25 -280 37q-408 -18 -519 -43q-102 8 -102 116q0 106 387 359q412 240 412 528q-25 274 -320 299q-267 -9 -344 -282 q-10 -117 -102 -117q-76 0 -76 106z" />
<glyph unicode="&#xb3;" d="M33 403q14 70 96 70q68 0 117 -129q47 -127 299 -147q332 16 364 264q-18 274 -278 291l-93.5 -7.5t-109.5 -7.5q-96 20 -96 105q12 92 219 116q203 25 203 218q-18 115 -152 120q-324 -6 -373 -204q0 -72 -94 -80q-76 20 -84 104v49q74 287 473 310l92 2 q285 -25 347 -263l10 -59q-10 -158 -144 -274q274 -86 281 -426q-51 -418 -541 -463q-511 1 -536 411z" />
<glyph unicode="&#xb4;" horiz-adv-x="1024" d="M211 1317q0 49 84 72l266 102q113 45 141 45q45 -8 50 -53q0 -45 -84 -74q-338 -143 -396 -143q-61 0 -61 51z" />
<glyph unicode="&#xb7;" horiz-adv-x="706" d="M158 776q0 115 100 123q111 0 121 -108q0 -115 -105 -119q-107 0 -116 104z" />
<glyph unicode="&#x2219;" horiz-adv-x="706" d="M158 776q0 115 100 123q111 0 121 -108q0 -115 -105 -119q-107 0 -116 104z" />
<glyph unicode="&#xb8;" horiz-adv-x="1024" d="M344 -299q4 47 53 47q29 0 52 -43q23 -45 94 -53q80 6 94 72q-6 76 -88 81q-49 12 -88 60q-27 37 -27 143h113q0 -104 65 -106q131 -53 133 -181q-20 -156 -192 -174q-200 0 -209 154z" />
<glyph unicode="&#xb9;" d="M188 1038q0 72 48 109l229 186q137 139 227 140q92 -8 115 -74q-6 -530 -45 -1331q-9 -68 -105 -68q-84 2 -102 66q53 799 53 1165q-227 -248 -327 -260q-75 6 -93 67z" />
<glyph unicode="&#xba;" horiz-adv-x="1359" d="M45 627q16 231 154 379q141 150 419 165l74 -2q205 -12 385 -155q182 -145 226 -432q0 -279 -158 -432.5t-453 -172.5l-53 7q-258 25 -424 186q-160 158 -170 457zM248 610q20 -332 370 -430l80 -10q315 31 396 297l10 47q0 199 -129 317q-129 121 -316 136h-51 q-313 -40 -360 -357z" />
<glyph unicode="&#xbc;" horiz-adv-x="1705" d="M27 1174q0 49 30 73l152 123q92 92 149 92q59 -6 76 -49q-3 -335 -31 -885q-6 -43 -67 -43q-57 2 -70 43q37 550 37 775q-150 -166 -217 -175q-47 7 -59 46zM434 66v32q4 68 533 1350q6 61 57 70q55 -3 61 -105q-4 -92 -567 -1431q-84 4 -84 84zM891 279v26 q25 195 244 443q218 246 270 245q66 0 100 -71q-4 -303 -24 -576l112 8q65 -6 80 -67q-23 -72 -57 -72l-135 4l2 -168q-12 -43 -70 -43q-59 6 -65 66l6 139q-190 0 -393 -35q-70 11 -70 101zM1036 313q147 31 320 31q23 311 26 492q-340 -341 -346 -523z" />
<glyph unicode="&#xbd;" horiz-adv-x="1617" d="M27 1169q0 47 30 72l150 125q92 92 149 92q59 -6 76 -49q-4 -385 -29 -885q-6 -45 -67 -45q-57 2 -70 43q37 550 37 774q-147 -162 -217 -172q-47 6 -59 45zM354 66v32q4 68 533 1350q6 61 57 70q55 -3 62 -105q-4 -92 -568 -1431q-84 4 -84 84zM887 668q46 240 338 288 h55q252 -27 301 -297q0 -143 -80 -251q-84 -117 -336 -267l176 4q94 0 175 -12q82 -12 83 -76q0 -45 -71 -57q-47 18 -176 25q-268 -2 -332 -27l-43 6q-25 0 -37 78q0 47 254 217q274 156 274 344q-29 180 -219 197q-175 -6 -245 -178q0 -76 -68 -76q-41 0 -49 82z" />
<glyph unicode="&#xbe;" horiz-adv-x="1705" d="M33 770q25 47 73 47q39 0 72 -84q34 -86 209 -98q227 10 252 174q-12 180 -193 190q-23 -2 -70.5 -5t-70.5 -5q-66 14 -65 70q10 63 151 78q139 14 139 143q-12 74 -104 80q-223 -6 -256 -137q0 -39 -66 -52q-53 12 -59 62v41q49 186 328 203h63q197 -15 240 -172l6 -39 q-6 -102 -98 -181q190 -55 194 -280q-33 -274 -375 -305q-352 2 -370 270zM561 41v33q4 68 533 1349q6 61 57 70q55 -3 61 -104q-4 -92 -567 -1432q-84 4 -84 84zM891 279v26q25 195 244 443q218 246 270 245q66 0 100 -71q-4 -303 -24 -576l112 8q65 -6 80 -67 q-23 -72 -57 -72l-135 4l2 -168q-12 -43 -70 -43q-59 6 -65 66l6 139q-190 0 -393 -35q-70 11 -70 101zM1036 313q147 31 320 31q23 311 26 492q-340 -341 -346 -523z" />
<glyph unicode="&#xc0;" horiz-adv-x="1699" d="M406 2181q6 61 69 61q57 0 127 -41q184 -63 217 -67q47 -6 82 -19q49 -18 49 -59q0 -43 -53 -53q-133 6 -434 115q-55 20 -57 63zM70 106v1465q4 109 100 108q104 0 104 -145q221 332 623 332q377 -6 555 -252q178 -248 182 -653v-865q0 -100 -94 -100q-109 0 -108 98 v766h-1156v-754q0 -109 -104 -108q-102 2 -102 108zM307 1055h1112q0 207 -129 407.5t-397 200.5q-260 0 -424 -207q-162 -204 -162 -401z" />
<glyph unicode="&#xc1;" horiz-adv-x="1699" d="M836 2054q0 49 84 72l266 102q113 45 141 45q45 -8 50 -53q0 -45 -84 -74q-338 -143 -396 -143q-61 0 -61 51zM70 106v1465q4 109 100 108q104 0 104 -145q221 332 623 332q377 -6 555 -252q178 -248 182 -653v-865q0 -100 -94 -100q-109 0 -108 98v766h-1156v-754 q0 -109 -104 -108q-102 2 -102 108zM307 1055h1112q0 207 -129 407.5t-397 200.5q-260 0 -424 -207q-162 -204 -162 -401z" />
<glyph unicode="&#xc2;" horiz-adv-x="1699" d="M70 106v1465q4 109 100 108q104 0 104 -145q221 332 623 332q377 -6 555 -252q178 -248 182 -653v-865q0 -100 -94 -100q-109 0 -108 98v766h-1156v-754q0 -109 -104 -108q-102 2 -102 108zM307 1055h1112q0 207 -129 407.5t-397 200.5q-260 0 -424 -207 q-162 -204 -162 -401z" />
<glyph unicode="&#xc3;" horiz-adv-x="1699" d="M522 2085q43 168 238 174q90 -6 164 -31q71 -25 122 -24h5q41 0 73 69q35 72 92 78q53 -10 54 -65q-45 -201 -211 -219q-119 6 -187 30q-76 27 -125 27q-45 0 -102 -74q-23 -45 -78 -45q-45 19 -45 80zM70 106v1465q4 109 100 108q104 0 104 -145q221 332 623 332 q377 -6 555 -252q178 -248 182 -653v-865q0 -100 -94 -100q-109 0 -108 98v766h-1156v-754q0 -109 -104 -108q-102 2 -102 108zM307 1055h1112q0 207 -129 407.5t-397 200.5q-260 0 -424 -207q-162 -204 -162 -401z" />
<glyph unicode="&#xc4;" horiz-adv-x="1699" d="M657 2124q12 61 92 82q119 -4 119 -108q-20 -92 -102 -93q-109 0 -109 119zM923 2124q12 61 94 82q117 -4 117 -108q-18 -92 -102 -93q-109 0 -109 119zM70 106v1465q4 109 100 108q104 0 104 -145q221 332 623 332q377 -6 555 -252q178 -248 182 -653v-865 q0 -100 -94 -100q-109 0 -108 98v766h-1156v-754q0 -109 -104 -108q-102 2 -102 108zM307 1055h1112q0 207 -129 407.5t-397 200.5q-260 0 -424 -207q-162 -204 -162 -401z" />
<glyph unicode="&#xc5;" horiz-adv-x="1699" d="M618 2140q0 119 82 199q84 80 199 80t195 -82q82 -86 81 -197q0 -113 -81.5 -194.5t-196.5 -81.5q-119 0 -199 79.5t-80 196.5zM688 2140q0 -86 61 -147q59 -59 150 -60q86 0 145 60q61 61 62 147q0 86 -61.5 147.5t-145.5 61.5q-86 0 -147 -61q-64 -64 -64 -148zM70 106 v1465q4 109 100 108q104 0 104 -145q221 332 623 332q377 -6 555 -252q178 -248 182 -653v-865q0 -100 -94 -100q-109 0 -108 98v766h-1156v-754q0 -109 -104 -108q-102 2 -102 108zM307 1055h1112q0 207 -129 407.5t-397 200.5q-260 0 -424 -207q-162 -204 -162 -401z" />
<glyph unicode="&#xc7;" horiz-adv-x="1552" d="M735 -313q4 47 53 47q29 0 52 -43q23 -45 94 -53q80 6 94 72q-6 76 -88 81q-49 12 -88 60q-27 37 -27 143h113q0 -104 65 -106q131 -53 133 -181q-20 -156 -192 -174q-200 0 -209 154zM59 846q2 440 271 733q266 291 614 297q215 0 387 -94q170 -92 170 -191 q-10 -98 -96 -98q-70 0 -162 80q-90 78 -301 78q-249 0 -455 -246q-205 -244 -204 -569q0 -352 186 -491.5t422 -139.5q254 0 352 24q106 27 180 27q86 -14 86 -106q0 -113 -186 -138q-174 -23 -440 -32q-818 12 -824 866z" />
<glyph unicode="&#xc8;" horiz-adv-x="1468" d="M219 2181q6 61 69 61q57 0 127 -41q184 -63 217 -67q47 -6 82 -19q49 -18 49 -59q0 -43 -53 -53q-133 6 -434 115q-55 20 -57 63zM55 1767q0 86 107 95h1102q92 -9 92 -99q-4 -102 -107 -104h-952v-905h860q104 0 105 -109q0 -96 -107 -102h-856v-344h1026 q100 -8 100 -101q-18 -88 -96 -100h-1149q-84 18 -84 143v1524q-41 16 -41 102z" />
<glyph unicode="&#xc9;" horiz-adv-x="1468" d="M651 2054q0 49 84 72l266 102q113 45 141 45q45 -8 50 -53q0 -45 -84 -74q-338 -143 -396 -143q-61 0 -61 51zM55 1767q0 86 107 95h1102q92 -9 92 -99q-4 -102 -107 -104h-952v-905h860q104 0 105 -109q0 -96 -107 -102h-856v-344h1026q100 -8 100 -101 q-18 -88 -96 -100h-1149q-84 18 -84 143v1524q-41 16 -41 102z" />
<glyph unicode="&#xca;" horiz-adv-x="1468" d="M55 1767q0 86 107 95h1102q92 -9 92 -99q-4 -102 -107 -104h-952v-905h860q104 0 105 -109q0 -96 -107 -102h-856v-344h1026q100 -8 100 -101q-18 -88 -96 -100h-1149q-84 18 -84 143v1524q-41 16 -41 102z" />
<glyph unicode="&#xcb;" horiz-adv-x="1468" d="M473 2124q12 61 92 82q119 -4 119 -108q-20 -92 -102 -93q-109 0 -109 119zM739 2124q12 61 94 82q117 -4 117 -108q-18 -92 -102 -93q-109 0 -109 119zM55 1767q0 86 107 95h1102q92 -9 92 -99q-4 -102 -107 -104h-952v-905h860q104 0 105 -109q0 -96 -107 -102h-856 v-344h1026q100 -8 100 -101q-18 -88 -96 -100h-1149q-84 18 -84 143v1524q-41 16 -41 102z" />
<glyph unicode="&#xcc;" horiz-adv-x="708" d="M-139 2181q6 61 69 61q57 0 127 -41q184 -63 217 -67q47 -6 82 -19q49 -18 49 -59q0 -43 -53 -53q-133 6 -434 115q-55 20 -57 63zM51 88q0 119 109 119h82v1442h-82q-109 0 -109 118q0 92 113 93h379q113 0 112 -93q0 -119 -108 -118h-92v-1442h92q109 0 108 -119 q0 -92 -112 -92h-379q-113 0 -113 92z" />
<glyph unicode="&#xcd;" horiz-adv-x="708" d="M293 2054q0 49 84 72l266 102q113 45 141 45q45 -8 50 -53q0 -45 -84 -74q-338 -143 -396 -143q-61 0 -61 51zM51 88q0 119 109 119h82v1442h-82q-109 0 -109 118q0 92 113 93h379q113 0 112 -93q0 -119 -108 -118h-92v-1442h92q109 0 108 -119q0 -92 -112 -92h-379 q-113 0 -113 92z" />
<glyph unicode="&#xce;" horiz-adv-x="708" d="M51 88q0 119 109 119h82v1442h-82q-109 0 -109 118q0 92 113 93h379q113 0 112 -93q0 -119 -108 -118h-92v-1442h92q109 0 108 -119q0 -92 -112 -92h-379q-113 0 -113 92z" />
<glyph unicode="&#xcf;" horiz-adv-x="708" d="M115 2124q12 61 92 82q119 -4 119 -108q-20 -92 -102 -93q-109 0 -109 119zM381 2124q12 61 94 82q117 -4 117 -108q-18 -92 -102 -93q-109 0 -109 119zM51 88q0 119 109 119h82v1442h-82q-109 0 -109 118q0 92 113 93h379q113 0 112 -93q0 -119 -108 -118h-92v-1442h92 q109 0 108 -119q0 -92 -112 -92h-379q-113 0 -113 92z" />
<glyph unicode="&#xd1;" horiz-adv-x="1796" d="M-213 2085q43 168 238 174q90 -6 164 -31q71 -25 122 -24h5q41 0 73 69q35 72 92 78q53 -10 54 -65q-45 -201 -211 -219q-119 6 -187 30q-76 27 -125 27q-45 0 -102 -74q-23 -45 -78 -45q-45 19 -45 80zM61 139v1606q6 104 99 115q930 -86 1358 -1041v914q2 94 92 118 q127 0 127 -120v-1635q-8 -104 -109 -104q-96 8 -106 96v205q-457 1217 -1243 1327v-1485q0 -131 -109 -131q-97 0 -109 135z" />
<glyph unicode="&#xd2;" horiz-adv-x="1957" d="M459 2181q6 61 69 61q57 0 127 -41q184 -63 217 -67q47 -6 82 -19q49 -18 49 -59q0 -43 -53 -53q-133 6 -434 115q-55 20 -57 63zM27 887q2 317 184 567q180 248 313 248q-39 12 -39 78q0 39 60 73q145 18 407 29q387 -9 676 -240q291 -231 291 -765q-33 -465 -295 -687 q-260 -219 -672 -219q-395 0 -663 246q-262 242 -262 670zM250 885q8 -383 221 -543t481 -166q268 0 494 152q223 150 244 553q0 436 -230 620q-229 182 -510 193l-121 -13q195 -35 195 -157q-8 -63 -92 -64q-51 0 -105 39q-57 41 -161 41q-119 0 -267 -194 q-145 -193 -149 -461z" />
<glyph unicode="&#xd3;" horiz-adv-x="1957" d="M891 2054q0 49 84 72l266 102q113 45 141 45q45 -8 50 -53q0 -45 -84 -74q-338 -143 -396 -143q-61 0 -61 51zM27 887q2 317 184 567q180 248 313 248q-39 12 -39 78q0 39 60 73q145 18 407 29q387 -9 676 -240q291 -231 291 -765q-33 -465 -295 -687 q-260 -219 -672 -219q-395 0 -663 246q-262 242 -262 670zM250 885q8 -383 221 -543t481 -166q268 0 494 152q223 150 244 553q0 436 -230 620q-229 182 -510 193l-121 -13q195 -35 195 -157q-8 -63 -92 -64q-51 0 -105 39q-57 41 -161 41q-119 0 -267 -194 q-145 -193 -149 -461z" />
<glyph unicode="&#xd4;" horiz-adv-x="1957" d="M27 887q2 317 184 567q180 248 313 248q-39 12 -39 78q0 39 60 73q145 18 407 29q387 -9 676 -240q291 -231 291 -765q-33 -465 -295 -687q-260 -219 -672 -219q-395 0 -663 246q-262 242 -262 670zM250 885q8 -383 221 -543t481 -166q268 0 494 152q223 150 244 553 q0 436 -230 620q-229 182 -510 193l-121 -13q195 -35 195 -157q-8 -63 -92 -64q-51 0 -105 39q-57 41 -161 41q-119 0 -267 -194q-145 -193 -149 -461z" />
<glyph unicode="&#xd5;" horiz-adv-x="1957" d="M579 2085q43 168 238 174q90 -6 164 -31q71 -25 122 -24h5q41 0 73 69q35 72 92 78q53 -10 54 -65q-45 -201 -211 -219q-119 6 -187 30q-76 27 -125 27q-45 0 -102 -74q-23 -45 -78 -45q-45 19 -45 80zM27 887q2 317 184 567q180 248 313 248q-39 12 -39 78q0 39 60 73 q145 18 407 29q387 -9 676 -240q291 -231 291 -765q-33 -465 -295 -687q-260 -219 -672 -219q-395 0 -663 246q-262 242 -262 670zM250 885q8 -383 221 -543t481 -166q268 0 494 152q223 150 244 553q0 436 -230 620q-229 182 -510 193l-121 -13q195 -35 195 -157 q-8 -63 -92 -64q-51 0 -105 39q-57 41 -161 41q-119 0 -267 -194q-145 -193 -149 -461z" />
<glyph unicode="&#xd6;" horiz-adv-x="1957" d="M713 2124q12 61 92 82q119 -4 119 -108q-20 -92 -102 -93q-109 0 -109 119zM979 2124q12 61 94 82q117 -4 117 -108q-18 -92 -102 -93q-109 0 -109 119zM27 887q2 317 184 567q180 248 313 248q-39 12 -39 78q0 39 60 73q145 18 407 29q387 -9 676 -240 q291 -231 291 -765q-33 -465 -295 -687q-260 -219 -672 -219q-395 0 -663 246q-262 242 -262 670zM250 885q8 -383 221 -543t481 -166q268 0 494 152q223 150 244 553q0 436 -230 620q-229 182 -510 193l-121 -13q195 -35 195 -157q-8 -63 -92 -64q-51 0 -105 39 q-57 41 -161 41q-119 0 -267 -194q-145 -193 -149 -461z" />
<glyph unicode="&#xd9;" horiz-adv-x="1597" d="M940 2183q6 61 69 61q57 0 127 -41q184 -63 217 -67q47 -6 82 -19q49 -18 49 -59q0 -43 -53 -53q-133 6 -434 115q-55 20 -57 63zM23 809q0 336 75 950q12 117 113 117q104 -4 104 -125q-74 -642 -73 -940q0 -295 207 -449q209 -156 573 -155q201 0 297 84v1483 q12 109 113 108q106 0 106 -110v-1694q0 -80 -100 -82q-96 0 -115 78q-88 -72 -326 -76q-403 0 -682 199q-274 194 -292 612z" />
<glyph unicode="&#xda;" horiz-adv-x="1597" d="M1370 2056q0 49 84 72l266 102q113 45 141 45q45 -8 50 -53q0 -45 -84 -74q-338 -143 -396 -143q-61 0 -61 51zM23 809q0 336 75 950q12 117 113 117q104 -4 104 -125q-74 -642 -73 -940q0 -295 207 -449q209 -156 573 -155q201 0 297 84v1483q12 109 113 108 q106 0 106 -110v-1694q0 -80 -100 -82q-96 0 -115 78q-88 -72 -326 -76q-403 0 -682 199q-274 194 -292 612z" />
<glyph unicode="&#xdb;" horiz-adv-x="1597" d="M23 809q0 336 75 950q12 117 113 117q104 -4 104 -125q-74 -642 -73 -940q0 -295 207 -449q209 -156 573 -155q201 0 297 84v1483q12 109 113 108q106 0 106 -110v-1694q0 -80 -100 -82q-96 0 -115 78q-88 -72 -326 -76q-403 0 -682 199q-274 194 -292 612z" />
<glyph unicode="&#xdc;" horiz-adv-x="1597" d="M1194 2124q12 61 92 82q119 -4 119 -108q-20 -92 -102 -93q-109 0 -109 119zM1460 2124q12 61 94 82q117 -4 117 -108q-18 -92 -102 -93q-109 0 -109 119zM23 809q0 336 75 950q12 117 113 117q104 -4 104 -125q-74 -642 -73 -940q0 -295 207 -449q209 -156 573 -155 q201 0 297 84v1483q12 109 113 108q106 0 106 -110v-1694q0 -80 -100 -82q-96 0 -115 78q-88 -72 -326 -76q-403 0 -682 199q-274 194 -292 612z" />
<glyph unicode="&#xdd;" horiz-adv-x="1511" d="M72 2054q0 49 84 72l266 102q113 45 141 45q45 -8 50 -53q0 -45 -84 -74q-338 -143 -396 -143q-61 0 -61 51zM33 1749q0 109 100 123q94 0 150 -133l465 -905l475 895q55 133 149 133q100 -14 101 -121q-8 -55 -41 -109l-576 -1085v-434q0 -106 -108 -113 q-111 6 -111 113v434l-563 1095q-33 56 -41 107z" />
<glyph unicode="&#xe0;" horiz-adv-x="1280" d="M201 1473q6 61 69 61q57 0 127 -41q184 -63 217 -67q47 -6 82 -19q49 -18 49 -59q0 -43 -53 -53q-133 6 -434 115q-55 20 -57 63zM61 324q0 180 199 317q199 135 455 158q213 0 289 -45q0 90 -68 151q-66 59 -248 72q-205 0 -276 -53q-70 -51 -148 -52q-74 9 -74 105 q6 78 146 133q138 55 356 61q293 -6 403.5 -141t110.5 -321l21 -586q-6 -113 -103 -123q-88 10 -96 74l-4 98q-240 -178 -612 -178q-349 19 -351 330zM258 326q6 -141 174 -142q197 12 375 88q182 78 188 205q0 126 -270 135q-170 -6 -317 -92q-150 -88 -150 -194z" />
<glyph unicode="&#xe1;" horiz-adv-x="1280" d="M633 1346q0 49 84 72l266 102q113 45 141 45q45 -8 50 -53q0 -45 -84 -74q-338 -143 -396 -143q-61 0 -61 51zM61 324q0 180 199 317q199 135 455 158q213 0 289 -45q0 90 -68 151q-66 59 -248 72q-205 0 -276 -53q-70 -51 -148 -52q-74 9 -74 105q6 78 146 133 q138 55 356 61q293 -6 403.5 -141t110.5 -321l21 -586q-6 -113 -103 -123q-88 10 -96 74l-4 98q-240 -178 -612 -178q-349 19 -351 330zM258 326q6 -141 174 -142q197 12 375 88q182 78 188 205q0 126 -270 135q-170 -6 -317 -92q-150 -88 -150 -194z" />
<glyph unicode="&#xe2;" horiz-adv-x="1280" d="M61 324q0 180 199 317q199 135 455 158q213 0 289 -45q0 90 -68 151q-66 59 -248 72q-205 0 -276 -53q-70 -51 -148 -52q-74 9 -74 105q6 78 146 133q138 55 356 61q293 -6 403.5 -141t110.5 -321l21 -586q-6 -113 -103 -123q-88 10 -96 74l-4 98q-240 -178 -612 -178 q-349 19 -351 330zM258 326q6 -141 174 -142q197 12 375 88q182 78 188 205q0 126 -270 135q-170 -6 -317 -92q-150 -88 -150 -194z" />
<glyph unicode="&#xe3;" horiz-adv-x="1280" d="M319 1374q43 168 238 174q90 -6 164 -31q71 -25 122 -24h5q41 0 73 69q35 72 92 78q53 -10 54 -65q-45 -201 -211 -219q-119 6 -187 30q-76 27 -125 27q-45 0 -102 -74q-23 -45 -78 -45q-45 19 -45 80zM61 324q0 180 199 317q199 135 455 158q213 0 289 -45q0 90 -68 151 q-66 59 -248 72q-205 0 -276 -53q-70 -51 -148 -52q-74 9 -74 105q6 78 146 133q138 55 356 61q293 -6 403.5 -141t110.5 -321l21 -586q-6 -113 -103 -123q-88 10 -96 74l-4 98q-240 -178 -612 -178q-349 19 -351 330zM258 326q6 -141 174 -142q197 12 375 88 q182 78 188 205q0 126 -270 135q-170 -6 -317 -92q-150 -88 -150 -194z" />
<glyph unicode="&#xe4;" horiz-adv-x="1280" d="M455 1413q12 61 92 82q119 -4 119 -108q-20 -92 -102 -93q-109 0 -109 119zM721 1413q12 61 94 82q117 -4 117 -108q-18 -92 -102 -93q-109 0 -109 119zM61 324q0 180 199 317q199 135 455 158q213 0 289 -45q0 90 -68 151q-66 59 -248 72q-205 0 -276 -53 q-70 -51 -148 -52q-74 9 -74 105q6 78 146 133q138 55 356 61q293 -6 403.5 -141t110.5 -321l21 -586q-6 -113 -103 -123q-88 10 -96 74l-4 98q-240 -178 -612 -178q-349 19 -351 330zM258 326q6 -141 174 -142q197 12 375 88q182 78 188 205q0 126 -270 135 q-170 -6 -317 -92q-150 -88 -150 -194z" />
<glyph unicode="&#xe5;" horiz-adv-x="1280" d="M413 1571q0 119 82 199q84 80 199 80t195 -82q82 -86 81 -197q0 -113 -81.5 -194.5t-196.5 -81.5q-119 0 -199 79.5t-80 196.5zM483 1571q0 -86 61 -147q59 -59 150 -60q86 0 145 60q61 61 62 147q0 86 -61.5 147.5t-145.5 61.5q-86 0 -147 -61q-64 -64 -64 -148zM61 324 q0 180 199 317q199 135 455 158q213 0 289 -45q0 90 -68 151q-66 59 -248 72q-205 0 -276 -53q-70 -51 -148 -52q-74 9 -74 105q6 78 146 133q138 55 356 61q293 -6 403.5 -141t110.5 -321l21 -586q-6 -113 -103 -123q-88 10 -96 74l-4 98q-240 -178 -612 -178 q-349 19 -351 330zM258 326q6 -141 174 -142q197 12 375 88q182 78 188 205q0 126 -270 135q-170 -6 -317 -92q-150 -88 -150 -194z" />
<glyph unicode="&#xe7;" horiz-adv-x="1095" d="M387 -311q4 47 53 47q29 0 52 -43q23 -45 94 -53q80 6 94 72q-6 76 -88 81q-49 12 -88 60q-27 37 -27 143h113q0 -104 65 -106q131 -53 133 -181q-20 -156 -192 -174q-200 0 -209 154zM57 494q0 291 144 467q143 178 420 198q354 -12 360 -164q-2 -82 -90 -88 q-51 0 -114.5 29t-151.5 29q-129 0 -250 -129q-117 -127 -121 -320q20 -330 264 -336q139 0 234 84q92 82 112 131q23 51 92 51q78 -4 84 -104q-8 -115 -147 -235.5t-361 -126.5q-463 6 -475 514z" />
<glyph unicode="&#xe8;" horiz-adv-x="1214" d="M240 1473q6 61 69 61q57 0 127 -41q184 -63 217 -67q47 -6 82 -19q49 -18 49 -59q0 -43 -53 -53q-133 6 -434 115q-55 20 -57 63zM57 516q0 295 192.5 469t481.5 186q414 -16 418 -323q0 -305 -571 -318q-211 10 -299 11q10 -342 364 -361q164 4 297 121q65 61 129 61 q84 0 84 -96q-2 -76 -147 -180q-143 -102 -437 -106q-471 55 -512 536zM319 739q84 -6 248 -10q375 0 379 115q0 137 -215 137q-326 -27 -412 -242z" />
<glyph unicode="&#xe9;" horiz-adv-x="1214" d="M670 1346q0 49 84 72l266 102q113 45 141 45q45 -8 50 -53q0 -45 -84 -74q-338 -143 -396 -143q-61 0 -61 51zM57 516q0 295 192.5 469t481.5 186q414 -16 418 -323q0 -305 -571 -318q-211 10 -299 11q10 -342 364 -361q164 4 297 121q65 61 129 61q84 0 84 -96 q-2 -76 -147 -180q-143 -102 -437 -106q-471 55 -512 536zM319 739q84 -6 248 -10q375 0 379 115q0 137 -215 137q-326 -27 -412 -242z" />
<glyph unicode="&#xea;" horiz-adv-x="1214" d="M57 516q0 295 192.5 469t481.5 186q414 -16 418 -323q0 -305 -571 -318q-211 10 -299 11q10 -342 364 -361q164 4 297 121q65 61 129 61q84 0 84 -96q-2 -76 -147 -180q-143 -102 -437 -106q-471 55 -512 536zM319 739q84 -6 248 -10q375 0 379 115q0 137 -215 137 q-326 -27 -412 -242z" />
<glyph unicode="&#xeb;" horiz-adv-x="1214" d="M492 1413q12 61 92 82q119 -4 119 -108q-20 -92 -102 -93q-109 0 -109 119zM758 1413q12 61 94 82q117 -4 117 -108q-18 -92 -102 -93q-109 0 -109 119zM57 516q0 295 192.5 469t481.5 186q414 -16 418 -323q0 -305 -571 -318q-211 10 -299 11q10 -342 364 -361 q164 4 297 121q65 61 129 61q84 0 84 -96q-2 -76 -147 -180q-143 -102 -437 -106q-471 55 -512 536zM319 739q84 -6 248 -10q375 0 379 115q0 137 -215 137q-326 -27 -412 -242z" />
<glyph unicode="&#xec;" horiz-adv-x="626" d="M-231 1989q6 61 69 61q57 0 127 -41q184 -63 217 -67q47 -6 82 -19q49 -18 49 -59q0 -43 -53 -53q-133 6 -434 115q-55 20 -57 63zM82 426l10 616q6 109 104.5 109t98.5 -111l-10 -624q20 -217 112 -217q31 0 53.5 8t61.5 8q53 0 61 -78q-2 -143 -188 -143 q-297 20 -303 432zM129 1587q23 102 131 103q106 -25 107 -136q-18 -102 -121 -114q-115 6 -117 147z" />
<glyph unicode="&#xed;" horiz-adv-x="626" d="M201 1862q0 49 84 72l266 102q113 45 141 45q45 -8 50 -53q0 -45 -84 -74q-338 -143 -396 -143q-61 0 -61 51zM82 426l10 616q6 109 104.5 109t98.5 -111l-10 -624q20 -217 112 -217q31 0 53.5 8t61.5 8q53 0 61 -78q-2 -143 -188 -143q-297 20 -303 432zM129 1587 q23 102 131 103q106 -25 107 -136q-18 -102 -121 -114q-115 6 -117 147z" />
<glyph unicode="&#xee;" horiz-adv-x="626" d="M82 426l10 616q6 109 104.5 109t98.5 -111l-10 -624q20 -217 112 -217q31 0 53.5 8t61.5 8q53 0 61 -78q-2 -143 -188 -143q-297 20 -303 432zM129 1587q23 102 131 103q106 -25 107 -136q-18 -102 -121 -114q-115 6 -117 147z" />
<glyph unicode="&#xef;" horiz-adv-x="626" d="M23 1929q12 61 92 82q119 -4 119 -108q-20 -92 -102 -93q-109 0 -109 119zM289 1929q12 61 94 82q117 -4 117 -108q-18 -92 -102 -93q-109 0 -109 119zM82 426l10 616q6 109 104.5 109t98.5 -111l-10 -624q20 -217 112 -217q31 0 53.5 8t61.5 8q53 0 61 -78 q-2 -143 -188 -143q-297 20 -303 432zM129 1587q23 102 131 103q106 -25 107 -136q-18 -102 -121 -114q-115 6 -117 147z" />
<glyph unicode="&#xf1;" horiz-adv-x="1234" d="M235 1374q43 168 238 174q90 -6 164 -31q71 -25 122 -24h5q41 0 73 69q35 72 92 78q53 -10 54 -65q-45 -201 -211 -219q-119 6 -187 30q-76 27 -125 27q-45 0 -102 -74q-23 -45 -78 -45q-45 19 -45 80zM70 1059q12 94 100 94q109 -10 115 -129l6 -246q170 367 502 373 q348 -8 354 -455q0 -260 -21 -602q-8 -100 -112 -100q-86 10 -86 106q16 383 16 582q-8 252 -158 270q-143 0 -278 -190.5t-184 -661.5q-6 -92 -109 -102q-102 12 -102 117q-6 451 -24.5 659.5t-18.5 284.5z" />
<glyph unicode="&#xf2;" horiz-adv-x="1359" d="M125 1473q6 61 69 61q57 0 127 -41q184 -63 217 -67q47 -6 82 -19q49 -18 49 -59q0 -43 -53 -53q-133 6 -434 115q-55 20 -57 63zM45 627q16 231 154 379q141 150 419 165l74 -2q205 -12 385 -155q182 -145 226 -432q0 -279 -158 -432.5t-453 -172.5l-53 7 q-258 25 -424 186q-160 158 -170 457zM248 610q20 -332 370 -430l80 -10q315 31 396 297l10 47q0 199 -129 317q-129 121 -316 136h-51q-313 -40 -360 -357z" />
<glyph unicode="&#xf3;" horiz-adv-x="1359" d="M557 1346q0 49 84 72l266 102q113 45 141 45q45 -8 50 -53q0 -45 -84 -74q-338 -143 -396 -143q-61 0 -61 51zM45 627q16 231 154 379q141 150 419 165l74 -2q205 -12 385 -155q182 -145 226 -432q0 -279 -158 -432.5t-453 -172.5l-53 7q-258 25 -424 186 q-160 158 -170 457zM248 610q20 -332 370 -430l80 -10q315 31 396 297l10 47q0 199 -129 317q-129 121 -316 136h-51q-313 -40 -360 -357z" />
<glyph unicode="&#xf4;" horiz-adv-x="1359" d="M45 627q16 231 154 379q141 150 419 165l74 -2q205 -12 385 -155q182 -145 226 -432q0 -279 -158 -432.5t-453 -172.5l-53 7q-258 25 -424 186q-160 158 -170 457zM248 610q20 -332 370 -430l80 -10q315 31 396 297l10 47q0 199 -129 317q-129 121 -316 136h-51 q-313 -40 -360 -357z" />
<glyph unicode="&#xf5;" horiz-adv-x="1359" d="M246 1374q43 168 238 174q90 -6 164 -31q71 -25 122 -24h5q41 0 73 69q35 72 92 78q53 -10 54 -65q-45 -201 -211 -219q-119 6 -187 30q-76 27 -125 27q-45 0 -102 -74q-23 -45 -78 -45q-45 19 -45 80zM45 627q16 231 154 379q141 150 419 165l74 -2q205 -12 385 -155 q182 -145 226 -432q0 -279 -158 -432.5t-453 -172.5l-53 7q-258 25 -424 186q-160 158 -170 457zM248 610q20 -332 370 -430l80 -10q315 31 396 297l10 47q0 199 -129 317q-129 121 -316 136h-51q-313 -40 -360 -357z" />
<glyph unicode="&#xf6;" horiz-adv-x="1359" d="M379 1413q12 61 92 82q119 -4 119 -108q-20 -92 -102 -93q-109 0 -109 119zM645 1413q12 61 94 82q117 -4 117 -108q-18 -92 -102 -93q-109 0 -109 119zM45 627q16 231 154 379q141 150 419 165l74 -2q205 -12 385 -155q182 -145 226 -432q0 -279 -158 -432.5 t-453 -172.5l-53 7q-258 25 -424 186q-160 158 -170 457zM248 610q20 -332 370 -430l80 -10q315 31 396 297l10 47q0 199 -129 317q-129 121 -316 136h-51q-313 -40 -360 -357z" />
<glyph unicode="&#xf9;" horiz-adv-x="1189" d="M-305 1473q6 61 69 61q57 0 127 -41q184 -63 217 -67q47 -6 82 -19q49 -18 49 -59q0 -43 -53 -53q-133 6 -434 115q-55 20 -57 63zM53 461q0 256 21 602q8 100 112 100q86 -8 86 -106q-16 -383 -16 -582q8 -252 158 -270q143 0 278 190.5t185 661.5q6 94 106 102 q104 -12 104 -117q6 -438 29 -659q25 -240 25 -285q-12 -96 -103 -96q-106 8 -112 133l-17 262q-166 -391 -501 -397q-349 8 -355 461z" />
<glyph unicode="&#xfa;" horiz-adv-x="1189" d="M125 1346q0 49 84 72l266 102q113 45 141 45q45 -8 50 -53q0 -45 -84 -74q-338 -143 -396 -143q-61 0 -61 51zM53 461q0 256 21 602q8 100 112 100q86 -8 86 -106q-16 -383 -16 -582q8 -252 158 -270q143 0 278 190.5t185 661.5q6 94 106 102q104 -12 104 -117 q6 -438 29 -659q25 -240 25 -285q-12 -96 -103 -96q-106 8 -112 133l-17 262q-166 -391 -501 -397q-349 8 -355 461z" />
<glyph unicode="&#xfb;" horiz-adv-x="1189" d="M53 461q0 256 21 602q8 100 112 100q86 -8 86 -106q-16 -383 -16 -582q8 -252 158 -270q143 0 278 190.5t185 661.5q6 94 106 102q104 -12 104 -117q6 -438 29 -659q25 -240 25 -285q-12 -96 -103 -96q-106 8 -112 133l-17 262q-166 -391 -501 -397q-349 8 -355 461z" />
<glyph unicode="&#xfc;" horiz-adv-x="1189" d="M-51 1413q12 61 92 82q119 -4 119 -108q-20 -92 -102 -93q-109 0 -109 119zM215 1413q12 61 94 82q117 -4 117 -108q-18 -92 -102 -93q-109 0 -109 119zM53 461q0 256 21 602q8 100 112 100q86 -8 86 -106q-16 -383 -16 -582q8 -252 158 -270q143 0 278 190.5t185 661.5 q6 94 106 102q104 -12 104 -117q6 -438 29 -659q25 -240 25 -285q-12 -96 -103 -96q-106 8 -112 133l-17 262q-166 -391 -501 -397q-349 8 -355 461z" />
<glyph unicode="&#xfd;" horiz-adv-x="1181" d="M133 1346q0 49 84 72l266 102q113 45 141 45q45 -8 50 -53q0 -45 -84 -74q-338 -143 -396 -143q-61 0 -61 51zM49 461q0 240 31 602q8 100 115 100q84 -8 84 -106q-25 -360 -25 -582q10 -252 156 -270q145 0 280 190q131 184 191 662q6 94 106 102q104 -12 105 -117 q18 -390 18 -700q0 -455 -139.5 -668t-421.5 -215q-150 0 -236 41q-59 27 -59 103q6 66 65 92q63 0 107 -17q47 -18 121 -18q168 0 264 151.5t96 585.5q-170 -385 -504 -391q-348 9 -354 455z" />
<glyph unicode="&#xff;" horiz-adv-x="1181" d="M-45 1413q12 61 92 82q119 -4 119 -108q-20 -92 -102 -93q-109 0 -109 119zM221 1413q12 61 94 82q117 -4 117 -108q-18 -92 -102 -93q-109 0 -109 119zM49 461q0 240 31 602q8 100 115 100q84 -8 84 -106q-25 -360 -25 -582q10 -252 156 -270q145 0 280 190 q131 184 191 662q6 94 106 102q104 -12 105 -117q18 -390 18 -700q0 -455 -139.5 -668t-421.5 -215q-150 0 -236 41q-59 27 -59 103q6 66 65 92q63 0 107 -17q47 -18 121 -18q168 0 264 151.5t96 585.5q-170 -385 -504 -391q-348 9 -354 455z" />
<glyph unicode="&#x152;" horiz-adv-x="3426" d="M2015 1767q0 86 107 95h1102q92 -9 92 -99q-4 -102 -107 -104h-952v-905h860q104 0 105 -109q0 -96 -107 -102h-856v-344h1026q100 -8 100 -101q-18 -88 -96 -100h-1149q-84 18 -84 143v1524q-41 16 -41 102zM27 887q2 317 184 567q180 248 313 248q-39 12 -39 78 q0 39 60 73q145 18 407 29q387 -9 676 -240q291 -231 291 -765q-33 -465 -295 -687q-260 -219 -672 -219q-395 0 -663 246q-262 242 -262 670zM250 885q8 -383 221 -543t481 -166q268 0 494 152q223 150 244 553q0 436 -230 620q-229 182 -510 193l-121 -13 q195 -35 195 -157q-8 -63 -92 -64q-51 0 -105 39q-57 41 -161 41q-119 0 -267 -194q-145 -193 -149 -461z" />
<glyph unicode="&#x153;" horiz-adv-x="2576" d="M1419 516q0 295 192.5 469t481.5 186q414 -16 418 -323q0 -305 -571 -318q-211 10 -299 11q10 -342 364 -361q164 4 297 121q65 61 129 61q84 0 84 -96q-2 -76 -147 -180q-143 -102 -437 -106q-471 55 -512 536zM1681 739q84 -6 248 -10q375 0 379 115q0 137 -215 137 q-326 -27 -412 -242zM45 627q16 231 154 379q141 150 419 165l74 -2q205 -12 385 -155q182 -145 226 -432q0 -279 -158 -432.5t-453 -172.5l-53 7q-258 25 -424 186q-160 158 -170 457zM248 610q20 -332 370 -430l80 -10q315 31 396 297l10 47q0 199 -129 317 q-129 121 -316 136h-51q-313 -40 -360 -357z" />
<glyph unicode="&#x178;" horiz-adv-x="1511" d="M-106 2124q12 61 92 82q119 -4 119 -108q-20 -92 -102 -93q-109 0 -109 119zM160 2124q12 61 94 82q117 -4 117 -108q-18 -92 -102 -93q-109 0 -109 119zM33 1749q0 109 100 123q94 0 150 -133l465 -905l475 895q55 133 149 133q100 -14 101 -121q-8 -55 -41 -109 l-576 -1085v-434q0 -106 -108 -113q-111 6 -111 113v434l-563 1095q-33 56 -41 107z" />
<glyph unicode="&#x2000;" horiz-adv-x="1208" />
<glyph unicode="&#x2001;" horiz-adv-x="2418" />
<glyph unicode="&#x2002;" horiz-adv-x="1208" />
<glyph unicode="&#x2003;" horiz-adv-x="2418" />
<glyph unicode="&#x2004;" horiz-adv-x="804" />
<glyph unicode="&#x2005;" horiz-adv-x="602" />
<glyph unicode="&#x2006;" horiz-adv-x="401" />
<glyph unicode="&#x2007;" horiz-adv-x="401" />
<glyph unicode="&#x2008;" horiz-adv-x="301" />
<glyph unicode="&#x2009;" horiz-adv-x="481" />
<glyph unicode="&#x200a;" horiz-adv-x="133" />
<glyph unicode="&#x2010;" horiz-adv-x="786" d="M20 721q6 92 127 92h465q115 0 127 -92q-6 -96 -118 -109l-476 -2q-121 7 -125 111z" />
<glyph unicode="&#x2011;" horiz-adv-x="786" d="M20 721q6 92 127 92h465q115 0 127 -92q-6 -96 -118 -109l-476 -2q-121 7 -125 111z" />
<glyph unicode="&#x2012;" horiz-adv-x="786" d="M20 721q6 92 127 92h465q115 0 127 -92q-6 -96 -118 -109l-476 -2q-121 7 -125 111z" />
<glyph unicode="&#x2013;" horiz-adv-x="1024" d="M205 512v205h614v-205h-614z" />
<glyph unicode="&#x2014;" horiz-adv-x="2048" d="M205 512v205h1638v-205h-1638z" />
<glyph unicode="&#x2018;" horiz-adv-x="681" d="M74 1493q6 61 69 61q57 0 127 -41q184 -63 217 -67q47 -6 82 -19q49 -18 49 -59q0 -43 -53 -53q-133 6 -434 115q-55 20 -57 63z" />
<glyph unicode="&#x2019;" horiz-adv-x="391" d="M100 1776q23 82 103 82q86 -2 96 -86l-12 -373q0 -109 -88 -109q-86 0 -86 113z" />
<glyph unicode="&#x201c;" horiz-adv-x="724" d="M100 1776q23 82 103 82q86 -2 96 -86l-12 -373q0 -109 -88 -109q-86 0 -86 113zM399 1776q23 82 103 82q88 -2 98 -86l-12 -373q0 -109 -88 -109t-88 113z" />
<glyph unicode="&#x201d;" horiz-adv-x="724" d="M100 1776q23 82 103 82q86 -2 96 -86l-12 -373q0 -109 -88 -109q-86 0 -86 113zM399 1776q23 82 103 82q88 -2 98 -86l-12 -373q0 -109 -88 -109t-88 113z" />
<glyph unicode="&#x2026;" horiz-adv-x="1531" d="M1180 121q0 133 118 143q131 0 142 -127q0 -137 -123 -139q-127 0 -137 123zM670 121q0 133 118 143q131 0 142 -127q0 -137 -123 -139q-127 0 -137 123zM158 121q0 133 118 143q131 0 142 -127q0 -137 -123 -139q-127 0 -137 123z" />
<glyph unicode="&#x202f;" horiz-adv-x="481" />
<glyph unicode="&#x2039;" horiz-adv-x="1193" d="M201 649q4 102 94 133l553 342q55 31 113 31q70 -27 69 -94q-2 -72 -80 -113l-448 -297l448 -299q78 -41 80 -112q0 -68 -69 -95q-57 0 -113 31l-553 342q-90 31 -94 131z" />
<glyph unicode="&#x203a;" horiz-adv-x="1193" d="M201 240q2 72 80 112l448 299l-448 297q-78 41 -80 113q0 68 69 94q59 0 115 -31l553 -342q88 -29 92 -133q-4 -102 -92 -131l-553 -342q-55 -31 -115 -31q-69 27 -69 95z" />
<glyph unicode="&#x205f;" horiz-adv-x="602" />
<glyph unicode="&#x2122;" horiz-adv-x="3772" d="M1493 139v1606q6 104 99 115q696 -45 1016 -1090q319 1044 1013 1090q90 -8 99 -115v-1606q-12 -135 -111 -135q-111 0 -111 131v1475q-438 -61 -798 -1237q-8 -72 -94 -78q-84 6 -93 78q-360 1176 -800 1237v-1475q0 -131 -111 -131q-97 0 -109 135zM0 1767q0 92 115 93 h1198q113 0 112 -93q0 -119 -108 -118h-490l-2 -1561q0 -92 -102 -92q-115 0 -115 92v1561h-499q-109 -1 -109 118z" />
<glyph unicode="&#xe000;" horiz-adv-x="1150" d="M0 1150h1150v-1150h-1150v1150z" />
<glyph unicode="&#xfb01;" horiz-adv-x="1249" d="M707 426l10 616q6 109 104.5 109t98.5 -111l-10 -624q20 -217 112 -217q31 0 53.5 8t61.5 8q53 0 61 -78q-2 -143 -188 -143q-297 20 -303 432zM754 1587q23 102 131 103q106 -25 107 -136q-18 -102 -121 -114q-115 6 -117 147zM-57 1372q0 78 90 84l49 4q6 176 78 289 q74 117 235 117q137 0 205 -37q70 -39 70 -109q-8 -74 -78 -75q-23 0 -80 14q-55 14 -121 16q-100 -12 -104 -219h235q78 -12 80 -76q-10 -90 -84 -98h-233l10 -1159q0 -111 -100 -123q-92 0 -109 125l-14 1155h-45q-84 0 -84 92z" />
<glyph unicode="&#xfb02;" horiz-adv-x="1196" d="M680 426l17 1333q6 106 102 107q98 0 98 -109l-14 -1341q20 -217 115 -217q31 0 53.5 8t58.5 8q55 0 64 -78q-2 -143 -191 -143q-297 20 -303 432zM-57 1372q0 78 90 84l49 4q6 176 78 289q74 117 235 117q137 0 205 -37q70 -39 70 -109q-8 -74 -78 -75q-23 0 -80 14 q-55 14 -121 16q-100 -12 -104 -219h235q78 -12 80 -76q-10 -90 -84 -98h-233l10 -1159q0 -111 -100 -123q-92 0 -109 125l-14 1155h-45q-84 0 -84 92z" />
<glyph unicode="&#xfb03;" horiz-adv-x="1873" d="M1329 426l10 616q6 109 104.5 109t98.5 -111l-10 -624q20 -217 112 -217q31 0 53.5 8t61.5 8q53 0 61 -78q-2 -143 -188 -143q-297 20 -303 432zM1376 1587q23 102 131 103q106 -25 107 -136q-18 -102 -121 -114q-115 6 -117 147zM568 1372q0 78 90 84l49 4q6 176 78 289 q74 117 235 117q137 0 205 -37q70 -39 70 -109q-8 -74 -78 -75q-23 0 -80 14q-55 14 -121 16q-100 -12 -104 -219h235q78 -12 80 -76q-10 -90 -84 -98h-233l10 -1159q0 -111 -100 -123q-92 0 -109 125l-14 1155h-45q-84 0 -84 92zM-57 1372q0 78 90 84l49 4q6 176 78 289 q74 117 235 117q137 0 205 -37q70 -39 70 -109q-8 -74 -78 -75q-23 0 -80 14q-55 14 -121 16q-100 -12 -104 -219h235q78 -12 80 -76q-10 -90 -84 -98h-233l10 -1159q0 -111 -100 -123q-92 0 -109 125l-14 1155h-45q-84 0 -84 92z" />
<glyph unicode="&#xfb04;" horiz-adv-x="1820" d="M1302 426l17 1333q6 106 102 107q98 0 98 -109l-14 -1341q20 -217 115 -217q31 0 53.5 8t58.5 8q55 0 64 -78q-2 -143 -191 -143q-297 20 -303 432zM568 1372q0 78 90 84l49 4q6 176 78 289q74 117 235 117q137 0 205 -37q70 -39 70 -109q-8 -74 -78 -75q-23 0 -80 14 q-55 14 -121 16q-100 -12 -104 -219h235q78 -12 80 -76q-10 -90 -84 -98h-233l10 -1159q0 -111 -100 -123q-92 0 -109 125l-14 1155h-45q-84 0 -84 92zM-57 1372q0 78 90 84l49 4q6 176 78 289q74 117 235 117q137 0 205 -37q70 -39 70 -109q-8 -74 -78 -75q-23 0 -80 14 q-55 14 -121 16q-100 -12 -104 -219h235q78 -12 80 -76q-10 -90 -84 -98h-233l10 -1159q0 -111 -100 -123q-92 0 -109 125l-14 1155h-45q-84 0 -84 92z" />
</font>
</defs>
</svg>
