<?xml version="1.0" standalone="no"?>
<!DOCTYPE svg PUBLIC "-//W3C//DTD SVG 1.1//EN" "http://www.w3.org/Graphics/SVG/1.1/DTD/svg11.dtd" >
<svg xmlns="http://www.w3.org/2000/svg">
<metadata>
This is a custom SVG webfont generated by Font Squirrel.
Copyright   : Copyright c 2008 by Michael Tension All rights reserved
Foundry     : Michael Tension
</metadata>
<defs>
<font id="webfontUBcqg4lI" horiz-adv-x="1705" >
<font-face units-per-em="2048" ascent="1536" descent="-512" />
<missing-glyph horiz-adv-x="1024" />
<glyph unicode=" "  horiz-adv-x="1024" />
<glyph unicode="&#x09;" horiz-adv-x="1024" />
<glyph unicode="&#xa0;" horiz-adv-x="1024" />
<glyph unicode="!" horiz-adv-x="632" d="M193 82q8 25 4 55.5t-2 59t18 51t66 31.5q33 8 68.5 5t66 -17.5t53 -39t33.5 -57.5q16 -49 7 -95t-75 -81q-33 0 -70.5 -2t-73.5 4t-61.5 25.5t-33.5 60.5zM211 688v1041h90l70 -1053v-12l-13 -13l-39 -30q-18 -14 -40 -15h-15zM308 122.5q-3 -24.5 14 -40.5h45 q16 0 30.5 24.5t14.5 40.5q-25 33 -48.5 33t-38 -16.5t-17.5 -41z" />
<glyph unicode="&#x22;" horiz-adv-x="563" d="M27 1020v496q66 0 98.5 -27t41.5 -73t2 -105.5t-18 -123.5l-24 -131q-12 -67 -12 -124zM366.5 1300.5q-8.5 79.5 12 158.5t86.5 145q37 -23 51 -64t15 -91t-5 -104.5t-12 -102.5t-6 -84t14 -50q0 -33 -1 -51.5t-6 -26.5t-17.5 -9t-32.5 -1q-33 55 -61.5 128t-37 152.5z " />
<glyph unicode="#" horiz-adv-x="1824" d="M27 920v67q66 33 149.5 39t168.5 6t161 5t128 39t69.5 104.5t-15.5 203.5q25 -27 39 -28.5t21 4.5q8 8 8 24q25 -25 27.5 -60.5t-3.5 -72.5t-15 -71.5t-9 -59.5q74 0 155.5 -5t149 13.5t113 75t45.5 180.5q49 -25 56 -50t1 -49.5t-11 -49.5t19 -49q49 -25 107.5 -30 t108.5 -11t83 -24.5t33 -67.5l-68 -66q0 49 -31.5 65.5t-74.5 16.5t-88 -8t-70 -8q-49 -49 -67.5 -109.5t-24.5 -122t-11 -122t-30 -111.5q76 0 161 10t172 23.5t171 23.5t157 10h68q-74 -49 -160 -76.5t-179 -46t-191.5 -34t-198.5 -39.5q-25 -25 -28 -62t3.5 -81t15.5 -92 t9 -97q-49 0 -75.5 11.5t-39 29.5t-14.5 41.5t-2 48.5v133q-49 0 -109.5 8.5t-123 8.5t-123 -16.5t-109.5 -67.5q0 -25 8 -69t8 -88t-16 -76t-66 -32v332q-25 0 -69.5 -8t-95 -8t-96.5 16.5t-70 67.5q25 25 70.5 29t96 4t95.5 4t69 28q25 49 39.5 99.5t26.5 106.5 t27.5 119.5t40.5 137.5q-74 0 -149 -19l-149 -38q-75 -18 -149.5 -26.5t-148.5 16.5zM623 524l397 64l67 399h-200q-66 16 -107 2t-64.5 -49t-34.5 -85t-19.5 -107.5t-15.5 -116t-23 -107.5z" />
<glyph unicode="$" horiz-adv-x="2068" d="M129 1018q45 45 115.5 78.5t144.5 64.5t139.5 63.5t101.5 79t29.5 109t-73.5 154.5v92q45 -23 64.5 -66t29.5 -91l19 -95q9 -47 35 -80t76 -45t140 10q0 102 -12 203.5t-21.5 196t-5.5 178.5t39 153q25 -2 45 -12q16 -10 30.5 -28.5t14.5 -53.5v-545q45 -23 97.5 -25.5 t102.5 2.5t97 11t82 4t56.5 -20.5t21.5 -63.5q0 -35 -1 -52t-10 -26.5t-27.5 -10.5t-51.5 -1q0 33 -30.5 51.5t-73.5 27.5t-90.5 10t-79.5 1q-35 -68 -39 -134t4 -126.5t21.5 -111t13.5 -82.5q102 -35 217.5 -88.5t227.5 -130t210 -180t166 -240.5q0 -35 -15.5 -82t-42 -90 t-59.5 -73t-65 -30l-365 92q-23 -23 -26 -52.5t2.5 -59t11.5 -58t4 -52t-20.5 -37t-63.5 -13.5q-35 68 -56.5 147.5t-47 147t-64.5 114t-107 46.5q0 -68 29 -136.5t62.5 -137t62.5 -137.5t29 -138h-90q-68 102 -134.5 223t-118 257t-83 290.5t-31.5 324.5q-45 23 -103.5 33 t-122 18.5l-127 17.5t-119.5 31.5t-99 63.5t-66 109zM311 928q35 0 83 -15l100 -30l99 -31q48 -14 83 -14q0 33 -1 80t-10.5 90t-28 73.5t-50.5 30.5zM766 1202q23 -23 33 -64.5t15 -89.5l10 -97q5 -48 17.5 -80.5t37 -44t71.5 11.5v364h-184zM860 745q0 -102 17.5 -186 t51.5 -143.5t85 -92t119 -32.5l-93 364q-35 0 -54 14.5t-35.5 31t-37 30.5t-53.5 14zM1133 655l182 -456q35 -35 97.5 -67t131 -48t131 -14t97.5 36q0 102 -61.5 188.5t-156 155t-207 119.5t-214.5 86z" />
<glyph unicode="%" horiz-adv-x="1675" d="M88 1257q29 29 45.5 65t30.5 74t30.5 73.5t45.5 62.5q45 -27 107.5 -43t123.5 -34.5t113.5 -46.5t81.5 -75q29 -57 29.5 -112.5t-21 -104.5t-62.5 -89t-98 -66q-29 -29 -65.5 -55.5t-80.5 -41t-95.5 -12.5t-108.5 33q-29 29 -44.5 68.5t-22.5 89t-8 103.5t-1 111z M164 1106q0 -55 24.5 -84t57.5 -43t65.5 -16t50.5 -2l68 66.5t75 88.5t60.5 104.5t24.5 112.5q-29 18 -70 29.5t-88 15.5t-97 5t-95 1q0 -18 -13 -54l-25 -76l-26 -79q-12 -40 -12 -69zM240 -246q102 264 230 518t269 503l289 494l289 488q45 -29 40 -56.5t-32 -56 l-55.5 -56t-28.5 -56.5q-57 -162 -134 -318.5t-163 -310.5l-176 -305l-174 -304q-84 -153 -156.5 -306.5t-122.5 -309.5q-29 0 -44 1.5t-22 8.5t-8 22t-1 44zM862 528q29 57 70 77t91 27t105.5 13t112.5 35q55 -29 106.5 -46.5t95.5 -38t82 -51t66 -85.5q0 -57 -25.5 -98.5 t-65.5 -72t-89 -56t-94 -54.5q-29 -29 -69 -42t-83 -13t-83 13.5t-68 41.5q-39 18 -54.5 47t-19.5 61.5t-2 68.5t-2 69t-20.5 60.5t-53.5 43.5zM1014 305q0 -47 24.5 -71.5t60.5 -29.5t74.5 8t67.5 42q29 18 63.5 43t64.5 50.5t50.5 54t20.5 57.5l-275 69z" />
<glyph unicode="&#x26;" horiz-adv-x="1546" d="M100 328v27q0 13 2 30q10 88 45 164t95 137q0 2 11 24l25 49l24 52q11 25 15 31l-22 21l-25 22l-49 42q-25 22 -44 47t-32.5 55t-13.5 65q0 43 25 92v4l2 2q16 14 30 32l31 38l54.5 64.5t64.5 61t77 45t93 17.5q29 0 61.5 3t67.5 7q55 6 113.5 9.5t110.5 -5t95 -33 t68 -75.5l4 -6l-4 -9q-23 -45 -45.5 -63t-47 -20.5t-50 8l-52.5 22.5q-35 16 -71.5 30.5t-83.5 14.5h-6l-6 4q-29 31 -76 31q-29 0 -61.5 -10t-64.5 -25.5t-60.5 -37t-49.5 -42.5q-57 -59 -67.5 -115.5t-10.5 -119.5q59 -55 143.5 -64.5t176.5 -9.5q47 0 95 -1t93 -9 t86 -25.5t74 -50.5l4 -6v-117l-24 13q-53 27 -124 31.5t-159 -13.5q-86 -16 -160 -46t-127 -56q-2 -2 -2 -5q0 -2 -2 -2q-29 -59 -55.5 -121.5t-42.5 -121.5q-12 -49 -12 -95q0 -37 8 -70.5t24 -66.5q84 -61 174 -76.5t186.5 -1t197 48t204.5 74.5q98 39 197.5 74t199.5 55 l21 4v-112l-10 -4q-47 -18 -93.5 -39t-93.5 -39l-269 -111q-136 -53 -271 -75q-150 -25 -275 -5q-143 20 -274 101l-4 2l-2 4q-56 113 -56 246zM395 1851q-18 231 101 351l28 26v-459q0 -18 12 -44l23 -52q20 -41 33.5 -77.5t-2.5 -65.5q-23 -31 -82 -31h-10l-4 8 q-39 78 -65 169t-34 175zM636 -158q3 45 23 86l11 21l16 -15q35 -35 55.5 -97t36.5 -128l33 -115q16 -55 45 -83l4 -5v-190h-115v16q0 47 -15 103.5t-36 115.5q-16 49 -30.5 99.5t-22.5 98.5t-5 93z" />
<glyph unicode="'" horiz-adv-x="329" d="M63.5 1401.5q4.5 64.5 36.5 130.5q63 -23 96 -62.5t44.5 -92t10.5 -111t-4 -114.5t0 -107.5t25 -86.5q0 -33 -14 -36.5t-38.5 4.5t-55.5 20t-64 12q0 86 -12 162t-20.5 146.5t-4 135z" />
<glyph unicode="(" horiz-adv-x="823" d="M87.5 741.5q21.5 141.5 102.5 264.5l89 247q45 123 107.5 237t148.5 215t208 183l113 -110q-43 -41 -99.5 -84t-108.5 -94.5t-88 -116t-36 -146.5q-84 -82 -144.5 -200.5t-91 -252.5t-29.5 -274.5t44 -263.5q0 -84 36 -149.5t88 -127.5l109 -128q56 -66 97 -148l-219 111 q-123 125 -205 266t-112.5 285.5t-9 286z" />
<glyph unicode=")" horiz-adv-x="696" d="M-238.5 1919q5.5 18 45.5 18q119 0 219.5 -55t190.5 -144t171 -204l161 -234q41 -201 39 -414.5t-52.5 -423.5t-151.5 -404.5t-261 -352.5h-105q-41 41 -28.5 61.5t41.5 30.5q35 10 92 15q121 160 199.5 352t108.5 392t8.5 392.5t-101.5 351.5q-39 80 -95.5 158 t-116.5 147.5t-118 128.5l-98 97l-103 -105q0 39 -15 77t-25.5 68t-5 48z" />
<glyph unicode="*" horiz-adv-x="997" d="M20 1229q25 25 62 18.5t81 -18.5t93 -18.5t98 18.5q-25 51 -69.5 80.5t-88.5 54.5t-76 54.5t-32 78.5l66 68l268 -269q0 49 -7 121t-1 146.5t35.5 146.5t105.5 121q0 -49 -9 -100.5t-15.5 -107.5t-3.5 -119.5t28 -139.5q25 25 41 69t34.5 80.5t47.5 56t78 -4.5 q0 -51 -21.5 -91t-53.5 -77l-67 -77q-35 -40 -59 -91q100 0 199.5 -8.5t201.5 -57.5q-16 -33 -38.5 -41t-48 -3t-55.5 18.5t-61.5 25t-64.5 14.5t-65 -14q25 -49 69 -99l88 -101q43 -51 76 -101.5t33 -99.5q-25 -25 -40 -16.5t-28 33.5l-26 59q-14 33 -39 57q0 -25 -1 -58.5 t-7.5 -65.5t-20.5 -53.5t-39 -21.5q-25 49 -40 108.5t-33.5 116t-47 103.5t-80.5 72q-25 -25 -58.5 -63t-58 -88t-32.5 -112.5t16 -136.5h-133q0 100 41 199.5t92 200.5q-25 25 -70.5 29.5t-96 11t-96.5 25t-71 67.5z" />
<glyph unicode="+" horiz-adv-x="1038" d="M33 897q25 51 51.5 64.5t56 5t62.5 -30t69.5 -38.5t80.5 -22.5t96 21.5v418q78 0 103.5 -34t25.5 -83t-12.5 -102.5t-12.5 -91.5q25 -27 58.5 -38.5t71.5 -17.5t78 -11t78 -19.5t71.5 -43t60.5 -79.5h-418q39 -78 42 -157t-16.5 -158t-55.5 -156.5l-74 -153.5l-103 102 q78 39 103.5 95.5t25.5 126t-13 146.5t-13 155q-39 0 -94.5 -13.5t-114 -13.5t-113.5 25.5t-94 103.5z" />
<glyph unicode="," horiz-adv-x="595" d="M125 -274l63 142l74 161l68 149l47 107q76 -35 98.5 -81t11 -102.5t-49.5 -120t-85 -131.5l-94 -136q-47 -69 -78 -134z" />
<glyph unicode="-" horiz-adv-x="1083" d="M166 555l6 51l2 10h10h6q4 0 15 7q16 12 16 43v49q10 -6 19 -10l12 -7q4 -2 6 -4q45 -18 97.5 -25t106.5 -7t108 6l106 12l102 12q51 6 101 6h28v-32q0 -37 -2 -57.5t-12 -37.5q-14 -16 -31.5 -18t-46.5 -2q-47 0 -92 -5t-86 -14l-10 -2l-101 -12q-51 -6 -107.5 -6 t-116.5 8t-126 31z" />
<glyph unicode="." horiz-adv-x="710" d="M215 57q0 31 14.5 48.5t37.5 32.5l54 34q30 18 62 49q31 0 60.5 -1t52 -9t37 -24.5t14.5 -47.5t-14.5 -60.5t-37 -54t-52 -39t-60.5 -14.5q-33 -31 -51.5 -21.5t-33.5 34t-33.5 49t-49.5 24.5z" />
<glyph unicode="/" horiz-adv-x="880" d="M4 -10l938 1564l2 2q16 16 38 32t44 5q23 -10 26 -28.5t3 -22.5v-6l-2 -4l-351 -614l-346 -605l-245 -428z" />
<glyph unicode="0" horiz-adv-x="1687" d="M82 452.5q-12 122.5 9.5 241.5t70.5 217l77 148q44 82 94 157.5t107.5 136t120 82t127 -6t129.5 -125.5q98 0 214 -25t226.5 -73t201.5 -121.5t140 -172.5q33 -98 16.5 -185t-67.5 -164t-125.5 -142.5t-158.5 -119.5t-167 -98l-149 -77q-49 -49 -120.5 -74.5t-157.5 -38 t-181.5 -14.5t-193.5 -2q-98 98 -149.5 216t-63.5 240.5zM249 523q1 -83 22.5 -149.5t68.5 -113.5q100 -100 221 -107.5t256 105.5q98 0 212 47t212 132t163.5 206t65.5 268q-49 49 -105 79t-123.5 46.5t-147.5 22.5t-179 6l-67 6q-92 68 -159.5 85.5t-128 -8.5t-122.5 -87 l-143 -150q-20 -109 -33.5 -207t-12.5 -181z" />
<glyph unicode="1" horiz-adv-x="1177" d="M39 119q49 49 99 69.5t97.5 23.5t92.5 -5l84 -14.5t72.5 -3t58.5 27.5q-39 76 -43 185.5t5 231.5t23.5 248t14.5 238q-76 -37 -134 -72l-106 -65q-47 -29 -86 -46t-76 -17q-39 0 -58.5 2t-19.5 11t20 30l58 59v98v-98l500 401l102 -102q-51 -76 -70.5 -166t-22.5 -189.5 t5.5 -207t13.5 -216t1 -216t-29 -207.5q74 0 147.5 31.5t139.5 68.5l121 69q55 32 94 31q-76 -115 -200 -189.5t-264 -112t-282.5 -37.5t-255.5 36q0 39 -2 59.5t-11 30t-29.5 11.5t-59.5 2z" />
<glyph unicode="2" horiz-adv-x="1286" d="M25 1118l32 33q82 80 215.5 137.5t282.5 79.5q166 23 297 -6t209 -105l8 -8l-2 -10q-25 -96 -68 -186t-99 -176t-122 -168l-131 -162l-178 -225q-88 -115 -154 -240h76l39 13l100 36l141 51l163 60l440 159v-141l-12 -4q-66 -23 -133 -49l-138 -57l-182 -75 q-94 -38 -195.5 -69t-210 -50t-223.5 -19h-12l-4 10q-29 53 -33 103t16 104q16 43 46 85t65 83l63 81q32 41 56 91v-2q31 68 88 136l119 138l81 91q40 46 71.5 92t53 90t25.5 87q-162 72 -315 72q-156 0 -314 -76l-2 -4h-159z" />
<glyph unicode="3" horiz-adv-x="1402" d="M31 1212q166 82 345 139.5t353 66.5t332 -37t278 -169q0 -82 -54 -145t-135 -114.5t-177 -94.5l-178 -82q55 -27 109 -39t106.5 -18l100.5 -11.5t90 -20.5t77 -46t61 -86q0 -82 -18 -144.5t-48 -112.5t-69 -92t-82 -83q-82 -43 -162.5 -79t-152.5 -46t-132.5 16.5 t-99.5 108.5q39 0 80 2t83 12t83 31.5t82 62.5q43 39 99.5 62.5t108.5 43t88 44.5t36 68q-29 55 -88.5 77.5t-133 31.5t-151.5 13t-141.5 22.5t-104.5 59.5t-41 123q82 39 163 82t153 94.5t131 114.5t100 145q-123 41 -244.5 43t-244.5 -28.5t-247 -90t-249 -141.5 q0 39 -16.5 62.5t-37 43t-36.5 44t-16 67.5z" />
<glyph unicode="4" horiz-adv-x="1564" d="M82 565v6q0 63 19.5 129t51 129.5t72.5 126.5l82 125l81 125q40 61 73 123l10 23l10 -23q23 -45 23 -96q0 -66 -26.5 -136.5t-61.5 -138.5q-29 -63 -52.5 -121.5t-23.5 -105.5q0 -31 12 -55q25 -59 121 -92q209 -39 330 45q55 39 91 99t59.5 132t36.5 151l26 154l27 162 q13 76 42 129l2 6h150v-12q0 -96 -20.5 -190.5t-45.5 -188.5q-23 -90 -41 -181t-20 -181h375v-13q0 -61 -17.5 -96t-46 -54.5t-64.5 -27.5t-73 -14q-49 -8 -96 -19.5t-82 -46.5q-47 -45 -73.5 -111.5t-51.5 -136.5q-23 -70 -50.5 -137t-74.5 -116l-14 -13l-6 15 q-33 66 -46.5 120t-13.5 101q0 49 11 92l22 80q10 29 16 55.5t9 50.5q-78 37 -154 33t-156 -14q-53 -8 -107.5 -13.5t-109.5 3t-110.5 35t-110.5 81.5z" />
<glyph unicode="5" horiz-adv-x="1685" d="M90 993q-14 92 51 226q98 98 208 147t226.5 67.5t240.5 16.5t253 -6t260 1t264 38q-100 -98 -208.5 -147.5t-222 -72t-230.5 -27.5t-230.5 -16.5t-223 -39t-208.5 -93.5q25 -74 78 -132t122 -106t145 -90l152 -85q75 -43 139.5 -91t108.5 -108.5t59.5 -136.5t-9.5 -174 q-98 -98 -197.5 -130t-199 -19.5t-199.5 55.5t-199 94l-129 129q66 33 141.5 19.5t152.5 -46.5t152 -69.5t141.5 -48t118.5 17.5t85 127q-66 98 -168 168.5t-213 130.5l-213 115q-102 55 -168 124.5t-80 161.5z" />
<glyph unicode="6" horiz-adv-x="1204" d="M69.5 638q6.5 87 36 176t77.5 175t103.5 166t115 149.5t112.5 122.5q41 0 61.5 -16t30.5 -37q10 -23 15 -53q41 0 45 -16.5t-7 -36.5q-12 -23 -38 -54q-119 -41 -215.5 -116.5t-156 -175t-76.5 -216t24 -235.5l211 -211q39 80 99 153.5t140 124t179.5 64.5t220.5 -24 q39 0 60 -16.5t32 -37.5q10 -23 12 -53q0 -80 -35 -140.5t-84 -110.5t-104.5 -92t-93.5 -81q-27 -27 -61 -30t-69.5 2.5t-69.5 14.5t-60.5 6t-43 -24.5t-16.5 -74.5q-80 0 -134 24.5t-93 65.5t-64.5 95t-46.5 114l-40 118q-19 59 -46 113q-27 80 -20.5 167zM514 260h320 q39 0 77.5 2t68.5 11.5t48.5 31t18.5 60.5q-41 41 -80 61t-68 31q-37 10 -65 14q-41 -41 -96 -63l-104 -43q-50 -20 -85 -43t-35 -62z" />
<glyph unicode="7" horiz-adv-x="1372" d="M37 1108q0 57 26.5 89t70.5 47.5t102 21.5l119 13q62 7 126 18.5t119 39.5q84 41 184.5 76t195.5 35t174 -49t122 -174q0 -127 -17.5 -254t-39 -254t-39 -254t-17.5 -254h113q0 -41 -37 -82t-89 -72.5t-111.5 -51t-102.5 -19.5q0 113 16.5 217t38.5 205l45 198 q23 98 36 198.5t11 205t-30 217.5q-86 55 -170 61t-169 -16.5t-169 -61.5t-169 -69.5t-170 -44t-169 13.5z" />
<glyph unicode="8" horiz-adv-x="1138" d="M54.5 1102q-13.5 39 27.5 80q82 41 167 96t177 97t197.5 55.5t228.5 -27.5q0 -84 19.5 -112.5t50 -39t70.5 -19.5t81 -50q-41 -41 -100.5 -64.5t-120.5 -44t-119.5 -45t-99.5 -65.5q82 -41 145.5 -99.5t115.5 -121t95 -121t84 -99.5q0 -82 -3 -162.5t-24.5 -153.5 t-66.5 -133.5t-127 -101.5q-82 0 -165 19.5t-165 50.5t-165 71l-164 81q-41 41 -62.5 101t-21.5 132t21.5 152.5t62.5 162.5l110 222q-41 0 -96 19t-97 50t-55.5 70zM258 558.5q4 -64.5 45 -146.5q0 -82 38 -143.5t99.5 -103.5t140 -62.5t160.5 -20.5l81 83q40 42 71 83 t50.5 82t19.5 82q-41 82 -101.5 146.5t-133.5 115.5t-154 94l-162 84q-41 -41 -79 -84t-58.5 -94t-16.5 -115.5zM303 1182q55 -82 101.5 -115t86 -33t73.5 23.5t64.5 51.5t58.5 50.5t54 22.5q-41 41 -99 61.5t-119.5 20.5t-120 -20.5t-99.5 -61.5z" />
<glyph unicode="9" horiz-adv-x="1097" d="M45 965.5q0 27.5 19.5 64.5t56.5 74q25 49 73 104.5t109.5 103.5t131 80.5t139 38t135 -22.5t114.5 -103v-101h201q0 -188 -48 -360t-115 -342l-134 -342q-68 -172 -104 -361q-25 100 -20 200.5t27.5 201t55.5 200.5l64 201q31 100 52 200.5t21 201.5 q-76 -37 -152.5 -86.5t-160.5 -77t-180.5 -20.5t-208.5 83q-37 0 -56.5 17.5t-19.5 45zM221 1004q76 0 135.5 2t115.5 11t115.5 29.5t135.5 57.5q-37 37 -45 87t-17.5 88t-36 50t-102.5 -24q-37 -37 -89 -75t-99 -76t-80 -75.5t-33 -74.5z" />
<glyph unicode=":" horiz-adv-x="520" d="M125 846q0 68 29.5 117t71.5 73.5t88 23.5t79 -34q35 -35 38 -67.5t-14.5 -57t-48 -40t-63.5 -15.5h-180zM193.5 232.5q11.5 37.5 44 63.5t77.5 46t78 53q35 -33 52.5 -79t17.5 -88t-17.5 -71.5t-52.5 -29.5q-33 -33 -64.5 -49.5t-56 -16.5t-40 16.5t-15.5 49.5 q-35 68 -23.5 105.5z" />
<glyph unicode=";" horiz-adv-x="634" d="M109 -246l170 324l22 104l84 101q20 -6 42 -3t41 5t34.5 -4.5t27.5 -26.5q-51 -94 -76 -150l-42 -90q-16 -35 -29.5 -57.5t-40.5 -49t-74 -68.5l-131 -113zM262 819q0 27 12.5 66t34 80t47 79.5t54.5 67.5q27 0 43 -12.5t30.5 -34t29.5 -48t44 -52.5q0 -55 -46 -109.5 t-101 -110.5q-29 0 -54.5 1.5t-47 8.5t-34 21t-12.5 43z" />
<glyph unicode="&#x3c;" horiz-adv-x="1089" d="M76 588v108q123 82 260 183.5t260 214t219 233.5t137 244h109q-41 -123 -120 -244t-181.5 -233.5t-222 -214t-242.5 -183.5q55 -55 132 -110l156 -117q79 -61 149.5 -129t113.5 -146.5t47 -171t-51 -200.5q-41 0 -48.5 33.5t-7.5 75.5t-6 76t-47 34q-82 123 -164 208 t-164.5 146.5t-164.5 106.5z" />
<glyph unicode="=" horiz-adv-x="1130" d="M63 514q82 84 184.5 111.5t217.5 27.5t238.5 -13t248.5 -13q0 -43 -17 -67.5t-37.5 -45t-38 -45.5t-17.5 -66q-125 41 -247 48.5t-226.5 7.5t-184.5 7t-121 48zM63 848q27 55 72 77.5t97.5 30t108.5 4t108.5 4t96.5 30t72 77.5q43 -41 101.5 -48t122 -7t122 -7.5 t101.5 -47.5l-113 -113q-84 0 -185 -15.5t-216 -25.5t-239 -5t-249 46z" />
<glyph unicode="&#x3e;" horiz-adv-x="1247" d="M55 1620l561 -375l562 -373l-190 -279q-95 -138 -200.5 -266t-224.5 -243t-258 -209q-94 0 -122.5 21.5t-17.5 56.5t52 80l88 92q92 47 184.5 134t173 192.5t149.5 216t116 204.5q-94 47 -207 117t-229.5 163t-229.5 210t-207 258z" />
<glyph unicode="?" horiz-adv-x="1107" d="M119 788l22 27v2q25 25 41.5 39t30.5 22.5t31.5 10.5t46.5 2h20l4 -10l17 -37l16 -33q8 -16 14 -31q41 37 92 70l107 68q66 39 132.5 82.5t115.5 101.5q47 55 68 125q14 43 14 98q0 12 -1 25.5t-3 27.5l-37 22l-35 21l-72 45q-37 23 -77 37q-88 29 -166 2 q-18 -23 -29.5 -52.5t-21.5 -63.5l-3 -7q-12 -39 -26 -75.5t-41 -65.5v2l-25 -29l-24 25q-35 41 -35 98q0 29 10 70q27 78 82 143v2l4 7q66 61 150 90q111 33 207 -21q18 -10 38.5 -18t38.5 -17l15 -6l61 -25q31 -13 53 -34q57 -45 58 -125q20 -82 20 -143q0 -152 -100 -267 q-61 -72 -147.5 -122t-176.5 -97l-6 -4l-113 -60q-53 -30 -98 -65q2 -16 8.5 -53t15.5 -83t18 -97l18 -95l2 -10q-2 -2 -7 -4l-8 -4q-10 -12 -32.5 -30.5t-51.5 -8.5v2h-2q-16 8 -21 22.5t-9 24.5q-41 49 -52.5 105.5t-15.5 111.5l-8 66q-4 33 -14.5 62.5t-31 57t-55.5 52.5 v2zM274 53v82h349v-16q0 -29 -21.5 -56.5t-46.5 -54.5q-23 -23 -41 -46t-18 -44v-10l-9 -4q-45 -25 -77.5 -21t-53.5 17q-43 25 -62.5 72.5t-19.5 80.5z" />
<glyph unicode="@" horiz-adv-x="2103" d="M100 53q0 47 11.5 94.5t33.5 94.5q80 215 234 409q72 88 153.5 170t180.5 156q174 133 387 237q98 47 196.5 86t200.5 68q80 39 160 10q74 -25 139 -96q29 -29 53.5 -64.5t44.5 -76.5q90 -94 91 -269q0 -12 -1.5 -25t-1.5 -28q-6 -78 -26.5 -168t-59.5 -200v-2 q-29 -55 -68.5 -110.5t-87.5 -105t-103.5 -91.5t-110.5 -70q6 -27 26 -35q12 -8 21 -8q6 -2 10 0h21v-107l-11 -6q-156 -92 -320.5 -154.5t-320.5 -87.5q-184 -31 -338 -10q-172 23 -309 103q-133 47 -180 161q-25 57 -25 125zM242 24q0 -11 2 -22q12 -88 78 -121h2v-2 q66 -39 136 -64.5t148 -35.5q133 -20 289 8q119 23 239.5 74t233.5 127h-94l-6 6q-53 53 -66.5 105.5t-15.5 105.5q-45 -16 -86 -37l-82 -41q-47 -25 -91 -45.5t-86 -30.5t-83 -8t-82 23l-10 6v12q0 123 28.5 226.5t77.5 197.5t114 182l136 180l47 60l47 61l6 8h11 q49 0 105 -2t109.5 -11t98.5 -25.5t72 -42.5q23 -23 32 -38.5t9 -31.5q0 -10 -5.5 -21.5t-11.5 -21.5q-8 -10 -13 -21.5t-5 -27.5v-17q35 -8 71 -45l7 -6v-8q0 -90 -49.5 -153.5t-106.5 -120.5q-53 -53 -96 -107.5t-47 -128.5q82 -35 184 25q47 29 88 66.5t63 60.5 q82 82 134.5 174t74.5 188q43 199 -61 356l-4 7v6q0 57 -30 111.5t-79 84.5q-80 47 -162 11l-2 -3q-201 -57 -387 -153t-350 -225q-86 -68 -160.5 -141.5t-138.5 -153.5q-135 -168 -215 -355q0 -14 -2 -29.5t-6 -33.5q-4 -29 -7 -59.5t-3 -61.5v-21zM788 307l33 -29l25 -24 q209 2 424 217q14 14 28 40l31 54q31 55 67 107.5t83 66.5q-31 8 -46.5 31t-19.5 45q-68 33 -115 27t-88 -19l-28 -7q-12 -3 -27 -5v-63l-6 -7q-53 -55 -97 -110l-85 -109l-83 -107q-43 -55 -96 -108z" />
<glyph unicode="A" horiz-adv-x="1288" d="M37 127l438 1235l217 90v-90q-32 -50 -31 -102q0 -15 3 -31q12 -68 43 -143l62 -158q32 -84 32 -185v-264q41 0 99 -1t119.5 -10t120 -27.5t99.5 -51.5l-330 -86q43 -33 67.5 -65.5t45 -66.5t44.5 -67.5t64 -66.5q0 -33 -17 -49.5t-36.5 -16.5t-37 16.5t-17.5 49.5 l-221 266l-434 86q-84 -33 -113 -79t-40 -95t-19.5 -97t-49.5 -81zM367 479h325l-108 531l-80 -132q-39 -67 -70 -133.5t-49 -133t-18 -132.5z" />
<glyph unicode="B" horiz-adv-x="1179" d="M48 210q-1 6 -1 13q0 31 19 84v789q43 0 74.5 25.5t58 64.5t52 84t60.5 84t81 64.5t112 25.5q131 0 249.5 -65.5t184.5 -196.5q0 -98 -43 -152.5t-108.5 -87.5t-141.5 -54.5t-141 -53.5q66 -33 144.5 -55.5t159.5 -54.5t161 -86t145 -153q0 -68 -30.5 -132t-80 -121.5 t-112 -104.5t-127.5 -80q-66 0 -130.5 -12t-121.5 -21q-38 -5 -72 -5q-17 0 -33 1q-48 4 -81 37q-23 43 -55.5 61.5t-69.5 25.5t-71 10t-55.5 18.5t-26.5 47.5zM240 221l86 86q33 0 24.5 -14t-25 -39t-24.5 -56q-2 -6 -2 -13q0 -26 27 -52h352q131 66 195.5 142.5 t64.5 209.5q-43 66 -99.5 104t-120 60.5t-130 31.5t-130 16.5t-119.5 16.5t-99 31v-524zM240 920q66 33 156.5 41t181 24t166 57t108.5 140q-33 33 -80 51t-96 26.5t-95 9.5t-77 1q-68 0 -105 -30t-61.5 -79t-44.5 -112t-53 -129z" />
<glyph unicode="C" horiz-adv-x="1806" d="M61 641q49 100 141.5 218t203 228.5t228.5 203.5t218 143q49 0 98 -2t98.5 -14.5t98.5 -40t98 -77.5q-64 21 -128 22q-34 0 -67 -6q-97 -17 -188.5 -68.5t-175.5 -127.5t-153.5 -159.5t-123 -168.5t-85.5 -151q33 -98 96 -165.5t147 -116t184.5 -79t205.5 -56.5l213 -50 q108 -25 206 -57h396q0 -49 -23 -76t-59.5 -39t-83.5 -14t-97 -2q-131 0 -271 12t-279.5 41t-272.5 78t-250 121.5t-213 172t-162 230.5z" />
<glyph unicode="D" horiz-adv-x="1402" d="M61 1438l346 -84q177 -45 346 -125t323.5 -208t279.5 -333q-31 -129 -99.5 -218t-159.5 -152.5t-198.5 -107.5t-217.5 -83l-213 -79q-103 -40 -187 -93l-103 117q-53 102 -73.5 215.5t-23.5 230.5q-1 35 -1 70q0 82 5 167q7 120 11 236q2 52 2 103q0 64 -3 127 q-5 113 -34 217zM178 1235l103 -1063q84 23 178 41t188 40.5t180 53.5t151.5 80t104.5 123t39 178q-145 252 -380.5 399.5t-563.5 147.5z" />
<glyph unicode="E" horiz-adv-x="1372" d="M59 623l99 129q23 49 25 100q1 19 1 38q0 31 -3 61q-5 48 -13 93q-6 33 -6 63q0 11 1 22q3 40 21.5 73t67.5 58q117 0 253 32.5t275.5 71.5t275.5 71.5t251 32.5v-106q-115 0 -229.5 -17.5t-231.5 -46t-236 -64.5l-243 -73v-409q74 0 169 29.5t204.5 57t226.5 37.5 q21 2 43 1l190 -33q-117 -35 -249 -58.5t-261 -63.5t-243.5 -108.5t-194.5 -191.5l66 -65q24 -24 34 -44t12.5 -43.5t2.5 -62.5q82 -49 162 -52q11 0 21 -1q70 0 139 18q79 20 157 55t154.5 63.5t153.5 39.5q21 3 43 3q55 0 110 -20l-232 -148q-117 -73 -243.5 -121 t-269.5 -61q-34 -3 -69 -4q-113 0 -241 33q-49 25 -68.5 73t-24.5 108q-4 42 -4 87q0 18 0.5 36.5t0.5 36.5q0 45 -3 87q-5 59 -26 107.5t-68 75.5z" />
<glyph unicode="F" horiz-adv-x="1212" d="M111 385v88l196 117v631q70 25 146 62l155 76q80 38 162 69.5t163 47.5q51 10 101 9q30 0 60 -3q80 -9 153 -55q0 -78 -15 -100t-41 -19t-58.5 18t-65.5 15q-111 0 -215 -21.5t-193.5 -67.5t-158 -119.5t-107.5 -178.5v-280q72 0 135.5 31.5l128 60.5t136.5 38q13 2 25 1 q61 0 132 -35q-33 -37 -83 -57.5t-109 -37.5l-126 -36q-67 -18 -134 -49q-47 -29 -65.5 -70t-18.5 -87t13 -94t29 -93l28 -82q13 -37 14 -62v-84v-92q-74 23 -112 66t-57.5 94t-29.5 104.5t-28.5 96.5t-54 70.5t-105.5 27.5z" />
<glyph unicode="G" horiz-adv-x="1343" d="M43 762.5q0 107.5 38 202t116 168.5q86 86 185 176t205.5 149.5t219.5 68.5q12 1 24 1q101 0 203 -68v-100q-76 37 -167 38h-6q-88 0 -170 -30q-85 -31 -155.5 -90t-107.5 -145q-174 -150 -241 -302q-31 -71 -31 -141q0 -81 41 -162q39 -84 82 -147.5t86 -112.5l82 -90 l77 -82q51 -18 94 -17q22 0 42 4q60 13 108.5 50t85.5 91.5t69 111.5l58 108q27 51 53 84q-51 49 -109 61q-29 6 -59.5 5.5t-61.5 -5.5q-62 -11 -128 -34t-130.5 -39t-125.5 -18h-7q-57 0 -110 30q47 35 121 71t151.5 64.5t147.5 47t108 18.5q55 27 108 27q21 0 41 -4 q73 -14 129 -52t91 -87.5t35 -84.5q0 -84 18.5 -181t30.5 -195q8 -66 8 -129q0 -31 -2 -62q-6 -92 -55 -166q-51 25 -70.5 66t-22.5 89q-1 13 -1 26q0 36 6 74q8 52 13 101q3 30 3 56q0 16 -1 32q-3 40 -27 64q-51 0 -88 -23.5t-66 -57.5t-52.5 -75t-52 -74.5t-63.5 -57 t-84 -23.5q-80 -26 -144 -26q-27 0 -51 4q-83 15 -144.5 63.5t-107.5 120t-85 149.5q-78 119 -116 235.5t-38 224z" />
<glyph unicode="H" horiz-adv-x="1241" d="M72 612q57 53 79.5 125t25.5 152q1 22 1 44q0 59 -6 120l-15 162q-5 50 -5 98q0 27 2 52q4 71 32 124q43 -39 66.5 -118t34 -173t12.5 -192.5t2 -178.5q82 -41 163 -46q27 -2 54 -1q54 0 107 6q80 10 159.5 25.5t163.5 15.5q0 80 -14 162t-24 157q-6 48 -6 90q0 24 2 46 q5 61 42 102h103q31 -86 36 -179q3 -51 4 -102q0 -43 -2 -86q-5 -95 -14 -192q-5 -64 -5 -128q0 -32 1 -63q4 -95 26.5 -188.5t80.5 -179.5l-127 -100q-39 37 -61.5 97.5t-41.5 133.5l-41 157q-23 83 -59 163l-547 -105v-665q-57 29 -80.5 82t-30.5 117q-5 48 -4 101 q0 17 0.5 34.5t0.5 35.5q0 52 -5 100q-6 65 -29.5 115.5t-80.5 79.5z" />
<glyph unicode="I" horiz-adv-x="1341" d="M45 1069q123 92 273.5 144.5t314.5 96.5l335 94q171 50 339 134v-117q-47 -41 -112 -64.5t-138 -43.5l-156 -45q-82 -25 -166 -66q-41 -94 -63.5 -202.5t-32.5 -225.5t-12 -240.5t-2 -246.5q88 0 171 14l154 25q48 7 90 6q21 0 40 -1q58 -5 100 -44q-84 -53 -180.5 -85 t-180.5 -66t-139 -80t-55 -126q-49 0 -78 32t-52.5 62.5t-49.5 42.5q-6 3 -12 2q-23 0 -58 -30q-41 0 -64.5 -15.5t-43 -25.5t-42 -5t-61.5 46q0 39 34.5 63.5t85 47t108 53t102.5 84.5v782q-31 0 -67 -15.5t-76 -35t-82 -34.5t-82 -15t-76.5 21.5t-65.5 78.5z" />
<glyph unicode="J" horiz-adv-x="1843" d="M35 993l415 172q216 90 441 159t458 98q104 13 207 14q129 0 259 -21v-104l-734 -99q0 -82 31 -179t59.5 -203.5t41.5 -220.5q4 -31 4 -63q0 -82 -25 -165q0 -84 -35 -145.5t-85 -109.5t-105.5 -86t-96.5 -75q-41 0 -95 1t-110.5 10.5t-110.5 30t-95 56.5 q-39 0 -60.5 16.5t-31 46.5t-11.5 71t-2 90h105q0 -49 18.5 -90t47 -71t63.5 -46.5t69 -16.5q80 0 142.5 36t113 87.5t91 105.5t77.5 89q32 88 32 167q0 24 -3 46q-12 98 -51 195.5t-93.5 199t-95.5 223.5l-227 -75q-113 -39 -220.5 -71t-205.5 -52.5t-182 -20.5z" />
<glyph unicode="K" d="M37 1462q74 0 99.5 -33.5t25.5 -83t-11.5 -103.5t-11.5 -93v-334q109 0 200 34t173 88t155 124l144 141l143 139q72 68 152 121l100 -108l-729 -539q53 -129 136 -219t183.5 -154.5t213 -109.5t224.5 -85t215 -83t187 -101v-100l-379 140q-180 67 -351 139.5t-337 158.5 t-336 201q-35 -37 -39 -93q-2 -20 -2 -42q0 -39 6 -84q9 -70 22 -150.5t13 -169.5h111q0 -39 -17.5 -58t-37.5 -30q-25 -10 -56 -12q-76 106 -112.5 229t-49.5 253q-11 106 -11 214v51l7 265q2 66 1.5 129.5t-1.5 125.5q-3 123 -30 232z" />
<glyph unicode="L" horiz-adv-x="1443" d="M43 111q57 96 90 209.5t52.5 234.5t32.5 245t33.5 243.5t55.5 231t94 206.5q0 -188 -2 -353t-14 -312.5t-37.5 -284t-73.5 -267.5q143 -57 282.5 -90t277.5 -58l275 -51q138 -26 277 -69q-139 -43 -294 -49q-55 -2 -111 -2q-101 0 -204 7q-159 11 -316.5 27.5 t-300.5 16.5z" />
<glyph unicode="M" horiz-adv-x="1517" d="M53 -90q0 215 2 412.5t13.5 384t35 363.5t68.5 347q86 -41 133 -102.5t80 -126t58.5 -124.5t68.5 -101q0 -86 21.5 -175.5t57.5 -180.5t82 -181t97 -178q86 86 130 198.5t68.5 236.5t42 252t51.5 242.5t94.5 210t172.5 152.5l127 -123q0 -170 -17.5 -343t-29.5 -339 q-8 -111 -8 -216q0 -53 2 -104q6 -155 53 -286q0 -41 -2 -62.5t-14.5 -30.5t-38 -11t-72.5 -2q-39 131 -60.5 280.5t-30.5 303t-11 304t-2 281.5q-29 -88 -41 -193l-25 -213q-12 -109 -32.5 -213t-61.5 -193t-111.5 -154.5t-183.5 -96.5q-96 90 -168 177t-128 175t-100 177 l-87 184q-29 -63 -33 -142q-2 -31 -2 -63q0 -48 4 -99q6 -85 15 -174q7 -67 7 -130v-41q-3 -82 -26 -155t-80 -128h-119z" />
<glyph unicode="N" horiz-adv-x="1175" d="M39 20q41 156 81 330l80 352l79 354q39 175 79 333l153 -316l157 -313l223 -426q53 82 74.5 178t27.5 200q5 78 5 157q0 26 -0.5 52.5t-0.5 53.5q0 79 4 157q6 103 28 199t75 180v-122q0 -158 12 -318q11 -147 12 -295q0 -12 -1 -24q-1 -160 -27.5 -320t-106.5 -315 q-123 82 -209 182t-154.5 211t-132 227.5t-139.5 231.5q0 -115 -3 -250t-22.5 -274.5t-62.5 -275.5t-120 -251q-33 2 -56 12t-39 30.5t-16 59.5z" />
<glyph unicode="O" horiz-adv-x="1386" d="M45 673q6 83 28.5 157.5t54.5 143t55.5 132t29.5 124.5q1 11 1 23q0 49 -21 99q92 59 176 74q45 8 88 9q37 0 73 -7q78 -13 153 -45l151 -65q76 -34 155.5 -59.5t167.5 -25.5l131 -363q51 -98 55 -190q1 -13 1 -26q0 -79 -21 -157q-25 -91 -71 -182l-95 -184 q-45 -41 -108.5 -80t-141.5 -60q-65 -18 -137 -18h-28q-87 4 -177 50q-98 0 -188 39.5t-157.5 106.5t-108.5 153t-41 176q-26 77 -26 147q0 14 1 28zM193 498q41 -90 108.5 -174t149 -140.5t174.5 -74.5q29 -6 57 -6q63 0 125 28q94 0 177 92t173 275q0 43 17 108 q17 70 17 141q0 68 -29 133q-30 67 -124 113q-41 90 -103.5 138.5t-130 71t-132 26.5t-107.5 4q-98 -47 -168.5 -130t-115.5 -185.5t-66.5 -212t-21.5 -207.5z" />
<glyph unicode="P" horiz-adv-x="1007" d="M41 475q35 74 40 157t5 168t6 164.5t41 147.5q20 20 43 62.5t52.5 88.5t69.5 89t95 67q51 23 116 23h11q72 -2 168 -45q31 -39 75 -77l85 -73q41 -35 69.5 -68.5t28.5 -66.5q20 -57 20 -108q0 -39 -12 -75q-27 -83 -86 -150.5t-140 -122t-153 -97.5l-360 -170 q70 -72 70 -192.5t-70 -259.5q-43 25 -66.5 67.5t-36 95t-15.5 109.5t-8 109.5t-15 93t-33 63.5zM215 559h274q33 43 93.5 95.5t121 112.5t105.5 124.5t45 132.5q-33 66 -83 116t-111.5 83.5t-129 51t-135.5 17.5q-68 -68 -104.5 -150.5t-53 -176t-19.5 -197t-3 -209.5z" />
<glyph unicode="Q" horiz-adv-x="1386" d="M72 699q12 99 42.5 194.5t70.5 189t67 187.5q80 72 187.5 112.5t217.5 43.5q9 0 17 1q102 0 197 -34q103 -37 180 -123q68 -61 122 -133t88.5 -149t47.5 -160q5 -33 5 -66q0 -50 -11 -100l-226 -359q80 -127 166 -238.5t166 -228.5q-12 -1 -24 -1q-61 0 -111 35 q-59 42 -110.5 104.5t-97.5 131t-95 113.5l-123 -98q-63 -49 -133 -82t-146 -39q-11 -1 -23 -1q-66 0 -138 30q-72 31 -124.5 82t-90 113.5t-63.5 132t-44 137.5q-18 73 -18 142q0 32 4 63zM193 672q6 -72 15 -144.5t30.5 -140.5t61.5 -123t108 -92q53 -23 111 -28 q18 -2 36 -1q40 0 79 8q56 11 106.5 37.5t86.5 67.5q3 17 4 31q0 39 -24 63q-33 33 -85 56l-108 45q-55 23 -86 67q29 45 69 59q25 8 51 8q16 0 33 -3q44 -8 92 -30t94 -46l87 -45q41 -20 74 -27q53 49 89 110.5t53 130.5q15 58 15 119v21q-3 72 -26 143 q-41 104 -117.5 186.5t-172 130.5t-202.5 55q-15 1 -30 1q-92 0 -180 -39l35 -45q-72 -41 -130.5 -102.5t-99.5 -136t-59 -160.5q-13 -60 -13 -121q0 -27 3 -55z" />
<glyph unicode="R" horiz-adv-x="1347" d="M23 582q49 76 59 172q9 88 9 176v18v49q0 73 2 142q3 92 38 159q147 -10 294.5 -25.5t283 -52t253 -103t207.5 -179.5q-23 -102 -89 -175t-153 -127t-185 -92l-183 -71q45 -63 106.5 -104t130 -72t140.5 -56.5t139.5 -56t126 -71.5t98.5 -105q-125 18 -247.5 59.5 t-241.5 99.5t-232.5 131t-220.5 153q-23 -4 -46 -2t-44.5 2t-39 -7.5t-25.5 -27.5q-4 -20 -4 -41q0 -39 13 -79q19 -60 35 -118q13 -48 13 -90q0 -9 -1 -17q-3 -50 -56 -85q-61 57 -79 134t-24 158.5t-17 162t-60 141.5zM227 559h37q20 61 47 78.5t58.5 10.5t68.5 -27.5 t75 -33.5q27 -10 56 -10q11 0 22 2q40 5 79 50q49 23 115.5 49.5t122 64t85.5 91.5q18 31 18 69q0 29 -10 62q-170 98 -358 143t-405 45v-403q49 -27 51 -50.5t-15.5 -46l-36.5 -45.5q-13 -15 -13 -31q-1 -9 3 -18z" />
<glyph unicode="S" horiz-adv-x="1492" d="M66 283q154 0 293 -29l279 -56q138 -28 278 -37q28 -2 57 -2q114 0 237 29q57 0 80 7.5t23 20.5t-17 33l-34 42q-18 23 -35 48.5t-17 51.5q-78 131 -171 207t-194.5 119t-207 65.5t-206.5 49t-194.5 69.5t-170.5 125q41 115 115.5 179.5t171 102.5t212 63.5t238.5 62.5 q37 0 76 -17.5t77.5 -45.5t76.5 -64l75 -74q-25 -51 -42 -71.5t-34.5 -20.5t-36 14t-44 31.5t-61.5 32t-87 14.5q-78 0 -158 -3t-158.5 -22.5t-157.5 -61.5t-153 -120l268 -54q137 -28 267.5 -66t249 -89t216 -125t165 -174t98.5 -235q0 -35 -4 -72t-25.5 -75t-68 -78 t-132.5 -83q-154 0 -294 35t-278 84l-279 102q-139 52 -293 87z" />
<glyph unicode="T" horiz-adv-x="2142" d="M66 1077q129 51 262 80t267 53l268 52q134 27 263 73q129 -47 260.5 -54t255 -7t234.5 -8.5t197 -53.5l-119 -135h-828q0 -84 3.5 -205.5t25 -253t68.5 -258.5t133 -223q-45 0 -70.5 -15.5t-47.5 -26.5q-15 -8 -31 -8q-7 0 -15 2q-25 5 -66 48q-43 96 -68.5 208 t-47 231.5t-47 246.5t-70.5 254q-57 0 -124 -15t-139.5 -34.5t-148 -35t-148.5 -15.5t-141.5 21.5t-125.5 78.5z" />
<glyph unicode="U" horiz-adv-x="1165" d="M51 697q-4 38 -3 75q0 67 11 133q18 102 58 187v133q63 -33 88.5 -81t28.5 -107q1 -13 1 -25q0 -47 -9 -99q-11 -66 -20 -132q-8 -60 -8 -119v-13q1 -66 27 -125q55 -84 120 -127t129 -52q19 -3 38 -3q44 0 85 15q58 22 99 67q84 55 126 127t59 154q15 77 15 157 q0 66 -4 180q-2 42 -2 82.5t2 78.5q3 77 30 140h112q0 -119 -6 -251q-5 -114 -5 -232v-39q1 -137 14.5 -269t53 -247t112.5 -207t192 -147q-41 -47 -82 -53q-14 -2 -27 -2q-26 0 -49 8q-39 14 -78 47q-47 41 -90 103.5t-75.5 129t-52 131t-19.5 109.5q-57 -31 -112.5 -68 t-113 -70.5t-114 -58t-115.5 -27.5q-7 0 -14 -1q-53 0 -106 21q-60 24 -122 83q-80 82 -122 185.5t-52 208.5z" />
<glyph unicode="V" horiz-adv-x="1341" d="M51 1427q57 0 97 -27.5t69 -72.5t48.5 -104.5t36.5 -122.5l35 -127q17 -63 42 -117l440 -555q92 168 146 333l98 312q45 147 96 271t137 210q-47 -174 -88 -345t-73.5 -341t-51 -339t-18.5 -339q-37 0 -59.5 -15t-44.5 -25q-15 -7 -35 -7q-10 0 -20 1q-32 5 -87 46 q-53 113 -130 218.5t-162 210.5l-170 209q-85 105 -153.5 219t-110.5 239t-42 268z" />
<glyph unicode="W" horiz-adv-x="1945" d="M49 1317h105q80 -156 144 -306.5t132 -293t147.5 -274.5t192.5 -250q35 80 55.5 173t37 187t37 185t54.5 165q80 -25 129.5 -63.5t80 -89t48.5 -107.5l39 -118q20 -60 48 -120.5t75 -115.5q72 117 142.5 249t126 274t90 295t34.5 308q43 39 69 57.5t45.5 18.5t41 -18.5 t57.5 -57.5q-80 -156 -142 -323.5l-119 -336.5l-114 -337q-58 -168 -128 -324q-74 0 -125.5 32t-86 83t-59 116.5t-43.5 134.5l-37 132q-18 63 -43 113q-55 -49 -86.5 -106.5t-51 -120t-32 -128t-29 -129t-43 -124t-71.5 -111.5q-113 158 -209 313.5t-183 318t-168 336 t-161 363.5z" />
<glyph unicode="X" horiz-adv-x="1132" d="M47 -193l516 728q-80 80 -153.5 174t-130 192t-90 194.5t-33.5 182.5q0 37 15 42t36 -5q23 -10 51 -37h90l-90 -109q33 -45 71 -102l78 -116l79 -111q40 -53 77 -90q82 49 132 108.5t84 120.5t58.5 121.5t56.5 114t77 96.5t119 67l-297 -735q0 -51 35.5 -94t81.5 -83 l92 -80q46 -40 68 -82q12 -24 12 -49q0 -19 -7 -39q-16 -46 -92 -101q-35 37 -70.5 92t-75.5 107.5t-85 90t-97 37.5q-72 -86 -134 -183t-129.5 -186t-149.5 -160t-195 -106z" />
<glyph unicode="Y" horiz-adv-x="1245" d="M61 1318q-6 47 -5 94q0 75 14 155h114q-25 -87 -24 -175q0 -65 13 -129q32 -153 120 -289t222 -251t296 -191l297 836h106q-41 -164 -108 -339l-133 -360q-66 -185 -114 -377t-48 -384q-2 -33 -16 -58q-12 -23 -39 -39t-74 -16q-25 53 -25 98.5t10.5 86t27 79.5t23.5 81 q4 24 4 51q0 19 -2 38q-5 47 -38 105l-157 161q-81 85 -156.5 179t-141 197.5t-109 215t-57.5 231.5z" />
<glyph unicode="Z" horiz-adv-x="2156" d="M51 1255q0 86 37 115t89 29t110.5 -13.5t101.5 -13.5h803q22 -53 22 -98q0 -9 -1 -17q-5 -51 -30.5 -97t-62.5 -88t-70.5 -85t-58 -89t-24.5 -101q-84 -43 -148.5 -104.5t-116 -137.5t-93.5 -162t-83 -180q137 -27 270 -28h22q121 0 239 11q129 11 257 27.5t257 25.5 q77 6 156 5q52 0 105 -2q132 -6 269 -39q-2 -31 -14 -53q-10 -20 -31.5 -37t-62.5 -17q-219 0 -432 -2t-426 -12t-427 -32.5t-434 -63.5q94 131 182.5 279.5t173.5 309.5l169 329l168 341q-57 29 -123 31h-21q-57 0 -118 -9q-74 -11 -154 -27.5t-163 -26.5q-55 -7 -111 -7 q-28 0 -57 2q-85 4 -169 37z" />
<glyph unicode="[" horiz-adv-x="991" d="M98 -266q16 217 21.5 440t15.5 452.5t37 467t88 483.5q-37 66 -47 113q-10 41 7.5 67.5t88.5 9.5q78 14 171 26.5t187.5 18t182.5 1t156 -20.5q-18 -72 -55.5 -100.5t-85.5 -33.5t-102 4t-107.5 13t-101.5 -5t-83 -50q-47 12 -68.5 3t-29.5 -31.5t-9.5 -54.5t-4.5 -63.5 t-14 -61.5t-42 -46q-53 -209 -70.5 -411.5t-19.5 -398.5t2 -385t-4 -374q70 -18 143.5 -15t145 10t135 12.5t114 -7t81 -49.5t36.5 -113q-43 -25 -93 -18.5t-103.5 19t-104.5 19.5t-96 -17q-47 12 -89 9t-80 -11l-70 -13q-32 -6 -57.5 1t-45 32t-29.5 78z" />
<glyph unicode="\" horiz-adv-x="948" d="M-37 -23l936 1561l2 2q16 16 40 30.5t46 4.5q20 -8 23.5 -26.5t3.5 -22.5v-6l-2 -4l-462 -808l-464 -814l-14 -23z" />
<glyph unicode="]" horiz-adv-x="823" d="M-154 1827v96l1078 -96q-49 -172 -61.5 -336t-4.5 -324.5t28.5 -319.5t37 -318.5t20.5 -324.5t-20 -335q-74 -74 -164 -115t-191.5 -68.5t-210 -50t-219.5 -59.5q-35 0 -53 14.5t-29 32.5q-10 23 -12 49q109 74 217.5 102.5t208.5 47t189.5 46.5t162.5 99 q25 145 13.5 285.5t-38 279t-59 278.5t-52 286.5t-14.5 302t54 325.5h-98z" />
<glyph unicode="^" horiz-adv-x="1249" d="M39 995l8 92l623 453l10 -4q94 -41 184 -119l178 -162l81 -74q40 -38 81 -73l21 -16l-21 -17q-51 -43 -94 -37q-29 4 -46 29t-34 53l-35 56q-18 29 -49 49l-6 2l-2 4q-86 170 -186 188q-43 6 -87 -11t-90.5 -50t-93.5 -77l-92 -89q-66 -66 -130 -123t-126 -80l-6 -2z" />
<glyph unicode="_" horiz-adv-x="1722" d="M49 -16l19 -2q100 -14 199.5 -15.5t195.5 6t191.5 20.5t187.5 27l189 28q95 13 193.5 20.5t199 6.5t202.5 -16l14 -2v-186h-1591v113z" />
<glyph unicode="`" horiz-adv-x="651" d="M96 1318q0 34 35 50q96 55 183 121.5t182 116.5l32 -33v-45l-397 -258q-35 14 -35 48z" />
<glyph unicode="a" horiz-adv-x="1622" d="M72 354l150 163q83 93 177.5 185.5t197.5 171t213 117.5q82 29 166 29q29 0 57 -3q114 -13 229 -106q0 -35 -12.5 -84t-28 -101t-27.5 -100t-12 -81q63 -72 116.5 -124t105.5 -87t108.5 -52.5t127.5 -17.5q-47 -45 -94 -55q-20 -4 -41 -5l-53 8q-47 13 -94 43t-92 66 l-91 71q-46 36 -90 61l-210.5 -204.5t-218 -167.5t-232.5 -96q-52 -12 -106 -12q-73 0 -150 21q-37 35 -56.5 83t-28.5 98t-10 97t-1 82zM168 168q70 -16 136 -16q61 0 119 14q120 29 222.5 89t189.5 139t158 151v366q-92 0 -176 -34.5t-161.5 -94t-147.5 -136.5 t-130.5 -158.5t-113.5 -164.5z" />
<glyph unicode="b" horiz-adv-x="1390" d="M62 1332q3 187 38 362l2 8l4 -6q53 -53 72 -114.5t19 -129.5q0 -35 -3.5 -72t-7.5 -75q-4 -41 -7 -82t-3 -82q0 -47 5 -93.5t22 -93.5q72 35 171 50q63 9 131 9q39 0 79 -3q45 -4 99 -13.5t113.5 -26t122 -44t123.5 -68.5q49 -25 83 -58.5t57.5 -73.5t41.5 -84l33 -89 l29 -82q14 -41 37 -82v-2q0 -53 -17.5 -97t-46 -81t-64.5 -68l-71 -59l-44 -37q-22 -18 -38 -35v-2q-74 -25 -147.5 -33t-144 -8t-138 7.5t-127.5 15.5q-53 8 -102 13t-90 5h-2l-94 191v2q-37 180 -70 370.5t-50 381.5q-15 163 -15 323v56zM256 596q0 -35 5 -65.5t13 -65.5 q8 -39 15.5 -80t7.5 -92q27 -82 74 -124t108 -58q55 -15 120 -15h16q75 2 155 8q43 4 87 6.5t87 2.5q123 61 162 194q16 59 19 127t3 135q-68 102 -167 160q-94 55 -213 74q-60 9 -124 9q-48 0 -97 -5q-116 -12 -232 -51q-23 -47 -31 -86t-8 -74z" />
<glyph unicode="c" d="M215 291v4v18q0 147 61 267q57 119 168 219q96 94 203 159.5t184 108.5l5 2h4q18 0 38.5 3t49.5 13h2q51 10 104 17q9 1 19 1q41 0 71 -24q43 -31 50 -114v-15q-2 0 -7 2l-8 4q-57 18 -111 18h-17q-62 -3 -118.5 -21.5t-106.5 -46t-89 -56.5q-53 -41 -97.5 -86t-79 -89 t-60 -86t-40.5 -75q2 -119 52 -203q41 -72 122 -125q72 -43 139.5 -62.5t153.5 -35.5l39 -8q31 -6 60.5 -7t58.5 1h41q20 0 41 -2q27 -4 56.5 -5t62.5 9l6 2q37 10 69.5 17t61.5 7t56.5 -12t56.5 -39q0 -4 6 -6q2 -2 6 -4l-6 -2l-6 -2q-168 -47 -330 -55q-32 -2 -66 -2 q-133 0 -280 26q-207 37 -355.5 104.5t-265.5 178.5z" />
<glyph unicode="d" horiz-adv-x="1439" d="M66 221q0 113 50 207t125.5 170t164 133t163.5 96q37 37 75 57.5t76 30t76 11.5t74 2l105 -101q0 74 -13.5 165t-13.5 186.5t25.5 186.5t103.5 169q37 0 73 -35t63.5 -92t45 -130t17.5 -149q39 -76 56 -183q11 -70 12 -143q0 -39 -4 -78q-9 -114 -48 -221.5t-114 -183.5 q37 -37 74 -89l76 -100q38 -48 76 -82t77 -34q37 0 72.5 -1t64.5 -10t46 -28.5t17 -56.5q0 -39 -32.5 -58.5t-79.5 -19.5t-99.5 19.5t-91.5 58.5l-301 201q-39 -39 -94 -61.5t-122 -42.5l-141 -40q-75 -20 -151 -57q-76 37 -149.5 59.5t-139 51t-120.5 71.5t-94 121z M225 252q2 -57 39 -133q78 0 153 -14.5t140 -24.5q44 -7 83 -7q20 0 38 2q55 5 94 44q25 25 64 51l77 54q39 28 73 58.5t48 67.5q8 21 8 43q0 17 -5 36q-11 42 -62 93q0 115 -66.5 172.5t-162 57.5t-199 -57.5t-178.5 -172.5q-39 -39 -74 -77.5t-53 -87.5q-17 -43 -17 -94 v-11zM1077 1132q-4 -36 -3 -86q0 -62 5 -147q10 -152 28.5 -224.5t35.5 -99.5q15 -23 31 -23l10 3q37 78 41 164q1 23 1 46q0 63 -8 128q-11 88 -25.5 174t-14.5 164l-43 61q-23 -4 -37 -45q-13 -34 -21 -115z" />
<glyph unicode="e" horiz-adv-x="1294" d="M51 301q10 59 45 115.5t76 97.5q39 119 112.5 201t163 141t183.5 102t174 84q80 0 140.5 -3t110.5 -23.5t92 -63.5t83 -123q-27 -80 -70 -134t-96 -92t-113.5 -63.5t-123.5 -45.5l-121 -40q-59 -19 -113 -46q-53 -27 -105 -31q-20 -2 -40 -2q-30 0 -58 4q-47 6 -87 14 q-29 6 -53 6q-9 0 -17 -1q-30 -3 -46 -24.5t-16 -74.5q0 -39 35 -77t84 -67.5t103.5 -48t92.5 -18.5q80 0 176.5 15.5t195.5 24.5q64 6 127 6q35 0 69 -2q96 -5 176 -44q-121 -39 -256 -73.5t-275 -45.5q-41 -3 -81 -3q-97 0 -193 18q-135 25 -254 104q-80 39 -105 96 q-18 41 -19 83q0 17 3 34zM369 547q106 0 209.5 4t195.5 30.5t168 84t129 161.5q0 53 -23 60q-7 2 -17 2q-20 0 -47 -9q-40 -13 -90 -33t-103 -20t-125 -23.5t-138.5 -63.5t-112.5 -90t-46 -103z" />
<glyph unicode="f" horiz-adv-x="1400" d="M18 432l11 8q29 31 70.5 47.5t91 24.5t104.5 10t111 2q-2 59 -8.5 121t-16.5 127q-10 72 -17.5 144.5t-7.5 142.5q0 109 29 206t109 175v2h2q195 149 455 149q26 0 53 -2q238 -12 509 -145l3 -2l2 -2q63 -59 63 -117q0 -16 -6 -29q-4 -10 -17.5 -23.5t-44.5 -15.5 q-29 -29 -46 -44t-33.5 -23t-35 -9t-48.5 -1h-31l35 69l47 94q-86 27 -181.5 51.5t-190.5 38.5q-77 11 -153 10h-35q-93 -3 -175 -30q-147 -76 -174 -240q-8 -47 -9 -104q0 -59 6.5 -120.5t14.5 -121.5l12 -114q6 -57 8 -111h58q55 0 112.5 11.5t114.5 25.5t114.5 26.5 t116.5 12.5h19v-113h-19q-55 0 -119.5 -2t-127 -15.5t-114.5 -42t-79 -79.5v-461q0 -6 -2 -20.5t-18 -18.5q-4 -1 -8 -1q-11 0 -20 9q-13 12 -34 48q-12 20 -20.5 35.5t-8.5 17.5l-2 2l-36 176q-6 33 -14 67l-13 61l-10 46q-4 18 -4 25q-35 -4 -70 -14.5t-70 -22.5 q-35 -14 -69 -25q-29 -9 -55 -8h-11q-74 0 -110 80z" />
<glyph unicode="g" horiz-adv-x="1413" d="M-2 -459q0 37 16.5 70t43 51.5t60.5 15t70 -39.5l-96 -97q74 -72 177.5 -108.5t211.5 -45.5q39 -3 78 -4q68 0 134 11q103 16 175 53q35 35 86 73l107 83q55 45 106.5 101t87.5 130q0 72 -16 159t-44 178t-61.5 179t-70.5 162q-74 -37 -165 -101.5t-199.5 -118.5 t-236.5 -81q-55 -12 -114 -12q-77 0 -160 20q-47 25 -65 56q-16 27 -16 57q0 38 23 82q19 37 46 71.5t57.5 66.5t55.5 54q47 72 123.5 148.5t168 138t190.5 100.5q92 36 177 36h14q91 -3 167.5 -57t125.5 -175q-17 -66 -16 -132q0 -30 3 -61q11 -96 34.5 -192.5t50.5 -192.5 t35 -193q2 -27 2 -54q0 -70 -15 -141q-22 -97 -94 -193q-37 -72 -104.5 -141.5t-149 -124t-167.5 -88.5t-158 -34q-74 25 -145.5 36.5t-139 19.5t-128 18t-112 35t-91 67.5t-62.5 114.5zM289 315q72 0 127 15.5t101 33.5l84 32q38 15 75 16q23 25 67 50l97 55 q51 30 101 65.5t85 82t48 102.5q5 20 5 42q0 40 -16 88q-74 0 -130 -2t-101.5 -11.5t-83 -29.5t-72.5 -57q-74 -35 -143.5 -87.5t-124 -116t-87 -134t-32.5 -144.5z" />
<glyph unicode="h" horiz-adv-x="1394" d="M59 1616q39 39 77 44q13 2 24 2q23 0 43 -7q35 -10 63 -39q0 -156 16.5 -311.5t36 -311t36 -311.5t16.5 -311q39 78 96 152.5t124.5 133t143.5 94t154 35.5q117 -78 196.5 -173t128 -202.5t70 -222t21.5 -231.5v-104q-78 27 -117 75.5t-56.5 109t-21.5 126t-13.5 126 t-31 110t-72.5 75.5l-78 75q-39 36 -77 55q-34 17 -68 17h-10q-39 -3 -78 -42q-51 -53 -80 -104.5t-46 -104t-29.5 -104.5t-30 -103t-46 -103.5t-79.5 -103.5l-105 102z" />
<glyph unicode="i" horiz-adv-x="446" d="M63 1163v105q0 39 2.5 76.5t11.5 67.5t30.5 48.5t60.5 18.5q39 -41 42 -80v-11q0 -34 -16 -68q-19 -40 -56 -79zM127 686q2 150 41 266l104 -104q0 -78 2 -173t11.5 -193.5t31 -193.5t62.5 -175q39 0 44 -17q2 -5 2 -11q0 -12 -7 -26q-10 -23 -39 -51v-104 q-80 78 -137.5 208t-86.5 277q-28 138 -28 278v19z" />
<glyph unicode="j" horiz-adv-x="1077" d="M63 20l123 125v-45q0 -76 10.5 -111.5t55.5 -35.5h4l4 -2q119 -61 242 -62q117 0 239 60q29 31 57.5 75t51.5 95q45 113 49 223l-62 87l-65 83q-43 51 -83 104.5t-71.5 108.5t-50 116.5t-18.5 131.5q0 57 16 129l8 33l23 -25q33 -33 51.5 -78t34.5 -92t33.5 -90t48.5 -72 l2 -2l2 -2l38 -63l46 -72l79 -124q40 -65 67.5 -133.5t35.5 -140.5q2 -18 2 -37q0 -55 -18 -110v-2q-33 -66 -82 -117t-105.5 -91t-117.5 -71l-121 -61l-4 -2h-4q-68 0 -145 16.5t-144 47.5q-57 25 -123 71.5t-102 122.5zM186 1641q0 20 17 32q18 14 41 25l4 2h4 q12 0 29.5 2t35.5 6q43 10 90 13q4 0 8 1q40 0 70 -26q37 -29 37 -99v-18h-18q-25 0 -38 -9t-20.5 -20.5t-8.5 -21.5t-1 -12h-37q0 8 -11 16t-27.5 15t-35 13.5l-34.5 12.5q-41 12 -71 25q-34 16 -34 43z" />
<glyph unicode="k" horiz-adv-x="1091" d="M51 676q49 49 67.5 105.5t18.5 120t-13 131t-29.5 138t-30 144.5t-13.5 147q49 49 76 54q4 1 8 0q21 0 32 -18q13 -22 18 -60.5t11.5 -76.5t15.5 -66.5t34 -28.5v-394q74 37 150.5 101.5t159.5 120t176 82.5q39 11 81 11q58 0 123 -22l-690 -489q37 -74 107.5 -118 t153.5 -81l171 -79q88 -42 162 -115q37 -37 71.5 -60.5t62 -51.5t44 -70t16.5 -115q-74 74 -164 145.5t-191 126.5t-211 90t-222 35q0 -37 14 -92t24 -120q6 -41 6 -86q0 -25 -2 -50q-5 -72 -42 -146q-49 49 -68.5 105.5t-24.5 120.5q-4 53 -5 108q0 11 0.5 22.5t0.5 22.5 q0 57 -5 117q-5 72 -24.5 144.5t-68.5 146.5z" />
<glyph unicode="l" horiz-adv-x="610" d="M117 1274v190v37h168l-6 -43q-24 -147 -25 -277q0 -35 2 -68q8 -159 42 -310.5t88 -308.5l116 -340l63 -187h-159l-11 19q-53 84 -93 174t-73 190q-29 92 -49 187.5t-35 205.5q-12 100 -18 187.5t-8 171.5t-2 172z" />
<glyph unicode="m" horiz-adv-x="1634" d="M45 -43v106q41 125 49 265.5t18.5 275.5t40 254t111.5 203q84 0 142.5 -42t101.5 -109.5t76 -152.5l66 -171q34 -86 73 -166t94 -135q43 125 70.5 245.5t68.5 224t110 183.5t191 123q43 0 68 -19.5t45 -51.5l45 -71q25 -40 66 -81q41 -123 47 -246t6 -236.5t7 -215 t48 -183.5q-2 -33 -14 -57q-10 -23 -31.5 -39.5t-62.5 -16.5q-55 82 -78 173.5t-30 183.5q-5 65 -5 128q0 27 1 54t1 53q0 62 -5 120q-7 83 -29.5 154.5t-78.5 127.5q-82 -27 -130 -80t-75.5 -121t-40 -144.5t-21.5 -153.5t-21.5 -148.5t-38.5 -127.5q-84 29 -142.5 82.5 t-104.5 124t-86 154.5l-86 173q-46 89 -104.5 178t-142.5 173q-29 -84 -40 -174t-17 -182l-11.5 -182.5t-20.5 -172t-45 -153.5t-85 -127z" />
<glyph unicode="n" horiz-adv-x="1380" d="M39 696q31 29 43 68t15 82q2 32 3 66q0 11 -0.5 22.5t-0.5 23.5q0 34 2 66q3 43 15.5 82t43.5 70q45 -90 52 -199t7 -221.5t7 -221t53 -198.5q90 90 142 196.5t97 208t97.5 185.5t142.5 129q135 -90 227 -221.5t147.5 -288t80 -332.5t24.5 -356h-119q-45 135 -71.5 267 t-49 256t-48 234.5t-70.5 200.5q-90 -90 -160 -181t-126 -192.5t-103.5 -215t-92.5 -249.5q-90 45 -139 129t-83 185.5t-62.5 208t-73.5 196.5z" />
<glyph unicode="o" horiz-adv-x="1703" d="M55 342q4 74 54 170q63 33 100 83t62.5 103.5t47 103.5t57.5 83t94 40q10 1 22 1q53 0 133 -27v129q143 0 285.5 -6t275.5 -42t251.5 -115t215.5 -224q0 -96 -44 -190.5t-117 -178.5t-165 -154.5t-186 -117.5q-98 0 -216 -18.5t-239 -30.5q-81 -8 -159 -8q-39 0 -77 2 q-116 6 -212 55q-49 47 -93.5 97t-68.5 111q-21 52 -21 113q-1 10 0 21zM270 385q0 -72 23.5 -140.5t73.5 -117.5h641q33 33 84 75t104 92t103.5 106.5t82 118t38.5 124.5l2 23q0 52 -27 106q-145 47 -288 69q-91 14 -177 13q-49 0 -97 -4q-132 -12 -251 -62.5t-215 -146.5 q-49 -49 -73 -116.5t-24 -139.5z" />
<glyph unicode="p" horiz-adv-x="1187" d="M61 707q61 156 150.5 232.5t189.5 93.5q35 6 70 6q66 0 133 -21q102 -33 192.5 -98.5t158 -153.5t98.5 -180q0 -47 17 -113.5t30 -136.5q8 -46 8 -91q0 -22 -2 -44q-6 -66 -53 -111l-186 -91q-93 -44 -186 -68q-79 -20 -159 -20l-27 1q-93 4 -186 51q92 47 183.5 77 t173.5 65.5t150.5 88t115.5 144.5q0 92 -23.5 183t-70.5 172t-118 148.5t-163 112.5q-45 0 -89 -20.5t-80 -55t-57.5 -79.5t-21.5 -92q0 -231 -11 -407.5t-15 -333.5q-1 -37 -1 -73q0 -119 10 -237q13 -154 60 -340q0 -47 -20.5 -72.5t-42.5 -38.5q-29 -14 -64 -16 q-61 156 -88.5 286t-35.5 247q-5 75 -4 147q0 41 1 82q4 111 7 227q1 32 1 65q0 87 -6 181q-8 129 -39 283z" />
<glyph unicode="q" horiz-adv-x="1169" d="M117 156q37 111 92 235.5t129 246.5t167 228.5t208 177.5q37 0 71.5 -16t62 -44t44 -62.5t16.5 -69.5l-96 -100q0 37 -2 59.5t-11.5 40.5t-28.5 38.5t-56 55.5q-76 -74 -147.5 -165t-127 -193.5t-88.5 -212t-33 -219.5v-101q111 74 188 150t133 160t96 178t77 209l72 -75 q35 -38 62.5 -77t44 -77t16.5 -74l-95 -754q74 35 162 52t172 17t153.5 -17t106.5 -52l101 -101q-47 -23 -105 -22h-10q-63 2 -129 13.5t-129 19.5q-23 3 -44 3q-37 0 -69 -9q-49 -14 -79.5 -61.5t-30.5 -145.5q-37 -37 -45.5 -70t-16.5 -51.5t-31.5 -18.5t-89.5 29 q-25 123 -28 217q-2 38 -2 73q0 53 4 102q6 81 17 157t18 164q4 59 4 127q0 34 -1 70q-3 110 -28 258l-76 -146q-39 -72 -86 -136.5t-105.5 -119.5t-133.5 -92q-35 0 -71 17.5t-73 45t-75 64.5z" />
<glyph unicode="r" horiz-adv-x="1275" d="M27 541v620h120q0 -92 2.5 -184t14.5 -184.5t37.5 -185.5t72.5 -185l96 201q50 109 118.5 202t164 154t234.5 61q47 0 110.5 -2t122 -13t98 -36.5t39.5 -73.5q-31 -31 -70 -34q-11 -1 -22 -1q-30 0 -62 8q-44 11 -91 27.5t-91 27.5q-32 8 -63 8q-11 0 -21 -1 q-40 -4 -71 -35q-92 -61 -155.5 -141t-104.5 -169t-62.5 -182t-32 -182t-12.5 -169t-2 -142q-92 0 -147 37t-86 95.5t-45.5 129t-24.5 138t-23 125t-44 86.5z" />
<glyph unicode="s" horiz-adv-x="1456" d="M10 614q88 86 195.5 170t227.5 149.5t249 105.5t260 40q46 0 47 -46q0 -33 -19 -70q-22 -43 -62 -80t-83 -37v117q-88 0 -156.5 -20.5t-134 -53.5t-135 -75t-155.5 -85q117 -29 231 -42l224 -27q110 -13 212.5 -32.5t193.5 -61.5t168 -113.5t134 -188.5 q0 -43 -21.5 -103.5t-65.5 -114.5t-109.5 -92t-153.5 -38q-43 -43 -105 -47q-10 -1 -19 -1q-52 0 -108 18q-66 22 -128 62t-105 83q-43 0 -83 21.5t-62 65.5q-19 39 -18 93v16q3 66 46 154q29 -29 59 -74l62 -94q33 -49 68.5 -94t77.5 -74t92 -36q10 -1 20 -1q41 0 88 23 q43 0 86 2t87 12t88 34.5t87 67.5q24 47 24 84q0 8 -1 15q-6 41 -32 70.5t-63 50.5l-74 40q-36 19 -61.5 40.5t-25.5 50.5q-117 29 -223 32q-43 2 -84 2q-61 0 -119 -4q-96 -6 -184 -15q-65 -7 -125 -7q-20 0 -39 1q-78 3 -146 25.5t-127 81.5z" />
<glyph unicode="t" horiz-adv-x="1460" d="M37 862l8 8q47 45 110.5 52.5t139.5 7.5q70 0 146.5 7t154.5 44q0 84 4 184.5t26.5 194.5t69.5 172t133 121l25 12v-27q0 -57 -16.5 -114.5t-34.5 -112.5t-33.5 -109.5t-15.5 -107.5q0 -51 18.5 -100.5t65.5 -100.5q47 47 106.5 81t124.5 52q68 18 133 18q18 0 36 -1 q83 -6 161 -45l31 -15l-29 -14q-86 -43 -170 -67.5l-170 -47.5l-160 -43q-82 -23 -162 -63q2 -135 43 -266t84 -252q37 -100 67 -191.5t30 -169.5v-16h-136l-4 8q-49 94 -75.5 210t-49.5 245q-18 104 -40.5 209.5t-57.5 216.5q-53 -2 -106.5 -18.5t-106.5 -35.5 q-51 -18 -99 -32q-42 -13 -81 -13h-10q-100 0 -154 107z" />
<glyph unicode="u" horiz-adv-x="1499" d="M37 715q0 31 1 80t8 100t21.5 99t42 79t70.5 38q8 1 17 1q38 0 88 -25q-47 -47 -73 -115.5t-38 -149.5t-14 -172t-2 -183l93 -89q46 -44 92 -80t93 -57.5t94 -21.5q33 -33 67 -33q12 0 25 4q46 16 93 62.5t93 108t91 106.5q0 92 -17.5 165t-28.5 131q-7 38 -7 71 q0 18 2 34q6 47 51 93h127q29 -61 42 -123t23.5 -123.5t24.5 -124t45 -123.5t85 -123.5t147 -124.5q0 -45 19.5 -70.5t44 -49t44 -51.5t19.5 -75q0 -45 -22 -49q-3 -1 -7 0q-20 0 -50 20q-36 24 -80 66l-89 90l-373 246q-45 -92 -93 -161.5t-106.5 -117t-131 -71 t-165.5 -23.5q-92 47 -160.5 134.5t-114.5 191.5t-68.5 214t-22.5 202z" />
<glyph unicode="v" horiz-adv-x="1028" d="M25 788v101q37 -78 91 -155l112 -153l114 -155q55 -78 94 -156q39 117 82 231.5t111.5 220t170 201t257.5 173.5v-101q-117 -78 -198 -189.5t-139 -237.5t-100 -257l-81 -248l-103 -100q-78 78 -151.5 173t-131 200.5t-93 220t-35.5 231.5z" />
<glyph unicode="w" horiz-adv-x="1607" d="M35 836h94l381 -764q35 72 57.5 171t49 197.5t66.5 180t112 118.5q25 -49 43 -109.5t39.5 -124t50 -125t74 -109.5t111 -76.5t161.5 -28.5q35 106 57.5 229t49 248t66.5 248t112 229v-94q0 -109 -4.5 -230.5t-31 -247.5t-85 -248t-164.5 -228q-53 -27 -104 -27 q-19 0 -37 3q-70 13 -133.5 58.5t-116 112t-88.5 137.5q-25 -25 -35 -61.5t-17.5 -81.5t-18.5 -94t-34.5 -94t-65.5 -83t-114 -61l-141 215q-70 109 -132.5 224.5t-114.5 243t-87 272.5z" />
<glyph unicode="x" horiz-adv-x="1202" d="M27 926l102 102l135 -136q59 -60 106.5 -117.5t88.5 -119t80 -137.5q49 51 93 116l86 130q42 66 86 125t94 99t112 53q20 4 42 5q44 0 95 -18q0 -39 -32 -61.5t-68.5 -41t-68.5 -40t-32 -58.5l-207 -309q39 -76 93.5 -121t110.5 -83t110.5 -83t93.5 -122 q-56 -27 -103 -28q-17 0 -33 4q-60 13 -117.5 51t-119 89t-137.5 90q-37 -39 -75 -93l-77 -110l-76 -111q-38 -54 -77 -93q-22 21 -23 48q0 5 1 10q5 34 28.5 74t57.5 85t66 93t54.5 99.5t22.5 102.5z" />
<glyph unicode="y" horiz-adv-x="1050" d="M23 808q-5 35 -6 71q0 62 16 129q52 16 87 16q18 0 31 -4q40 -12 54 -47q13 -30 12 -71v-11q-2 -47 -5 -91q-2 -22 -2 -40.5t2 -33.5q3 -30 30 -30q39 -78 79.5 -138t89 -109.5t109 -89.5t137.5 -78q78 78 122 188.5t74 226t53.5 226t62.5 188.5v-102q0 -156 -31 -296.5 t-78 -273.5t-100 -262t-100.5 -262t-78 -273.5t-30.5 -295.5q0 -39 -16 -44q-5 -2 -12 -2q-11 0 -23 7q-23 10 -51 39q-28 89 -29 168q0 24 3 48q11 99 40 186t58.5 167t29.5 158l-116 112l-131 130q-67 69 -127 147t-100 165t-54 182z" />
<glyph unicode="z" horiz-adv-x="1361" d="M29 848l227 72q115 35 237 53q104 16 216 16q19 0 37 -1q132 -3 282 -40v-100q0 -74 -29.5 -141.5t-77 -131t-104.5 -125.5l-112 -126q-55 -63 -102.5 -131t-72.5 -144q111 37 241 57.5t270.5 29.5t289 11.5t299.5 2.5q0 -37 -17.5 -57.5t-45 -30t-64.5 -11.5t-73 -2 q-152 0 -299.5 -15.5t-288 -34.5t-270.5 -34.5t-242 -15.5q-37 37 -40 75q0 5 -1 10q0 32 16 65q18 38 53 76l72 75q76 76 135 149l116 140q56 66 114.5 120t132.5 89q-74 76 -156 98q-67 18 -134 18q-15 0 -31 -1q-83 -5 -165 -25.5t-157 -34.5q-56 -11 -106 -11 q-18 0 -36 2q-65 5 -114 54z" />
<glyph unicode="{" horiz-adv-x="962" d="M94 1167q33 135 100.5 280.5t169 272.5t235.5 220.5t304 127.5q0 -68 -27.5 -91t-61.5 -32l-61 -17q-28 -7 -28 -40q-102 -68 -197.5 -150.5t-163 -176t-96 -193.5t5.5 -201q33 -33 95.5 -52t130 -35.5t129 -37t96.5 -53.5l-272 -268q35 0 95 11t119.5 10t103.5 -24.5 t44 -90.5q-68 -33 -120 -82t-94 -107.5t-78 -125.5l-70 -134q-35 -100 -7.5 -198.5t87 -183.5t137.5 -149.5t145 -97.5q-135 -135 -270 0q-35 68 -94.5 136.5t-109.5 144.5t-75.5 162t8.5 186q33 68 53 120l35 94q16 42 36 77t55 70h-179q-35 68 -24.5 120t35 94t51 76.5 t26.5 69.5z" />
<glyph unicode="|" horiz-adv-x="768" d="M184 2279v115h125v-6q49 -244 78 -487.5t44 -487.5t22.5 -485.5t11.5 -478.5q6 -324 17.5 -651.5t43.5 -657.5l2 -8h-127l-2 8q-39 399 -61 782l-43 758q-20 389 -45 786t-66 813z" />
<glyph unicode="}" horiz-adv-x="1095" d="M123 1960q0 33 42 37t104.5 -4t136 -20.5t137.5 -12.5l168 -168q63 -94 68 -200.5t-26.5 -209t-89 -192.5t-120.5 -154q63 -33 124.5 -52t117 -44t102.5 -60.5t78 -99.5q-31 -31 -63 -36t-63.5 -5t-63.5 -5t-64 -36q63 -33 111 -93t80 -139t47.5 -172t15.5 -188 q0 -63 -15.5 -137.5t-47.5 -145.5t-80 -130.5t-111 -89.5l-76 -73q-45 -42 -100.5 -73.5t-118 -43t-125.5 19.5q0 33 -12.5 64.5t-20.5 63t-4 63.5t37 63h84v-168q63 0 124.5 27.5t117 66.5t101.5 83l79 75q31 94 47 176t16 160.5t-16.5 160.5t-46.5 176q-33 63 -89.5 100.5 t-111.5 68t-95 67.5t-40 100q31 0 60.5 1t54 9.5t39 26t14.5 49.5q-23 20 -55.5 29.5t-67.5 14.5l-67.5 9.5t-54.5 16.5t-26 34.5t17 65.5q33 31 76 76t82.5 100.5t67.5 118t28 125.5t-3 124.5t-18.5 117t-49.5 101.5t-97 79q-63 0 -112.5 1t-89.5 9t-72.5 24.5t-63.5 47.5z " />
<glyph unicode="~" horiz-adv-x="1433" d="M43 641v150q55 -29 87 -56l59 -48q28 -22 61 -34t88 -12q74 0 138.5 37t124.5 89l120 105q59 53 125.5 87t142.5 34t170 -55l148 -223q111 -111 0 -223q-55 29 -76 80t-35 107t-34.5 106.5t-76.5 78.5q-70 14 -137 -6t-131.5 -60t-127 -90.5t-125 -95.5t-126 -77.5 t-128 -36.5t-131 27.5t-136.5 115.5z" />
<glyph unicode="&#xa1;" horiz-adv-x="538" d="M72 1270q20 20 25 50l11 62q5 33 20 63t58 52q20 0 50 -2t56.5 -12t45 -34t18.5 -67q20 -23 21.5 -51t-14 -55t-47 -45.5t-74.5 -18.5q-41 0 -84 7.5t-86 50.5zM217 528q0 -66 2 -139.5t13.5 -150t35 -152.5t68.5 -141l16 -25l90 88l-6 15q-31 80 -46 170t-20 186 t-3 197.5t6 201.5q4 66 6 131.5t2 130.5v35l-33 -12q-47 -16 -70.5 -48t-34 -74t-11.5 -91t1 -100q2 -57 1 -112.5t-15 -100.5l-2 -5v-4zM218 1334q1 -9 24 -9t23.5 9t-3.5 20q-8 12 -20 28q-14 -16 -21 -28q-4 -11 -3 -20z" />
<glyph unicode="&#xa2;" horiz-adv-x="1236" d="M98 573v2v3q0 59 2 117.5t17.5 110.5t48.5 97t94 76h2h2q121 0 176 61q27 27 39.5 65t16.5 81t2 86l-4 84l-3.5 45t-1.5 41v4l89 82l6 -2q27 -12 40 -38t19 -57.5t6 -69.5v-77q-4 -68 0 -128t39 -91q39 -29 123 -8l12 2v-12q0 -23 18 -36l36 -28q16 -10 29.5 -21.5 t15.5 -29.5v-2q0 -20 -21 -43v-84h-8q-35 0 -65.5 26.5t-59.5 55.5q-27 27 -52.5 48t-47.5 28q4 -33 12 -72q8 -35 15 -74t7 -82q0 -82 -34 -158q0 -20 1 -54t6 -68.5t17.5 -64.5t34.5 -42q31 -23 82 6h2h4q66 0 116 16.5t91 32.5q29 12 54.5 20.5t49.5 8.5h11v-8 q0 -104 -95 -146q-39 -16 -79.5 -18t-69.5 -2q-27 0 -64 10q-23 6 -42 9.5t-38.5 -3t-39 -26t-39.5 -58.5q29 -31 45 -72.5t30 -82.5q14 -43 31 -84t45 -70l6 -8l-6 -6q-31 -29 -49 -44.5t-37 -15.5q-16 0 -34.5 15.5t-47.5 44.5q-33 14 -50 40.5t-25.5 58.5t-9.5 69t-1 73 q0 37 -1 71t-7 63.5t-20.5 53t-38.5 38.5q-113 -49 -232 33q-47 35 -91 88.5t-79 119.5zM258 668q0 -20 3 -42t13 -46v-2q0 -23 24 -50.5t69 -48.5q45 -23 98 -34t106 -15q0 111 -11 225.5t-68 227.5q-16 -2 -42 -8.5t-53.5 -18.5t-55.5 -31.5t-48 -48.5q-35 -47 -35 -108z " />
<glyph unicode="&#xa3;" horiz-adv-x="1878" d="M63 684v25q0 45 46 63h2v2q14 4 27 4h30q20 0 41.5 2t32.5 15l12 12h16q76 0 115 4t70 31q29 139 64.5 249.5t82.5 200.5q141 260 373 344l4 2q2 0 2 2h12q86 0 143.5 -8t106.5 -59l12 -12v-195l-30 14q-10 4 -19 9q-6 4 -12 7t-4 3l-6 2l-63 30q-32 15 -60.5 25t-52 12 t-37.5 -6v-12h-17q-254 -195 -356 -643q72 4 142.5 11t136.5 16q78 10 163.5 19t173.5 9h132l-107 -74q-84 -57 -187.5 -70t-217.5 -18q-59 -4 -125 -8t-127 -20q-4 -16 -6.5 -31.5t-2.5 -32.5q0 -45 9.5 -90t25.5 -98l4 -17l19.5 -81.5t13.5 -83.5q23 -8 44.5 -10.5 t45.5 -6.5q39 -4 86 -16t82 -62q74 14 141.5 4t122.5 -22l7 -2q70 -16 126 -21.5t113 29.5l2 2q80 82 150.5 167t107.5 200h2l11 28h28q27 0 45.5 -2t32.5 -16q16 -14 18 -32.5t2 -43.5v-12q-2 0 -2 -2q-2 -2 -2 -4q-25 -72 -78 -152t-118 -145q-35 -35 -76 -65.5t-82 -55.5 q-96 -49 -184 -49h-10h-3q-41 14 -86 19t-90 9h-12h-10q-2 0 -4 3q-82 4 -162 16t-139 61h-72q-6 -12 -7 -26.5t-1 -28.5q0 -16 -4 -35.5t-27 -29.5q-33 -16 -68 24q-4 4 -18 17l-25 24q-35 -4 -69.5 -22.5t-65 -42t-56.5 -48.5l-42 -41l-20 -20l-27 12h-2 q-43 23 -56.5 47.5t-13.5 42.5q0 20 8.5 36t19.5 28t22.5 19t15.5 10q63 59 109 84.5t94 46.5l55 24q-2 6 -9 43l-18 88l-22 111l-23 111l-17 90q-7 37 -9 45l-36 -4q-17 -2 -36 -7q-57 -10 -119.5 -13t-128.5 30z" />
<glyph unicode="&#xa4;" horiz-adv-x="1630" d="M158 432q-8 82 13.5 159t60 144.5t89 123.5t99.5 97q16 -10 26.5 1.5t26.5 19.5l-76 114q-39 56 -74.5 113.5t-64.5 116.5t-45 125q86 -20 138 -77.5t93 -130.5l81 -148q40 -76 102 -134q117 -33 189.5 -33.5t117.5 23t68.5 68.5t41.5 104l40 129q22 70 63 144l-21 131 h131q8 -72 1 -123t-22 -92t-32.5 -79t-28 -81t-11.5 -96.5t20 -126.5h76q37 -74 63.5 -160t36.5 -175t0 -176t-47 -165q-29 -25 -65 -59.5t-55 -71.5t-9 -72t76 -59l262 -164q-70 -20 -137.5 -10t-131 41.5t-122 81t-111.5 106.5q-106 -8 -199.5 -19.5t-167 -45t-125 -100 t-75.5 -185.5q-16 -12 -31.5 -29.5t-31 -33t-32 -26t-36.5 -10.5q-16 57 3 112.5t55 111t78 112t70 113.5q-45 33 -108.5 68.5t-121.5 82t-99 104.5t-41 136zM281 486.5q-2 -56.5 12 -107.5t51 -94t109 -70q82 -29 180 -59.5t197.5 -36.5t191.5 24.5t162 124.5 q41 53 48 113.5t-4 122t-34 121.5l-43 112q-33 45 -75 69.5t-89 35t-97 10.5t-99 -4q-35 -53 -74 -67.5t-79 -10.5t-82 20.5t-82 27.5t-79 9t-73 -34q0 -39 -10.5 -89.5t-19.5 -105.5t-11 -111.5z" />
<glyph unicode="&#xa5;" horiz-adv-x="1366" d="M109 1714h133l8 -8q53 -53 116 -127l126 -152l105 -127l99 -112q31 70 76 138.5t97.5 132t106.5 121.5l103 108l27 26h12q29 0 62.5 -22.5t33.5 -75.5v-10l-147 -179l-57 -69l-53 -64l-42 -51l-24 -31q27 0 59 9q29 6 53.5 8t47.5 -15q29 -23 28 -77v-13l-8 -8 q-33 -33 -75 -38t-83 -5q-25 0 -49 -1t-43 -9q33 -39 33 -76v-4q-2 -29 -16.5 -46t-30.5 -30l-8 -8q-4 -4 -6 -8l2 -2q31 -16 68.5 -21.5t77.5 -4.5t82 5t81 11q41 6 79 10t72 4h29v-29q0 -72 -63 -102q-23 -10 -52 -14l-57 -9q-35 -4 -63.5 -9t-44.5 -21l-9 -9h-12 q-20 0 -44 5.5l-48 11.5q-16 4 -30.5 7t-26.5 5q-25 2 -27 0q0 -205 -9.5 -412.5t-64.5 -416.5l-55 8v790q-55 -4 -103.5 -17t-95.5 -30q-68 -23 -132 -37t-130 19l-16 8v18q0 45 24.5 68t53.5 39l33 21q17 11 34 30l8 8h13q47 0 82.5 1t64.5 5.5t51.5 15.5t44.5 30v94 q-47 -2 -99 -13l-105 -20l-127 -24q-63 -11 -117 -11h-47l20 41q18 37 45 57.5t57.5 33t64.5 16.5l65 8q37 4 67.5 9t46.5 22l23 20l35 35q-33 82 -92 153l-123 146l-96 107q-48 54 -91 118z" />
<glyph unicode="&#xa6;" d="M741.5 1488q14.5 128 81.5 267h70q0 -145 1 -272t12.5 -241t35 -216t68.5 -199q-20 -33 -47 -30.5t-50 2.5q-55 104 -101 213.5t-65.5 228.5t-5 247zM836 -543l24 1080h96q31 -145 33 -275.5t-9 -259.5t-26.5 -262t-19.5 -283h-98z" />
<glyph unicode="&#xa7;" horiz-adv-x="1005" d="M115 819l8 15q18 31 46 59.5t61.5 55t68.5 50.5l66 45l20 15.5t21 13.5q-25 16 -51.5 30.5t-55.5 26.5q-33 14 -65.5 32t-58 40.5t-41 54t-15.5 74.5q0 152 190 260q78 47 167 77t155 48l16 6l12 -12q31 -23 64 -39q25 -12 48.5 -30.5t23.5 -55.5v-8l-4 -6 q-31 -53 -101 -60q-29 -4 -58.5 -3t-60.5 5q-45 4 -87 6.5t-76 -12.5l-7 -2h-6q-72 0 -153 -131q2 -61 57 -106q29 -25 67 -43l78 -39q61 -29 120 -60.5t100 -83.5q23 -29 47 -54l49 -50q41 -41 75.5 -80t59.5 -86q35 -63 35 -129q0 -23 -4 -42t-11 -42q-2 -39 -31.5 -66.5 t-64.5 -52.5q-16 -10 -36.5 -27.5t-20.5 -27.5q2 -4 10 -12l23 -17q14 -10 43 -20l18 -8v-19q0 -137 -57 -239q-63 -117 -203 -197l-14 -8l-15 6q-98 41 -185 113.5t-136 154.5l-29 43h55q55 0 97.5 -26.5t76.5 -57.5q33 -27 64 -47t70 -20h6l6 -4q31 -12 47 -2 q31 18 31 129v8l4 6q14 23 25.5 51.5t11.5 56.5v19q0 8 -4 16q-14 41 -74 70q-72 0 -122 16.5t-97 36.5q-45 18 -92.5 32.5t-112.5 14.5h-16l-11 17q-25 43 -28.5 85t-3.5 83q0 37 -3.5 70.5t-23.5 68.5zM287 690q0 -29 9 -52.5t36 -39.5q2 2 3 2t3 2q33 20 59 10 q14 -4 23 -20q53 -4 102 -24.5t90 -41.5l39 -19q18 -9 35 -13q10 16 20 29l19 28q29 41 47.5 74.5t22.5 76.5q-25 23 -46 47l-44 46q-53 59 -107.5 104t-140.5 45q-72 0 -154 -133q-2 -10 -3 -19.5t-3 -19.5q-4 -23 -7 -43.5t-3 -38.5z" />
<glyph unicode="&#xa8;" horiz-adv-x="1159" d="M96 1280q0 27 7.5 51.5t27 45t53 32.5t86.5 12q53 -53 59.5 -105t-7 -104.5t-33 -105.5t-19.5 -107q-53 0 -80.5 2.5t-41 15.5t-15.5 41.5t-2 82.5q-35 78 -35 139zM774 1106q-6 53 7.5 105.5t33 104.5t19.5 105h141q53 -53 57 -105t-22.5 -104.5t-74.5 -105.5l-101 -107 q-54 54 -60 107z" />
<glyph unicode="&#xa9;" horiz-adv-x="1703" d="M96 629q23 115 60 217t93 193t138 171t197 148q45 23 101 44t118.5 32.5t131.5 9.5t136 -25q0 -68 28.5 -105.5t68.5 -54t81 -19.5t64 -3q92 -68 150.5 -157t93 -191.5t48 -215t13.5 -227.5q-23 -47 -57.5 -102t-79.5 -111.5t-102.5 -111.5t-127.5 -101 q-113 -47 -235.5 -51t-242.5 12.5t-230.5 46l-202.5 52.5q-182 92 -236.5 229.5t-7.5 319.5zM217 385q14 -76 53 -124t93.5 -76.5t121 -43t136.5 -22.5l138 -17q69 -8 130 -22q92 0 180 13t162 48t128 93.5t77 150.5q45 68 59 136.5t8 138t-25.5 138t-41.5 136.5 q-47 90 -113 140t-139.5 79t-150.5 45t-144 39q-16 45 -45 62.5t-64 16.5t-74.5 -17.5t-74.5 -39t-64.5 -45t-44.5 -38.5q-92 -68 -150.5 -157t-93 -191.5t-48 -215t-13.5 -227.5zM354 526q0 -8 2 -18q16 -92 95 -137q92 -88 208 -113q98 -20 232 4q119 23 231.5 74 t198.5 96l8 4v94l-22 -6q-39 -14 -78 -30l-80 -35q-100 -43 -205.5 -81t-234.5 -38l-84 46q-41 24 -68 56q-35 45 -35 99q0 41 17 82v4v2q0 18 18 55t53 78q80 92 156 92h6l6 4q14 16 52 42t92 26q72 0 137 -68l28 -29v111l-4 6q-133 129 -323 47q-70 -29 -145.5 -86 t-165.5 -143q-45 -47 -70 -104.5t-25 -114.5v-19z" />
<glyph unicode="&#xaa;" horiz-adv-x="665" d="M74 1051q27 53 65.5 81.5t84.5 42t98.5 15.5t105.5 2q0 27 -12.5 51.5t-33 45t-45 32.5t-50.5 12h-142q53 80 105.5 88.5t98.5 -25.5t84 -92.5t65 -111.5q0 -53 10 -115.5t16 -123t3 -109.5t-29 -76q-80 27 -156 44t-135.5 44t-96 71t-36.5 124zM145 979q27 -27 53.5 -41 t52 -20.5t52.5 -7.5t53 -1v70q0 27 -1 52.5t-7 45t-20.5 31.5t-40.5 12q-27 -27 -52.5 -42t-45 -28.5t-32 -28.5t-12.5 -42z" />
<glyph unicode="&#xab;" horiz-adv-x="1126" d="M117 715l67 143l13 6q53 35 97 88l91 113l69 88q34 43 74 84l84 84v-178l-129 -168l-50 -65l-47 -59l-37 -48l-21 -29q16 -25 38 -53l44 -57l55 -70q27 -35 45 -70q16 -8 30.5 -25.5t22.5 -52.5q4 -25 5 -49t1 -41v-49h-112l-15 15q-27 27 -48 63.5t-42 77.5 q-35 63 -79 128.5t-113 102.5zM475 784l29 29l181 186q89 94 151 187l14 22h27q45 0 68.5 -28.5t23.5 -63.5v-18l-127 -146l-96 -109l-62 -69q29 -51 49 -100q18 -39 39 -76t43.5 -67.5t51 -53t65.5 -31.5l12 -2l10 -10q18 -18 25.5 -37.5t7.5 -38.5q0 -25 -9 -45t-24 -34 l-14 -15h-131z" />
<glyph unicode="&#xac;" d="M55 967q168 0 377 13t426 30.5t426 31t375 13.5q-33 -135 -37 -255t4 -237t20.5 -235.5t12.5 -253.5q-66 -33 -89.5 -22t-31.5 44t-15 77t-40 79q33 68 38 136.5t5 143t6 159.5t39 186q-201 33 -399.5 26.5t-391 -15.5t-375 1t-350.5 78z" />
<glyph unicode="&#xad;" horiz-adv-x="1083" d="M166 555l6 51l2 10h10h6q4 0 15 7q16 12 16 43v49q10 -6 19 -10l12 -7q4 -2 6 -4q45 -18 97.5 -25t106.5 -7t108 6l106 12l102 12q51 6 101 6h28v-32q0 -37 -2 -57.5t-12 -37.5q-14 -16 -31.5 -18t-46.5 -2q-47 0 -92 -5t-86 -14l-10 -2l-101 -12q-51 -6 -107.5 -6 t-116.5 8t-126 31z" />
<glyph unicode="&#xae;" horiz-adv-x="1609" d="M44 619.5q9 123.5 41 245.5t50 220q119 160 276.5 270.5t356.5 151.5q80 -20 158 -34.5t151.5 -39t142 -67.5t128.5 -121q59 -59 106 -127.5t77 -143.5t38 -153t-10 -155q-59 -98 -104.5 -203t-100 -199t-130 -169t-194.5 -113q-98 0 -211.5 -4.5t-227.5 10t-218.5 59.5 t-184.5 143q-98 80 -125.5 193t-18.5 236.5zM175 697.5q-9 -113.5 15.5 -218t102.5 -184.5q59 -98 145 -142t184.5 -54.5t204 5t203.5 33.5q119 59 200 145.5t130 191t70.5 220t21.5 234.5q-18 20 -30.5 63t-27 82t-37 61.5t-61.5 2.5l-108 108q-14 27 -26.5 29t-26 -7.5 t-26.5 -23.5t-26.5 -22.5t-27 -5t-25.5 29.5q-18 20 -20 31.5t8 22t27.5 21.5t37.5 30q-119 20 -234.5 26t-219 -13.5t-190.5 -72.5t-146 -153q-39 -98 -74 -212t-44 -227.5zM432 441.5q-2 99.5 8.5 197.5t27.5 196.5t38 196.5q59 59 142 89t167 25t156.5 -45t111.5 -120 q39 -20 52.5 -40.5t13.5 -45.5t-7 -55.5t-7 -69.5q-78 -41 -163 -72.5t-204 -31.5q20 -39 56 -70t76 -55l76 -45q36 -20 54 -41h105l53 -52q-41 -41 -112.5 -41t-149.5 41q-39 18 -79 55l-85 76q-45 40 -95.5 75.5t-107.5 56.5q-27 -39 -31 -82t2.5 -86t14.5 -83t5 -74 t-23.5 -59.5t-73.5 -37.5q-19 98 -21 197.5zM559 823q39 -41 110.5 -47t151.5 -6q39 0 77 10.5t66.5 29.5t47 49t18.5 69q-39 39 -79 60.5t-84 30.5t-94 11t-109 2t-76 -18.5t-17 -47t3 -66.5t-15 -77z" />
<glyph unicode="&#xaf;" horiz-adv-x="1417" d="M193 559q25 2 45 16q16 12 31.5 39t15.5 78q106 -49 227 -55t244 6t243.5 30.5t227.5 18.5q0 -49 -1 -76.5t-10.5 -40t-29 -14.5t-53.5 -2q-106 0 -213 -18.5t-221.5 -30.5t-239.5 -6t-266 55z" />
<glyph unicode="&#xb0;" horiz-adv-x="872" d="M66 1243q31 61 86 115.5t115.5 77t116.5 1t87 -113.5q61 0 107.5 -13.5t84 -37t69.5 -52t63 -59.5q31 -92 20.5 -166.5t-41.5 -128t-70.5 -82t-70.5 -28.5q-61 -31 -109.5 -34t-93.5 4t-93 18.5t-110 11.5q-61 31 -94 88t-48 125.5t-17 140.5t-2 133zM227 999 q0 -31 28 -71.5t74 -70.5t103 -40t119 21q61 59 111.5 120.5t50.5 122.5q-31 61 -75 94t-96.5 48.5t-111.5 17.5t-121 2q-31 0 -47 -26.5t-24.5 -64.5t-9.5 -80t-1 -73z" />
<glyph unicode="&#xb1;" horiz-adv-x="1282" d="M51 63q90 45 186.5 63.5t197 24t201.5 4.5t200.5 4t195.5 23.5t187 63.5v-94q0 -45 -20.5 -69t-53.5 -36t-73 -16t-80 -9.5t-74.5 -14.5t-57.5 -32q-102 33 -201.5 37t-191.5 -4t-175 -20.5t-151 -12.5zM51 694q33 33 83 38t108.5 5t124 6.5t133.5 38.5q0 68 -13.5 122 t-31 104.5t-30.5 102.5t-13 120q66 -35 89 -83t31.5 -106.5t15.5 -125t40 -134.5q68 0 134 12.5t125.5 20.5t109 4t83.5 -37q0 -33 -1 -51t-10 -26.5t-27.5 -9.5t-53.5 -1q0 33 -29.5 37t-70.5 -4t-87 -20.5t-79 -12.5q-25 -23 -21.5 -58.5t15.5 -75.5l25 -80 q13 -40 11.5 -72.5t-29.5 -53t-95 -20.5q0 33 -1 81t-9.5 98t-27 98t-50.5 83q-68 0 -133.5 -25.5t-124 -43t-108.5 -8.5t-83 77z" />
<glyph unicode="&#xb2;" horiz-adv-x="761" d="M41 1397q0 49 38 88t85 39q45 0 90 -2t86 -14.5t75 -38t58 -72.5q0 -68 -30.5 -107t-71.5 -68l-83 -58q-42 -28 -63 -74q70 -25 138.5 -10.5t133 32.5t122 21.5t104.5 -43.5q-47 0 -99.5 -21.5t-104.5 -49.5l-103 -53q-51 -26 -97.5 -33t-86 11.5t-68.5 79.5q-16 47 0 89 t44 79t56.5 68.5t40.5 57t-3 45t-77 34.5h-184z" />
<glyph unicode="&#xb3;" horiz-adv-x="477" d="M53 868v54q18 0 47 -7.5t58.5 -7.5t58.5 13.5t49 52.5q23 0 33 9t16 19q6 12 9 29q-23 20 -60 25.5t-71.5 15.5t-61.5 34.5t-27 86.5q0 20 27 34.5t61.5 30t71.5 38t60 63.5q-41 20 -82 21t-76 -9t-64.5 -29.5t-48.5 -40.5v58q18 41 65.5 69.5t102.5 39t112.5 -2 t98.5 -53.5q0 -41 -17.5 -81t-44 -70.5t-55 -49t-49.5 -18.5q20 -18 49 -30l56 -21q27 -10 44 -23.5t17 -34.5q0 -61 -18.5 -103t-49 -71.5t-70.5 -52l-81 -43.5q-20 -20 -48 -21t-52.5 9t-42 28.5t-17.5 38.5z" />
<glyph unicode="&#xb4;" horiz-adv-x="827" d="M55 977v260q197 109 390 204l391 199v-139z" />
<glyph unicode="&#xb5;" horiz-adv-x="1529" d="M26.5 635q-20.5 125 0.5 252q43 125 123.5 228.5t186 177t227.5 114.5t249 41q127 20 224.5 -15.5t176 -104t145.5 -158.5l130 -173q41 -254 -35 -462.5t-246 -378.5q-84 -63 -177 -105.5t-188 -58t-188.5 -4t-177.5 52.5q-127 63 -220 155.5t-151.5 203t-79 235.5z M141 772q-23 -104 13 -207.5t110 -192.5t175.5 -160t207.5 -112q61 0 132 10.5t139.5 31t129 52t103.5 72.5q84 84 137 177.5t80 188.5t28 188t-22 177q-20 41 -50 64.5t-60.5 40t-61.5 30t-51 35.5q-23 0 -26 8.5t3 18.5q6 12 23 29q-43 63 -111.5 87.5t-148.5 24.5 t-160 -18.5t-143 -38.5q-84 -20 -157 -70.5t-130 -119t-98.5 -150.5t-61.5 -166zM532 1108q43 29 97.5 55.5t112 44t114.5 21.5t105.5 -11.5t83 -55.5t49.5 -109q0 -61 -10.5 -115.5t-31 -108t-52 -107.5t-72.5 -116h-226q0 -43 17 -85l32 -85q15 -43 21 -85t-14 -85 q-41 0 -63.5 19.5t-33 51.5t-12.5 73t-2 82q-45 129 -80 289.5t-35 326.5zM647 887q0 -43 10.5 -83t31 -65.5t52 -34t72.5 12.5q63 20 90 59t38 81t16.5 81t25.5 59q0 84 -42 120t-128 -9q-41 0 -64.5 -19.5t-39 -50t-29 -70.5t-33.5 -81z" />
<glyph unicode="&#x3bc;" horiz-adv-x="1529" d="M26.5 635q-20.5 125 0.5 252q43 125 123.5 228.5t186 177t227.5 114.5t249 41q127 20 224.5 -15.5t176 -104t145.5 -158.5l130 -173q41 -254 -35 -462.5t-246 -378.5q-84 -63 -177 -105.5t-188 -58t-188.5 -4t-177.5 52.5q-127 63 -220 155.5t-151.5 203t-79 235.5z M141 772q-23 -104 13 -207.5t110 -192.5t175.5 -160t207.5 -112q61 0 132 10.5t139.5 31t129 52t103.5 72.5q84 84 137 177.5t80 188.5t28 188t-22 177q-20 41 -50 64.5t-60.5 40t-61.5 30t-51 35.5q-23 0 -26 8.5t3 18.5q6 12 23 29q-43 63 -111.5 87.5t-148.5 24.5 t-160 -18.5t-143 -38.5q-84 -20 -157 -70.5t-130 -119t-98.5 -150.5t-61.5 -166zM532 1108q43 29 97.5 55.5t112 44t114.5 21.5t105.5 -11.5t83 -55.5t49.5 -109q0 -61 -10.5 -115.5t-31 -108t-52 -107.5t-72.5 -116h-226q0 -43 17 -85l32 -85q15 -43 21 -85t-14 -85 q-41 0 -63.5 19.5t-33 51.5t-12.5 73t-2 82q-45 129 -80 289.5t-35 326.5zM647 887q0 -43 10.5 -83t31 -65.5t52 -34t72.5 12.5q63 20 90 59t38 81t16.5 81t25.5 59q0 84 -42 120t-128 -9q-41 0 -64.5 -19.5t-39 -50t-29 -70.5t-33.5 -81z" />
<glyph unicode="&#xb6;" horiz-adv-x="1046" d="M80 1163q0 102 53 213v2q18 18 35 33q14 12 24.5 23.5t12.5 13.5q37 72 108 86q33 6 68 3t74 -9q25 -4 50 -6t52 -2h59v284l19 -10q72 -37 88 -111q2 -10 2 -19v-19q0 -39 -10 -84q-2 -10 -3 -20.5t-3 -20.5q47 0 93 9t93 56l20 23v-1637l-18 11q-78 37 -90 260 q-2 25 -2 50v54q0 74 3 150.5t7 144.5q4 49 6 90t2 76q-53 0 -83.5 -9.5t-30.5 -47.5v-2l-2 -5q-25 -49 -29 -143t-4 -203q0 -113 -4 -222t-29 -187l-4 -8h-8q-4 0 -13 2q-6 2 -13 3t-15 5q-16 6 -29.5 22.5t-13.5 46.5q18 205 35 369q6 70 13 136.5t11 120.5t8 88t4 38 q-57 16 -107 22.5t-95 10.5q-39 2 -75 7t-69.5 15.5t-67.5 29.5t-67 52h-2v2q-53 111 -53 213zM227 1233q0 -27 2 -61.5t13.5 -71.5t37 -72t72.5 -59h264v389h-329q-23 -23 -35 -37t-19 -27q-4 -10 -5 -23t-1 -38zM713 1427q10 -37 13 -74.5t3 -76.5v-43q0 -20 -2 -41 q0 -20 -1 -38.5t-1 -37.5q0 -72 17.5 -128t80.5 -83q0 74 -1 136.5t-8 124t-20.5 125t-37.5 136.5h-43z" />
<glyph unicode="&#xb7;" horiz-adv-x="450" d="M94 694q47 47 84 62.5t66.5 9.5t54.5 -26.5t49 -45.5q-25 -25 -20.5 -57.5t4.5 -62t-19.5 -50t-91.5 -20.5q0 47 -19.5 73.5t-43.5 45.5l-44 32q-20 14 -20 39z" />
<glyph unicode="&#xb8;" horiz-adv-x="645" d="M88 -274q0 70 1 136t10.5 118.5t27.5 84t53 31.5v-278q23 -23 52.5 -26t63.5 2t68.5 12.5t68.5 5.5t63.5 -20.5t52.5 -65.5t18.5 -79t-25 -54.5t-50.5 -39.5l-59 -32q-28 -14 -48 -31.5t-20 -40.5h-277q0 70 45 94.5t105.5 32.5l122 15.5t96.5 41.5q-47 23 -92.5 20 t-86 -16.5t-75.5 -26.5t-60.5 -10t-40 29.5t-14.5 96.5z" />
<glyph unicode="&#xb9;" horiz-adv-x="280" d="M53 1308.5q2 69.5 27 139.5l18 53l19 -53q18 -59 41 -111q23 -57 42 -114.5t27.5 -114.5t-3 -115.5t-50.5 -115.5l-22 -33l-17 51q-23 68 -43 136.5t-30.5 138t-8.5 139z" />
<glyph unicode="&#xba;" horiz-adv-x="571" d="M50 1173.5q-7 63.5 9.5 120t51 106.5t75.5 89q41 37 82 29.5t81 -35t78 -62.5t71 -53q84 -287 -86 -436q-41 -39 -80 -41t-77 18.5t-77 58.5l-78 79q-43 63 -50 126.5zM150 1128q37 -41 68.5 -58t59 -22.5t51 0t46.5 11.5q25 6 33 30.5t6 56.5t-10.5 64.5t-16.5 57.5 q-6 25 -13 47t-19.5 39.5t-30 24.5t-41.5 -1q-160 -154 -133 -250z" />
<glyph unicode="&#xbb;" horiz-adv-x="1511" d="M203 1171v115h125l456 -514l-8 -29q-29 -88 -90 -173l-127 -169l-56 -73q-28 -37 -52 -74l-35 -47l-41 41q-16 16 -34.5 42.5t-14.5 59.5q4 35 27.5 57.5t47.5 38.5l42 32q19 15 32 38l6 12l11 7q123 76 129 149q2 31 -16.5 64.5t-49.5 66.5t-69 67l-74 64 q-66 53 -121 106.5t-84 108.5zM573 1112v125l93 23q29 -57 80 -89t112 -65q45 -23 90 -48.5t86 -64.5q78 -72 109 -186q14 -2 28.5 -6t28.5 -15q55 -37 55 -133v-35l-32 -12q-53 -16 -108.5 -58t-110.5 -89q-63 -53 -128 -100.5t-133 -69.5l-6 -2h-8q-29 0 -43 10t-20 20 q-8 10 -9 29q0 12 9 33q12 20 38.5 35.5t55.5 19.5l287 287q-12 47 -37 82t-56.5 61.5t-69.5 46.5l-81 43q-55 29 -111.5 62t-103.5 82z" />
<glyph unicode="&#xbc;" horiz-adv-x="1484" d="M34 1306.5q3 104.5 40 178.5q37 0 56.5 -15.5t29.5 -33.5q10 -23 12 -50q0 -111 13.5 -205t22.5 -176.5t5 -158.5t-41 -150q-37 74 -70.5 178.5t-52 216t-15.5 216zM172 104l150 296l158.5 296t177 296.5t204.5 295.5l99 -98q0 -37 -15.5 -43t-34 -6t-34 -6.5 t-15.5 -42.5q-74 -111 -162 -223.5t-171 -233.5t-152.5 -252t-106.5 -279v-98zM666 303q0 74 16 147.5t44 147.5t64 147l72 148q2 -27 12 -49q10 -18 30 -33.5t57 -15.5l-71 -74q-34 -37 -52.5 -74t-15.5 -73.5t40 -73.5q147 -147 297 0q0 74 3 147.5t21.5 147t58.5 148.5 t114 149q37 0 56.5 -17.5t28.5 -45.5t11 -63.5t2 -72.5h-98q-37 -37 -57.5 -76t-29.5 -85t-10.5 -102.5t-1.5 -129.5q55 27 99 37q37 10 67.5 5t30.5 -42q-37 -37 -71.5 -56.5t-63.5 -29.5q-33 -10 -62 -13q0 -74 15.5 -131t34.5 -103l33 -85q15 -39 16 -76 q-37 -37 -72 -26.5t-63 38.5q-33 33 -62 86q0 37 -2 73t-11 63.5t-29.5 45t-57.5 17.5t-76 -14.5t-85 -23.5t-102 -4t-130 42z" />
<glyph unicode="&#xbd;" horiz-adv-x="1490" d="M29 76q0 72 33.5 143.5t76.5 139.5l82 136q39 67 49.5 128t-19.5 116.5t-126 102.5q0 109 -12.5 200t-12.5 171.5t25 154.5t96 145q0 -109 1 -200.5t10.5 -182t29 -183.5t53.5 -199q72 72 130.5 156.5t122 165.5t139 148.5t184.5 102.5q-287 -287 -443.5 -574.5 t-226.5 -574.5v-96l-96 -96zM564 721q-3 33 15.5 50t51.5 14t69 -37q72 0 141.5 13t133 22.5t116 4t89.5 -39.5q-37 -72 -88 -145l-105 -144l-104 -144q-51 -72 -88 -143q109 0 199.5 45t171.5 98l155 99q74 45 145 45l-161 -156q-90 -84 -198 -155.5t-233.5 -119.5 t-269.5 -48q37 109 87 199.5t105 171.5l104 155q50 74 87 145h-383q-37 37 -40 70z" />
<glyph unicode="&#xbe;" horiz-adv-x="1560" d="M27 1200q33 66 82 102.5t106 61.5t122.5 45.5t133.5 54.5q33 0 65.5 -1t65.5 -10t65.5 -27.5t67.5 -51.5q0 -35 -3 -80t-19.5 -86t-51 -68.5t-100.5 -27.5q31 -35 75 -68.5t76.5 -67.5t44 -65.5t-21.5 -62.5q68 0 133.5 43t124 100.5t106.5 116.5t83 92q-23 -88 -73 -170 t-114.5 -162t-138.5 -157l-145 -158q-72 -80 -134.5 -162t-105.5 -170h-90q0 100 42 171t100 129l118 113q59 54 94 122l-264 -135l-262 -129q0 66 20.5 105.5t54 64t78 39t92.5 33t97 44t92 70.5q-31 63 -76 100t-86 61.5t-70.5 46t-29.5 56.5q33 0 66.5 15.5t67.5 39 t66 54.5l62 61q-98 35 -180 24.5t-147.5 -42t-114.5 -75.5l-84 -77zM801 362.5q-2 28.5 8 60.5t29 64l35 65q17 32 31 61.5t14 52.5q31 0 47 -1t24 -10.5t9 -28t1 -53.5q-23 -27 -30 -53q-8 -25 -4 -54.5t34 -64.5h183q0 63 3 130t18.5 133.5t50 133t98.5 132.5 q0 -31 -14 -91l-28 -128l-27.5 -128.5t-12.5 -90.5q31 -35 63.5 -40.5t65.5 -5.5t66.5 -6t68.5 -39l-182 -90q-31 -35 -22 -81t25.5 -96t23.5 -97t-27 -80q-63 33 -98 67.5t-50.5 67.5t-18.5 65.5t-3 63.5q-35 0 -82 1t-96.5 10.5t-96.5 26.5t-82 52q-22 23 -24 51.5z" />
<glyph unicode="&#xbf;" horiz-adv-x="1148" d="M109 1372q0 41 30 78q18 29 48 48l59 38l38 27q17 12 29 22l2 2l2 4q43 20 73 19.5t50.5 -14t33.5 -35t24 -41.5l16 -30.5t21 -27.5l8 -6v-10q0 -37 -11.5 -63.5t-30 -45t-40 -32t-41.5 -23.5q-23 -10 -40.5 -19.5t-31.5 -23.5l-8 -8h-10q-25 0 -57.5 1t-61.5 7 q-53 10 -70.5 31.5t-19.5 44.5q-12 26 -12 57zM180 1018l10 8q63 68 115 51q43 -16 56.5 -78.5t21.5 -140.5q4 -33 8 -69.5t12 -57.5q135 31 279 -41q68 -33 139.5 -88t151.5 -135q102 -102 84 -229q-8 -55 -30.5 -110.5t-51.5 -109.5l-33 -66q-16 -32 -29 -65l-2 -12 l-12 -6q-35 -10 -68.5 -23.5t-68.5 -29.5l-108 -44q-54 -22 -109.5 -35t-110.5 -13t-110 18l-19 8v19q0 16 -7 25t-19 20l-24 31q-13 17 -13 51v10l6 8q35 29 73.5 22.5t77.5 -18.5q37 -14 61.5 -17t37.5 13l14 12l14 -8q72 -37 164 19q43 27 88 68l88 83v229 q-47 66 -111.5 119t-142.5 86q-82 35 -169 42t-171 -13l-14 -4l-10 10q-29 31 -33 79t-4 112q0 57 -3 121.5t-26 131.5zM319 1409h50q-2 16 -5.5 22.5t-3.5 8.5q-14 -4 -41 -31z" />
<glyph unicode="&#xc0;" horiz-adv-x="1157" d="M68 -209l184 680l67 250l60 219l43 156l16 59q0 18 -8 38.5t-14 41.5q-8 23 -15.5 48.5t-7.5 51.5q0 25 10.5 50.5t38.5 54.5l9 6l10 -4q115 -37 147 -139q16 -43 15.5 -88.5t-2.5 -86.5q-4 -47 -2 -85.5t24 -61.5l2 -2v-4q16 -35 26.5 -81t20.5 -99q6 -43 14.5 -86 t22.5 -81t34.5 -68t51.5 -48q88 -49 262 16l25 13v-27q0 -45 -41 -67.5t-90 -43.5l-74 -30q-39 -16 -68 -43q4 -23 22.5 -49.5t41.5 -55.5q35 -43 62.5 -86t27.5 -86q0 -4 -1 -10t-1 -10q-12 -47 -70 -78l-4 -2h-4q-35 0 -51 24.5t-21 34.5q-14 25 -23 56l-20 63l-33 106 q-17 52 -46 80h-338q-23 -47 -39 -100l-33 -111q-14 -53 -31.5 -108t-40 -109.5t-54.5 -107.5t-75 -98l-30 -29v137zM164 1991l18 2q45 6 75 -5.5t47.5 -31t26.5 -45.5l17 -51q8 -35 20.5 -66t37.5 -53h2v-2q41 -59 90 -89t100 -40.5t97 -8t81 6.5l6 2l6 -6q16 -16 36 -38 t12 -46q-10 -27 -48 -36t-90 -14q-55 -6 -102 7.5t-89 39t-78 59.5l-67 64q-16 18 -33 33l-34 27l-6 8v8q-4 31 -21.5 61.5t-38.5 63.5q-23 31 -41 62.5t-22 70.5zM432 526q0 -47 29 -80q23 2 37 11.5t28 25.5q16 14 35 27.5t47 17.5q-4 12 -13 51t-21.5 86.5t-22.5 93.5 l-16 72q-41 -86 -72 -165t-31 -140z" />
<glyph unicode="&#xc1;" horiz-adv-x="1021" d="M49 -168q0 139 34 272.5t83 263.5t104.5 258t96.5 258t59 263t-4 272q72 23 114 18t62 -32t25.5 -69t3.5 -91t-8.5 -101t-6.5 -100l138 -265q68 -126 120 -248.5t83.5 -248.5t31.5 -266h-96q0 35 -15 85l-30 104l-31 102q-14 49 -14 82q-47 -23 -106.5 -18.5t-122 14.5 t-122 18.5t-106.5 -5t-75.5 -57.5t-28.5 -138q0 -35 -1 -98.5t-10.5 -133t-29 -134t-54.5 -99.5zM422 578h285q0 37 -16.5 86t-43 101t-61.5 101t-72 82zM435 1622q-9 16 8.5 43t44 60.5t26.5 68.5l563 373v-94q-35 -70 -100.5 -137.5t-144 -129t-162.5 -113t-156 -87.5 q-70 0 -79 16z" />
<glyph unicode="&#xc2;" horiz-adv-x="1212" d="M74 -80l266 537q-25 2 -45 10q-16 8 -29.5 25.5t-13.5 52.5q100 35 154.5 99.5t79 147t28.5 179t4 196.5q0 35 15.5 82t41 89t58.5 72t65 30q68 -102 105 -189.5t61.5 -171.5t45 -170t53.5 -186l180 -86q-68 -45 -87.5 -96.5t-11 -105.5t32.5 -110l47 -111 q23 -54 32 -105.5t-13 -96.5q-68 33 -105 94.5t-53 136t-19 154.5t-3 148l-445 -88q-68 -68 -104.5 -134.5t-62 -134t-46 -134t-53.5 -134.5h-178zM74 1970q45 45 82 48t69.5 -18.5t60 -62.5t52.5 -86l48 -85q24 -40 46 -62q-35 0 -83 29.5t-98 71.5t-97 87zM518 637h359 q-35 68 -67 120t-56.5 101t-40 102.5t-15.5 120.5zM963 1440h92q0 63 29.5 129.5t71.5 133.5l87 133q45 67 78 134q-33 35 -50.5 40t-25.5 -5t-10 -35q-272 -268 -272 -530z" />
<glyph unicode="&#xc3;" horiz-adv-x="1007" d="M-49 1876h88q20 -23 29.5 -55.5t14.5 -68.5t9 -69.5t16.5 -55t36 -27t66.5 15.5l128 126q65 62 129 110.5t129 78t128 29.5q31 -66 63.5 -115t64.5 -89t65 -74l63 -66q-43 -43 -86 -30t-86 52t-86 86.5t-86 72t-86 9t-86 -101.5q-31 -63 -77 -121.5t-102.5 -91.5 t-120 -28t-126.5 71q-33 0 -51.5 29.5t-26.5 77t-9 108.5t-1 127zM39 -16q0 63 26 128l49 129q24 65 33 129t-24 128l127 257l120 250l103 232q47 111 82 207h82q33 -129 78 -257t85 -257t68.5 -257t28.5 -257q0 -66 24.5 -117t40 -99t7.5 -100.5t-72 -115.5 q-33 63 -51.5 127.5t-26.5 129t-9 129t-1 128.5q-66 0 -128.5 -1t-118.5 -9.5t-102 -25t-77 -46.5q-33 -66 -66.5 -140.5t-73.5 -140t-90.5 -108.5t-113.5 -43zM465 588q68 0 131 10t129 72l-88 348z" />
<glyph unicode="&#xc4;" horiz-adv-x="997" d="M16 -160q70 174 112 379l86 416q44 211 104.5 415.5t164.5 383.5q70 -37 93.5 -88.5t24.5 -114t-10 -132t-11 -138.5q70 -72 109 -141l75 -130q35 -61 76 -112.5t110 -85.5q-23 -47 -25.5 -92.5t2.5 -89.5t12 -85t5 -77.5t-20.5 -67.5t-65.5 -55q-35 37 -41 87t-6 102 t-6 102.5t-41 86.5l-467 -96q-35 -70 -55.5 -140.5t-38 -141t-38 -141t-52.5 -140.5zM180 1817q37 70 70 77t59.5 -20t42 -72t15.5 -82q-35 -37 -68 -40t-59.5 15.5t-43 51.5t-16.5 70zM393 492h275l-185 469zM647 1720l96 -96l88 96q0 37 -28.5 54.5t-63 17.5t-63.5 -17.5 t-29 -54.5z" />
<glyph unicode="&#xc5;" horiz-adv-x="1101" d="M-18 -80l266 537q-25 2 -45 10q-16 8 -29.5 25.5t-13.5 52.5q100 35 154.5 99.5t79 147t28.5 179t4 196.5q0 35 15.5 82t41 89t58 72t65.5 30q68 -102 105 -189.5t61.5 -171.5t45 -170t52.5 -186l181 -86q-68 -45 -87.5 -96.5t-11 -105.5t32.5 -110l47 -111 q23 -54 32 -105.5t-13 -96.5q-68 33 -105 94.5t-53 136t-19.5 154.5t-3.5 148l-444 -88q-68 -68 -104.5 -134.5t-62.5 -134t-46 -134t-53 -134.5h-178zM348 1665q14 29 43 52.5t61.5 43t53.5 39.5q223 0 299 -153q20 -37 13 -67t-30.5 -53.5t-59.5 -42.5l-73 -40 q-55 -18 -102 -10t-85 31.5t-66.5 59.5t-49.5 74q-18 37 -4 66zM426 637h358q-35 68 -66.5 120t-56 101t-40 102.5t-15.5 120.5zM453 1647q80 -150 153 -150q37 18 56.5 37.5t28.5 38t11.5 37t2.5 37.5q0 20 -16.5 30.5t-39 15.5t-49.5 6t-45 1q-37 0 -69.5 -7t-32.5 -46z " />
<glyph unicode="&#xc6;" horiz-adv-x="1806" d="M117 37v2v2q53 240 129 467l153 450l154 449q76 227 129 465q0 37 23 43q20 8 42.5 -8.5t32.5 -24.5l4 -6v-6q0 -66 9.5 -95.5t46.5 -29.5q84 0 168 14.5t166 30.5l126 24q63 11 128 17t130.5 4t131.5 -18l26 -9l-92 -96l-373 -33l-139 -12l-123 -11l-91 -8 q-36 -3 -42 -3q2 -47 12.5 -84t22.5 -74q12 -39 23.5 -82t11.5 -96l5 -30l12 -75l15 -97q8 -52 16.5 -98t13.5 -79t5 -37q59 -25 135 -8.5t154 41.5l101.5 29.5t91.5 13.5h172l-17 -27q-37 -55 -85 -87t-102 -50.5t-113.5 -26.5t-119.5 -14q-53 -4 -108 -11.5t-107 -23.5 q0 -55 -6 -119q-2 -35 -3 -70.5t-1 -70.5t2 -67.5t8 -65.5q27 -141 129 -213q104 2 249 44t306 97l23 6v-106l-12 -4q-35 -12 -76 -28.5t-82 -37.5q-68 -31 -144.5 -61.5t-154.5 -46.5q-92 -18 -174 -10t-158 47l-20 10l34 35l28 26q13 12 18 17q-37 111 -67 221t-30 223 q0 43 5 86t18 84q-27 4 -56.5 9t-60.5 11q-51 10 -105.5 19.5t-101.5 5.5q-100 -12 -131 -104l-215 -637l-2 -4q-16 -14 -35.5 -28.5t-38.5 -4.5q-18 6 -21 23.5t-3 21.5zM510 899h313q0 141 -8 285.5t-49 285.5q-8 -16 -29 -62l-47 -105l-56 -127l-56 -125l-46 -100 q-18 -42 -22 -52z" />
<glyph unicode="&#xc7;" horiz-adv-x="1603" d="M111 348v6q0 74 17 144.5t44 138.5t59 130l64 120l27 46q12 22 22 44v2l2 2q53 55 114.5 111.5t131.5 87.5q156 68 317 -41l21 -13l-115 -114l-12 24q-20 43 -53 51q-37 10 -89.5 -16.5t-109.5 -60.5l-100 -60q-135 -133 -187 -266q-25 -68 -24 -129q0 -6 1 -13t1 -14 q6 -80 57 -159q80 -82 186.5 -138.5t233.5 -87.5q119 -29 241.5 -28.5t233.5 28.5q57 55 124.5 112.5t182.5 117.5l23 -33q-23 -23 -46 -51l-51 -60l-100 -116q-53 -59 -117 -103q-135 -94 -292 -65v-105q12 2 24 6l27 9l40 12q19 6 42 6q51 0 90 -39q59 -31 92 -75t48 -97 t17 -111.5t2 -117.5v-8l-8 -9q-41 -41 -84 -75.5t-90 -34.5q-43 0 -82 37q-20 20 -40.5 34.5t-37.5 24.5q-31 18 -55 40.5t-24 68.5v12l10 6q31 14 58.5 14t51 -9t44 -24.5t36.5 -29.5q18 -16 36 -28.5t28 -8.5q4 4 15 17.5t26 54.5q0 53 -8.5 103t-55.5 103 q-47 -4 -73.5 -22t-47.5 -39q-12 -12 -23 -21.5t-26 -13.5q-20 -6 -35.5 2t-25.5 17q-31 4 -53 34q-16 25 -25 68q-8 39 -9 80t-1 70v20h20q33 0 49 25q4 8 4 14l-219 59q-109 31 -206 72q-231 102 -334 258z" />
<glyph unicode="&#xc8;" horiz-adv-x="1255" d="M54.5 1237q-11.5 20 25.5 61q76 72 182.5 110t219 47t217 -7t175.5 -51v-99q-47 0 -102 6.5t-112.5 11.5t-114 6t-106.5 -10.5t-91 -39t-65 -78.5v-393q49 0 106 13t117.5 29.5t123 30t123 13.5t118 -18.5t106.5 -67.5q-74 -39 -164 -61.5t-183 -42.5l-184 -40 q-90 -20 -163 -57q0 -74 2 -147.5t11 -139t29.5 -120t59.5 -89.5q98 0 181 29t158 70t142.5 86t133 77.5t133 46t143.5 -11.5q-76 -25 -158 -84l-171 -126q-89 -67 -182 -126t-190.5 -83.5t-195.5 -1t-197 123.5v1090q-55 2 -88 12q-28 11 -39.5 31zM80 2093l102 98 q0 -37 15.5 -42t33.5 5q23 10 52 37q-39 -37 -27 -73.5t41 -65.5q35 -35 88 -63q0 -49 35 -70t81 -29t91 -12t66.5 -20.5t6 -53.5t-89.5 -110q-72 0 -143.5 33.5t-137 90t-120.5 128t-94 147.5z" />
<glyph unicode="&#xc9;" horiz-adv-x="1140" d="M-12 1374q121 39 256 44t265 -4t244.5 -24.5t196.5 -15.5q-55 -55 -131 -69.5t-160 -14.5t-165.5 2t-147 -15t-106.5 -68.5t-41 -157.5v-324l751 115q0 -43 -19.5 -83t-50 -70t-69.5 -48t-78 -18h-534q0 -80 2 -140.5t12 -109.5t32.5 -91t65.5 -81q78 -55 158 -67.5 t156.5 -1.5t150.5 40t141.5 59.5t129 53t114.5 22.5q0 -82 -37 -128t-96 -76.5t-136 -55t-159 -63.5q-53 27 -120.5 22.5t-139.5 -15.5l-140.5 -20.5t-121.5 6t-86 66.5t-33 158q-27 104 -30 210.5t3.5 210t14.5 203t5 194.5t-23.5 184t-73.5 171zM416 1690l161 157 q81 78 170 148.5t191 130t223 98.5q-80 -78 -160 -141l-159 -125l-160 -125q-80 -63 -160 -143h-106z" />
<glyph unicode="&#xca;" horiz-adv-x="1058" d="M-137 1534q0 41 32.5 98.5t72.5 116.5t74 115.5t34 97.5l106 215l107 -109l-82 -157q-41 -78 -91 -148.5t-111.5 -129t-141.5 -99.5zM49 898q0 110 17.5 206t67.5 169t137 115t227 42q41 0 98 -2.5t116.5 -11.5t116 -29.5t97.5 -57.5q-27 -27 -70 -38t-93 -13t-104.5 -2 t-104.5 -2t-92 -13.5t-67 -37.5q-80 0 -127 -24.5t-70.5 -66.5t-28.5 -96.5t-2 -114t9 -120t6 -113.5q53 -27 113.5 -31t123 2.5t122 15.5t113 6t96.5 -25.5t69 -75.5q-80 -41 -159.5 -62.5t-158.5 -31t-159 -11.5t-160 -2v-319q78 -27 157 -30t155.5 5t150.5 23.5 t142.5 24.5t130 6t114.5 -29q-53 -51 -122.5 -80t-149.5 -44.5t-166 -20.5t-175 -11t-176 -16.5t-167 -34.5v98q20 80 18 182.5t-12 214.5l-22 230q-11 116 -11 226zM498 1962l108 106q0 -53 46 -82.5t107.5 -47t126 -30t99.5 -29.5t28 -47t-87 -83q-41 0 -97.5 3t-116 23.5 t-116.5 63.5t-98 123z" />
<glyph unicode="&#xcb;" horiz-adv-x="1224" d="M49 31q0 172 2 342t12.5 331.5t34 311t66.5 280.5q57 0 123.5 25t140.5 59l153 73q79 38 161.5 62.5t168.5 30.5t172 -22l-257 -87q-128 -44 -245.5 -98.5t-224 -121t-192.5 -152.5v-459l257 80q128 39 246.5 60.5t224 17.5t191.5 -47q-86 -41 -191.5 -82t-224 -74 t-246.5 -52.5t-257 -19.5v-231q129 0 259 -18.5t259 -40t258 -39t258 -17.5q-29 -86 -76 -128t-107.5 -54t-132 -3t-151.5 25.5t-166 32t-172 15.5h-344zM164 1870q0 43 2 84t12 72.5t35 52t68 20.5t63.5 -35.5t20.5 -78.5t-20.5 -79t-63.5 -36q0 -43 -18.5 -48t-41.5 5 q-24 12 -57 43zM508 1982q43 43 69 85l47 75q22 33 47 52.5t68 19.5v-115q43 -45 48.5 -85t-5.5 -72q-12 -37 -43 -72q-43 0 -68.5 17.5t-47 39t-47 38.5t-68.5 17z" />
<glyph unicode="&#xcc;" horiz-adv-x="1286" d="M41 47q0 178 2 353t13.5 341t35 319.5t68.5 287.5q57 0 125.5 26.5t145.5 62.5l159 75q82 40 168 67t174 33t176 -25l-264 -91q-131 -46 -254 -102.5t-232.5 -124t-197.5 -155.5v-473q131 43 263 82t255 60.5t232.5 18.5t197.5 -48q-88 -43 -197.5 -84t-232.5 -75 t-255 -54.5t-263 -20.5v-239q131 0 265 -19.5t268 -42t267.5 -42t266.5 -19.5q-31 -88 -78 -130t-109.5 -54.5t-137.5 -3t-157.5 26.5t-172 33.5t-179.5 16.5h-352zM160 1939q0 45 2 89.5t13 78t36 55t70 21.5q43 0 63.5 -38t20.5 -84t-20.5 -84t-63.5 -38q0 -41 -19.5 -46 t-42.5 5q-26 12 -59 41zM512 2060q45 45 71.5 89t49 77t49.5 53.5t74 20.5v-117q45 -47 50 -90t-5 -78q-12 -39 -45 -76q-47 0 -74 18.5t-49.5 42t-49 42t-71.5 18.5z" />
<glyph unicode="&#xcd;" horiz-adv-x="1589" d="M41 1243q66 49 136.5 71.5t144 32t148.5 11.5t148.5 11t144.5 31.5t136 72.5q20 -61 72.5 -85t117 -29t134 -5t124 -13.5t84 -53.5t17.5 -126l-467 66q-61 -123 -84 -252t-19.5 -263t25 -270.5t45.5 -271.5q29 -4 77 6l105 22q57 11 120 18t117 0t97 -36.5t64 -91.5 l-359.5 -34.5t-357.5 -26t-355 -5t-352 28.5l17 123q63 18 147 20.5t170 6.5t165 20.5t131 63.5t69.5 137t-19.5 242l-47 481q-53 37 -110.5 48t-116.5 10t-120.5 -8t-121 -9t-117 9t-110.5 48zM385 2021q6 43 27.5 64.5t44.5 30.5q27 8 61 6q88 -12 152.5 -44t112.5 -83 t84 -122t67 -163q-86 12 -149.5 57t-122 97.5t-124 98.5t-153.5 58z" />
<glyph unicode="&#xce;" horiz-adv-x="1449" d="M29 1221q141 102 292.5 159.5t308 71.5t314.5 -12.5t311 -89.5q-53 -76 -114.5 -93.5t-120.5 -7t-113.5 34t-95.5 29.5q-20 -121 -39.5 -257t-23 -279.5t16 -287t79.5 -276.5q80 -14 160.5 -11t154.5 10l135 13q61 6 103 0q-37 -47 -92.5 -68.5t-118 -31.5t-128 -17.5 t-119.5 -28t-95 -62.5t-53 -121q-43 61 -93.5 82.5t-104.5 24.5t-109.5 -4t-110 -5t-105.5 24.5t-96 83.5q47 33 106.5 46.5t121 13.5t118.5 -8l98 -15q18 119 24.5 258.5t9.5 282.5t8.5 282.5t25.5 258.5q-80 12 -162 9t-166 -9.5t-165.5 -9t-161.5 9.5zM645 1796 q14 16 48 41t71 56.5t43 72.5q33 23 67 60l73 78q38 40 78 75t83 55.5t89 18.5t93 -39q-92 -66 -168 -133l-147 -127q-72 -59 -144.5 -107.5t-158.5 -72.5q-41 6 -27 22z" />
<glyph unicode="&#xcf;" horiz-adv-x="1105" d="M12 1767q2 37 21.5 53.5t47.5 13.5t61.5 -24.5t68.5 -60.5l-10 -102q-31 -23 -54 -31q-20 -8 -35.5 -2t-11.5 43zM55 -33l8 96q2 37 37 55.5t82 23.5t99 2l88 -5l-4 1096q-23 27 -54.5 34t-65.5 5t-66 -7t-56.5 0t-37.5 25.5t-9 69.5q115 27 226.5 37t213.5 10t195 -7 l166 -13q-4 -35 -40 -51.5t-92.5 -20.5t-128 0t-145.5 10l6 -1100q47 -29 103.5 -37t114 -7t114.5 4t106.5 -4t88 -30.5t59.5 -74.5l-111 -92q-221 20 -445.5 27t-451.5 -46zM468 1784.5q-3 19.5 7 27.5t39 9q41 35 63.5 36t39 -18.5t35 -56.5t53.5 -76q-37 4 -73 6t-65 6 q-33 4 -61 6q-35 41 -38 60.5z" />
<glyph unicode="&#xd0;" horiz-adv-x="1349" d="M37 700q33 35 82 40t100 5t100.5 6.5t83.5 41.5q-23 45 -25.5 91t4.5 91t19.5 91t20.5 91t6 91t-25 91v93q102 -35 204 -42.5t196 -15.5t178 -32.5t154 -94.5q68 -102 115.5 -204.5t64 -205t-3 -206t-88.5 -205.5q0 -137 -66.5 -262t-206.5 -195q-45 0 -90 19.5t-86 42.5 l-76 42q-35 19 -60.5 19t-39.5 -27.5t-14 -95.5q-68 35 -105 114t-53 172t-19.5 189.5t-3.5 163.5q-23 23 -59.5 26t-76.5 -2t-81 -12.5t-74.5 -4.5t-54 20.5t-20.5 64.5zM492 608l92 -456q35 0 97 -11.5t132 -11.5t132.5 23.5t96.5 91.5q68 68 102 179.5t34 231t-34 231 t-102 179.5q-35 68 -99 105.5t-141 54t-159 19.5t-151 3v-454q70 0 135 25.5t116.5 43t83 8t31.5 -76.5q-35 -35 -83 -55.5t-99 -37t-100 -37t-84 -55.5z" />
<glyph unicode="&#xd1;" horiz-adv-x="1478" d="M27 1634q0 86 38.5 167t102 145.5t145.5 103.5t166 39q43 0 102.5 -21.5t124 -64.5t124 -106.5t102.5 -147.5q57 0 105 33t92 77l86 89q42 45 86.5 69.5t92.5 19.5t103 -63q-43 -43 -87 -102l-96 -124q-52 -65 -118 -124t-152 -102q-57 29 -105 72l-95 92l-95 91 q-48 44 -104.5 71.5t-125 34.5t-152.5 -21q-57 0 -89 -33t-50.5 -77t-31 -89t-31 -69.5t-50 -20.5t-88.5 61zM84 735q0 135 18.5 261t56.5 236.5t95 194.5q0 -84 35 -159.5t91 -145t129 -133.5l147 -123l148 -116q73 -57 128 -113l82 -84l73 -74l72 -69v905l113 112 l112 -112h-112l112 -1245h-112q-127 86 -255 205l-255 248l-254 248q-127 120 -254 204q0 -127 2 -254t12.5 -254t33 -255t65.5 -255h-113q-57 113 -95 243t-56.5 265t-18.5 270z" />
<glyph unicode="&#xd2;" horiz-adv-x="1087" d="M51 170q0 119 18.5 239.5t48 240.5t67.5 240l79 240q39 80 97.5 139.5t128 99.5t148.5 60.5t159 20.5q53 -53 81.5 -114.5t44 -130t20.5 -142.5t11.5 -150.5t17.5 -155.5t38 -159q-41 -80 -98.5 -175t-128 -185.5t-148.5 -166t-158 -114.5q-41 0 -98 3t-116.5 23.5 t-116 63.5t-95.5 123zM250 544q-10 -120 14.5 -241t104.5 -240q41 0 80.5 35t79.5 85l80 105q40 54 81 95q80 80 106.5 178t26.5 209t-13 228.5t-13 238.5h-213q-53 0 -76 -15.5t-28 -40t-4 -51t-4 -51t-27.5 -40t-75.5 -15.5q-39 -121 -74 -240.5t-45 -239.5zM310 1831 q-3 47 32 115l539 -271q-25 -49 -55.5 -80.5t-58.5 -41t-51.5 4t-35.5 50.5q-35 16 -82 29l-96 28q-49 14 -93 34.5t-70 52.5t-29 79z" />
<glyph unicode="&#xd3;" horiz-adv-x="1198" d="M33.5 645q-13.5 94 23.5 207q39 76 95.5 165t130 173t167 153.5t203.5 106.5l163 -78q87 -41 162 -97t125 -134t50 -191q0 -150 -36 -295t-101.5 -275t-157.5 -238.5t-205 -184.5q-74 0 -130 17.5t-103 45t-86 63.5t-76 75q-37 74 -87 149.5t-87 159.5t-50.5 178z M218 645q-3 -94 15.5 -178t52 -160t70.5 -149q74 -39 148 -27t139.5 49t119.5 87l91 87l73 149q36 75 64.5 149.5t46 149.5t17.5 148q-78 152 -213 225.5t-287 73.5v-98q0 -76 -21.5 -105.5t-55.5 -38t-71.5 -6t-71.5 -6t-55.5 -39t-21.5 -104.5q-37 -113 -40 -207z M225 1663q45 59 128 109.5t184.5 89.5t213 66.5t216.5 39.5l82 -63q-100 -66 -212 -98.5t-215.5 -58.5t-188.5 -55.5t-130 -88.5z" />
<glyph unicode="&#xd4;" horiz-adv-x="1398" d="M49 752q39 158 115 276.5t182.5 206.5t240.5 147.5t292 96.5q76 0 135 -18.5t108 -57.5t89 -96.5t81 -135.5q39 -80 43 -174t-5 -190t-23.5 -190.5t-14.5 -172.5q-115 -117 -233.5 -211t-244.5 -152t-264 -74.5t-292 20.5q-78 39 -121 114.5t-62.5 173t-22.5 210 t-3 227.5zM191.5 404.5q9.5 -87.5 49.5 -160t115 -111.5q78 0 157 17.5t158 47t157 66.5l157 76q76 78 117 172t59.5 190.5t21.5 190.5t3 172q-27 78 -75 131t-108.5 82t-126 35t-126 -8.5t-109.5 -48t-76 -85.5q-78 0 -136 -35.5t-96 -95t-56.5 -135.5t-18.5 -153 q-39 -76 -57.5 -168t-9 -179.5zM231.5 1594.5q12.5 78.5 50 156.5t89 154.5t90.5 152.5q51 -25 64.5 -57.5t1 -69.5t-40 -76.5t-56.5 -76.5t-51.5 -71t-22.5 -60q39 0 44.5 -16.5t-5.5 -37.5q-10 -23 -39 -51q0 -41 -15 -61.5t-34 -30.5q-23 -10 -49 -12q-39 78 -26.5 156.5 zM879 1855q76 0 130 -30.5t94 -73.5t70.5 -91t62.5 -83t68.5 -48t90.5 13q-39 78 -78 138.5t-78 109.5t-78 90l-78 80q-37 37 -73.5 40t-65.5 -16.5t-47 -54.5t-18 -74z" />
<glyph unicode="&#xd5;" horiz-adv-x="1449" d="M44 1552.5q-1 77.5 27.5 156.5t86 156t135.5 154q76 0 138.5 -2t120.5 -11t119.5 -29.5t139.5 -59.5q39 -39 61.5 -77t41 -77t41 -78.5t61.5 -80.5q158 0 234.5 79.5t76.5 233.5q0 39 17.5 42t46 -16.5t65.5 -54.5l76 -73q0 -80 -35 -140.5t-93 -108.5t-132 -88l-150 -79 q-78 -20 -137 0t-108.5 62t-89.5 99l-78 110q-39 54 -80 96t-89 56.5t-108.5 -9t-138.5 -101.5q-41 -41 -64 -95l-42 -103q-19 -48 -41.5 -81.5t-61.5 -33.5q-39 76 -40 153.5zM70 504q0 111 5 218t33.5 208.5t91 190.5t179.5 163q76 37 150.5 68.5t141 41t123 -13 t95.5 -96.5q76 -37 166 -90t165.5 -116.5t127 -135.5t51.5 -145q0 -111 -17.5 -202t-46 -164t-65.5 -127t-76 -91q-78 -74 -153.5 -128t-152.5 -82t-153 -25.5t-151 38.5q-117 0 -197 35t-137 99.5t-99 154.5t-81 199zM234.5 734q-3.5 -87 15 -169t54.5 -150.5t75 -105.5 q37 -74 93 -113.5t123 -58t141.5 -21.5t152.5 -3q76 37 133 107.5t96 161.5t57.5 197.5t18.5 217.5t-52 186.5t-138 130.5t-196 94l-224 76q-27 -49 -59.5 -76.5t-67.5 -46.5l-68 -35q-33 -16 -58.5 -42.5t-41 -70.5t-15.5 -118q-36 -74 -39.5 -161z" />
<glyph unicode="&#xd6;" horiz-adv-x="1409" d="M45 504q0 111 5 218t34 208.5t91.5 190.5t178.5 163q76 37 151 68.5t141.5 41t122.5 -13t95 -96.5q76 -37 166 -90t166 -116.5t127 -135.5t51 -145q0 -111 -17.5 -202t-46 -164t-65.5 -127t-76 -91q-78 -74 -153.5 -128t-152.5 -82t-152.5 -25.5t-151.5 38.5 q-117 0 -196.5 35t-137 99.5t-99.5 154.5t-81 199zM210 734q-3 -87 15.5 -169t54 -150.5t74.5 -105.5q37 -74 93.5 -113.5t123 -58t141 -21.5t152.5 -3q76 37 133.5 107.5t96.5 161.5t57 197.5t18 217.5t-52 186.5t-138 130.5t-195.5 94t-224.5 76q-27 -49 -59.5 -76.5 t-67.5 -46.5l-67 -35q-33 -16 -58.5 -42.5t-41 -70.5t-15.5 -118q-37 -74 -40 -161zM311 1708q0 37 32 57.5t71 39t70.5 40t31.5 58.5q76 -37 86 -89.5t-9.5 -107.5t-48 -106.5t-28.5 -88.5t-16.5 -42t-34.5 6q-23 10 -49 36q-39 0 -60.5 16.5t-31 44t-11.5 63.5t-2 73z M721 1708q39 -39 76 -58.5t65 -29.5q35 -10 64 -12q0 37 12 88t12 97t-24.5 78t-100.5 32q0 -37 -16 -58.5t-35.5 -40t-36 -39t-16.5 -57.5z" />
<glyph unicode="&#xd7;" horiz-adv-x="1120" d="M52 1187q5 54 59 107q41 -80 98 -142t117.5 -113.5t117 -93.5t97.5 -81q53 27 92 69t73 87l65 86q32 41 74 68.5t98 33.5t136 -20q-53 -55 -113.5 -108.5t-113.5 -107.5t-95 -108.5t-59.5 -108t-6.5 -106.5t67 -106q0 -29 15 -47.5t35.5 -34t42 -28.5t33 -28.5t9.5 -34 t-29 -44.5q-55 -27 -92 -21t-64.5 29.5t-47.5 59.5l-36 69q-17 33 -37 56.5t-46 23.5l-81 -80q-40 -39 -80 -70t-81 -49t-80 -18q-29 31 -41 53q-10 20 -5 36.5t46 16.5q0 41 18.5 80t48 69.5t68.5 49t80 18.5q-27 53 -77 108l-103 107l-102.5 107.5t-77 108t-22.5 107.5z " />
<glyph unicode="&#xd8;" horiz-adv-x="1468" d="M61 -299q113 113 141.5 209t13.5 183t-54 171t-62.5 171t-11.5 183.5t100 208.5q0 84 18.5 152t58.5 121t101.5 97t145.5 81q131 0 241.5 58.5t207 145.5t183.5 187t173 184v-124q0 -37 -21.5 -78t-54.5 -83t-73 -83l-78 -80q39 -47 94 -92t106 -97.5t87 -115t36 -146.5 q0 -133 -56.5 -257t-149.5 -229.5t-214 -187t-252 -128.5q-57 -33 -113.5 -46.5t-109.5 -23.5t-102 -22.5t-91 -41t-77 -80t-60 -139.5v-98h-127zM247 523q3 -124 40 -247l454 1002q-39 0 -61.5 -37t-44 -88t-49 -106.5t-74.5 -92.5q-39 0 -58.5 35t-29.5 76q-10 49 -12 113 q-47 -84 -86 -189.5t-60.5 -223.5t-18.5 -242zM412 276q86 -47 149.5 -51t115.5 17.5t96 59.5l89 75q86 45 167 111.5t145.5 150.5t103.5 187.5t39 226.5q-47 47 -90 86t-86 60.5t-87 18t-91 -39.5z" />
<glyph unicode="&#xd9;" horiz-adv-x="1409" d="M58.5 1108q-11.5 139 23.5 278q37 0 57.5 -14t38 -30.5t36.5 -31t54 -14.5q-35 -139 -47 -291.5t14.5 -301t100.5 -283.5t213 -240q70 -35 137.5 -36t119.5 26t84 77t32 120q-37 104 -43.5 223t-6.5 240.5t-5 240.5t-42 225l97 185l186 -185q0 -94 -11.5 -206.5 t-19.5 -230.5t-4 -235.5t35 -221t95.5 -184.5t180.5 -128q-35 -37 -84 -26.5t-101 36t-101 53t-86 27.5l-56 -54q-20 -19 -46.5 -36.5t-65.5 -38.5l-109 -57q-70 -35 -152.5 -20.5t-161.5 58.5t-144.5 109.5t-98.5 134.5q0 139 -27 278l-55 276q-26 139 -37.5 278zM233 1968 q76 -10 149 -55t146 -104l152 -119q78 -61 166 -107l-84 -29q-66 -23 -132.5 6t-130 81.5t-123.5 118.5l-114 122z" />
<glyph unicode="&#xda;" horiz-adv-x="1234" d="M52 1161q5 139 52 291l29 -328q14 -160 48 -315.5t100.5 -308t189.5 -303.5q70 -31 118 -21t79.5 48t48 97.5t25 128t9.5 140.5t1 133q20 70 19 132.5t-11 118.5t-23.5 111.5t-20.5 112.5t-1 119.5t37 134.5q41 0 57 -29.5t20.5 -76t3 -101.5t3 -104t20.5 -87t57 -48 q0 -106 21.5 -223t60.5 -227t91.5 -204t113.5 -155l-39 -123q-47 0 -91 36.5t-79 84.5q-41 53 -78 120q0 -90 -65.5 -176t-216.5 -145q-59 -31 -126 -18.5t-131.5 57.5t-124 118.5t-104.5 163.5q-16 154 -41.5 293.5t-41 276.5t-10.5 276zM186 1511q-16 76 10.5 137.5 t77 112.5t114.5 93l123 81q58 39 100 76t51 78q31 -6 59.5 -11t50 -13.5t32.5 -18.5t9 -25q-23 -121 -95.5 -191.5t-166.5 -119.5t-192.5 -92.5t-172.5 -106.5z" />
<glyph unicode="&#xdb;" horiz-adv-x="1583" d="M27 1591q0 147 73.5 279.5t218.5 206.5h99q-37 -74 -75 -159t-84 -157.5t-102 -121t-130 -48.5zM150 876.5q0 278.5 71 573.5h98q0 -98 -12 -210l-23.5 -228.5t-12.5 -233t20.5 -225.5t74 -204t150.5 -169q49 -25 97.5 -19.5t94.5 30t89 62.5t80.5 79l69.5 79t57 62 q49 98 62 195.5t7 196t-20.5 195.5t-19.5 195.5t7.5 195.5t61.5 196q72 -25 107.5 -72t50 -109.5t12.5 -137.5l-4 -153q-2 -79 2 -158t28 -153q0 -111 34 -204t88.5 -175t124.5 -156l145 -149q0 -25 7 -27.5t17 6.5t21.5 22.5t21.5 21.5t17.5 5t7.5 -28q37 -37 42 -71.5 t-5 -63.5q-10 -33 -37 -61q-98 0 -166 29.5t-117 75.5t-84 102l-66 111q-32 54 -67 100.5t-82 70.5q-37 -72 -92 -158t-128 -159.5t-165 -122.5t-203 -49q-74 0 -143.5 33.5t-124.5 89t-89 125t-34 143.5q-71 223 -71 501.5zM899 2166q-29 93 8 204q37 -72 88 -145l107 -146 l107 -147q52 -73 89 -144v-98q-74 72 -157.5 145.5t-148 155.5t-93.5 175z" />
<glyph unicode="&#xdc;" horiz-adv-x="1472" d="M139 692q0 182 58.5 365.5t173.5 335.5q0 -102 -14 -211l-27 -218q-14 -110 -22.5 -219.5t3 -211t47 -194.5t111.5 -169q78 0 153.5 35t142 92t122 130t92.5 148q51 76 66.5 174.5t12.5 201t-11.5 200.5t-3 175t36 124t108.5 47q37 -39 41 -111.5t-5.5 -158.5 t-22.5 -177.5t-13 -166.5q51 -78 65.5 -175.5t16.5 -198.5t5 -198.5t31.5 -174.5t94 -123t192.5 -46q-39 -76 -76.5 -101.5t-76.5 -26.5t-77 11.5t-77 12.5q-37 39 -72.5 95t-65.5 122.5t-47.5 141.5t-17.5 151q-76 -115 -153.5 -206t-163.5 -139t-183.5 -43t-211.5 81 q-115 115 -173.5 279.5t-58.5 346.5zM371 1677q0 37 31.5 70t69.5 43t69.5 -13.5t31.5 -99.5v-104q-39 0 -61.5 2t-41.5 11t-41 31zM881 1573q-154 154 0 307q76 0 102.5 -17.5t35.5 -47t17 -65.5t47 -73q-39 0 -61.5 -16t-41.5 -35.5t-40.5 -36t-58.5 -16.5z" />
<glyph unicode="&#xdd;" horiz-adv-x="921" d="M37 1442q55 -55 111 -124l119 -144l132 -158q70 -82 152 -164q29 82 47 174t46 175t74 147.5t128 93.5q37 -37 40 -69t-13.5 -60.5t-45.5 -56.5l-57 -56q-29 -29 -50.5 -60.5t-21.5 -68.5v-297q-27 -111 -43 -220.5t-29.5 -212.5t-29.5 -198.5t-45 -177.5q-29 0 -43 10.5 t-21 24.5q-8 16 -8 37l72 665l-173 166q-91 84 -167 175.5t-125 189.5t-49 209zM127 1608q84 55 156.5 131t149.5 145.5t164 117.5t198 48v-76q-84 -27 -167 -80t-159 -121.5t-143.5 -149.5t-122.5 -163q-23 23 -39 45q-14 20 -25.5 47t-11.5 56z" />
<glyph unicode="&#xde;" horiz-adv-x="913" d="M53 740q0 165 8.5 333t8.5 326q0 27 12 61.5t31.5 61t45 36t52.5 -17.5q-27 -53 -19.5 -106.5t19.5 -105.5t19.5 -105.5t-19.5 -104.5q53 27 117.5 50.5t137.5 37t150.5 11t157.5 -28.5q27 -27 50.5 -64t36.5 -76.5t11 -76.5t-28 -64q-18 -123 -86 -194.5t-154 -116.5 t-173 -77t-144.5 -77t-66.5 -115.5t61 -193.5q0 -27 -1 -62.5t-7.5 -68.5t-20.5 -56.5t-41 -23.5t-41 1t-20.5 7.5t-7.5 20.5t-1 41q-29 27 -30.5 52.5t4.5 45.5q8 23 26 43q-53 131 -70.5 286.5t-17.5 320.5zM211 555q80 27 156.5 65.5t142 92t116 119t76.5 145.5 q-53 53 -115.5 59t-129 -7t-130 -32.5t-116.5 -19.5v-422z" />
<glyph unicode="&#xdf;" horiz-adv-x="1363" d="M110.5 74q-4.5 256 4 516t19.5 516t11 500q92 61 207 78.5t229.5 -6t215 -83t161.5 -149.5q20 -82 4 -144.5t-53 -114.5t-85 -97.5t-91 -90.5t-72.5 -94t-29.5 -110q41 -41 99 -53.5t124 -14.5l134 -4q69 -2 127.5 -24.5t103.5 -75t65 -152.5q-20 -102 -72.5 -185 t-124 -150.5t-159.5 -123t-181.5 -102.5l-185.5 -89t-172 -83q-31 0 -47 13t-24.5 37t-9.5 52.5t-1 59.5q121 61 241 111t226.5 111.5t195.5 143.5t150 205l-82 78q-92 0 -181 1t-173 9t-158.5 24.5t-136.5 47.5q0 82 24.5 151.5t62.5 132t85 123.5l92 124q45 62 83 132 t59 152q-61 0 -135 22.5t-150 38t-148.5 7t-134.5 -67.5v-1790q-2 -23 -10 -41q-8 -16 -24.5 -28.5t-47.5 -12.5q-30 244 -34.5 500z" />
<glyph unicode="&#xe0;" horiz-adv-x="1619" d="M30 281.5q-7 66.5 17.5 134t67.5 134t78 132.5q33 66 96 129t138 112.5t153.5 79t144.5 29.5q43 -23 112.5 -27t142.5 -6t141.5 -11t112.5 -39.5t53 -93t-36 -173.5q33 -100 110 -197.5t169 -180.5t185 -147.5t159 -97.5q-35 -66 -67.5 -74t-65.5 8.5t-67 41t-66 24.5 q-66 33 -117 81t-93 97.5t-78 96.5t-69 82l-133 -131q-68 -66 -141.5 -124.5t-157.5 -106.5t-184 -81q-133 0 -265 54.5t-268 122.5q-65 65 -72 131.5zM193 240q133 -68 266 -79t266 -11q66 33 116 82t91 107t75 123l68 130q23 88 -1.5 153.5t-79 106.5t-128 58.5t-149.5 8 t-145.5 -45t-112.5 -101.5q-266 -272 -266 -532zM283 1741v180q43 -90 107.5 -138t140 -74t159.5 -34t168 -18t163 -28.5t144 -63.5q-199 -68 -386 -68t-320 68z" />
<glyph unicode="&#xe1;" horiz-adv-x="1777" d="M44 396q13 85 52 158t96.5 135.5t121.5 117.5l129 106q65 51 114 101q115 0 227.5 9t217 -9.5t196.5 -85t168 -217.5q-39 -113 -9.5 -193t96.5 -145.5t154 -128t162 -138.5q37 39 57.5 44.5t40 -5t42 -25t61.5 -14.5q0 -39 -16.5 -59t-36.5 -31q-23 -10 -51 -12 q-299 0 -604 305l-226 -146q-113 -71 -226.5 -119t-227 -62.5t-226.5 22.5q-37 0 -74.5 17.5t-75.5 47t-75 66.5l-74 76q-26 100 -13 185zM258 309l76 -72q39 -36 86 -66t105.5 -47.5t133.5 -17.5l108 54q56 27 109.5 57.5t98.5 67.5t72.5 85t33.5 107.5t-20 134.5 q27 76 21.5 120t-31 66.5t-64.5 27.5t-81 3t-82 -8t-66 -6q-76 0 -163 -37t-162 -102.5t-125 -159.5t-50 -207zM557 1417q76 76 152.5 181.5t161.5 209t181.5 190.5t209.5 126l104 -103q0 -37 -33 -58t-81 -41l-100 -42q-52 -23 -91 -61q-37 -37 -76 -105.5t-86 -143.5 t-105.5 -144.5t-134.5 -106.5z" />
<glyph unicode="&#xe2;" horiz-adv-x="1622" d="M33 236q0 133 46 248.5t129 214t195.5 179t245.5 146.5q98 0 167 -29.5t118 -79t84 -112t65 -127.5q-31 -66 -4 -144.5t84.5 -152.5t132 -135.5t140.5 -91.5q33 -33 79 -27t86.5 14t69.5 -2t29 -74q-35 -35 -81 -51t-96 -16t-97.5 16.5t-79.5 50.5q-66 33 -117 79 t-100.5 95.5t-101.5 96.5t-116 80l-135 -132q-68 -65 -141.5 -122.5t-157.5 -105.5t-182 -81q-35 33 -80 54.5t-85 46t-68.5 60.5t-28.5 102zM98.5 1371q10.5 48 43 105.5t75.5 123t78 131.5l264 262q23 -88 82 -143.5t130 -94.5t140.5 -69.5t110.5 -69.5t42 -95.5 t-65 -144.5q-33 68 -93 107t-125.5 71.5t-127 71.5t-94.5 105q-98 -35 -167.5 -95.5t-119 -126t-84 -126t-65.5 -91.5q-35 31 -24.5 79zM196.5 371q-8.5 -49 12 -101.5t86.5 -117.5q133 0 219 58t143.5 148.5t94.5 197.5l69 206q-43 45 -92 55t-100 -2t-101.5 -41 t-94.5 -62.5t-80 -67.5l-58 -54l-63 -118q-27 -52 -35.5 -101z" />
<glyph unicode="&#xe3;" horiz-adv-x="1486" d="M20 223q0 133 47.5 252t132.5 220.5t200.5 186.5t250.5 152q100 0 170 -30.5t121 -82t87 -116.5l71 -133q-23 -45 -18 -96.5t30 -103.5t66 -103.5t88 -96.5t98 -80.5t96 -58.5q23 -23 51.5 -25t58 3.5t58.5 11.5t51.5 4t36 -19.5t13.5 -62.5q-33 -35 -80 -51.5 t-98.5 -16.5t-98.5 16.5t-80 51.5q-70 33 -124 80t-104 97t-103.5 97.5t-120.5 81.5l-137 -133q-69 -66 -144.5 -124t-161.5 -107t-188 -82q-35 33 -81 54.5t-87 47t-71 62t-30 104.5zM87 1382.5q11 49.5 45 108.5t78 125.5t79 136.5l272 268q23 -90 83.5 -146t133 -96 t143 -72t112.5 -72t43 -97t-66 -147q-35 68 -96.5 106.5t-128 72.5t-129 73.5t-95.5 109.5q-102 -35 -173 -96.5t-122 -130t-87 -131t-68 -95.5q-35 33 -24 82.5zM188.5 356.5q-8.5 -51.5 12 -103.5t88.5 -120q135 0 224 60.5t148.5 152.5t96.5 204l71 214 q-68 68 -147.5 60.5t-156 -50.5t-140 -101.5t-96.5 -92.5l-64 -120q-28 -52 -36.5 -103.5z" />
<glyph unicode="&#xe4;" horiz-adv-x="1931" d="M254 199q0 160 58.5 304t155.5 273t220 241.5t252 209.5q31 0 88 -3t113.5 -18.5t98.5 -50.5t42 -98q-31 -66 -45 -116t-7 -99t41 -100.5t97 -116.5q20 -43 61 -73t91.5 -53.5t105.5 -44t105.5 -44t91.5 -53t61 -70.5q-96 -33 -180 -22t-165 51t-164 101l-177 124 q-31 -96 -92.5 -176t-142 -144.5t-175 -113t-192.5 -78.5q-63 0 -113.5 14t-90.5 37.5t-73.5 54.5t-64.5 64zM459 356.5q10 -71.5 53 -157.5q31 -33 77 -22t94 44t94 76l79 74q86 43 131 92t64.5 103.5t17.5 113.5t-12 122l-22 127q-11 65 -11 128q-31 0 -62.5 -13.5 t-63.5 -29t-63.5 -28.5t-64.5 -13q-43 -66 -91 -125l-91 -117q-43 -57 -77 -115.5t-48 -123t-4 -136zM525 1553.5q38 93.5 134 185.5q45 0 82 -1t72 -7.5t72 -18.5t84 -35q23 -23 36 -46l25 -46l26 -46q13 -24 36 -48q186 0 186 186q0 23 10 25t27.5 -9.5t40.5 -32.5l45 -44 q0 -47 -21.5 -83t-55.5 -65.5t-78 -54l-89 -47.5q-61 -16 -105 9.5t-78 66.5t-64.5 87t-65.5 72.5t-79 20.5t-106 -68q-25 -25 -37 -56l-26 -61q-12 -30 -25.5 -50.5t-38.5 -20.5q-45 94 -7 187.5z" />
<glyph unicode="&#xe5;" horiz-adv-x="1630" d="M61.5 258.5q-6.5 65.5 7 134t42.5 125.5q27 88 82 161t127.5 131t157.5 101t173 74q117 29 194 10.5t128 -66.5t84 -119t61.5 -146.5t61 -150.5t84 -130t127 -84t192.5 -14q-29 -29 -72 -54.5t-93 -33t-107.5 11t-114.5 76.5l-156 155l-115 -126q-58 -67 -121 -130 t-130.5 -113.5t-143 -73t-161.5 -12t-185 67.5q-57 29 -86.5 84.5t-36 121zM111 1217q0 31 14 70.5t43 75.5t73 61.5t103 25.5q27 -57 18.5 -102t-31 -82t-45 -68t-22.5 -59q-31 -29 -48 -31t-31.5 12.5t-30.5 41t-43 55.5zM184 285q0 -57 28 -99.5t72 -64t99 -20.5t113 30 q88 29 172 84t149.5 128t105.5 158t40 173q0 86 -39 121.5t-97.5 43t-125 -1t-123.5 -8.5q-88 -29 -148.5 -85t-105.5 -128.5t-77 -157.5zM696 1276q4 -29 33 -59q31 0 58.5 1t49 9t35 23.5t13.5 45.5q0 27 -13.5 54.5t-35 50t-49 36t-58.5 13.5q0 -31 -11 -59.5t-18.5 -57 t-3.5 -57.5z" />
<glyph unicode="&#xe6;" horiz-adv-x="2326" d="M90 276q12 68 56 142t99.5 143.5t113 124.5t98.5 86l119 -20.5t95 -7.5t82 13.5t78 41.5q12 68 -25.5 126t-107 104t-164 80t-194.5 52q-6 -33 -23.5 -49t-37 -30.5t-37 -32t-23.5 -50.5q-29 39 -43 62.5t-19 42t-4 38t7 52.5q74 20 160 36.5t174 18.5t167.5 -15 t141.5 -63q55 -78 113 -144l116 -138q57 -72 112.5 -156t106.5 -198q39 86 109 190t159 199.5t189 168t199.5 96t191.5 -15t162 -165.5l-12 -70q-6 -35 -14.5 -76t-16.5 -93t-20 -120l-149 -44q-75 -22 -157 -42t-174 -39.5t-198 -36.5l-72 109q106 16 194.5 22.5t160 19.5 t128 43t103.5 91q6 33 24.5 63.5t32.5 63.5t15 66.5t-25 74.5q-141 -10 -257 -70.5t-210 -148.5t-166 -192.5t-123 -200.5q-6 -35 17.5 -72t61.5 -69.5t81 -56t78 -29.5q68 -12 151.5 -13.5t168.5 -7.5t165 -25.5t141 -64.5q-78 -55 -165 -64.5t-181 -1l-195.5 18.5 t-207.5 -6q-29 41 -70 83l-86 85l-88 85q-43 42 -72 83q-39 -29 -69.5 0.5t-64.5 80t-78 99.5t-111 61q-68 12 -137.5 5t-136 -38.5t-129 -92t-113.5 -154.5q23 -74 81 -105.5t126.5 -36t136 14t106.5 47.5l63 42q24 15 42 20.5t37.5 3t54.5 -8.5q33 -6 34 -19t-10 -30 q-12 -18 -41 -39q-86 -90 -165.5 -144t-161.5 -74.5t-168 -6.5t-180 65q-35 6 -65 28t-50.5 51.5t-30.5 64t-4 69.5z" />
<glyph unicode="&#xe7;" horiz-adv-x="1181" d="M37 223q0 88 13 164t36 142.5t51 126.5l60 120q88 57 189 112.5t212 92.5t227.5 48t235.5 -17v-82q0 -57 -13.5 -64.5t-36 7t-51 36t-57.5 21.5q-238 0 -414 -105.5t-292 -285.5q-31 -59 -32 -116.5t20.5 -110t64.5 -95.5t100 -72q119 -31 211 -20.5t173 39.5t159 67.5 t168 67.5h80q-59 -57 -131 -91t-145.5 -63.5t-145.5 -64.5t-131 -94q59 0 115.5 -2t101.5 -17.5t71.5 -47.5t26.5 -91q29 -57 42 -102t6 -82t-38.5 -69t-91.5 -60q-29 0 -56.5 13t-49 35.5t-34.5 51.5t-13 59l153 78l-76 76l-237 -236q-59 31 -66.5 74t7 94.5t37 108.5 t22.5 117q-59 31 -117.5 49t-117 40.5t-118 55.5t-118.5 92z" />
<glyph unicode="&#xe8;" horiz-adv-x="1239" d="M82 453q0 -78 29 -158q59 -158 223 -266q27 -29 76 -43.5t114 -14.5q66 0 131.5 14.5t118.5 41.5h4l2 2q16 18 48 31.5t69 25.5q63 20 131 56t102 110l13 22h-27q-76 0 -152.5 -28.5t-150.5 -63.5l-136 -56q-69 -28 -136 -32q-143 -14 -262 107q-18 16 -48 60t-30 104 q0 80 71 155q80 0 170 -11t183 -26l183 -23q91 -11 169 -11h4l4 2q63 33 107.5 82t60.5 106q10 41 10 70q0 59 -30 118q-4 113 -99 170q-59 33 -138 42.5t-160 2t-151.5 -26t-109.5 -40.5q-84 -27 -150.5 -66t-114.5 -86t-74.5 -100t-26.5 -109q-27 -79 -27 -161zM295 629 q29 47 63.5 89t71.5 75q98 82 191 81q18 0 37.5 1.5t41.5 3.5q35 2 72 3t71 -2t61.5 -12.5t43.5 -29.5q23 -25 23 -76q0 -16 -2 -34.5t-8 -39.5l-3 -8l7 -8q6 -2 8 -8h-6q-16 0 -34 -2.5t-32 -14.5q-8 -8 -10 -18h-596zM481 1249q80 51 150 105l143 106l156 108 q82 54 186 107l-565 -567l-41 42q-14 15 -20.5 28.5t-7.5 28.5t-1 42z" />
<glyph unicode="&#xe9;" horiz-adv-x="1079" d="M63.5 254q10.5 70 40 135.5t52.5 110.5q51 104 107 188t116 150q147 160 317 206h4h2q53 0 106.5 -12t96.5 -35q111 -55 115 -149q10 -41 10 -72q0 -74 -49 -123q-29 -33 -74 -55.5t-96 -44.5q-39 -16 -78 -34.5t-76 -43.5q-29 -20 -61.5 -27.5t-65 -7.5t-66.5 6l-65 13 q-53 10 -95 15t-71 -17q-39 -33 -38 -144q0 -43 1 -75.5t11 -57.5q10 -23 31.5 -43t58.5 -39q279 0 639 115l16 6l9 -16q20 -43 8 -78q-12 -31 -45 -48.5t-68 -31.5l-44 -18.5t-34 -20.5l-6 -6h-8q-43 0 -89 -4l-95 -8q-106 -10 -213 -15.5t-199 29.5h-4l-2 2 q-72 47 -90.5 113.5t-8 136.5zM385 631h197q23 10 45 17t45 16q37 10 71.5 23t61.5 34q55 43 57 117q-37 35 -83 41t-128 6q-78 -41 -148.5 -108.5t-117.5 -145.5zM479 1481q12 35 60 35h69l320 -324l-27 -12q-35 -16 -67.5 -12.5t-64.5 19t-63 40.5l-63 49l-57 47 q-29 23 -58 37l-2 2l-2 2q-31 29 -43 60.5t-2 56.5z" />
<glyph unicode="&#xea;" horiz-adv-x="1536" d="M190.5 517q12.5 97 58.5 177t125 152t183 151q27 53 77 91t116.5 51.5t143.5 -3t157 -69.5q27 -27 63.5 -53.5t76.5 -51.5l78 -53q38 -27 64 -53q-133 -53 -254 -115.5t-239.5 -116t-239.5 -89t-254 -35.5q0 -27 -11 -53.5t-23.5 -60.5t-24 -75t-11.5 -94 q51 -27 104.5 -41t107 -20t106.5 -7.5t106 -1.5q78 27 146 74l134 93q67 46 134.5 81t147.5 35q-80 -106 -182.5 -195.5t-221.5 -147.5t-249 -81.5t-263 2.5l-52 54q-26 28 -45.5 61t-31.5 73t-12 93q-27 131 -14.5 228zM297 1159q4 41 31 81l57 83q31 43 31 96 q53 51 95 104l82 98q40 46 81 85t94 66q0 -53 13.5 -117t39 -123t65.5 -108.5t93 -75.5q27 0 52.5 10t45 16t31.5 3t12 -29q27 -29 20 -43.5t-28 -20.5q-23 -8 -61 -8q-106 0 -202.5 53t-148.5 160q-53 -18 -90 -51t-64.5 -74t-48.5 -86l-43 -86q-22 -41 -47.5 -75 t-60.5 -50q-53 51 -49 92zM416 641q80 0 158.5 23.5t158.5 57.5l159 70.5t159 63.5v70q-27 27 -54.5 41t-60.5 21t-74 8t-94 1t-104.5 -25.5t-97.5 -71.5t-84.5 -112.5t-65.5 -146.5z" />
<glyph unicode="&#xeb;" horiz-adv-x="1003" d="M49 334q0 -41 6 -80q2 -45 54.5 -109.5t117.5 -132.5l17 -14l4 -2q125 -31 260 -2q59 12 114.5 32.5t108.5 43.5q33 14 62.5 25l60.5 22l4 2l4 4q49 49 74 78.5t14 52.5q-10 23 -43 22h-4q-96 -51 -174 -88l-64 -32l-58 -29q-26 -12 -41 -20.5t-17 -8.5q-45 0 -96.5 2 t-97.5 12.5t-84 32t-58 60.5q-37 74 -37 155q0 47 12 84q20 61 72 86q2 0 27.5 3.5t67.5 7.5l96 9q53 5 108 11l295 29l2 2q41 20 54.5 47t13.5 55q0 16 -2 30.5t-7 29.5q-2 14 -4 25.5t-2 21.5q0 20 13 33l6 6v8q0 92 -107 151q-41 25 -84 37.5t-67 12.5h-6l-5 -2 q-111 -68 -227.5 -148t-208.5 -178q-100 -106 -141 -213q-33 -84 -33 -174zM340 1269.5q6 22.5 24 44.5l34 44q17 23 18 45q45 0 52 -7t7 -53q20 -23 22.5 -45t-8 -43.5t-31 -44l-42.5 -45.5q-18 0 -31 9q-10 6 -19.5 17t-9.5 34q-22 22 -16 44.5zM389 700q10 10 22.5 20.5 t24.5 22.5l82 72q43 37 86 55q90 39 164 -30v-92q-10 -2 -56 -7.5t-104.5 -13.5l-119 -15.5t-99.5 -11.5zM637 1201q-6 -32 18 -54q43 0 68 19.5t42 47t30.5 58.5t35.5 53l-35 35q-13 12 -23.5 17t-24 6t-35.5 1q0 -23 -18 -54l-35 -64q-17 -33 -23 -65z" />
<glyph unicode="&#xec;" horiz-adv-x="948" d="M76 987q23 66 55.5 89.5t74.5 21.5t90 -20.5t99 -34t104.5 -19.5t104.5 23q49 18 93 9t77 -38t50.5 -72t13.5 -92l-76 -862q-16 0 -28 -6l-23 -14q-12 -7 -26.5 -10t-37.5 3q-33 70 -23.5 145.5t30 153.5t38 158t0.5 158q-6 53 -4 122.5t-10 129t-51 94.5t-127 18z M244 1825q6 45 51 86q33 -72 79 -143.5t102 -141.5t122 -132t137 -112q0 -37 -17.5 -41t-42 4.5t-51 19.5t-46.5 7l-85 78q-48 43 -94.5 89t-84.5 95t-57 97.5t-13 93.5z" />
<glyph unicode="&#xed;" horiz-adv-x="960" d="M61 1032q45 2 119 18.5t157 33t170 30.5t161.5 15t129 -17t72 -64.5t-8 -128t-111.5 -206.5q-6 -111 -5 -214l5 -204q2 -100 -3.5 -200.5t-25.5 -207.5q-45 0 -77 13.5t-54 46.5l28 1030q-41 14 -88 11t-98 -12l-103.5 -17.5t-100.5 -7.5t-91 18.5t-76 62.5z M319.5 1414.5q2.5 15.5 6.5 30.5t0 25l129 131l124 124q62 60 129.5 111.5t145.5 90.5q-29 -76 -84 -147.5t-122.5 -140t-144.5 -135.5l-149 -132q-25 4 -31 15.5t-3.5 27z" />
<glyph unicode="&#xee;" horiz-adv-x="907" d="M77 1464.5q11 55.5 45 110.5t81 109.5l86 103.5q57 -23 104 -74t92 -110.5t93.5 -114.5t107.5 -86q-10 -33 -34.5 -44t-54.5 -8t-57.5 15t-43.5 25l-179 180l-219 -213q-32 51 -21 106.5zM131 911v86q82 -23 162 -12.5t162 31.5l165 40q83 19 173 13q33 -121 25.5 -260 t-20 -282.5t-16.5 -282t35 -256.5l-102 -109q-66 61 -79 148.5t-2 186.5t31.5 202.5t20.5 195.5l-27 265z" />
<glyph unicode="&#xef;" horiz-adv-x="985" d="M86 1006q76 43 165 62t183 29.5t188.5 16.5t182.5 23l57 -166q-23 -152 -58.5 -301.5t-77.5 -296.5l-83 -294q-41 -146 -74 -296q-23 0 -38 7t-25 19.5l-19.5 25.5t-21.5 26q78 266 137.5 550.5t124.5 559.5q-82 33 -166 30.5t-165 -12.5t-159.5 -13t-150.5 30z M122 1557.5q-5 33.5 2 65.5t23 52q66 25 118 0.5t85 -69.5q10 -33 -3 -60.5t-37.5 -48t-55.5 -34t-53 -17.5q-37 16 -55.5 47t-23.5 64.5zM508 1577q0 33 6 67.5t21.5 61.5t41 37t62.5 -6q16 -10 26.5 -23.5t18.5 -28t17.5 -27.5t25.5 -26q0 -41 -16.5 -59.5t-38.5 -38.5 q-23 0 -44.5 -2t-43 1t-41 12t-35.5 32z" />
<glyph unicode="&#xf0;" horiz-adv-x="1474" d="M90 1833v104q39 0 78 -16t79 -35.5t79 -36t77 -16.5q25 0 44.5 22.5t36 54.5t36 65.5t45 57t61.5 28.5t89 -21q0 -39 -33 -61.5t-72 -42t-71.5 -42t-32.5 -61.5l311 -520h-102q0 -98 34.5 -169t91 -124t126.5 -94l137 -80q68 -39 127 -81t95 -95.5t42 -124t-33 -166.5 l-155 -153q-78 -75 -156 -133t-155.5 -94t-153.5 -36q-78 -39 -138.5 -25.5t-108.5 52.5t-89 91t-80 91q-39 78 -57.5 170t-8 179t51.5 160t118 112q25 51 65 80.5t80 47t74.5 29t49 28.5t2.5 46t-64 82q0 39 -16 59.5t-37 30.5q-23 10 -51 12q0 39 18.5 60.5t47 31 t66.5 11.5t77 2l-312 311q-39 -39 -76.5 -95t-66.5 -125t-47 -144.5t-18 -153.5q-51 51 -50.5 117.5t23 139.5t52.5 145.5t36 136t-28 112.5t-138 76zM362.5 490.5q2.5 -97.5 40.5 -214.5q0 -39 19.5 -76.5t58.5 -66.5t97.5 -47t136.5 -18q76 0 152.5 33.5t144 82.5 t125.5 103l96 92q0 102 -32 174t-84 121t-118.5 79.5t-135 54t-135 43t-118.5 46.5q-78 -39 -134 -97.5t-86 -135t-27.5 -174z" />
<glyph unicode="&#xf1;" horiz-adv-x="1366" d="M56 1300.5q1 30.5 11.5 62.5t10.5 64q123 123 247 172.5t246 -10.5q63 -31 111.5 -73.5t86.5 -81.5t70.5 -66t63.5 -27q61 20 93 77t47.5 120.5t24.5 123.5t24.5 89t47 14.5t93.5 -96.5l-82 -328q-61 0 -110.5 -25.5t-95.5 -56t-95 -56t-111 -25.5q-31 31 -78 84 t-109.5 100t-140 70.5t-169.5 -5.5q-31 -33 -37 -75.5t-6 -81.5t-5.5 -65.5t-35.5 -26.5q-61 31 -82 61.5t-20 61zM76.5 483q-15.5 131 2 266.5t79.5 258.5q41 0 57 -18.5t16 -47.5t-11 -65.5t-25.5 -73.5t-25.5 -70t-11 -53q61 20 125 59l128 82l131 86q67 43 138.5 72 t147 39t157.5 -10q92 -90 155.5 -196.5t102.5 -223.5t56.5 -239t17.5 -245q0 -33 -13.5 -37t-29.5 5q-18 8 -41 32q-31 123 -51.5 230.5t-51 200t-83 170t-144.5 139.5q-92 31 -158.5 21.5t-121 -40t-104.5 -71.5t-111 -74q-31 -61 -60 -136t-44 -152t-13 -151.5t33 -136.5 q31 0 47 -13t16 -29.5t-16.5 -30t-46.5 -13.5q-2 -23 -11 -30q-8 -8 -24.5 -5t-46.5 35q-61 92 -105.5 213t-60 252z" />
<glyph unicode="&#xf2;" horiz-adv-x="1107" d="M45 344q-6 74 6 154t39 159q0 82 36 139.5t90 103.5t116.5 90t116.5 97q53 -53 116.5 -85.5t128.5 -56.5l129 -45q63 -22 116.5 -51.5t93.5 -74.5t59 -117q0 -106 -27 -210.5t-80 -191.5t-134 -150.5t-189 -90.5q-53 -27 -118 -28.5t-131.5 11.5t-132 36.5t-120.5 50.5 q-53 53 -81 119.5t-34 140.5zM90 1587v72q82 -27 172 -67t177 -94t164 -120.5t130 -148.5h-71q-80 27 -149 77l-135 103q-67 53 -136.5 102t-151.5 76zM160 299q27 -53 89 -93t136 -59.5t148.5 -18.5t128.5 28q82 27 138 67.5t96 94t68.5 121t55.5 147.5q-18 53 -57 90 t-90.5 64.5t-110.5 49.5l-118 44q-58 23 -109.5 48t-85.5 62l71 -70h-71q-20 18 -37 27q-14 6 -24.5 3t-10.5 -30q-111 -111 -164 -262t-53 -313z" />
<glyph unicode="&#xf3;" horiz-adv-x="1292" d="M49 485.5q8 69.5 35 136t62.5 135t64.5 148.5q80 53 170 82t176 36t163 -5t130 -37q55 -29 117.5 -56.5t116 -61.5t88 -74.5t34.5 -96.5q27 -78 29 -146.5t-18.5 -136t-59.5 -137t-92 -149.5q-53 -55 -141 -83t-188.5 -35t-202 6.5t-181.5 41.5q-53 0 -103 24.5t-90 64.5 t-64.5 90.5t-24.5 103.5q-29 80 -21 149.5zM164 346q6 -47 33.5 -86t81.5 -65q80 -27 171 -40.5t178 -13.5t163.5 13.5t130.5 40.5q109 106 162 214.5t53 213.5q-53 106 -130 154t-164 67.5t-178.5 28t-172.5 32.5v-139q-51 -55 -95.5 -55t-44.5 55q-55 -55 -98 -108.5 t-43 -106.5q-29 -53 -41 -105.5t-6 -99.5zM211 1264q80 55 161 128.5t167 141.5t180 114t203 46q0 -53 -35 -72.5t-81 -33t-95 -34t-76 -73.5q-53 -27 -96 -73t-89.5 -87t-102.5 -61.5t-136 4.5z" />
<glyph unicode="&#xf4;" horiz-adv-x="1232" d="M28 432q3 88 52 191q0 25 12 61.5t31.5 74.5t45.5 74.5t50 61.5q25 0 48.5 -11.5t41.5 -23.5q23 -14 43 -33q100 76 221 133.5t236 69.5t210 -32t148 -171q49 -127 31 -230t-75.5 -192.5t-138.5 -168.5l-157 -156l-152 -47q-75 -23 -144.5 -35t-132 -10t-113.5 26 q-78 51 -137.5 115t-91 139.5t-28.5 163.5zM80 1096q0 76 32.5 151.5t78 146t91.5 133t70 111.5q100 -49 191 -100l173 -101q83 -50 160 -102l152 -102q-102 -25 -181 5t-148.5 80t-136 105.5t-142.5 81.5q-51 -51 -91 -102l-78 -103l-79 -102q-41 -51 -92 -102z M149.5 362.5q12.5 -69.5 49.5 -128t86 -82.5q205 -109 405 0q76 49 149.5 112.5t130 139t91.5 164.5t35 190q-25 51 -61 78.5t-73.5 41t-73.5 15.5t-61 2q-102 -25 -200.5 -42t-180 -43t-142 -69t-85.5 -118q-53 -49 -67.5 -120t-2 -140.5z" />
<glyph unicode="&#xf5;" horiz-adv-x="1376" d="M150 1100q0 74 32.5 135t81.5 116.5t107 105.5l106 97q63 16 124 -4t118 -52l114 -63q56 -32 114.5 -38t118.5 27.5t126 129.5q16 0 31 -8q10 -6 20 -18t10 -35q-23 -25 -58.5 -59.5t-77.5 -71.5t-90 -72t-95 -57q-49 0 -94 18.5t-87 43.5l-82 52q-40 26 -81 40t-85 10 t-93 -37q-25 -25 -50.5 -69t-56.5 -86t-67.5 -73.5t-85.5 -31.5zM160 580q0 -72 2 -135.5t14 -118.5q27 -119 119 -211q27 -51 75 -79t104 -40t114.5 -14t107.5 -2h4l5 2l97 51q52 29 107.5 64.5t109.5 78.5t103 92q221 221 178 445v4l-10 14l-100 140q-51 69 -113 116 q-72 55 -148.5 71.5t-168.5 -3.5q-25 0 -59.5 -2t-72.5 -15.5t-74 -40t-62 -75.5q-88 -6 -189 -119q-37 -43 -75 -99.5t-66 -115.5l-2 -4v-4zM324 328q0 143 49 273t137 222q35 2 70.5 13.5t74.5 25.5q66 25 135.5 41.5t157.5 -12.5q0 -2 19 -21l46 -46l59 -59l60 -58 l47 -47l21 -21q-4 -84 -61 -166q-27 -39 -65 -76t-85 -71q-55 -41 -112.5 -73t-107.5 -55.5t-88 -36.5l-56 -20v-2h-2q-80 -39 -168 25q-37 27 -69.5 69t-61.5 95z" />
<glyph unicode="&#xf6;" horiz-adv-x="1284" d="M55 438q0 195 88 339.5t236 242.5q72 0 134 -1t123.5 -7t124 -19.5t134.5 -38.5q74 -25 124 -59.5t87 -76.5t62 -90l51 -97q25 -96 -5 -171t-90.5 -135.5t-139.5 -110.5l-153 -99q-49 -49 -108 -94.5t-126 -70t-138.5 -20.5t-145.5 54q-96 98 -153.5 203.5t-104.5 250.5z M157 1382.5q-3 14.5 3 26.5t15 25.5t9 38.5q47 49 96.5 40.5t98.5 -104.5q-25 0 -49.5 -10t-49 -22.5t-48 -23t-48.5 -10.5q-24 25 -27 39.5zM184 307q25 -49 61 -94t85 -74.5t109.5 -39t131.5 15.5q74 0 145.5 31.5t138.5 80.5t126 106l109 105q49 98 9 193.5t-138 193.5 q-25 25 -70 37t-100.5 12t-112.5 -12t-107 -37q-25 0 -38 10.5t-25 22.5t-26.5 22.5t-39.5 10.5q-145 -96 -201.5 -242.5t-56.5 -341.5zM545 1392.5q-2 24.5 10 48t35 48.5l47 49q25 0 48.5 -11t40.5 -29.5t28.5 -41t11.5 -47.5t-1 -48.5t-7 -42t-18.5 -29.5t-37.5 -11 q-25 -25 -48 -27t-41.5 10.5t-30 35t-11.5 46.5q-24 25 -26 49.5z" />
<glyph unicode="&#xf7;" horiz-adv-x="1284" d="M72 725v186q141 0 283.5 -11t283.5 -10t283.5 25.5t283.5 96.5v-101q-106 -104 -244.5 -147t-289 -51t-305 2t-295.5 10zM352 1104q0 35 16.5 67.5t43 51t61.5 15.5t70 -40q-2 -27 -13 -47q-10 -18 -28.5 -32.5t-52.5 -14.5h-97zM449 440q0 35 14 68t32.5 51.5t33 15 t14.5 -39.5v-95q-35 -35 -53.5 -40t-28.5 6q-10 9 -12 34z" />
<glyph unicode="&#xf8;" horiz-adv-x="1271" d="M-86 -360l4 8q20 25 56 78t79 124l93 158l104 178q-70 68 -111 136l-2 4v2q-2 10 -2 23v26q0 133 18.5 261t41.5 255q10 47 18 94l16 94v2v2q47 82 101.5 143.5t115.5 98.5q143 94 302 41h2h2q23 -23 44 -47.5l44 -52.5q4 6 9 17t11 22q8 12 14 26l136 248l4 8l205 -65 l-9 -13q-41 -55 -106 -160l-152 -253q39 -76 65.5 -155t43.5 -165q25 -115 24 -229q0 -63 -6 -125v-2q-51 -141 -135 -242q-98 -111 -225 -147q-53 -16 -102.5 -16.5t-95.5 11t-87 31t-74 41.5l-96 -157l-88 -140q-41 -63 -73.5 -108t-53.5 -66l-2 -2l-2 -2l-25 -4 q-25 -6 -50 -9t-50 21zM281 360l32 -47l206 373l247 461q-16 31 -37.5 59.5t-50.5 44.5q-61 35 -150 -8q-143 -86 -188 -250q-23 -74 -26 -154.5t-3 -160.5t-3.5 -162t-26.5 -156zM442 213q72 -31 156 -34t176 26q94 55 127 137t33 180q0 61 -9 126l-20 130q-8 47 -14 91 t-10 87q-4 -8 -12 -19l-13 -22q-8 -12 -14 -26l-201 -344z" />
<glyph unicode="&#xf9;" horiz-adv-x="1431" d="M57.5 456.5q-12.5 108.5 1 215t58.5 200t131 150.5v-76q-29 -86 -42 -194.5t-7 -222t35.5 -222t87.5 -194.5q86 -29 157.5 -19t136 46t123 89.5t115.5 112.5q86 55 119 125t33 147.5t-24 161.5t-52 170q2 20 10 37q8 14 22.5 26.5t43.5 12.5q57 -76 81.5 -172t39 -195.5 t31 -191.5t56 -159.5t113.5 -101.5t207 -16l-72 -73q-86 -29 -157.5 -19t-128 46t-99.5 89.5t-71 112.5q-57 -86 -114.5 -145.5t-122 -102.5t-136.5 -73.5t-156 -57.5q-86 -29 -145.5 -7.5t-102.5 71t-73 114.5l-58 121q-28 86 -40.5 194.5zM170 1548v80q29 0 71 -36l91 -79 q49 -43 104.5 -78.5t112.5 -35.5q29 -27 69.5 -21t83.5 14.5t83 0t69 -65.5q-29 -29 -81 -33t-108.5 3.5t-108.5 18.5t-79 11q-31 27 -70 44l-83 38q-43 20 -84 52t-70 87z" />
<glyph unicode="&#xfa;" horiz-adv-x="1447" d="M86.5 322.5q-63.5 179.5 -0.5 371.5q0 61 3 120.5t18.5 108t50.5 77t98 28.5q0 -63 -25.5 -140l-49 -155t-33 -154.5t23.5 -140.5q31 -31 62 -76l64 -93l62 -93q31 -45 62 -78q94 0 162.5 16.5t124 48.5t107.5 80l116 111q63 63 72.5 152.5t1 184.5t-14.5 184.5t25 152.5 h170q41 -63 47 -144t-1 -167t-16.5 -172t5 -160t62.5 -127t153 -74q33 0 64.5 12.5t63 19.5t63.5 3t65 -35q-33 -63 -79 -84.5t-102.5 -21.5t-119 10t-125.5 10q-47 96 -94.5 133t-96.5 34t-100 -35.5t-107 -75.5l-114 -88q-59 -45 -125 -72t-137.5 -27t-149.5 47 q-192 129 -255.5 308.5zM506 1368q33 94 95.5 198.5t149.5 200t197.5 170t237.5 105.5v-84q0 -33 -30 -65.5t-77 -72.5l-108 -89q-61 -49 -125 -113q-43 0 -73 -36t-53.5 -85t-44 -99t-44 -78t-53 -21.5t-72.5 69.5z" />
<glyph unicode="&#xfb;" horiz-adv-x="1499" d="M70 315q0 86 2 181.5t16 187.5t45 173t86 136l76 -75q-29 -55 -54.5 -136.5t-40 -172.5t-12.5 -186t31 -181q55 -55 112.5 -95.5t114 -54.5t113.5 2.5t113 71.5q84 55 131 124.5t74.5 148.5t46 162t47.5 167q57 18 84.5 3t38 -50t9.5 -84t-3 -97t0 -89t20 -60 q29 -55 59.5 -99t65.5 -79t79 -64.5t99 -56.5q29 -29 31 -44t-12.5 -22.5t-40 -8.5t-53.5 -1q-55 0 -110.5 26t-106 68t-91.5 96t-69 109l-81 -84l-91 -93q-47 -46 -99.5 -85t-106.5 -59.5t-110.5 -17t-113.5 39.5q-55 0 -98.5 26t-79 68t-64.5 96zM219 1221q0 55 38 112.5 t94 120.5l123 135q67 72 122 156q29 0 44 -12.5t22.5 -34t8.5 -48t1 -55.5q18 -37 53 -63.5t75 -46.5l79 -39q39 -18 65.5 -39t35.5 -47.5t-9 -63.5q-55 -29 -111.5 -18.5t-113 45.5t-112.5 88l-112 109l-58 -110q-30 -54 -66 -96t-80 -67.5t-99 -25.5z" />
<glyph unicode="&#xfc;" horiz-adv-x="1413" d="M51 654.5q-8 101.5 12.5 192.5t83.5 154h170q-63 -63 -97 -141t-42 -164t6.5 -180t44.5 -188l128 -126l128 -126q63 0 125 28.5t117 76.5t100 108.5t76 124.5q43 63 42 126.5t-24.5 126t-57.5 125t-57.5 125t-24.5 126t42 126.5q61 0 94 -27.5t48.5 -67.5t18.5 -83t3 -76 q41 -61 72 -135l59 -148l58.5 -144.5t72.5 -123t101.5 -86t144.5 -32.5q0 -33 -1 -52.5t-9 -35t-26 -33.5l-48 -49q-63 0 -112.5 28.5t-89.5 76.5t-72.5 108.5t-63.5 124.5q-63 -63 -114 -138l-96 -137q-46 -63 -96 -106t-114 -43q-96 -31 -175 -19.5t-142.5 51t-110.5 100 t-78 124.5q-33 94 -60.5 200.5t-35.5 208zM194.5 1415q-4.5 45 4 93t19.5 92.5t11 74.5l170 -82q-20 0 -23 -18.5t0 -47t4 -61t-11.5 -61.5t-44 -47.5t-95.5 -18.5q-30 31 -34.5 76zM485 1675q31 33 63 36t63.5 -13.5t63.5 -44.5l64 -60q-2 -25 -10 -43q-8 -16 -25.5 -29.5 t-50.5 -13.5q-31 0 -61.5 14.5t-54 39t-38 54t-14.5 60.5z" />
<glyph unicode="&#xfd;" horiz-adv-x="1157" d="M-90 1110l94 92q68 -135 138.5 -256t147.5 -232.5t164 -216t189 -206.5l367 729h88q0 -35 -15.5 -98.5t-41 -141.5t-58.5 -159.5t-68 -151.5q-68 -66 -79 -133.5t-11 -132.5q33 0 51.5 -16.5t27.5 -43t10 -60.5t1 -69q-4 -27 -12 -34q-10 -10 -26.5 -5t-51.5 39 q-45 -68 -63.5 -143.5t-23.5 -153t-4 -158.5t-4 -159t-23.5 -153.5t-63.5 -143.5q-70 102 -78 233.5t9.5 268.5t43 268t25.5 233q-102 102 -203.5 221t-195.5 247t-179 263.5t-155 272.5zM459 1294q0 137 60.5 258t146.5 232.5t180 216t164 207.5l88 -90l-549 -824h-90z" />
<glyph unicode="&#xfe;" horiz-adv-x="995" d="M54 410.5q3 11.5 30 11.5q70 18 102.5 57t39.5 89t-3 108.5t-25 115.5l-30 106q-14 50 -14 85v559q53 0 78.5 -16.5t36 -43t8 -62.5t-3.5 -74.5t1 -78.5t21 -75q27 27 86 49.5t132 29.5t145.5 -9.5t125.5 -69.5q51 -53 80 -115.5t42.5 -129t15.5 -130t2 -115.5 q-53 -78 -118 -121.5t-136.5 -69.5t-149.5 -44t-155 -45q0 -78 11 -157l23 -157l24 -158q11 -79 11 -157q0 -27 -1 -41t-7 -20t-20.5 -7t-40.5 -1q-35 51 -50.5 118.5t-23.5 137t-14.5 136t-26 120t-58 85t-108.5 31.5q-18 18 -27 35q-6 12 -3 23.5zM292 993q-7 -45 3 -98 t26 -110l29 -113q14 -57 15 -109l278 70q53 0 91 34.5t58.5 87t19.5 114t-28 114.5q0 51 -34.5 90t-88 58.5t-115 18.5t-112.5 -28q-70 -18 -102.5 -51t-39.5 -78z" />
<glyph unicode="&#xff;" horiz-adv-x="1114" d="M-33 1051h80q29 -121 87.5 -238t139 -220.5t183 -189.5t219.5 -143l237 707q0 63 49.5 63t108.5 -63q-59 -88 -103 -189.5t-73 -205t-43 -204t-14 -188.5q-61 -88 -82 -187t-21 -194.5t9.5 -180.5t9.5 -144q-59 18 -88 62t-37 100.5t-2 122t17 128.5l22 120q10 56 10 95 q-588 351 -709 949zM252 1387.5q-2 46.5 20.5 83t66.5 68.5t103 63q0 -31 -1 -75t-9 -95.5t-23.5 -108.5t-46.5 -117q-29 0 -45 1t-23 8.5t-8 23.5t-1 45q-31 57 -33 103.5zM676 1440q0 61 26.5 126.5t63.5 102.5t78 29t69 -96q0 -31 -1 -72t-8 -78t-22.5 -62.5t-43.5 -25.5 q-33 0 -61.5 11t-51.5 26q-26 16 -49 39z" />
<glyph unicode="&#x131;" horiz-adv-x="960" d="M70 1057q23 70 58.5 94.5t80.5 22t96 -21.5t105.5 -35.5t111 -20.5t111.5 22q51 18 99 9t83 -38.5t53.5 -75.5t14.5 -100l-82 -919q-16 0 -28.5 -7t-26 -13.5t-29 -9.5t-39.5 3q-35 74 -24.5 155t32 164t39.5 168t2 167q-6 57 -4 131.5t-11.5 137t-54.5 100.5t-135 20z " />
<glyph unicode="&#x141;" horiz-adv-x="1931" d="M84 604v39q70 0 134.5 12.5t127 33t126.5 46.5l134 56q14 98 23.5 195t19.5 188.5t26.5 174.5t45.5 152q14 -84 21.5 -162.5t10.5 -155.5t4 -156t1 -163l163 56q79 27 159.5 48t165.5 34.5t184 13.5q14 -29 10 -50.5t-18.5 -39t-33 -32.5t-32.5 -30q-84 14 -162 9 t-151.5 -21t-144.5 -43l-140 -55l-57 -281l-56 -280q154 0 302.5 -13.5t296 -38t296 -59.5t301.5 -76v-39q-168 -14 -336 -10t-337 15l-337 23q-168 11 -335 11l-76 111q84 113 122 252t64 309q-139 -55 -261 -79t-261 5z" />
<glyph unicode="&#x142;" horiz-adv-x="2369" d="M106 1327q-10 45 3.5 68.5t40 34t61.5 11.5l70 2q35 1 66.5 6t49.5 24l946 -37q8 -63 -12 -113.5t-57 -93.5t-84 -84t-90 -84t-77 -93t-42 -114q164 53 350.5 99t378.5 46q14 -29 9 -49t-22.5 -37.5t-44 -32t-53.5 -26.5q-96 12 -186 1t-178 -39t-178 -65l-187 -79 l-82 -131l-77 -125q-37 -61 -71 -124t-60 -132q205 -12 415 7l423 39q212 19 422 25.5t415 -34.5q0 -53 -27.5 -85t-81.5 -61q-233 14 -463.5 13t-457 -17t-443.5 -51t-422 -90l-71 37q111 164 195 327l167 328l-103 -27q-48 -12 -96.5 -18t-96.5 -5t-103 13v37l236 60 q126 32 237 85l165 270q81 132 163 242q-111 55 -231 57.5t-242.5 -8t-243.5 -14.5t-230 37z" />
<glyph unicode="&#x152;" horiz-adv-x="2693" d="M80 210q-4 89 23.5 173t101.5 158q111 164 245 299t285.5 230t313 147.5t327.5 52.5l146 -144q72 0 156.5 21.5t178.5 54.5l194 71q101 38 206.5 70.5t215.5 54t220 21.5v-149l-1317 -291q0 -55 2 -132t16.5 -160t43 -160.5t84.5 -133.5q55 0 133 20.5t160.5 35 t159.5 7.5t132 -63q-27 -55 -85 -79.5t-131.5 -33t-155.5 -8.5t-158 -7t-137.5 -27.5t-94 -69.5t-28.5 -135t59 -223q164 -55 326 -83t312.5 -28t285.5 27.5t246 83.5q-111 -111 -268.5 -191t-336 -121t-362.5 -39t-350 58q-111 0 -220.5 -20.5t-219 -35t-219 -7.5 t-218.5 63q-37 74 -83 157.5t-86 173t-69.5 181.5t-33.5 181zM295 176.5q-2 -106.5 39 -203t121 -176.5t188 -135q55 -55 110.5 -61.5t110 7t108.5 34t109 20.5q37 145 62.5 260t42 212t25 186.5t12.5 186.5t5 212t1 260q-55 -55 -107.5 -59.5t-94.5 23.5t-66.5 78 t-24.5 105l-195 -197q-84 -87 -152.5 -169t-124.5 -169t-112 -198q-55 -110 -57 -216.5z" />
<glyph unicode="&#x153;" horiz-adv-x="1656" d="M45 309q0 66 16.5 126.5t49.5 94.5l126 184q67 93 142 160q162 145 342 89h27q4 0 10 -2.5t10 -10.5v-6q0 -6 -8 -14l-19 -24q-10 -13 -10 -42v-18l-16 4q-88 31 -163 9.5t-137.5 -73t-111.5 -125t-86 -147.5v-2h-4q-57 -61 -57 -162q0 -47 14 -88t43 -69 q248 -127 489 -5q-18 86 -18 172q0 80 15.5 160t50.5 158q47 111 124.5 206t178.5 160l2 5h4q47 0 106 6q61 4 123 6t117 -12q131 -37 180 -181v-2v-2q0 -33 -3 -91t-19 -116q-18 -70 -56 -102q-18 -23 -45.5 -35t-58.5 -12q-53 -18 -94 -18.5t-74 12t-59 33.5l-54 43 q-43 37 -93 68.5t-130 33.5q-31 -61 -47 -110.5t-24.5 -96.5t-9.5 -96t-1 -111q0 -109 68 -153q35 -20 78 -29l90 -16q47 -8 93 -17.5t87 -30.5q18 0 41.5 6.5t48.5 10.5l68 13q35 7 69.5 8t65 -8t55.5 -34l10 -10l-12 -8q-98 -66 -210 -86.5t-217 -11t-198.5 38 t-156.5 59.5h-4v4q-29 61 -64 68q-20 6 -42.5 -6.5t-47.5 -28.5q-23 -16 -45.5 -28.5t-44.5 -12.5q-68 0 -132.5 1t-120.5 10t-103.5 26.5t-79.5 52.5q-35 35 -51.5 96t-16.5 129zM989 782q29 -25 78 -42t96 -29q57 -16 101.5 -32.5t58.5 -45.5q39 41 69.5 80t30.5 75 q0 18 -8 34t-22 32q-33 33 -92.5 46t-120.5 3q-39 -6 -96.5 -32t-94.5 -89z" />
<glyph unicode="&#x160;" horiz-adv-x="1492" d="M68 705q0 104 31.5 183t87 140.5t128 106.5t153.5 80.5t166 63.5l163 54q78 0 155.5 -2t156.5 -11t156.5 -31.5t155.5 -61.5v-107q-117 39 -266 57.5t-306 9.5t-306.5 -50t-266.5 -119q0 -39 -16 -61.5t-34.5 -42t-35 -42t-16.5 -61.5q104 -78 215 -133t223.5 -95 t223.5 -72l215 -64q104 -32 198 -69.5t172 -88.5q-27 -104 -77 -160.5t-116.5 -82.5t-145 -30t-162.5 -4t-168 -4t-162 -28q-41 0 -80 2t-78 11t-78 29.5t-78 59.5q156 0 294.5 2t265.5 11t244.5 30.5t234.5 60.5v103q-156 78 -326 124t-336 85t-317 84t-268 123z M433 1942.5q-13 62.5 28 140.5q39 -41 62.5 -96.5t53 -113.5t72.5 -112.5t121 -93.5q39 39 80 108.5t90 138t108.5 119t137.5 50.5q-39 -41 -78 -96l-77 -114l-77 -112.5t-77 -93.5v-106q-41 0 -47.5 -16.5t-6.5 -35t-7 -35t-46 -16.5t-59.5 15.5t-30.5 35.5q-10 23 -12 52 q-39 78 -91.5 140t-91.5 120.5t-52 121z" />
<glyph unicode="&#x161;" horiz-adv-x="1456" d="M10 614q88 86 195.5 170t227.5 149.5t249 105.5t260 40q43 0 46 -36.5t-18.5 -79.5t-61.5 -80t-83 -37v117q-88 0 -156.5 -20.5t-134 -53.5t-135 -75t-155.5 -85q117 -29 231 -42l224 -27q110 -13 212.5 -32.5t193.5 -61.5t168 -113.5t134 -188.5q0 -43 -21.5 -103.5 t-65.5 -114.5t-109.5 -92t-153.5 -38q-43 -43 -104.5 -47t-127 17.5t-128 61.5t-105.5 83q-43 0 -83 21.5t-61.5 65.5t-18.5 109.5t46 153.5q29 -29 59 -74l62 -94q33 -49 68.5 -94t77.5 -74t91.5 -36t108.5 22q43 0 86 2t87 12t88 34.5t87 67.5q29 57 23 98.5t-32 71 t-63 50.5l-74 40q-36 19 -61.5 40.5t-25.5 50.5q-117 29 -223.5 33t-202.5 -2.5t-183.5 -15.5t-165 -6t-145.5 25.5t-127 81.5zM433 1614.5q-13 62.5 28 140.5q39 -41 62.5 -96t53 -113.5t72.5 -113t121 -93.5q39 39 80 109t90 138.5t108.5 118.5t137.5 50q-39 -41 -78 -96 l-77 -114l-77 -112.5t-77 -93.5v-106q-41 0 -47.5 -16.5t-6.5 -35t-7 -35t-46 -16.5t-59.5 15.5t-30.5 36.5q-10 23 -12 51q-39 78 -91.5 140.5t-91.5 120.5t-52 120.5z" />
<glyph unicode="&#x178;" horiz-adv-x="1220" d="M63 1395l97 96l18 18l47 -45l191 -186q104 -100 221 -195q84 -39 141 -108l2 -2q4 -4 8 -4q16 51 28.5 106t23.5 111q12 66 27.5 130t35 124.5t48 113t69.5 93.5l18 18l111 -111l-10 -18q-68 -117 -103 -234.5t-50 -236.5t-17 -241t0 -246q2 -180 -4.5 -366.5 t-55.5 -385.5l-2 -6l-45 6h-6v6q-2 2 -2 8q-2 4 -2 9.5t-4 9.5q-12 25 -45 24h-27v27q0 72 9 151l20 166l20 183q10 90 11 176q0 231 -95 350l-65 47l-68 53l-47 21h-2h-2q-111 55 -233.5 126.5t-241.5 192.5zM315 1839v176h21q35 0 55.5 -14t36.5 -31q14 -14 27.5 -23.5 t36.5 -9.5h28l-88 -264l-4 -4q-37 -37 -68 -24q-31 12 -38 68t-7 126zM627 1753v8q0 31 1 61.5t9 61.5t25.5 62.5t48.5 62.5l6 6h8q74 0 106 -45q12 -20 17.5 -43.5t9.5 -48.5q4 -29 11.5 -55.5t27.5 -46.5l37 -35h-51q-18 0 -36 -5l-38 -12l-42 -12q-22 -6 -44.5 -6t-45 9 t-44.5 32z" />
<glyph unicode="&#x17d;" horiz-adv-x="1820" d="M158 1298q-10 47 0 71t33.5 34t57.5 12t69.5 3t71.5 6.5t65 23.5l936 -39q18 -66 2.5 -117t-49 -95t-79.5 -86l-90 -86q-44 -44 -78 -96t-44 -118l-117 -169l-121 -172q-59 -87 -113.5 -179t-97.5 -191q211 -14 432 6l443 42q221 22 435 28t410 -37q29 -57 5.5 -90 t-78.5 -59q-508 27 -978 -5t-892 -147l-76 39q113 168 207 341l186 345l187 339q94 167 207 321q-76 37 -156 50t-162 12t-164 -10t-160.5 -13.5t-152 1.5t-139.5 35zM448.5 2107.5q-22.5 71.5 6.5 155.5q55 -14 94 -58t75 -101l74 -114q39 -58 95 -102q47 29 88 76t82 99 l81 106q41 53 88.5 94t101.5 62.5t120 13.5l-97 -124l-110 -138l-111 -139l-96 -123l28 -29q13 -14 20 -28.5t6 -28t-15 -27.5q-43 0 -61.5 -23.5t-32 -55.5t-31.5 -63.5t-61 -46.5q-29 29 -52.5 84.5t-23.5 141.5q-43 55 -99.5 112.5t-101.5 121t-67.5 135z" />
<glyph unicode="&#x17e;" horiz-adv-x="1929" d="M115 942v57q115 12 251 37t278 36t283.5 -1t270.5 -72q-8 -84 -45 -158.5t-90 -144t-118 -135.5l-131 -130l-128 -129q-61 -65 -106 -134q139 12 297.5 13t321.5 1t321.5 2t298.5 15q10 -25 0.5 -42.5t-31 -31.5t-48 -26.5t-48.5 -24.5q-164 -10 -325 -17.5t-320.5 -19.5 t-316.5 -31.5t-308 -54.5l-60 94l173 209l179 212l173 218q84 111 153 227q-78 39 -151.5 47.5t-148 1t-149.5 -22.5t-153 -24.5t-157.5 -6.5t-165.5 36zM270 1757q57 -23 90 -66.5t59 -93.5l53 -98q28 -49 75 -84q47 23 84 64t70 88l66 92q32 45 67.5 79t78.5 49t99 -1 l-161 -201q-89 -109 -181 -201q27 -23 45 -49t18 -73q-47 12 -64.5 -2.5t-25.5 -38t-19.5 -48t-43.5 -36.5q-47 23 -66.5 65.5t2.5 89.5l-95 112q-48 54 -86 109.5t-57.5 114.5t-7.5 129z" />
<glyph unicode="&#x192;" horiz-adv-x="1206" d="M-55 -420l14 90l21 -6q35 -14 62 -37l56 -45l54 -43q27 -20 55.5 -32.5t61 -14.5t69.5 12q2 2 17 16l35 30l36 32q16 14 18 17q10 37 18.5 73.5t14.5 77.5q29 186 20.5 396t-51.5 464q-18 4 -43.5 4t-50.5 -2q-41 -4 -82 -2t-65 27q-27 29 -27 88l2 14l109 11q43 4 82 6 t51 4q-8 135 -11 301t23 342l12 66q6 34 17 69v4l4 6q72 57 164 90t188 35q104 0 194.5 -32.5t155.5 -98.5l7 -8l-13 -84l-20 6q-53 16 -105.5 19.5t-105.5 3.5t-106.5 4t-110.5 20q-61 -16 -103 -59q-37 -43 -55 -107q-2 -12 -3 -25.5t-5 -25.5q-8 -53 -9 -113.5t3 -119.5 q0 -33 2 -64t-2 -59q10 -106 73 -148q59 -43 154 -18q16 23 37.5 21.5t40.5 -5.5q10 -4 17 -4h14h12l22 -47l-6 -6q-27 -41 -78 -51t-98 -13q-43 0 -76.5 -5t-50.5 -25q-14 -23 -4 -76v-2q20 -127 26.5 -256t1.5 -259t-19 -261l-27 -260l2 -4l-4 -5q-29 -59 -101 -112 q-66 -51 -137 -62q-143 -4 -244 58q-51 31 -90 79t-61 107z" />
<glyph unicode="&#x2c6;" horiz-adv-x="1142" d="M94 1090v86l492 438l20 -31q102 -154 205 -262q113 -117 238 -184l16 -9l-14 -53h-123l-6 6l-98 97l-101 98l-89 85l-59 56q-23 -16 -48 -31l-50 -28l-2 -2q-78 -45 -150.5 -100.5t-119.5 -155.5q-4 -33 -29 -43q-10 -6 -28.5 -2t-41.5 28q-4 0 -6 2q-2 3 -6 5z" />
<glyph unicode="&#x2c7;" horiz-adv-x="1163" d="M115 838l94 123l105 133l111 135l110 129q-29 27 -51.5 53.5t-12.5 73.5q51 -4 72.5 15.5t35.5 48.5l28 62q15 32 52 50q47 -39 74 -93.5t17 -121.5q47 -61 105 -125t104.5 -130.5t70 -138t-1.5 -153.5q-66 18 -106.5 66.5t-73.5 106.5l-69 118q-36 59 -91 102 q-51 -29 -95 -77t-85 -103l-83 -110q-42 -54 -89 -95t-101 -61t-120 -8z" />
<glyph unicode="&#x2d8;" horiz-adv-x="983" d="M100 1507.5q2 61.5 37 116.5h41q-10 -47 -4 -97t21.5 -100.5t37 -95.5t43.5 -78q63 6 133 11.5t133.5 23t113 55t73.5 109.5q-29 43 -24.5 89t30 75t68.5 32t92 -40q-12 -59 -29.5 -116.5t-44 -109t-67.5 -95.5t-99 -75q-53 -16 -109.5 -30.5t-113.5 -23.5t-115.5 -7 t-113.5 20q-23 43 -48.5 98.5t-41 116t-13.5 122z" />
<glyph unicode="&#x2d9;" horiz-adv-x="454" d="M84 1239q37 12 75 43t75.5 52.5t75.5 18.5t73 -59q-4 -39 -24.5 -60.5t-49 -34.5t-59.5 -24.5t-55 -29.5q-14 8 -36 14t-40.5 15.5t-29.5 23.5t-5 41z" />
<glyph unicode="&#x2da;" horiz-adv-x="708" d="M74 1063q14 63 18 132t18.5 132.5t48.5 112.5t105 73q63 29 105.5 27t71 -24.5t49 -60.5t39 -77t42 -75.5t58.5 -59.5q16 -57 18 -129t-18.5 -133t-67.5 -100t-129 -29q-63 -14 -118.5 -1t-101.5 44t-80.5 75t-57.5 93zM215 1219.5q0 -54.5 5 -109.5t-3 -94 q59 -41 142 -54.5t149 13.5q25 29 31 76t-3.5 100t-33 105.5t-56 90t-74.5 53t-87 -4.5q-43 -25 -56.5 -73t-13.5 -102.5z" />
<glyph unicode="&#x2db;" horiz-adv-x="741" d="M20 -335q0 46 8.5 92t18.5 85q33 16 63.5 57.5t65.5 78t75 52t93 -21.5q-6 -37 -27.5 -66.5t-49.5 -55.5l-56 -50q-29 -25 -50.5 -54.5t-30.5 -66.5t5 -84q61 -29 134 -39t146.5 -1.5t141.5 34t121 68.5q16 -6 20 -15.5t3 -20.5t-4 -24.5t-3 -25.5q-61 -49 -138 -84 t-160 -50.5t-168 -10t-162 37.5q-27 33 -36.5 76t-9.5 89z" />
<glyph unicode="&#x2dc;" d="M45 389q0 35 14.5 70t33 69.5t32.5 70.5t14 71q139 281 281 280q104 -35 195 -83l180 -92q88 -44 179 -74.5t195 -30.5q47 23 80 60.5t62 78.5l57 83q29 42 64.5 75.5t85 55t120.5 21.5v-94q-72 -47 -135 -112l-126 -130q-62 -65 -125.5 -120.5t-134 -81t-149.5 -13 t-173 81.5q-35 70 -72 110t-81 66.5t-98.5 48t-123.5 56.5q-72 -35 -111 -86t-65.5 -112.5t-48 -130t-56.5 -138.5h-94zM45 389q0 35 14.5 70t33 69.5t32.5 70.5t14 71q139 281 281 280q104 -35 195 -83l180 -92q88 -44 179 -74.5t195 -30.5q47 23 80 60.5t62 78.5l57 83 q29 42 64.5 75.5t85 55t120.5 21.5v-94q-72 -47 -135 -112l-126 -130q-62 -65 -125.5 -120.5t-134 -81t-149.5 -13t-173 81.5q-35 70 -72 110t-81 66.5t-98.5 48t-123.5 56.5q-72 -35 -111 -86t-65.5 -112.5t-48 -130t-56.5 -138.5h-94zM45 389q0 35 14.5 70t33 69.5 t32.5 70.5t14 71q139 281 281 280q104 -35 195 -83l180 -92q88 -44 179 -74.5t195 -30.5q47 23 80 60.5t62 78.5l57 83q29 42 64.5 75.5t85 55t120.5 21.5v-94q-72 -47 -135 -112l-126 -130q-62 -65 -125.5 -120.5t-134 -81t-149.5 -13t-173 81.5q-35 70 -72 110t-81 66.5 t-98.5 48t-123.5 56.5q-72 -35 -111 -86t-65.5 -112.5t-48 -130t-56.5 -138.5h-94z" />
<glyph unicode="&#x2dd;" horiz-adv-x="604" d="M72 1253q39 98 101.5 196.5t143.5 164.5l29 -29q-33 -45 -58.5 -96l-52 -99.5t-58.5 -91.5t-77 -73zM317 1294q-10 31 0.5 57.5t29 53.5t39 53.5t28.5 57.5q18 0 36.5 14t37 26.5t37 13.5t36.5 -26q-29 -37 -51.5 -81t-48 -83t-59.5 -63.5t-85 -22.5z" />
<glyph unicode="&#x2000;" horiz-adv-x="1196" />
<glyph unicode="&#x2001;" horiz-adv-x="2394" />
<glyph unicode="&#x2002;" horiz-adv-x="1196" />
<glyph unicode="&#x2003;" horiz-adv-x="2394" />
<glyph unicode="&#x2004;" horiz-adv-x="796" />
<glyph unicode="&#x2005;" horiz-adv-x="598" />
<glyph unicode="&#x2006;" horiz-adv-x="397" />
<glyph unicode="&#x2007;" horiz-adv-x="397" />
<glyph unicode="&#x2008;" horiz-adv-x="299" />
<glyph unicode="&#x2009;" horiz-adv-x="477" />
<glyph unicode="&#x200a;" horiz-adv-x="131" />
<glyph unicode="&#x2010;" horiz-adv-x="1083" d="M166 555l6 51l2 10h10h6q4 0 15 7q16 12 16 43v49q10 -6 19 -10l12 -7q4 -2 6 -4q45 -18 97.5 -25t106.5 -7t108 6l106 12l102 12q51 6 101 6h28v-32q0 -37 -2 -57.5t-12 -37.5q-14 -16 -31.5 -18t-46.5 -2q-47 0 -92 -5t-86 -14l-10 -2l-101 -12q-51 -6 -107.5 -6 t-116.5 8t-126 31z" />
<glyph unicode="&#x2011;" horiz-adv-x="1083" d="M166 555l6 51l2 10h10h6q4 0 15 7q16 12 16 43v49q10 -6 19 -10l12 -7q4 -2 6 -4q45 -18 97.5 -25t106.5 -7t108 6l106 12l102 12q51 6 101 6h28v-32q0 -37 -2 -57.5t-12 -37.5q-14 -16 -31.5 -18t-46.5 -2q-47 0 -92 -5t-86 -14l-10 -2l-101 -12q-51 -6 -107.5 -6 t-116.5 8t-126 31z" />
<glyph unicode="&#x2012;" horiz-adv-x="1083" d="M166 555l6 51l2 10h10h6q4 0 15 7q16 12 16 43v49q10 -6 19 -10l12 -7q4 -2 6 -4q45 -18 97.5 -25t106.5 -7t108 6l106 12l102 12q51 6 101 6h28v-32q0 -37 -2 -57.5t-12 -37.5q-14 -16 -31.5 -18t-46.5 -2q-47 0 -92 -5t-86 -14l-10 -2l-101 -12q-51 -6 -107.5 -6 t-116.5 8t-126 31z" />
<glyph unicode="&#x2013;" horiz-adv-x="1935" d="M70 657q0 55 16 83t43 38t60.5 9t66.5 -3t62.5 1t48.5 22q166 27 344 43l359 31l360 29q178 15 344 44q20 -2 36 -10q14 -8 25.5 -21.5t11.5 -41.5q0 -29 -35.5 -43.5t-85 -21.5t-99.5 -8t-77 -1q-129 18 -252.5 9t-245.5 -31.5t-242 -52.5t-242 -52.5t-245.5 -31.5 t-252.5 9z" />
<glyph unicode="&#x2014;" horiz-adv-x="2590" d="M90 651q82 27 152.5 32t140.5 5t140.5 4t152.5 33q219 0 449.5 -9t456.5 -9t442.5 18t408.5 74l74 -74q0 -55 -36 -74.5t-83 -27t-97 -13.5t-77 -32h-2050z" />
<glyph unicode="&#x2018;" horiz-adv-x="528" d="M57 989l56 113q31 61 68.5 119.5t80.5 110.5t90 85q14 0 31.5 3t32 2t25 -9t14.5 -27q-51 -20 -76 -62t-41 -90t-30.5 -98.5t-42 -87t-76 -55t-132.5 -4.5z" />
<glyph unicode="&#x2019;" horiz-adv-x="471" d="M88 1020q51 74 68.5 134t22.5 120.5l10.5 128t35.5 158.5l158 28q-18 -104 -38.5 -179t-49.5 -139.5t-67 -127.5l-89 -144z" />
<glyph unicode="&#x201a;" horiz-adv-x="497" d="M85 473.5q1 22.5 10 43t26 32.5q39 14 80 15t79.5 -11t69.5 -39t49 -68q25 -59 3.5 -100t-64.5 -73.5t-92 -63.5t-78 -70q-20 -10 -35.5 4.5t-26.5 30.5q2 31 24 53.5t49.5 42t55 37t43 38t11.5 45t-39 56.5q-25 4 -38 -6t-24.5 -22t-26 -20.5t-40.5 -0.5 q-20 12 -28.5 33t-7.5 43.5z" />
<glyph unicode="&#x201c;" horiz-adv-x="868" d="M92 956q-8 80 25 162t86 161t115 151l116 133q12 -80 -14.5 -160t-72.5 -157t-103 -149l-109 -136zM407.5 1118.5q4.5 20.5 10.5 32.5q43 70 94 135l101 128l97 122q46 59 78 119l50 -21q-47 -78 -81 -166t-73 -171t-88 -150.5t-125 -99.5q-29 -6 -43 4t-19.5 28.5t-1 39 z" />
<glyph unicode="&#x201d;" horiz-adv-x="860" d="M78 1036l254 508q10 -2 32.5 1t47 4t45 0t26.5 -11q-66 -145 -163 -284.5t-214 -256.5zM418 1049q43 37 64.5 83t33.5 96t22.5 101t33 99.5t63.5 89.5t113 71l43 -30q-39 -57 -66 -116l-52 -119l-56 -126q-30 -66 -72 -137q-10 -12 -27.5 -25.5t-37 -19.5t-37 0t-25.5 33 z" />
<glyph unicode="&#x201e;" horiz-adv-x="817" d="M127 651q-6 27 6 36t31.5 14.5t39 14.5t27.5 36q55 -10 75 -36t19 -62t-17 -76l-32 -83q-16 -42 -26 -82t0 -73q-14 -4 -22.5 -19.5t-28.5 -11.5q-23 43 -17 90l13 93q6 45 -3.5 85.5t-64.5 73.5zM408 651q14 55 64 87l97 61q27 -2 42.5 -16.5t27.5 -32.5l26 -40 q13 -22 35 -36q4 -61 -6 -121.5t-36.5 -115t-69.5 -99.5t-105 -72h-32q12 27 41.5 56.5t59.5 63.5t50.5 73t13.5 88q-25 0 -61.5 -1t-70 7t-56 29.5t-20.5 68.5z" />
<glyph unicode="&#x2020;" horiz-adv-x="1210" d="M51 1028v8l211 84l77 32l68 27q30 11 49 19l19 8q12 12 17.5 30.5t5.5 41.5q0 20 -3 42.5t-8 45.5q-4 23 -6 44.5t-2 41.5t4 37.5t15 30.5q25 27 71 26h13v-12q0 -33 1 -76t9 -88t23.5 -88t46.5 -74h512v-104l-248 -43l-92 -15l-82 -14l-61 -10q-24 -4 -25 -4 q-10 -37 -13.5 -74t-3.5 -76q0 -78 11.5 -157.5t27.5 -165.5l26.5 -170t12.5 -168q0 -74 -13.5 -144.5t-47.5 -138.5l-23 6q0 6 -2 13q-2 4 -3 10t-5 14q-20 33 -64 33h-16l4 14q18 74 26.5 148t8.5 147q0 180 -37 356.5t-82 350.5l-47 6q-25 2 -51.5 5t-52 2t-47 -8 t-33.5 -22q-31 -41 2 -139l-21 -12q-25 23 -47 39t-43 28q-35 23 -58.5 44.5t-23.5 68.5z" />
<glyph unicode="&#x2021;" horiz-adv-x="843" d="M35 1139v8l6 2q53 29 95 22.5t83 -20.5q35 -12 70 -18.5t80 14.5v405h90v-401q31 2 57.5 6t50.5 10q51 10 102.5 13.5t116.5 -31.5l7 -2v-8q0 -72 -33 -92q-25 -18 -58.5 -11.5t-68.5 19.5q-31 10 -59.5 17t-45.5 -7v-522q23 -23 45.5 -32t45 -9t44 5t44.5 11 q20 6 41.5 11.5t42 2t38 -15.5t31.5 -41l4 -6l-4 -6q-14 -27 -34.5 -41t-44 -21.5t-49 -8.5t-50.5 -1q-47 0 -88 -6t-64 -47q16 -35 21.5 -67.5t5.5 -65.5q0 -37 -6 -72t-12 -63q-10 -45 -11 -66v-12h-94v12q0 35 5 67.5t12 67.5q4 35 9 67t5 64q0 31 -5 60.5t-22 60.5h-338 v12q0 29 22.5 45.5t56.5 23.5t71 8t65 1h119q0 145 -8 282.5t-55 235.5l-2 5v2q0 37 -32 45t-85 8l-16 -16l-29 -27l-39 -39v29q0 16 -15.5 28.5t-43.5 26.5q-27 12 -50.5 29.5t-23.5 48.5z" />
<glyph unicode="&#x2022;" horiz-adv-x="684" d="M74 571q0 68 16 133.5t50 116.5t85 82t119 31q68 33 105.5 21.5t63.5 -45t46.5 -79t54.5 -77.5q0 -68 -29.5 -120t-71.5 -94t-89 -78t-80 -69q-35 0 -81 15.5t-88 41t-71.5 57t-29.5 64.5z" />
<glyph unicode="&#x2026;" horiz-adv-x="1939" d="M100 174q0 43 18.5 65.5t49.5 33t71 12.5t83 2h217q0 -43 -2 -84t-11.5 -83t-32 -83t-61.5 -80q-84 0 -131 18.5t-77.5 49t-56.5 69.5t-67 80zM762 63q27 27 62.5 70t75.5 83t83 68.5t83 33t76 -28.5t62 -115q41 -41 30 -63.5t-42 -32.5q-37 -12 -96 -15h-334zM1534 -43 q0 39 2 80t12.5 83t33 83t63.5 84q0 -43 34.5 -67.5t75.5 -45t76 -45.5t35 -66l-109 -106q-43 -43 -67.5 -48t-45 5t-45 26.5t-65.5 16.5z" />
<glyph unicode="&#x202f;" horiz-adv-x="477" />
<glyph unicode="&#x2030;" horiz-adv-x="3153" d="M102 711q0 78 16.5 137t35.5 106l34 87q16 40 17 79q0 37 32.5 59.5t70.5 42t71 42t33 63.5q76 37 167 39t177 -26.5t158.5 -85t113.5 -134.5v-102q51 0 87 29.5t63.5 72.5t52 90t53.5 81t65.5 47.5t88.5 -11.5q-78 -154 -171 -292l-190 -272l-189 -273 q-93 -138 -169 -291q-39 -39 -80 -76t-88 -66.5t-106.5 -47t-135.5 -17.5v102l512 617q-39 0 -77.5 -17.5t-76.5 -47.5t-77 -66l-78 -76q-37 0 -91 17.5t-112.5 47t-113 66.5t-93.5 76zM205 811q0 -51 23.5 -77.5t60.5 -38t83 -10.5t91 7t85 12.5t66 6.5q39 37 92.5 77.5 t100.5 89t81 107.5t34 135q-37 37 -76 57.5t-77 30t-77 11.5t-78 2q-115 0 -178 -35t-102 -92.5t-64.5 -131t-64.5 -151.5zM1231 711q25 -51 29 -109.5t0.5 -119t-5.5 -119t13.5 -109.5t53.5 -92t116 -68q-41 78 -45 171t5 189.5t24.5 188.5t15.5 168q-41 0 -63.5 -2 t-42 -11.5t-42 -29.5t-59.5 -57zM1745 301q39 76 61.5 136.5t41 118.5t41 118.5t59.5 136.5q78 -37 137 -76t107.5 -76.5t87.5 -76.5l77 -78q27 -76 22 -129t-31 -90t-65.5 -61.5t-82.5 -44.5l-83 -39q-40 -19 -67 -46q-39 0 -77 17.5t-75.5 47t-75.5 66.5zM1948 301h102 q39 0 76 3t66.5 22.5t47 60.5t17.5 117q-39 39 -76 44t-65 -5q-35 -10 -66 -39zM2464 401q0 39 17.5 92.5t46 101.5t64.5 82t74 34q37 0 91.5 -3t113 -22.5t112.5 -61.5t93 -120q0 -76 -33.5 -119t-81 -71.5t-101.5 -52t-93 -62.5q-76 -39 -133.5 -27t-95 51t-56 90 t-18.5 88zM2666 301q37 0 75 17.5t66.5 46t47 64.5t18.5 75q-31 2 -65 12q-29 10 -67 30.5t-75 61.5q-154 -157 0 -307z" />
<glyph unicode="&#x2039;" horiz-adv-x="823" d="M78 645q0 27 15.5 39t31.5 23l2 2q10 4 18.5 9t14.5 13q16 53 47 91t68.5 65.5t81.5 49t89 40.5l7 4q74 29 132 61.5t99 85.5l4 5l41 -5v-90l-6 -4q-45 -45 -100.5 -74.5t-112.5 -56.5l-8 -2q-45 -20 -87 -41.5t-77 -49.5t-60.5 -62.5t-35.5 -83.5q12 -10 51 -40l87 -68 l99 -77l90 -69l4 -4v-3q8 -4 15 -10q27 -14 41 -31v-2h2q4 -12 4 -20q0 -18 -21 -37l-16 -10q-2 0 -6 2l-8 4q-66 27 -124.5 69t-113.5 87l-12 10q-55 45 -114.5 86t-125.5 65l-14 2v15v4q-2 2 -2 8z" />
<glyph unicode="&#x203a;" horiz-adv-x="923" d="M78 1001v89h133l637 -472l-12 -18q-39 -78 -120 -154l-167 -149l-2 -2q-2 0 -2 -2l-94 -79q-41 -36 -74 -69l-27 -26l-33 22q-23 14 -43 34t-20 46v8q4 27 31.5 44.5t62.5 33.5l2 2h2l60 31q31 16 47 39l6 8q4 0 6 2q2 0 3 1t3 1q184 78 195 150v8q0 31 -28 62.5 t-72 63.5t-98 62l-107 60l-9 4l-161 95q-76 46 -115 97z" />
<glyph unicode="&#x2044;" horiz-adv-x="1024" d="M-158 -463q195 369 406 728l422 714l206 346l203 348l4 6l91 -114l-3 -2l-328 -510l-309 -519l-295 -524l-286 -520v-2h-4h-27q-18 -4 -36.5 -3t-30.5 11q-12 12 -13 39v2z" />
<glyph unicode="&#x205f;" horiz-adv-x="598" />
<glyph unicode="&#x20ac;" horiz-adv-x="1613" d="M55 813v12l8 9q27 25 61 38t68.5 20t68.5 9t58 2q86 141 178.5 256t188.5 195q264 221 535 178l57 -10l-41 -39q-4 -2 -4 -3t-2 -3l8 -4q16 -4 20.5 -12.5t4.5 -16.5q0 -2 -2 -4q0 -4 -5.5 -14.5t-25.5 -10.5h-27l-24 25q-10 10 -21.5 20t-15.5 15q-166 -6 -314 -160 q-70 -70 -126 -154l-103 -157l-15 -24q-7 -11 -14 -24q59 -12 120 -27l122 -32q170 -43 345 -80t372 -37l10 -55q-78 -31 -159 -40t-163.5 -4t-166.5 20l-166 32l-177 33.5t-165 17.5q-18 -47 -19 -82q0 -20 4 -38.5l9 -40.5l8 -45q4 -23 6 -50h39q35 0 71.5 1t77.5 3 q82 4 163 5.5t155 -11.5q172 -27 246 -137l28 -45h-53q-47 0 -99.5 8t-111.5 19q-57 10 -117.5 18t-119 10t-111.5 -7t-98 -34q25 -109 118 -151q49 -23 109.5 -32t128.5 -13l109 -12q54 -6 104.5 -21.5t94.5 -42.5t79 -72l35 -45h-58q-94 0 -189 2t-191.5 13.5t-192.5 37 t-190 72.5l-9 4l-57 113l-44 83q-22 40 -26 50q-84 0 -139 9t-106 53q-18 4 -26.5 12t-12.5 14q-4 12 -4 19q0 20 12 38.5t22 28.5l9 10h186q4 8 4 17q0 16 -9 39.5t-24 56.5q-14 31 -26.5 65.5t-18.5 71.5l-21 -8l-24 -8q-49 -18 -96 -30.5t-82 9.5q-31 21 -31 72z" />
<glyph unicode="&#x2122;" horiz-adv-x="2287" d="M78 815q129 45 259 103.5t259 101.5t258 57.5t260 -28.5q-43 -43 -87 -67t-87 -34t-87 -12t-87 -2q-43 -86 -48 -172t5 -172t26.5 -172t16.5 -172q-43 0 -66.5 38t-34 91t-12.5 110.5t-2 98.5v231q-57 29 -113.5 25t-110.5 -23.5t-104.5 -43t-95.5 -34t-82.5 4 t-66.5 71.5zM1272 531.5q10 107.5 56 212t132 190.5q45 -45 70.5 -106.5t47 -126t46.5 -125t68 -99.5q0 84 19.5 149.5t51 119t72.5 98.5l86 90q57 -31 89 -85t47.5 -125t21.5 -151l12 -159q6 -80 18.5 -154t42.5 -131v-115q-86 43 -117.5 105.5t-43 138.5t-19.5 159 t-51 167q-31 -27 -51.5 -70t-36.5 -91l-29.5 -92t-29 -73t-36 -35t-46.5 23l-232 338q-29 -27 -40 -71t-15 -94t-2 -102.5t-2 -93.5t-15.5 -67.5t-39.5 -26.5q-43 86 -63.5 190.5t-10.5 212z" />
<glyph unicode="&#x2212;" horiz-adv-x="1181" d="M68 516q25 2 45 16q16 12 31.5 39t15.5 78q106 -49 227 -55t244 6t243.5 30.5t227.5 18.5q0 -49 -1 -76.5t-10.5 -40t-29 -14.5t-53.5 -2q-106 0 -213 -18.5t-221.5 -30.5t-239.5 -6t-266 55z" />
<glyph unicode="&#xe000;" horiz-adv-x="1045" d="M0 1045h1045v-1045h-1045v1045z" />
<glyph unicode="&#xfb01;" horiz-adv-x="1683" d="M72 358v78l178 64l66 23l63 21q29 9 48 16t26 9q-4 41 -9.5 83t-9.5 83q-10 78 -18 154t-8 151q0 98 20.5 189.5t75.5 169.5q92 117 233 160q115 37 277 20q72 -8 142.5 -24.5t138 -38t129.5 -45.5l116 -44l6 -2l51 -53l2 -6q8 -31 1 -56.5t-22 -46t-37 -36.5l-40 -31 q-27 -16 -43 -33l-6 -6h-102l43 64l33 50q17 26 26 36q-238 143 -569 143h-2q-66 8 -121 -11.5t-97 -56t-71 -85t-43 -99.5q-25 -117 -25 -235q0 -190 60 -359q37 4 72.5 12.5t70.5 18.5q88 23 177 34t188 -24l36 -12l-28 -29q-41 -41 -110.5 -54t-141.5 -22 q-74 -10 -140.5 -23t-91.5 -54q-29 -49 19 -156l2 -6v-4q0 -23 5 -45.5t11 -46.5q12 -47 20.5 -99.5t-16.5 -111.5l-6 -15h-104l-4 21q-10 63 -15 123l-8 116l-8 96q-4 48 -10 99q-53 10 -105.5 -5.5t-105.5 -35.5t-105.5 -33.5t-99.5 4.5zM1188 689q0 48 12 92t43 81l23 29 l18 -35q29 -59 38 -128t13 -138q2 -47 7.5 -90t15.5 -83t28.5 -75t49.5 -61l10 -9l-27 -163l-14 -5q-55 -20 -92 0q-29 16 -37 48t-14 65l-7.5 43.5t-13.5 32.5l-4 6v8q0 43 -7 90t-18 95q-10 49 -17 99t-7 98z" />
<glyph unicode="&#xfb02;" horiz-adv-x="1796" d="M70 401v80l190 78l72 29l64 26l50 21q20 8 27 12q-4 39 -9 79t-9 83l-19.5 161t-9.5 158q0 102 21.5 197.5t80.5 179.5q98 125 248 172q63 20 137 25.5t158 -2.5q76 -8 154 -26.5t149.5 -42t136.5 -48.5l119 -45l6 -2l56 -55l2 -6q8 -33 0 -59.5t-24.5 -49.5t-38 -40 t-42.5 -32q-12 -10 -23.5 -18t-19.5 -16l-8 -9h-104l45 70l35 54l26 38q-260 150 -610 150h-2h-2q-125 16 -226 -66q-92 -76 -127 -203q-27 -119 -26 -247q0 -25 1 -49.5t3 -49.5q12 -152 61 -291q41 8 82 20l82 23l90 28q45 13 92.5 19.5t95.5 2t99 -22.5l33 -12l-23 -27 q-23 -27 -54.5 -43t-68 -27.5t-77.5 -18.5t-82 -13l-76 -13q-37 -6 -67.5 -15t-54.5 -23.5t-36 -34.5q-29 -53 21 -166l2 -4v-6q0 -25 5 -49.5t13 -51.5q12 -49 19.5 -104.5t-19.5 -116.5l-6 -14h-107l-4 20q-10 66 -15 129.5t-9 122.5l-8 104q-4 52 -13 105 q-55 10 -111.5 -5t-111.5 -38q-59 -23 -113.5 -37t-105.5 6zM1237 979q-2 186 27 373l4 20h20q25 0 59.5 -19.5t34.5 -52.5v-2v-2q-23 -152 -15.5 -297t34 -285.5t65.5 -275.5l80 -268l26 -87q13 -44 25 -89l5 -12l-52 -58l-18 25q-195 281 -262 665q-31 179 -33 365z" />
</font>
</defs>
</svg>
