<?xml version="1.0" standalone="no"?>
<!DOCTYPE svg PUBLIC "-//W3C//DTD SVG 1.1//EN" "http://www.w3.org/Graphics/SVG/1.1/DTD/svg11.dtd" >
<svg xmlns="http://www.w3.org/2000/svg">
<metadata>
This is a custom SVG webfont generated by Font Squirrel.
Copyright   : Copyright 2001 Jess Latham  BV Fonts  bluevinylbvfontscom  wwwbvfontscom
</metadata>
<defs>
<font id="webfontZNRFxff4" horiz-adv-x="275" >
<font-face units-per-em="1000" ascent="800" descent="-200" />
<missing-glyph horiz-adv-x="500" />
<glyph unicode=" " />
<glyph unicode="!" horiz-adv-x="339" d="M15 707l2 -1l-1 1l112 40v1l163 -35l-21 -499q-1 0 -1 -2l-1 1l-47 -17q27 -9 45 -33.5t18 -52.5q0 -40 -34 -55v-1l-114 -40q-11 -5 -24 -5q-35 0 -61.5 27.5t-26.5 62.5q0 30 21 48q5 4 27 12l53 19l-88 18zM22 698l21 -491l107 37l-18 431zM27 704l104 -22l-2 58z M30 99q0 -20 10 -38l108 38q-8 14 -10 29q-25 25 -56 25q-8 0 -18 -4v1q-34 -13 -34 -51zM44 55q27 -40 68 -40q23 0 38 15.5t15 38.5q0 4 -1 8q-7 8 -13 16zM47 201l90 -19l13 5l3 50l-3 1zM92 159q25 -3 45 -21q-1 19 9 35l-9 2zM135 740l3 -59l36 -8l103 37zM138 674 l17 -390l16 383zM143 140q0 -4 1 -9q7 -7 12 -15l108 38q-21 31 -53 39l-55 -20v-2l-3 1q-10 -13 -10 -32zM147 118q4 -14 14 -27q-4 14 -14 27zM149 179h1v1zM156 28l64 22q-27 2 -49 21q2 -25 -15 -43zM157 189q36 12 38 12q8 0 15 -2l45 16l-96 21zM159 243l104 -22 l21 484l-106 -38zM160 110q8 -14 10 -29q24 -24 56 -24q23 0 37.5 15t14.5 38q0 20 -11 38zM162 182l34 12q-10 1 -19 -3l1 -2q-6 -1 -16 -7z" />
<glyph unicode="&#x22;" horiz-adv-x="680" d="M3 566l86 39l-2 2l5 -1h1l145 -38l53 183l1 -4l84 38l2 8l66 -285l219 -59l-177 -114l65 -273l-6 -3l-127 153l45 -192l-5 -3l-163 195l-93 -61l1 -3q-43 -18 -94 -44l3 9l-1 1h1l66 238zM10 562l147 -38l-63 76zM18 553l164 -196l83 38l-101 120zM106 596l62 -75l52 -13 l16 54zM120 120l84 55l59 212l-78 -35zM149 131l49 22l4 12zM175 512l98 -116l-2 -5l-58 -210l74 49q37 15 88 43l30 -35l-14 58l168 108l-207 56l-29 122l-11 -40h-1v-1l-86 -38l-1 -3zM208 162l83 55l-4 5l-77 -51zM228 511l75 34l-61 15zM244 567l63 -17l13 45l-30 130z M292 225l4 -4l32 21zM293 741l31 -133l50 169zM300 216l154 -184l-46 191l-33 40q-5 -2 -75 -47zM327 595l29 -126l82 37l-60 261zM361 464l203 -55l82 38l-202 54zM399 292l15 -66l127 -152l-60 255zM432 314l47 22l-1 2l135 87l-40 -18l2 -1zM461 17l90 40l2 -6l-90 -40z " />
<glyph unicode="#" horiz-adv-x="684" d="M7 566l86 39l-2 2l5 -1h1l145 -38l53 183l1 -4l84 38l2 8l66 -285l219 -59l-177 -114l65 -273l-6 -3l-127 153l45 -192l-5 -3l-163 195l-93 -61l1 -3q-43 -18 -94 -44l3 9l-1 1h1l66 238zM14 562l147 -38l-63 76zM22 553l164 -196l83 38l-101 120zM110 596l62 -75l52 -13 l16 54zM124 120l84 55l59 212l-78 -35zM153 131l49 22l4 12zM179 512l98 -116l-2 -5l-58 -210l74 49q37 15 88 43l30 -35l-14 58l168 108l-207 56l-29 122l-11 -40h-1v-1l-86 -38l-1 -3zM212 162l83 55l-4 5l-77 -51zM232 511l75 34l-61 15zM248 567l63 -17l13 45l-30 130z M296 225l4 -4l32 21zM297 741l31 -133l50 169zM304 216l154 -184l-46 191l-33 40q-5 -2 -75 -47zM331 595l29 -126l82 37l-60 261zM365 464l203 -55l82 38l-202 54zM403 292l15 -66l127 -152l-60 255zM436 314l47 22l-1 2l135 87l-40 -18l2 -1zM465 17l90 40l2 -6l-90 -40z " />
<glyph unicode="$" horiz-adv-x="479" d="M8 257v59h1v1l75 33q-33 16 -54.5 49t-21.5 69v112q0 67 58 94v0l59 27v44l1 -1v1l89 41v1l107 -23v-62q49 -15 82.5 -57.5t33.5 -93.5v-70l-68 -30q68 -42 68 -125v-98q0 -65 -53 -93v0l-63 -28v-52l-2 1v-1l-89 -40v-2l-106 23v69q-49 15 -83 58t-34 94zM15 257 q0 -49 33 -91t80 -55l84 37q-41 14 -75 52q-13 11 -25.5 23.5t-12.5 29.5v37l-84 18v-51zM15 468q0 -30 15 -57l85 39q-16 28 -16 60v112q0 31 14 55h-3q-42 0 -68.5 -27.5t-26.5 -69.5v-112zM18 314l81 -17v48q-3 1 -7 2zM33 406q23 -38 59 -52l7 3v1l114 -24l72 32l-87 19 q-50 11 -80 59zM100 683h17q4 5 8 9v2zM106 253q0 -19 11 -28l25 -20q35 -41 80 -53v-69h3v7h1v1l89 40v1q6 -1 11 -1q15 23 15 55v98q0 44 -26 82.5t-67 47.5l-99 21v103q0 22 13 28v0l87 39q2 5 13 5q35 0 35 -41v-51l44 -10q0 50 -33.5 92t-82.5 55v62h-5v-1l-89 -40v-1 q-5 1 -11 1q-14 -23 -14 -54v-112q0 -41 27 -76t66 -43l98 -21v-110q0 -22 -10 -26l1 -1l-90 -40q-5 -4 -13 -4q-36 0 -36 40v51l-43 9v-36zM106 296l46 -10l48 21v16q-36 6 -94 20v-47zM106 350q1 -1 97 -21v0zM131 46l84 38v59l-84 -38v-59zM131 683l78 35l-8 1 q-41 0 -70 -29v-7zM131 704q18 9 58 20l-58 13v-33zM135 41l90 -19v54l-7 2zM135 742l80 -17v54zM156 229q0 -14 6 -22l-1 2l39 17v74l-44 -20v-51zM156 443l55 25l-11 2v57q0 34 -29 34q-15 0 -15 -23v-95zM162 439l87 -18q39 -8 67 -46l86 38q-18 23 -39 34l-14 -6l-1 3 v-5l-127 27zM165 203q8 -7 20 -7q15 0 15 21v2zM179 567q15 -1 23 -17l38 17q0 22 2 28zM204 544q3 -8 3 -66l33 15v68zM205 203l64 29q-10 0 -19 10l-43 -20q0 -13 -2 -19zM207 229l39 18q-6 9 -6 71l-33 -15v-74zM207 310l27 13l-20 4l-7 -3v-14zM213 474l8 -1l19 8v6z M222 724l7 -2l82 37l-89 19v-54zM224 332l23 -5v-56q0 -34 29 -34q15 0 15 23v102zM231 22l80 36l-80 17v-53zM231 81l84 -18v41q-44 -22 -68 -22q-8 0 -16 1v-2zM231 663l84 38v53l-84 -38v-53zM232 470l109 -23v9l-96 20zM236 89q5 -1 10 -1q26 0 47 12v1q10 4 22 16v7z M236 658q39 -12 68 -44l85 38q-30 32 -70 44zM247 482q37 -6 94 -20v40l-46 9l-48 -22v-7zM247 496l44 20v54q0 6 -2 13l-42 -20v-67zM247 570l40 19q-7 14 -25 14q-5 0 -8 -2v-1q-7 -2 -7 -19v-11zM309 609q39 -41 39 -102l84 -18v62q0 56 -38 96zM320 370q28 -39 28 -86 v-98q0 -32 -14 -56h3q43 0 69 27.5t26 70.5v98q0 45 -27 82zM322 113l23 11q-7 -1 -16 0q-3 -5 -7 -9v-2zM348 447l7 4q-4 2 -7 3v-7zM348 461q7 -3 15 -7l64 29l-79 17v-39z" />
<glyph unicode="%" horiz-adv-x="684" d="M7 566l86 39l-2 2l5 -1h1l145 -38l53 183l1 -4l84 38l2 8l66 -285l219 -59l-177 -114l65 -273l-6 -3l-127 153l45 -192l-5 -3l-163 195l-93 -61l1 -3q-43 -18 -94 -44l3 9l-1 1h1l66 238zM14 562l147 -38l-63 76zM22 553l164 -196l83 38l-101 120zM110 596l62 -75l52 -13 l16 54zM124 120l84 55l59 212l-78 -35zM153 131l49 22l4 12zM179 512l98 -116l-2 -5l-58 -210l74 49q37 15 88 43l30 -35l-14 58l168 108l-207 56l-29 122l-11 -40h-1v-1l-86 -38l-1 -3zM212 162l83 55l-4 5l-77 -51zM232 511l75 34l-61 15zM248 567l63 -17l13 45l-30 130z M296 225l4 -4l32 21zM297 741l31 -133l50 169zM304 216l154 -184l-46 191l-33 40q-5 -2 -75 -47zM331 595l29 -126l82 37l-60 261zM365 464l203 -55l82 38l-202 54zM403 292l15 -66l127 -152l-60 255zM436 314l47 22l-1 2l135 87l-40 -18l2 -1zM465 17l90 40l2 -6l-90 -40z " />
<glyph unicode="&#x26;" horiz-adv-x="684" d="M7 566l86 39l-2 2l5 -1h1l145 -38l53 183l1 -4l84 38l2 8l66 -285l219 -59l-177 -114l65 -273l-6 -3l-127 153l45 -192l-5 -3l-163 195l-93 -61l1 -3q-43 -18 -94 -44l3 9l-1 1h1l66 238zM14 562l147 -38l-63 76zM22 553l164 -196l83 38l-101 120zM110 596l62 -75l52 -13 l16 54zM124 120l84 55l59 212l-78 -35zM153 131l49 22l4 12zM179 512l98 -116l-2 -5l-58 -210l74 49q37 15 88 43l30 -35l-14 58l168 108l-207 56l-29 122l-11 -40h-1v-1l-86 -38l-1 -3zM212 162l83 55l-4 5l-77 -51zM232 511l75 34l-61 15zM248 567l63 -17l13 45l-30 130z M296 225l4 -4l32 21zM297 741l31 -133l50 169zM304 216l154 -184l-46 191l-33 40q-5 -2 -75 -47zM331 595l29 -126l82 37l-60 261zM365 464l203 -55l82 38l-202 54zM403 292l15 -66l127 -152l-60 255zM436 314l47 22l-1 2l135 87l-40 -18l2 -1zM465 17l90 40l2 -6l-90 -40z " />
<glyph unicode="'" horiz-adv-x="684" d="M7 566l86 39l-2 2l5 -1h1l145 -38l53 183l1 -4l84 38l2 8l66 -285l219 -59l-177 -114l65 -273l-6 -3l-127 153l45 -192l-5 -3l-163 195l-93 -61l1 -3q-43 -18 -94 -44l3 9l-1 1h1l66 238zM14 562l147 -38l-63 76zM22 553l164 -196l83 38l-101 120zM110 596l62 -75l52 -13 l16 54zM124 120l84 55l59 212l-78 -35zM153 131l49 22l4 12zM179 512l98 -116l-2 -5l-58 -210l74 49q37 15 88 43l30 -35l-14 58l168 108l-207 56l-29 122l-11 -40h-1v-1l-86 -38l-1 -3zM212 162l83 55l-4 5l-77 -51zM232 511l75 34l-61 15zM248 567l63 -17l13 45l-30 130z M296 225l4 -4l32 21zM297 741l31 -133l50 169zM304 216l154 -184l-46 191l-33 40q-5 -2 -75 -47zM331 595l29 -126l82 37l-60 261zM365 464l203 -55l82 38l-202 54zM403 292l15 -66l127 -152l-60 255zM436 314l47 22l-1 2l135 87l-40 -18l2 -1zM465 17l90 40l2 -6l-90 -40z " />
<glyph unicode="(" horiz-adv-x="684" d="M7 566l86 39l-2 2l5 -1h1l145 -38l53 183l1 -4l84 38l2 8l66 -285l219 -59l-177 -114l65 -273l-6 -3l-127 153l45 -192l-5 -3l-163 195l-93 -61l1 -3q-43 -18 -94 -44l3 9l-1 1h1l66 238zM14 562l147 -38l-63 76zM22 553l164 -196l83 38l-101 120zM110 596l62 -75l52 -13 l16 54zM124 120l84 55l59 212l-78 -35zM153 131l49 22l4 12zM179 512l98 -116l-2 -5l-58 -210l74 49q37 15 88 43l30 -35l-14 58l168 108l-207 56l-29 122l-11 -40h-1v-1l-86 -38l-1 -3zM212 162l83 55l-4 5l-77 -51zM232 511l75 34l-61 15zM248 567l63 -17l13 45l-30 130z M296 225l4 -4l32 21zM297 741l31 -133l50 169zM304 216l154 -184l-46 191l-33 40q-5 -2 -75 -47zM331 595l29 -126l82 37l-60 261zM365 464l203 -55l82 38l-202 54zM403 292l15 -66l127 -152l-60 255zM436 314l47 22l-1 2l135 87l-40 -18l2 -1zM465 17l90 40l2 -6l-90 -40z " />
<glyph unicode=")" horiz-adv-x="684" d="M7 566l86 39l-2 2l5 -1h1l145 -38l53 183l1 -4l84 38l2 8l66 -285l219 -59l-177 -114l65 -273l-6 -3l-127 153l45 -192l-5 -3l-163 195l-93 -61l1 -3q-43 -18 -94 -44l3 9l-1 1h1l66 238zM14 562l147 -38l-63 76zM22 553l164 -196l83 38l-101 120zM110 596l62 -75l52 -13 l16 54zM124 120l84 55l59 212l-78 -35zM153 131l49 22l4 12zM179 512l98 -116l-2 -5l-58 -210l74 49q37 15 88 43l30 -35l-14 58l168 108l-207 56l-29 122l-11 -40h-1v-1l-86 -38l-1 -3zM212 162l83 55l-4 5l-77 -51zM232 511l75 34l-61 15zM248 567l63 -17l13 45l-30 130z M296 225l4 -4l32 21zM297 741l31 -133l50 169zM304 216l154 -184l-46 191l-33 40q-5 -2 -75 -47zM331 595l29 -126l82 37l-60 261zM365 464l203 -55l82 38l-202 54zM403 292l15 -66l127 -152l-60 255zM436 314l47 22l-1 2l135 87l-40 -18l2 -1zM465 17l90 40l2 -6l-90 -40z " />
<glyph unicode="*" horiz-adv-x="684" d="M7 566l86 39l-2 2l5 -1h1l145 -38l53 183l1 -4l84 38l2 8l66 -285l219 -59l-177 -114l65 -273l-6 -3l-127 153l45 -192l-5 -3l-163 195l-93 -61l1 -3q-43 -18 -94 -44l3 9l-1 1h1l66 238zM14 562l147 -38l-63 76zM22 553l164 -196l83 38l-101 120zM110 596l62 -75l52 -13 l16 54zM124 120l84 55l59 212l-78 -35zM153 131l49 22l4 12zM179 512l98 -116l-2 -5l-58 -210l74 49q37 15 88 43l30 -35l-14 58l168 108l-207 56l-29 122l-11 -40h-1v-1l-86 -38l-1 -3zM212 162l83 55l-4 5l-77 -51zM232 511l75 34l-61 15zM248 567l63 -17l13 45l-30 130z M296 225l4 -4l32 21zM297 741l31 -133l50 169zM304 216l154 -184l-46 191l-33 40q-5 -2 -75 -47zM331 595l29 -126l82 37l-60 261zM365 464l203 -55l82 38l-202 54zM403 292l15 -66l127 -152l-60 255zM436 314l47 22l-1 2l135 87l-40 -18l2 -1zM465 17l90 40l2 -6l-90 -40z " />
<glyph unicode="+" horiz-adv-x="684" d="M7 566l86 39l-2 2l5 -1h1l145 -38l53 183l1 -4l84 38l2 8l66 -285l219 -59l-177 -114l65 -273l-6 -3l-127 153l45 -192l-5 -3l-163 195l-93 -61l1 -3q-43 -18 -94 -44l3 9l-1 1h1l66 238zM14 562l147 -38l-63 76zM22 553l164 -196l83 38l-101 120zM110 596l62 -75l52 -13 l16 54zM124 120l84 55l59 212l-78 -35zM153 131l49 22l4 12zM179 512l98 -116l-2 -5l-58 -210l74 49q37 15 88 43l30 -35l-14 58l168 108l-207 56l-29 122l-11 -40h-1v-1l-86 -38l-1 -3zM212 162l83 55l-4 5l-77 -51zM232 511l75 34l-61 15zM248 567l63 -17l13 45l-30 130z M296 225l4 -4l32 21zM297 741l31 -133l50 169zM304 216l154 -184l-46 191l-33 40q-5 -2 -75 -47zM331 595l29 -126l82 37l-60 261zM365 464l203 -55l82 38l-202 54zM403 292l15 -66l127 -152l-60 255zM436 314l47 22l-1 2l135 87l-40 -18l2 -1zM465 17l90 40l2 -6l-90 -40z " />
<glyph unicode="," horiz-adv-x="684" d="M7 566l86 39l-2 2l5 -1h1l145 -38l53 183l1 -4l84 38l2 8l66 -285l219 -59l-177 -114l65 -273l-6 -3l-127 153l45 -192l-5 -3l-163 195l-93 -61l1 -3q-43 -18 -94 -44l3 9l-1 1h1l66 238zM14 562l147 -38l-63 76zM22 553l164 -196l83 38l-101 120zM110 596l62 -75l52 -13 l16 54zM124 120l84 55l59 212l-78 -35zM153 131l49 22l4 12zM179 512l98 -116l-2 -5l-58 -210l74 49q37 15 88 43l30 -35l-14 58l168 108l-207 56l-29 122l-11 -40h-1v-1l-86 -38l-1 -3zM212 162l83 55l-4 5l-77 -51zM232 511l75 34l-61 15zM248 567l63 -17l13 45l-30 130z M296 225l4 -4l32 21zM297 741l31 -133l50 169zM304 216l154 -184l-46 191l-33 40q-5 -2 -75 -47zM331 595l29 -126l82 37l-60 261zM365 464l203 -55l82 38l-202 54zM403 292l15 -66l127 -152l-60 255zM436 314l47 22l-1 2l135 87l-40 -18l2 -1zM465 17l90 40l2 -6l-90 -40z " />
<glyph unicode="-" horiz-adv-x="684" d="M7 566l86 39l-2 2l5 -1h1l145 -38l53 183l1 -4l84 38l2 8l66 -285l219 -59l-177 -114l65 -273l-6 -3l-127 153l45 -192l-5 -3l-163 195l-93 -61l1 -3q-43 -18 -94 -44l3 9l-1 1h1l66 238zM14 562l147 -38l-63 76zM22 553l164 -196l83 38l-101 120zM110 596l62 -75l52 -13 l16 54zM124 120l84 55l59 212l-78 -35zM153 131l49 22l4 12zM179 512l98 -116l-2 -5l-58 -210l74 49q37 15 88 43l30 -35l-14 58l168 108l-207 56l-29 122l-11 -40h-1v-1l-86 -38l-1 -3zM212 162l83 55l-4 5l-77 -51zM232 511l75 34l-61 15zM248 567l63 -17l13 45l-30 130z M296 225l4 -4l32 21zM297 741l31 -133l50 169zM304 216l154 -184l-46 191l-33 40q-5 -2 -75 -47zM331 595l29 -126l82 37l-60 261zM365 464l203 -55l82 38l-202 54zM403 292l15 -66l127 -152l-60 255zM436 314l47 22l-1 2l135 87l-40 -18l2 -1zM465 17l90 40l2 -6l-90 -40z " />
<glyph unicode="." horiz-adv-x="314" d="M10 117q0 31 22 48q6 5 26 12l91 33q28 10 33 10q35 0 62 -28.5t27 -63.5q0 -39 -35 -54l1 -2l-114 -40q-11 -5 -24 -5q-35 0 -62 27.5t-27 62.5zM17 117q0 -20 10 -38l108 38q-8 14 -11 30q-24 25 -55 25q-8 0 -18 -4h-1q-33 -13 -33 -51zM31 74q26 -40 68 -40 q23 0 37.5 15t14.5 38v9q-7 7 -13 16zM79 177q24 -3 45 -21q-2 24 13 42zM130 158q0 -3 1 -8q6 -7 12 -15l107 38q-27 40 -68 40q-10 0 -18 -3l1 -2l-13 -4q-22 -7 -22 -46zM134 136q4 -14 14 -27q-5 14 -14 27zM143 46l64 23q-27 2 -49 20q2 -25 -15 -43zM146 129 q9 -14 11 -30q24 -24 55 -24q23 0 38 15t15 38q0 20 -11 39z" />
<glyph unicode="/" horiz-adv-x="684" d="M7 566l86 39l-2 2l5 -1h1l145 -38l53 183l1 -4l84 38l2 8l66 -285l219 -59l-177 -114l65 -273l-6 -3l-127 153l45 -192l-5 -3l-163 195l-93 -61l1 -3q-43 -18 -94 -44l3 9l-1 1h1l66 238zM14 562l147 -38l-63 76zM22 553l164 -196l83 38l-101 120zM110 596l62 -75l52 -13 l16 54zM124 120l84 55l59 212l-78 -35zM153 131l49 22l4 12zM179 512l98 -116l-2 -5l-58 -210l74 49q37 15 88 43l30 -35l-14 58l168 108l-207 56l-29 122l-11 -40h-1v-1l-86 -38l-1 -3zM212 162l83 55l-4 5l-77 -51zM232 511l75 34l-61 15zM248 567l63 -17l13 45l-30 130z M296 225l4 -4l32 21zM297 741l31 -133l50 169zM304 216l154 -184l-46 191l-33 40q-5 -2 -75 -47zM331 595l29 -126l82 37l-60 261zM365 464l203 -55l82 38l-202 54zM403 292l15 -66l127 -152l-60 255zM436 314l47 22l-1 2l135 87l-40 -18l2 -1zM465 17l90 40l2 -6l-90 -40z " />
<glyph unicode="0" horiz-adv-x="501" d="M10 197v423q0 80 72 101v0l94 33q31 11 44 11t27 -3l82 -18q70 -15 109 -88q17 -31 17 -66v-423q0 -69 -60 -95v-2l-113 -40v1q-18 -7 -38 -7q-12 0 -26 3l-82 17q-52 11 -89 55.5t-37 97.5zM17 197q0 -47 32 -89l104 37q-33 43 -33 92v423q0 32 14 56q-12 2 -24 2 q-42 0 -67.5 -28t-25.5 -70v-423zM53 103q37 -43 84 -53l82 -17q14 -3 26 -3q47 0 75 38q-83 18 -90 20q-43 14 -73 52zM112 725q13 0 26 -3q7 10 16 18zM127 237q0 -41 24 -78q-1 6 -1 12v407q0 27 17 30h-1q38 13 113 41l1 -1q35 2 35 -40v-408q0 -17 -7 -25v-1l-111 -39 q-4 -5 -13 -5q-5 0 -12 3q28 -29 70 -42q13 -2 82 -17q14 22 14 53v423q0 51 -35 94.5t-85 53.5l-77 16q-14 -23 -14 -54v-423zM145 720q80 -17 91 -21q47 -16 74 -53l104 37q-26 36 -76 52q-1 0 -92 20q-14 3 -25 3q-13 0 -24 -3v0q-36 -12 -52 -35zM156 169q0 -8 3 -15 l40 14v401q0 11 -4 19l-1 -1l-2 6q-8 9 -21 9q-15 0 -15 -22v-411zM162 148q7 -11 22 -11q7 0 9 3q6 6 6 20v1zM181 607q11 -3 17 -12l62 23q0 11 3 18zM201 590q4 -9 4 -22v-397l58 20q-3 8 -3 19v401zM203 144l80 28q-11 4 -17 13l-61 -21q0 -14 -2 -20zM266 209 q0 -32 28 -32q15 0 15 22v410q0 10 -4 18l-39 -14v-404zM266 620l36 12q-8 9 -21 9q-14 0 -15 -21zM308 46l50 18q-17 -1 -31 3q-8 -12 -19 -21zM314 641q31 -43 31 -91v-423q0 -31 -14 -55q12 -2 24 -2q41 0 67 28t26 69v423q0 47 -30 88z" />
<glyph unicode="1" horiz-adv-x="346" d="M16 650v59l113 40v1h1v-1l161 -12v-676l-114 -41v1l-127 27v595zM22 660l98 34l-98 8v-42zM28 655l25 -6l102 36l-25 6zM32 708l97 -8v42zM57 56l106 38v587l-106 -38v-587zM63 52l109 -23v58l-7 1zM135 700l40 -3l99 35l-139 11v-43zM158 692l12 -3v-595l2 -1v597z M178 27l102 37l-102 21v-58zM178 92l106 -23v660l-106 -38v-599z" />
<glyph unicode="2" horiz-adv-x="514" d="M9 81v190q0 71 53 93l-1 1l111 39q13 5 29 7v83l-44 -16v-1l-148 32v122q0 78 72 100l-1 1l114 41v-1q14 4 29 4q12 0 27 -3l83 -17q52 -11 90 -56.5t38 -98.5v-246q0 -65 -54 -84v-1l-107 -38q-17 -6 -31 -6v-34l202 -43v-102l-113 -39v-1h-1zM16 89l105 37v186 q0 24 8 44q-29 8 -39 8q-35 0 -56 -30q-18 -26 -18 -63v-182zM16 516l105 37v119q0 31 14 54q-13 3 -24 3q-42 0 -68.5 -28t-26.5 -70v-115zM24 85l328 -70v58l-226 48zM25 512l125 -27v59l-23 4zM94 370q10 -1 37 -8q9 19 20 28zM108 735q16 0 31 -3q7 12 18 21zM128 127 l224 -48v24l-202 43l1 110l111 39v1h3l71 -15q6 15 6 33v246q0 52 -35.5 94.5t-86.5 53.5l-78 17q-14 -23 -14 -53v-117l22 -5q0 56 8 63v1l113 40q3 5 13 5q36 0 36 -41v-234q-1 -1 -2 -1l1 -1l-118 -42q-13 0 -66 14q-7 -19 -7 -42v-185zM138 360q53 -13 63 -13v57 q-12 0 -23 -4v-1q-25 -7 -40 -39zM146 731q81 -18 91 -21q49 -16 74 -52l107 37q-35 43 -86 54l-83 18q-14 3 -26 3q-49 0 -77 -39zM157 154l105 38v34q-5 1 -14 2l-91 19v-93zM157 485l44 16v32l-44 9v-57zM157 549l44 -10v38q0 34 -29 34q-15 0 -15 -21v-41zM163 253 l87 -19q5 -1 12 -1v55zM164 150l191 -41l102 36l-191 41zM182 616q14 -4 20 -15l60 22q0 16 3 22zM205 595q3 -8 3 -57l54 -12v90zM208 349l93 34q-34 10 -93 21v-55zM208 411q13 -1 54 -13q36 -11 51 -10v230q0 9 -2 15l-42 -15v-96q0 -1 1 -4l-62 -22v-85zM208 503l49 18 l-49 10v-28zM269 232q12 0 22 4v0q29 10 43 39l-65 13v-56zM269 625l39 14q-8 13 -24 13q-15 0 -15 -22v-5zM316 652q33 -43 33 -92v-246q0 -19 -6 -35q28 -6 38 -6q33 0 53 24t20 58v246q0 47 -32 89zM322 247l56 20q-10 0 -38 6q-6 -15 -18 -26zM358 15l101 35l-101 21 v-56zM358 78l106 -22v85l-106 -38v-25z" />
<glyph unicode="3" horiz-adv-x="509" d="M11 195v108l112 40v1l19 -4v92h2l-1 1l58 20v44l-43 -15v-1h-2l-145 31v106q0 72 64 97l-1 1l105 37q31 11 46 11q12 0 110 -21q58 -13 96 -63h1l21 -44q11 -23 11 -48v-89q0 -68 -55 -94v-1l-34 -13q39 -20 64 -57t25 -80v-89q0 -66 -57 -93v-1l-110 -39 q-31 -11 -50 -11q-14 0 -28 3l-81 17q-53 11 -90 55.5t-37 98.5zM17 195q0 -38 22 -73l106 38q-16 27 -20 54q-2 14 -2 58l-106 23v-100zM17 521l106 38v100q0 31 14 54q-13 3 -25 3q-42 0 -68.5 -28t-26.5 -70v-97zM23 300l100 -21v57zM23 516l129 -27v59l-26 5zM42 116 q38 -57 97 -69l81 -17q14 -3 27 -3q24 0 44 10v0q19 5 36 29q-85 18 -101 24q-46 18 -77 64zM112 722q16 0 28 -3q7 11 17 19zM130 236q0 -38 22 -74v104l-22 5v-35zM130 277l24 -5l46 16q-4 19 -21 23l-37 8v14l-12 3v-59zM130 559l22 -5q0 37 -1 32q2 22 13 27v0l109 39 q3 4 13 4q5 0 10 -2q-31 31 -71 40q-2 1 -82 18q-13 -23 -13 -53v-100zM147 718q43 -9 95 -22q45 -16 76 -57l107 38q-38 49 -92 60l-82 17q-14 3 -26 3q-18 0 -35 -6l1 -1q-26 -8 -44 -32zM148 328l7 2l-7 2v-4zM148 339l18 -4l71 25v1h1l16 6v73l-57 -20q-8 -3 -11 -3 t-38 7v-85zM153 323q18 -3 24 -5q14 -3 21 -10l24 8l-55 12zM154 430q30 -7 32 -7q15 0 15 23zM158 167q0 -10 4 -18l39 14v119l-43 -15v-100zM158 489l43 15v33l-43 9v-57zM158 553l43 -9v30q0 34 -28 34q-15 0 -15 -23v-32zM166 143q8 -8 20 -8q13 0 15 21zM178 129 q31 -31 74 -40l79 -17q14 22 14 51v90q0 41 -25 78v-89q0 -20 -8 -28v-1l-113 -40q-4 -5 -13 -5q-5 0 -8 1zM179 332l55 -12l41 15q-17 12 -36 18zM184 613q10 -3 16 -11l64 23q0 11 3 18zM202 302q3 -5 4 -11l51 18l-23 5zM203 596q4 -9 4 -54l57 -12v88zM205 142l83 29 q-10 3 -15 10l-66 -23q0 -10 -2 -16zM205 429l49 18v18l-47 -16q0 -13 -2 -20zM207 165l62 22q-5 9 -5 23v94l-57 -20v-119zM207 456l47 16v1h3q40 -9 42 -9q14 0 14 23v130q0 10 -3 17l-39 -14v-98h-1l-63 -23v-43zM207 506l52 19l-52 11v-30zM246 318l25 -5v-103 q0 -13 4 -21v0q3 -13 23 -13q15 0 15 24v100q-14 17 -31 31zM255 354q14 -7 28 -16l22 8q-6 5 -31 10q-9 -2 -19 -2zM261 369l60 22q24 26 24 67v89q0 42 -26 80q1 -6 1 -11v-128q0 -23 -10 -27v-1l-49 -18v-73zM261 449l28 10l-28 6v-16zM267 364l7 -1q10 2 19 6q6 2 16 10 zM271 627l36 13q-8 10 -21 10q-4 0 -6 -2v-1l-4 -1q-5 -5 -5 -19zM288 360q16 -4 23 -12h1v-1q8 -13 8 -28v-17q6 -8 11 -16l107 38q-27 43 -72 65zM289 333q13 -10 24 -23v9q0 13 -4 21zM319 47l42 15q-13 0 -26 3q-7 -10 -16 -18zM319 379l39 13l-6 2l-27 -9zM322 634 q30 -41 30 -87v-89q0 -37 -19 -63l16 6l1 1q47 -5 77.5 22.5t30.5 74.5v89q0 44 -29 84zM334 280q18 -32 18 -67v-90q0 -30 -14 -52q12 -2 22 -2q42 0 70 27t28 69v89q0 34 -17 64z" />
<glyph unicode="4" horiz-adv-x="549" d="M1 224l2 6v1l165 497h1l110 40v1h3l1 -1l183 -40v-431l41 -9v-107l-41 -15v-116l-114 -41v1l-127 27v140zM11 234l103 36l143 432l-85 18zM15 228l211 -45l102 36l-211 45zM121 270l222 -47v-139l5 -1v74l41 15v70l-41 8v432l-85 18zM149 293l79 257h1l113 41q1 0 1 -1h3 v-275l-111 -39v-2l-2 1h-1zM158 303l70 24v200zM161 297l67 -14v37zM180 726l79 -18l17 52zM231 45l105 38v132l-105 -37v-133zM235 283l99 35l-70 15l-29 -10v-40zM235 330l27 9l75 243l-102 -37v-215zM238 41l110 -23v58l-7 1zM266 707l84 -19l102 37l-168 37zM268 339 l72 -15v244zM354 17l102 36l-102 21v-57zM354 81l105 -22v105l-64 -23v-1l-1 1l-1 -1v1l-39 8v-68zM354 259l105 38v423l-105 -37v-424zM360 155l29 -7v17zM360 254l33 -7l102 37l-33 7zM395 148l64 23v19l-64 -23v-19zM395 174l64 23v1h3l38 -9v90l-105 -38v-67zM466 173 l30 11l-30 6v-17z" />
<glyph unicode="5" horiz-adv-x="508" d="M12 184v107h1l111 39v1h2l77 -17v67l-191 41v315h1l111 39v1h2v-1l325 -69v-113l-3 1l-110 -39v-2l-66 14v-27l93 -20q44 -9 71.5 -50.5t27.5 -87.5v-229q0 -74 -66 -99v0l-114 -41v1q-17 -6 -36 -6q-16 0 -108 20q-53 11 -90.5 56t-37.5 99zM18 184q0 -47 33 -89l106 38 q-23 30 -29 60q-4 20 -4 67l-106 23v-99zM18 430l106 38v238l-106 23v-299zM25 288l99 -21v56zM26 426l180 -38l101 35l-181 39zM26 734l98 -21v56zM55 90q36 -43 86 -54l82 -18q9 -2 26 -2q48 0 77 38q-75 16 -91 21q-48 16 -74 52zM131 224q0 -39 22 -74v105l-22 4v-35z M131 266l26 -6l46 17v30l-72 16v-57zM131 467l186 -39q-22 38 -66 47l-98 21l1 104l113 40l64 -14v36l-200 43v-238zM131 712l205 -44l101 36l-306 65v-57zM159 156q0 -12 5 -20l39 14v120l-44 -16v-98zM159 504l106 38v28l-106 22v-88zM166 499l86 -18q39 -8 68 -47l106 38 q-26 34 -62 42l-97 21zM167 598l98 -21v56zM168 130q8 -7 20 -7q14 0 15 20zM178 118q27 -28 70 -41q2 0 82 -18q14 23 14 55v229q0 41 -21 76v-233q0 -21 -11 -27v0l-114 -40v0q-5 -2 -10 -2q-6 0 -10 1zM207 129l83 29q-10 3 -16 10l-64 -23q0 -10 -3 -16zM210 152l60 22 q-5 9 -5 23v95l-55 -20v-120zM210 279l48 17l-48 10v-27zM210 313l62 -13v-103q0 -34 28 -34q16 0 16 23v234l-106 -38v-69zM272 575l59 -12v57l-59 12v-57zM313 32l49 17q-14 0 -29 3q-9 -12 -20 -20zM324 429q27 -40 27 -86v-229q0 -32 -14 -56q12 -3 25 -3 q42 0 68.5 28.5t26.5 70.5v229q0 45 -27 83zM338 563l98 34l-98 21v-55zM338 625l106 -23v97l-106 -37v-37z" />
<glyph unicode="6" horiz-adv-x="513" d="M15 196v422q0 73 63 97v1l107 38q25 9 44 9q15 0 29 -3l81 -17q52 -11 90 -56.5t38 -98.5v-64h-1l-48 -17q49 -45 49 -111v-229q0 -70 -61 -96v0l-110 -40q-25 -9 -44 -9q-17 0 -109 20q-53 11 -90.5 56t-37.5 98zM21 196q0 -33 17 -64l107 38q-17 32 -17 67v422 q0 31 13 54q-13 3 -25 3q-42 0 -68.5 -28t-26.5 -70v-422zM41 126q37 -63 103 -77l82 -17q14 -3 26 -3q20 0 38 7v0q22 7 40 32q-86 18 -105 26q-48 20 -77 70zM117 722q14 0 28 -3q7 11 17 20zM134 237q0 -38 22 -73v232q0 22 11 28v0l111 39l12 4h4q-18 14 -40 19l-98 21 v79q0 23 13 28v0q118 42 121 42q6 0 8 -1q-28 27 -69 40q-12 2 -81 17q-14 -23 -14 -51v-424zM152 718q77 -17 87 -20q42 -14 72 -47l107 38q-35 38 -81 48l-81 17q-14 3 -26 3q-19 0 -36 -7v0q-24 -8 -42 -32zM162 167q0 -7 3 -14l41 15v218q0 34 -29 34q-15 0 -15 -22 v-231zM162 516l44 16v43q0 33 -29 33q-15 0 -15 -22v-70zM168 147q10 -12 23 -12q15 0 15 22v4zM168 511l88 -19q49 -11 79 -65l107 38q-13 23 -31 39l-57 -20v-1l-148 31v11zM184 129q28 -26 70 -38q1 -1 80 -18q13 23 13 53v229q0 40 -21 75v-231q0 -17 -7 -24v-1 q-2 -1 -13 -5l-101 -36q-3 -5 -14 -5q-3 0 -7 1zM187 613q13 -3 20 -13l62 22q0 15 3 21zM188 425q11 -4 17 -12l64 23q0 11 2 18zM209 408q4 -9 4 -22v-216l59 21q-3 8 -3 19v219zM210 594q3 -8 3 -60l56 20v61zM211 142l81 29q-12 4 -17 14l-62 -22q0 -14 -2 -21zM213 523 l65 23l-8 2l-57 -21v-4zM220 518l127 -27v40l-57 12zM275 210q0 -29 23 -34q5 -1 7 0l9 3q6 5 6 20v228q0 14 -5 18l-40 -14v-221zM275 438l36 13q-9 10 -21 10q-4 0 -7 -2v-1h-2q-5 -6 -6 -20zM275 553l15 -3l30 11v56q0 8 -3 15l-42 -15v-64zM275 624l38 14q-9 11 -23 11 h-5v-1q-10 -3 -10 -20v-4zM302 547l45 -9v11l-25 6zM316 646q35 -34 38 -91l107 -23v56q0 56 -39 96zM320 47l45 16q-14 0 -28 3q-7 -10 -17 -19zM326 560l21 -4q-2 34 -21 64v-60zM338 421q16 -31 16 -66v-229q0 -31 -13 -54q12 -2 24 -2q42 0 69 27.5t27 69.5v229 q0 33 -15 63zM354 491l51 18q-18 14 -51 21v-39zM354 536q38 -8 59 -24l41 14l-100 22v-12z" />
<glyph unicode="7" horiz-adv-x="495" d="M0 723h1v1l111 39v1h3v-1l349 -74l-200 -635l-112 -39v-1h-2h-1l-146 31l164 518l-166 35zM7 715l1 -108l105 37v49zM12 721l101 -22l-1 57zM13 54l104 37l160 509l-103 -37zM14 602l157 -33l102 36l-157 33zM19 49l128 -27l17 54l-44 9zM119 691l1 -47l167 -35 l-163 -518l42 -9l178 562zM119 698l229 -49l102 36l-331 71v-58zM154 23l98 34l-81 17zM173 81l86 -19l195 618l-104 -37z" />
<glyph unicode="8" horiz-adv-x="513" d="M13 179v107q5 37 31.5 60.5t63.5 25.5q-42 18 -68.5 56.5t-26.5 83.5v88q0 33 19.5 60.5t50.5 38.5v1l114 40q16 5 34 5q13 0 108 -20q53 -11 90.5 -55t37.5 -98v-107q-6 -37 -33 -60.5t-64 -24.5q42 -19 69.5 -57.5t27.5 -83.5v-89q0 -34 -21.5 -62.5t-54.5 -38.5v0 l-114 -41v1q-14 -4 -29 -4q-13 0 -27 3l-81 17q-52 11 -89.5 56t-37.5 98zM20 179q0 -44 28 -83l106 37q-28 41 -28 86v109l-105 -37l-1 -5v-107zM20 512q0 -39 21 -73l106 37q-21 36 -21 76v88q0 31 17 56q-13 3 -25 3q-41 0 -69.5 -29t-28.5 -70v-88zM22 298l106 37 q4 22 17 38l-20 -7v-1q-36 3 -64.5 -15t-38.5 -52zM45 433q30 -45 79 -61l30 11q26 26 66 29l-10 5l-11 -4q-5 -3 -11 -3q-34 0 -34 56l-3 5zM52 90q37 -48 89 -59l81 -17q14 -3 26 -3q46 0 78 38q-80 17 -94 22q-44 16 -74 57zM119 705q13 0 28 -3q8 12 19 20zM132 219 q0 -51 36 -94t86 -54l76 -16q18 24 18 55v89q0 42 -25 78v-85q0 -19 -9 -26l-12 -4l-100 -36q-4 -4 -14 -4q-34 0 -34 40v103q0 24 17 30l95 34q-14 7 -28 11l1 6q-1 1 0 1l86 30q23 25 23 48v107q0 52 -36 94t-87 53l-76 16q-17 -25 -17 -55v-88q0 -40 22 -75v75 q0 23 11 28v0l114 40q4 2 9 2q35 0 35 -40v-102q0 -22 -11 -26l1 -1l-95 -34q10 -4 20 -7l-1 -5l1 -1q-1 0 -1 -1h-1l-79 -28q-25 -25 -25 -51v-107zM154 701q84 -18 103 -26q48 -20 77 -70l106 38q-37 62 -102 76l-81 17q-14 3 -26 3q-47 0 -77 -38zM161 161q0 -10 4 -18 l38 14v98q0 34 -28 34q-2 0 -5 -1q-9 -5 -9 -21v-106zM161 449q0 -6 1 -12l13 5q-7 7 -14 15v-8zM161 468q8 -12 21 -24l21 8v90q0 34 -28 34q-14 0 -14 -24v-84zM165 431q7 -14 23 -14q8 0 12 6q-10 6 -19 14zM168 137q8 -9 20 -9q4 0 7 2l-1 1l4 1q5 5 5 18zM172 390 l43 15q-24 -3 -43 -15zM186 294q12 -4 18 -15l63 23q0 14 3 21zM186 581q13 -4 19 -15l62 22q0 15 3 22zM187 439l15 -11q1 5 1 11v6zM207 273q3 -8 3 -18v-96l61 21q-4 9 -4 22v93zM207 560q3 -8 3 -18v-88l59 21q-2 7 -2 15v91zM208 135l80 29q-9 3 -14 11l-64 -23 q0 -10 -2 -17zM208 425l2 -1l80 28q-13 4 -19 17l-61 -22q0 -16 -2 -22zM257 340q8 -4 17 -9q11 4 14 4q35 0 35 -47q4 -5 6 -9l106 38q-32 46 -83 63l-24 -9q-28 -30 -71 -31zM257 346q35 2 55 20zM273 201q0 -32 27 -33l8 3l1 -1q7 4 7 20v96q-8 11 -18 20l-25 -9v-96z M273 304l19 7q-7 6 -15 11q-4 -6 -4 -15v-3zM273 490q0 -33 28 -33q15 0 15 21v105q0 8 -2 15l-41 -15v-93zM273 590l38 14q-8 12 -23 12t-15 -22v-4zM281 327q10 -7 18 -14l12 4q-8 12 -23 12q-5 0 -7 -2zM305 308q6 -6 11 -12q0 9 -3 15zM314 28l46 17q-13 0 -27 3 q-8 -11 -19 -20zM333 273q21 -35 21 -74v-89q0 -31 -17 -57q12 -2 23 -2q41 0 70.5 29t29.5 70v89q0 38 -21 72zM336 381l17 6q6 -1 12 -1q55 0 82 45l-103 -37q-3 -7 -8 -13zM337 599q17 -32 17 -67v-105q0 -9 -6 -25l104 37q8 17 8 26v107q0 34 -17 65z" />
<glyph unicode="9" horiz-adv-x="514" d="M14 182v65l2 -1v1l48 17q-50 46 -50 112v231q0 76 67 100v0l114 41v-1q16 6 35 6q14 0 28 -3l81 -17q53 -11 90.5 -56.5t37.5 -99.5v-425q0 -80 -72 -101l1 -1l-114 -41l-1 1q-14 -4 -30 -4q-14 0 -109 20q-54 11 -91 56t-37 100zM21 182q0 -57 37 -96l107 38 q-34 37 -37 92l-107 23v-57zM21 376q0 -40 22 -75l107 38q-22 36 -22 78v231q0 31 14 55q-14 3 -26 3q-43 0 -69 -28t-26 -71v-231zM27 244l101 -21v13q-38 8 -58 23zM46 295q11 -16 25 -28l57 20q1 1 2 1v-1l146 -31v-8l36 13l-85 19q-36 8 -53 29q-6 4 -20 24zM62 80 q35 -38 82 -48l81 -17q14 -3 26 -3q50 0 78 39q-77 17 -87 20q-43 14 -72 48zM77 262q18 -13 51 -20v38zM115 712q15 1 30 -3q8 12 19 21zM135 214q2 -34 20 -65v61zM135 221l24 -5l23 8l-47 10v-13zM135 241l59 -13l67 24l-126 27v-38zM135 417q0 -39 20 -74v231 q0 22 12 29v0l114 41v-1q4 3 10 3q3 0 7 -1q-28 27 -69 40q-2 0 -81 17q-13 -23 -13 -54v-231zM152 708q80 -18 90 -21q36 -12 72 -50q2 -3 8 -10l108 38q-37 49 -92 61l-82 18q-14 3 -26 3q-50 0 -78 -39zM162 153q0 -11 4 -19l40 14v71l-12 3l-32 -12v-57zM162 344 q0 -7 2 -13l1 -2l41 15v219q0 35 -29 35q-15 0 -15 -22v-232zM169 324q10 -12 21 -12q16 0 16 22v3zM170 128q6 -8 20 -8q5 0 9 2v1q6 5 7 18zM183 114q27 -27 69 -40q2 -1 81 -17q14 23 14 52v427q0 39 -21 73v-234q0 -21 -11 -27v0h-1l-3 -1q-126 -42 -121 -42h-2 q18 -14 40 -19l98 -21v-80q0 -25 -18 -31l-106 -37q-5 -2 -12 -4q-3 0 -7 1zM187 603q12 -3 19 -13l63 22q0 15 3 22zM206 226l4 -1l59 21v2zM209 318l85 29q-13 4 -19 14l-63 -22q0 -14 -3 -21zM209 584q3 -9 3 -21v-217l60 21q-3 9 -3 19v219zM210 126l83 30q-10 3 -16 10 l-65 -23q0 -10 -2 -17zM212 150l62 22q-5 10 -5 67l-57 -20v-69zM276 196q0 -35 28 -35q16 0 16 22v74l-44 -16v-45zM276 386q0 -34 28 -34q16 0 16 22v231q0 10 -3 17l-41 -14v-222zM276 615l37 13q-9 11 -22 11q-15 0 -15 -24zM316 28l51 18q-15 0 -31 4q-8 -12 -20 -22z M326 621q27 -40 27 -85v-425q0 -31 -13 -55q13 -3 25 -3q42 0 69 28.5t27 70.5v425q0 44 -27 82z" />
<glyph unicode=":" horiz-adv-x="684" d="M7 566l86 39l-2 2l5 -1h1l145 -38l53 183l1 -4l84 38l2 8l66 -285l219 -59l-177 -114l65 -273l-6 -3l-127 153l45 -192l-5 -3l-163 195l-93 -61l1 -3q-43 -18 -94 -44l3 9l-1 1h1l66 238zM14 562l147 -38l-63 76zM22 553l164 -196l83 38l-101 120zM110 596l62 -75l52 -13 l16 54zM124 120l84 55l59 212l-78 -35zM153 131l49 22l4 12zM179 512l98 -116l-2 -5l-58 -210l74 49q37 15 88 43l30 -35l-14 58l168 108l-207 56l-29 122l-11 -40h-1v-1l-86 -38l-1 -3zM212 162l83 55l-4 5l-77 -51zM232 511l75 34l-61 15zM248 567l63 -17l13 45l-30 130z M296 225l4 -4l32 21zM297 741l31 -133l50 169zM304 216l154 -184l-46 191l-33 40q-5 -2 -75 -47zM331 595l29 -126l82 37l-60 261zM365 464l203 -55l82 38l-202 54zM403 292l15 -66l127 -152l-60 255zM436 314l47 22l-1 2l135 87l-40 -18l2 -1zM465 17l90 40l2 -6l-90 -40z " />
<glyph unicode=";" horiz-adv-x="684" d="M7 566l86 39l-2 2l5 -1h1l145 -38l53 183l1 -4l84 38l2 8l66 -285l219 -59l-177 -114l65 -273l-6 -3l-127 153l45 -192l-5 -3l-163 195l-93 -61l1 -3q-43 -18 -94 -44l3 9l-1 1h1l66 238zM14 562l147 -38l-63 76zM22 553l164 -196l83 38l-101 120zM110 596l62 -75l52 -13 l16 54zM124 120l84 55l59 212l-78 -35zM153 131l49 22l4 12zM179 512l98 -116l-2 -5l-58 -210l74 49q37 15 88 43l30 -35l-14 58l168 108l-207 56l-29 122l-11 -40h-1v-1l-86 -38l-1 -3zM212 162l83 55l-4 5l-77 -51zM232 511l75 34l-61 15zM248 567l63 -17l13 45l-30 130z M296 225l4 -4l32 21zM297 741l31 -133l50 169zM304 216l154 -184l-46 191l-33 40q-5 -2 -75 -47zM331 595l29 -126l82 37l-60 261zM365 464l203 -55l82 38l-202 54zM403 292l15 -66l127 -152l-60 255zM436 314l47 22l-1 2l135 87l-40 -18l2 -1zM465 17l90 40l2 -6l-90 -40z " />
<glyph unicode="&#x3c;" horiz-adv-x="684" d="M7 566l86 39l-2 2l5 -1h1l145 -38l53 183l1 -4l84 38l2 8l66 -285l219 -59l-177 -114l65 -273l-6 -3l-127 153l45 -192l-5 -3l-163 195l-93 -61l1 -3q-43 -18 -94 -44l3 9l-1 1h1l66 238zM14 562l147 -38l-63 76zM22 553l164 -196l83 38l-101 120zM110 596l62 -75l52 -13 l16 54zM124 120l84 55l59 212l-78 -35zM153 131l49 22l4 12zM179 512l98 -116l-2 -5l-58 -210l74 49q37 15 88 43l30 -35l-14 58l168 108l-207 56l-29 122l-11 -40h-1v-1l-86 -38l-1 -3zM212 162l83 55l-4 5l-77 -51zM232 511l75 34l-61 15zM248 567l63 -17l13 45l-30 130z M296 225l4 -4l32 21zM297 741l31 -133l50 169zM304 216l154 -184l-46 191l-33 40q-5 -2 -75 -47zM331 595l29 -126l82 37l-60 261zM365 464l203 -55l82 38l-202 54zM403 292l15 -66l127 -152l-60 255zM436 314l47 22l-1 2l135 87l-40 -18l2 -1zM465 17l90 40l2 -6l-90 -40z " />
<glyph unicode="=" horiz-adv-x="684" d="M7 566l86 39l-2 2l5 -1h1l145 -38l53 183l1 -4l84 38l2 8l66 -285l219 -59l-177 -114l65 -273l-6 -3l-127 153l45 -192l-5 -3l-163 195l-93 -61l1 -3q-43 -18 -94 -44l3 9l-1 1h1l66 238zM14 562l147 -38l-63 76zM22 553l164 -196l83 38l-101 120zM110 596l62 -75l52 -13 l16 54zM124 120l84 55l59 212l-78 -35zM153 131l49 22l4 12zM179 512l98 -116l-2 -5l-58 -210l74 49q37 15 88 43l30 -35l-14 58l168 108l-207 56l-29 122l-11 -40h-1v-1l-86 -38l-1 -3zM212 162l83 55l-4 5l-77 -51zM232 511l75 34l-61 15zM248 567l63 -17l13 45l-30 130z M296 225l4 -4l32 21zM297 741l31 -133l50 169zM304 216l154 -184l-46 191l-33 40q-5 -2 -75 -47zM331 595l29 -126l82 37l-60 261zM365 464l203 -55l82 38l-202 54zM403 292l15 -66l127 -152l-60 255zM436 314l47 22l-1 2l135 87l-40 -18l2 -1zM465 17l90 40l2 -6l-90 -40z " />
<glyph unicode="&#x3e;" horiz-adv-x="684" d="M7 566l86 39l-2 2l5 -1h1l145 -38l53 183l1 -4l84 38l2 8l66 -285l219 -59l-177 -114l65 -273l-6 -3l-127 153l45 -192l-5 -3l-163 195l-93 -61l1 -3q-43 -18 -94 -44l3 9l-1 1h1l66 238zM14 562l147 -38l-63 76zM22 553l164 -196l83 38l-101 120zM110 596l62 -75l52 -13 l16 54zM124 120l84 55l59 212l-78 -35zM153 131l49 22l4 12zM179 512l98 -116l-2 -5l-58 -210l74 49q37 15 88 43l30 -35l-14 58l168 108l-207 56l-29 122l-11 -40h-1v-1l-86 -38l-1 -3zM212 162l83 55l-4 5l-77 -51zM232 511l75 34l-61 15zM248 567l63 -17l13 45l-30 130z M296 225l4 -4l32 21zM297 741l31 -133l50 169zM304 216l154 -184l-46 191l-33 40q-5 -2 -75 -47zM331 595l29 -126l82 37l-60 261zM365 464l203 -55l82 38l-202 54zM403 292l15 -66l127 -152l-60 255zM436 314l47 22l-1 2l135 87l-40 -18l2 -1zM465 17l90 40l2 -6l-90 -40z " />
<glyph unicode="?" horiz-adv-x="469" d="M4 473v121q0 71 59 97v1l81 37q26 12 52 12q12 0 26 -3l81 -17q53 -11 90.5 -56.5t37.5 -99.5v-165q0 -59 -47 -82v-1l-84 -38q0 -48 1 -49l-1 -1v1l-47 -21q52 -26 52 -81q0 -41 -34 -56v-1l-82 -37q-18 -8 -30 -8q-36 0 -63 27.5t-27 63.5q0 39 37 56l57 26l-99 20v83 q0 68 56 94l70 32q2 1 5 3v33l-44 -20v-2zM10 481l82 37v118q0 33 15 57q-43 1 -70 -27.5t-27 -71.5v-113zM17 477l128 -27v54l-48 10zM71 228l82 37v78q0 28 9 49q-9 2 -18 2q-34 0 -55 -30q-18 -26 -18 -62v-74zM76 117q0 -21 10 -39l83 38q-12 21 -12 42l1 5q-16 7 -31 7 q-23 0 -37 -15t-14 -38zM76 224l97 -21q10 6 32 14v33l-48 10zM89 73q26 -41 70 -41q11 0 20 4v1q26 11 30 39q-22 11 -37 34zM94 699q8 1 17 1q5 6 10 11zM98 520l47 -10v42q0 22 12 28l-1 1l85 38q3 5 14 5q17 0 27 -13v1l1 -1q7 -10 7 -28v-158h-1l-87 -39v-2l-33 7 q-10 -21 -10 -48v-77l46 -10v27l4 3l85 38v1l3 3l32 -7q7 16 7 38v165q0 52 -36 95t-87 54l-81 17q-11 2 -18 3q-16 -24 -16 -57v-116zM118 699q2 0 97 -20q52 -11 88 -53l83 37q-35 40 -84 51l-82 18q-14 3 -26 3q-21 0 -39 -8v0q-22 -10 -37 -28zM130 177q14 -1 29 -7 q2 14 9 24zM145 400q10 0 20 -2q5 9 11 16zM151 451l44 20v22l-44 9v-51zM151 509l44 -10v43q0 34 -28 34q-16 0 -16 -24v-43zM164 158q0 -49 46 -75v4q0 48 -46 73v-2zM165 167q23 -11 38 -35l83 37q-15 25 -41 36l-33 -15v-2l-34 7q-11 -11 -13 -28zM172 397l23 -5v31 q-10 -4 -23 -26zM173 582q12 -1 20 -11l40 18q0 14 2 20zM184 201l21 -5v15q-4 -1 -8 -3v-1q-6 -3 -13 -6zM197 566q5 -10 5 -68l31 -7v91zM202 393l77 34q-37 8 -45 8q-17 0 -31 -7l1 -1l-2 -1v-33zM202 435q15 7 32 7q9 0 50 -9v150q0 12 -4 20l-41 -18v-99q0 -1 1 -2 l-1 -1v1l-37 -17v-32zM202 474l26 12l-26 5v-17zM205 48l42 19q-16 0 -31 6q-3 -14 -11 -25zM206 126q12 -20 11 -39l-1 -7q16 -6 31 -6q23 0 37 15.5t14 38.5q0 19 -9 36zM212 197l25 11q-11 3 -19 3h-6v-14zM212 218q16 1 34 -6l43 20l-77 16v-30zM212 255l82 -17v38 q-15 -6 -31 -6q-10 0 -51 9v-24zM220 284q34 -8 43 -8q17 0 31 7v34zM239 592l37 17q-8 8 -21 8q-4 0 -7 -1v-1q-9 -3 -9 -20v-3zM300 287q17 11 26 28l-26 5v-33zM307 621q36 -45 36 -97v-165q0 -22 -7 -40q8 -1 16 -1q33 0 53 24t20 58v165q0 50 -35 93zM320 295l37 17 q-12 -1 -24 1q-5 -10 -13 -18z" />
<glyph unicode="@" horiz-adv-x="684" d="M7 566l86 39l-2 2l5 -1h1l145 -38l53 183l1 -4l84 38l2 8l66 -285l219 -59l-177 -114l65 -273l-6 -3l-127 153l45 -192l-5 -3l-163 195l-93 -61l1 -3q-43 -18 -94 -44l3 9l-1 1h1l66 238zM14 562l147 -38l-63 76zM22 553l164 -196l83 38l-101 120zM110 596l62 -75l52 -13 l16 54zM124 120l84 55l59 212l-78 -35zM153 131l49 22l4 12zM179 512l98 -116l-2 -5l-58 -210l74 49q37 15 88 43l30 -35l-14 58l168 108l-207 56l-29 122l-11 -40h-1v-1l-86 -38l-1 -3zM212 162l83 55l-4 5l-77 -51zM232 511l75 34l-61 15zM248 567l63 -17l13 45l-30 130z M296 225l4 -4l32 21zM297 741l31 -133l50 169zM304 216l154 -184l-46 191l-33 40q-5 -2 -75 -47zM331 595l29 -126l82 37l-60 261zM365 464l203 -55l82 38l-202 54zM403 292l15 -66l127 -152l-60 255zM436 314l47 22l-1 2l135 87l-40 -18l2 -1zM465 17l90 40l2 -6l-90 -40z " />
<glyph unicode="A" horiz-adv-x="582" d="M10 100l125 651l5 -1l-1 3l114 40l1 -1l170 -36l120 -703l-4 1l1 -1l-114 -40l-2 6l105 37l-117 25l12 -69l-144 30l-10 75l-1 -5l-7 1v-1l-112 -40v-2zM18 105h1l-1 3v-3zM19 108l111 40l110 574l-100 21zM24 104l121 -26l10 58l-25 5zM137 146l19 -4l6 42l-1 3l119 42 l1 -3l105 -23l-86 506l-53 11l-30 -156l91 45v2l7 -2l28 -277h-2l-92 -48l-1 3v-3l-63 13l25 228zM147 748l95 -20l11 58zM153 80l100 35l-92 20zM162 141l102 -22l4 21l-3 16l-97 20zM168 183l103 -22l10 61zM193 306l44 23l-20 201zM198 301l43 -9l-3 30zM220 558l23 -226 l38 19l26 250zM244 325l4 -34l83 44l-48 10zM248 727l57 -12l106 37l-152 32zM274 138l13 -90l3 -1l-1 2l111 40l-15 105l-108 -38zM278 163l100 36l-91 19zM288 350l48 -10l-24 238zM298 46l119 -26l-11 63h-2zM306 708l106 -620l124 -26l-118 686z" />
<glyph unicode="B" horiz-adv-x="512" d="M10 59v679l3 -1l-1 2l114 40l1 -2l213 -45q52 -11 89.5 -56t37.5 -98v-88q0 -41 -23 -68v-1l-1 -1q-32 -32 -74 -33q43 -19 70.5 -58.5t27.5 -85.5v-88q0 -55 -47 -88q-9 -4 -34 -13l-89 -33q-20 -9 -44 -9q-12 0 -27 3zM17 65zM17 66l106 38v603l-106 23v-664zM21 735 l102 -21v57zM26 62l201 -41q15 -3 26 -3q50 0 77 39l-202 41zM130 705l1 -601l203 -41q14 22 14 52v88q0 38 -22 72v-82q0 -23 -14 -28l1 -2l-107 -37l-1 2q-3 -5 -14 -5q-4 0 -37 7v188l5 -1l81 29l-3 1l1 7l5 -1v1l82 30q23 26 23 65v88q0 39 -23 76q1 -7 1 -15v-118 q0 -21 -11 -27v0l-112 -42v2q-5 -3 -12 -3q-4 0 -37 7v187l2 -1l111 40v1h3q14 -2 39 -10q-35 41 -84 51zM130 712l96 -20q57 -12 97 -65l-2 3l106 39q-33 45 -89 57l-208 44v-58zM161 137l46 16v119q0 22 -13 29q-6 4 -33 9v-173zM161 422h1l-1 2v-2zM161 424l46 17v116 q0 22 -13 30q-6 3 -33 9v-172zM168 601q19 -4 23 -6q11 -4 17 -14l59 22v33zM169 420q19 -4 22 -4q14 0 15 18zM170 133q18 -4 21 -4q13 0 15 17zM171 315q12 -2 32 -13l64 24v8q-8 5 -17 9zM207 297q6 -10 6 -25v-117l54 19v145zM209 420l85 32l-23 4l-58 -20q0 -10 -4 -16 zM210 134l86 30l-24 5l-59 -21q-1 -8 -3 -14zM211 575q2 -8 2 -18v-114l54 19v134zM258 346q5 -3 9 -5v6q-3 0 -9 -1zM267 356zM273 358l7 -2q18 5 33 17zM274 176q27 -6 30 -6q16 0 16 23v92q-16 23 -38 39l-8 -3v-145zM274 328l1 1l-1 1v-2zM274 337l9 -5l25 9q-5 4 -28 9 l-6 -2v-11zM274 598l2 -136q25 -5 28 -5q16 0 16 22v120q0 8 -3 16zM274 605l40 15q-6 9 -40 16v-31zM289 327q17 -13 31 -31v17q0 15 -7 23zM293 354q25 -6 31 -24q2 -6 2 -43q5 -6 9 -12l106 38q-31 54 -88 74l-26 -10q-15 -16 -34 -23zM321 36l42 16q-12 1 -26 3 q-6 -10 -16 -19zM325 624q29 -41 29 -87v-88q0 -35 -17 -60l14 5h1l2 1l1 -1l84 32q22 26 22 64v88q0 45 -30 85zM338 269q16 -32 16 -66v-88q0 -30 -13 -54q13 -2 25 -2q14 0 51 13q2 1 8 6q36 28 36 77v88q0 36 -19 68l2 -4zM371 394q33 1 56 21z" />
<glyph unicode="C" horiz-adv-x="500" d="M10 185v424q0 73 59 96l117 45v-1q17 7 37 7q14 0 109 -20q61 -13 95 -62t34 -93v-104h-1v-1l-111 -41l-80 17v-165l45 17l1 -1l146 -31v-115q0 -67 -58 -93v-2l-111 -41q-21 -9 -45 -9q-13 0 -109 20q-53 11 -90.5 55t-37.5 98zM17 185q0 -44 28 -83l105 39 q-29 41 -29 87v424q0 30 13 53q-12 2 -23 2q-42 0 -68 -28t-26 -70v-424zM49 97q36 -48 91 -59l81 -17q14 -3 26 -3q51 0 79 40q-84 18 -96 22q-43 15 -75 56zM109 713q14 1 28 -2q8 11 19 20zM128 228q0 -40 23 -76v418q0 24 14 28v1q115 43 119 43q9 0 18 -5 q-30 33 -73 47q-4 2 -88 20q-13 -23 -13 -52v-424zM144 709q84 -17 95 -21q45 -16 76 -56l-1 2l105 39q-26 36 -77 53q-9 3 -92 21q-14 3 -27 3q-51 0 -79 -41zM158 157q0 -9 2 -16l42 16v104h2l-1 2l59 22v168l-60 13v93q0 34 -30 34q-14 0 -14 -22v-414zM163 135 q9 -11 23 -11q3 1 12 6q4 6 4 17v3zM180 118q30 -28 71 -37l79 -17q13 22 13 51v110l-23 4q0 -58 -9 -65q-4 -1 -12 -4l-97 -36q-5 -6 -16 -6h-6zM181 598q12 -3 19 -11l62 23q0 13 3 19zM204 581q4 -9 4 -22v-84l54 20v108zM206 133l79 29q-11 4 -16 12l-61 -22 q0 -13 -2 -19zM208 159l58 21q-4 9 -4 62l-54 11v-94zM212 259l50 -11v30zM214 470l48 -10v28zM269 201q0 -34 28 -34l11 4q5 5 5 19v41l-44 9v-39zM269 247l44 -9v59l-44 -17v-33zM269 458l74 -15v59l-27 6l-47 -18v-32zM269 497l44 17v89q0 10 -4 18l-40 -15v-109z M269 613l36 13q-8 9 -21 9q-15 0 -15 -22zM315 36l48 18q-14 0 -30 3q-7 -11 -18 -21zM317 629q22 -29 28 -58q4 -19 4 -64l105 -22v96q0 46 -31 87zM318 617q2 -7 2 -103l23 -5v30q0 41 -25 78zM320 236l27 -6l102 38l-129 28v-60zM337 63q11 -2 22 -2q41 0 68 27.5 t27 68.5v106l-105 -39v-109q0 -30 -12 -52zM349 442l101 37l-101 22v-59z" />
<glyph unicode="D" horiz-adv-x="517" d="M10 59v680h3l113 40v1l217 -46q51 -11 90 -57q26 -32 33 -53q5 -15 5 -45v-424q0 -55 -38 -84q-9 -7 -43 -19l-113 -40v1q-12 -3 -24 -3q-14 0 -28 3zM17 66l109 39v603l-109 23v-665zM26 62l201 -43q14 -3 28 -3q48 0 76 40l-202 43v-1zM26 736l100 -22v58zM133 104 l202 -42q13 22 13 50v429q0 33 -19 66q1 -4 1 -8v-406q0 -24 -14 -29v0l-114 -41l-1 2q-4 -3 -9 -3q-4 0 -36 7v476l3 -1l112 40l1 -4v5q12 -2 35 -8q-35 40 -82 50l-92 19v-602zM133 713l93 -20q62 -13 101 -71l110 39q-38 54 -96 66l-208 44v-58zM162 137l45 16v406 q0 21 -13 29q-5 3 -32 9v-460zM171 133q18 -4 21 -4q12 0 14 17zM171 602q19 -4 23 -6q10 -5 15 -16l63 22v35zM210 133l87 31l-24 5l-60 -21q0 -9 -3 -15zM212 574q1 -7 1 -15v-404l59 21v419zM279 175q26 -6 29 -6q15 0 15 23v408q0 7 -2 13l-42 -15v-423zM279 605l40 14 q-6 11 -40 18v-32zM320 34l46 16q-13 1 -28 4q-8 -11 -18 -20zM331 616q23 -37 23 -77v-425q0 -30 -13 -54q15 -3 28 -3q3 0 10 1t10 1q35 6 55 32.5t20 63.5v424q0 40 -23 76z" />
<glyph unicode="E" horiz-adv-x="453" d="M10 73v674l2 -1l109 39v2l3 -1l2 1v-1l278 -59v-118l3 -6l-3 -1v-2l-4 1l-106 -38v-3l-26 5v-95l118 -25q0 -7 1 -9h-1v-117l-6 1l-104 -37v-4l-8 1v-72l136 -29v-126h-1v-1l-109 -38v-1h-2l-3 -1v2zM17 80l104 37v599l-104 23v-659zM24 744l97 -21v55zM26 76l261 -55v57 l-161 34zM127 715l1 -597l159 -34v46h-1l-1 4l-134 28v150l2 -1v2l114 41l1 -3l1 -1v50l-118 25v172h2l109 39v1h5v-1l20 -4v49zM127 722l167 -36l101 36l-268 57v-57zM158 171l104 37v74l-104 22v-133zM158 436l104 37v94l-104 22v-153zM159 430l117 -25v-1l103 36l-117 25 v1zM162 310l100 -22v57zM165 166l127 -27l101 36l-128 27zM165 594l97 -20v55zM268 287l1 1v56h-1v-57zM268 572l19 -4v57l-19 4v-57zM276 290l92 33l-92 19v-52zM276 349l104 -22v107l-104 -37v-48zM294 20l98 35l-98 21v-56zM294 83l104 -22v109l-104 -37v-50zM294 570 l94 34l-94 20v-54zM294 630l104 -22v108l-104 -37v-49z" />
<glyph unicode="F" horiz-adv-x="451" d="M10 43v675l5 -1l-1 1l112 40v2l289 -62v-126l-6 1v-1l-110 -39v-2l-28 5v-89l119 -25v-127l-3 1l-112 -39l-1 4v-7h-3v-200h-3l-114 -40v-2zM17 48h1l-1 2l109 38v599l-109 23v-662zM24 715l102 -21v57zM27 46l121 -26v60l-16 3zM133 90l15 -4v201h2l114 41v1l3 -1v47 l-119 25v169h2l114 41v1l28 -6v47l-159 33v-595zM133 692l165 -35l105 37l-270 58v-60zM154 21l101 36l-101 21v-57zM154 85l110 -23v194l-110 23v-194zM154 406l2 -1l-1 2l109 39v92l-110 23v-155zM162 284l102 -21v58zM162 566l102 -21v58zM165 403l103 -22l105 38 l-103 22zM271 543l21 -4v59l-21 5v-60zM274 263l101 36l-101 21v-57zM274 327l110 -24v113l-2 1l1 -2l-109 -39v-49zM299 540l99 36l-99 21v-57zM299 604l109 -24v109l-109 -39v-46z" />
<glyph unicode="G" horiz-adv-x="507" d="M10 196v427q0 73 64 98l-1 1l105 38q30 11 47 11q15 0 108 -20q53 -11 90.5 -57t37.5 -100v-104v-1h-1l-86 -31l87 -18v-272q0 -69 -58 -96l1 -2l-113 -40q-28 -10 -45 -10q-14 0 -28 3l-81 17q-53 11 -90 56.5t-37 99.5zM17 196q0 -48 31 -90l108 39l-1 2q-32 49 -32 91 v427q0 30 13 54q-13 3 -25 3q-42 0 -68 -28.5t-26 -70.5v-427zM52 101q24 -34 76 -51q11 -3 92 -21q14 -3 26 -3q51 0 79 41q-76 16 -91 21q-45 16 -74 51zM109 728q15 0 31 -3q7 11 17 20zM130 238q0 -39 21 -74v418q0 23 13 29l-1 2q120 42 123 42q7 0 15 -3 q-29 33 -72 47q-6 1 -86 19q-13 -23 -13 -50v-430zM147 723q78 -16 90 -20q43 -15 73 -52l108 38q-36 44 -87 55l-81 17q-14 3 -25 3q-19 0 -36 -7v0q-25 -8 -42 -34zM158 166q0 -6 1 -12l41 14v198l-21 5v62l5 -1l-1 2l81 29v1l-64 14v94q0 34 -27 34q-15 0 -15 -22v-418z M162 148q11 -14 24 -14q14 0 14 22v5zM180 128q25 -24 70 -37q14 -5 78 -18q13 22 13 50v269l-21 4v-196q0 -16 -7 -24l1 -1q-2 -1 -13 -5l-100 -35q-5 -8 -15 -8q-3 0 -6 1zM180 611q13 -1 20 -13l64 23q0 14 3 21zM185 381l79 27l-79 17v-44zM189 375l16 -3l59 21v9z M192 430l72 -15v41zM203 592q4 -8 4 -20v-89l1 -1v3l56 20v109zM205 143l82 29q-12 4 -17 14l-63 -22q0 -15 -2 -21zM207 171l60 21q-3 8 -3 18v176l-57 -21v-194zM216 481l48 -10v27zM271 210q0 -29 22 -33q3 0 6 -1l8 3q6 6 6 21v198l-9 2l-33 -12v-178zM271 395l20 7 l-15 4l-5 -2v-9zM271 414l4 -1l17 5v40l-13 3l-8 -3v-44zM271 469l7 -1l14 5v3l49 -11v49l-19 4l-51 -18v-31zM271 507l42 15v94q0 7 -2 14l-40 -14v-109zM271 623l37 13q-7 12 -22 12q-4 0 -7 -1h1q-9 -3 -9 -21v-3zM288 410l15 -3l7 2l-15 4zM290 465h2v1zM298 419l22 -5 q-1 -6 1 -8h-1v-3l26 -5l105 37l-89 19l-14 -5v-3l-50 11v-38zM298 463l43 -9v4l-43 10v-5zM313 45l51 18q-16 -1 -32 2q-8 -11 -19 -20zM314 645q22 -29 29 -59q5 -22 5 -66l106 -23v97q0 47 -32 89zM318 628q2 -7 2 -14v-89h2l19 -4v31q0 39 -23 76zM335 72q13 -3 25 -3 q42 0 68 28t26 71v261l-106 -38v-266q0 -30 -13 -53zM348 456l2 1h-2v-1zM348 464l13 -3l87 31l-100 21v-49z" />
<glyph unicode="H" horiz-adv-x="521" d="M10 73v675h3v1l114 40v1l147 -31v-28l48 17v1l147 -31v-676l-3 1v-1l-113 -40v-2l-148 31v30l-47 -17v-3zM17 78zM17 82l110 40v595l-110 23v-658zM21 77l130 -27v60l-24 5zM23 746l104 -23v59zM133 120l18 -4v222l3 -1v2l114 40v1l60 -13v-288l18 -4v595l-18 4v-194 l-2 1l1 -2l-114 -40l-1 2v-3l-61 13v261l-18 3v-595zM133 722l23 -5v1l104 37l-127 27v-60zM158 51l47 17v30l-47 10v-57zM158 115l47 -10v215l-47 10v-215zM158 456zM158 459l47 17v231l4 -1l-1 1l60 21v23l-110 -39v-253zM163 335l47 -10l58 21v27zM164 455l41 -9v23z M212 39l110 39v280l-48 -17v-257l-5 1l1 -1l-58 -21v-24zM212 70l47 17l-47 10v-27zM212 104l56 -12v247l-56 -20v-215zM212 445l105 38l-47 9l-58 -20v-27zM212 479l56 20v188l-56 12v-220zM219 704l49 -10v27zM220 35l126 -27v60l-20 5zM274 348l42 15l-42 9v-24zM274 498 l48 -10v187l-48 10v-187zM274 692l48 -10v59l-48 -17v-32zM328 681l24 -5l106 37l-130 28v-60zM353 9l102 36l-102 22v-58zM353 74l110 -24v658l-110 -39v-595z" />
<glyph unicode="I" horiz-adv-x="327" d="M10 52l1 677l114 40v1l148 -32v-675h-2v-1l-113 -40v-1zM17 57zM17 61l108 39v596l-108 23v-658zM21 725l104 -22v59zM22 56l129 -27v60l-23 5zM132 99l19 -4v596l-19 4v-596zM132 702l22 -5l105 37l-127 28v-60zM158 29l102 36l-102 22v-58zM158 94l108 -23v659 l-108 -39v-597z" />
<glyph unicode="J" horiz-adv-x="518" d="M10 206v117l4 -1v1l112 40v2l76 -16v369h1v2l114 40l1 -3v3l147 -31v-552q0 -63 -49 -92v-1l-114 -40v0q-24 -15 -54 -15q-16 0 -109 20q-54 12 -91.5 57t-37.5 100zM17 206q0 -56 41 -101l108 38q-5 3 -13 21q-5 6 -10 16q-17 33 -17 68v43l-109 24v-109zM24 320 l102 -22v58zM63 99q32 -33 77 -43l82 -18q14 -3 26 -3q51 0 78 41l-83 19q-41 13 -70 43zM133 248q0 -36 18 -69v107l-18 4v-42zM133 297l21 -5l48 17v33l-69 15v-60zM158 177q0 -5 1 -11l3 -4l40 14v126l-44 -15v-110zM166 156q5 -6 10 -9.5t10 -3.5q16 0 16 25v1zM184 137 q31 -30 68 -38q2 -1 78 -17q13 23 13 51v548l-19 4v-475q0 -31 -22 -31q-2 0 -4 1l-94 -34q-5 -9 -18 -9h-2zM207 154l80 29q-9 3 -14 11l-65 -23q0 -11 -1 -17zM208 178l62 22q-3 9 -3 21v105l-59 -21v-127zM208 312l52 18l-52 11v-29zM208 348l66 -14v-113q0 -33 23 -35 l17 6q4 7 4 18v477l-110 23v-362zM212 716l106 -23v61zM317 56l44 15q-12 1 -28 4q-6 -10 -16 -19zM324 692l22 -5l107 38l-129 27v-60zM337 81q13 -3 26 -3q43 0 69.5 28t26.5 71v543l-110 -39v-546q0 -31 -12 -54z" />
<glyph unicode="K" horiz-adv-x="521" d="M10 74v675h1l114 41l1 -3v3l151 -32v-25l43 15v1l151 -32v-219q0 -44 -27.5 -73.5t-71.5 -30.5q43 -19 71 -59.5t28 -86.5v-207l-4 1l-113 -41v-1l-151 32v26l-42 -15v-2zM17 81l109 39v598l-109 23v-660zM23 746l103 -22v59zM25 77l129 -27v59l-25 5zM133 120l21 -5v207 l2 -1l86 30l-5 2l1 6h2v1l83 30q25 26 25 67v214l-22 4v-189q0 -22 -10 -27l1 -1l-114 -40l-1 2q-4 -5 -13 -5q-3 0 -35 7v290l-21 4v-596zM133 723l25 -6l104 37l-129 28v-59zM161 49l42 16v33l-42 9v-58zM161 114l42 -9v171q0 21 -11 29q-5 3 -31 9v-200zM161 430l42 15 v263l3 -1v1l65 23v19l-110 -39v-281zM168 425q18 -4 21 -4q12 0 14 17zM169 319q15 -4 17 -4q10 -4 15 -10l-1 3l71 25v5q-9 5 -20 10zM203 303q7 -10 7 -27v-173l61 -12v235zM207 426l87 31l-22 5l-62 -22q-1 -8 -3 -14zM210 39l110 39v213q-17 23 -38 39l-5 -1v-247l-2 1 l-65 -23v-21zM210 67l53 19l-53 11v-30zM210 447l61 22v218l-61 13v-253zM217 705l54 -11v30zM220 36l128 -28v59l-24 6zM256 359q9 1 14 2q0 -1 1 0v2l4 -1q19 4 35 16zM259 351l12 -6v9q-3 0 -12 -3zM277 341l6 -3l25 8q-4 3 -31 9v-14zM277 468q26 -6 28 -6q15 0 15 23 v191l-43 10v-218zM277 692l43 -9v58l-43 -15v-34zM288 359q29 -6 35 -22q3 -8 3 -44q28 -41 28 -86v-134l110 -24v199q0 48 -32 89.5t-78 56.5l-27 -10q-17 -17 -39 -25zM289 333q17 -13 31 -31v15q0 16 -7 24zM326 79l22 -5v133q0 38 -22 74v-202zM326 682l25 -5l104 37 l-129 27v-59zM335 394l19 7v-2l1 1q47 -4 78 23.5t31 74.5v212l-110 -39v-214q0 -37 -19 -63zM354 8l102 36l-102 22v-58z" />
<glyph unicode="L" horiz-adv-x="433" d="M10 65v679h1l-1 1l110 39v1h2l2 1v-2l144 -30l1 -553l135 -28v-127l-110 -39v-2zM17 75l103 36v603l-103 22v-661zM20 742l100 -22v57zM21 69l266 -56v58l-163 35zM127 112l160 -34v48l-136 29v552l-24 5v-600zM127 719l26 -6l103 37l-129 27v-58zM158 164l103 37v544 l-103 -37v-544zM163 159l127 -27l102 36l-126 27zM294 14l98 35l-98 21v-56zM294 76l103 -22v109l-103 -37v-50z" />
<glyph unicode="M" horiz-adv-x="719" d="M10 130v627h1l103 37v2l216 -46l15 -98l6 33l2 -1v1l102 36l1 2l217 -46v-627h-1l-103 -37v-2l-139 33v45l-81 -29l-1 -2l-118 25l-10 50l-79 -28v-3zM16 138l98 35v556l-98 21v-612zM21 755l93 -20v53zM22 134l113 -24v54l-17 4zM120 174l15 -4v389h1l-1 2l103 36 l-17 109l-101 21v-553zM120 734l101 -22l96 34l-197 42v-54zM141 111l78 28l-1 8l-77 16v-52zM141 169l75 -16l-75 376v-360zM142 557l81 -405l17 -4l-1 443zM224 145l1 -4l8 2zM226 135l9 -44l99 35l-36 179l-8 -3h-6l-38 244v-405h-2zM226 708l18 -110h2l48 -240l32 183 q2 9 11 46q5 22 5 46l-17 110zM242 87l101 -22l11 53l-16 3zM259 502l28 -181l4 20zM291 309l6 2l-3 14zM297 341l6 -28l85 30l-43 272zM304 307l36 -180l15 -3l78 386h2v1l102 37v1l6 -1l-3 -461l23 -5v551l-113 24l-56 -317h-1l1 -1zM348 633l43 -274l53 300l-88 18z M350 67l80 29v5l-70 15zM361 122l69 -14l3 370zM363 682l82 -17l9 49zM436 53l98 35l3 429l-85 -420l-16 -6v-38zM436 98l4 1l-4 1v-2zM436 106l12 -2l88 437l-97 -35zM440 48l123 -29v57l-27 6zM451 663l114 -24l96 34l-201 43zM569 20l92 33l-92 21v-54zM569 81l98 -24 v612l-98 -35v-553z" />
<glyph unicode="N" horiz-adv-x="551" d="M10 81v673h1l110 38v2l2 -1h1l123 -26l20 -58l94 33v1l1 -1l1 1l1 -1l136 -29v-673h-1l-110 -39v-1h-3v1l-123 26l-21 58l-92 -33v-1h-3zM17 88l104 37v599l-104 22v-658zM24 751l97 -21v55zM26 84l118 -25v57l-18 3zM127 126l17 -4l1 233l103 37l-117 329l-4 1v-596z M127 729l7 -2l100 36l-107 23v-57zM138 722l112 -317v298l11 4l-18 52zM150 59l90 32l-2 5l-88 18v-55zM150 121l85 -18l-85 233v-215zM152 351l91 -250l12 -2l-1 287l-4 -1zM245 94l1 -1h2zM248 87l19 -53l105 38l-111 304v-285h-1zM256 395h5v-1l98 35l-93 264l-10 2v-300 zM262 700h2l-1 1zM264 388l115 -316h3v596l-15 3v-245l1 -1zM270 703l1 -5l90 -19v56zM274 691l87 -246v228zM276 31l106 -23v57l-6 1zM367 678l20 -4l100 35l-120 26v-57zM389 8l98 35l-98 20v-55zM389 70l104 -22v656l-104 -37v-597z" />
<glyph unicode="O" horiz-adv-x="501" d="M10 197v423q0 80 72 101v0l94 33q31 11 44 11t27 -3l82 -18q70 -15 109 -88q17 -31 17 -66v-423q0 -69 -60 -95v-2l-113 -40v1q-18 -7 -38 -7q-12 0 -26 3l-82 17q-52 11 -89 55.5t-37 97.5zM17 197q0 -47 32 -89l104 37q-33 43 -33 92v423q0 32 14 56q-12 2 -24 2 q-42 0 -67.5 -28t-25.5 -70v-423zM53 103q37 -43 84 -53l82 -17q14 -3 26 -3q47 0 75 38q-83 18 -90 20q-43 14 -73 52zM112 725q13 0 26 -3q7 10 16 18zM127 237q0 -41 24 -78q-1 6 -1 12v407q0 27 17 30h-1q38 13 113 41l1 -1q35 2 35 -40v-408q0 -17 -7 -25v-1l-111 -39 q-4 -5 -13 -5q-5 0 -12 3q28 -29 70 -42q13 -2 82 -17q14 22 14 53v423q0 51 -35 94.5t-85 53.5l-77 16q-14 -23 -14 -54v-423zM145 720q80 -17 91 -21q47 -16 74 -53l104 37q-26 36 -76 52q-1 0 -92 20q-14 3 -25 3q-13 0 -24 -3v0q-36 -12 -52 -35zM156 169q0 -8 3 -15 l40 14v401q0 11 -4 19l-1 -1l-2 6q-8 9 -21 9q-15 0 -15 -22v-411zM162 148q7 -11 22 -11q7 0 9 3q6 6 6 20v1zM181 607q11 -3 17 -12l62 23q0 11 3 18zM201 590q4 -9 4 -22v-397l58 20q-3 8 -3 19v401zM203 144l80 28q-11 4 -17 13l-61 -21q0 -14 -2 -20zM266 209 q0 -32 28 -32q15 0 15 22v410q0 10 -4 18l-39 -14v-404zM266 620l36 12q-8 9 -21 9q-14 0 -15 -21zM308 46l50 18q-17 -1 -31 3q-8 -12 -19 -21zM314 641q31 -43 31 -91v-423q0 -31 -14 -55q12 -2 24 -2q41 0 67 28t26 69v423q0 47 -30 88z" />
<glyph unicode="P" horiz-adv-x="492" d="M10 48v668l4 3l113 40l206 -44q52 -11 89 -56t37 -98v-162q0 -78 -67 -100l1 -1l-113 -40l-1 1l-10 -3v-195l-4 -3v-1l-113 -40v1zM17 54l106 38v597l-106 23v-658zM25 716l98 -20v55zM27 51l123 -26v57l-22 5zM129 93l21 -4v186l4 3l1 -1l112 41l60 -13q13 22 13 48v168 q0 39 -22 74q2 -7 2 -13v-146q0 -24 -18 -30q-112 -40 -117 -40q-3 0 -35 7l2 213q1 0 2 1v-1l113 41q12 -2 34 -9q-35 41 -82 51l-90 19v-595zM129 694l91 -19q58 -12 97 -66l106 38q-36 50 -91 62l-203 43v-58zM156 26l98 34l-98 21v-55zM156 88l107 -23v190q-8 -1 -16 -1 q-12 0 -91 17v-183zM156 378h1l-1 1v-1zM156 379l44 16v147q0 21 -12 28q-5 4 -32 9v-200zM167 275q68 -15 80 -15q8 0 16 2v47zM167 376q16 -4 18 -4q5 0 8 3v0h1q4 3 6 12zM167 584q16 -3 20 -5q10 -5 15 -15l61 22v32zM204 379l83 29l-19 4l-62 -22q0 -7 -2 -11zM204 558 q3 -7 3 -16v-145l56 20v162zM269 263q34 8 54 36l-54 12v-48zM269 581l1 -163q25 -5 28 -5q15 0 15 21v149q0 7 -2 13zM269 588l40 14q-6 10 -40 18v-32zM310 276l52 18q-14 0 -32 4q-10 -15 -20 -22zM321 603q26 -39 26 -82v-162q0 -33 -13 -55q14 -3 27 -3q41 0 66.5 27 t25.5 68v165q0 42 -26 80z" />
<glyph unicode="Q" horiz-adv-x="504" d="M10 256v391q0 72 63 96v1l113 40v-1q18 7 37 7q13 0 108 -20q53 -11 90 -55.5t37 -97.5v-391q0 -70 -58 -95v-1l-59 -21v-62l-3 -2l-1 -1l-113 -40l-97 21v80q-50 13 -83.5 56.5t-33.5 94.5zM17 256q0 -43 26 -81l106 37q-26 40 -26 84v390q0 31 13 55q-12 3 -26 3 q-41 0 -67 -28t-26 -69v-391zM47 169q33 -45 83 -59l103 37q-48 16 -80 60zM109 750q14 0 31 -3q8 12 20 21zM129 296q0 -38 21 -73v381q0 19 9 26q4 1 10 3l103 37q11 4 12 4q12 0 21 -8q-28 37 -72 53q-13 5 -90 20q-14 -22 -14 -50v-393zM134 32l87 31v24l4 3h2l13 4v49 l-106 -38v-73zM142 28l79 -17v45zM147 745q79 -17 93 -22q44 -16 74 -57l106 38q-36 48 -91 60l-80 17q-14 3 -26 3q-48 0 -76 -39zM156 228q0 -8 3 -15l40 14v367q0 28 -22 32q-5 2 -6 1l-8 -3q-7 -5 -7 -20v-376zM161 207q8 -12 23 -12t15 21v4zM176 190q30 -30 70 -41 v-52l71 25q9 10 13 21v2h1q7 19 7 39v393q0 40 -23 76q3 -8 3 -19v-376q0 -29 -21 -29h-5l-92 -32q-5 -8 -16 -8q-5 0 -8 1zM183 631q11 -3 16 -13l64 23q0 13 2 20zM202 613q3 -9 3 -19v-364l60 21q-2 8 -2 17v366zM204 205l78 28q-9 4 -14 12l-63 -22q0 -13 -1 -18z M228 12l96 35l-81 17l-15 -5v-47zM228 65l12 5v12q-6 1 -12 1v0v-18zM246 70l88 -19v56l-47 -17q-19 -8 -41 -8v-12zM246 88q40 1 61 23l-61 -21v-2zM269 268q0 -27 22 -32l17 6q3 6 3 16v376q0 9 -2 16l-40 -14v-368zM269 643l37 13q-7 11 -22 11q-5 0 -8 -2v-1h-1 q-6 -5 -6 -20v-1zM310 105l24 9v7l-13 -5zM318 661q27 -40 27 -84v-391q0 -20 -6 -38l104 37v-1q8 19 8 42v391q0 43 -27 82zM328 126l8 2l2 2q11 -2 20 -2q57 0 82 49l-104 -37q-3 -7 -8 -14zM341 116l17 6q-9 0 -17 1v-7z" />
<glyph unicode="R" horiz-adv-x="511" d="M10 79v671l114 40l211 -45q53 -11 91 -59.5t38 -102.5v-90q0 -43 -27.5 -72t-70.5 -31q43 -19 70.5 -58.5t27.5 -85.5v-201l-114 -40l-149 32v25l-41 -14v-2zM17 86l106 37v597l-106 22v-656zM23 748l100 -22v57zM26 82l128 -28v58l-27 6zM129 124l25 -5l1 201l81 30l1 5 l-1 1l1 1h1l81 29q26 26 26 67v90q0 52 -37 98.5t-88 57.5l-91 19v-594zM129 725l93 -20q46 -10 82 -49l106 38q-34 36 -77 45l-204 43v-57zM154 419v190l2 -1l111 39v2q33 -7 39 -11q14 -9 14 -34v-121q0 -21 -8 -26q-2 -1 -10 -4l-103 -36q-3 -4 -12 -4q-3 0 -33 6z M160 55l41 14v33l-41 9v-56zM160 117l41 -9v167q0 21 -11 28q-5 4 -30 9v-195zM160 426l41 14v123q0 22 -10 29q-6 3 -31 9v-175zM165 317q17 -3 20 -4q10 -4 16 -11l-1 1l67 23v10q-10 6 -20 10zM168 606q17 -4 20 -5q10 -5 15 -14l64 22v31zM170 422q15 -3 17 -3 q11 0 13 14zM203 297q5 -9 5 -22v-168l59 -13v225zM205 426l82 29l-16 3l-64 -22q0 -6 -2 -10zM205 581q3 -8 3 -18v-120l59 21v138zM208 45l106 38v210q-10 16 -31 32l-10 -3v-236l-3 1l-62 -23v-19zM208 71l50 18l-50 11v-29zM215 41l130 -28v58l-28 6zM255 349 q6 -2 12 -6v8q-4 0 -12 -2zM268 360l4 -1q19 4 34 15l-38 -13v-1zM273 329l3 1l-3 2v-3zM273 339q5 -3 10 -7l23 8q-5 6 -33 12v-13zM273 465q26 -6 27 -5l8 2q6 6 6 20v123q0 7 -2 14l-39 -14v-140zM273 612l37 13q-6 9 -37 16v-29zM285 356q11 -2 28 -13h1q6 -21 6 -48 q7 -9 12 -17l106 38q-31 55 -87 74l-28 -10q-16 -16 -38 -24zM290 328q13 -11 24 -25v12q0 12 -4 20zM308 650q43 -50 43 -107v-90q0 -37 -20 -63l19 6v1q45 -4 76.5 23.5t31.5 72.5v90q0 56 -43 105zM320 82l25 -5v129q0 40 -25 78v-202zM335 272q16 -32 16 -66v-130 l107 -23v193q0 33 -17 64zM351 12l101 36l-101 21v-57z" />
<glyph unicode="S" horiz-adv-x="505" d="M10 199v105h1l85 30q-37 12 -61.5 47t-24.5 74v164q0 78 72 99v0l96 34q31 11 46 11q14 0 108 -20q66 -14 104 -75h1v-1q23 -43 23 -78v-122l-74 -26q34 -17 54 -53t20 -75v-143q0 -67 -56 -95v-1l-113 -40q-28 -10 -44 -10q-9 0 -28 4l-81 17q-52 11 -90 56t-38 98z M17 199q0 -76 69 -125v1l106 38q-70 51 -70 127v33l-105 23v-97zM17 455q0 -35 20 -66l107 38q-22 33 -22 69v164q0 30 13 53q-12 2 -24 2q-41 0 -67.5 -27.5t-26.5 -68.5v-164zM23 301l99 -21v47q-5 1 -15 4zM41 384q27 -37 65 -47l16 6v2l99 -21l83 30l-84 17 q-42 8 -72 51zM92 70q21 -14 47 -19l81 -17q14 -3 27 -3q49 0 77 39q-22 4 -65 13q-35 7 -61 25zM111 722q14 0 28 -3q7 10 17 19zM118 335l4 -1v2zM129 240q0 -38 22 -73q-1 3 -1 100l-21 5v-32zM129 279l27 -6l45 16v21l-72 16v-47zM129 332l72 -15l8 3l-80 17v-5z M129 496q0 -36 21 -67v148q0 18 9 25v1l112 40q3 5 14 5t21 -7q-30 40 -73 51q-17 4 -91 19q-13 -22 -13 -51v-164zM146 717l18 -4q71 -15 83 -20q45 -18 76 -65l107 38q-36 56 -99 70l-81 18q-9 2 -26 2q-14 0 -27 -3v-1q-34 -11 -51 -35zM156 421q23 -34 66 -43l89 -19 q-28 36 -63 43zM157 170q0 -9 3 -17l41 15v114l-44 -16v-96zM157 431l63 22l-19 4v109q0 34 -29 34q-15 0 -15 -21v-148zM163 426l87 -18q44 -9 76 -58l106 38q-23 36 -55 50l-29 -11v-1l-116 25zM164 148q7 -10 22 -10t15 22v1zM178 132q10 -9 21 -17q1 1 1 0 q24 -17 52 -23l76 -16q13 23 13 53v143q0 40 -21 75v-145q0 -22 -9 -25l1 -1l-113 -40q-2 -5 -13 -5q-5 0 -8 1zM183 605q12 -4 18 -12l62 22q0 12 2 19zM204 587q4 -9 4 -21v-100l55 20v122zM205 145l83 29q-11 4 -18 12l-62 -23q0 -12 -3 -18zM208 170l59 21q-4 9 -4 21 v92l-55 -20v-114zM208 291l51 18l-37 8l-14 -5v-21zM213 461l19 -3l31 11v10zM233 321l36 -7v-102q0 -11 4 -18h1q3 -15 25 -15q14 0 14 21v150zM244 455l97 -21v13l-75 16zM269 469l72 -15v39l-25 5l-47 -17v-12zM269 488l44 16v104q0 10 -3 17l-41 -15v-122zM269 617 l38 14q-8 10 -22 10q-5 0 -9 -2q0 -1 -2 -2q-5 -6 -5 -19v-1zM314 49l46 17q-5 0 -14.5 1.5t-14.5 1.5q-7 -11 -17 -20zM317 626q3 -8 3 -19v-103l21 -5v49q0 41 -24 78zM327 622q17 -28 20 -60q1 -10 1 -64l106 -23v114q0 38 -20 71zM329 344q19 -34 19 -72v-143 q0 -31 -13 -54q12 -3 24 -3q42 0 68.5 28t26.5 70v143q0 37 -18 69zM348 434l19 7l-19 4v-11zM348 452q10 -2 29 -7l71 25l-100 21v-39z" />
<glyph unicode="T" horiz-adv-x="510" d="M10 613v126h1l113 40l351 -74v-126h-2l-101 -36v-489h-3l-109 -38v-3l-4 1h-1l-142 31v547zM17 622l105 37v50l-105 22v-109zM23 617l96 -20l101 36l-96 20zM23 737l99 -22v57zM119 52l106 37v538l-106 -37v-538zM128 48l125 -26v57l-24 5zM129 659l102 -22v-547l22 -4 v482h1l102 37v54l-227 48v-48zM129 714l230 -49l101 36l-331 70v-57zM260 23l96 34l-96 21v-55zM260 84l105 -22v479l-2 -1v-2l-3 1l-100 21v-476zM266 566l90 -19v51zM363 547l2 1v53l-2 -1v-53zM363 607l2 1v1l2 -1l101 -21v110l-105 -38v-52zM372 550l89 32l-89 19v-51z " />
<glyph unicode="U" horiz-adv-x="510" d="M10 183v546h1l112 40v1l146 -31v-25l46 16v-1l145 -31v-544q0 -72 -63 -97v-1l-114 -41v1q-17 -7 -36 -7q-13 0 -27 3l-82 17q-62 13 -102 73h-1v2q-25 46 -25 79zM17 183q0 -38 21 -73l107 38q-22 36 -22 76v475l-106 22v-538zM23 726l100 -21v57zM42 104q37 -54 98 -68 l81 -18q13 -3 26 -3q49 0 77 40q-82 17 -100 24q-45 18 -75 63zM129 224q0 -38 22 -73v542l-22 4v-473zM129 704l25 -5l102 36l-127 27v-58zM157 155q0 -8 3 -15l41 15l1 533v2l61 21v19l-106 -37v-538zM163 134q8 -11 23 -11q9 1 9 3v0q6 6 6 19v3zM178 117q30 -30 70 -39 q2 -1 80 -18q14 23 14 53v539l-22 5v-470q0 -22 -10 -26v-1l-111 -39q-2 -5 -13 -5q-5 0 -8 1zM205 130l83 29q-13 3 -19 13l-61 -22q0 -14 -3 -20zM208 157l58 21q-3 8 -3 20v471l-55 12v-524zM212 686l51 -11v30zM269 198q0 -34 29 -34q15 0 15 21l1 473l-45 9v-469z M269 674l45 -9v58l-45 -16v-33zM312 33l50 17q-16 0 -31 3q-8 -11 -19 -20zM320 663l25 -5l102 36l-127 27v-58zM335 59q13 -2 24 -2q42 0 68.5 27.5t26.5 69.5v536l-106 -38v-539q0 -31 -13 -54z" />
<glyph unicode="V" horiz-adv-x="591" d="M10 746l2 -1v1l111 40v1l161 -34l12 -78l2 9h2l-1 1l111 40v1l3 -1l152 -32l-114 -652l-114 -41l-206 44zM18 737l118 -686l107 38l-107 623zM22 743l113 -24l-11 60zM131 779l11 -61l26 -6l103 37zM143 711l107 -620l93 -20l101 576l-37 7l-56 -411h-3v-1l-110 -40 q-2 0 -3 -1v1h-3q-30 247 -67 504zM145 48l187 -40l10 56l-93 20zM172 707l16 -103l30 -185q17 -110 17 -187v-5l58 426q-7 42 -14 92zM239 210l105 37l-48 381zM300 653q0 -1 1 -8l30 -185q17 -111 17 -186v-5l53 387l-98 21zM310 682l92 -20l7 55zM339 9l99 35l-89 19z M350 69l95 -20l111 635l-105 -37zM408 661l40 -9l104 37l-136 29z" />
<glyph unicode="W" horiz-adv-x="819" d="M10 748h2v1l106 38l1 -4v5l147 -32l10 -64h1v1l106 39l150 -32l10 -65h2v1l104 38v1l143 -30l-107 -610h-1v-1l-106 -38l-1 3l-1 -3l-190 40l-6 41l-67 -24l-1 3v-4l-191 40zM18 741l108 -641l103 36l-98 581zM21 746l108 -23l-9 58zM126 780l10 -58l20 -5l99 35zM133 96 l173 -37l7 55l-81 17zM137 715l65 -382q-22 185 -50 379zM158 712l15 -96l28 -174q16 -106 16 -174l-1 -5l56 415l-11 70zM218 239l17 -102l79 -17l29 235h3v1l105 38v1h2q-14 126 -34 260l-39 9l-52 -386q-1 1 -108 -37v1l-1 -3h-1zM220 247l101 36l-46 374zM278 678 q1 -4 4 -23l28 -174q15 -107 15 -174v-4l49 362l-95 20zM285 690l89 -19l8 53zM312 60l68 23l-3 17l-58 13zM320 119l56 -12l-30 224zM349 351l34 -246l32 -7l35 289zM380 670l44 -9l98 35l-134 28zM384 99l2 -13l22 8zM386 79l6 -38h2l-2 4l102 36l-14 102h-1 q-7 62 -24 187l-35 -279h-1zM397 40l174 -37l10 54l-85 18zM426 655l14 -95q22 -149 30 -229q1 -26 8 -91l5 -31l56 411l-11 71zM486 184l14 -104l82 -17l94 538l-30 6l-52 -385h-2v-1zM486 190l101 36l-45 372zM545 620l3 -21l27 -178q19 -131 16 -175l49 362l-94 20z M553 633l88 -19l7 53zM578 3l96 34l-87 19zM588 62l92 -20l104 595l-102 -36zM647 613l33 -7l98 35l-123 26z" />
<glyph unicode="X" horiz-adv-x="581" d="M11 758l111 39v1l1 -1l1 1l1 -1l151 -32l18 -60l100 35l151 -32l-135 -322l123 -346l-3 1l-109 -39l1 -2l-155 33l-13 48l-77 -27l-1 -2l-153 33l122 293zM20 749l130 -367l106 38l-36 100h-1v-1q-1 3 -3 7h1q-7 23 -68 196zM23 755l123 -26l-22 62zM33 93l104 37 l118 282l-104 -36zM38 88l134 -28l15 54l-48 10zM132 789l22 -62l7 -1l101 35zM143 129l45 -9l30 108h1v1l102 36l-29 82l132 316l-50 11l-43 -115h-1l-104 -37l38 -105zM156 720l17 -48l-14 47zM166 720q16 -61 54 -179l60 159h1l7 2l-17 56zM179 62l73 26l-4 12l-55 12z M195 118l51 -11l-27 99zM221 222l33 -116l29 -6l43 151l-3 8zM223 531l1 -2l104 37l-37 125l-7 2zM256 99l2 -9l15 5zM260 84l12 -44l106 37q-15 55 -49 163l-41 -148l-3 1zM282 36l130 -27l-22 61l-8 2zM296 697l74 -16l18 50l-92 -33v-1zM298 690l33 -111l36 96zM300 344 l27 -77l3 1l1 2l18 -66l46 -128l128 -27l-118 333zM301 351l103 37l130 311l-103 -37zM374 114l10 -36h3zM376 680l54 -11l100 35l-134 29zM397 69l22 -61l99 35z" />
<glyph unicode="Y" horiz-adv-x="574" d="M12 743l108 39v1l2 -1l2 1l1 -1l149 -32l18 -61l98 36l153 -32l-134 -326v-318l-113 -40v1l-153 33v316zM20 734l128 -371l104 37l-106 307zM23 740l121 -26l-21 61zM130 774l21 -61l11 -3l100 36zM150 51l103 36v307l-103 -37v-306zM154 706l34 -99l-29 97zM157 46 l135 -28v56l-35 8zM166 705l53 -182l61 162h1l5 2l-16 55zM223 506l37 -106v-312l32 -7l1 248q-1 1 0 1l131 318l-52 11l-42 -114q0 -1 -1 -1v-2l-1 2zM223 513l103 37l-37 127l-5 1zM294 682l74 -15l18 49l-92 -33v-1zM296 675l33 -112l37 97zM299 17l98 35l-98 21v-56z M299 79l103 -22v305l-103 -37v-246zM301 333l102 36l129 314l-101 -36zM375 665l54 -11l100 35l-135 29z" />
<glyph unicode="Z" horiz-adv-x="487" d="M10 625v125h1l112 39l307 -65v-115l-145 -400l161 -34v-128h-2l-111 -39l-300 65v95l138 423zM16 632l106 38v50l-106 22v-110zM24 747l98 -21v56zM25 629l154 -33l100 35l-155 33zM39 80l106 37v85l-106 -38v-84zM41 172l104 37l137 416l-105 -37zM48 76l280 -60v56 l-181 40zM128 669l164 -34l-141 -429v-89l177 -38v52l-164 34l148 406v108l-184 39v-49zM128 725l189 -40l99 35l-288 61v-56zM174 173l104 37l143 393l-104 -37zM181 169l153 -33l99 35l-152 33zM318 573l106 37v106l-106 -38v-105zM334 15l98 35l-98 21v-56zM334 78 l106 -23v112l-106 -38v-51z" />
<glyph unicode="[" horiz-adv-x="684" d="M7 566l86 39l-2 2l5 -1h1l145 -38l53 183l1 -4l84 38l2 8l66 -285l219 -59l-177 -114l65 -273l-6 -3l-127 153l45 -192l-5 -3l-163 195l-93 -61l1 -3q-43 -18 -94 -44l3 9l-1 1h1l66 238zM14 562l147 -38l-63 76zM22 553l164 -196l83 38l-101 120zM110 596l62 -75l52 -13 l16 54zM124 120l84 55l59 212l-78 -35zM153 131l49 22l4 12zM179 512l98 -116l-2 -5l-58 -210l74 49q37 15 88 43l30 -35l-14 58l168 108l-207 56l-29 122l-11 -40h-1v-1l-86 -38l-1 -3zM212 162l83 55l-4 5l-77 -51zM232 511l75 34l-61 15zM248 567l63 -17l13 45l-30 130z M296 225l4 -4l32 21zM297 741l31 -133l50 169zM304 216l154 -184l-46 191l-33 40q-5 -2 -75 -47zM331 595l29 -126l82 37l-60 261zM365 464l203 -55l82 38l-202 54zM403 292l15 -66l127 -152l-60 255zM436 314l47 22l-1 2l135 87l-40 -18l2 -1zM465 17l90 40l2 -6l-90 -40z " />
<glyph unicode="\" horiz-adv-x="684" d="M7 566l86 39l-2 2l5 -1h1l145 -38l53 183l1 -4l84 38l2 8l66 -285l219 -59l-177 -114l65 -273l-6 -3l-127 153l45 -192l-5 -3l-163 195l-93 -61l1 -3q-43 -18 -94 -44l3 9l-1 1h1l66 238zM14 562l147 -38l-63 76zM22 553l164 -196l83 38l-101 120zM110 596l62 -75l52 -13 l16 54zM124 120l84 55l59 212l-78 -35zM153 131l49 22l4 12zM179 512l98 -116l-2 -5l-58 -210l74 49q37 15 88 43l30 -35l-14 58l168 108l-207 56l-29 122l-11 -40h-1v-1l-86 -38l-1 -3zM212 162l83 55l-4 5l-77 -51zM232 511l75 34l-61 15zM248 567l63 -17l13 45l-30 130z M296 225l4 -4l32 21zM297 741l31 -133l50 169zM304 216l154 -184l-46 191l-33 40q-5 -2 -75 -47zM331 595l29 -126l82 37l-60 261zM365 464l203 -55l82 38l-202 54zM403 292l15 -66l127 -152l-60 255zM436 314l47 22l-1 2l135 87l-40 -18l2 -1zM465 17l90 40l2 -6l-90 -40z " />
<glyph unicode="]" horiz-adv-x="684" d="M7 566l86 39l-2 2l5 -1h1l145 -38l53 183l1 -4l84 38l2 8l66 -285l219 -59l-177 -114l65 -273l-6 -3l-127 153l45 -192l-5 -3l-163 195l-93 -61l1 -3q-43 -18 -94 -44l3 9l-1 1h1l66 238zM14 562l147 -38l-63 76zM22 553l164 -196l83 38l-101 120zM110 596l62 -75l52 -13 l16 54zM124 120l84 55l59 212l-78 -35zM153 131l49 22l4 12zM179 512l98 -116l-2 -5l-58 -210l74 49q37 15 88 43l30 -35l-14 58l168 108l-207 56l-29 122l-11 -40h-1v-1l-86 -38l-1 -3zM212 162l83 55l-4 5l-77 -51zM232 511l75 34l-61 15zM248 567l63 -17l13 45l-30 130z M296 225l4 -4l32 21zM297 741l31 -133l50 169zM304 216l154 -184l-46 191l-33 40q-5 -2 -75 -47zM331 595l29 -126l82 37l-60 261zM365 464l203 -55l82 38l-202 54zM403 292l15 -66l127 -152l-60 255zM436 314l47 22l-1 2l135 87l-40 -18l2 -1zM465 17l90 40l2 -6l-90 -40z " />
<glyph unicode="^" horiz-adv-x="684" d="M7 566l86 39l-2 2l5 -1h1l145 -38l53 183l1 -4l84 38l2 8l66 -285l219 -59l-177 -114l65 -273l-6 -3l-127 153l45 -192l-5 -3l-163 195l-93 -61l1 -3q-43 -18 -94 -44l3 9l-1 1h1l66 238zM14 562l147 -38l-63 76zM22 553l164 -196l83 38l-101 120zM110 596l62 -75l52 -13 l16 54zM124 120l84 55l59 212l-78 -35zM153 131l49 22l4 12zM179 512l98 -116l-2 -5l-58 -210l74 49q37 15 88 43l30 -35l-14 58l168 108l-207 56l-29 122l-11 -40h-1v-1l-86 -38l-1 -3zM212 162l83 55l-4 5l-77 -51zM232 511l75 34l-61 15zM248 567l63 -17l13 45l-30 130z M296 225l4 -4l32 21zM297 741l31 -133l50 169zM304 216l154 -184l-46 191l-33 40q-5 -2 -75 -47zM331 595l29 -126l82 37l-60 261zM365 464l203 -55l82 38l-202 54zM403 292l15 -66l127 -152l-60 255zM436 314l47 22l-1 2l135 87l-40 -18l2 -1zM465 17l90 40l2 -6l-90 -40z " />
<glyph unicode="_" horiz-adv-x="684" d="M7 566l86 39l-2 2l5 -1h1l145 -38l53 183l1 -4l84 38l2 8l66 -285l219 -59l-177 -114l65 -273l-6 -3l-127 153l45 -192l-5 -3l-163 195l-93 -61l1 -3q-43 -18 -94 -44l3 9l-1 1h1l66 238zM14 562l147 -38l-63 76zM22 553l164 -196l83 38l-101 120zM110 596l62 -75l52 -13 l16 54zM124 120l84 55l59 212l-78 -35zM153 131l49 22l4 12zM179 512l98 -116l-2 -5l-58 -210l74 49q37 15 88 43l30 -35l-14 58l168 108l-207 56l-29 122l-11 -40h-1v-1l-86 -38l-1 -3zM212 162l83 55l-4 5l-77 -51zM232 511l75 34l-61 15zM248 567l63 -17l13 45l-30 130z M296 225l4 -4l32 21zM297 741l31 -133l50 169zM304 216l154 -184l-46 191l-33 40q-5 -2 -75 -47zM331 595l29 -126l82 37l-60 261zM365 464l203 -55l82 38l-202 54zM403 292l15 -66l127 -152l-60 255zM436 314l47 22l-1 2l135 87l-40 -18l2 -1zM465 17l90 40l2 -6l-90 -40z " />
<glyph unicode="`" horiz-adv-x="684" d="M7 566l86 39l-2 2l5 -1h1l145 -38l53 183l1 -4l84 38l2 8l66 -285l219 -59l-177 -114l65 -273l-6 -3l-127 153l45 -192l-5 -3l-163 195l-93 -61l1 -3q-43 -18 -94 -44l3 9l-1 1h1l66 238zM14 562l147 -38l-63 76zM22 553l164 -196l83 38l-101 120zM110 596l62 -75l52 -13 l16 54zM124 120l84 55l59 212l-78 -35zM153 131l49 22l4 12zM179 512l98 -116l-2 -5l-58 -210l74 49q37 15 88 43l30 -35l-14 58l168 108l-207 56l-29 122l-11 -40h-1v-1l-86 -38l-1 -3zM212 162l83 55l-4 5l-77 -51zM232 511l75 34l-61 15zM248 567l63 -17l13 45l-30 130z M296 225l4 -4l32 21zM297 741l31 -133l50 169zM304 216l154 -184l-46 191l-33 40q-5 -2 -75 -47zM331 595l29 -126l82 37l-60 261zM365 464l203 -55l82 38l-202 54zM403 292l15 -66l127 -152l-60 255zM436 314l47 22l-1 2l135 87l-40 -18l2 -1zM465 17l90 40l2 -6l-90 -40z " />
<glyph unicode="a" horiz-adv-x="582" d="M10 100l125 651l5 -1l-1 3l114 40l1 -1l170 -36l120 -703l-4 1l1 -1l-114 -40l-2 6l105 37l-117 25l12 -69l-144 30l-10 75l-1 -5l-7 1v-1l-112 -40v-2zM18 105h1l-1 3v-3zM19 108l111 40l110 574l-100 21zM24 104l121 -26l10 58l-25 5zM137 146l19 -4l6 42l-1 3l119 42 l1 -3l105 -23l-86 506l-53 11l-30 -156l91 45v2l7 -2l28 -277h-2l-92 -48l-1 3v-3l-63 13l25 228zM147 748l95 -20l11 58zM153 80l100 35l-92 20zM162 141l102 -22l4 21l-3 16l-97 20zM168 183l103 -22l10 61zM193 306l44 23l-20 201zM198 301l43 -9l-3 30zM220 558l23 -226 l38 19l26 250zM244 325l4 -34l83 44l-48 10zM248 727l57 -12l106 37l-152 32zM274 138l13 -90l3 -1l-1 2l111 40l-15 105l-108 -38zM278 163l100 36l-91 19zM288 350l48 -10l-24 238zM298 46l119 -26l-11 63h-2zM306 708l106 -620l124 -26l-118 686z" />
<glyph unicode="b" horiz-adv-x="512" d="M10 59v679l3 -1l-1 2l114 40l1 -2l213 -45q52 -11 89.5 -56t37.5 -98v-88q0 -41 -23 -68v-1l-1 -1q-32 -32 -74 -33q43 -19 70.5 -58.5t27.5 -85.5v-88q0 -55 -47 -88q-9 -4 -34 -13l-89 -33q-20 -9 -44 -9q-12 0 -27 3zM17 65zM17 66l106 38v603l-106 23v-664zM21 735 l102 -21v57zM26 62l201 -41q15 -3 26 -3q50 0 77 39l-202 41zM130 705l1 -601l203 -41q14 22 14 52v88q0 38 -22 72v-82q0 -23 -14 -28l1 -2l-107 -37l-1 2q-3 -5 -14 -5q-4 0 -37 7v188l5 -1l81 29l-3 1l1 7l5 -1v1l82 30q23 26 23 65v88q0 39 -23 76q1 -7 1 -15v-118 q0 -21 -11 -27v0l-112 -42v2q-5 -3 -12 -3q-4 0 -37 7v187l2 -1l111 40v1h3q14 -2 39 -10q-35 41 -84 51zM130 712l96 -20q57 -12 97 -65l-2 3l106 39q-33 45 -89 57l-208 44v-58zM161 137l46 16v119q0 22 -13 29q-6 4 -33 9v-173zM161 422h1l-1 2v-2zM161 424l46 17v116 q0 22 -13 30q-6 3 -33 9v-172zM168 601q19 -4 23 -6q11 -4 17 -14l59 22v33zM169 420q19 -4 22 -4q14 0 15 18zM170 133q18 -4 21 -4q13 0 15 17zM171 315q12 -2 32 -13l64 24v8q-8 5 -17 9zM207 297q6 -10 6 -25v-117l54 19v145zM209 420l85 32l-23 4l-58 -20q0 -10 -4 -16 zM210 134l86 30l-24 5l-59 -21q-1 -8 -3 -14zM211 575q2 -8 2 -18v-114l54 19v134zM258 346q5 -3 9 -5v6q-3 0 -9 -1zM267 356zM273 358l7 -2q18 5 33 17zM274 176q27 -6 30 -6q16 0 16 23v92q-16 23 -38 39l-8 -3v-145zM274 328l1 1l-1 1v-2zM274 337l9 -5l25 9q-5 4 -28 9 l-6 -2v-11zM274 598l2 -136q25 -5 28 -5q16 0 16 22v120q0 8 -3 16zM274 605l40 15q-6 9 -40 16v-31zM289 327q17 -13 31 -31v17q0 15 -7 23zM293 354q25 -6 31 -24q2 -6 2 -43q5 -6 9 -12l106 38q-31 54 -88 74l-26 -10q-15 -16 -34 -23zM321 36l42 16q-12 1 -26 3 q-6 -10 -16 -19zM325 624q29 -41 29 -87v-88q0 -35 -17 -60l14 5h1l2 1l1 -1l84 32q22 26 22 64v88q0 45 -30 85zM338 269q16 -32 16 -66v-88q0 -30 -13 -54q13 -2 25 -2q14 0 51 13q2 1 8 6q36 28 36 77v88q0 36 -19 68l2 -4zM371 394q33 1 56 21z" />
<glyph unicode="c" horiz-adv-x="500" d="M10 185v424q0 73 59 96l117 45v-1q17 7 37 7q14 0 109 -20q61 -13 95 -62t34 -93v-104h-1v-1l-111 -41l-80 17v-165l45 17l1 -1l146 -31v-115q0 -67 -58 -93v-2l-111 -41q-21 -9 -45 -9q-13 0 -109 20q-53 11 -90.5 55t-37.5 98zM17 185q0 -44 28 -83l105 39 q-29 41 -29 87v424q0 30 13 53q-12 2 -23 2q-42 0 -68 -28t-26 -70v-424zM49 97q36 -48 91 -59l81 -17q14 -3 26 -3q51 0 79 40q-84 18 -96 22q-43 15 -75 56zM109 713q14 1 28 -2q8 11 19 20zM128 228q0 -40 23 -76v418q0 24 14 28v1q115 43 119 43q9 0 18 -5 q-30 33 -73 47q-4 2 -88 20q-13 -23 -13 -52v-424zM144 709q84 -17 95 -21q45 -16 76 -56l-1 2l105 39q-26 36 -77 53q-9 3 -92 21q-14 3 -27 3q-51 0 -79 -41zM158 157q0 -9 2 -16l42 16v104h2l-1 2l59 22v168l-60 13v93q0 34 -30 34q-14 0 -14 -22v-414zM163 135 q9 -11 23 -11q3 1 12 6q4 6 4 17v3zM180 118q30 -28 71 -37l79 -17q13 22 13 51v110l-23 4q0 -58 -9 -65q-4 -1 -12 -4l-97 -36q-5 -6 -16 -6h-6zM181 598q12 -3 19 -11l62 23q0 13 3 19zM204 581q4 -9 4 -22v-84l54 20v108zM206 133l79 29q-11 4 -16 12l-61 -22 q0 -13 -2 -19zM208 159l58 21q-4 9 -4 62l-54 11v-94zM212 259l50 -11v30zM214 470l48 -10v28zM269 201q0 -34 28 -34l11 4q5 5 5 19v41l-44 9v-39zM269 247l44 -9v59l-44 -17v-33zM269 458l74 -15v59l-27 6l-47 -18v-32zM269 497l44 17v89q0 10 -4 18l-40 -15v-109z M269 613l36 13q-8 9 -21 9q-15 0 -15 -22zM315 36l48 18q-14 0 -30 3q-7 -11 -18 -21zM317 629q22 -29 28 -58q4 -19 4 -64l105 -22v96q0 46 -31 87zM318 617q2 -7 2 -103l23 -5v30q0 41 -25 78zM320 236l27 -6l102 38l-129 28v-60zM337 63q11 -2 22 -2q41 0 68 27.5 t27 68.5v106l-105 -39v-109q0 -30 -12 -52zM349 442l101 37l-101 22v-59z" />
<glyph unicode="d" horiz-adv-x="517" d="M10 59v680h3l113 40v1l217 -46q51 -11 90 -57q26 -32 33 -53q5 -15 5 -45v-424q0 -55 -38 -84q-9 -7 -43 -19l-113 -40v1q-12 -3 -24 -3q-14 0 -28 3zM17 66l109 39v603l-109 23v-665zM26 62l201 -43q14 -3 28 -3q48 0 76 40l-202 43v-1zM26 736l100 -22v58zM133 104 l202 -42q13 22 13 50v429q0 33 -19 66q1 -4 1 -8v-406q0 -24 -14 -29v0l-114 -41l-1 2q-4 -3 -9 -3q-4 0 -36 7v476l3 -1l112 40l1 -4v5q12 -2 35 -8q-35 40 -82 50l-92 19v-602zM133 713l93 -20q62 -13 101 -71l110 39q-38 54 -96 66l-208 44v-58zM162 137l45 16v406 q0 21 -13 29q-5 3 -32 9v-460zM171 133q18 -4 21 -4q12 0 14 17zM171 602q19 -4 23 -6q10 -5 15 -16l63 22v35zM210 133l87 31l-24 5l-60 -21q0 -9 -3 -15zM212 574q1 -7 1 -15v-404l59 21v419zM279 175q26 -6 29 -6q15 0 15 23v408q0 7 -2 13l-42 -15v-423zM279 605l40 14 q-6 11 -40 18v-32zM320 34l46 16q-13 1 -28 4q-8 -11 -18 -20zM331 616q23 -37 23 -77v-425q0 -30 -13 -54q15 -3 28 -3q3 0 10 1t10 1q35 6 55 32.5t20 63.5v424q0 40 -23 76z" />
<glyph unicode="e" horiz-adv-x="453" d="M10 73v674l2 -1l109 39v2l3 -1l2 1v-1l278 -59v-118l3 -6l-3 -1v-2l-4 1l-106 -38v-3l-26 5v-95l118 -25q0 -7 1 -9h-1v-117l-6 1l-104 -37v-4l-8 1v-72l136 -29v-126h-1v-1l-109 -38v-1h-2l-3 -1v2zM17 80l104 37v599l-104 23v-659zM24 744l97 -21v55zM26 76l261 -55v57 l-161 34zM127 715l1 -597l159 -34v46h-1l-1 4l-134 28v150l2 -1v2l114 41l1 -3l1 -1v50l-118 25v172h2l109 39v1h5v-1l20 -4v49zM127 722l167 -36l101 36l-268 57v-57zM158 171l104 37v74l-104 22v-133zM158 436l104 37v94l-104 22v-153zM159 430l117 -25v-1l103 36l-117 25 v1zM162 310l100 -22v57zM165 166l127 -27l101 36l-128 27zM165 594l97 -20v55zM268 287l1 1v56h-1v-57zM268 572l19 -4v57l-19 4v-57zM276 290l92 33l-92 19v-52zM276 349l104 -22v107l-104 -37v-48zM294 20l98 35l-98 21v-56zM294 83l104 -22v109l-104 -37v-50zM294 570 l94 34l-94 20v-54zM294 630l104 -22v108l-104 -37v-49z" />
<glyph unicode="f" horiz-adv-x="451" d="M10 43v675l5 -1l-1 1l112 40v2l289 -62v-126l-6 1v-1l-110 -39v-2l-28 5v-89l119 -25v-127l-3 1l-112 -39l-1 4v-7h-3v-200h-3l-114 -40v-2zM17 48h1l-1 2l109 38v599l-109 23v-662zM24 715l102 -21v57zM27 46l121 -26v60l-16 3zM133 90l15 -4v201h2l114 41v1l3 -1v47 l-119 25v169h2l114 41v1l28 -6v47l-159 33v-595zM133 692l165 -35l105 37l-270 58v-60zM154 21l101 36l-101 21v-57zM154 85l110 -23v194l-110 23v-194zM154 406l2 -1l-1 2l109 39v92l-110 23v-155zM162 284l102 -21v58zM162 566l102 -21v58zM165 403l103 -22l105 38 l-103 22zM271 543l21 -4v59l-21 5v-60zM274 263l101 36l-101 21v-57zM274 327l110 -24v113l-2 1l1 -2l-109 -39v-49zM299 540l99 36l-99 21v-57zM299 604l109 -24v109l-109 -39v-46z" />
<glyph unicode="g" horiz-adv-x="507" d="M10 196v427q0 73 64 98l-1 1l105 38q30 11 47 11q15 0 108 -20q53 -11 90.5 -57t37.5 -100v-104v-1h-1l-86 -31l87 -18v-272q0 -69 -58 -96l1 -2l-113 -40q-28 -10 -45 -10q-14 0 -28 3l-81 17q-53 11 -90 56.5t-37 99.5zM17 196q0 -48 31 -90l108 39l-1 2q-32 49 -32 91 v427q0 30 13 54q-13 3 -25 3q-42 0 -68 -28.5t-26 -70.5v-427zM52 101q24 -34 76 -51q11 -3 92 -21q14 -3 26 -3q51 0 79 41q-76 16 -91 21q-45 16 -74 51zM109 728q15 0 31 -3q7 11 17 20zM130 238q0 -39 21 -74v418q0 23 13 29l-1 2q120 42 123 42q7 0 15 -3 q-29 33 -72 47q-6 1 -86 19q-13 -23 -13 -50v-430zM147 723q78 -16 90 -20q43 -15 73 -52l108 38q-36 44 -87 55l-81 17q-14 3 -25 3q-19 0 -36 -7v0q-25 -8 -42 -34zM158 166q0 -6 1 -12l41 14v198l-21 5v62l5 -1l-1 2l81 29v1l-64 14v94q0 34 -27 34q-15 0 -15 -22v-418z M162 148q11 -14 24 -14q14 0 14 22v5zM180 128q25 -24 70 -37q14 -5 78 -18q13 22 13 50v269l-21 4v-196q0 -16 -7 -24l1 -1q-2 -1 -13 -5l-100 -35q-5 -8 -15 -8q-3 0 -6 1zM180 611q13 -1 20 -13l64 23q0 14 3 21zM185 381l79 27l-79 17v-44zM189 375l16 -3l59 21v9z M192 430l72 -15v41zM203 592q4 -8 4 -20v-89l1 -1v3l56 20v109zM205 143l82 29q-12 4 -17 14l-63 -22q0 -15 -2 -21zM207 171l60 21q-3 8 -3 18v176l-57 -21v-194zM216 481l48 -10v27zM271 210q0 -29 22 -33q3 0 6 -1l8 3q6 6 6 21v198l-9 2l-33 -12v-178zM271 395l20 7 l-15 4l-5 -2v-9zM271 414l4 -1l17 5v40l-13 3l-8 -3v-44zM271 469l7 -1l14 5v3l49 -11v49l-19 4l-51 -18v-31zM271 507l42 15v94q0 7 -2 14l-40 -14v-109zM271 623l37 13q-7 12 -22 12q-4 0 -7 -1h1q-9 -3 -9 -21v-3zM288 410l15 -3l7 2l-15 4zM290 465h2v1zM298 419l22 -5 q-1 -6 1 -8h-1v-3l26 -5l105 37l-89 19l-14 -5v-3l-50 11v-38zM298 463l43 -9v4l-43 10v-5zM313 45l51 18q-16 -1 -32 2q-8 -11 -19 -20zM314 645q22 -29 29 -59q5 -22 5 -66l106 -23v97q0 47 -32 89zM318 628q2 -7 2 -14v-89h2l19 -4v31q0 39 -23 76zM335 72q13 -3 25 -3 q42 0 68 28t26 71v261l-106 -38v-266q0 -30 -13 -53zM348 456l2 1h-2v-1zM348 464l13 -3l87 31l-100 21v-49z" />
<glyph unicode="h" horiz-adv-x="521" d="M10 73v675h3v1l114 40v1l147 -31v-28l48 17v1l147 -31v-676l-3 1v-1l-113 -40v-2l-148 31v30l-47 -17v-3zM17 78zM17 82l110 40v595l-110 23v-658zM21 77l130 -27v60l-24 5zM23 746l104 -23v59zM133 120l18 -4v222l3 -1v2l114 40v1l60 -13v-288l18 -4v595l-18 4v-194 l-2 1l1 -2l-114 -40l-1 2v-3l-61 13v261l-18 3v-595zM133 722l23 -5v1l104 37l-127 27v-60zM158 51l47 17v30l-47 10v-57zM158 115l47 -10v215l-47 10v-215zM158 456zM158 459l47 17v231l4 -1l-1 1l60 21v23l-110 -39v-253zM163 335l47 -10l58 21v27zM164 455l41 -9v23z M212 39l110 39v280l-48 -17v-257l-5 1l1 -1l-58 -21v-24zM212 70l47 17l-47 10v-27zM212 104l56 -12v247l-56 -20v-215zM212 445l105 38l-47 9l-58 -20v-27zM212 479l56 20v188l-56 12v-220zM219 704l49 -10v27zM220 35l126 -27v60l-20 5zM274 348l42 15l-42 9v-24zM274 498 l48 -10v187l-48 10v-187zM274 692l48 -10v59l-48 -17v-32zM328 681l24 -5l106 37l-130 28v-60zM353 9l102 36l-102 22v-58zM353 74l110 -24v658l-110 -39v-595z" />
<glyph unicode="i" horiz-adv-x="327" d="M10 52l1 677l114 40v1l148 -32v-675h-2v-1l-113 -40v-1zM17 57zM17 61l108 39v596l-108 23v-658zM21 725l104 -22v59zM22 56l129 -27v60l-23 5zM132 99l19 -4v596l-19 4v-596zM132 702l22 -5l105 37l-127 28v-60zM158 29l102 36l-102 22v-58zM158 94l108 -23v659 l-108 -39v-597z" />
<glyph unicode="j" horiz-adv-x="518" d="M10 206v117l4 -1v1l112 40v2l76 -16v369h1v2l114 40l1 -3v3l147 -31v-552q0 -63 -49 -92v-1l-114 -40v0q-24 -15 -54 -15q-16 0 -109 20q-54 12 -91.5 57t-37.5 100zM17 206q0 -56 41 -101l108 38q-5 3 -13 21q-5 6 -10 16q-17 33 -17 68v43l-109 24v-109zM24 320 l102 -22v58zM63 99q32 -33 77 -43l82 -18q14 -3 26 -3q51 0 78 41l-83 19q-41 13 -70 43zM133 248q0 -36 18 -69v107l-18 4v-42zM133 297l21 -5l48 17v33l-69 15v-60zM158 177q0 -5 1 -11l3 -4l40 14v126l-44 -15v-110zM166 156q5 -6 10 -9.5t10 -3.5q16 0 16 25v1zM184 137 q31 -30 68 -38q2 -1 78 -17q13 23 13 51v548l-19 4v-475q0 -31 -22 -31q-2 0 -4 1l-94 -34q-5 -9 -18 -9h-2zM207 154l80 29q-9 3 -14 11l-65 -23q0 -11 -1 -17zM208 178l62 22q-3 9 -3 21v105l-59 -21v-127zM208 312l52 18l-52 11v-29zM208 348l66 -14v-113q0 -33 23 -35 l17 6q4 7 4 18v477l-110 23v-362zM212 716l106 -23v61zM317 56l44 15q-12 1 -28 4q-6 -10 -16 -19zM324 692l22 -5l107 38l-129 27v-60zM337 81q13 -3 26 -3q43 0 69.5 28t26.5 71v543l-110 -39v-546q0 -31 -12 -54z" />
<glyph unicode="k" horiz-adv-x="521" d="M10 74v675h1l114 41l1 -3v3l151 -32v-25l43 15v1l151 -32v-219q0 -44 -27.5 -73.5t-71.5 -30.5q43 -19 71 -59.5t28 -86.5v-207l-4 1l-113 -41v-1l-151 32v26l-42 -15v-2zM17 81l109 39v598l-109 23v-660zM23 746l103 -22v59zM25 77l129 -27v59l-25 5zM133 120l21 -5v207 l2 -1l86 30l-5 2l1 6h2v1l83 30q25 26 25 67v214l-22 4v-189q0 -22 -10 -27l1 -1l-114 -40l-1 2q-4 -5 -13 -5q-3 0 -35 7v290l-21 4v-596zM133 723l25 -6l104 37l-129 28v-59zM161 49l42 16v33l-42 9v-58zM161 114l42 -9v171q0 21 -11 29q-5 3 -31 9v-200zM161 430l42 15 v263l3 -1v1l65 23v19l-110 -39v-281zM168 425q18 -4 21 -4q12 0 14 17zM169 319q15 -4 17 -4q10 -4 15 -10l-1 3l71 25v5q-9 5 -20 10zM203 303q7 -10 7 -27v-173l61 -12v235zM207 426l87 31l-22 5l-62 -22q-1 -8 -3 -14zM210 39l110 39v213q-17 23 -38 39l-5 -1v-247l-2 1 l-65 -23v-21zM210 67l53 19l-53 11v-30zM210 447l61 22v218l-61 13v-253zM217 705l54 -11v30zM220 36l128 -28v59l-24 6zM256 359q9 1 14 2q0 -1 1 0v2l4 -1q19 4 35 16zM259 351l12 -6v9q-3 0 -12 -3zM277 341l6 -3l25 8q-4 3 -31 9v-14zM277 468q26 -6 28 -6q15 0 15 23 v191l-43 10v-218zM277 692l43 -9v58l-43 -15v-34zM288 359q29 -6 35 -22q3 -8 3 -44q28 -41 28 -86v-134l110 -24v199q0 48 -32 89.5t-78 56.5l-27 -10q-17 -17 -39 -25zM289 333q17 -13 31 -31v15q0 16 -7 24zM326 79l22 -5v133q0 38 -22 74v-202zM326 682l25 -5l104 37 l-129 27v-59zM335 394l19 7v-2l1 1q47 -4 78 23.5t31 74.5v212l-110 -39v-214q0 -37 -19 -63zM354 8l102 36l-102 22v-58z" />
<glyph unicode="l" horiz-adv-x="404" d="M10 65v679h1l-1 1l110 39v1h2l2 1v-2l144 -30l1 -553l135 -28v-127l-110 -39v-2zM17 75l103 36v603l-103 22v-661zM20 742l100 -22v57zM21 69l266 -56v58l-163 35zM127 112l160 -34v48l-136 29v552l-24 5v-600zM127 719l26 -6l103 37l-129 27v-58zM158 164l103 37v544 l-103 -37v-544zM163 159l127 -27l102 36l-126 27zM294 14l98 35l-98 21v-56zM294 76l103 -22v109l-103 -37v-50z" />
<glyph unicode="m" horiz-adv-x="719" d="M10 130v627h1l103 37v2l216 -46l15 -98l6 33l2 -1v1l102 36l1 2l217 -46v-627h-1l-103 -37v-2l-139 33v45l-81 -29l-1 -2l-118 25l-10 50l-79 -28v-3zM16 138l98 35v556l-98 21v-612zM21 755l93 -20v53zM22 134l113 -24v54l-17 4zM120 174l15 -4v389h1l-1 2l103 36 l-17 109l-101 21v-553zM120 734l101 -22l96 34l-197 42v-54zM141 111l78 28l-1 8l-77 16v-52zM141 169l75 -16l-75 376v-360zM142 557l81 -405l17 -4l-1 443zM224 145l1 -4l8 2zM226 135l9 -44l99 35l-36 179l-8 -3h-6l-38 244v-405h-2zM226 708l18 -110h2l48 -240l32 183 q2 9 11 46q5 22 5 46l-17 110zM242 87l101 -22l11 53l-16 3zM259 502l28 -181l4 20zM291 309l6 2l-3 14zM297 341l6 -28l85 30l-43 272zM304 307l36 -180l15 -3l78 386h2v1l102 37v1l6 -1l-3 -461l23 -5v551l-113 24l-56 -317h-1l1 -1zM348 633l43 -274l53 300l-88 18z M350 67l80 29v5l-70 15zM361 122l69 -14l3 370zM363 682l82 -17l9 49zM436 53l98 35l3 429l-85 -420l-16 -6v-38zM436 98l4 1l-4 1v-2zM436 106l12 -2l88 437l-97 -35zM440 48l123 -29v57l-27 6zM451 663l114 -24l96 34l-201 43zM569 20l92 33l-92 21v-54zM569 81l98 -24 v612l-98 -35v-553z" />
<glyph unicode="n" horiz-adv-x="551" d="M10 81v673h1l110 38v2l2 -1h1l123 -26l20 -58l94 33v1l1 -1l1 1l1 -1l136 -29v-673h-1l-110 -39v-1h-3v1l-123 26l-21 58l-92 -33v-1h-3zM17 88l104 37v599l-104 22v-658zM24 751l97 -21v55zM26 84l118 -25v57l-18 3zM127 126l17 -4l1 233l103 37l-117 329l-4 1v-596z M127 729l7 -2l100 36l-107 23v-57zM138 722l112 -317v298l11 4l-18 52zM150 59l90 32l-2 5l-88 18v-55zM150 121l85 -18l-85 233v-215zM152 351l91 -250l12 -2l-1 287l-4 -1zM245 94l1 -1h2zM248 87l19 -53l105 38l-111 304v-285h-1zM256 395h5v-1l98 35l-93 264l-10 2v-300 zM262 700h2l-1 1zM264 388l115 -316h3v596l-15 3v-245l1 -1zM270 703l1 -5l90 -19v56zM274 691l87 -246v228zM276 31l106 -23v57l-6 1zM367 678l20 -4l100 35l-120 26v-57zM389 8l98 35l-98 20v-55zM389 70l104 -22v656l-104 -37v-597z" />
<glyph unicode="o" horiz-adv-x="501" d="M10 197v423q0 80 72 101v0l94 33q31 11 44 11t27 -3l82 -18q70 -15 109 -88q17 -31 17 -66v-423q0 -69 -60 -95v-2l-113 -40v1q-18 -7 -38 -7q-12 0 -26 3l-82 17q-52 11 -89 55.5t-37 97.5zM17 197q0 -47 32 -89l104 37q-33 43 -33 92v423q0 32 14 56q-12 2 -24 2 q-42 0 -67.5 -28t-25.5 -70v-423zM53 103q37 -43 84 -53l82 -17q14 -3 26 -3q47 0 75 38q-83 18 -90 20q-43 14 -73 52zM112 725q13 0 26 -3q7 10 16 18zM127 237q0 -41 24 -78q-1 6 -1 12v407q0 27 17 30h-1q38 13 113 41l1 -1q35 2 35 -40v-408q0 -17 -7 -25v-1l-111 -39 q-4 -5 -13 -5q-5 0 -12 3q28 -29 70 -42q13 -2 82 -17q14 22 14 53v423q0 51 -35 94.5t-85 53.5l-77 16q-14 -23 -14 -54v-423zM145 720q80 -17 91 -21q47 -16 74 -53l104 37q-26 36 -76 52q-1 0 -92 20q-14 3 -25 3q-13 0 -24 -3v0q-36 -12 -52 -35zM156 169q0 -8 3 -15 l40 14v401q0 11 -4 19l-1 -1l-2 6q-8 9 -21 9q-15 0 -15 -22v-411zM162 148q7 -11 22 -11q7 0 9 3q6 6 6 20v1zM181 607q11 -3 17 -12l62 23q0 11 3 18zM201 590q4 -9 4 -22v-397l58 20q-3 8 -3 19v401zM203 144l80 28q-11 4 -17 13l-61 -21q0 -14 -2 -20zM266 209 q0 -32 28 -32q15 0 15 22v410q0 10 -4 18l-39 -14v-404zM266 620l36 12q-8 9 -21 9q-14 0 -15 -21zM308 46l50 18q-17 -1 -31 3q-8 -12 -19 -21zM314 641q31 -43 31 -91v-423q0 -31 -14 -55q12 -2 24 -2q41 0 67 28t26 69v423q0 47 -30 88z" />
<glyph unicode="p" horiz-adv-x="492" d="M10 48v668l4 3l113 40l206 -44q52 -11 89 -56t37 -98v-162q0 -78 -67 -100l1 -1l-113 -40l-1 1l-10 -3v-195l-4 -3v-1l-113 -40v1zM17 54l106 38v597l-106 23v-658zM25 716l98 -20v55zM27 51l123 -26v57l-22 5zM129 93l21 -4v186l4 3l1 -1l112 41l60 -13q13 22 13 48v168 q0 39 -22 74q2 -7 2 -13v-146q0 -24 -18 -30q-112 -40 -117 -40q-3 0 -35 7l2 213q1 0 2 1v-1l113 41q12 -2 34 -9q-35 41 -82 51l-90 19v-595zM129 694l91 -19q58 -12 97 -66l106 38q-36 50 -91 62l-203 43v-58zM156 26l98 34l-98 21v-55zM156 88l107 -23v190q-8 -1 -16 -1 q-12 0 -91 17v-183zM156 378h1l-1 1v-1zM156 379l44 16v147q0 21 -12 28q-5 4 -32 9v-200zM167 275q68 -15 80 -15q8 0 16 2v47zM167 376q16 -4 18 -4q5 0 8 3v0h1q4 3 6 12zM167 584q16 -3 20 -5q10 -5 15 -15l61 22v32zM204 379l83 29l-19 4l-62 -22q0 -7 -2 -11zM204 558 q3 -7 3 -16v-145l56 20v162zM269 263q34 8 54 36l-54 12v-48zM269 581l1 -163q25 -5 28 -5q15 0 15 21v149q0 7 -2 13zM269 588l40 14q-6 10 -40 18v-32zM310 276l52 18q-14 0 -32 4q-10 -15 -20 -22zM321 603q26 -39 26 -82v-162q0 -33 -13 -55q14 -3 27 -3q41 0 66.5 27 t25.5 68v165q0 42 -26 80z" />
<glyph unicode="q" horiz-adv-x="504" d="M10 256v391q0 72 63 96v1l113 40v-1q18 7 37 7q13 0 108 -20q53 -11 90 -55.5t37 -97.5v-391q0 -70 -58 -95v-1l-59 -21v-62l-3 -2l-1 -1l-113 -40l-97 21v80q-50 13 -83.5 56.5t-33.5 94.5zM17 256q0 -43 26 -81l106 37q-26 40 -26 84v390q0 31 13 55q-12 3 -26 3 q-41 0 -67 -28t-26 -69v-391zM47 169q33 -45 83 -59l103 37q-48 16 -80 60zM109 750q14 0 31 -3q8 12 20 21zM129 296q0 -38 21 -73v381q0 19 9 26q4 1 10 3l103 37q11 4 12 4q12 0 21 -8q-28 37 -72 53q-13 5 -90 20q-14 -22 -14 -50v-393zM134 32l87 31v24l4 3h2l13 4v49 l-106 -38v-73zM142 28l79 -17v45zM147 745q79 -17 93 -22q44 -16 74 -57l106 38q-36 48 -91 60l-80 17q-14 3 -26 3q-48 0 -76 -39zM156 228q0 -8 3 -15l40 14v367q0 28 -22 32q-5 2 -6 1l-8 -3q-7 -5 -7 -20v-376zM161 207q8 -12 23 -12t15 21v4zM176 190q30 -30 70 -41 v-52l71 25q9 10 13 21v2h1q7 19 7 39v393q0 40 -23 76q3 -8 3 -19v-376q0 -29 -21 -29h-5l-92 -32q-5 -8 -16 -8q-5 0 -8 1zM183 631q11 -3 16 -13l64 23q0 13 2 20zM202 613q3 -9 3 -19v-364l60 21q-2 8 -2 17v366zM204 205l78 28q-9 4 -14 12l-63 -22q0 -13 -1 -18z M228 12l96 35l-81 17l-15 -5v-47zM228 65l12 5v12q-6 1 -12 1v0v-18zM246 70l88 -19v56l-47 -17q-19 -8 -41 -8v-12zM246 88q40 1 61 23l-61 -21v-2zM269 268q0 -27 22 -32l17 6q3 6 3 16v376q0 9 -2 16l-40 -14v-368zM269 643l37 13q-7 11 -22 11q-5 0 -8 -2v-1h-1 q-6 -5 -6 -20v-1zM310 105l24 9v7l-13 -5zM318 661q27 -40 27 -84v-391q0 -20 -6 -38l104 37v-1q8 19 8 42v391q0 43 -27 82zM328 126l8 2l2 2q11 -2 20 -2q57 0 82 49l-104 -37q-3 -7 -8 -14zM341 116l17 6q-9 0 -17 1v-7z" />
<glyph unicode="r" horiz-adv-x="511" d="M10 79v671l114 40l211 -45q53 -11 91 -59.5t38 -102.5v-90q0 -43 -27.5 -72t-70.5 -31q43 -19 70.5 -58.5t27.5 -85.5v-201l-114 -40l-149 32v25l-41 -14v-2zM17 86l106 37v597l-106 22v-656zM23 748l100 -22v57zM26 82l128 -28v58l-27 6zM129 124l25 -5l1 201l81 30l1 5 l-1 1l1 1h1l81 29q26 26 26 67v90q0 52 -37 98.5t-88 57.5l-91 19v-594zM129 725l93 -20q46 -10 82 -49l106 38q-34 36 -77 45l-204 43v-57zM154 419v190l2 -1l111 39v2q33 -7 39 -11q14 -9 14 -34v-121q0 -21 -8 -26q-2 -1 -10 -4l-103 -36q-3 -4 -12 -4q-3 0 -33 6z M160 55l41 14v33l-41 9v-56zM160 117l41 -9v167q0 21 -11 28q-5 4 -30 9v-195zM160 426l41 14v123q0 22 -10 29q-6 3 -31 9v-175zM165 317q17 -3 20 -4q10 -4 16 -11l-1 1l67 23v10q-10 6 -20 10zM168 606q17 -4 20 -5q10 -5 15 -14l64 22v31zM170 422q15 -3 17 -3 q11 0 13 14zM203 297q5 -9 5 -22v-168l59 -13v225zM205 426l82 29l-16 3l-64 -22q0 -6 -2 -10zM205 581q3 -8 3 -18v-120l59 21v138zM208 45l106 38v210q-10 16 -31 32l-10 -3v-236l-3 1l-62 -23v-19zM208 71l50 18l-50 11v-29zM215 41l130 -28v58l-28 6zM255 349 q6 -2 12 -6v8q-4 0 -12 -2zM268 360l4 -1q19 4 34 15l-38 -13v-1zM273 329l3 1l-3 2v-3zM273 339q5 -3 10 -7l23 8q-5 6 -33 12v-13zM273 465q26 -6 27 -5l8 2q6 6 6 20v123q0 7 -2 14l-39 -14v-140zM273 612l37 13q-6 9 -37 16v-29zM285 356q11 -2 28 -13h1q6 -21 6 -48 q7 -9 12 -17l106 38q-31 55 -87 74l-28 -10q-16 -16 -38 -24zM290 328q13 -11 24 -25v12q0 12 -4 20zM308 650q43 -50 43 -107v-90q0 -37 -20 -63l19 6v1q45 -4 76.5 23.5t31.5 72.5v90q0 56 -43 105zM320 82l25 -5v129q0 40 -25 78v-202zM335 272q16 -32 16 -66v-130 l107 -23v193q0 33 -17 64zM351 12l101 36l-101 21v-57z" />
<glyph unicode="s" horiz-adv-x="505" d="M10 199v105h1l85 30q-37 12 -61.5 47t-24.5 74v164q0 78 72 99v0l96 34q31 11 46 11q14 0 108 -20q66 -14 104 -75h1v-1q23 -43 23 -78v-122l-74 -26q34 -17 54 -53t20 -75v-143q0 -67 -56 -95v-1l-113 -40q-28 -10 -44 -10q-9 0 -28 4l-81 17q-52 11 -90 56t-38 98z M17 199q0 -76 69 -125v1l106 38q-70 51 -70 127v33l-105 23v-97zM17 455q0 -35 20 -66l107 38q-22 33 -22 69v164q0 30 13 53q-12 2 -24 2q-41 0 -67.5 -27.5t-26.5 -68.5v-164zM23 301l99 -21v47q-5 1 -15 4zM41 384q27 -37 65 -47l16 6v2l99 -21l83 30l-84 17 q-42 8 -72 51zM92 70q21 -14 47 -19l81 -17q14 -3 27 -3q49 0 77 39q-22 4 -65 13q-35 7 -61 25zM111 722q14 0 28 -3q7 10 17 19zM118 335l4 -1v2zM129 240q0 -38 22 -73q-1 3 -1 100l-21 5v-32zM129 279l27 -6l45 16v21l-72 16v-47zM129 332l72 -15l8 3l-80 17v-5z M129 496q0 -36 21 -67v148q0 18 9 25v1l112 40q3 5 14 5t21 -7q-30 40 -73 51q-17 4 -91 19q-13 -22 -13 -51v-164zM146 717l18 -4q71 -15 83 -20q45 -18 76 -65l107 38q-36 56 -99 70l-81 18q-9 2 -26 2q-14 0 -27 -3v-1q-34 -11 -51 -35zM156 421q23 -34 66 -43l89 -19 q-28 36 -63 43zM157 170q0 -9 3 -17l41 15v114l-44 -16v-96zM157 431l63 22l-19 4v109q0 34 -29 34q-15 0 -15 -21v-148zM163 426l87 -18q44 -9 76 -58l106 38q-23 36 -55 50l-29 -11v-1l-116 25zM164 148q7 -10 22 -10t15 22v1zM178 132q10 -9 21 -17q1 1 1 0 q24 -17 52 -23l76 -16q13 23 13 53v143q0 40 -21 75v-145q0 -22 -9 -25l1 -1l-113 -40q-2 -5 -13 -5q-5 0 -8 1zM183 605q12 -4 18 -12l62 22q0 12 2 19zM204 587q4 -9 4 -21v-100l55 20v122zM205 145l83 29q-11 4 -18 12l-62 -23q0 -12 -3 -18zM208 170l59 21q-4 9 -4 21 v92l-55 -20v-114zM208 291l51 18l-37 8l-14 -5v-21zM213 461l19 -3l31 11v10zM233 321l36 -7v-102q0 -11 4 -18h1q3 -15 25 -15q14 0 14 21v150zM244 455l97 -21v13l-75 16zM269 469l72 -15v39l-25 5l-47 -17v-12zM269 488l44 16v104q0 10 -3 17l-41 -15v-122zM269 617 l38 14q-8 10 -22 10q-5 0 -9 -2q0 -1 -2 -2q-5 -6 -5 -19v-1zM314 49l46 17q-5 0 -14.5 1.5t-14.5 1.5q-7 -11 -17 -20zM317 626q3 -8 3 -19v-103l21 -5v49q0 41 -24 78zM327 622q17 -28 20 -60q1 -10 1 -64l106 -23v114q0 38 -20 71zM329 344q19 -34 19 -72v-143 q0 -31 -13 -54q12 -3 24 -3q42 0 68.5 28t26.5 70v143q0 37 -18 69zM348 434l19 7l-19 4v-11zM348 452q10 -2 29 -7l71 25l-100 21v-39z" />
<glyph unicode="t" horiz-adv-x="510" d="M10 613v126h1l113 40l351 -74v-126h-2l-101 -36v-489h-3l-109 -38v-3l-4 1h-1l-142 31v547zM17 622l105 37v50l-105 22v-109zM23 617l96 -20l101 36l-96 20zM23 737l99 -22v57zM119 52l106 37v538l-106 -37v-538zM128 48l125 -26v57l-24 5zM129 659l102 -22v-547l22 -4 v482h1l102 37v54l-227 48v-48zM129 714l230 -49l101 36l-331 70v-57zM260 23l96 34l-96 21v-55zM260 84l105 -22v479l-2 -1v-2l-3 1l-100 21v-476zM266 566l90 -19v51zM363 547l2 1v53l-2 -1v-53zM363 607l2 1v1l2 -1l101 -21v110l-105 -38v-52zM372 550l89 32l-89 19v-51z " />
<glyph unicode="u" horiz-adv-x="510" d="M10 183v546h1l112 40v1l146 -31v-25l46 16v-1l145 -31v-544q0 -72 -63 -97v-1l-114 -41v1q-17 -7 -36 -7q-13 0 -27 3l-82 17q-62 13 -102 73h-1v2q-25 46 -25 79zM17 183q0 -38 21 -73l107 38q-22 36 -22 76v475l-106 22v-538zM23 726l100 -21v57zM42 104q37 -54 98 -68 l81 -18q13 -3 26 -3q49 0 77 40q-82 17 -100 24q-45 18 -75 63zM129 224q0 -38 22 -73v542l-22 4v-473zM129 704l25 -5l102 36l-127 27v-58zM157 155q0 -8 3 -15l41 15l1 533v2l61 21v19l-106 -37v-538zM163 134q8 -11 23 -11q9 1 9 3v0q6 6 6 19v3zM178 117q30 -30 70 -39 q2 -1 80 -18q14 23 14 53v539l-22 5v-470q0 -22 -10 -26v-1l-111 -39q-2 -5 -13 -5q-5 0 -8 1zM205 130l83 29q-13 3 -19 13l-61 -22q0 -14 -3 -20zM208 157l58 21q-3 8 -3 20v471l-55 12v-524zM212 686l51 -11v30zM269 198q0 -34 29 -34q15 0 15 21l1 473l-45 9v-469z M269 674l45 -9v58l-45 -16v-33zM312 33l50 17q-16 0 -31 3q-8 -11 -19 -20zM320 663l25 -5l102 36l-127 27v-58zM335 59q13 -2 24 -2q42 0 68.5 27.5t26.5 69.5v536l-106 -38v-539q0 -31 -13 -54z" />
<glyph unicode="v" horiz-adv-x="591" d="M10 746l2 -1v1l111 40v1l161 -34l12 -78l2 9h2l-1 1l111 40v1l3 -1l152 -32l-114 -652l-114 -41l-206 44zM18 737l118 -686l107 38l-107 623zM22 743l113 -24l-11 60zM131 779l11 -61l26 -6l103 37zM143 711l107 -620l93 -20l101 576l-37 7l-56 -411h-3v-1l-110 -40 q-2 0 -3 -1v1h-3q-30 247 -67 504zM145 48l187 -40l10 56l-93 20zM172 707l16 -103l30 -185q17 -110 17 -187v-5l58 426q-7 42 -14 92zM239 210l105 37l-48 381zM300 653q0 -1 1 -8l30 -185q17 -111 17 -186v-5l53 387l-98 21zM310 682l92 -20l7 55zM339 9l99 35l-89 19z M350 69l95 -20l111 635l-105 -37zM408 661l40 -9l104 37l-136 29z" />
<glyph unicode="w" horiz-adv-x="819" d="M10 748h2v1l106 38l1 -4v5l147 -32l10 -64h1v1l106 39l150 -32l10 -65h2v1l104 38v1l143 -30l-107 -610h-1v-1l-106 -38l-1 3l-1 -3l-190 40l-6 41l-67 -24l-1 3v-4l-191 40zM18 741l108 -641l103 36l-98 581zM21 746l108 -23l-9 58zM126 780l10 -58l20 -5l99 35zM133 96 l173 -37l7 55l-81 17zM137 715l65 -382q-22 185 -50 379zM158 712l15 -96l28 -174q16 -106 16 -174l-1 -5l56 415l-11 70zM218 239l17 -102l79 -17l29 235h3v1l105 38v1h2q-14 126 -34 260l-39 9l-52 -386q-1 1 -108 -37v1l-1 -3h-1zM220 247l101 36l-46 374zM278 678 q1 -4 4 -23l28 -174q15 -107 15 -174v-4l49 362l-95 20zM285 690l89 -19l8 53zM312 60l68 23l-3 17l-58 13zM320 119l56 -12l-30 224zM349 351l34 -246l32 -7l35 289zM380 670l44 -9l98 35l-134 28zM384 99l2 -13l22 8zM386 79l6 -38h2l-2 4l102 36l-14 102h-1 q-7 62 -24 187l-35 -279h-1zM397 40l174 -37l10 54l-85 18zM426 655l14 -95q22 -149 30 -229q1 -26 8 -91l5 -31l56 411l-11 71zM486 184l14 -104l82 -17l94 538l-30 6l-52 -385h-2v-1zM486 190l101 36l-45 372zM545 620l3 -21l27 -178q19 -131 16 -175l49 362l-94 20z M553 633l88 -19l7 53zM578 3l96 34l-87 19zM588 62l92 -20l104 595l-102 -36zM647 613l33 -7l98 35l-123 26z" />
<glyph unicode="x" horiz-adv-x="581" d="M11 758l111 39v1l1 -1l1 1l1 -1l151 -32l18 -60l100 35l151 -32l-135 -322l123 -346l-3 1l-109 -39l1 -2l-155 33l-13 48l-77 -27l-1 -2l-153 33l122 293zM20 749l130 -367l106 38l-36 100h-1v-1q-1 3 -3 7h1q-7 23 -68 196zM23 755l123 -26l-22 62zM33 93l104 37 l118 282l-104 -36zM38 88l134 -28l15 54l-48 10zM132 789l22 -62l7 -1l101 35zM143 129l45 -9l30 108h1v1l102 36l-29 82l132 316l-50 11l-43 -115h-1l-104 -37l38 -105zM156 720l17 -48l-14 47zM166 720q16 -61 54 -179l60 159h1l7 2l-17 56zM179 62l73 26l-4 12l-55 12z M195 118l51 -11l-27 99zM221 222l33 -116l29 -6l43 151l-3 8zM223 531l1 -2l104 37l-37 125l-7 2zM256 99l2 -9l15 5zM260 84l12 -44l106 37q-15 55 -49 163l-41 -148l-3 1zM282 36l130 -27l-22 61l-8 2zM296 697l74 -16l18 50l-92 -33v-1zM298 690l33 -111l36 96zM300 344 l27 -77l3 1l1 2l18 -66l46 -128l128 -27l-118 333zM301 351l103 37l130 311l-103 -37zM374 114l10 -36h3zM376 680l54 -11l100 35l-134 29zM397 69l22 -61l99 35z" />
<glyph unicode="y" horiz-adv-x="574" d="M12 743l108 39v1l2 -1l2 1l1 -1l149 -32l18 -61l98 36l153 -32l-134 -326v-318l-113 -40v1l-153 33v316zM20 734l128 -371l104 37l-106 307zM23 740l121 -26l-21 61zM130 774l21 -61l11 -3l100 36zM150 51l103 36v307l-103 -37v-306zM154 706l34 -99l-29 97zM157 46 l135 -28v56l-35 8zM166 705l53 -182l61 162h1l5 2l-16 55zM223 506l37 -106v-312l32 -7l1 248q-1 1 0 1l131 318l-52 11l-42 -114q0 -1 -1 -1v-2l-1 2zM223 513l103 37l-37 127l-5 1zM294 682l74 -15l18 49l-92 -33v-1zM296 675l33 -112l37 97zM299 17l98 35l-98 21v-56z M299 79l103 -22v305l-103 -37v-246zM301 333l102 36l129 314l-101 -36zM375 665l54 -11l100 35l-135 29z" />
<glyph unicode="z" horiz-adv-x="470" d="M10 625v125h1l112 39l307 -65v-115l-145 -400l161 -34v-128h-2l-111 -39l-300 65v95l138 423zM16 632l106 38v50l-106 22v-110zM24 747l98 -21v56zM25 629l154 -33l100 35l-155 33zM39 80l106 37v85l-106 -38v-84zM41 172l104 37l137 416l-105 -37zM48 76l280 -60v56 l-181 40zM128 669l164 -34l-141 -429v-89l177 -38v52l-164 34l148 406v108l-184 39v-49zM128 725l189 -40l99 35l-288 61v-56zM174 173l104 37l143 393l-104 -37zM181 169l153 -33l99 35l-152 33zM318 573l106 37v106l-106 -38v-105zM334 15l98 35l-98 21v-56zM334 78 l106 -23v112l-106 -38v-51z" />
<glyph unicode="{" horiz-adv-x="684" d="M7 566l86 39l-2 2l5 -1h1l145 -38l53 183l1 -4l84 38l2 8l66 -285l219 -59l-177 -114l65 -273l-6 -3l-127 153l45 -192l-5 -3l-163 195l-93 -61l1 -3q-43 -18 -94 -44l3 9l-1 1h1l66 238zM14 562l147 -38l-63 76zM22 553l164 -196l83 38l-101 120zM110 596l62 -75l52 -13 l16 54zM124 120l84 55l59 212l-78 -35zM153 131l49 22l4 12zM179 512l98 -116l-2 -5l-58 -210l74 49q37 15 88 43l30 -35l-14 58l168 108l-207 56l-29 122l-11 -40h-1v-1l-86 -38l-1 -3zM212 162l83 55l-4 5l-77 -51zM232 511l75 34l-61 15zM248 567l63 -17l13 45l-30 130z M296 225l4 -4l32 21zM297 741l31 -133l50 169zM304 216l154 -184l-46 191l-33 40q-5 -2 -75 -47zM331 595l29 -126l82 37l-60 261zM365 464l203 -55l82 38l-202 54zM403 292l15 -66l127 -152l-60 255zM436 314l47 22l-1 2l135 87l-40 -18l2 -1zM465 17l90 40l2 -6l-90 -40z " />
<glyph unicode="|" horiz-adv-x="684" d="M7 566l86 39l-2 2l5 -1h1l145 -38l53 183l1 -4l84 38l2 8l66 -285l219 -59l-177 -114l65 -273l-6 -3l-127 153l45 -192l-5 -3l-163 195l-93 -61l1 -3q-43 -18 -94 -44l3 9l-1 1h1l66 238zM14 562l147 -38l-63 76zM22 553l164 -196l83 38l-101 120zM110 596l62 -75l52 -13 l16 54zM124 120l84 55l59 212l-78 -35zM153 131l49 22l4 12zM179 512l98 -116l-2 -5l-58 -210l74 49q37 15 88 43l30 -35l-14 58l168 108l-207 56l-29 122l-11 -40h-1v-1l-86 -38l-1 -3zM212 162l83 55l-4 5l-77 -51zM232 511l75 34l-61 15zM248 567l63 -17l13 45l-30 130z M296 225l4 -4l32 21zM297 741l31 -133l50 169zM304 216l154 -184l-46 191l-33 40q-5 -2 -75 -47zM331 595l29 -126l82 37l-60 261zM365 464l203 -55l82 38l-202 54zM403 292l15 -66l127 -152l-60 255zM436 314l47 22l-1 2l135 87l-40 -18l2 -1zM465 17l90 40l2 -6l-90 -40z " />
<glyph unicode="}" horiz-adv-x="684" d="M7 566l86 39l-2 2l5 -1h1l145 -38l53 183l1 -4l84 38l2 8l66 -285l219 -59l-177 -114l65 -273l-6 -3l-127 153l45 -192l-5 -3l-163 195l-93 -61l1 -3q-43 -18 -94 -44l3 9l-1 1h1l66 238zM14 562l147 -38l-63 76zM22 553l164 -196l83 38l-101 120zM110 596l62 -75l52 -13 l16 54zM124 120l84 55l59 212l-78 -35zM153 131l49 22l4 12zM179 512l98 -116l-2 -5l-58 -210l74 49q37 15 88 43l30 -35l-14 58l168 108l-207 56l-29 122l-11 -40h-1v-1l-86 -38l-1 -3zM212 162l83 55l-4 5l-77 -51zM232 511l75 34l-61 15zM248 567l63 -17l13 45l-30 130z M296 225l4 -4l32 21zM297 741l31 -133l50 169zM304 216l154 -184l-46 191l-33 40q-5 -2 -75 -47zM331 595l29 -126l82 37l-60 261zM365 464l203 -55l82 38l-202 54zM403 292l15 -66l127 -152l-60 255zM436 314l47 22l-1 2l135 87l-40 -18l2 -1zM465 17l90 40l2 -6l-90 -40z " />
<glyph unicode="~" horiz-adv-x="684" d="M7 566l86 39l-2 2l5 -1h1l145 -38l53 183l1 -4l84 38l2 8l66 -285l219 -59l-177 -114l65 -273l-6 -3l-127 153l45 -192l-5 -3l-163 195l-93 -61l1 -3q-43 -18 -94 -44l3 9l-1 1h1l66 238zM14 562l147 -38l-63 76zM22 553l164 -196l83 38l-101 120zM110 596l62 -75l52 -13 l16 54zM124 120l84 55l59 212l-78 -35zM153 131l49 22l4 12zM179 512l98 -116l-2 -5l-58 -210l74 49q37 15 88 43l30 -35l-14 58l168 108l-207 56l-29 122l-11 -40h-1v-1l-86 -38l-1 -3zM212 162l83 55l-4 5l-77 -51zM232 511l75 34l-61 15zM248 567l63 -17l13 45l-30 130z M296 225l4 -4l32 21zM297 741l31 -133l50 169zM304 216l154 -184l-46 191l-33 40q-5 -2 -75 -47zM331 595l29 -126l82 37l-60 261zM365 464l203 -55l82 38l-202 54zM403 292l15 -66l127 -152l-60 255zM436 314l47 22l-1 2l135 87l-40 -18l2 -1zM465 17l90 40l2 -6l-90 -40z " />
<glyph unicode="&#xa0;" />
<glyph unicode="&#xa1;" />
<glyph unicode="&#xa2;" />
<glyph unicode="&#xa3;" />
<glyph unicode="&#xa4;" />
<glyph unicode="&#xa5;" />
<glyph unicode="&#xa6;" />
<glyph unicode="&#xa7;" />
<glyph unicode="&#xa8;" />
<glyph unicode="&#xa9;" />
<glyph unicode="&#xaa;" />
<glyph unicode="&#xab;" />
<glyph unicode="&#xac;" />
<glyph unicode="&#xad;" />
<glyph unicode="&#x2212;" />
<glyph unicode="&#xae;" />
<glyph unicode="&#xaf;" />
<glyph unicode="&#xb0;" />
<glyph unicode="&#xb1;" />
<glyph unicode="&#xb2;" />
<glyph unicode="&#xb3;" />
<glyph unicode="&#xb4;" />
<glyph unicode="&#xb5;" />
<glyph unicode="&#xb6;" />
<glyph unicode="&#xb7;" />
<glyph unicode="&#xb8;" />
<glyph unicode="&#xb9;" />
<glyph unicode="&#xba;" />
<glyph unicode="&#xbb;" />
<glyph unicode="&#xbc;" />
<glyph unicode="&#xbd;" />
<glyph unicode="&#xbe;" />
<glyph unicode="&#xbf;" />
<glyph unicode="&#xc0;" />
<glyph unicode="&#xc1;" />
<glyph unicode="&#xc2;" />
<glyph unicode="&#xc3;" />
<glyph unicode="&#xc4;" />
<glyph unicode="&#xc5;" />
<glyph unicode="&#xc6;" />
<glyph unicode="&#xc7;" />
<glyph unicode="&#xc8;" />
<glyph unicode="&#xc9;" />
<glyph unicode="&#xca;" />
<glyph unicode="&#xcb;" />
<glyph unicode="&#xcc;" />
<glyph unicode="&#xcd;" />
<glyph unicode="&#xce;" />
<glyph unicode="&#xcf;" />
<glyph unicode="&#xd0;" />
<glyph unicode="&#xd1;" />
<glyph unicode="&#xd2;" />
<glyph unicode="&#xd3;" />
<glyph unicode="&#xd4;" />
<glyph unicode="&#xd5;" />
<glyph unicode="&#xd6;" />
<glyph unicode="&#xd7;" />
<glyph unicode="&#xd9;" />
<glyph unicode="&#xda;" />
<glyph unicode="&#xdb;" />
<glyph unicode="&#xdc;" />
<glyph unicode="&#xdd;" />
<glyph unicode="&#xde;" />
<glyph unicode="&#xdf;" />
<glyph unicode="&#xe0;" />
<glyph unicode="&#xe1;" />
<glyph unicode="&#xe2;" />
<glyph unicode="&#xe3;" />
<glyph unicode="&#xe4;" />
<glyph unicode="&#xe5;" />
<glyph unicode="&#xe7;" />
<glyph unicode="&#xe8;" />
<glyph unicode="&#xe9;" />
<glyph unicode="&#xea;" />
<glyph unicode="&#xeb;" />
<glyph unicode="&#xec;" />
<glyph unicode="&#xed;" />
<glyph unicode="&#xee;" />
<glyph unicode="&#xef;" />
<glyph unicode="&#xf0;" />
<glyph unicode="&#xf1;" />
<glyph unicode="&#xf2;" />
<glyph unicode="&#xf3;" />
<glyph unicode="&#xf4;" />
<glyph unicode="&#xf5;" />
<glyph unicode="&#xf6;" />
<glyph unicode="&#xf7;" />
<glyph unicode="&#xf8;" />
<glyph unicode="&#xf9;" />
<glyph unicode="&#xfa;" />
<glyph unicode="&#xfb;" />
<glyph unicode="&#xfc;" />
<glyph unicode="&#xfd;" />
<glyph unicode="&#xfe;" />
<glyph unicode="&#xff;" />
<glyph unicode="&#x152;" />
<glyph unicode="&#x153;" />
<glyph unicode="&#x178;" />
<glyph unicode="&#x2c6;" />
<glyph unicode="&#x2dc;" />
<glyph unicode="&#x2000;" horiz-adv-x="400" />
<glyph unicode="&#x2001;" horiz-adv-x="800" />
<glyph unicode="&#x2002;" horiz-adv-x="400" />
<glyph unicode="&#x2003;" horiz-adv-x="800" />
<glyph unicode="&#x2004;" horiz-adv-x="266" />
<glyph unicode="&#x2005;" horiz-adv-x="200" />
<glyph unicode="&#x2006;" horiz-adv-x="133" />
<glyph unicode="&#x2007;" horiz-adv-x="133" />
<glyph unicode="&#x2008;" horiz-adv-x="100" />
<glyph unicode="&#x2009;" horiz-adv-x="160" />
<glyph unicode="&#x200a;" horiz-adv-x="44" />
<glyph unicode="&#x2010;" horiz-adv-x="684" d="M7 566l86 39l-2 2l5 -1h1l145 -38l53 183l1 -4l84 38l2 8l66 -285l219 -59l-177 -114l65 -273l-6 -3l-127 153l45 -192l-5 -3l-163 195l-93 -61l1 -3q-43 -18 -94 -44l3 9l-1 1h1l66 238zM14 562l147 -38l-63 76zM22 553l164 -196l83 38l-101 120zM110 596l62 -75l52 -13 l16 54zM124 120l84 55l59 212l-78 -35zM153 131l49 22l4 12zM179 512l98 -116l-2 -5l-58 -210l74 49q37 15 88 43l30 -35l-14 58l168 108l-207 56l-29 122l-11 -40h-1v-1l-86 -38l-1 -3zM212 162l83 55l-4 5l-77 -51zM232 511l75 34l-61 15zM248 567l63 -17l13 45l-30 130z M296 225l4 -4l32 21zM297 741l31 -133l50 169zM304 216l154 -184l-46 191l-33 40q-5 -2 -75 -47zM331 595l29 -126l82 37l-60 261zM365 464l203 -55l82 38l-202 54zM403 292l15 -66l127 -152l-60 255zM436 314l47 22l-1 2l135 87l-40 -18l2 -1zM465 17l90 40l2 -6l-90 -40z " />
<glyph unicode="&#x2011;" horiz-adv-x="684" d="M7 566l86 39l-2 2l5 -1h1l145 -38l53 183l1 -4l84 38l2 8l66 -285l219 -59l-177 -114l65 -273l-6 -3l-127 153l45 -192l-5 -3l-163 195l-93 -61l1 -3q-43 -18 -94 -44l3 9l-1 1h1l66 238zM14 562l147 -38l-63 76zM22 553l164 -196l83 38l-101 120zM110 596l62 -75l52 -13 l16 54zM124 120l84 55l59 212l-78 -35zM153 131l49 22l4 12zM179 512l98 -116l-2 -5l-58 -210l74 49q37 15 88 43l30 -35l-14 58l168 108l-207 56l-29 122l-11 -40h-1v-1l-86 -38l-1 -3zM212 162l83 55l-4 5l-77 -51zM232 511l75 34l-61 15zM248 567l63 -17l13 45l-30 130z M296 225l4 -4l32 21zM297 741l31 -133l50 169zM304 216l154 -184l-46 191l-33 40q-5 -2 -75 -47zM331 595l29 -126l82 37l-60 261zM365 464l203 -55l82 38l-202 54zM403 292l15 -66l127 -152l-60 255zM436 314l47 22l-1 2l135 87l-40 -18l2 -1zM465 17l90 40l2 -6l-90 -40z " />
<glyph unicode="&#x2012;" horiz-adv-x="684" d="M7 566l86 39l-2 2l5 -1h1l145 -38l53 183l1 -4l84 38l2 8l66 -285l219 -59l-177 -114l65 -273l-6 -3l-127 153l45 -192l-5 -3l-163 195l-93 -61l1 -3q-43 -18 -94 -44l3 9l-1 1h1l66 238zM14 562l147 -38l-63 76zM22 553l164 -196l83 38l-101 120zM110 596l62 -75l52 -13 l16 54zM124 120l84 55l59 212l-78 -35zM153 131l49 22l4 12zM179 512l98 -116l-2 -5l-58 -210l74 49q37 15 88 43l30 -35l-14 58l168 108l-207 56l-29 122l-11 -40h-1v-1l-86 -38l-1 -3zM212 162l83 55l-4 5l-77 -51zM232 511l75 34l-61 15zM248 567l63 -17l13 45l-30 130z M296 225l4 -4l32 21zM297 741l31 -133l50 169zM304 216l154 -184l-46 191l-33 40q-5 -2 -75 -47zM331 595l29 -126l82 37l-60 261zM365 464l203 -55l82 38l-202 54zM403 292l15 -66l127 -152l-60 255zM436 314l47 22l-1 2l135 87l-40 -18l2 -1zM465 17l90 40l2 -6l-90 -40z " />
<glyph unicode="&#x2013;" />
<glyph unicode="&#x2014;" />
<glyph unicode="&#x2018;" />
<glyph unicode="&#x2019;" />
<glyph unicode="&#x201a;" />
<glyph unicode="&#x201c;" />
<glyph unicode="&#x201d;" />
<glyph unicode="&#x201e;" />
<glyph unicode="&#x2022;" />
<glyph unicode="&#x2026;" />
<glyph unicode="&#x202f;" horiz-adv-x="160" />
<glyph unicode="&#x2039;" />
<glyph unicode="&#x203a;" />
<glyph unicode="&#x205f;" horiz-adv-x="200" />
<glyph unicode="&#x2122;" />
<glyph unicode="&#xe000;" horiz-adv-x="800" d="M0 800h800v-800h-800v800z" />
<glyph unicode="&#xfb01;" />
<glyph unicode="&#xfb02;" />
<glyph unicode="&#xfb03;" horiz-adv-x="1229" d="M912 52l1 677l114 40v1l148 -32v-675h-2v-1l-113 -40v-1zM919 57zM919 61l108 39v596l-108 23v-658zM923 725l104 -22v59zM924 56l129 -27v60l-23 5zM1034 99l19 -4v596l-19 4v-596zM1034 702l22 -5l105 37l-127 28v-60zM1060 29l102 36l-102 22v-58zM1060 94l108 -23 v659l-108 -39v-597zM461 43v675l5 -1l-1 1l112 40v2l289 -62v-126l-6 1v-1l-110 -39v-2l-28 5v-89l119 -25v-127l-3 1l-112 -39l-1 4v-7h-3v-200h-3l-114 -40v-2zM468 48h1l-1 2l109 38v599l-109 23v-662zM475 715l102 -21v57zM478 46l121 -26v60l-16 3zM584 90l15 -4v201h2 l114 41v1l3 -1v47l-119 25v169h2l114 41v1l28 -6v47l-159 33v-595zM584 692l165 -35l105 37l-270 58v-60zM605 21l101 36l-101 21v-57zM605 85l110 -23v194l-110 23v-194zM605 406l2 -1l-1 2l109 39v92l-110 23v-155zM613 284l102 -21v58zM613 566l102 -21v58zM616 403 l103 -22l105 38l-103 22zM722 543l21 -4v59l-21 5v-60zM725 263l101 36l-101 21v-57zM725 327l110 -24v113l-2 1l1 -2l-109 -39v-49zM750 540l99 36l-99 21v-57zM750 604l109 -24v109l-109 -39v-46zM10 43v675l5 -1l-1 1l112 40v2l289 -62v-126l-6 1v-1l-110 -39v-2l-28 5 v-89l119 -25v-127l-3 1l-112 -39l-1 4v-7h-3v-200h-3l-114 -40v-2zM17 48h1l-1 2l109 38v599l-109 23v-662zM24 715l102 -21v57zM27 46l121 -26v60l-16 3zM133 90l15 -4v201h2l114 41v1l3 -1v47l-119 25v169h2l114 41v1l28 -6v47l-159 33v-595zM133 692l165 -35l105 37 l-270 58v-60zM154 21l101 36l-101 21v-57zM154 85l110 -23v194l-110 23v-194zM154 406l2 -1l-1 2l109 39v92l-110 23v-155zM162 284l102 -21v58zM162 566l102 -21v58zM165 403l103 -22l105 38l-103 22zM271 543l21 -4v59l-21 5v-60zM274 263l101 36l-101 21v-57zM274 327 l110 -24v113l-2 1l1 -2l-109 -39v-49zM299 540l99 36l-99 21v-57zM299 604l109 -24v109l-109 -39v-46z" />
<glyph unicode="&#xfb04;" horiz-adv-x="1306" d="M912 65v679h1l-1 1l110 39v1h2l2 1v-2l144 -30l1 -553l135 -28v-127l-110 -39v-2zM919 75l103 36v603l-103 22v-661zM922 742l100 -22v57zM923 69l266 -56v58l-163 35zM1029 112l160 -34v48l-136 29v552l-24 5v-600zM1029 719l26 -6l103 37l-129 27v-58zM1060 164l103 37 v544l-103 -37v-544zM1065 159l127 -27l102 36l-126 27zM1196 14l98 35l-98 21v-56zM1196 76l103 -22v109l-103 -37v-50zM461 43v675l5 -1l-1 1l112 40v2l289 -62v-126l-6 1v-1l-110 -39v-2l-28 5v-89l119 -25v-127l-3 1l-112 -39l-1 4v-7h-3v-200h-3l-114 -40v-2zM468 48h1 l-1 2l109 38v599l-109 23v-662zM475 715l102 -21v57zM478 46l121 -26v60l-16 3zM584 90l15 -4v201h2l114 41v1l3 -1v47l-119 25v169h2l114 41v1l28 -6v47l-159 33v-595zM584 692l165 -35l105 37l-270 58v-60zM605 21l101 36l-101 21v-57zM605 85l110 -23v194l-110 23v-194z M605 406l2 -1l-1 2l109 39v92l-110 23v-155zM613 284l102 -21v58zM613 566l102 -21v58zM616 403l103 -22l105 38l-103 22zM722 543l21 -4v59l-21 5v-60zM725 263l101 36l-101 21v-57zM725 327l110 -24v113l-2 1l1 -2l-109 -39v-49zM750 540l99 36l-99 21v-57zM750 604 l109 -24v109l-109 -39v-46zM10 43v675l5 -1l-1 1l112 40v2l289 -62v-126l-6 1v-1l-110 -39v-2l-28 5v-89l119 -25v-127l-3 1l-112 -39l-1 4v-7h-3v-200h-3l-114 -40v-2zM17 48h1l-1 2l109 38v599l-109 23v-662zM24 715l102 -21v57zM27 46l121 -26v60l-16 3zM133 90l15 -4 v201h2l114 41v1l3 -1v47l-119 25v169h2l114 41v1l28 -6v47l-159 33v-595zM133 692l165 -35l105 37l-270 58v-60zM154 21l101 36l-101 21v-57zM154 85l110 -23v194l-110 23v-194zM154 406l2 -1l-1 2l109 39v92l-110 23v-155zM162 284l102 -21v58zM162 566l102 -21v58z M165 403l103 -22l105 38l-103 22zM271 543l21 -4v59l-21 5v-60zM274 263l101 36l-101 21v-57zM274 327l110 -24v113l-2 1l1 -2l-109 -39v-49zM299 540l99 36l-99 21v-57zM299 604l109 -24v109l-109 -39v-46z" />
</font>
</defs>
</svg>
